<svg width="40" height="40" viewBox="0 0 40 40" fill="none" xmlns="http://www.w3.org/2000/svg">
<path d="M34.9498 1.66675H30.0498C28.5998 1.66675 27.5332 2.26675 27.0498 3.33341C26.7832 3.81675 26.6665 4.38341 26.6665 5.05008V9.95008C26.6665 12.0667 27.9332 13.3334 30.0498 13.3334H34.9498C35.6165 13.3334 36.1832 13.2167 36.6665 12.9501C37.7332 12.4667 38.3332 11.4001 38.3332 9.95008V5.05008C38.3332 2.93341 37.0665 1.66675 34.9498 1.66675ZM36.5165 8.21675C36.3498 8.38341 36.0998 8.50008 35.8332 8.51675H33.4832V9.36675L33.4998 10.8334C33.4832 11.1167 33.3832 11.3501 33.1832 11.5501C33.0165 11.7167 32.7665 11.8334 32.4998 11.8334C31.9498 11.8334 31.4998 11.3834 31.4998 10.8334V8.50008L29.1665 8.51675C28.6165 8.51675 28.1665 8.05008 28.1665 7.50008C28.1665 6.95008 28.6165 6.50008 29.1665 6.50008L30.6332 6.51675H31.4998V4.18341C31.4998 3.63341 31.9498 3.16675 32.4998 3.16675C33.0498 3.16675 33.4998 3.63341 33.4998 4.18341L33.4832 5.36675V6.50008H35.8332C36.3832 6.50008 36.8332 6.95008 36.8332 7.50008C36.8165 7.78341 36.6998 8.01675 36.5165 8.21675Z" fill="#2AC6FA"/>
<path d="M14.9999 17.3C17.1906 17.3 18.9665 15.5241 18.9665 13.3334C18.9665 11.1426 17.1906 9.3667 14.9999 9.3667C12.8091 9.3667 11.0332 11.1426 11.0332 13.3334C11.0332 15.5241 12.8091 17.3 14.9999 17.3Z" fill="#2AC6FA"/>
<path d="M34.9502 13.3333H34.1668V21.0166L33.9502 20.8333C32.6502 19.7166 30.5502 19.7166 29.2502 20.8333L22.3168 26.7833C21.0168 27.8999 18.9168 27.8999 17.6168 26.7833L17.0502 26.3166C15.8668 25.2833 13.9835 25.1833 12.6502 26.0833L6.41683 30.2666C6.05016 29.3333 5.8335 28.2499 5.8335 26.9833V13.0166C5.8335 8.31659 8.31683 5.83325 13.0168 5.83325H26.6668V5.04992C26.6668 4.38325 26.7835 3.81659 27.0502 3.33325H13.0168C6.95016 3.33325 3.3335 6.94992 3.3335 13.0166V26.9833C3.3335 28.7999 3.65016 30.3833 4.26683 31.7166C5.70016 34.8833 8.76683 36.6666 13.0168 36.6666H26.9835C33.0502 36.6666 36.6668 33.0499 36.6668 26.9833V12.9499C36.1835 13.2166 35.6168 13.3333 34.9502 13.3333Z" fill="#2AC6FA"/>
</svg>
