<svg width="40" height="40" viewBox="0 0 40 40" fill="none" xmlns="http://www.w3.org/2000/svg">
<path d="M24.5502 9.76659V4.16659C24.5502 3.69992 24.1835 3.33325 23.7169 3.33325H16.2835C15.8169 3.33325 15.4502 3.69992 15.4502 4.16659V9.76659C15.4502 10.2333 15.8169 10.5999 16.2835 10.5999H23.7169C24.1835 10.5999 24.5502 10.2333 24.5502 9.76659Z" fill="#2AC6FA"/>
<path d="M12.0831 3.36669C7.81647 3.63336 4.8998 5.83336 3.81647 9.50002C3.6498 10.05 4.0498 10.6 4.61647 10.6H12.1165C12.5831 10.6 12.9498 10.2334 12.9498 9.76669V4.20002C12.9498 3.73336 12.5498 3.33336 12.0831 3.36669Z" fill="#2AC6FA"/>
<path d="M27.9165 3.35009C32.1831 3.61676 35.0998 5.81676 36.1831 9.48342C36.3498 10.0334 35.9498 10.5834 35.3831 10.5834H27.8831C27.4165 10.5834 27.0498 10.2168 27.0498 9.75009V4.18342C27.0498 3.71676 27.4498 3.31676 27.9165 3.35009Z" fill="#2AC6FA"/>
<path d="M36.6668 26.1666C36.6668 26.1499 36.6502 26.1333 36.6335 26.1166C36.5668 26.0166 36.4835 25.9166 36.4002 25.8333C36.3835 25.8166 36.3668 25.7833 36.3502 25.7666C35.0002 24.2666 33.0168 23.3333 30.8335 23.3333C28.7335 23.3333 26.8168 24.1999 25.4502 25.5999C24.1335 26.9499 23.3335 28.7999 23.3335 30.8333C23.3335 32.2333 23.7335 33.5666 24.4168 34.6999C24.7835 35.3166 25.2502 35.8832 25.7835 36.3499C25.8168 36.3666 25.8335 36.3833 25.8502 36.3999C25.9335 36.4833 26.0168 36.5499 26.1168 36.6332C26.1168 36.6332 26.1168 36.6332 26.1335 36.6332C26.1502 36.6499 26.1668 36.6666 26.1835 36.6666C27.4335 37.7166 29.0502 38.3333 30.8335 38.3333C33.5668 38.3333 35.9502 36.8666 37.2502 34.6999C37.6335 34.0499 37.9335 33.3332 38.1168 32.5832C38.2668 32.0166 38.3335 31.4333 38.3335 30.8333C38.3335 29.0666 37.7168 27.4333 36.6668 26.1666ZM33.6335 32.0499H32.0835V33.6666C32.0835 34.3499 31.5168 34.9166 30.8335 34.9166C30.1502 34.9166 29.5835 34.3499 29.5835 33.6666V32.0499H28.0335C27.3502 32.0499 26.7835 31.4833 26.7835 30.7999C26.7835 30.1166 27.3502 29.5499 28.0335 29.5499H29.5835V28.0666C29.5835 27.3833 30.1502 26.8166 30.8335 26.8166C31.5168 26.8166 32.0835 27.3833 32.0835 28.0666V29.5499H33.6335C34.3168 29.5499 34.8835 30.1166 34.8835 30.7999C34.8835 31.4833 34.3335 32.0499 33.6335 32.0499Z" fill="#2AC6FA"/>
<path d="M36.6668 13.9334V21.2334C36.6668 21.8501 36.0168 22.2501 35.4668 21.9668C34.0668 21.2334 32.4668 20.8334 30.8335 20.8334C28.1502 20.8334 25.5335 21.9334 23.6668 23.8501C21.8335 25.7168 20.8335 28.2001 20.8335 30.8334C20.8335 32.1834 21.3668 33.9168 22.0335 35.3668C22.3002 35.9501 21.9002 36.6668 21.2502 36.6668H13.0168C7.66683 36.6668 3.3335 32.3334 3.3335 26.9834V13.9334C3.3335 13.4668 3.70016 13.1001 4.16683 13.1001H35.8335C36.3002 13.1001 36.6668 13.4668 36.6668 13.9334Z" fill="#2AC6FA"/>
</svg>
