<svg width="10" height="10" viewBox="0 0 10 10" fill="none" xmlns="http://www.w3.org/2000/svg">
<path fill-rule="evenodd" clip-rule="evenodd" d="M0.972565 0.472748C1.23366 0.211656 1.65697 0.211656 1.91806 0.472748L9.48202 8.03671C9.74311 8.2978 9.74311 8.72111 9.48202 8.9822C9.22093 9.24329 8.79762 9.24329 8.53653 8.9822L0.972565 1.41824C0.711474 1.15715 0.711474 0.733839 0.972565 0.472748Z" fill="#FD5839"/>
<path fill-rule="evenodd" clip-rule="evenodd" d="M9.48202 0.472748C9.74312 0.733839 9.74312 1.15715 9.48202 1.41824L1.91806 8.9822C1.65697 9.24329 1.23366 9.24329 0.97257 8.9822C0.711479 8.72111 0.711479 8.2978 0.97257 8.03671L8.53653 0.472748C8.79762 0.211656 9.22093 0.211656 9.48202 0.472748Z" fill="#FD5839"/>
</svg>
