<svg xmlns="http://www.w3.org/2000/svg" width="13" height="13" viewBox="0 0 13 13" fill="none">
<path fill-rule="evenodd" clip-rule="evenodd" d="M0.630412 0.63033C0.978534 0.282208 1.54295 0.282208 1.89107 0.63033L11.9764 10.7156C12.3245 11.0637 12.3245 11.6281 11.9764 11.9763C11.6282 12.3244 11.0638 12.3244 10.7157 11.9763L0.630412 1.89099C0.28229 1.54287 0.28229 0.978452 0.630412 0.63033Z" fill="white"/>
<path fill-rule="evenodd" clip-rule="evenodd" d="M11.976 0.63033C12.3242 0.978452 12.3242 1.54287 11.976 1.89099L1.89075 11.9763C1.54263 12.3244 0.978214 12.3244 0.630092 11.9763C0.281971 11.6281 0.281971 11.0637 0.630092 10.7156L10.7154 0.63033C11.0635 0.282208 11.6279 0.282208 11.976 0.63033Z" fill="white"/>
</svg>