<svg width="30" height="30" viewBox="0 0 30 30" fill="none" xmlns="http://www.w3.org/2000/svg">
<rect width="30" height="30" rx="15" fill="#FD5839"/>
<path fill-rule="evenodd" clip-rule="evenodd" d="M5.146 14.9999C5.146 9.57856 9.5788 5.14575 15.0002 5.14575C20.4215 5.14575 24.8543 9.57856 24.8543 14.9999C24.8543 20.4213 20.4215 24.8541 15.0002 24.8541C9.5788 24.8541 5.146 20.4213 5.146 14.9999ZM15.0002 6.52075C10.3382 6.52075 6.521 10.3379 6.521 14.9999C6.521 19.6619 10.3382 23.4791 15.0002 23.4791C19.6621 23.4791 23.4793 19.6619 23.4793 14.9999C23.4793 10.3379 19.6621 6.52075 15.0002 6.52075Z" fill="white"/>
<path fill-rule="evenodd" clip-rule="evenodd" d="M15 10.6458C15.3797 10.6458 15.6875 10.9536 15.6875 11.3333V15.9166C15.6875 16.2963 15.3797 16.6041 15 16.6041C14.6203 16.6041 14.3125 16.2963 14.3125 15.9166V11.3333C14.3125 10.9536 14.6203 10.6458 15 10.6458Z" fill="white"/>
<path fill-rule="evenodd" clip-rule="evenodd" d="M14.0781 18.6667C14.0781 18.1604 14.4885 17.75 14.9948 17.75H15.003C15.5093 17.75 15.9197 18.1604 15.9197 18.6667C15.9197 19.1729 15.5093 19.5833 15.003 19.5833H14.9948C14.4885 19.5833 14.0781 19.1729 14.0781 18.6667Z" fill="white"/>
</svg>
