<svg width="22" height="22" viewBox="0 0 22 22" fill="none" xmlns="http://www.w3.org/2000/svg">
<path fill-rule="evenodd" clip-rule="evenodd" d="M10.3127 1.83325C10.3127 1.45356 10.6205 1.14575 11.0002 1.14575C16.4399 1.14575 20.8543 5.56022 20.8543 10.9999C20.8543 16.4396 16.4399 20.8541 11.0002 20.8541C5.56047 20.8541 1.146 16.4396 1.146 10.9999C1.146 8.77371 1.88532 6.71324 3.13673 5.05783C3.3657 4.75494 3.79686 4.69502 4.09975 4.92399C4.40264 5.15296 4.46256 5.58412 4.23359 5.887C3.15667 7.31159 2.521 9.0828 2.521 10.9999C2.521 15.6802 6.31986 19.4791 11.0002 19.4791C15.6805 19.4791 19.4793 15.6802 19.4793 10.9999C19.4793 6.31961 15.6805 2.52075 11.0002 2.52075C10.6205 2.52075 10.3127 2.21295 10.3127 1.83325Z" fill="white"/>
</svg>
