<svg width="30" height="30" viewBox="0 0 30 30" fill="none" xmlns="http://www.w3.org/2000/svg">
<rect width="30" height="30" rx="15" fill="#24DD7D"/>
<path fill-rule="evenodd" clip-rule="evenodd" d="M5.146 14.9999C5.146 9.57856 9.5788 5.14575 15.0002 5.14575C20.4215 5.14575 24.8543 9.57856 24.8543 14.9999C24.8543 20.4213 20.4215 24.8541 15.0002 24.8541C9.5788 24.8541 5.146 20.4213 5.146 14.9999ZM15.0002 6.52075C10.3382 6.52075 6.521 10.3379 6.521 14.9999C6.521 19.6619 10.3382 23.4791 15.0002 23.4791C19.6621 23.4791 23.4793 19.6619 23.4793 14.9999C23.4793 10.3379 19.6621 6.52075 15.0002 6.52075Z" fill="white"/>
<path fill-rule="evenodd" clip-rule="evenodd" d="M19.3822 11.9201C19.6505 12.1888 19.6501 12.6241 19.3814 12.8923L14.1839 18.0807C13.9153 18.3487 13.4804 18.3485 13.212 18.0802L10.6179 15.4861C10.3494 15.2176 10.3494 14.7823 10.6179 14.5138C10.8864 14.2453 11.3217 14.2453 11.5901 14.5138L13.6986 16.6223L18.41 11.9192C18.6787 11.6509 19.114 11.6513 19.3822 11.9201Z" fill="white"/>
</svg>
