<svg width="30" height="30" viewBox="0 0 30 30" fill="none" xmlns="http://www.w3.org/2000/svg">
<path fill-rule="evenodd" clip-rule="evenodd" d="M18.0044 2.39303C18.0054 2.3937 18.0064 2.39438 18.0074 2.39506L25.4892 7.30375C28.4534 9.249 28.4534 13.5887 25.4893 15.5339L18.0024 20.446C18.0023 20.4461 18.0025 20.4459 18.0024 20.446C17.1412 21.012 16.0572 21.2657 15.0249 21.2657C13.993 21.2657 12.9097 21.0124 12.0486 20.4468C12.0482 20.4465 12.0478 20.4463 12.0474 20.446L4.52491 15.5351C1.54574 13.5902 1.54573 9.23504 4.5249 7.29009L12.0474 2.37923C12.0478 2.37895 12.0482 2.37867 12.0487 2.37839C12.9097 1.81277 13.9934 1.55924 15.0265 1.56104C16.059 1.56285 17.143 1.81986 18.0044 2.39303ZM15.0233 3.43604C14.2694 3.43472 13.5661 3.62469 13.0774 3.94598L13.0749 3.94764L5.54989 8.86012C5.54989 8.86013 5.5499 8.86012 5.54989 8.86012C3.70408 10.0652 3.70407 12.76 5.54988 13.9651C5.54987 13.9651 5.54988 13.9651 5.54988 13.9651L13.0774 18.8792C13.5662 19.2006 14.2698 19.3907 15.0249 19.3907C15.78 19.3907 16.4836 19.2006 16.9724 18.8792L24.4605 13.9663C24.4605 13.9663 24.4606 13.9663 24.4605 13.9663C26.2962 12.7615 26.2963 10.0762 24.4606 8.87146C24.4606 8.87144 24.4606 8.87148 24.4606 8.87146L16.9673 3.95517C16.4792 3.62977 15.7771 3.43736 15.0233 3.43604Z" fill="#2AC6FA"/>
<path fill-rule="evenodd" clip-rule="evenodd" d="M7.0394 15.4126C7.55717 15.4137 7.976 15.8343 7.9749 16.3521L7.9624 22.2126C7.9624 22.2123 7.9624 22.2129 7.9624 22.2126C7.96264 22.7739 8.1843 23.4087 8.58578 23.9665C8.98749 24.5245 9.51733 24.9343 10.046 25.1106C10.0459 25.1106 10.0461 25.1106 10.046 25.1106L14.029 26.4341C14.0295 26.4343 14.0301 26.4345 14.0306 26.4346C14.25 26.5061 14.5994 26.5563 14.9952 26.5563C15.389 26.5563 15.743 26.5066 15.9717 26.4338L19.9534 25.1107C19.9534 25.1107 19.9535 25.1107 19.9534 25.1107C20.4822 24.9344 21.0123 24.5246 21.414 23.9665C21.8157 23.4084 22.0374 22.7741 22.0374 22.2126V16.4126C22.0374 15.8948 22.4571 15.4751 22.9749 15.4751C23.4927 15.4751 23.9124 15.8948 23.9124 16.4126V22.2126C23.9124 23.2386 23.5216 24.248 22.9358 25.0619C22.3501 25.8755 21.5175 26.5658 20.5464 26.8895L16.5493 28.2177C16.078 28.3692 15.5149 28.4313 14.9952 28.4313C14.4763 28.4313 13.914 28.3693 13.4458 28.2161L13.4418 28.2148L9.45428 26.8898C8.48309 26.566 7.64973 25.8755 7.06402 25.0619C6.47822 24.248 6.0874 23.2386 6.0874 22.2126L6.0874 22.2106L6.0999 16.3481C6.10101 15.8303 6.52164 15.4115 7.0394 15.4126Z" fill="#2AC6FA"/>
<path fill-rule="evenodd" clip-rule="evenodd" d="M26.75 10.3125C27.2678 10.3125 27.6875 10.7322 27.6875 11.25V18.75C27.6875 19.2678 27.2678 19.6875 26.75 19.6875C26.2322 19.6875 25.8125 19.2678 25.8125 18.75V11.25C25.8125 10.7322 26.2322 10.3125 26.75 10.3125Z" fill="#2AC6FA"/>
</svg>
