<svg width="28" height="28" viewBox="0 0 28 28" fill="none" xmlns="http://www.w3.org/2000/svg">
<path fill-rule="evenodd" clip-rule="evenodd" d="M12.0808 10.7714C11.8123 10.9258 11.4917 11.3458 11.4917 12.2732V15.7266C11.4917 16.6465 11.8113 17.0684 12.0821 17.2247C12.3533 17.3812 12.88 17.4471 13.6794 16.987C13.6792 16.9871 13.6797 16.9869 13.6794 16.987L16.6654 15.2607L16.6668 15.2599C17.4664 14.7995 17.6721 14.3113 17.6721 13.9999C17.6721 13.6884 17.4664 13.2003 16.6668 12.7398L15.1721 11.8757L13.6801 11.0132C13.6799 11.0131 13.6803 11.0133 13.6801 11.0132C12.8785 10.5518 12.3508 10.6163 12.0808 10.7714ZM11.2088 9.25416C12.2075 8.68022 13.4303 8.85001 14.5533 9.49659L14.5546 9.49736L16.048 10.3607L17.54 11.2233C17.5397 11.2231 17.5402 11.2234 17.54 11.2233C18.6649 11.8712 19.4221 12.8474 19.4221 13.9999C19.4221 15.1523 18.6657 16.1281 17.5409 16.776C17.5406 16.7762 17.5412 16.7758 17.5409 16.776L14.5533 18.5032C13.4281 19.151 12.2051 19.3161 11.2075 18.7405C10.2096 18.1647 9.7417 17.0233 9.7417 15.7266V12.2732C9.7417 10.9723 10.2086 9.829 11.2088 9.25416Z" fill="white"/>
<path fill-rule="evenodd" clip-rule="evenodd" d="M14.0002 3.2085C8.04009 3.2085 3.2085 8.04009 3.2085 14.0002C3.2085 19.9602 8.04009 24.7918 14.0002 24.7918C19.9602 24.7918 24.7918 19.9602 24.7918 14.0002C24.7918 8.04009 19.9602 3.2085 14.0002 3.2085ZM1.4585 14.0002C1.4585 7.07359 7.07359 1.4585 14.0002 1.4585C20.9267 1.4585 26.5418 7.07359 26.5418 14.0002C26.5418 20.9267 20.9267 26.5418 14.0002 26.5418C7.07359 26.5418 1.4585 20.9267 1.4585 14.0002Z" fill="white"/>
</svg>
