<svg width="500" height="500" viewBox="0 0 500 500" fill="none" xmlns="http://www.w3.org/2000/svg">
<path d="M249.099 228.7V228.6L248.699 228.5L248.999 228.7H249.099Z" fill="#F5F5F5"/>
<path d="M236 135L249.2 227.7L262.3 135C262.4 135 262.4 135 262.5 135L280 10.1C270.2 8.8 260.1 8 249.9 8C238.9 8 228.2 8.8 217.6 10.4L235.6 135C235.8 135 235.9 135 236 135Z" fill="#F5F5F5"/>
<path d="M288.5 142.6L249.5 228.4L393.3 61.4C377.5 47.7 359.7 36.3 340.5 27.5L288.3 142.5C288.3 142.6 288.4 142.6 288.5 142.6Z" fill="#F5F5F5"/>
<path d="M158.701 202.1L248.601 228.4H248.201L249.101 228.7H249.201V228.6L249.301 228.7H249.201L249.301 228.8H249.401L249.801 229L249.501 228.8L339.901 255.3C339.901 255.4 339.901 255.4 339.801 255.5L459.601 290.7C465.601 271 468.801 250.2 469.001 228.5H343.601C343.601 228.6 343.601 228.6 343.601 228.7L249.401 228.8V228.7L249.801 228.6L249.501 228.8L250.301 228.6H249.901L460.401 166.3C454.501 145.8 445.601 126.5 434.301 109L249.901 228.5H249.601L249.701 228.3L249.501 228.5L249.601 228L249.401 228.4V228.5L249.301 228.6V228.5H249.201V228.4L249.001 228L249.101 228.4L248.901 228.3L249.001 228.4H248.701L64.8008 110.1C53.7008 127.6 45.0008 146.8 39.3008 167.2L158.701 202.1Z" fill="#F5F5F5"/>
<path d="M187.301 157.2L249.001 228.3L209.901 142.6L157.601 28.3999C138.501 37.2999 120.901 48.8999 105.301 62.5999L187.301 157.2Z" fill="#F5F5F5"/>
<path d="M433.1 347.3L328.7 279.9C328.7 279.9 328.7 280 328.6 280L249.6 229.1L311.2 300.1C311.1 300.1 311.1 300.2 311 300.2L391.9 393.7C407.8 380.3 421.6 364.7 433.1 347.3Z" fill="#F5F5F5"/>
<path d="M249.1 228.7V228.8V228.7V228.8H249.2H249.1L249.2 228.7V228.8V228.7H249.1Z" fill="#F5F5F5"/>
<path d="M248.699 228.9L249.099 228.8V228.7L248.699 228.9Z" fill="#F5F5F5"/>
<path d="M248.8 229.1L170 280.2C169.9 280.1 169.9 280 169.8 279.9L66.5996 346.8C77.8996 364.1 91.6996 379.8 107.3 393.2L199.4 286.6L248.8 229.1Z" fill="#F5F5F5"/>
<path d="M158.7 255.5L249 228.8L31 229C31.2 250.4 34.4 271 40.3 290.5L158.7 255.5Z" fill="#F5F5F5"/>
<path d="M159.301 426.5C177.801 434.9 197.801 440.9 218.601 443.9L249.001 229.4L159.301 426.5Z" fill="#F5F5F5"/>
<path d="M280.1 444C301 441.1 321 435.3 339.6 426.9L249.5 229.4L280.1 444Z" fill="#F5F5F5"/>
<path d="M249.1 229.1L249.2 229.8L249.3 229.1L249.2 228.9L249.1 229.1Z" fill="#F5F5F5"/>
<path d="M249.5 485.189C364.651 485.189 458 482.461 458 479.095C458 475.729 364.651 473 249.5 473C134.349 473 41 475.729 41 479.095C41 482.461 134.349 485.189 249.5 485.189Z" fill="#F5F5F5"/>
<path d="M307.3 117.5C307.3 117.5 339 185.5 315.2 248.8C291.3 312.2 203.6 403 193.8 407.8C193.8 407.8 216.3 372.4 175.2 372.7C134.1 373 113.5 363 109 348.6C104.6 334.2 129 287.7 106.5 276.5C84.1004 265.3 56.7004 268.7 38.4004 253.2C38.4004 253.2 81.2004 249.6 112.7 246.4C145.8 243 245.4 173.7 253.4 122.7" fill="#2AC6FA"/>
<g opacity="0.4">
<path d="M307.3 117.5C307.3 117.5 339 185.5 315.2 248.8C291.3 312.2 203.6 403 193.8 407.8C193.8 407.8 216.3 372.4 175.2 372.7C134.1 373 113.5 363 109 348.6C104.6 334.2 129 287.7 106.5 276.5C84.1004 265.3 56.7004 268.7 38.4004 253.2C38.4004 253.2 81.2004 249.6 112.7 246.4C145.8 243 245.4 173.7 253.4 122.7" fill="#03516B"/>
</g>
<path d="M191.801 234.6C191.801 234.6 191.601 234.8 191.201 235C190.801 235.3 190.201 235.7 189.501 236.1C188.101 237.1 185.901 238.4 183.301 240.1C178.001 243.4 170.501 247.6 161.901 251.7C153.301 255.8 145.301 259 139.401 261.1C136.501 262.2 134.101 263 132.401 263.5C131.601 263.7 131.001 263.9 130.501 264.1C130.101 264.2 129.801 264.3 129.801 264.3C129.801 264.3 130.001 264.2 130.401 264C130.901 263.8 131.501 263.6 132.301 263.3C133.901 262.7 136.301 261.9 139.201 260.8C145.001 258.6 153.001 255.4 161.601 251.3C170.201 247.2 177.701 243 183.101 239.8C185.801 238.2 187.901 236.9 189.401 236C190.101 235.6 190.701 235.2 191.101 235C191.601 234.7 191.801 234.6 191.801 234.6Z" fill="#263238"/>
<path d="M218.8 272.3C218.8 272.3 218.6 272.5 218.1 272.8C217.6 273.2 216.9 273.6 216.1 274.3C214.4 275.6 211.9 277.4 208.8 279.7C202.7 284.3 194.3 290.9 185.5 298.6C176.7 306.3 169.1 313.7 163.7 319.1C161 321.8 158.8 324.1 157.4 325.6C156.7 326.3 156.1 326.9 155.7 327.4C155.3 327.8 155.1 328 155.1 328C155.1 328 155.3 327.8 155.6 327.3C156 326.8 156.6 326.2 157.2 325.5C158.6 323.9 160.8 321.6 163.4 318.9C168.7 313.4 176.3 305.9 185.1 298.2C193.9 290.5 202.3 284 208.5 279.4C211.6 277.1 214.1 275.3 215.9 274.1C216.8 273.5 217.4 273.1 218 272.7C218.6 272.5 218.8 272.3 218.8 272.3Z" fill="#263238"/>
<path d="M215.201 283.5C215.201 283.5 215.101 283.6 214.901 283.9C214.601 284.2 214.301 284.5 214.001 284.9C213.201 285.8 212.001 287 210.501 288.5C207.501 291.5 203.201 295.5 198.301 299.7C193.401 303.9 188.701 307.5 185.301 310.1C183.601 311.4 182.201 312.4 181.201 313C180.701 313.3 180.401 313.6 180.101 313.8C179.801 314 179.701 314.1 179.701 314C179.701 314 179.801 313.9 180.101 313.7C180.401 313.5 180.701 313.2 181.201 312.9C182.201 312.1 183.601 311.1 185.201 309.8C188.601 307.2 193.101 303.5 198.101 299.3C203.001 295.1 207.301 291.1 210.401 288.2C211.901 286.8 213.101 285.6 214.001 284.7C214.401 284.3 214.701 284 215.001 283.8C215.001 283.6 215.201 283.4 215.201 283.5Z" fill="#263238"/>
<path d="M209.801 444L204.701 467.2L195.401 484.3C194.701 485.5 195.201 487.1 196.501 487.7C197.201 488 198.001 488 198.701 487.6C203.001 485.1 219.001 475.8 219.201 474.1C219.501 472.1 226.201 450 226.201 450L209.801 444Z" fill="#263238"/>
<path d="M220 471.8C220 471.8 219.7 472.1 219.1 472.5C218.4 473 217.6 473.5 216.6 474.2C214.4 475.7 211.5 477.6 208.3 479.8C205.1 481.9 202.2 483.9 200 485.4C199 486.1 198.2 486.6 197.5 487.1C196.9 487.5 196.6 487.7 196.5 487.7C196.5 487.7 196.8 487.4 197.4 487C198 486.6 198.8 485.9 199.8 485.2C201.9 483.7 204.8 481.7 208 479.5C211.2 477.3 214.2 475.4 216.4 474.1C217.5 473.4 218.4 472.9 219 472.5C219.7 471.9 220 471.7 220 471.8Z" fill="#455A64"/>
<path d="M312.502 449.5L311.102 468C311.102 468 329.402 475.6 329.502 479.1H293.502L294.502 448.8L312.502 449.5Z" fill="#263238"/>
<path d="M328.401 477.9C328.401 477.9 327.901 477.9 327.001 477.9C326.001 477.9 324.801 477.8 323.201 477.8C320.001 477.7 315.601 477.6 310.801 477.5C306.001 477.4 301.601 477.4 298.401 477.5C296.901 477.5 295.601 477.5 294.601 477.5C293.701 477.5 293.201 477.5 293.201 477.4C293.201 477.4 293.701 477.3 294.601 477.3C295.501 477.2 296.801 477.2 298.401 477.1C301.601 477 306.001 476.9 310.801 477C315.601 477.1 320.001 477.3 323.201 477.5C324.801 477.6 326.101 477.7 327.001 477.8C327.901 477.8 328.401 477.8 328.401 477.9Z" fill="#455A64"/>
<path d="M231.902 263.3L200.102 459.6L229.302 461.4L274.402 263.3H231.902Z" fill="#2AC6FA"/>
<path d="M274.9 254.8L289.6 461.4H317V242.6L274.9 254.8Z" fill="#2AC6FA"/>
<path d="M307.101 448.5C307.001 448.5 304.701 407.6 302.101 357.1C299.501 306.6 297.501 265.7 297.701 265.7C297.801 265.7 300.101 306.6 302.701 357.1C305.301 407.5 307.301 448.5 307.101 448.5Z" fill="#263238"/>
<path d="M317.001 448.5C316.901 448.6 316.901 448.6 316.801 448.6C316.601 448.6 316.301 448.7 316.001 448.8C315.301 448.9 314.301 449.1 313.001 449.2C310.401 449.5 306.901 449.9 303.001 450.2C295.201 450.9 288.801 451.2 288.801 450.8C288.801 450.8 288.901 450.8 289.101 450.8C289.301 450.8 289.601 450.8 289.901 450.8C290.701 450.7 291.701 450.7 292.901 450.6C295.601 450.4 299.101 450.1 302.901 449.7C306.701 449.4 310.201 449.1 312.901 448.8C315.501 448.6 317.201 448.4 317.001 448.5Z" fill="#263238"/>
<path d="M249.201 267.9C249.201 267.9 249.201 268.1 249.201 268.4C249.201 268.7 249.101 269.2 249.001 269.8C248.801 271 248.601 272.8 248.201 275C247.501 279.5 246.501 286 245.101 294C242.401 310.1 238.601 332.2 233.901 356.6C229.201 381 224.601 403 221.101 418.9C219.401 426.9 217.901 433.3 216.901 437.7C216.401 439.9 216.001 441.6 215.701 442.8C215.601 443.4 215.501 443.8 215.401 444.1C215.301 444.4 215.301 444.5 215.301 444.5C215.301 444.5 215.301 444.3 215.401 444C215.501 443.7 215.601 443.2 215.701 442.7C216.001 441.5 216.301 439.8 216.801 437.6C217.801 433.1 219.101 426.7 220.801 418.8C224.201 402.9 228.801 380.9 233.401 356.5C238.101 332.1 242.001 310 244.701 293.9C246.101 285.9 247.201 279.4 247.901 274.9C248.301 272.7 248.601 270.9 248.801 269.7C248.901 269.1 249.001 268.7 249.001 268.4C249.201 268.1 249.201 267.9 249.201 267.9Z" fill="#263238"/>
<path d="M232.302 448.5C232.302 448.5 231.902 448.5 231.102 448.5C230.202 448.5 229.102 448.5 227.902 448.4C225.102 448.3 221.302 448.1 217.202 448C213.102 447.8 209.402 447.6 206.502 447.5C205.202 447.4 204.102 447.4 203.302 447.3C202.502 447.3 202.102 447.3 202.102 447.2C202.102 447.1 203.802 447 206.502 447.1C209.202 447.1 213.002 447.3 217.202 447.4C221.402 447.6 225.102 447.8 227.802 448C229.202 448.1 230.302 448.2 231.002 448.2C231.802 448.4 232.302 448.4 232.302 448.5Z" fill="#263238"/>
<g opacity="0.3">
<path d="M230.4 272.9L231 269L273.6 266.6L272 273.7L230.4 272.9Z" fill="black"/>
</g>
<g opacity="0.3">
<path d="M276.1 273.7L274.9 266.5L317 264.4V274.5L276.1 273.7Z" fill="black"/>
</g>
<path d="M234.6 118.2L264.4 111.6L289.4 112.6L311.2 119.5L298.8 181.7L251.3 185.9L234.6 118.2Z" fill="#263238"/>
<path d="M259.9 112.6L228.6 119.5L244.2 203.3C244.2 203.3 230.2 237.3 228.6 268.9L274.9 266.5C274.9 266.5 278.1 224.8 277 208.8C275.9 192.8 275.2 164.7 275.2 164.7L259.9 112.6Z" fill="#2AC6FA"/>
<path d="M170.4 160.7C170.4 160.7 181 149.9 192.1 144.1C200.3 139.8 216.3 134.5 222.6 127.6C226.7 123.2 228.6 119.5 228.6 119.5L236 159L204.6 164C204.6 164 209.3 166.6 206.4 168.4L226.1 191.4L212.6 216.8C212.5 216.8 168.6 178.9 170.4 160.7Z" fill="#2AC6FA"/>
<path d="M289.399 112.6C289.399 112.6 295.999 113.4 300.599 114.9C307.299 117.1 318.499 119.5 318.499 119.5L302.499 204.4C302.499 204.4 324.199 231.3 318.499 264.2C318.499 264.2 288.499 266.6 274.899 266.5L274.699 163.2C274.699 163.2 286.099 148.7 287.499 134.5C288.999 120.2 289.399 112.6 289.399 112.6Z" fill="#2AC6FA"/>
<path d="M318.6 119.5C318.6 119.5 336.5 138.1 346.4 145.1C356.3 152.1 368.7 162.6 368.7 168.2C368.7 171.5 367.5 175.6 366.6 178.4C365.9 180.5 364.9 182.4 363.6 184.1C359.1 190.1 347.1 205.8 339.1 213.2L319.1 192.1L338.1 171.1C338.1 171.1 312.6 160.6 311.3 157.7C310.1 155 318.6 119.5 318.6 119.5Z" fill="#2AC6FA"/>
<path d="M274.5 174.4C274.5 174.4 274.3 174.3 274 174C273.7 173.7 273.3 173.3 272.8 172.7C271.7 171.6 270.1 170 268.2 168C264.3 163.9 258.9 158.2 252.6 151.7L252.5 151.6V151.5C253.2 148.7 253.8 145.8 254.6 142.9C254.9 141.6 255.2 140.3 255.5 139.1L255.8 139.4C252.3 139.4 249 139.4 245.9 139.4H245.6L245.7 139.1C248.1 131.8 250.2 125.5 251.7 121C252.4 118.8 253 117.1 253.5 115.8C253.7 115.2 253.9 114.8 254 114.4C254.1 114.1 254.2 113.9 254.2 113.9C254.2 113.9 254.2 114.1 254.1 114.4C254 114.8 253.9 115.2 253.7 115.8C253.3 117.1 252.8 118.8 252.1 121C250.7 125.5 248.6 131.8 246.3 139.2L246.1 138.9C249.2 138.9 252.5 138.9 256 138.9H256.3L256.2 139.2C255.9 140.5 255.6 141.7 255.3 143C254.6 146 253.9 148.9 253.2 151.6L253.1 151.4C259.3 157.9 264.6 163.7 268.5 167.8C270.4 169.8 271.9 171.5 273 172.6C273.5 173.1 273.9 173.6 274.2 173.9C274.4 174.2 274.5 174.4 274.5 174.4Z" fill="#263238"/>
<path d="M274.9 266.5C274.8 266.5 274.6 243.2 274.5 214.4C274.4 185.6 274.5 162.3 274.6 162.3C274.7 162.3 274.9 185.6 275 214.4C275.1 243.2 275.1 266.5 274.9 266.5Z" fill="#263238"/>
<path d="M294.199 113.4C294.199 113.4 294.299 113.6 294.299 114C294.399 114.4 294.499 115 294.599 115.6C294.899 117.1 295.199 119.2 295.599 121.7C296.499 127 297.599 134.3 298.999 142.6L299.099 142.9H298.799C296.999 142.7 295.199 142.4 293.299 142.2L293.599 141.8C293.999 142.5 294.299 143.3 294.699 144.1C295.499 145.7 296.199 147.2 296.899 148.6L296.999 148.7L296.899 148.8C291.099 156 285.999 162.4 282.299 167C280.499 169.2 278.999 171.1 277.899 172.4C277.399 173 276.999 173.5 276.699 173.8C276.999 173.4 277.399 172.9 277.799 172.3C278.799 171 280.299 169.1 281.999 166.8C285.699 162.1 290.699 155.7 296.399 148.5V148.8C295.699 147.3 294.899 145.8 294.199 144.3C293.799 143.5 293.399 142.7 293.099 142L292.899 141.6L293.399 141.7C295.299 142 297.199 142.2 298.899 142.5L298.599 142.8C297.299 134.4 296.199 127.1 295.399 121.8C294.999 119.2 294.699 117.1 294.499 115.7C294.399 115 294.299 114.5 294.299 114C294.199 113.6 294.199 113.4 294.199 113.4Z" fill="#263238"/>
<path d="M270.599 232.7C269.499 231.4 267.499 230.7 266.499 232C265.499 232.8 265.099 234.3 265.499 235.5C266.099 237.1 268.199 237.8 269.699 237C271.199 236.3 271.599 234 270.599 232.7Z" fill="#263238"/>
<path d="M271.099 205.7C269.999 204.4 267.999 203.7 266.999 205C265.999 205.8 265.599 207.3 265.999 208.5C266.599 210.1 268.699 210.8 270.199 210C271.699 209.3 272.199 207 271.099 205.7Z" fill="#263238"/>
<path d="M342.499 203.5C341.399 202.2 339.399 201.5 338.399 202.8C337.399 203.6 336.999 205.1 337.399 206.3C337.999 207.9 340.099 208.6 341.599 207.8C343.099 207 343.599 204.8 342.499 203.5Z" fill="#263238"/>
<path d="M212.3 206C211.2 204.7 209.2 204 208.2 205.3C207.2 206.1 206.8 207.6 207.2 208.8C207.8 210.4 209.9 211.1 211.4 210.3C212.9 209.5 213.4 207.3 212.3 206Z" fill="#263238"/>
<path d="M206.6 168.7C206.5 168.9 203.3 166.8 198.7 166.5C194.1 166.1 190.6 167.5 190.5 167.3C190.5 167.2 191.3 166.8 192.8 166.4C194.3 166 196.4 165.7 198.7 165.9C201 166.1 203.1 166.8 204.5 167.4C205.9 168.1 206.6 168.7 206.6 168.7Z" fill="#263238"/>
<path d="M190.5 164C190.5 163.9 191.2 163.5 192.5 163.1C193.8 162.7 195.7 162.3 197.8 162.4C199.9 162.4 201.8 162.8 203.1 163.2C204.4 163.6 205.1 164 205.1 164.1C205.1 164.3 201.9 162.9 197.8 162.9C193.7 162.8 190.6 164.2 190.5 164Z" fill="#263238"/>
<path d="M236.9 164.1C236.9 164.1 236.7 163.5 236.5 162.4C236.2 161.2 235.9 159.7 235.5 157.8C234.6 153.9 233.3 148.6 231.9 142.7C230.5 136.8 229.4 131.4 228.8 127.5C228.5 125.5 228.3 123.9 228.2 122.8C228.1 121.7 228 121.1 228.1 121.1C228.1 121.1 228.3 121.7 228.4 122.8C228.6 123.9 228.9 125.5 229.2 127.4C229.9 131.3 231.1 136.6 232.5 142.5C233.9 148.4 235.2 153.7 235.9 157.6C236.3 159.5 236.6 161.1 236.8 162.2C236.9 163.5 236.9 164.1 236.9 164.1Z" fill="#263238"/>
<path d="M317.5 121.4C317.5 121.4 317.5 122 317.3 123.2C317.1 124.4 316.8 126 316.5 128C315.8 132.1 314.9 137.6 313.9 143.7C312.9 149.8 311.9 155.4 311.2 159.4C310.8 161.4 310.5 163 310.3 164.1C310.1 165.2 309.9 165.8 309.9 165.8C309.9 165.8 309.9 165.2 310.1 164C310.3 162.8 310.6 161.2 310.9 159.2C311.6 155.1 312.5 149.6 313.5 143.5C314.5 137.4 315.5 131.8 316.2 127.8C316.6 125.8 316.9 124.2 317.1 123.1C317.3 122 317.4 121.4 317.5 121.4Z" fill="#263238"/>
<path d="M351.6 160.9C351.6 161 350.5 160.9 348.7 161C347 161.1 344.4 161.5 342.4 163.2C340.4 165 339.5 167.3 338.9 169C338.3 170.7 338 171.7 337.9 171.7C337.8 171.7 338 170.6 338.6 168.9C339.1 167.2 340 164.7 342.1 162.9C343.2 162 344.4 161.4 345.6 161.1C346.8 160.8 347.9 160.7 348.7 160.7C349.6 160.7 350.3 160.8 350.8 160.8C351.3 160.8 351.6 160.8 351.6 160.9Z" fill="#263238"/>
<path d="M356.3 165.5C356.3 165.6 355.2 165.5 353.4 165.6C351.6 165.7 349.2 166.1 346.7 166.9C344.2 167.8 342 168.9 340.5 169.9C339 170.9 338.2 171.6 338.1 171.5C338.1 171.5 338.3 171.3 338.6 170.9C339 170.5 339.5 170.1 340.2 169.6C341.6 168.5 343.8 167.3 346.4 166.4C349 165.5 351.5 165.2 353.3 165.2C354.2 165.2 354.9 165.2 355.4 165.3C356.1 165.4 356.3 165.5 356.3 165.5Z" fill="#263238"/>
<path d="M251.701 205.8C251.601 205.9 250.201 205.3 248.301 204.6C246.501 203.9 244.901 203.4 245.001 203.3C245.001 203.2 246.601 203.4 248.501 204.1C250.401 204.8 251.801 205.6 251.701 205.8Z" fill="#263238"/>
<path d="M253 195.7C253.1 195.8 250.7 197.4 248.1 199.7C245.5 202 243.5 204 243.4 203.9C243.3 203.8 245.1 201.6 247.7 199.3C250.4 197 252.9 195.6 253 195.7Z" fill="#263238"/>
<path d="M318.6 264.2C318.6 264.3 298.5 265.5 273.6 266.8C248.7 268.1 228.6 269.1 228.6 268.9C228.6 268.8 248.7 267.6 273.6 266.3C298.4 265 318.6 264.1 318.6 264.2Z" fill="#263238"/>
<g opacity="0.3">
<path d="M337.099 170.6C335.799 166.8 337.299 162.2 340.599 159.9C341.299 159.4 342.199 159 342.999 159.2C343.899 159.4 344.599 160.3 344.199 161.1C343.999 161.6 343.399 161.9 342.999 162.2C341.499 163.2 340.399 164.8 339.699 166.5C338.999 168.2 338.699 170 338.399 171.8" fill="black"/>
</g>
<g opacity="0.3">
<path d="M245.9 139.1C246.1 139.6 249.7 140 250.3 141.5C251 143 250.7 144.7 250.4 146.3C250 147.9 249.5 149.5 249.7 151.1C250 154 252.4 156.2 254.6 158.1C260.8 163.4 268.3 169.1 274.5 174.4C268.9 167.8 261.7 161.1 255.6 155C254.7 154.1 253.8 153.2 253.3 152C252.8 150.5 253.2 148.8 253.6 147.3C254.1 145.2 254.7 143.2 255.2 141.1C255.3 140.6 255.6 139.7 255.7 139.4C255.7 139.4 254 139.1 253.5 139.2C253.5 139.1 248.2 138.8 245.9 139.1Z" fill="black"/>
</g>
<path d="M211.5 208.4C211.5 208.4 211.6 208.1 211.8 207.6C212 207.1 212.4 206.4 212.9 205.5C213.9 203.7 215.3 201.3 217.2 198.9C219.1 196.4 220.9 194.4 222.4 192.9C223.1 192.2 223.7 191.6 224.1 191.3C224.5 190.9 224.8 190.7 224.8 190.8C224.9 190.9 224 191.7 222.6 193.2C221.2 194.7 219.4 196.8 217.6 199.2C215.8 201.7 214.3 204 213.2 205.7C212.2 207.4 211.6 208.5 211.5 208.4Z" fill="#263238"/>
<path d="M218.899 183.6C218.999 183.7 217.799 184.8 216.099 186.7C214.399 188.6 212.099 191.4 209.999 194.7C207.899 198 206.299 201.2 205.299 203.6C204.299 206 203.799 207.5 203.699 207.5C203.699 207.5 203.799 207.1 203.999 206.4C204.199 205.7 204.499 204.7 204.999 203.5C205.899 201.1 207.499 197.8 209.599 194.5C211.699 191.2 213.999 188.4 215.799 186.5C216.699 185.6 217.499 184.8 217.999 184.4C218.599 183.9 218.899 183.6 218.899 183.6Z" fill="#263238"/>
<path d="M347.799 203.9C347.799 203.9 347.499 203.6 346.999 203.1C346.399 202.5 345.699 201.7 344.899 200.8C343.099 198.9 340.699 196.2 337.799 193.4C334.999 190.6 332.299 188.1 330.399 186.3C329.499 185.5 328.699 184.8 328.099 184.2C327.599 183.7 327.299 183.4 327.299 183.4C327.299 183.4 327.699 183.6 328.199 184C328.799 184.4 329.599 185.1 330.599 186C332.599 187.7 335.299 190.1 338.099 193C340.899 195.8 343.399 198.5 345.099 200.5C345.999 201.5 346.599 202.3 347.099 202.9C347.599 203.5 347.799 203.8 347.799 203.9Z" fill="#263238"/>
<path d="M223.201 196.7L229.801 200.2L244.301 204.3C244.301 204.3 241.301 224.2 239.401 225.9C237.501 227.6 216.301 209.7 216.301 209.7L223.201 196.7Z" fill="#FFBE9D"/>
<path d="M322.2 195.5L317.5 199.2L303.9 205.7C303.9 205.7 310.2 224.8 312.3 226.2C314.4 227.6 332.4 206.4 332.4 206.4L322.2 195.5Z" fill="#FFBE9D"/>
<path d="M255.101 52C254.901 57.1 248.101 60.2 248.201 65.3C248.201 67.5 249.601 69.5 249.901 71.6C250.301 74.5 248.601 77.3 248.001 80.2C246.801 86.2 250.201 92.4 255.401 95.7C260.501 99 267.001 99.6 273.001 98.8" fill="#263238"/>
<path d="M296.3 50.7998C296.1 53.4998 297.9 55.9998 299.7 58.0998C301.5 60.1998 303.6 62.2998 304 64.9998C304.7 69.7998 300 74.2998 300.9 79.0998C301.4 81.6998 303.5 83.6998 303.9 86.2998C304.3 88.7998 302.9 91.2998 301.3 93.1998C299.6 95.0998 297.7 94.7998 296.2 96.8998C294.7 99.0998 292.2 101.3 289.8 102.6C284.5 105.5 278.1 101.3 275.6 100.5" fill="#263238"/>
<path d="M254.1 54.9999C254 52.4999 256.3 50.5999 258.7 49.6999C261 48.7999 263.6 48.3999 265.7 47.0999C267.5 45.8999 268.8 43.8999 270.3 42.3999C274.1 38.4999 280 36.9999 285.3 38.3999C290.5 39.7999 294.8 44.1999 296.1 49.4999C297 52.9999 296.4 57.1999 293.6 59.5999C290.4 62.2999 285.5 61.6999 281.4 60.8999C277.2 59.9999 272.5 59.1999 269.1 61.6999C267 63.1999 265.8 65.5999 264.5 67.7999C263.2 69.9999 261.6 72.2999 259.2 73.0999C256.8 73.8999 253.5 72.4999 253.4 69.8999" fill="#263238"/>
<path d="M263.9 55.4998C261.7 55.6998 260.1 57.5998 260.2 59.6998L262.7 116C262.8 122.6 272.5 126.4 279.6 126.2C286.8 126 287 122.5 287.1 116.2C287.3 105.6 287.2 101.7 287.2 101.7C287.2 101.7 296.3 100.2 298.1 88.2998C299 82.3998 298.7 72.6998 298.2 64.7998C297.7 57.6998 293 48.9998 285.9 49.6998L263.9 55.4998Z" fill="#FFBE9D"/>
<path d="M294.498 71.6998C294.498 72.4998 293.898 73.1998 292.998 73.1998C292.198 73.1998 291.498 72.5998 291.398 71.7998C291.398 70.9998 291.998 70.2998 292.898 70.2998C293.798 70.2998 294.498 70.8998 294.498 71.6998Z" fill="#263238"/>
<path d="M296.199 69.8998C295.999 70.0998 294.899 69.1998 293.199 69.2998C291.599 69.2998 290.399 70.0998 290.199 69.8998C290.099 69.7998 290.299 69.4998 290.799 69.0998C291.299 68.6998 292.199 68.2998 293.199 68.3998C294.199 68.3998 295.099 68.7998 295.599 69.1998C296.099 69.4998 296.299 69.7998 296.199 69.8998Z" fill="#263238"/>
<path d="M278.7 71.6998C278.7 72.4998 278.1 73.1998 277.2 73.1998C276.4 73.1998 275.7 72.5998 275.6 71.7998C275.6 70.9998 276.2 70.2998 277.1 70.2998C277.9 70.2998 278.6 70.8998 278.7 71.6998Z" fill="#263238"/>
<path d="M280.099 70.2997C279.899 70.4997 278.799 69.5997 277.099 69.6997C275.499 69.6997 274.299 70.4997 274.099 70.2997C273.999 70.1997 274.199 69.8997 274.699 69.4997C275.199 69.0997 276.099 68.6997 277.099 68.7997C278.099 68.7997 278.999 69.1997 279.499 69.5997C280.099 69.7997 280.199 70.1997 280.099 70.2997Z" fill="#263238"/>
<path d="M286.099 82.3999C286.099 82.2999 287.099 82.0999 288.799 81.8999C289.199 81.8999 289.599 81.7999 289.699 81.4999C289.799 81.1999 289.599 80.6999 289.399 80.2999C288.999 79.2999 288.599 78.1999 288.199 77.0999C286.499 72.5999 285.199 68.8999 285.399 68.7999C285.599 68.6999 287.099 72.2999 288.899 76.8999C289.299 77.9999 289.699 79.0999 290.099 80.0999C290.299 80.5999 290.499 81.0999 290.299 81.6999C290.199 81.9999 289.899 82.1999 289.599 82.2999C289.299 82.3999 289.099 82.3999 288.899 82.3999C287.099 82.4999 286.099 82.4999 286.099 82.3999Z" fill="#263238"/>
<path d="M287.3 101.7C287.3 101.7 279.3 102.2 271.4 97.5C271.5 97.5 275.8 105.7 287.1 104.5L287.3 101.7Z" fill="#EB996E"/>
<path d="M285.4 86.2997C284.8 85.4997 283.8 85.0997 282.8 85.1997C282.1 85.2997 281.4 85.5997 280.9 86.1997C280.5 86.7997 280.4 87.5997 280.8 88.0997C281.2 88.6997 282.2 88.8997 282.9 88.5997C283.7 88.3997 284.4 87.8997 285 87.2997C285.2 87.1997 285.4 86.9997 285.5 86.7997C285.6 86.7997 285.6 86.4997 285.4 86.2997Z" fill="#2AC6FA"/>
<path d="M281.3 83.5C281.6 83.5 281.6 85.3 283.1 86.5C284.6 87.8 286.5 87.6 286.5 87.8C286.5 87.9 286.1 88.1 285.3 88.2C284.5 88.2 283.4 88 282.4 87.2C281.5 86.4 281.1 85.4 281 84.7C281 84 281.2 83.5 281.3 83.5Z" fill="#263238"/>
<path d="M280.899 67.4C280.699 67.8 279.099 67.6 277.199 67.9C275.299 68.1 273.699 68.7 273.499 68.3C273.399 68.1 273.699 67.7 274.299 67.3C274.899 66.9 275.899 66.5 277.099 66.3C278.299 66.2 279.299 66.4 279.999 66.6C280.599 66.9 280.899 67.2 280.899 67.4Z" fill="#263238"/>
<path d="M295.6 65.1996C295.3 65.5996 294.2 65.1996 292.8 65.1996C291.4 65.0996 290.3 65.4996 290 65.0996C289.9 64.8996 290.1 64.4996 290.6 64.1996C291.1 63.7996 291.9 63.5996 292.8 63.5996C293.7 63.5996 294.5 63.9996 295 64.2996C295.6 64.5996 295.7 64.9996 295.6 65.1996Z" fill="#263238"/>
<path d="M258.9 95.0997C262.2 95.7997 262.4 94.0997 264.9 91.7997C267.3 89.4997 268.6 86.0997 268.2 82.7997C267.8 79.8997 266.3 76.8997 267.3 74.1997C268.6 70.5997 273.7 69.3997 275.1 65.7997C275.9 63.6997 275.2 61.1997 276.1 59.0997C276.9 57.1997 279 55.9997 281 55.2997C283 54.5997 285.1 54.0997 286.8 52.7997C288.5 51.4997 289.5 48.9997 288.4 47.1997C279.6 48.2997 270.8 50.3997 262.5 53.4997C260.6 54.1997 258.5 55.0997 257.4 56.7997C256.2 58.5997 256.2 60.9997 256.4 63.1997C256.9 73.7997 257.4 84.4997 257.9 95.0997" fill="#263238"/>
<path d="M251.501 70.9997C251.101 67.0997 247.901 63.5997 244.101 62.8997C240.201 62.1997 236.001 64.2997 234.301 67.7997C232.701 71.0997 233.201 75.1997 234.801 78.5997C236.601 82.5997 240.401 86.2997 244.801 86.0997C249.001 85.8997 252.301 82.2997 253.501 78.2997C254.701 74.2997 254.201 69.9997 253.701 65.8997" fill="#263238"/>
<path d="M249.101 87.1998C249.101 87.1998 248.801 86.9998 248.501 86.4998C248.201 85.9998 247.801 85.1998 247.601 84.0998C247.401 82.9998 247.501 81.6998 247.701 80.3998C247.901 78.9998 248.401 77.4998 248.801 75.9998C249.101 74.4998 249.301 72.8998 249.101 71.5998C248.901 70.2998 248.201 69.1998 248.001 68.0998C247.701 67.0998 247.701 66.0998 247.901 65.5998C248.101 64.9998 248.301 64.7998 248.401 64.7998C248.401 64.7998 248.201 65.0998 248.101 65.6998C248.001 66.2998 248.001 67.0998 248.301 68.0998C248.601 69.0998 249.301 70.1998 249.601 71.5998C249.901 72.9998 249.701 74.5998 249.401 76.1998C249.101 77.7998 248.601 79.1998 248.301 80.5998C248.001 81.8998 248.001 83.1998 248.101 84.1998C248.201 86.1998 249.201 87.0998 249.101 87.1998Z" fill="#455A64"/>
<path d="M249.002 72.9998C249.002 72.9998 248.502 73.8998 247.202 74.7998C245.902 75.6998 243.802 76.6998 241.402 76.6998C238.902 76.6998 236.802 75.8998 235.502 74.9998C234.202 74.0998 233.602 73.2998 233.602 73.2998C233.702 73.1998 234.302 73.8998 235.702 74.6998C237.002 75.4998 239.102 76.1998 241.402 76.1998C243.702 76.1998 245.702 75.2998 247.002 74.4998C248.202 73.5998 248.902 72.8998 249.002 72.9998Z" fill="#455A64"/>
<path d="M248.401 74.7998C248.501 74.7998 248.201 75.5998 247.401 76.6998C246.601 77.7998 245.401 79.0998 243.601 80.0998C241.901 81.0998 240.101 81.6998 238.801 81.7998C237.501 81.9998 236.701 81.8998 236.701 81.7998C236.701 81.6998 237.501 81.6998 238.801 81.3998C240.001 81.0998 241.701 80.5998 243.401 79.5998C245.101 78.5998 246.301 77.3998 247.201 76.3998C247.901 75.4998 248.301 74.7998 248.401 74.7998Z" fill="#455A64"/>
<path d="M251.402 91.1999C251.402 91.1999 251.302 91.1999 251.302 91.0999C251.202 90.9999 251.102 90.7999 251.002 90.5999C250.702 90.1999 250.402 89.4999 250.202 88.4999C250.002 87.5999 250.002 86.2999 250.402 84.9999C250.802 83.6999 251.702 82.2999 253.202 81.2999C254.602 80.2999 256.402 79.5999 257.602 77.9999C258.202 77.1999 258.402 76.1999 258.202 75.1999C258.002 74.1999 257.602 73.1999 257.202 72.0999C256.302 69.9999 256.302 67.2999 257.402 64.9999C257.902 63.8999 258.702 62.7999 259.802 61.9999C260.902 61.1999 262.202 60.7999 263.402 60.4999C264.702 60.1999 266.002 59.9999 267.202 59.6999C268.402 59.2999 269.502 58.7999 270.302 57.9999C271.102 57.1999 271.502 55.9999 271.702 54.8999C271.902 53.7999 271.902 52.5999 272.302 51.4999C272.902 49.2999 274.002 47.2999 275.502 45.8999C277.002 44.4999 278.802 43.6999 280.502 43.3999C282.202 43.0999 283.902 43.4999 285.102 44.0999C286.302 44.6999 287.202 45.5999 287.702 46.3999C288.302 47.1999 288.502 47.8999 288.602 48.3999C288.702 48.8999 288.702 49.1999 288.702 49.1999C288.602 49.1999 288.602 48.0999 287.502 46.4999C286.902 45.7999 286.102 44.8999 284.902 44.2999C283.702 43.6999 282.202 43.3999 280.502 43.6999C278.902 43.9999 277.102 44.7999 275.702 46.0999C274.302 47.4999 273.202 49.3999 272.702 51.4999C272.402 52.5999 272.302 53.6999 272.202 54.8999C272.002 56.0999 271.702 57.3999 270.702 58.2999C269.802 59.1999 268.602 59.7999 267.302 60.1999C266.102 60.5999 264.802 60.6999 263.502 60.9999C262.302 61.2999 261.002 61.6999 260.102 62.3999C259.102 63.0999 258.402 64.0999 257.902 65.1999C256.902 67.3999 256.902 69.7999 257.702 71.8999C258.102 72.8999 258.602 73.9999 258.702 75.0999C258.902 76.1999 258.602 77.3999 258.002 78.1999C256.702 79.8999 254.802 80.5999 253.502 81.4999C252.102 82.3999 251.202 83.6999 250.802 84.9999C250.402 86.2999 250.402 87.4999 250.502 88.3999C250.602 90.2999 251.402 91.0999 251.402 91.1999Z" fill="#455A64"/>
<path d="M252.102 58.0999C252.102 58.0999 252.002 57.8999 252.002 57.5999C252.002 57.1999 252.002 56.5999 252.402 55.9999C252.802 55.3999 253.402 54.6999 254.402 54.3999C255.402 53.9999 256.602 53.9999 257.802 54.2999C259.002 54.4999 260.302 54.9999 261.702 55.2999C263.102 55.5999 264.702 55.5999 266.002 54.5999C267.302 53.5999 267.902 51.9999 268.502 50.2999C269.102 48.5999 270.002 46.8999 271.202 45.3999C273.602 42.3999 276.902 40.2999 280.202 39.5999C281.802 39.1999 283.502 39.2999 284.902 39.6999C286.302 40.0999 287.502 40.9999 288.402 41.8999C289.202 42.8999 289.602 43.9999 289.702 44.9999C289.802 45.9999 289.602 46.8999 289.302 47.4999C289.002 48.1999 288.702 48.5999 288.402 48.8999C288.102 49.1999 288.002 49.2999 288.002 49.2999C287.902 49.2999 288.602 48.7999 289.102 47.4999C289.302 46.8999 289.502 45.9999 289.402 45.0999C289.302 44.0999 288.902 43.0999 288.102 42.1999C287.302 41.2999 286.202 40.4999 284.802 40.0999C283.402 39.6999 281.902 39.6999 280.302 39.9999C277.202 40.6999 274.002 42.6999 271.602 45.6999C270.402 47.1999 269.602 48.7999 268.902 50.3999C268.202 51.9999 267.602 53.7999 266.202 54.8999C265.502 55.3999 264.702 55.6999 263.902 55.7999C263.102 55.8999 262.302 55.7999 261.602 55.5999C260.102 55.2999 258.902 54.7999 257.702 54.4999C256.502 54.1999 255.402 54.1999 254.502 54.4999C253.602 54.7999 253.002 55.3999 252.602 55.9999C252.202 56.5999 252.102 57.0999 252.102 57.4999C252.102 57.8999 252.202 58.0999 252.102 58.0999Z" fill="#455A64"/>
<path d="M416.898 453.9C416.898 453.9 416.898 453.8 417.098 453.5C417.198 453.2 417.398 452.8 417.598 452.3C418.098 451.3 418.698 449.7 419.198 447.6C420.298 443.4 420.598 437.1 419.098 429.5C418.398 425.7 417.198 421.7 415.798 417.4C414.398 413.1 412.698 408.5 411.398 403.6C410.098 398.7 408.998 393.3 409.198 387.7C409.398 382.1 411.098 376.5 412.898 370.9C414.698 365.3 416.598 359.8 417.198 354.4C417.798 348.9 416.698 343.5 414.198 339.1C411.798 334.6 408.698 330.8 406.498 326.9C404.198 323 402.698 318.9 401.798 315.2C400.098 307.6 400.698 301.2 401.498 297C402.398 292.8 403.398 290.6 403.398 290.6C403.398 290.6 403.398 290.7 403.298 291C403.198 291.3 403.098 291.7 402.898 292.2C402.598 293.3 402.098 294.9 401.698 297C400.898 301.2 400.398 307.6 402.198 315.1C403.098 318.8 404.598 322.8 406.898 326.7C409.198 330.6 412.198 334.4 414.698 338.9C417.298 343.4 418.498 348.9 417.798 354.5C417.198 360.1 415.298 365.6 413.498 371.2C411.698 376.8 409.998 382.3 409.798 387.8C409.598 393.3 410.598 398.6 411.898 403.5C413.198 408.4 414.798 413 416.198 417.3C417.598 421.6 418.798 425.7 419.498 429.5C420.998 437.1 420.598 443.5 419.498 447.7C418.898 449.8 418.298 451.3 417.798 452.4C417.498 452.9 417.298 453.3 417.198 453.5C416.998 453.8 416.898 453.9 416.898 453.9Z" fill="#263238"/>
<path d="M409.398 330.9C409.398 330.9 404.798 316.1 413.098 307.4C413.398 307.1 413.898 307.2 413.998 307.7C414.398 310.1 414.998 317.5 409.398 330.9Z" fill="#2AC6FA"/>
<path d="M412.198 312.3C412.298 312.3 412.098 313.4 411.898 315C411.598 316.9 411.198 319.1 410.798 321.5C410.398 323.9 410.098 326.1 409.798 328C409.498 329.7 409.398 330.7 409.298 330.7C409.198 330.7 409.198 329.6 409.398 327.9C409.598 326.2 409.898 323.9 410.298 321.3C410.698 318.7 411.198 316.4 411.498 314.8C411.898 313.3 412.098 312.3 412.198 312.3Z" fill="#263238"/>
<path d="M414.898 365.8C414.898 365.8 417.698 350.6 429.098 346.8C429.498 346.7 429.898 347 429.798 347.4C428.998 349.7 425.998 356.6 414.898 365.8Z" fill="#2AC6FA"/>
<path d="M425.998 350.7C426.098 350.8 425.498 351.6 424.398 353C423.298 354.5 421.898 356.3 420.398 358.3C418.898 360.3 417.598 362.1 416.398 363.6C415.398 365 414.798 365.8 414.698 365.8C414.598 365.8 415.098 364.8 416.098 363.4C416.998 362 418.398 360.1 419.898 358C421.498 355.9 422.898 354.1 423.998 352.8C425.198 351.4 425.898 350.6 425.998 350.7Z" fill="#263238"/>
<path d="M411.798 404C411.798 404 410.098 388.6 419.898 381.7C420.198 381.5 420.698 381.7 420.698 382.1C420.698 384.6 419.798 392 411.798 404Z" fill="#2AC6FA"/>
<path d="M417.999 386.3C418.099 386.3 417.699 387.3 417.199 388.9C416.499 390.7 415.799 392.8 414.899 395.1C414.099 397.4 413.299 399.5 412.599 401.3C411.999 402.9 411.699 403.9 411.599 403.9C411.499 403.9 411.699 402.8 412.199 401.2C412.699 399.6 413.399 397.3 414.299 394.9C415.199 392.5 416.099 390.3 416.699 388.7C417.499 387.2 417.999 386.3 417.999 386.3Z" fill="#263238"/>
<path d="M420.398 442.5C420.398 442.5 419.198 427 429.298 420.5C429.698 420.3 430.098 420.5 430.098 420.9C429.898 423.4 428.798 430.7 420.398 442.5Z" fill="#2AC6FA"/>
<path d="M427.298 425C427.398 425 426.998 426 426.398 427.6C425.698 429.4 424.798 431.401 423.898 433.701C422.998 436.001 422.098 438.1 421.398 439.8C420.798 441.4 420.398 442.3 420.298 442.3C420.198 442.3 420.498 441.3 420.998 439.6C421.498 438 422.298 435.8 423.298 433.4C424.298 431 425.198 428.9 425.998 427.3C426.698 425.9 427.198 425 427.298 425Z" fill="#263238"/>
<path d="M402.799 317.9C402.799 317.9 389.099 310.7 388.799 298.7C388.799 298.3 389.299 298 389.599 298.3C391.599 299.7 397.299 304.5 402.799 317.9Z" fill="#2AC6FA"/>
<path d="M391.6 302.8C391.7 302.8 392.3 303.6 393.3 304.9C394.4 306.4 395.7 308.3 397.2 310.3C398.7 312.3 400 314.1 401.1 315.6C402.1 317 402.7 317.8 402.7 317.9C402.6 317.9 401.9 317.2 400.8 315.9C399.7 314.6 398.3 312.7 396.8 310.6C395.3 308.5 394 306.6 393.1 305.1C392.1 303.8 391.6 302.9 391.6 302.8Z" fill="#263238"/>
<path d="M417.498 349.6C417.498 349.6 403.298 343.3 402.398 331.3C402.398 330.9 402.798 330.6 403.198 330.8C405.298 332.1 411.198 336.7 417.498 349.6Z" fill="#2AC6FA"/>
<path d="M405.499 335.3C405.599 335.3 406.299 336 407.299 337.3C408.499 338.8 409.899 340.5 411.499 342.4C413.099 344.3 414.499 346 415.699 347.5C416.799 348.8 417.499 349.6 417.399 349.7C417.299 349.8 416.599 349 415.399 347.8C414.199 346.6 412.699 344.8 411.099 342.8C409.499 340.8 407.999 338.9 406.999 337.6C405.999 336.2 405.399 335.3 405.499 335.3Z" fill="#263238"/>
<path d="M409.399 385.1C409.399 385.1 399.699 373 404.199 361.9C404.399 361.5 404.899 361.5 405.099 361.8C406.499 363.9 409.699 370.7 409.399 385.1Z" fill="#2AC6FA"/>
<path d="M405.2 366.8C405.3 366.8 405.5 367.8 405.9 369.5C406.3 371.4 406.8 373.5 407.3 376C407.8 378.4 408.3 380.6 408.7 382.5C409.1 384.1 409.3 385.2 409.2 385.2C409.1 385.2 408.8 384.2 408.3 382.6C407.8 381 407.3 378.7 406.7 376.2C406.2 373.7 405.7 371.4 405.5 369.7C405.2 367.9 405.1 366.8 405.2 366.8Z" fill="#263238"/>
<path d="M418.999 426.8C418.999 426.8 404.999 420.2 404.199 408.3C404.199 407.9 404.599 407.6 404.999 407.8C407.099 409.1 412.899 413.7 418.999 426.8Z" fill="#2AC6FA"/>
<path d="M407.199 412.2C407.299 412.2 407.899 413 408.999 414.3C410.199 415.8 411.599 417.5 413.099 419.5C414.599 421.4 415.999 423.2 417.199 424.7C418.299 426 418.899 426.8 418.899 426.9C418.799 427 418.099 426.2 416.899 425C415.799 423.7 414.199 422 412.599 419.9C410.999 417.9 409.599 416 408.599 414.6C407.699 413.2 407.199 412.3 407.199 412.2Z" fill="#263238"/>
<path d="M446.999 365.8C446.999 365.8 446.999 365.9 446.999 366.1C446.999 366.4 446.999 366.7 446.999 367.1C446.999 368 446.899 369.3 446.799 370.9C446.599 374.2 446.399 378.8 446.099 384.3C445.099 389.9 442.199 396.1 438.399 402.2C435.599 406.6 432.599 410.7 430.099 414.4C427.499 418.1 425.399 421.6 423.899 424.7C422.399 427.8 421.499 430.4 420.999 432.3C420.799 433.2 420.599 433.9 420.499 434.4C420.399 434.9 420.299 435.1 420.299 435.1C420.299 435.1 420.299 434.8 420.399 434.3C420.499 433.8 420.599 433.1 420.799 432.1C421.299 430.2 422.099 427.5 423.599 424.4C425.099 421.3 427.199 417.8 429.799 414C432.299 410.2 435.299 406.2 438.099 401.7C441.899 395.7 444.799 389.6 445.799 384.1C446.199 378.6 446.499 374 446.699 370.7C446.799 369.1 446.899 367.9 446.999 366.9C446.999 366.5 447.099 366.2 447.099 365.9C446.999 366 446.999 365.8 446.999 365.8Z" fill="#263238"/>
<path d="M438.598 401.1C438.598 401.1 444.498 386.8 437.098 377.4C436.798 377.1 436.298 377.2 436.198 377.6C435.498 380 434.298 387.3 438.598 401.1Z" fill="#2AC6FA"/>
<path d="M437.597 382.4C437.697 382.4 437.897 383.4 438.097 385.1C438.297 386.8 438.497 389.1 438.697 391.7C438.897 394.3 438.997 396.6 438.997 398.3C438.997 400 438.897 401 438.797 401C438.697 401 438.697 400 438.597 398.3C438.497 396.4 438.297 394.2 438.197 391.7C437.997 389.2 437.897 387 437.697 385.1C437.497 383.4 437.497 382.4 437.597 382.4Z" fill="#263238"/>
<g opacity="0.3">
<path d="M438.598 401.1C438.598 401.1 444.498 386.8 437.098 377.4C436.798 377.1 436.298 377.2 436.198 377.6C435.498 380 434.298 387.3 438.598 401.1Z" fill="black"/>
</g>
<path d="M420.198 435.6C420.198 435.6 424.998 420.8 416.698 412.1C416.398 411.8 415.898 411.9 415.798 412.3C415.398 414.8 414.798 422.2 420.198 435.6Z" fill="#2AC6FA"/>
<path d="M417.599 417C417.699 417 417.899 418 418.299 419.7C418.599 421.4 419.099 423.7 419.499 426.2C419.899 428.8 420.199 431.099 420.299 432.799C420.399 434.5 420.399 435.5 420.399 435.6C420.299 435.6 420.199 434.6 419.899 432.9C419.599 431 419.299 428.8 418.899 426.4C418.499 424 418.199 421.7 417.899 419.9C417.699 418.1 417.499 417.1 417.599 417Z" fill="#263238"/>
<g opacity="0.3">
<path d="M420.198 435.6C420.198 435.6 424.998 420.8 416.698 412.1C416.398 411.8 415.898 411.9 415.798 412.3C415.398 414.8 414.798 422.2 420.198 435.6Z" fill="black"/>
</g>
<path d="M446.197 383.6C446.197 383.6 458.897 374.7 457.597 362.8C457.597 362.4 457.097 362.2 456.697 362.5C454.897 364.1 449.897 369.7 446.197 383.6Z" fill="#2AC6FA"/>
<g opacity="0.3">
<path d="M446.197 383.6C446.197 383.6 458.897 374.7 457.597 362.8C457.597 362.4 457.097 362.2 456.697 362.5C454.897 364.1 449.897 369.7 446.197 383.6Z" fill="black"/>
</g>
<path d="M455.298 367.2C455.398 367.2 454.998 368.2 454.198 369.7C453.498 371.2 452.398 373.3 451.198 375.6C449.998 377.9 448.798 379.9 447.898 381.3C446.998 382.7 446.298 383.6 446.298 383.5C446.198 383.5 446.698 382.5 447.598 381.1C448.498 379.4 449.598 377.5 450.798 375.3C451.998 373.1 452.998 371.2 453.898 369.5C454.698 368.1 455.298 367.2 455.298 367.2Z" fill="#263238"/>
<path d="M425.299 421C425.299 421 440.599 418.6 444.699 407.3C444.799 406.9 444.499 406.5 444.099 406.6C441.699 407.3 434.799 410.1 425.299 421Z" fill="#2AC6FA"/>
<g opacity="0.3">
<path d="M425.299 421C425.299 421 440.599 418.6 444.699 407.3C444.799 406.9 444.499 406.5 444.099 406.6C441.699 407.3 434.799 410.1 425.299 421Z" fill="black"/>
</g>
<path d="M440.698 410.3C440.698 410.4 439.998 411.1 438.598 412.1C437.298 413.2 435.398 414.6 433.298 416.1C431.198 417.6 429.198 418.9 427.798 419.8C426.298 420.7 425.398 421.2 425.398 421.1C425.398 421 426.198 420.4 427.598 419.5C429.198 418.4 430.998 417.1 432.998 415.7C434.998 414.3 436.798 413 438.398 411.9C439.798 410.8 440.698 410.2 440.698 410.3Z" fill="#263238"/>
<path d="M410.699 449.2L406.299 479.2H434.099L430.499 449.2H410.699Z" fill="#455A64"/>
<path d="M431.599 458.5C431.599 458.7 426.599 458.8 420.399 458.8C414.199 458.8 409.199 458.7 409.199 458.5C409.199 458.3 414.199 458.2 420.399 458.2C426.599 458.2 431.599 458.3 431.599 458.5Z" fill="#263238"/>
<path d="M432.198 460.9C432.198 461.1 426.998 461.2 420.598 461.2C414.198 461.2 408.998 461.1 408.998 460.9C408.998 460.7 414.198 460.6 420.598 460.6C426.998 460.6 432.198 460.7 432.198 460.9Z" fill="#263238"/>
<path d="M79.0996 424.3C81.8996 424.7 84.3996 426.5 86.0996 428.8C87.7996 431.1 88.6996 433.9 89.0996 436.7C89.9996 442.1 88.4996 448.3 86.4996 453.5C80.8996 450.9 77.9996 444.4 76.6996 441.1C74.6996 435.7 74.1996 424.8 79.0996 424.3Z" fill="#2AC6FA"/>
<path d="M94.6991 461.2C92.8991 458.5 92.9991 454.9 94.4991 452.1C95.9991 449.3 98.7991 447.3 101.899 446.4C103.299 446 104.999 445.9 106.199 446.7C107.299 447.5 107.799 449 107.599 450.4C107.399 451.8 106.699 453 105.899 454.1C102.899 457.8 99.3991 460.9 94.6991 461.2Z" fill="#2AC6FA"/>
<path d="M93.2987 478.4C93.2987 478.4 93.1987 478 93.0987 477.3C92.9987 476.6 92.8987 475.5 92.8987 474.2C92.7987 471.6 92.6987 467.8 93.4987 463.8C94.3987 459.8 96.2987 456.4 98.1987 454.5C99.0987 453.5 99.9987 452.9 100.699 452.5C101.299 452.1 101.699 451.9 101.699 452C101.799 452.1 100.299 452.9 98.4987 454.8C96.6987 456.7 94.8987 460 94.0987 463.9C93.1987 467.8 93.2987 471.5 93.2987 474.2C93.3987 476.8 93.3987 478.4 93.2987 478.4Z" fill="#263238"/>
<path d="M80.3985 432.6C80.3985 432.6 80.6985 433.2 81.0985 434.4C81.4985 435.6 82.0985 437.2 82.7985 439.3C84.1985 443.5 85.9985 449.3 87.7985 455.7C89.5985 462.2 91.0985 468.1 92.0985 472.3C92.5985 474.4 92.9985 476.2 93.2985 477.4C93.5985 478.6 93.6985 479.3 93.5985 479.3C93.5985 479.3 93.3985 478.7 92.9985 477.5C92.6985 476.2 92.1985 474.5 91.6985 472.5C90.5985 468.3 88.9985 462.4 87.1985 455.9C85.3985 449.4 83.6985 443.6 82.3985 439.4C81.7985 437.4 81.2985 435.7 80.8985 434.4C80.4985 433.3 80.2985 432.6 80.3985 432.6Z" fill="#263238"/>
<path d="M87.2994 466.3C84.5994 460.1 78.6994 455.5 72.0994 454.2C70.3994 453.9 68.2994 453.9 67.3994 455.4C66.4994 456.8 67.2994 458.8 68.2994 460.1C72.4994 465.9 80.3995 468.6 87.2994 466.7" fill="#2AC6FA"/>
<path d="M74 459.1C74 459.1 74.4 459.1 75.1 459.2C75.5 459.2 75.9 459.3 76.4 459.5C76.9 459.6 77.5 459.8 78.1 460C79.3 460.4 80.7 461 82.2 461.9C83.6 462.8 85.2 463.9 86.6 465.3C88 466.7 89.2 468.2 90.1 469.6C91 471 91.7 472.4 92.1 473.6C92.4 474.2 92.5 474.8 92.7 475.2C92.9 475.7 93 476.1 93 476.5C93.1 477.2 93.2 477.6 93.1 477.6C93 477.6 92.7 476.1 91.7 473.8C91.2 472.6 90.5 471.3 89.6 469.9C88.7 468.5 87.5 467.1 86.2 465.8C84.8 464.5 83.4 463.4 82 462.5C80.6 461.6 79.2 461 78.1 460.5C75.6 459.5 74 459.2 74 459.1Z" fill="#263238"/>
<path d="M362.799 95.3999C362.799 95.6999 364.999 95.8999 367.599 95.8999C370.299 95.8999 372.399 95.6999 372.399 95.3999C372.399 95.0999 370.199 94.8999 367.599 94.8999C364.999 94.8999 362.799 95.0999 362.799 95.3999Z" fill="#2AC6FA"/>
<path d="M357.699 82.2998C357.399 82.2998 357.199 84.4998 357.199 87.1998C357.199 89.8998 357.399 92.0998 357.699 92.0998C357.999 92.0998 358.199 89.8998 358.199 87.1998C358.199 84.4998 357.999 82.2998 357.699 82.2998Z" fill="#2AC6FA"/>
<path d="M352.2 95.0996C352.2 94.7996 350 94.5996 347.4 94.5996C344.7 94.5996 342.6 94.7996 342.6 95.0996C342.6 95.3996 344.8 95.5996 347.4 95.5996C350 95.6996 352.2 95.3996 352.2 95.0996Z" fill="#2AC6FA"/>
<path d="M357.299 108.3C357.599 108.3 357.799 106.1 357.799 103.4C357.799 100.7 357.599 98.4995 357.299 98.4995C356.999 98.4995 356.799 100.7 356.799 103.4C356.799 106.1 356.999 108.3 357.299 108.3Z" fill="#2AC6FA"/>
<path d="M349.499 102.6C349.699 102.8 350.699 102 351.599 100.9C352.599 99.8 353.099 98.7 352.899 98.5C352.699 98.3 351.699 99.1 350.799 100.2C349.899 101.4 349.299 102.4 349.499 102.6Z" fill="#2AC6FA"/>
<path d="M349.9 87.6999C349.7 87.8999 350.3 88.8999 351.3 89.8999C352.3 90.8999 353.3 91.4999 353.5 91.2999C353.7 91.0999 353.1 90.0999 352.1 89.0999C351.1 88.0999 350.2 87.4999 349.9 87.6999Z" fill="#2AC6FA"/>
<path d="M360.999 91.4999C361.199 91.6999 362.099 91.2999 362.999 90.4999C363.899 89.6999 364.499 88.8999 364.399 88.6999C364.199 88.4999 363.299 88.8999 362.399 89.6999C361.499 90.4999 360.899 91.2999 360.999 91.4999Z" fill="#2AC6FA"/>
<path d="M361.499 98.0998C361.299 98.2998 361.799 99.2998 362.699 100.2C363.599 101.2 364.499 101.8 364.699 101.6C364.899 101.4 364.399 100.4 363.499 99.4998C362.599 98.4998 361.699 97.8998 361.499 98.0998Z" fill="#2AC6FA"/>
<path d="M123.498 210.9C123.498 211.1 124.698 211.2 126.198 211.2C127.698 211.2 128.898 211.1 128.898 210.9C128.898 210.7 127.698 210.6 126.198 210.6C124.698 210.6 123.498 210.8 123.498 210.9Z" fill="#2AC6FA"/>
<path d="M120.599 203.4C120.399 203.4 120.299 204.6 120.299 206.2C120.299 207.7 120.399 209 120.599 209C120.799 209 120.899 207.8 120.899 206.2C120.899 204.7 120.699 203.4 120.599 203.4Z" fill="#2AC6FA"/>
<path d="M117.5 210.7C117.5 210.5 116.3 210.4 114.8 210.4C113.3 210.4 112.1 210.5 112.1 210.7C112.1 210.9 113.3 211 114.8 211C116.2 211 117.5 210.9 117.5 210.7Z" fill="#2AC6FA"/>
<path d="M120.4 218.2C120.6 218.2 120.7 217 120.7 215.4C120.7 213.9 120.6 212.6 120.4 212.6C120.2 212.6 120.1 213.8 120.1 215.4C120.1 217 120.2 218.2 120.4 218.2Z" fill="#2AC6FA"/>
<path d="M115.9 215C116 215.1 116.6 214.7 117.1 214C117.6 213.4 118 212.7 117.8 212.6C117.7 212.5 117.1 212.9 116.6 213.6C116.1 214.3 115.8 214.9 115.9 215Z" fill="#2AC6FA"/>
<path d="M116.199 206.5C116.099 206.6 116.399 207.2 116.999 207.7C117.599 208.3 118.099 208.6 118.199 208.5C118.299 208.4 117.999 207.8 117.399 207.3C116.899 206.8 116.299 206.4 116.199 206.5Z" fill="#2AC6FA"/>
<path d="M122.499 208.7C122.599 208.8 123.099 208.6 123.699 208.1C124.199 207.7 124.599 207.2 124.499 207.1C124.399 207 123.899 207.2 123.299 207.7C122.699 208.1 122.399 208.6 122.499 208.7Z" fill="#2AC6FA"/>
<path d="M122.699 212.4C122.599 212.5 122.899 213.1 123.399 213.6C123.899 214.2 124.399 214.5 124.499 214.4C124.599 214.3 124.299 213.7 123.799 213.2C123.399 212.7 122.899 212.3 122.699 212.4Z" fill="#2AC6FA"/>
<path d="M367.799 270.2C367.799 270.4 368.999 270.5 370.499 270.5C371.999 270.5 373.199 270.4 373.199 270.2C373.199 270 371.999 269.9 370.499 269.9C368.999 269.9 367.799 270 367.799 270.2Z" fill="#2AC6FA"/>
<path d="M364.9 262.7C364.7 262.7 364.6 263.9 364.6 265.5C364.6 267 364.7 268.3 364.9 268.3C365.1 268.3 365.2 267.1 365.2 265.5C365.2 264 365 262.7 364.9 262.7Z" fill="#2AC6FA"/>
<path d="M361.8 270C361.8 269.8 360.6 269.7 359.1 269.7C357.6 269.7 356.4 269.8 356.4 270C356.4 270.2 357.6 270.3 359.1 270.3C360.5 270.3 361.8 270.2 361.8 270Z" fill="#2AC6FA"/>
<path d="M364.7 277.5C364.9 277.5 365 276.3 365 274.7C365 273.2 364.9 271.9 364.7 271.9C364.5 271.9 364.4 273.1 364.4 274.7C364.4 276.2 364.5 277.5 364.7 277.5Z" fill="#2AC6FA"/>
<path d="M360.201 274.299C360.301 274.399 360.901 273.999 361.401 273.299C361.901 272.699 362.301 271.999 362.101 271.899C362.001 271.799 361.401 272.199 360.901 272.899C360.401 273.599 360.101 274.199 360.201 274.299Z" fill="#2AC6FA"/>
<path d="M360.499 265.8C360.399 265.9 360.699 266.5 361.299 267C361.899 267.6 362.399 267.9 362.499 267.8C362.599 267.7 362.299 267.1 361.699 266.6C361.199 266.1 360.599 265.7 360.499 265.8Z" fill="#2AC6FA"/>
<path d="M366.8 268C366.9 268.1 367.4 267.9 368 267.4C368.5 267 368.9 266.5 368.8 266.4C368.7 266.3 368.2 266.5 367.6 267C367 267.4 366.7 267.8 366.8 268Z" fill="#2AC6FA"/>
<path d="M367 271.7C366.9 271.8 367.2 272.399 367.7 272.899C368.2 273.499 368.7 273.8 368.8 273.7C368.9 273.6 368.6 272.999 368.1 272.499C367.7 271.999 367.2 271.6 367 271.7Z" fill="#2AC6FA"/>
<path d="M165.498 425.1C165.498 425.3 166.698 425.4 168.198 425.4C169.698 425.4 170.898 425.3 170.898 425.1C170.898 424.9 169.698 424.8 168.198 424.8C166.798 424.7 165.498 424.9 165.498 425.1Z" fill="#2AC6FA"/>
<path d="M162.599 417.6C162.399 417.6 162.299 418.8 162.299 420.4C162.299 421.9 162.399 423.2 162.599 423.2C162.799 423.2 162.899 422 162.899 420.4C162.899 418.8 162.799 417.6 162.599 417.6Z" fill="#2AC6FA"/>
<path d="M159.5 424.9C159.5 424.7 158.3 424.6 156.8 424.6C155.3 424.6 154.1 424.7 154.1 424.9C154.1 425.1 155.3 425.2 156.8 425.2C158.3 425.2 159.5 425 159.5 424.9Z" fill="#2AC6FA"/>
<path d="M162.4 432.3C162.6 432.3 162.7 431.1 162.7 429.5C162.7 428 162.6 426.7 162.4 426.7C162.2 426.7 162.1 427.9 162.1 429.5C162.1 431.1 162.3 432.3 162.4 432.3Z" fill="#2AC6FA"/>
<path d="M158 429.1C158.1 429.2 158.7 428.8 159.2 428.1C159.7 427.5 160.1 426.8 159.9 426.7C159.8 426.6 159.2 427 158.7 427.7C158.2 428.4 157.9 429 158 429.1Z" fill="#2AC6FA"/>
<path d="M158.199 420.7C158.099 420.8 158.399 421.4 158.999 421.9C159.599 422.5 160.099 422.8 160.199 422.7C160.299 422.6 159.999 422 159.399 421.5C158.899 420.9 158.399 420.5 158.199 420.7Z" fill="#2AC6FA"/>
<path d="M164.599 422.8C164.699 422.9 165.199 422.7 165.799 422.2C166.299 421.8 166.699 421.3 166.599 421.2C166.499 421.1 165.999 421.3 165.399 421.8C164.799 422.2 164.399 422.7 164.599 422.8Z" fill="#2AC6FA"/>
<path d="M164.8 426.6C164.7 426.7 165 427.3 165.5 427.8C166 428.4 166.5 428.7 166.6 428.6C166.7 428.5 166.4 427.9 165.9 427.4C165.4 426.8 164.9 426.4 164.8 426.6Z" fill="#2AC6FA"/>
<path d="M161.5 170.4L161.2 171.2C160.6 172.5 159.6 173.6 158.3 174.1L157.5 174.4L158.3 174.7C159.6 175.2 160.7 176.3 161.3 177.7L161.5 178.3L161.8 177.6C162.4 176.3 163.5 175.4 164.8 174.9L165.5 174.6L164.6 174.1C163.4 173.5 162.5 172.5 162 171.3L161.5 170.4Z" fill="#2AC6FA"/>
<path d="M126.299 157.2L126.099 157.6C125.799 158.3 125.299 158.8 124.599 159.1L124.199 159.3L124.599 159.5C125.299 159.8 125.799 160.3 126.099 161L126.199 161.3L126.399 161C126.699 160.4 127.199 159.9 127.899 159.6L128.299 159.5L127.799 159.3C127.199 159 126.699 158.5 126.499 157.9L126.299 157.2Z" fill="#2AC6FA"/>
<path d="M399.899 102.8L399.699 103.2C399.399 103.9 398.899 104.4 398.199 104.7L397.799 104.9L398.199 105.1C398.899 105.4 399.399 105.9 399.699 106.6L399.799 106.9L399.999 106.6C400.299 106 400.799 105.5 401.499 105.2L401.899 105.1L401.399 104.9C400.799 104.6 400.299 104.1 400.099 103.5L399.899 102.8Z" fill="#2AC6FA"/>
<path d="M384.799 306.4L384.599 306.8C384.299 307.5 383.799 308 383.099 308.3L382.699 308.5L383.099 308.7C383.799 309 384.299 309.5 384.599 310.2L384.699 310.5L384.899 310.2C385.199 309.6 385.699 309.1 386.399 308.8L386.799 308.7L386.299 308.5C385.699 308.2 385.199 307.7 384.999 307.1L384.799 306.4Z" fill="#2AC6FA"/>
<path d="M174 395.6L173.8 396C173.5 396.7 173 397.2 172.3 397.5L171.9 397.7L172.3 397.9C173 398.2 173.5 398.7 173.8 399.4L173.9 399.7L174.1 399.4C174.4 398.8 174.9 398.3 175.6 398L176 397.9L175.5 397.7C174.9 397.4 174.4 396.9 174.2 396.3L174 395.6Z" fill="#2AC6FA"/>
<path d="M332.399 63.3999L332.199 63.7999C331.899 64.4999 331.399 64.9999 330.699 65.2999L330.299 65.4999L330.699 65.6999C331.399 65.9999 331.899 66.4999 332.199 67.1999L332.299 67.4999L332.499 67.1999C332.799 66.5999 333.299 66.0999 333.999 65.7999L334.399 65.6999L333.899 65.4999C333.299 65.1999 332.799 64.6999 332.599 64.0999L332.399 63.3999Z" fill="#2AC6FA"/>
<path d="M356.299 329.4L355.999 330.2C355.399 331.5 354.399 332.6 353.099 333.1L352.299 333.4L353.099 333.7C354.399 334.2 355.499 335.3 356.099 336.7L356.299 337.3L356.599 336.6C357.199 335.3 358.299 334.4 359.599 333.9L360.299 333.6L359.399 333.1C358.199 332.5 357.299 331.5 356.799 330.3L356.299 329.4Z" fill="#2AC6FA"/>
</svg>
