<svg width="24" height="24" viewBox="0 0 24 24" fill="none" xmlns="http://www.w3.org/2000/svg">
<path d="M19.2682 8.85437L19.2685 8.85585C20.3127 13.4611 17.3722 16.7668 15.1159 19.3033C15.0565 19.37 14.9976 19.4363 14.9393 19.502C14.8795 19.5693 14.8202 19.6364 14.7613 19.703C14.2987 20.226 13.8605 20.7215 13.3956 21.111C12.8732 21.5487 12.4218 21.76 11.9998 21.76C11.5994 21.76 11.1652 21.5395 10.6307 21.0726C10.3713 20.8461 10.114 20.5849 9.84395 20.3033C9.79389 20.2511 9.74308 20.1979 9.69171 20.1441C9.48659 19.9292 9.27233 19.7047 9.05934 19.4977C8.69803 19.0338 8.3401 18.5911 7.99299 18.1618C5.64489 15.2578 3.79152 12.9656 4.73103 8.8572L4.73126 8.85622C5.69848 4.60045 8.78607 2.75 11.9898 2.75H11.9998C15.2163 2.75 18.3109 4.5928 19.2682 8.85437Z" stroke="#333232" stroke-width="1.5"/>
<path fill-rule="evenodd" clip-rule="evenodd" d="M12.12 7.75C10.8111 7.75 9.75 8.81109 9.75 10.12C9.75 11.4289 10.8111 12.49 12.12 12.49C13.4289 12.49 14.49 11.4289 14.49 10.12C14.49 8.81109 13.4289 7.75 12.12 7.75ZM8.25 10.12C8.25 7.98266 9.98266 6.25 12.12 6.25C14.2573 6.25 15.99 7.98266 15.99 10.12C15.99 12.2573 14.2573 13.99 12.12 13.99C9.98266 13.99 8.25 12.2573 8.25 10.12Z" fill="#2AC6FA"/>
</svg>
