<svg width="20" height="20" viewBox="0 0 20 20" fill="none" xmlns="http://www.w3.org/2000/svg">
<path fill-rule="evenodd" clip-rule="evenodd" d="M1.0415 9.99984C1.0415 5.07133 5.07133 1.0415 9.99984 1.0415C14.9283 1.0415 18.9582 5.07133 18.9582 9.99984C18.9582 14.9283 14.9283 18.9582 9.99984 18.9582C5.07133 18.9582 1.0415 14.9283 1.0415 9.99984ZM9.99984 2.2915C5.76168 2.2915 2.2915 5.76168 2.2915 9.99984C2.2915 14.238 5.76168 17.7082 9.99984 17.7082C14.238 17.7082 17.7082 14.238 17.7082 9.99984C17.7082 5.76168 14.238 2.2915 9.99984 2.2915Z" fill="#C9C9C9"/>
<path fill-rule="evenodd" clip-rule="evenodd" d="M10 6.0415C10.3452 6.0415 10.625 6.32133 10.625 6.6665V10.8332C10.625 11.1783 10.3452 11.4582 10 11.4582C9.65482 11.4582 9.375 11.1783 9.375 10.8332V6.6665C9.375 6.32133 9.65482 6.0415 10 6.0415Z" fill="#C9C9C9"/>
<path fill-rule="evenodd" clip-rule="evenodd" d="M9.16211 13.3333C9.16211 12.8731 9.53521 12.5 9.99544 12.5H10.0029C10.4632 12.5 10.8363 12.8731 10.8363 13.3333C10.8363 13.7936 10.4632 14.1667 10.0029 14.1667H9.99544C9.53521 14.1667 9.16211 13.7936 9.16211 13.3333Z" fill="#C9C9C9"/>
</svg>
