<svg width="25" height="24" viewBox="0 0 25 24" fill="none" xmlns="http://www.w3.org/2000/svg">
<path d="M8.20511 22H16.4102C20.5333 22 21.2718 20.39 21.4872 18.43L22.2564 10.43C22.5333 7.99 21.8154 6 17.4359 6H7.17947C2.79998 6 2.08204 7.99 2.35896 10.43L3.12819 18.43C3.34357 20.39 4.08204 22 8.20511 22Z" stroke="#2AC6FA" stroke-width="1.5" stroke-miterlimit="10" stroke-linecap="round" stroke-linejoin="round"/>
<path d="M8.20512 6V5.2C8.20512 3.43 8.20512 2 11.4872 2H13.1282C16.4103 2 16.4103 3.43 16.4103 5.2V6" stroke="#2AC6FA" stroke-width="1.5" stroke-miterlimit="10" stroke-linecap="round" stroke-linejoin="round"/>
<path d="M14.359 13V14C14.359 14.01 14.359 14.01 14.359 14.02C14.359 15.11 14.3487 16 12.3077 16C10.2769 16 10.2564 15.12 10.2564 14.03V13C10.2564 12 10.2564 12 11.282 12H13.3333C14.359 12 14.359 12 14.359 13Z" stroke="#2AC6FA" stroke-width="1.5" stroke-miterlimit="10" stroke-linecap="round" stroke-linejoin="round"/>
<path d="M22.2051 11C19.8359 12.68 17.1282 13.68 14.359 14.02" stroke="#2AC6FA" stroke-width="1.5" stroke-miterlimit="10" stroke-linecap="round" stroke-linejoin="round"/>
<path d="M2.68717 11.27C4.99486 12.81 7.59999 13.74 10.2564 14.03" stroke="#2AC6FA" stroke-width="1.5" stroke-miterlimit="10" stroke-linecap="round" stroke-linejoin="round"/>
</svg>
