<svg width="24" height="24" viewBox="0 0 24 24" fill="none" xmlns="http://www.w3.org/2000/svg">
<path fill-rule="evenodd" clip-rule="evenodd" d="M6.98541 2.40426C3.93071 2.40426 1.41176 4.95955 1.41176 8.17012C1.41176 11.9935 3.13563 15.0485 5.28696 17.3067C7.44734 19.5744 9.99983 20.9948 11.5339 21.5314L11.5409 21.5338L11.5409 21.5339C11.6317 21.5667 11.798 21.5957 12 21.5957C12.202 21.5957 12.3683 21.5667 12.4591 21.5339L12.4661 21.5313L12.4661 21.5314C14.0002 20.9948 16.5527 19.5744 18.713 17.3067C20.8644 15.0485 22.5882 11.9935 22.5882 8.17012C22.5882 4.95955 20.0693 2.40426 17.0146 2.40426C15.2124 2.40426 13.5897 3.30145 12.5726 4.7046C12.4399 4.88763 12.2269 4.99608 12 4.99608C11.7731 4.99608 11.5601 4.88763 11.4274 4.7046C10.4099 3.30085 8.79824 2.40426 6.98541 2.40426ZM0 8.17012C0 4.23003 3.10553 1 6.98541 1C8.96291 1 10.7382 1.84389 12.0003 3.19009C13.2649 1.84353 15.0473 1 17.0146 1C20.8945 1 24 4.23003 24 8.17012C24 12.4462 22.0646 15.8302 19.7378 18.2726C17.4214 20.704 14.6789 22.2453 12.9375 22.855C12.6451 22.96 12.3049 23 12 23C11.6951 23 11.3549 22.96 11.0625 22.855C9.32115 22.2453 6.57858 20.704 4.26221 18.2726C1.93543 15.8302 0 12.4462 0 8.17012Z" fill="#2AC6FA"/>
</svg>
