<svg width="20" height="21" viewBox="0 0 20 21" fill="none" xmlns="http://www.w3.org/2000/svg">
<path fill-rule="evenodd" clip-rule="evenodd" d="M9.9999 7.3667C8.90914 7.3667 8.0249 8.25094 8.0249 9.3417C8.0249 10.4325 8.90914 11.3167 9.9999 11.3167C11.0907 11.3167 11.9749 10.4325 11.9749 9.3417C11.9749 8.25094 11.0907 7.3667 9.9999 7.3667ZM6.7749 9.3417C6.7749 7.56058 8.21878 6.1167 9.9999 6.1167C11.781 6.1167 13.2249 7.56058 13.2249 9.3417C13.2249 11.1228 11.781 12.5667 9.9999 12.5667C8.21878 12.5667 6.7749 11.1228 6.7749 9.3417Z" fill="#2AC6FA"/>
<path fill-rule="evenodd" clip-rule="evenodd" d="M10.0026 3.04151C7.15535 3.03958 4.37046 4.69177 3.62611 7.9631C2.74522 11.8549 5.15666 15.23 7.42508 17.4163C8.86717 18.8007 11.1338 18.799 12.5659 17.4168L12.567 17.4157C14.8436 15.2295 17.2546 11.8627 16.3737 7.97117L16.3737 7.97114C15.6332 4.69959 12.8501 3.04343 10.0026 3.04151ZM17.5928 7.69518C16.6999 3.75007 13.3206 1.79375 10.0035 1.79151C6.68628 1.78926 3.3046 3.74111 2.40716 7.6862L2.40702 7.68684C1.37143 12.2614 4.22642 16.0695 6.55788 18.3165L6.55867 18.3173C8.48316 20.1656 11.5159 20.1672 13.4336 18.3165C15.7735 16.0693 18.6284 12.2698 17.5928 7.69518Z" fill="#2AC6FA"/>
</svg>
