<svg width="28" height="28" viewBox="0 0 28 28" fill="none" xmlns="http://www.w3.org/2000/svg">
<path fill-rule="evenodd" clip-rule="evenodd" d="M12.0808 10.7714C11.8123 10.9258 11.4917 11.3458 11.4917 12.2732V15.7266C11.4917 16.6465 11.8113 17.0684 12.0821 17.2247C12.3532 17.3812 12.8799 17.4471 13.6794 16.987C13.6792 16.9871 13.6796 16.9869 13.6794 16.987L16.6654 15.2607L16.6667 15.2599C17.4664 14.7995 17.6721 14.3113 17.6721 13.9999C17.6721 13.6884 17.4664 13.2003 16.6667 12.7398L15.1721 11.8757L13.6801 11.0132C13.6799 11.0131 13.6803 11.0133 13.6801 11.0132C12.8784 10.5518 12.3508 10.6163 12.0808 10.7714ZM11.2088 9.25416C12.2075 8.68022 13.4303 8.85001 14.5533 9.49659L14.5546 9.49736L16.0479 10.3607L17.5399 11.2233C17.5397 11.2231 17.5402 11.2234 17.5399 11.2233C18.6648 11.8712 19.4221 12.8474 19.4221 13.9999C19.4221 15.1523 18.6657 16.1281 17.5408 16.776C17.5405 16.7762 17.5411 16.7758 17.5408 16.776L14.5533 18.5032C13.4281 19.151 12.205 19.3161 11.2075 18.7405C10.2096 18.1647 9.74167 17.0233 9.74167 15.7266V12.2732C9.74167 10.9723 10.2086 9.829 11.2088 9.25416Z" fill="white"/>
<path fill-rule="evenodd" clip-rule="evenodd" d="M14 3.2085C8.03993 3.2085 3.20834 8.04009 3.20834 14.0002C3.20834 19.9602 8.03993 24.7918 14 24.7918C19.9601 24.7918 24.7917 19.9602 24.7917 14.0002C24.7917 8.04009 19.9601 3.2085 14 3.2085ZM1.45834 14.0002C1.45834 7.07359 7.07343 1.4585 14 1.4585C20.9266 1.4585 26.5417 7.07359 26.5417 14.0002C26.5417 20.9267 20.9266 26.5418 14 26.5418C7.07343 26.5418 1.45834 20.9267 1.45834 14.0002Z" fill="white"/>
</svg>
