<svg width="24" height="24" viewBox="0 0 24 24" fill="none" xmlns="http://www.w3.org/2000/svg">
<path fill-rule="evenodd" clip-rule="evenodd" d="M3.83033 8.83033C3.1398 9.52086 2.75 10.674 2.75 12.6V16.4C2.75 18.326 3.1398 19.4791 3.83033 20.1697C4.52086 20.8602 5.67397 21.25 7.6 21.25H11.4C13.326 21.25 14.4791 20.8602 15.1697 20.1697C15.8602 19.4791 16.25 18.326 16.25 16.4V13.4C16.25 12.9858 16.5858 12.65 17 12.65C17.4142 12.65 17.75 12.9858 17.75 13.4V16.4C17.75 18.474 17.3398 20.1209 16.2303 21.2303C15.1209 22.3398 13.474 22.75 11.4 22.75H7.6C5.52603 22.75 3.87914 22.3398 2.76967 21.2303C1.6602 20.1209 1.25 18.474 1.25 16.4V12.6C1.25 10.526 1.6602 8.87914 2.76967 7.76967C3.87914 6.6602 5.52603 6.25 7.6 6.25H10.6C11.0142 6.25 11.35 6.58579 11.35 7C11.35 7.41421 11.0142 7.75 10.6 7.75H7.6C5.67397 7.75 4.52086 8.1398 3.83033 8.83033Z" fill="#2AC6FA"/>
<path fill-rule="evenodd" clip-rule="evenodd" d="M10.3131 6.30711C10.5933 6.19103 10.9159 6.25519 11.1304 6.46969L17.5304 12.8697C17.7449 13.0842 17.8091 13.4068 17.693 13.687C17.5769 13.9673 17.3034 14.15 17.0001 14.15H13.8001C12.5585 14.15 11.4922 13.9528 10.7698 13.2304C10.0473 12.5079 9.8501 11.4416 9.8501 10.2V7.00002C9.8501 6.69668 10.0328 6.4232 10.3131 6.30711ZM11.3501 8.81068V10.2C11.3501 11.3585 11.5528 11.8921 11.8304 12.1697C12.108 12.4473 12.6416 12.65 13.8001 12.65H15.1894L11.3501 8.81068Z" fill="#2AC6FA"/>
<path d="M11.6001 2H15.6001" stroke="#2AC6FA" stroke-width="1.5" stroke-linecap="round" stroke-linejoin="round"/>
<path fill-rule="evenodd" clip-rule="evenodd" d="M10 2.75C8.75421 2.75 7.75 3.75421 7.75 5C7.75 5.41421 7.41421 5.75 7 5.75C6.58579 5.75 6.25 5.41421 6.25 5C6.25 2.92579 7.92579 1.25 10 1.25H12.62C13.0342 1.25 13.37 1.58579 13.37 2C13.37 2.41421 13.0342 2.75 12.62 2.75H10Z" fill="#2AC6FA"/>
<path fill-rule="evenodd" clip-rule="evenodd" d="M21.9999 7.25C22.4142 7.25 22.7499 7.58579 22.7499 8V14.19C22.7499 16.1542 21.1542 17.75 19.1899 17.75C18.7757 17.75 18.4399 17.4142 18.4399 17C18.4399 16.5858 18.7757 16.25 19.1899 16.25C20.3257 16.25 21.2499 15.3258 21.2499 14.19V8C21.2499 7.58579 21.5857 7.25 21.9999 7.25Z" fill="#2AC6FA"/>
<path fill-rule="evenodd" clip-rule="evenodd" d="M15.713 1.30711C15.9932 1.19103 16.3158 1.25519 16.5303 1.46969L22.5303 7.46969C22.7448 7.68419 22.809 8.00678 22.6929 8.28703C22.5768 8.56729 22.3033 8.75002 22 8.75002H19C17.8335 8.75002 16.8171 8.56527 16.1259 7.8741C15.4347 7.18293 15.25 6.16657 15.25 5.00002V2.00002C15.25 1.69668 15.4327 1.4232 15.713 1.30711ZM16.75 3.81068V5.00002C16.75 6.08347 16.9403 6.56711 17.1866 6.81344C17.4329 7.05977 17.9165 7.25002 19 7.25002H20.1893L16.75 3.81068Z" fill="#2AC6FA"/>
</svg>
