<svg width="22" height="20" viewBox="0 0 22 20" fill="none" xmlns="http://www.w3.org/2000/svg">
<path d="M11.8647 0.996161C11.4794 0.33201 10.5203 0.332008 10.1349 0.996161L7.42083 5.67347C7.23045 6.00155 6.90141 6.22544 6.52634 6.28209L1.44003 7.05032C0.585747 7.17935 0.286087 8.25796 0.951392 8.80916L4.74048 11.9484C5.09123 12.239 5.25615 12.6973 5.17094 13.1448L4.17978 18.3499C4.02309 19.1727 4.88688 19.812 5.62803 19.4218L10.4174 16.9C10.782 16.708 11.2177 16.708 11.5822 16.9L16.3716 19.4218C17.1128 19.812 17.9765 19.1727 17.8199 18.3499L16.8287 13.1448C16.7435 12.6973 16.9084 12.239 17.2591 11.9484L21.0482 8.80916C21.7135 8.25796 21.4139 7.17935 20.5596 7.05032L15.4733 6.28209C15.0982 6.22544 14.7692 6.00155 14.5788 5.67347L11.8647 0.996161Z" fill="#2AC6FA"/>
</svg>
