<svg width="18" height="16" viewBox="0 0 18 16" fill="none" xmlns="http://www.w3.org/2000/svg">
<path fill-rule="evenodd" clip-rule="evenodd" d="M7.6578 0.0311652L7.1857 0.0622918L6.81194 0.125585L6.43819 0.18884L6.06444 0.287497L5.69069 0.386155L5.31694 0.521948L4.94319 0.657742L4.49052 0.882755L4.03785 1.10781L3.684 1.33767L3.33016 1.56754L3.01542 1.81598L2.70068 2.06441L2.30726 2.46443L1.91384 2.86446L1.64982 3.21097L1.38579 3.55749L1.14309 3.95558L0.900346 4.35368L0.690534 4.82851L0.480683 5.30339L0.361279 5.69698L0.241876 6.09053L0.16508 6.46555L0.0883233 6.84053L0.0441813 7.33702L0 7.83354L0.0161696 10.2605L0.0323393 12.6874L0.0959163 12.9419L0.159533 13.1964L0.258872 13.4549L0.358211 13.7133L0.498151 13.9741L0.638091 14.2348L0.889055 14.5419L1.14002 14.849L1.35805 15.0315L1.57609 15.2139L1.91235 15.4206L2.2486 15.6273L2.59269 15.7497L2.93674 15.8721L3.2318 15.9361L3.52687 16L7.00866 16H10.4904L10.9553 15.9311L11.4203 15.8622L11.8602 15.753L12.3002 15.6438L12.6936 15.4994L13.087 15.355L13.4773 15.1637L13.8675 14.9723L14.1744 14.7859L14.4814 14.5995L14.8071 14.3587L15.1328 14.1179L15.6268 13.6338L16.1207 13.1497L16.3826 12.803L16.6444 12.4563L16.8871 12.0582L17.1299 11.6601L17.3436 11.1764L17.5574 10.6927L17.6888 10.2455L17.8202 9.79822L17.9101 9.29742L18 8.79662V8.0069V7.21717L17.9101 6.71637L17.8202 6.21557L17.689 5.76905L17.5578 5.32253L17.348 4.8445L17.1382 4.36647L16.8913 3.96198L16.6444 3.55749L16.3826 3.21078L16.1207 2.86407L15.6268 2.37995L15.1328 1.89587L14.8071 1.65506L14.4814 1.41426L14.1744 1.22784L13.8675 1.04147L13.4773 0.850088L13.087 0.658744L12.6936 0.514359L12.3002 0.369975L11.8618 0.261186L11.4234 0.152359L10.9766 0.0901824L10.5298 0.0280063L9.32984 0.0140223L8.12991 0L7.6578 0.0311652ZM11.2183 1.33717L11.6314 1.42408L12.0445 1.55691L12.4576 1.68974L12.969 1.94067L13.4804 2.19165L13.8542 2.4496L14.2279 2.70755L14.7613 3.22881L15.2947 3.7501L15.5951 4.19312L15.8954 4.63613L16.1124 5.07915L16.3294 5.52216L16.4489 5.88131L16.5684 6.24046L16.6467 6.61325L16.725 6.98604L16.7716 7.49647L16.8182 8.0069L16.7716 8.51733L16.725 9.02776L16.646 9.40378L16.567 9.77984L16.4468 10.1357L16.3267 10.4916L16.1152 10.9259L15.9038 11.3601L15.68 11.6964L15.4562 12.0326L15.231 12.3022L15.0059 12.5719L14.6151 12.9378L14.2243 13.3038L13.8524 13.5632L13.4804 13.8227L12.969 14.0728L12.4576 14.3229L12.037 14.4572L11.6164 14.5914L11.2108 14.6789L10.8052 14.7663L7.22504 14.7782L3.6449 14.79L3.35723 14.7275L3.06952 14.6651L2.71481 14.4912L2.3601 14.3173L2.05827 14.0218L1.75647 13.7264L1.62582 13.5087L1.49516 13.2911L1.40188 13.0278L1.30856 12.7645L1.26725 12.5141L1.22594 12.2637L1.22567 10.0238L1.22535 7.78392L1.26658 7.38498L1.30777 6.98604L1.38465 6.61375L1.46152 6.24142L1.58116 5.88181L1.7008 5.52216L1.91781 5.07915L2.13483 4.63613L2.42852 4.20409L2.72224 3.77206L3.16122 3.32492L3.60024 2.87775L3.98375 2.59491L4.36722 2.31204L4.6552 2.14666L4.94319 1.98132L5.36033 1.79845L5.77752 1.61558L6.19655 1.49458L6.61555 1.37354L7.03832 1.3025L7.46109 1.23147L9.13313 1.24087L10.8052 1.2503L11.2183 1.33717ZM8.86226 4.96377L8.72913 4.99447L8.59403 5.12676L8.45897 5.25901L8.42324 5.40987L8.38752 5.56068L8.38658 6.47561L8.38563 7.39053L7.45125 7.39145L6.51688 7.39238L6.36285 7.42735L6.20879 7.46233L6.07495 7.59343L5.94107 7.72448L5.90857 7.86563L5.87607 8.00674L5.91604 8.16107L5.95605 8.31539L6.08785 8.42872L6.21965 8.54202L6.36828 8.58243L6.51688 8.62284L7.45125 8.62303L8.38563 8.62326V9.53075V10.4382L8.42966 10.6094L8.47368 10.7806L8.60563 10.894L8.73755 11.0075L8.87635 11.045L9.01511 11.0825L9.16264 11.0436L9.31017 11.0047L9.43442 10.8885L9.5587 10.7723L9.60162 10.6053L9.64458 10.4382V9.53075V8.62326H10.5714H11.4982L11.6687 8.5812L11.8393 8.53917L11.958 8.41747L12.0766 8.29582L12.1164 8.15136L12.1561 8.0069L12.1171 7.86844L12.0781 7.72995L11.9531 7.59674L11.8281 7.46349L11.6707 7.42793L11.5133 7.39238L10.579 7.39145L9.64458 7.39053L9.64435 6.47561L9.64415 5.56068L9.60072 5.40748L9.55724 5.25423L9.40884 5.10892L9.26041 4.96358H9.18031H9.10024L9.04784 4.94832L8.99544 4.9331L8.86226 4.96377Z" fill="#2AC6FA"/>
</svg>
