<svg width="215" height="202" viewBox="0 0 215 202" fill="none" xmlns="http://www.w3.org/2000/svg">
<path d="M105.903 202C164.391 202 211.806 200.683 211.806 199.058C211.806 197.433 164.391 196.116 105.903 196.116C47.4143 196.116 0 197.433 0 199.058C0 200.683 47.4143 202 105.903 202Z" fill="#F5F5F5"/>
<path d="M2.10547 186.751V199.057H4.94916C4.94916 199.057 4.65498 196.606 4.94916 195.184C5.24333 193.713 8.28314 189.987 8.23411 186.8H2.10547V186.751Z" fill="#EBEBEB"/>
<path d="M24.8555 186.751V199.057H27.6992C27.6992 199.057 27.405 196.606 27.6992 195.184C27.9933 193.713 31.0331 189.987 30.9841 186.8H24.8555V186.751Z" fill="#E0E0E0"/>
<path d="M47.0667 186.751V199.057H44.223C44.223 199.057 44.5172 196.606 44.223 195.184C43.9289 193.713 40.8891 189.987 40.9381 186.8H47.0667V186.751Z" fill="#EBEBEB"/>
<path d="M66.7269 186.751V199.057H63.8832C63.8832 199.057 64.1774 196.606 63.8832 195.184C63.589 193.713 60.5492 189.987 60.5982 186.8H66.7269V186.751Z" fill="#E0E0E0"/>
<path d="M68.1987 126.054H0.195312V187.144H68.1987V126.054Z" fill="#F5F5F5"/>
<path d="M49.8633 126.054L50.4026 187.144H68.2002V126.054H49.8633Z" fill="#E0E0E0"/>
<path d="M46.9193 130.564H3.23438V146.107H46.9193V130.564Z" fill="#EBEBEB"/>
<path d="M46.9193 149.195H3.23438V164.738H46.9193V149.195Z" fill="#EBEBEB"/>
<path d="M46.9193 167.826H3.23438V183.368H46.9193V167.826Z" fill="#EBEBEB"/>
<path d="M20.002 108.501L18.0898 126.004H42.2612L44.2224 108.501H20.002Z" fill="#E0E0E0"/>
<path d="M20.982 109.775L19.168 125.072H40.9369L42.7019 109.775H20.982Z" fill="white"/>
<path d="M24.6589 112.325L23.5312 122.474H37.2594L37.9948 112.325H24.6589Z" fill="#EBEBEB"/>
<path d="M43.3894 116.052L48.3413 126.054L42.2617 126.005L43.3894 116.052Z" fill="#EBEBEB"/>
<path d="M26.6695 139.144C26.6695 140.027 25.9341 140.762 25.0516 140.762C24.169 140.762 23.4336 140.027 23.4336 139.144C23.4336 138.262 24.169 137.526 25.0516 137.526C25.9831 137.526 26.6695 138.262 26.6695 139.144Z" fill="#E0E0E0"/>
<path d="M26.6695 157.971C26.6695 158.854 25.9341 159.589 25.0516 159.589C24.169 159.589 23.4336 158.854 23.4336 157.971C23.4336 157.089 24.169 156.354 25.0516 156.354C25.9831 156.354 26.6695 157.089 26.6695 157.971Z" fill="#E0E0E0"/>
<path d="M26.6695 176.799C26.6695 177.681 25.9341 178.417 25.0516 178.417C24.169 178.417 23.4336 177.681 23.4336 176.799C23.4336 175.916 24.169 175.181 25.0516 175.181C25.9831 175.181 26.6695 175.916 26.6695 176.799Z" fill="#E0E0E0"/>
<path d="M46.8711 26.77L8.28516 26.4268L9.3638 76.6816L47.9007 76.8287L46.8711 26.77Z" fill="#E0E0E0"/>
<path d="M44.3709 29.0251L10.5898 28.1426L11.5704 73.7397L45.3515 74.1319L44.3709 29.0251Z" fill="#FAFAFA"/>
<path d="M38.5838 35.8405L16.2266 35.4482L16.8639 67.3172L39.2703 66.8269L38.5838 35.8405Z" fill="#EBEBEB"/>
<path d="M16.8639 67.3172L38.927 50.4512L16.2266 35.4482L16.8639 67.3172Z" fill="#F5F5F5"/>
<path d="M212.787 0.588321L178.957 0.245117L179.889 44.3713L213.719 44.4694L212.787 0.588321Z" fill="#E0E0E0"/>
<path d="M210.629 2.54912L181.016 1.76465L181.849 41.7724L211.463 42.1156L210.629 2.54912Z" fill="#FAFAFA"/>
<path d="M205.53 8.5307L185.918 8.1875L186.506 36.1341L206.118 35.7419L205.53 8.5307Z" fill="#EBEBEB"/>
<path d="M186.506 36.1341L205.824 21.3763L185.918 8.1875L186.506 36.1341Z" fill="#F5F5F5"/>
<path d="M174.886 166.355C174.739 166.797 179.789 185.967 179.789 185.967L183.27 185.232L178.514 166.355H174.886Z" fill="#EBEBEB"/>
<path d="M201.706 163.61L194.793 185.968H198.813L205.481 165.179L201.706 163.61Z" fill="#F5F5F5"/>
<path d="M208.079 160.179L200.137 185.968H204.157L211.806 161.748L208.079 160.179Z" fill="#EBEBEB"/>
<path d="M177.336 184.398L181.356 198.372H201.703L205.479 184.398H177.336Z" fill="#E0E0E0"/>
<path d="M187.83 184.399C187.83 184.399 187.83 184.35 187.781 184.252C187.732 184.154 187.732 184.006 187.683 183.81C187.585 183.418 187.438 182.879 187.291 182.143C186.948 180.672 186.506 178.613 185.918 176.015C184.741 170.818 183.172 163.659 181.358 155.668L181.505 155.766C180.917 155.766 180.329 155.766 179.691 155.766C179.103 155.766 178.465 155.766 177.926 155.766L178.073 155.619C179.887 163.61 181.505 170.818 182.682 176.015C183.27 178.613 183.712 180.672 184.055 182.143C184.202 182.83 184.3 183.418 184.398 183.81C184.447 184.006 184.447 184.154 184.496 184.252C184.496 184.35 184.545 184.399 184.496 184.399C184.496 184.399 184.496 184.35 184.447 184.252C184.398 184.154 184.398 184.006 184.349 183.81C184.251 183.418 184.104 182.879 183.957 182.143C183.614 180.672 183.123 178.613 182.535 176.015C181.358 170.818 179.691 163.659 177.877 155.668L177.828 155.521H177.975C178.515 155.521 179.152 155.521 179.74 155.521C180.378 155.521 180.966 155.521 181.554 155.521H181.652V155.619C183.417 163.61 184.986 170.818 186.163 176.015C186.702 178.613 187.193 180.672 187.487 182.143C187.634 182.83 187.732 183.418 187.83 183.81C187.879 184.006 187.879 184.154 187.928 184.252C187.83 184.35 187.83 184.399 187.83 184.399Z" fill="#E0E0E0"/>
<path d="M194.303 65.1107C194.303 65.1107 194.205 65.0617 193.959 65.0127C193.714 64.9636 193.371 64.9146 192.881 65.0127C192.44 65.1107 191.9 65.3559 191.312 65.7971C190.773 66.2384 190.233 66.8758 189.743 67.6112C188.762 69.1311 187.929 71.2884 187.046 73.7398C186.164 76.2403 185.134 79.084 184.301 82.369C184.154 82.6141 183.958 82.8593 183.712 83.0554C183.467 83.2515 183.173 83.3986 182.83 83.3496C182.487 83.3005 182.241 83.1044 181.996 82.8593C181.751 82.6632 181.555 82.418 181.359 82.1729C180.918 81.7316 180.476 81.2413 179.986 80.8491C179.496 80.4568 178.908 80.0646 178.27 80.1627C177.633 80.2607 177.044 80.653 176.701 81.1923C176.358 81.7806 176.211 82.467 176.162 83.1534C176.064 84.5753 176.505 85.9481 176.75 87.419C177.044 88.8899 177.29 90.4098 177.584 91.9297C177.731 92.7141 177.878 93.4986 178.025 94.2831C178.074 94.6753 178.172 95.0675 178.221 95.4598C178.319 95.852 178.368 96.3423 178.074 96.7345C177.927 96.9306 177.633 97.0287 177.437 96.9797C177.191 96.9306 177.044 96.7835 176.848 96.6855C176.505 96.4403 176.211 96.1952 175.868 95.95C175.181 95.4598 174.495 94.9695 173.808 94.5282C173.073 94.0869 172.289 93.7437 171.504 93.5476C171.112 93.4496 170.671 93.4496 170.278 93.5476C169.886 93.6457 169.543 93.8908 169.249 94.234C168.758 94.9204 168.611 95.803 168.611 96.6855C168.611 97.568 168.709 98.4505 168.857 99.3331C169.2 101.098 169.739 102.863 170.327 104.628C170.474 105.069 170.671 105.511 170.769 106.001C170.818 106.246 170.769 106.54 170.573 106.736C170.524 106.785 170.474 106.835 170.425 106.884C170.376 106.933 170.327 106.982 170.229 106.982C170.033 107.031 169.935 106.933 169.788 106.884C169.347 106.638 169.004 106.295 168.66 106.001C168.317 105.658 167.974 105.364 167.631 105.02C166.944 104.383 166.209 103.746 165.424 103.206C165.032 102.961 164.591 102.716 164.15 102.618C163.708 102.471 163.218 102.52 162.826 102.765C162.434 103.01 162.189 103.451 162.091 103.893C161.992 104.334 161.894 104.824 161.894 105.315C161.894 106.295 162.041 107.276 162.287 108.256C162.728 110.218 163.512 112.081 164.395 113.895C165.326 115.709 166.405 117.474 167.582 119.19C168.121 120.072 168.857 120.857 169.494 121.641C170.131 122.475 170.818 123.259 171.504 124.093V124.142L171.406 124.093C172.436 123.946 173.465 123.799 174.544 123.652C175.574 123.504 176.603 123.406 177.633 123.112C179.643 122.671 181.653 122.083 183.516 121.347C185.428 120.612 187.242 119.729 188.86 118.601C189.694 118.062 190.429 117.425 191.116 116.689C191.459 116.346 191.753 115.954 191.949 115.513C192.194 115.071 192.292 114.63 192.145 114.189C192.047 113.748 191.704 113.404 191.263 113.208C190.871 113.012 190.38 112.865 189.939 112.767C189.007 112.62 188.027 112.571 187.095 112.62C186.605 112.62 186.115 112.62 185.674 112.62C185.183 112.62 184.742 112.62 184.203 112.522C184.105 112.473 183.957 112.473 183.81 112.326C183.761 112.228 183.761 112.179 183.761 112.13C183.761 112.081 183.761 111.983 183.761 111.934C183.761 111.639 183.958 111.394 184.154 111.247C184.546 110.904 184.987 110.757 185.379 110.512C187.046 109.629 188.615 108.698 190.037 107.619C190.773 107.08 191.41 106.491 191.998 105.805C192.587 105.168 193.077 104.383 193.175 103.55C193.224 103.108 193.126 102.716 192.881 102.373C192.636 102.03 192.341 101.735 191.949 101.539C191.214 101.098 190.38 100.853 189.596 100.706C188.762 100.51 187.929 100.412 187.095 100.363C186.703 100.314 186.262 100.265 185.87 100.265C185.674 100.265 185.428 100.216 185.232 100.118C185.036 100.019 184.84 99.7743 184.889 99.5292C184.938 99.0389 185.33 98.7447 185.624 98.4996C185.968 98.2544 186.262 98.0093 186.605 97.7641C187.242 97.2738 187.88 96.7835 188.517 96.3423C189.743 95.4107 190.969 94.4792 192.145 93.5966C193.322 92.6651 194.548 91.8806 195.43 90.802C195.872 90.2627 196.215 89.6743 196.313 88.9879C196.411 88.3505 196.264 87.6151 195.872 87.1738C195.675 86.9287 195.381 86.7816 195.087 86.6835C194.793 86.5855 194.45 86.5365 194.156 86.5365C193.518 86.4874 192.881 86.5365 192.243 86.5855C191.949 86.5855 191.606 86.6345 191.312 86.6345C191.018 86.6345 190.674 86.6345 190.38 86.4384C190.086 86.2423 189.939 85.9481 189.89 85.6049C189.841 85.3107 189.89 85.0165 189.939 84.6733C191.508 81.6826 192.685 78.8879 193.714 76.4365C194.695 73.985 195.528 71.8767 195.823 70.0627C195.97 69.1801 196.019 68.3466 195.921 67.6602C195.823 66.9738 195.626 66.4345 195.332 66.0423C195.087 65.65 194.793 65.4049 194.597 65.3068C194.401 65.2088 194.254 65.1598 194.254 65.1598C194.254 65.1598 194.401 65.1598 194.597 65.3068C194.793 65.4049 195.087 65.65 195.381 66.0423C195.675 66.4345 195.872 67.0229 195.97 67.7093C196.068 68.3957 196.019 69.2292 195.872 70.1117C195.577 71.9258 194.744 74.034 193.763 76.4855C192.783 78.9369 191.606 81.7316 190.037 84.7714C189.988 85.0656 189.939 85.3598 189.988 85.6049C190.037 85.8991 190.135 86.1442 190.38 86.2913C190.625 86.4384 190.92 86.4874 191.214 86.4874C191.508 86.4874 191.802 86.4384 192.145 86.4384C192.783 86.3894 193.42 86.3403 194.057 86.3894C194.401 86.3894 194.695 86.4384 195.038 86.5365C195.381 86.6345 195.675 86.7816 195.921 87.0758C196.362 87.6151 196.558 88.3505 196.411 89.0369C196.313 89.7233 195.921 90.3607 195.479 90.9491C194.597 92.0767 193.322 92.8612 192.145 93.7928C190.969 94.6753 189.743 95.6068 188.517 96.5874C187.88 97.0777 187.291 97.519 186.654 98.0093C186.36 98.2544 186.017 98.4996 185.674 98.7447C185.526 98.8918 185.33 98.9898 185.232 99.1369C185.134 99.284 185.036 99.4801 184.987 99.6272C184.987 99.8233 185.036 99.9214 185.232 100.019C185.379 100.118 185.575 100.118 185.772 100.167C186.164 100.216 186.605 100.265 186.997 100.265C187.831 100.363 188.664 100.461 189.498 100.608C190.331 100.804 191.165 101.049 191.949 101.49C192.341 101.735 192.685 102.03 192.93 102.373C193.175 102.765 193.322 103.255 193.273 103.697C193.175 104.628 192.636 105.413 192.047 106.099C191.459 106.785 190.773 107.374 190.037 107.913C188.566 109.041 186.997 109.972 185.33 110.855C184.938 111.1 184.497 111.247 184.154 111.541C184.007 111.688 183.859 111.835 183.859 112.081C183.859 112.13 183.859 112.179 183.859 112.228C183.859 112.277 183.859 112.375 183.908 112.375C183.908 112.424 184.056 112.473 184.154 112.473C184.595 112.571 185.085 112.571 185.526 112.571C186.017 112.571 186.458 112.571 186.948 112.571C187.929 112.571 188.86 112.571 189.841 112.767C190.331 112.865 190.822 112.963 191.263 113.208C191.704 113.453 192.096 113.846 192.243 114.385C192.391 114.924 192.243 115.464 191.998 115.905C191.753 116.346 191.459 116.787 191.116 117.131C190.429 117.866 189.645 118.503 188.811 119.092C187.144 120.268 185.281 121.102 183.369 121.837C181.457 122.573 179.447 123.161 177.437 123.602C176.407 123.897 175.377 123.946 174.348 124.142C173.318 124.289 172.289 124.436 171.21 124.583H171.161L171.112 124.534V124.485C170.425 123.651 169.788 122.867 169.102 122.034C168.464 121.2 167.729 120.465 167.19 119.582C166.013 117.866 164.934 116.101 164.003 114.287C163.071 112.473 162.287 110.561 161.845 108.6C161.6 107.619 161.453 106.638 161.453 105.609C161.453 105.118 161.502 104.579 161.649 104.089C161.796 103.599 162.041 103.108 162.483 102.814C162.924 102.52 163.512 102.471 164.003 102.618C164.493 102.765 164.934 102.961 165.375 103.255C166.209 103.795 166.944 104.432 167.631 105.069C167.974 105.413 168.317 105.707 168.66 106.05C169.004 106.344 169.347 106.687 169.739 106.933C169.837 106.982 169.935 107.031 169.984 107.031L170.082 106.982C170.131 106.933 170.18 106.933 170.18 106.884C170.327 106.736 170.327 106.54 170.327 106.295C170.278 105.854 170.082 105.413 169.935 104.971C169.298 103.206 168.758 101.441 168.415 99.6272C168.268 98.7447 168.121 97.8131 168.17 96.9306C168.17 96.0481 168.317 95.0675 168.906 94.3321C169.2 93.9398 169.592 93.6947 170.033 93.5966C170.474 93.4986 170.916 93.4986 171.357 93.5966C172.24 93.7928 173.024 94.185 173.759 94.5772C174.495 95.0185 175.181 95.5088 175.868 95.9991C176.211 96.2442 176.554 96.4894 176.848 96.7345C176.995 96.8326 177.191 96.9797 177.339 96.9797C177.535 97.0287 177.682 96.9797 177.78 96.8326C177.878 96.6855 177.927 96.4894 177.927 96.3423C177.927 96.1462 177.878 95.95 177.878 95.7539C177.829 95.3617 177.731 94.9695 177.682 94.5772C177.535 93.7928 177.388 93.0083 177.241 92.2238C176.946 90.7039 176.701 89.184 176.407 87.7131C176.162 86.2423 175.77 84.8204 175.868 83.3986C175.917 82.6632 176.064 81.9767 176.456 81.3394C176.848 80.751 177.486 80.3098 178.172 80.2117C178.515 80.1627 178.858 80.2607 179.202 80.4078C179.496 80.5549 179.79 80.751 180.035 80.9471C180.525 81.3884 180.967 81.8297 181.408 82.2709C181.604 82.5161 181.849 82.7122 182.045 82.9083C182.291 83.1044 182.487 83.3005 182.781 83.3496C183.075 83.3986 183.32 83.2515 183.565 83.1044C183.761 82.9083 183.957 82.7122 184.105 82.467C184.938 79.1821 185.968 76.2894 186.899 73.8379C187.831 71.3374 188.615 69.2292 189.645 67.7093C190.184 66.9738 190.674 66.3364 191.263 65.8952C191.802 65.4539 192.391 65.2088 192.832 65.1107C193.322 65.0127 193.665 65.0617 193.91 65.1107C194.205 65.0617 194.303 65.1107 194.303 65.1107Z" fill="#263238"/>
<path d="M191.752 71.8275C191.752 71.8275 191.752 71.8765 191.703 71.9746C191.654 72.0726 191.605 72.2197 191.556 72.4158C191.409 72.8571 191.164 73.4455 190.869 74.1809C190.281 75.7008 189.448 77.9561 188.369 80.6527C186.261 86.144 183.417 93.6945 180.23 102.029C177.043 110.413 174.15 117.964 171.993 123.406C170.915 126.152 170.032 128.358 169.444 129.829C169.15 130.564 168.904 131.153 168.708 131.594C168.61 131.79 168.561 131.937 168.512 132.035C168.463 132.133 168.463 132.182 168.414 132.182C168.414 132.182 168.414 132.133 168.463 132.035C168.512 131.937 168.561 131.79 168.61 131.594C168.757 131.153 169.002 130.564 169.297 129.829C169.885 128.309 170.718 126.054 171.797 123.357C173.905 117.866 176.749 110.315 179.936 101.98C183.123 93.6455 186.016 86.0459 188.173 80.6037C189.251 77.8581 190.134 75.6518 190.722 74.1809C191.016 73.4455 191.262 72.8571 191.458 72.4158C191.556 72.2197 191.605 72.0726 191.654 71.9746C191.703 71.8765 191.752 71.7785 191.752 71.8275Z" fill="#263238"/>
<path d="M191.998 88.7428C191.998 88.7918 191.557 89.0369 190.772 89.4782C189.939 89.9685 188.909 90.5078 187.782 91.1452C186.605 91.7826 185.526 92.3709 184.742 92.7631C183.957 93.1554 183.467 93.3515 183.418 93.3515C183.418 93.3025 183.859 93.0573 184.644 92.6161C185.477 92.1258 186.507 91.5864 187.634 90.9C188.811 90.2627 189.89 89.6743 190.674 89.2821C191.508 88.8898 191.998 88.6937 191.998 88.7428Z" fill="#263238"/>
<path d="M183.025 93.0078C182.976 93.0568 181.799 90.8015 180.426 88.0559C179.053 85.2612 177.975 83.0059 178.073 82.9568C178.122 82.9078 179.298 85.1632 180.671 87.9088C182.044 90.7034 183.123 93.0078 183.025 93.0078Z" fill="#263238"/>
<path d="M178.762 106.099C178.762 106.099 178.321 105.755 177.683 105.118C177.046 104.481 176.212 103.598 175.33 102.519C174.447 101.49 173.712 100.46 173.173 99.7248C172.633 98.9893 172.339 98.499 172.388 98.499C172.437 98.499 172.78 98.8913 173.32 99.6267C173.859 100.313 174.643 101.294 175.526 102.323C176.408 103.353 177.242 104.284 177.83 104.971C178.419 105.657 178.762 106.05 178.762 106.099Z" fill="#263238"/>
<path d="M187.732 103.99C187.732 104.039 187.242 104.186 186.457 104.383C185.673 104.579 184.545 104.824 183.319 105.118C182.094 105.412 180.966 105.608 180.132 105.804C179.299 106.001 178.809 106.05 178.809 106.001C178.809 105.952 179.299 105.804 180.083 105.608C180.868 105.412 181.995 105.167 183.221 104.873C184.447 104.579 185.575 104.383 186.408 104.186C187.242 103.99 187.732 103.941 187.732 103.99Z" fill="#263238"/>
<path d="M185.381 116.003C185.381 116.052 184.744 116.199 183.714 116.444C182.685 116.689 181.263 116.983 179.645 117.327C178.076 117.67 176.605 117.964 175.575 118.16C174.546 118.356 173.859 118.454 173.859 118.405C173.859 118.356 174.497 118.209 175.526 117.964C176.556 117.719 177.978 117.425 179.596 117.081C181.165 116.738 182.636 116.444 183.665 116.248C184.744 116.052 185.381 115.954 185.381 116.003Z" fill="#263238"/>
<path d="M174.152 118.308C174.152 118.308 174.004 118.21 173.759 117.965C173.514 117.72 173.22 117.425 172.828 116.984C172.043 116.151 171.014 114.974 169.935 113.601C168.856 112.228 167.925 110.954 167.238 110.022C166.895 109.532 166.65 109.189 166.503 108.894C166.307 108.649 166.258 108.453 166.258 108.453C166.258 108.453 166.405 108.6 166.601 108.845C166.846 109.14 167.091 109.483 167.435 109.924C168.121 110.856 169.102 112.081 170.18 113.454C171.259 114.827 172.288 116.004 173.024 116.886C173.71 117.72 174.201 118.259 174.152 118.308Z" fill="#263238"/>
<path d="M169.248 151.108C160.716 144.244 159.491 132.526 160.569 122.132C160.765 120.416 160.667 118.553 161.599 117.082C162.531 115.611 164.541 114.679 166.061 115.562C167.335 116.248 167.777 117.817 168.414 119.092C169.248 120.808 170.62 122.279 172.238 123.26C173.317 123.897 174.641 124.338 175.768 123.848C177.337 123.112 177.631 121.053 177.73 119.337C177.926 116.101 178.122 112.865 178.318 109.678C178.416 107.962 178.563 106.197 179.2 104.579C179.838 102.961 181.162 101.54 182.829 101.196C184.496 100.853 186.457 101.932 186.702 103.648C186.8 104.383 186.604 105.07 186.604 105.805C186.604 106.541 186.898 107.325 187.535 107.57C188.222 107.815 188.957 107.374 189.497 106.884C191.409 105.266 192.781 103.109 194.056 100.951C195.331 98.794 196.606 96.5877 198.371 94.7736C200.136 92.9595 202.489 91.6357 204.941 91.6357C207.441 91.6848 209.942 93.4008 210.432 95.8523C210.873 98.3527 209.304 100.706 207.637 102.569C205.137 105.364 202.244 107.766 199.057 109.678C198.469 110.022 197.881 110.414 197.635 111.051C197.194 112.179 198.175 113.405 199.302 113.846C200.577 114.385 201.95 114.336 203.323 114.581C204.647 114.827 206.068 115.513 206.51 116.837C207.098 118.651 205.48 120.416 203.96 121.544C200.871 123.799 197.439 125.466 193.762 126.544C192.438 126.937 191.065 127.231 189.987 128.064C188.908 128.898 188.173 130.418 188.712 131.644C189.251 132.918 190.82 133.409 192.144 133.261C193.517 133.114 194.743 132.477 196.017 132.085C198.469 131.349 201.509 131.742 202.881 133.899C203.813 135.321 203.764 137.184 203.127 138.802C202.489 140.371 201.411 141.694 200.234 142.92C196.115 147.137 190.967 150.373 185.329 151.942C179.74 153.363 174.592 153.511 169.248 151.108Z" fill="#2AC6FA"/>
<g opacity="0.1">
<path d="M169.248 151.108C160.716 144.244 159.491 132.526 160.569 122.132C160.765 120.416 160.667 118.553 161.599 117.082C162.531 115.611 164.541 114.679 166.061 115.562C167.335 116.248 167.777 117.817 168.414 119.092C169.248 120.808 170.62 122.279 172.238 123.26C173.317 123.897 174.641 124.338 175.768 123.848C177.337 123.112 177.631 121.053 177.73 119.337C177.926 116.101 178.122 112.865 178.318 109.678C178.416 107.962 178.563 106.197 179.2 104.579C179.838 102.961 181.162 101.54 182.829 101.196C184.496 100.853 186.457 101.932 186.702 103.648C186.8 104.383 186.604 105.07 186.604 105.805C186.604 106.541 186.898 107.325 187.535 107.57C188.222 107.815 188.957 107.374 189.497 106.884C191.409 105.266 192.781 103.109 194.056 100.951C195.331 98.794 196.606 96.5877 198.371 94.7736C200.136 92.9595 202.489 91.6357 204.941 91.6357C207.441 91.6848 209.942 93.4008 210.432 95.8523C210.873 98.3527 209.304 100.706 207.637 102.569C205.137 105.364 202.244 107.766 199.057 109.678C198.469 110.022 197.881 110.414 197.635 111.051C197.194 112.179 198.175 113.405 199.302 113.846C200.577 114.385 201.95 114.336 203.323 114.581C204.647 114.827 206.068 115.513 206.51 116.837C207.098 118.651 205.48 120.416 203.96 121.544C200.871 123.799 197.439 125.466 193.762 126.544C192.438 126.937 191.065 127.231 189.987 128.064C188.908 128.898 188.173 130.418 188.712 131.644C189.251 132.918 190.82 133.409 192.144 133.261C193.517 133.114 194.743 132.477 196.017 132.085C198.469 131.349 201.509 131.742 202.881 133.899C203.813 135.321 203.764 137.184 203.127 138.802C202.489 140.371 201.411 141.694 200.234 142.92C196.115 147.137 190.967 150.373 185.329 151.942C179.74 153.363 174.592 153.511 169.248 151.108Z" fill="black"/>
</g>
<path d="M168.562 158.855C169.2 154.736 170.475 149.932 172.387 144.784C174.299 139.635 176.848 134.144 179.692 128.506C180.428 127.084 181.114 125.711 181.8 124.338C182.487 122.966 183.222 121.642 183.958 120.318C185.478 117.768 187.145 115.366 188.763 113.209C190.38 111.002 192.047 108.992 193.567 107.129C195.136 105.266 196.607 103.55 197.98 102.03C200.775 98.9903 203.373 96.833 205.187 95.4112C206.07 94.6758 206.805 94.1855 207.296 93.7932C207.541 93.6461 207.737 93.4991 207.884 93.401C207.737 93.4991 207.59 93.6461 207.345 93.8423C206.854 94.2345 206.168 94.7738 205.285 95.4602C203.52 96.9311 200.971 99.0884 198.176 102.128C196.754 103.648 195.332 105.364 193.763 107.227C192.244 109.09 190.626 111.15 188.959 113.307C187.341 115.513 185.674 117.867 184.203 120.416C183.467 121.691 182.732 123.015 182.046 124.387C181.359 125.76 180.624 127.133 179.937 128.555C177.094 134.193 174.544 139.635 172.632 144.784C170.72 149.932 169.445 154.687 168.759 158.806" fill="#263238"/>
<path d="M184.054 120.318C184.054 120.318 184.005 120.073 183.956 119.583C183.907 119.092 183.858 118.406 183.76 117.523C183.613 115.807 183.564 113.356 183.466 110.708C183.367 108.061 183.269 105.658 183.073 103.893C182.975 103.011 182.926 102.324 182.877 101.834C182.828 101.344 182.828 101.099 182.828 101.099C182.828 101.099 182.926 101.344 182.975 101.834C183.073 102.324 183.171 103.011 183.269 103.893C183.466 105.609 183.662 108.012 183.76 110.708C183.858 113.307 183.907 115.709 183.956 117.523C184.005 118.357 184.005 119.043 184.054 119.583C184.103 120.073 184.103 120.318 184.054 120.318Z" fill="#263238"/>
<path d="M206.608 117.72C206.608 117.72 206.265 117.769 205.726 117.769C205.137 117.769 204.304 117.769 203.274 117.818C201.215 117.916 198.371 118.112 195.282 118.455C192.144 118.847 189.35 119.288 187.34 119.681C186.31 119.877 185.526 120.024 184.937 120.171C184.398 120.269 184.055 120.367 184.055 120.318C184.055 120.318 184.349 120.22 184.888 120.024C185.428 119.877 186.261 119.681 187.242 119.436C189.252 118.994 192.046 118.504 195.184 118.112C198.322 117.72 201.166 117.572 203.225 117.523C204.255 117.523 205.088 117.523 205.677 117.572C206.314 117.671 206.608 117.671 206.608 117.72Z" fill="#263238"/>
<path d="M172.68 144.391C172.68 144.391 172.631 144.293 172.532 144.097C172.434 143.852 172.336 143.607 172.189 143.263C171.895 142.528 171.552 141.498 171.062 140.175C170.179 137.576 169.051 133.899 167.826 129.829C166.649 125.76 165.521 122.083 164.688 119.484C164.296 118.21 163.952 117.131 163.658 116.346C163.56 116.003 163.462 115.709 163.413 115.513C163.364 115.317 163.315 115.219 163.364 115.219C163.364 115.219 163.413 115.317 163.511 115.513C163.609 115.758 163.707 116.003 163.854 116.346C164.149 117.082 164.492 118.111 164.982 119.435C165.865 122.034 166.992 125.711 168.218 129.78C169.395 133.85 170.522 137.527 171.356 140.126C171.748 141.4 172.091 142.479 172.385 143.263C172.483 143.607 172.582 143.901 172.631 144.097C172.68 144.293 172.68 144.391 172.68 144.391Z" fill="#263238"/>
<path d="M202.932 136.89C202.932 136.89 202.834 136.939 202.638 136.988C202.393 137.037 202.099 137.135 201.756 137.233C200.922 137.429 199.844 137.723 198.52 138.017C195.774 138.704 192.048 139.684 187.88 140.763C183.713 141.842 179.938 142.822 177.192 143.46C175.819 143.754 174.692 143.999 173.907 144.146C173.564 144.195 173.27 144.293 173.025 144.293C172.829 144.342 172.73 144.342 172.73 144.342C172.73 144.342 172.829 144.293 173.025 144.244C173.27 144.195 173.564 144.097 173.907 143.999C174.741 143.803 175.819 143.509 177.143 143.214C179.889 142.528 183.664 141.547 187.782 140.469C191.95 139.39 195.725 138.41 198.471 137.772C199.844 137.478 200.971 137.233 201.756 137.086C202.099 137.037 202.393 136.939 202.638 136.939C202.785 136.89 202.883 136.89 202.932 136.89Z" fill="#263238"/>
<path d="M171.208 15.7881H52.3125V178.712H171.208V15.7881Z" fill="#455A64"/>
<path d="M166.549 169.004H144.486H62.2148V22.3574H166.549V150.765V169.004Z" fill="#E0E0E0"/>
<path d="M164.885 166.307H143.067H61.5312V20.4453H164.885V148.166V166.307Z" fill="#EBEBEB"/>
<path d="M153.755 154.933L141.89 164.641H59.5703V20.7891H163.904V146.745L153.755 154.933Z" fill="#FAFAFA"/>
<path d="M153.756 154.932C153.756 154.932 153.952 154.736 154.393 154.393C154.834 154.05 155.472 153.511 156.305 152.824C158.021 151.451 160.522 149.392 163.856 146.695V146.745C163.856 126.054 163.807 80.0649 163.758 20.7887L163.856 20.8867C132.82 20.8867 97.6173 20.8867 60.4532 20.8867C60.1591 20.8867 59.8159 20.8867 59.5217 20.8867L59.6688 20.7397C59.6688 74.8188 59.6688 124.681 59.6197 164.591L59.5217 164.493C97.078 164.542 125.907 164.542 141.793 164.542H141.744C145.715 161.306 148.706 158.904 150.667 157.286C151.647 156.501 152.383 155.864 152.922 155.472C153.511 155.128 153.756 154.932 153.756 154.932C153.756 154.932 153.511 155.128 153.02 155.57C152.53 155.962 151.794 156.599 150.814 157.384C148.853 159.002 145.862 161.453 141.891 164.689C126.005 164.689 97.1761 164.738 59.6197 164.738H59.5217V164.64C59.5217 124.779 59.5217 74.8678 59.4727 20.7887V20.6416H59.6197C59.9139 20.6416 60.2081 20.6416 60.5513 20.6416C97.7154 20.6416 132.869 20.6416 163.954 20.6416H164.052V20.7397C164.003 80.0159 164.003 126.005 163.954 146.695C160.62 149.392 158.07 151.451 156.403 152.824C155.57 153.511 154.932 154.001 154.491 154.344C154.001 154.785 153.756 154.932 153.756 154.932Z" fill="#263238"/>
<path d="M133.115 25.397H90.4102V17.9936C90.4102 13.9732 93.6461 10.7373 97.6665 10.7373H126.201C130.026 10.7373 133.164 13.8261 133.164 17.6994V25.397H133.115Z" fill="#2AC6FA"/>
<path d="M100.901 10.7374L99.332 2.84375H123.896L122.523 10.7374H100.901Z" fill="#2AC6FA"/>
<path d="M88.0563 61.2868H70.5039V43.7344H88.0563V61.2868ZM70.9942 60.7965H87.566V44.2247H70.9942V60.7965Z" fill="#2AC6FA"/>
<path d="M150.177 47.9508C150.177 47.9998 137.969 48.0979 122.868 48.0979C107.767 48.0979 95.5586 48.0489 95.5586 47.9508C95.5586 47.9018 107.767 47.8037 122.868 47.8037C137.92 47.8527 150.177 47.9018 150.177 47.9508Z" fill="#263238"/>
<path d="M150.177 51.6285C150.177 51.6776 137.969 51.7756 122.868 51.7756C107.767 51.7756 95.5586 51.7266 95.5586 51.6285C95.5586 51.5795 107.767 51.4814 122.868 51.4814C137.92 51.4814 150.177 51.5305 150.177 51.6285Z" fill="#263238"/>
<path d="M150.177 55.2565C150.177 55.3055 137.969 55.4036 122.868 55.4036C107.767 55.4036 95.5586 55.3545 95.5586 55.2565C95.5586 55.2074 107.767 55.1094 122.868 55.1094C137.92 55.1094 150.177 55.2074 150.177 55.2565Z" fill="#263238"/>
<path d="M150.177 58.9332C150.177 58.9823 137.969 59.0803 122.868 59.0803C107.767 59.0803 95.5586 59.0313 95.5586 58.9332C95.5586 58.8352 107.767 58.7861 122.868 58.7861C137.92 58.7861 150.177 58.8352 150.177 58.9332Z" fill="#263238"/>
<path d="M88.0563 88.3503H70.5039V70.7979H88.0563V88.3503ZM70.9942 87.86H87.566V71.2881H70.9942V87.86Z" fill="#2AC6FA"/>
<path d="M73.9844 79.9666L76.3378 77.417L80.2111 80.5549L89.1344 71.9258L91.2426 74.4263L80.064 85.4578L73.9844 79.9666Z" fill="#2AC6FA"/>
<path d="M150.177 75.0143C150.177 75.0633 137.969 75.1614 122.868 75.1614C107.767 75.1614 95.5586 75.1123 95.5586 75.0143C95.5586 74.9162 107.767 74.8672 122.868 74.8672C137.92 74.9162 150.177 74.9652 150.177 75.0143Z" fill="#263238"/>
<path d="M150.177 78.692C150.177 78.741 137.969 78.8391 122.868 78.8391C107.767 78.8391 95.5586 78.7901 95.5586 78.692C95.5586 78.594 107.767 78.5449 122.868 78.5449C137.92 78.5449 150.177 78.643 150.177 78.692Z" fill="#263238"/>
<path d="M150.177 82.3199C150.177 82.369 137.969 82.467 122.868 82.467C107.767 82.467 95.5586 82.418 95.5586 82.3199C95.5586 82.2219 107.767 82.1729 122.868 82.1729C137.92 82.2219 150.177 82.2709 150.177 82.3199Z" fill="#263238"/>
<path d="M150.177 85.9967C150.177 86.0457 137.969 86.1438 122.868 86.1438C107.767 86.1438 95.5586 86.0947 95.5586 85.9967C95.5586 85.9477 107.767 85.8496 122.868 85.8496C137.92 85.8496 150.177 85.8986 150.177 85.9967Z" fill="#263238"/>
<path d="M88.0563 114.581H70.5039V97.0283H88.0563V114.581ZM70.9942 114.09H87.566V97.5186H70.9942V114.09Z" fill="#2AC6FA"/>
<path d="M73.9844 106.148L76.3378 103.648L80.2111 106.737L89.1344 98.1074L91.2426 100.608L80.064 111.688L73.9844 106.148Z" fill="#2AC6FA"/>
<path d="M150.177 101.245C150.177 101.294 137.969 101.392 122.868 101.392C107.767 101.392 95.5586 101.343 95.5586 101.245C95.5586 101.147 107.767 101.098 122.868 101.098C137.92 101.098 150.177 101.196 150.177 101.245Z" fill="#263238"/>
<path d="M150.177 104.873C150.177 104.922 137.969 105.02 122.868 105.02C107.767 105.02 95.5586 104.971 95.5586 104.873C95.5586 104.775 107.767 104.726 122.868 104.726C137.92 104.775 150.177 104.824 150.177 104.873Z" fill="#263238"/>
<path d="M150.177 108.55C150.177 108.599 137.969 108.697 122.868 108.697C107.767 108.697 95.5586 108.648 95.5586 108.55C95.5586 108.501 107.767 108.403 122.868 108.403C137.92 108.403 150.177 108.452 150.177 108.55Z" fill="#263238"/>
<path d="M150.177 112.178C150.177 112.227 137.969 112.325 122.868 112.325C107.767 112.325 95.5586 112.276 95.5586 112.178C95.5586 112.129 107.767 112.031 122.868 112.031C137.92 112.08 150.177 112.129 150.177 112.178Z" fill="#263238"/>
<path d="M88.0563 139.881H70.5039V122.328H88.0563V139.881ZM70.9942 139.39H87.566V122.818H70.9942V139.39Z" fill="#2AC6FA"/>
<path d="M73.9844 131.448L76.3378 128.948L80.2111 132.036L89.1344 123.407L91.2426 125.908L80.064 136.988L73.9844 131.448Z" fill="#2AC6FA"/>
<path d="M150.177 126.545C150.177 126.594 137.969 126.692 122.868 126.692C107.767 126.692 95.5586 126.643 95.5586 126.545C95.5586 126.446 107.767 126.397 122.868 126.397C137.92 126.397 150.177 126.496 150.177 126.545Z" fill="#263238"/>
<path d="M150.177 130.172C150.177 130.222 137.969 130.32 122.868 130.32C107.767 130.32 95.5586 130.271 95.5586 130.172C95.5586 130.074 107.767 130.025 122.868 130.025C137.92 130.074 150.177 130.123 150.177 130.172Z" fill="#263238"/>
<path d="M150.177 133.85C150.177 133.899 137.969 133.997 122.868 133.997C107.767 133.997 95.5586 133.948 95.5586 133.85C95.5586 133.752 107.767 133.703 122.868 133.703C137.92 133.703 150.177 133.801 150.177 133.85Z" fill="#263238"/>
<path d="M150.177 137.478C150.177 137.527 137.969 137.625 122.868 137.625C107.767 137.625 95.5586 137.576 95.5586 137.478C95.5586 137.38 107.767 137.331 122.868 137.331C137.92 137.38 150.177 137.429 150.177 137.478Z" fill="#263238"/>
<path d="M145.123 140.812L133.699 164.493H141.887L145.123 140.812Z" fill="#E0E0E0"/>
<path d="M141.891 164.64L145.127 140.959L163.905 146.744L141.891 164.64Z" fill="#FAFAFA"/>
<path d="M141.891 164.64C142.332 164.248 144.391 162.581 148.215 159.443C152.138 156.256 157.58 151.745 163.856 146.646L163.905 146.842C161.6 146.107 159.149 145.371 156.648 144.587C152.579 143.312 148.706 142.136 145.127 141.008L145.274 140.91C144.293 147.774 143.46 153.657 142.871 157.874C142.234 161.992 141.94 164.101 141.891 164.64C141.891 164.64 141.891 164.591 141.891 164.542C141.891 164.444 141.891 164.346 141.94 164.199C141.989 163.904 142.038 163.463 142.087 162.924C142.234 161.796 142.479 160.129 142.724 158.021C143.312 153.804 144.097 147.872 145.028 140.91V140.763L145.176 140.812C148.755 141.89 152.628 143.116 156.697 144.342C159.198 145.126 161.6 145.862 163.954 146.597L164.199 146.646L164.003 146.793C157.678 151.892 152.138 156.354 148.166 159.541C146.205 161.11 144.636 162.385 143.558 163.267C143.018 163.708 142.626 164.002 142.332 164.248C142.185 164.346 142.087 164.444 142.038 164.493C141.891 164.64 141.891 164.64 141.891 164.64Z" fill="#263238"/>
<g opacity="0.3">
<path d="M122.228 2.84375L120.855 10.7374H122.522L123.895 2.84375H121.738" fill="black"/>
</g>
<path d="M50.2045 86.0939C52.705 86.29 54.8623 84.3779 54.9604 81.8774C55.0584 79.475 55.1565 77.0725 55.1565 77.0725C55.1565 77.0725 58.7846 76.7293 59.0788 73.1502C59.3239 69.5711 59.2259 61.2361 59.2259 61.2361C55.1565 59.1769 50.3026 59.5201 46.5273 62.0696L46.7725 74.7191V81.5342C46.7725 83.7895 47.9492 85.9468 50.2045 86.0939Z" fill="#FFBE9D"/>
<path d="M55.4506 68.6897C54.8132 67.9052 53.8326 67.611 52.9991 68.1503C52.1656 68.6897 51.8714 69.8664 52.3127 70.7489C52.6069 71.3863 53.3423 71.9256 54.0778 72.0727C54.7642 72.2198 55.2545 72.8571 55.1564 73.5435C55.0583 74.4261 54.568 75.3086 53.8816 76.044C52.803 77.2207 51.2831 77.8581 49.7142 78.0052C48.1943 78.2013 46.4292 77.8581 45.5467 76.5833C44.9093 75.6518 44.8603 74.4751 44.8112 73.3474C44.7622 70.6999 44.7132 68.0523 44.6642 65.4047C44.6642 64.4241 44.6151 63.4926 44.8603 62.561C45.0564 61.6295 45.5467 60.7469 46.3802 60.2076C47.2627 59.6193 48.3413 59.5702 49.371 59.2761C50.5967 58.8838 51.6753 58.0503 52.852 57.462C54.0287 56.8736 55.4506 56.5304 56.6273 57.1188C57.4608 57.56 58.0491 58.3935 58.8336 58.8348C60.0103 59.5212 61.5792 59.3251 62.1676 61.0411C62.3637 61.6295 62.3637 62.2668 62.1676 62.8552C61.3831 65.2086 58.4904 66.1401 56.4312 65.1105C56.3821 65.5028 56.7744 66.3853 56.3821 67.611C56.137 68.1013 56.0879 68.6897 55.4506 68.6897Z" fill="#263238"/>
<path d="M45.4993 61.2859C45.9896 60.1092 46.5289 58.9325 46.676 57.6577C46.8231 56.383 46.4799 55.0102 45.5483 54.1767C44.9109 53.5883 44.0284 53.2941 43.1949 53.3432C41.5279 53.3922 40.008 54.6179 39.5667 56.1869C39.1255 57.7558 39.7138 59.5699 41.0376 60.5995C42.3124 61.6291 44.1755 61.8742 45.6954 61.1878" fill="#263238"/>
<path d="M46.2356 60.0109C46.2846 60.0109 46.2355 60.6483 45.6962 61.1876C45.1569 61.7269 44.5195 61.776 44.5195 61.6779C44.5195 61.6289 45.0589 61.4818 45.5001 60.9915C45.9904 60.5012 46.1375 59.9619 46.2356 60.0109Z" fill="#2AC6FA"/>
<path d="M45.0595 60.8445C45.0595 60.8445 44.7653 61.1877 44.0789 61.58C43.7357 61.7761 43.2945 61.9232 42.8042 61.9232C42.3139 61.9232 41.6765 61.7761 41.2843 61.2368C40.9411 60.7465 40.892 60.1091 41.0391 59.6188C41.1372 59.1285 41.4314 58.7363 41.6275 58.4421C42.1178 57.8537 42.461 57.5596 42.461 57.5596C42.51 57.6086 42.1668 57.9518 41.7746 58.5402C41.5784 58.8343 41.3333 59.2266 41.2352 59.6678C41.1372 60.1091 41.1862 60.6484 41.4804 61.0897C41.7746 61.5309 42.3139 61.678 42.7551 61.678C43.2454 61.678 43.6377 61.5309 43.9809 61.3838C44.6182 61.0897 45.0105 60.8445 45.0595 60.8445Z" fill="#263238"/>
<path d="M38.9294 64.9145C38.9294 64.9145 39.0274 65.0616 39.1255 65.3068C39.2236 65.5519 39.3707 65.9442 39.6648 66.3364C39.959 66.7286 40.4493 67.1209 41.0867 66.9738C41.675 66.8757 42.2143 66.2874 42.4595 65.601C42.7046 64.9145 42.7046 64.1791 42.8517 63.4927C42.9498 62.8553 43.1949 62.2179 43.5381 61.8257C43.8813 61.4335 44.3226 61.2864 44.5677 61.2374C44.8619 61.1883 45.009 61.2864 45.009 61.2864C45.009 61.3354 44.8619 61.2864 44.5677 61.3354C44.3226 61.3845 43.9304 61.5806 43.6362 61.9728C43.342 62.316 43.1459 62.9044 43.0478 63.5417C42.9498 64.1791 42.9498 64.9145 42.7046 65.699C42.4595 66.4345 41.8711 67.0718 41.1357 67.2189C40.7925 67.2679 40.4493 67.1699 40.1551 67.0228C39.8609 66.8757 39.6648 66.6306 39.5177 66.4345C39.2236 65.9932 39.1255 65.601 39.0274 65.3558C38.9294 65.1107 38.8804 64.9636 38.9294 64.9145Z" fill="#263238"/>
<path d="M37.1656 95.1652C37.1656 95.1652 35.3516 108.599 37.1656 110.315C38.9797 112.031 40.7448 111.443 40.7448 111.443L44.2258 108.501L44.9122 95.1162H37.1656V95.1652Z" fill="#FFBE9D"/>
<path d="M75.1133 57.4617L77.4667 54.9122L81.34 58.05L90.2633 49.4209L92.3715 51.9214L81.1929 62.9529L75.1133 57.4617Z" fill="#2AC6FA"/>
<path d="M86.0972 58.1478L82.7142 60.3051C82.5671 58.9813 81.5375 57.6575 81.5865 58.2949C81.6356 58.9813 81.5865 62.4624 81.5865 62.4624L75.556 75.1609C74.7225 77.1711 73.0555 78.4459 71.8298 78.74L66.1914 80.407L68.3977 87.8595L76.2424 85.2609C78.2526 84.5745 79.8705 83.0056 80.5079 80.9464L85.9011 64.5216C85.9011 64.5216 86.5385 62.6585 86.7836 61.2857C87.0288 59.9129 86.0972 58.1478 86.0972 58.1478Z" fill="#FFBE9D"/>
<path d="M58.3458 196.949L58.2477 193.174L51.1875 193.272L51.2365 198.763H51.6778C53.639 198.861 61.5817 199.008 62.8564 198.616C64.3763 198.224 58.3458 196.949 58.3458 196.949Z" fill="#2AC6FA"/>
<g opacity="0.5">
<path d="M53.8368 198.715C53.7388 198.126 53.3956 197.587 52.9053 197.244C52.415 196.901 51.8266 196.705 51.2383 196.754L51.2873 198.715H53.8368Z" fill="white"/>
</g>
<g opacity="0.4">
<path d="M61.2871 197.685C61.2871 197.685 63.3953 198.273 63.1502 198.616C62.9051 198.959 54.8643 199.106 51.2852 198.812V198.665L60.6987 198.616C60.6987 198.616 60.8949 197.685 61.2871 197.685Z" fill="white"/>
</g>
<path d="M51.1875 198.665C51.1875 198.665 51.2365 198.665 51.2856 198.665C51.3836 198.665 51.4817 198.665 51.6288 198.665C51.972 198.665 52.4132 198.665 52.9035 198.714C53.9822 198.714 55.5021 198.763 57.12 198.714C58.787 198.714 60.2579 198.616 61.3365 198.567C61.8268 198.518 62.2681 198.518 62.6113 198.518C62.7584 198.518 62.8564 198.518 62.9545 198.469C63.0525 198.469 63.0526 198.469 63.0526 198.469C63.0526 198.469 63.0035 198.469 62.9545 198.469C62.8564 198.469 62.7584 198.469 62.6113 198.469C62.2681 198.469 61.8268 198.518 61.3365 198.518C60.2579 198.567 58.738 198.616 57.12 198.616C55.453 198.616 53.9822 198.616 52.9035 198.616C52.4132 198.616 51.972 198.616 51.6288 198.616C51.4817 198.616 51.3836 198.616 51.2856 198.616C51.2365 198.665 51.1875 198.665 51.1875 198.665Z" fill="#263238"/>
<path d="M60.6993 198.715C60.7483 198.715 60.7483 198.42 60.9445 198.077C61.1406 197.783 61.3857 197.587 61.3857 197.587C61.3857 197.587 61.0915 197.685 60.8954 198.028C60.6503 198.371 60.6993 198.715 60.6993 198.715Z" fill="#263238"/>
<path d="M58.5898 197.684C58.5898 197.684 58.6879 197.586 58.786 197.39C58.884 197.243 58.933 197.096 58.933 197.096C58.933 197.096 58.835 197.194 58.7369 197.39C58.6389 197.537 58.5898 197.684 58.5898 197.684Z" fill="#263238"/>
<path d="M58.0039 197.39C58.0039 197.39 58.151 197.341 58.2491 197.243C58.3471 197.145 58.4452 197.047 58.4452 196.998C58.4452 196.998 58.2981 197.047 58.2 197.145C58.102 197.243 58.0039 197.39 58.0039 197.39Z" fill="#263238"/>
<path d="M57.6602 196.753C57.6602 196.753 57.8072 196.802 58.0524 196.802C58.2975 196.802 58.4446 196.802 58.4446 196.753C58.4446 196.753 58.2975 196.704 58.0524 196.704C57.8072 196.704 57.6602 196.704 57.6602 196.753Z" fill="#263238"/>
<path d="M57.5117 196.262C57.5117 196.262 57.7078 196.361 57.904 196.361C58.1491 196.361 58.3452 196.312 58.3452 196.312C58.3452 196.312 58.1491 196.312 57.904 196.312C57.7078 196.262 57.5117 196.213 57.5117 196.262Z" fill="#263238"/>
<path d="M58.8359 197.047C58.8359 197.047 59.0321 197.096 59.2772 197.047C59.4243 197.047 59.5714 196.998 59.7675 196.949C59.8655 196.9 59.9636 196.9 60.0617 196.851C60.1107 196.802 60.1597 196.802 60.1597 196.704C60.1597 196.655 60.1597 196.557 60.1107 196.508C59.6694 196.312 59.2282 196.557 59.0811 196.753C58.983 196.851 58.934 196.998 58.934 197.047C58.934 197.145 58.934 197.145 58.934 197.145C58.934 197.145 58.983 196.949 59.1301 196.753C59.2282 196.655 59.3262 196.557 59.5223 196.508C59.6694 196.459 59.9146 196.459 60.0617 196.557C60.1107 196.606 60.1107 196.704 60.0126 196.753C59.9146 196.802 59.8655 196.851 59.7675 196.851C59.6204 196.9 59.4243 196.949 59.3262 196.998C58.983 197.047 58.8359 197.047 58.8359 197.047Z" fill="#263238"/>
<path d="M58.9343 197.096C58.9343 197.096 58.9833 196.998 58.9833 196.802C58.9833 196.704 58.9343 196.606 58.8362 196.459C58.7381 196.361 58.6401 196.214 58.444 196.214C58.3459 196.214 58.2969 196.361 58.2969 196.41C58.2969 196.508 58.3459 196.557 58.3949 196.606C58.444 196.704 58.542 196.802 58.5911 196.9C58.7872 197.047 58.8852 197.096 58.9343 197.096C58.8852 197.096 58.7872 196.998 58.6891 196.851C58.6401 196.802 58.542 196.704 58.493 196.606C58.444 196.508 58.3949 196.361 58.493 196.312C58.5911 196.312 58.7381 196.41 58.7872 196.508C58.8362 196.606 58.8852 196.704 58.9343 196.802C58.9833 196.949 58.9343 197.096 58.9343 197.096Z" fill="#263238"/>
<path d="M51.2852 196.704C51.2852 196.704 51.4813 196.704 51.8245 196.704C52.1186 196.753 52.5599 196.851 52.9521 197.145C53.3444 197.439 53.5895 197.831 53.6876 198.125C53.7856 198.42 53.8347 198.616 53.8347 198.616C53.8347 198.616 53.8347 198.567 53.8347 198.469C53.8347 198.371 53.7856 198.223 53.7366 198.076C53.6386 197.782 53.3934 197.341 53.0012 197.047C52.6089 196.753 52.1186 196.605 51.8245 196.605C51.6774 196.605 51.5303 196.605 51.4322 196.605C51.3342 196.704 51.2852 196.704 51.2852 196.704Z" fill="#263238"/>
<path d="M51.9709 193.762C51.9709 193.762 51.9219 194.399 51.9219 195.233C51.9219 196.017 51.9219 196.703 51.9709 196.703C51.9709 196.703 52.0199 196.066 52.0199 195.233C52.0199 194.448 52.0199 193.762 51.9709 193.762Z" fill="#263238"/>
<path d="M54.7188 198.028C54.7188 198.028 55.16 198.126 55.7484 198.126C56.3367 198.126 56.778 198.028 56.778 198.028C56.778 197.979 56.3367 198.028 55.7484 198.028C55.209 198.028 54.7188 197.979 54.7188 198.028Z" fill="#263238"/>
<path d="M53.3438 198.028C53.3438 198.028 53.3928 198.126 53.4418 198.224C53.4908 198.322 53.5399 198.421 53.5399 198.421C53.5399 198.421 53.5889 198.323 53.5399 198.175C53.4418 198.077 53.3438 198.028 53.3438 198.028Z" fill="#263238"/>
<path d="M52.8047 197.391C52.8047 197.391 52.8537 197.489 52.9027 197.538C53.0008 197.587 53.0498 197.636 53.0498 197.636C53.0498 197.636 53.0008 197.538 52.9518 197.489C52.9027 197.44 52.8537 197.391 52.8047 197.391Z" fill="#263238"/>
<path d="M52.0703 197.096C52.0703 197.096 52.1684 197.096 52.2664 197.145C52.3645 197.194 52.4625 197.243 52.4625 197.194C52.4625 197.194 52.4135 197.096 52.2664 197.047C52.1684 197.047 52.0703 197.096 52.0703 197.096Z" fill="#263238"/>
<path d="M51.5312 196.998C51.5312 196.998 51.5803 197.047 51.6293 197.096C51.6783 197.096 51.7274 197.096 51.7274 197.096C51.7274 197.096 51.6783 197.047 51.6293 196.998C51.5803 196.949 51.5312 196.949 51.5312 196.998Z" fill="#263238"/>
<path d="M33.4879 195.773L35.8903 192.88L30.4481 188.369L26.918 192.586L27.2121 192.88C28.634 194.204 34.5665 199.548 35.7922 200.087C37.2141 200.626 33.4879 195.773 33.4879 195.773Z" fill="#2AC6FA"/>
<g opacity="0.5">
<path d="M28.9278 194.155C29.2219 193.615 29.32 193.027 29.2219 192.439C29.0748 191.85 28.7807 191.311 28.2904 190.968L27.0156 192.488L28.9278 194.155Z" fill="white"/>
</g>
<g opacity="0.4">
<path d="M35.2529 198.224C35.2529 198.224 36.4786 200.038 36.0374 200.136C35.5961 200.234 29.4185 195.086 26.918 192.585L27.016 192.487L34.1743 198.567C34.1743 198.518 34.9097 197.979 35.2529 198.224Z" fill="white"/>
</g>
<path d="M26.918 192.34C26.918 192.34 26.967 192.389 27.016 192.438C27.1141 192.487 27.1631 192.585 27.2612 192.683C27.5063 192.928 27.8495 193.222 28.1927 193.566C28.9772 194.301 30.1049 195.282 31.3796 196.311C32.6544 197.39 33.8311 198.321 34.6646 198.959C35.0568 199.253 35.4 199.547 35.6942 199.743C35.7922 199.841 35.8903 199.89 35.9884 199.939C36.0374 199.988 36.0864 199.988 36.0864 199.988C36.0864 199.988 36.0374 199.939 35.9884 199.89C35.8903 199.841 35.8413 199.743 35.6942 199.694C35.4 199.498 35.1058 199.204 34.7136 198.91C33.8801 198.223 32.7034 197.292 31.4286 196.213C30.1539 195.135 29.0262 194.154 28.1927 193.468C27.8005 193.124 27.5063 192.83 27.2121 192.634C27.1141 192.536 27.016 192.487 26.967 192.389L26.918 192.34Z" fill="#263238"/>
<path d="M34.1246 198.616C34.1246 198.616 34.3697 198.42 34.7129 198.322C35.0561 198.224 35.3503 198.273 35.3503 198.224C35.3503 198.224 35.0561 198.126 34.6639 198.224C34.2717 198.322 34.0756 198.567 34.1246 198.616Z" fill="#263238"/>
<path d="M33.1953 196.459C33.1953 196.459 33.3424 196.459 33.5385 196.41C33.7346 196.361 33.8817 196.263 33.8327 196.263C33.8327 196.263 33.6856 196.263 33.4895 196.312C33.3424 196.361 33.1953 196.41 33.1953 196.459Z" fill="#263238"/>
<path d="M32.9492 195.87C32.9492 195.87 33.0963 195.919 33.2434 195.919C33.3905 195.919 33.5376 195.87 33.5376 195.87C33.5376 195.87 33.3905 195.821 33.2434 195.821C33.0963 195.821 32.9492 195.821 32.9492 195.87Z" fill="#263238"/>
<path d="M33.0938 195.136C33.0938 195.136 33.1918 195.283 33.3389 195.43C33.486 195.577 33.6331 195.675 33.6331 195.626C33.6331 195.626 33.535 195.479 33.3879 195.332C33.2408 195.185 33.0938 195.087 33.0938 195.136Z" fill="#263238"/>
<path d="M33.293 194.694C33.293 194.694 33.342 194.89 33.5381 195.037C33.7342 195.184 33.8813 195.282 33.8813 195.282C33.8813 195.282 33.7342 195.135 33.5871 194.988C33.4401 194.792 33.342 194.645 33.293 194.694Z" fill="#263238"/>
<path d="M33.7812 196.115C33.7812 196.115 33.8793 196.262 34.1245 196.41C34.2225 196.508 34.3696 196.557 34.5657 196.655C34.6638 196.704 34.7618 196.704 34.8599 196.753C34.9089 196.753 34.9579 196.753 35.056 196.704C35.105 196.655 35.1541 196.606 35.105 196.508C34.9089 196.066 34.4186 195.968 34.1735 196.017C34.0264 196.066 33.9283 196.115 33.8793 196.164C33.8303 196.213 33.7812 196.262 33.7812 196.262C33.7812 196.262 33.9283 196.164 34.1735 196.115C34.3206 196.115 34.4677 196.115 34.6147 196.164C34.7618 196.213 34.9579 196.361 35.007 196.557C35.007 196.655 34.9579 196.704 34.8599 196.655C34.7618 196.655 34.6638 196.606 34.6147 196.557C34.4677 196.508 34.3206 196.41 34.1735 196.361C33.9283 196.213 33.7812 196.115 33.7812 196.115Z" fill="#263238"/>
<path d="M33.8324 196.214C33.8324 196.214 33.9795 196.165 34.0776 196.018C34.1266 195.92 34.1756 195.822 34.1756 195.674C34.1756 195.527 34.1756 195.38 34.0285 195.233C33.9305 195.184 33.8324 195.233 33.7834 195.282C33.7344 195.331 33.7344 195.429 33.7344 195.478C33.7344 195.625 33.7344 195.723 33.7344 195.822C33.7344 196.067 33.8324 196.214 33.8324 196.214C33.8324 196.165 33.7834 196.067 33.7834 195.871C33.7834 195.773 33.7834 195.674 33.8324 195.527C33.8324 195.429 33.9305 195.233 34.0285 195.331C34.1266 195.38 34.1266 195.576 34.1266 195.674C34.1266 195.773 34.0776 195.92 34.0285 195.969C33.9305 196.165 33.8324 196.214 33.8324 196.214Z" fill="#263238"/>
<path d="M28.2891 190.968C28.2891 190.968 28.4362 191.066 28.6813 191.311C28.8774 191.556 29.1716 191.899 29.2696 192.39C29.3677 192.88 29.2696 193.321 29.1716 193.615C29.0735 193.91 28.9264 194.057 28.9755 194.106C28.9755 194.106 29.0245 194.057 29.0735 194.008C29.1226 193.91 29.1716 193.811 29.2696 193.664C29.4167 193.37 29.5148 192.88 29.4167 192.39C29.3187 191.899 29.0245 191.507 28.7794 191.262C28.6813 191.164 28.5342 191.066 28.4852 191.017C28.3381 190.968 28.2891 190.968 28.2891 190.968Z" fill="#263238"/>
<path d="M30.7442 189.202C30.7442 189.202 30.3029 189.643 29.7636 190.281C29.2243 190.869 28.832 191.408 28.832 191.408C28.832 191.408 29.2733 190.967 29.8126 190.33C30.3519 189.692 30.7442 189.202 30.7442 189.202Z" fill="#263238"/>
<path d="M30.0547 194.204C30.0547 194.204 30.3489 194.547 30.7901 194.939C31.2314 195.332 31.6236 195.577 31.6236 195.528C31.6236 195.528 31.2804 195.234 30.8392 194.841C30.3979 194.498 30.0547 194.155 30.0547 194.204Z" fill="#263238"/>
<path d="M28.977 193.321C28.977 193.321 28.9279 193.419 28.9279 193.517C28.8789 193.615 28.8789 193.714 28.8789 193.714C28.8789 193.714 28.977 193.665 29.026 193.517C29.026 193.419 28.977 193.321 28.977 193.321Z" fill="#263238"/>
<path d="M28.9787 192.487C28.9787 192.487 28.9297 192.585 28.9297 192.683C28.9297 192.781 28.9787 192.88 28.9787 192.88C28.9787 192.88 29.0277 192.781 29.0277 192.683C29.0277 192.536 29.0277 192.487 28.9787 192.487Z" fill="#263238"/>
<path d="M28.5859 191.752C28.5859 191.752 28.635 191.85 28.684 191.948C28.733 192.046 28.7821 192.144 28.7821 192.144C28.7821 192.144 28.8311 192.046 28.733 191.899C28.733 191.801 28.635 191.752 28.5859 191.752Z" fill="#263238"/>
<path d="M28.2891 191.311C28.2891 191.311 28.2891 191.36 28.2891 191.409C28.3381 191.458 28.3381 191.507 28.3871 191.507C28.3871 191.507 28.3871 191.458 28.3871 191.409C28.3381 191.36 28.2891 191.311 28.2891 191.311Z" fill="#263238"/>
<path d="M48.1491 116.983C48.1491 116.983 45.7957 126.936 46.4821 128.897C47.1685 130.858 51.434 131.986 51.434 131.986L51.2869 159.197L27.5078 188.615L36.284 195.822C36.284 195.822 62.0243 166.355 64.3287 161.011C66.584 155.667 62.8578 116.591 62.8578 116.591L48.1491 116.983Z" fill="#263238"/>
<path d="M60.309 112.914L61.4856 195.528L49.3755 195.577L43.2958 128.26C42.0211 127.034 40.207 124.926 40.4522 120.268L40.7463 114.826L60.309 112.914Z" fill="#263238"/>
<path d="M47.5625 163.806C47.5625 163.806 47.5625 163.757 47.6115 163.708C47.6606 163.61 47.7586 163.512 47.8567 163.365C48.1018 163.07 48.396 162.629 48.7392 162.09C49.5237 160.962 50.6513 159.442 52.0242 157.53V157.579C51.779 154.736 51.4358 151.254 51.0926 147.479C50.6513 142.576 50.3081 138.115 50.112 134.879C50.014 133.261 49.9159 131.937 49.9159 131.054C49.9159 130.613 49.8669 130.27 49.8669 130.025C49.8669 129.78 49.8669 129.682 49.8669 129.682C49.8669 129.682 49.9159 129.829 49.9159 130.025C49.9159 130.27 49.9649 130.613 50.014 131.054C50.063 131.986 50.2101 133.261 50.3081 134.879C50.5533 138.115 50.9455 142.527 51.3868 147.479C51.73 151.254 52.0732 154.736 52.2693 157.579V157.628V157.677C50.8965 159.54 49.7198 161.06 48.9353 162.188C48.5431 162.727 48.1999 163.119 48.0038 163.414C47.9057 163.561 47.8076 163.659 47.7586 163.757C47.6115 163.757 47.5625 163.806 47.5625 163.806Z" fill="#455A64"/>
<path d="M51.2857 129.633C51.2857 129.682 49.8148 129.535 48.0988 129.143C46.3338 128.799 44.9609 128.358 44.9609 128.309C44.9609 128.26 46.3828 128.554 48.1478 128.897C49.8639 129.29 51.2857 129.584 51.2857 129.633Z" fill="#455A64"/>
<path d="M59.5742 157.874C59.5252 157.972 58.2014 157.139 56.2893 157.041C54.4262 156.893 52.9553 157.433 52.9062 157.384C52.9062 157.335 53.2495 157.188 53.8378 156.992C54.4262 156.844 55.3087 156.697 56.2893 156.795C57.2698 156.893 58.1033 157.139 58.6427 157.384C59.28 157.58 59.5742 157.825 59.5742 157.874Z" fill="#455A64"/>
<path d="M63.8371 161.698C63.8861 161.747 60.5031 166.306 56.2376 171.896C51.972 177.485 48.491 181.996 48.4419 181.947C48.3929 181.898 51.7759 177.338 56.0414 171.749C60.258 166.159 63.788 161.649 63.8371 161.698Z" fill="#455A64"/>
<path d="M62.1716 119.043C62.1716 119.043 62.0245 119.484 61.4852 119.925C60.9459 120.366 60.0143 120.857 58.8867 120.759C57.759 120.661 56.9255 119.974 56.5333 119.435C56.092 118.847 56.043 118.405 56.043 118.405C56.092 118.405 56.2391 118.798 56.6803 119.337C57.1216 119.827 57.9061 120.415 58.9357 120.563C59.9653 120.661 60.8478 120.268 61.3871 119.876C61.9265 119.435 62.1226 119.043 62.1716 119.043Z" fill="#455A64"/>
<path d="M45.6471 76.5339C43.686 74.6708 42.4602 72.0233 42.3622 69.2776C42.2641 66.581 43.2447 63.8354 45.0588 61.8252" fill="#263238"/>
<path d="M38.8314 84.2812C38.8314 84.2812 36.1839 87.272 35.6445 98.5978C35.6445 98.5978 43.146 100.02 43.2931 99.6274C43.4402 99.1861 38.8314 84.2812 38.8314 84.2812Z" fill="#2AC6FA"/>
<g opacity="0.3">
<path d="M38.8314 84.2812C38.8314 84.2812 36.1839 87.272 35.6445 98.5978C35.6445 98.5978 43.146 100.02 43.2931 99.6274C43.4402 99.1861 38.8314 84.2812 38.8314 84.2812Z" fill="black"/>
</g>
<path d="M40.0578 117.326H63.0525L62.6603 113.747C62.6603 113.747 60.0127 100.068 60.0617 99.921L60.454 99.0385C61.5326 96.7341 61.5816 94.1356 60.552 91.8312L71.8287 87.9579L69.0831 78.6914C63.9841 79.5739 56.2375 80.5055 56.2375 80.5055L55.1098 80.6035C55.1098 80.6035 47.118 80.9958 46.971 81.0448C43.637 81.437 39.7637 81.6822 38.3418 85.2613C37.6064 87.1734 38.2928 90.0171 39.5185 93.0079L42.4603 102.078C43.637 107.079 41.7739 106.834 40.7443 111.835C40.5972 112.571 40.0578 116.64 40.0578 117.326Z" fill="#2AC6FA"/>
<g opacity="0.3">
<path d="M40.0578 117.326H63.0525L62.6603 113.747C62.6603 113.747 60.0127 100.068 60.0617 99.921L60.454 99.0385C61.5326 96.7341 61.5816 94.1356 60.552 91.8312L71.8287 87.9579L69.0831 78.6914C63.9841 79.5739 56.2375 80.5055 56.2375 80.5055L55.1098 80.6035C55.1098 80.6035 47.118 80.9958 46.971 81.0448C43.637 81.437 39.7637 81.6822 38.3418 85.2613C37.6064 87.1734 38.2928 90.0171 39.5185 93.0079L42.4603 102.078C43.637 107.079 41.7739 106.834 40.7443 111.835C40.5972 112.571 40.0578 116.64 40.0578 117.326Z" fill="black"/>
</g>
<path d="M71.7306 88.1055C71.7306 88.1055 71.5345 88.2035 71.2403 88.3016C70.8971 88.3996 70.4558 88.5958 69.8675 88.7919C68.6908 89.1841 67.0728 89.7234 65.2588 90.3118C63.4447 90.9001 61.8267 91.4395 60.699 91.9297C60.1107 92.1749 59.6694 92.371 59.3262 92.5181C59.0321 92.6652 58.8359 92.7142 58.8359 92.7142C58.8359 92.7142 58.983 92.6161 59.2772 92.42C59.5714 92.2729 60.0126 92.0278 60.601 91.7827C61.7287 91.2433 63.3466 90.655 65.1607 90.0666C66.9748 89.4783 68.5927 88.988 69.8185 88.6448C70.4068 88.4487 70.8971 88.3506 71.2403 88.2526C71.5345 88.1545 71.7306 88.1055 71.7306 88.1055Z" fill="#263238"/>
<path d="M70.4059 83.1529C70.4059 83.202 63.5908 83.3 55.2068 83.3C46.8229 83.3 40.0078 83.251 40.0078 83.1529C40.0078 83.0549 46.8229 83.0059 55.2068 83.0059C63.5908 83.0549 70.4059 83.1039 70.4059 83.1529Z" fill="#FAFAFA"/>
<path d="M71.0918 87.6637C71.0918 87.7127 63.5413 87.8108 54.1768 87.8108C44.8612 87.8108 37.2617 87.7617 37.2617 87.6637C37.2617 87.5656 44.8122 87.5166 54.1768 87.5166C63.5413 87.5656 71.0918 87.6147 71.0918 87.6637Z" fill="#FAFAFA"/>
<path d="M39.1757 92.8121C39.1757 92.8612 38.5383 92.9592 37.7539 92.9592C36.9694 92.9592 36.332 92.9102 36.332 92.8121C36.332 92.7631 36.9694 92.665 37.7539 92.665C38.5874 92.7141 39.1757 92.7631 39.1757 92.8121Z" fill="#FAFAFA"/>
<path d="M61.2858 92.9586C61.2858 93.0076 56.3338 93.1057 50.2542 93.1057C44.1746 93.1057 39.2227 93.0567 39.2227 92.9586C39.2227 92.8606 44.1746 92.8115 50.2542 92.8115C56.3338 92.8606 61.2858 92.9096 61.2858 92.9586Z" fill="#FAFAFA"/>
<path d="M60.796 98.2535C60.796 98.3026 56.3344 98.4006 50.8922 98.4006C45.4009 98.4006 40.9883 98.3516 40.9883 98.2535C40.9883 98.2045 45.4499 98.1064 50.8922 98.1064C56.3834 98.1555 60.796 98.2045 60.796 98.2535Z" fill="#FAFAFA"/>
<path d="M60.6478 103.157C60.6478 103.206 56.6274 103.304 51.6755 103.304C46.7235 103.304 42.7031 103.255 42.7031 103.157C42.7031 103.059 46.7235 103.01 51.6755 103.01C56.6274 103.059 60.6478 103.108 60.6478 103.157Z" fill="#FAFAFA"/>
<path d="M61.4343 107.129C61.4343 107.178 57.1197 107.276 51.8246 107.276C46.5294 107.276 42.2148 107.227 42.2148 107.129C42.2148 107.079 46.5294 106.981 51.8246 106.981C57.1197 107.03 61.4343 107.079 61.4343 107.129Z" fill="#FAFAFA"/>
<path d="M62.7068 112.227C62.7068 112.276 57.8039 112.374 51.7733 112.374C45.7428 112.374 40.8398 112.325 40.8398 112.227C40.8398 112.178 45.7428 112.08 51.7733 112.08C57.8039 112.08 62.7068 112.129 62.7068 112.227Z" fill="#FAFAFA"/>
<path d="M42.3624 101.637C42.3624 101.637 42.2643 101.49 42.1663 101.195C42.0192 100.852 41.8721 100.411 41.676 99.9207C41.2837 98.8421 40.6954 97.4202 40.107 95.7532C39.5187 94.1353 39.0284 92.6154 38.7342 91.5367C38.5871 90.9974 38.4891 90.5562 38.391 90.2129C38.342 89.9188 38.293 89.7227 38.293 89.7227C38.342 89.7227 38.5381 90.4091 38.8813 91.4877C39.2245 92.5663 39.7638 94.0372 40.3522 95.6552C40.9405 97.2731 41.4799 98.744 41.8721 99.8227C42.0682 100.362 42.2153 100.803 42.2643 101.097C42.3134 101.441 42.3624 101.637 42.3624 101.637Z" fill="#263238"/>
</svg>
