<svg width="35" height="34" viewBox="0 0 35 34" fill="none" xmlns="http://www.w3.org/2000/svg">
<rect x="0.5" width="34" height="34" rx="17" fill="#47D3FF" fill-opacity="0.15"/>
<path fill-rule="evenodd" clip-rule="evenodd" d="M10.0787 9.57922C11.1908 8.46716 12.8549 8.04199 14.9998 8.04199H19.9998C22.1448 8.04199 23.8089 8.46716 24.9209 9.57922C26.033 10.6913 26.4582 12.3553 26.4582 14.5003V19.5003C26.4582 21.6453 26.033 23.3094 24.9209 24.4214C23.8089 25.5335 22.1448 25.9587 19.9998 25.9587H14.9998C12.8549 25.9587 11.1908 25.5335 10.0787 24.4214C8.96667 23.3094 8.5415 21.6453 8.5415 19.5003V14.5003C8.5415 12.3553 8.96667 10.6913 10.0787 9.57922ZM10.9626 10.4631C10.1997 11.226 9.7915 12.4786 9.7915 14.5003V19.5003C9.7915 21.522 10.1997 22.7746 10.9626 23.5376C11.7256 24.3005 12.9781 24.7087 14.9998 24.7087H19.9998C22.0215 24.7087 23.2741 24.3005 24.0371 23.5376C24.8 22.7746 25.2082 21.522 25.2082 19.5003V14.5003C25.2082 12.4786 24.8 11.226 24.0371 10.4631C23.2741 9.70016 22.0215 9.29199 19.9998 9.29199H14.9998C12.9781 9.29199 11.7256 9.70016 10.9626 10.4631Z" fill="#2AC6FA"/>
<path fill-rule="evenodd" clip-rule="evenodd" d="M13.75 14.5C13.75 14.1548 14.0298 13.875 14.375 13.875H20.625C20.9702 13.875 21.25 14.1548 21.25 14.5C21.25 14.8452 20.9702 15.125 20.625 15.125H14.375C14.0298 15.125 13.75 14.8452 13.75 14.5Z" fill="#2AC6FA"/>
<path fill-rule="evenodd" clip-rule="evenodd" d="M13.5415 19.5C13.5415 19.1548 13.8213 18.875 14.1665 18.875H17.4998C17.845 18.875 18.1248 19.1548 18.1248 19.5C18.1248 19.8452 17.845 20.125 17.4998 20.125H14.1665C13.8213 20.125 13.5415 19.8452 13.5415 19.5Z" fill="#2AC6FA"/>
</svg>
