<svg width="24" height="25" viewBox="0 0 24 25" fill="none" xmlns="http://www.w3.org/2000/svg">
<path fill-rule="evenodd" clip-rule="evenodd" d="M2.75 12.5003C2.75 12.3014 2.82902 12.1106 2.96967 11.97L9.03967 5.89998C9.33256 5.60709 9.80744 5.60709 10.1003 5.89998C10.3932 6.19288 10.3932 6.66775 10.1003 6.96064L4.56066 12.5003L10.1003 18.04C10.3932 18.3329 10.3932 18.8077 10.1003 19.1006C9.80744 19.3935 9.33256 19.3935 9.03967 19.1006L2.96967 13.0306C2.82902 12.89 2.75 12.6992 2.75 12.5003Z" fill="#2AC6FA"/>
<path fill-rule="evenodd" clip-rule="evenodd" d="M2.91992 12.5C2.91992 12.0858 3.25571 11.75 3.66992 11.75L20.4999 11.75C20.9141 11.75 21.2499 12.0858 21.2499 12.5C21.2499 12.9142 20.9141 13.25 20.4999 13.25L3.66992 13.25C3.25571 13.25 2.91992 12.9142 2.91992 12.5Z" fill="#2AC6FA"/>
</svg>
