<svg width="16" height="11" viewBox="0 0 16 11" fill="none" xmlns="http://www.w3.org/2000/svg">
<path fill-rule="evenodd" clip-rule="evenodd" d="M11.1587 0.213014L15.787 4.84135C16.071 5.12537 16.071 5.58585 15.787 5.86987L11.1587 10.4982C10.8746 10.7822 10.4141 10.7822 10.1301 10.4982C9.84611 10.2142 9.84611 9.7537 10.1301 9.46969L13.5169 6.08288L0.727272 6.08288C0.325611 6.08288 -5.03317e-07 5.75727 -4.68202e-07 5.35561C-4.33088e-07 4.95395 0.325611 4.62834 0.727272 4.62834L13.5169 4.62834L10.1301 1.24153C9.84612 0.957516 9.84612 0.497032 10.1301 0.213014C10.4142 -0.0710036 10.8746 -0.0710035 11.1587 0.213014Z" fill="black"/>
</svg>
