<svg width="18" height="18" viewBox="0 0 18 18" fill="none" xmlns="http://www.w3.org/2000/svg">
<g clip-path="url(#clip0_422_10659)">
<path fill-rule="evenodd" clip-rule="evenodd" d="M12.9381 17.3762C13.158 17.2712 13.862 16.5739 13.9572 16.3667C14.0042 16.2647 14.025 16.1492 14.0252 15.9885C14.026 15.5382 14.216 15.7496 10.6407 12.2209C8.8727 10.4758 7.42612 9.02615 7.42612 8.99931C7.42612 8.97248 8.88037 7.51537 10.6578 5.76124C14.2142 2.25146 14.0386 2.44541 14.0386 2.02669C14.0386 1.69187 13.9545 1.54617 13.4973 1.08961C13.0316 0.624531 12.8856 0.54046 12.5434 0.539965C12.3827 0.539734 12.2707 0.560257 12.1581 0.610618C12.0307 0.667589 11.2232 1.44601 8.06992 4.55131C3.73579 8.81958 3.96046 8.5764 3.96257 8.99703C3.96472 9.42735 3.71127 9.15255 8.05538 13.4355C11.1326 16.4694 12.0325 17.3386 12.1501 17.3908C12.3704 17.4884 12.7167 17.482 12.9381 17.3762Z" fill="black"/>
</g>
<defs>
<clipPath id="clip0_422_10659">
<rect width="18" height="18" fill="white" transform="translate(18 18) rotate(-180)"/>
</clipPath>
</defs>
</svg>
