<svg width="30" height="30" viewBox="0 0 30 30" fill="none" xmlns="http://www.w3.org/2000/svg">
<path fill-rule="evenodd" clip-rule="evenodd" d="M3.4375 15.0004C3.4375 14.7517 3.53627 14.5133 3.71209 14.3375L11.2996 6.74998C11.6657 6.38386 12.2593 6.38386 12.6254 6.74998C12.9915 7.11609 12.9915 7.70969 12.6254 8.0758L5.70082 15.0004L12.6254 21.925C12.9915 22.2911 12.9915 22.8847 12.6254 23.2508C12.2593 23.6169 11.6657 23.6169 11.2996 23.2508L3.71209 15.6633C3.53627 15.4875 3.4375 15.249 3.4375 15.0004Z" fill="#2AC6FA"/>
<path fill-rule="evenodd" clip-rule="evenodd" d="M3.6499 15C3.6499 14.4822 4.06964 14.0625 4.5874 14.0625L25.6249 14.0625C26.1427 14.0625 26.5624 14.4822 26.5624 15C26.5624 15.5178 26.1427 15.9375 25.6249 15.9375L4.5874 15.9375C4.06964 15.9375 3.6499 15.5178 3.6499 15Z" fill="#2AC6FA"/>
</svg>
