<svg width="24" height="28" viewBox="0 0 24 28" fill="none" xmlns="http://www.w3.org/2000/svg">
<path fill-rule="evenodd" clip-rule="evenodd" d="M11.3807 0.0292145C4.94798 0.553559 2.40649 8.59519 7.3823 12.6805L7.7368 12.9715L7.49341 13.0803C3.13971 15.0263 0.599997 18.3703 0.0509438 22.8798C-0.263999 25.4661 0.897218 27.3756 3.09382 27.8834C3.76648 28.0389 20.2335 28.0389 20.9062 27.8834C23.1028 27.3756 24.264 25.4661 23.9491 22.8798C23.4 18.3703 20.8603 15.0263 16.5066 13.0803L16.2632 12.9715L16.6177 12.6805C21.2285 8.89482 19.4854 1.56375 13.6474 0.187986C13.2559 0.0957023 12.9992 0.0637729 12.1667 0.00358333C12.0292 -0.00638436 11.6754 0.00517159 11.3807 0.0292145ZM12.9722 2.20978C17.5099 3.13788 18.6298 8.95342 14.7446 11.4137C12.2074 13.0205 8.75779 12.0728 7.41835 9.40104C5.55303 5.68018 8.87968 1.37272 12.9722 2.20978ZM13.5555 14.4607C18.1966 15.1723 21.7992 19.2261 21.8399 23.7823C21.8493 24.8345 21.4919 25.4387 20.677 25.7488C20.2726 25.9026 3.72743 25.9026 3.32304 25.7488C2.28538 25.354 1.96149 24.4026 2.25266 22.6048C3.12287 17.2324 8.12529 13.628 13.5555 14.4607Z" fill="#2AC6FA"/>
</svg>
