<svg width="24" height="24" viewBox="0 0 24 24" fill="none" xmlns="http://www.w3.org/2000/svg">
<path d="M9 22H15C20 22 22 20 22 15V9C22 4 20 2 15 2H9C4 2 2 4 2 9V15C2 20 4 22 9 22Z" stroke="#909090" stroke-width="1.5" stroke-linecap="round" stroke-linejoin="round"/>
<path d="M17 2.43994V12.4199C17 14.3899 15.59 15.1599 13.86 14.1199L12.54 13.3299C12.24 13.1499 11.76 13.1499 11.46 13.3299L10.14 14.1199C8.41 15.1499 7 14.3899 7 12.4199V2.43994" stroke="#909090" stroke-width="1.5" stroke-linecap="round" stroke-linejoin="round"/>
<path fill-rule="evenodd" clip-rule="evenodd" d="M3.09467 3.09467C4.42914 1.7602 6.42603 1.25 9 1.25H15C17.574 1.25 19.5709 1.7602 20.9053 3.09467C22.2398 4.42914 22.75 6.42603 22.75 9V15C22.75 17.574 22.2398 19.5709 20.9053 20.9053C19.5709 22.2398 17.574 22.75 15 22.75H9C6.42603 22.75 4.42914 22.2398 3.09467 20.9053C1.7602 19.5709 1.25 17.574 1.25 15V9C1.25 6.42603 1.7602 4.42914 3.09467 3.09467ZM4.15533 4.15533C3.2398 5.07086 2.75 6.57397 2.75 9V15C2.75 17.426 3.2398 18.9291 4.15533 19.8447C5.07086 20.7602 6.57397 21.25 9 21.25H15C17.426 21.25 18.9291 20.7602 19.8447 19.8447C20.7602 18.9291 21.25 17.426 21.25 15V9C21.25 6.57397 20.7602 5.07086 19.8447 4.15533C18.9291 3.2398 17.426 2.75 15 2.75H9C6.57397 2.75 5.07086 3.2398 4.15533 4.15533Z" fill="#909090"/>
<path fill-rule="evenodd" clip-rule="evenodd" d="M7 1.68994C7.41421 1.68994 7.75 2.02573 7.75 2.43994V12.4199C7.75 13.2429 8.03714 13.605 8.27795 13.7352C8.52825 13.8705 9.01889 13.9144 9.75584 13.4758C9.756 13.4757 9.75569 13.4759 9.75584 13.4758L11.0741 12.6868C11.0742 12.6868 11.0741 12.6869 11.0741 12.6868C11.3659 12.5118 11.702 12.4449 12 12.4449C12.298 12.4449 12.6339 12.5117 12.9257 12.6867C12.9258 12.6868 12.9257 12.6867 12.9257 12.6867L14.2464 13.4771C14.9827 13.9197 15.4718 13.8748 15.7209 13.7396C15.9624 13.6084 16.25 13.2434 16.25 12.4199V2.43994C16.25 2.02573 16.5858 1.68994 17 1.68994C17.4142 1.68994 17.75 2.02573 17.75 2.43994V12.4199C17.75 13.5665 17.3326 14.5714 16.4366 15.0578C15.5483 15.54 14.4678 15.3602 13.4742 14.7631C13.474 14.763 13.4744 14.7632 13.4742 14.7631L12.1548 13.9735C12.155 13.9736 12.1507 13.971 12.1426 13.9678C12.1345 13.9646 12.1231 13.9608 12.1085 13.9572C12.0784 13.9498 12.041 13.9449 12 13.9449C11.959 13.9449 11.9216 13.9498 11.8915 13.9572C11.8769 13.9608 11.8655 13.9646 11.8574 13.9678C11.8493 13.971 11.8457 13.9731 11.8459 13.9731L10.5237 14.7644C9.53089 15.3555 8.45169 15.5343 7.56455 15.0547C6.66786 14.5699 6.25 13.567 6.25 12.4199V2.43994C6.25 2.02573 6.58579 1.68994 7 1.68994Z" fill="#909090"/>
</svg>
