<svg width="24" height="24" viewBox="0 0 24 24" fill="none" xmlns="http://www.w3.org/2000/svg">
<path fill-rule="evenodd" clip-rule="evenodd" d="M7.4504 4.70996C6.80444 4.70996 6.22153 5.14078 6.02705 5.77115L6.02647 5.77303L1.81669 19.2922C1.81666 19.2923 1.81672 19.2922 1.81669 19.2922C1.51456 20.2664 2.24303 21.25 3.24038 21.25H16.3804C17.0791 21.25 17.6724 20.7827 17.8307 20.1166L17.8326 20.1088L21.2011 6.58498C21.2013 6.58404 21.2015 6.5831 21.2018 6.58216C21.2855 6.23065 21.2526 5.91074 21.1344 5.64309L21.1306 5.63457L21.1271 5.62596C20.9078 5.0944 20.3835 4.70996 19.7504 4.70996H7.4504ZM4.59401 5.32799C4.97983 4.07888 6.1367 3.20996 7.4504 3.20996H19.7504C21.0139 3.20996 22.0674 3.98141 22.5102 5.04543C22.7683 5.63485 22.8143 6.29079 22.6597 6.93504L22.6582 6.94128L19.2891 20.4675C18.9659 21.8193 17.7603 22.75 16.3804 22.75H3.24038C1.21782 22.75 -0.213556 20.7734 0.384094 18.8476L4.59371 5.32895C4.59381 5.32863 4.59391 5.32831 4.59401 5.32799Z" fill="#2AC6FA"/>
<path fill-rule="evenodd" clip-rule="evenodd" d="M21.9456 5.25201C22.3588 5.22198 22.718 5.53254 22.748 5.94566L23.7382 19.5678C23.8582 21.2878 22.5085 22.75 20.78 22.75H16C15.5858 22.75 15.25 22.4142 15.25 22C15.25 21.5858 15.5858 21.25 16 21.25H20.78C21.6312 21.25 22.3013 20.5327 22.2419 19.6732C22.2419 19.6728 22.2419 19.6735 22.2419 19.6732L21.252 6.0544C21.2219 5.64128 21.5325 5.28204 21.9456 5.25201Z" fill="#2AC6FA"/>
<path fill-rule="evenodd" clip-rule="evenodd" d="M10.8954 1.33082C11.2981 1.42777 11.546 1.83282 11.449 2.23553L10.409 6.55548C10.3121 6.95818 9.90702 7.20605 9.50432 7.1091C9.10161 7.01215 8.85374 6.6071 8.95069 6.20439L9.9907 1.88444C10.0877 1.48174 10.4927 1.23387 10.8954 1.33082Z" fill="#2AC6FA"/>
<path fill-rule="evenodd" clip-rule="evenodd" d="M17.4788 1.31696C17.8836 1.40464 18.1407 1.8039 18.053 2.20872L17.113 6.54869C17.0254 6.95352 16.6261 7.21061 16.2213 7.12293C15.8165 7.03525 15.5594 6.63599 15.647 6.23116L16.587 1.8912C16.6747 1.48637 17.074 1.22928 17.4788 1.31696Z" fill="#2AC6FA"/>
<path fill-rule="evenodd" clip-rule="evenodd" d="M6.9502 12C6.9502 11.5858 7.28598 11.25 7.7002 11.25H15.7002C16.1144 11.25 16.4502 11.5858 16.4502 12C16.4502 12.4142 16.1144 12.75 15.7002 12.75H7.7002C7.28598 12.75 6.9502 12.4142 6.9502 12Z" fill="#2AC6FA"/>
<path fill-rule="evenodd" clip-rule="evenodd" d="M5.9502 16C5.9502 15.5858 6.28598 15.25 6.7002 15.25H14.7002C15.1144 15.25 15.4502 15.5858 15.4502 16C15.4502 16.4142 15.1144 16.75 14.7002 16.75H6.7002C6.28598 16.75 5.9502 16.4142 5.9502 16Z" fill="#2AC6FA"/>
</svg>
