<svg width="24" height="24" viewBox="0 0 24 24" fill="none" xmlns="http://www.w3.org/2000/svg">
<path fill-rule="evenodd" clip-rule="evenodd" d="M3.86984 0.086439C3.53943 0.254962 3.45948 0.438758 3.42947 1.09881L3.40268 1.68824L2.67927 1.71996C1.92249 1.75319 1.68516 1.8109 1.24549 2.06859C0.706096 2.38468 0.297185 2.90761 0.106367 3.52528C0.00203628 3.86308 0 4.04339 0 12.8606C0 21.7337 0.00139316 21.8561 0.108403 22.2024C0.331158 22.9237 0.926868 23.5643 1.64379 23.8535L1.95587 23.9794L11.896 23.9937C21.7328 24.0078 21.8398 24.0067 22.1931 23.8997C22.9181 23.6801 23.5628 23.0834 23.8536 22.3624L23.9795 22.0504L23.9938 12.9678C24.0078 4.04548 24.0061 3.87905 23.9019 3.53466C23.7137 2.91367 23.3035 2.38661 22.7608 2.06859C22.3211 1.8109 22.0838 1.75319 21.327 1.71996L20.6036 1.68824L20.5768 1.1256C20.5483 0.525886 20.5182 0.437096 20.2611 0.192376C19.9342 -0.118736 19.2813 -0.0408242 19.0084 0.341823C18.9075 0.483286 18.8847 0.601279 18.8621 1.09881L18.8353 1.68824H17.1474H15.4594L15.4326 1.1256C15.4041 0.525886 15.374 0.437096 15.1169 0.192376C14.79 -0.118736 14.1371 -0.0408242 13.8642 0.341823C13.7633 0.483286 13.7405 0.601279 13.7179 1.09881L13.6911 1.68824H12.0031H10.3152L10.2884 1.1256C10.2599 0.525886 10.2298 0.437096 9.97269 0.192376C9.64582 -0.118736 8.99293 -0.0408242 8.71997 0.341823C8.61912 0.483286 8.59629 0.601279 8.57368 1.09881L8.54689 1.68824H6.85894H5.171L5.14421 1.1256C5.11565 0.52535 5.08575 0.437203 4.82736 0.191304C4.69141 0.0618973 4.60733 0.0306575 4.35387 0.0153323C4.14066 0.00247198 3.99153 0.024388 3.86984 0.086439ZM3.42947 4.05593C3.45525 4.63223 3.46248 4.66186 3.61702 4.82428C3.86603 5.08604 4.04854 5.15972 4.37992 5.13223C4.63386 5.11117 4.69757 5.08041 4.89364 4.88445L5.11741 4.66079L5.14421 4.05866L5.171 3.45653H6.85894H8.54689L8.57368 4.05593C8.59945 4.63223 8.60669 4.66186 8.76123 4.82428C9.01024 5.08604 9.19275 5.15972 9.52412 5.13223C9.77807 5.11117 9.84178 5.08041 10.0378 4.88445L10.2616 4.66079L10.2884 4.05866L10.3152 3.45653H12.0031H13.6911L13.7179 4.05593C13.7437 4.63223 13.7509 4.66186 13.9054 4.82428C14.1544 5.08604 14.337 5.15972 14.6683 5.13223C14.9223 5.11117 14.986 5.08041 15.1821 4.88445L15.4058 4.66079L15.4326 4.05866L15.4594 3.45653H17.1474H18.8353L18.8621 4.05593C18.8879 4.63223 18.8951 4.66186 19.0496 4.82428C19.2987 5.08604 19.4812 5.15972 19.8125 5.13223C20.0665 5.11117 20.1302 5.08041 20.3263 4.88445L20.55 4.66079L20.5768 4.05866L20.6036 3.45653H21.1395C21.7477 3.45653 21.9617 3.54307 22.1576 3.86812C22.2592 4.03669 22.2648 4.14097 22.2648 5.86784V7.68971H12.0031H1.74153L1.72738 5.98353C1.71859 4.92566 1.73435 4.19884 1.76886 4.07072C1.83584 3.82214 2.0871 3.55684 2.32106 3.48783C2.41494 3.46012 2.69669 3.44174 2.9472 3.44699L3.40268 3.45653L3.42947 4.05593ZM22.2648 15.5666C22.2648 21.5803 22.2631 21.6781 22.1576 21.8531C22.0987 21.951 21.966 22.0836 21.8629 22.1478L21.6753 22.2647H12.0031C2.42598 22.2647 2.3292 22.2636 2.15312 22.1575C2.05527 22.0986 1.92265 21.966 1.8584 21.8628L1.74153 21.6753L1.72722 15.621C1.71934 12.2912 1.72465 9.53624 1.73901 9.49889C1.75996 9.44428 3.77821 9.43357 12.0149 9.44445L22.2648 9.458V15.5666ZM4.72721 12.9482C4.42948 13.0976 4.31363 13.3161 4.31363 13.7284C4.31363 14.0634 4.32563 14.0995 4.4948 14.2741C4.78197 14.5703 4.8527 14.5832 6.0998 14.565L7.2327 14.5485L7.45637 14.3248C7.65228 14.1288 7.68303 14.065 7.70409 13.8111C7.73158 13.4797 7.6579 13.2972 7.39619 13.0482L7.22724 12.8874L6.06518 12.8737C5.07449 12.862 4.87714 12.873 4.72721 12.9482ZM10.7288 12.9482C10.4311 13.0976 10.3152 13.3161 10.3152 13.7284C10.3152 14.0634 10.3272 14.0995 10.4964 14.2741C10.7835 14.5703 10.8543 14.5832 12.1014 14.565L13.2343 14.5485L13.4579 14.3248C13.6539 14.1288 13.6846 14.065 13.7057 13.8111C13.7332 13.4797 13.6595 13.2972 13.3978 13.0482L13.2288 12.8874L12.0668 12.8737C11.0761 12.862 10.8787 12.873 10.7288 12.9482ZM16.7304 12.9482C16.4326 13.0976 16.3168 13.3161 16.3168 13.7284C16.3168 14.0634 16.3288 14.0995 16.498 14.2741C16.7851 14.5703 16.8559 14.5832 18.1029 14.565L19.2359 14.5485L19.4595 14.3248C19.6554 14.1288 19.6862 14.065 19.7072 13.8111C19.7347 13.4797 19.6611 13.2972 19.3993 13.0482L19.2304 12.8874L18.0683 12.8737C17.0776 12.862 16.8803 12.873 16.7304 12.9482ZM4.72721 17.2349C4.42948 17.3843 4.31363 17.6029 4.31363 18.0151C4.31363 18.3501 4.32563 18.3863 4.4948 18.5608C4.78197 18.8571 4.8527 18.8699 6.0998 18.8517L7.2327 18.8353L7.45637 18.6115C7.65228 18.4155 7.68303 18.3518 7.70409 18.0978C7.73158 17.7664 7.6579 17.584 7.39619 17.3349L7.22724 17.1742L6.06518 17.1605C5.07449 17.1488 4.87714 17.1598 4.72721 17.2349ZM10.7288 17.2349C10.4311 17.3843 10.3152 17.6029 10.3152 18.0151C10.3152 18.3501 10.3272 18.3863 10.4964 18.5608C10.7835 18.8571 10.8543 18.8699 12.1014 18.8517L13.2343 18.8353L13.4579 18.6115C13.6539 18.4155 13.6846 18.3518 13.7057 18.0978C13.7332 17.7664 13.6595 17.584 13.3978 17.3349L13.2288 17.1742L12.0668 17.1605C11.0761 17.1488 10.8787 17.1598 10.7288 17.2349Z" fill="#D2D2D2"/>
</svg>
