<svg width="209" height="202" viewBox="0 0 209 202" fill="none" xmlns="http://www.w3.org/2000/svg">
<path d="M125.352 7.14125C123.404 13.3274 126.073 20.0627 132.348 22.6201C138.623 25.1774 145.699 22.3186 148.121 16.2939C150.542 10.2693 147.583 2.88794 141.125 0.815124C133.936 -1.49459 127.204 1.25661 125.352 7.14125Z" fill="#2AC6FA"/>
<path d="M135.599 5.01465L132.246 14.8996L143.229 14.5281L135.599 5.01465Z" fill="white"/>
<path d="M18.9258 28.7524L54.6417 14.695C55.3416 14.4186 56.093 14.2972 56.8442 14.3391C57.5955 14.3811 58.3287 14.5853 58.9935 14.9378C59.6583 15.2903 60.2389 15.7828 60.6953 16.3812C61.1517 16.9796 61.4732 17.6699 61.6375 18.4045C62.8052 23.6484 64.3712 31.4928 64.9954 38.2443C65.1069 39.4034 64.828 40.5665 64.203 41.5488C63.578 42.5312 62.6428 43.2763 61.546 43.6659C57.4939 45.0981 50.7403 47.4347 44.3634 49.486C48.1303 54.0569 53.7054 55.4083 53.7054 55.4083C53.7054 55.4083 41.9149 57.115 36.964 51.7311C35.1882 52.2372 33.5792 52.6679 32.2446 52.9694C31.2906 53.1917 30.2933 53.1404 29.3672 52.8213C28.441 52.5023 27.6235 51.9285 27.0086 51.1658C24.0327 47.4993 19.6253 41.1086 16.4988 36.5322C16.061 35.8835 15.7747 35.1446 15.6612 34.3702C15.5476 33.5958 15.6097 32.8057 15.8428 32.0585C16.0759 31.3114 16.474 30.6263 17.0077 30.054C17.5414 29.4816 18.1969 29.0368 18.9258 28.7524Z" fill="#2AC6FA"/>
<path opacity="0.4" d="M18.9258 28.7524L54.6417 14.695C55.3416 14.4186 56.093 14.2972 56.8442 14.3391C57.5955 14.3811 58.3287 14.5853 58.9935 14.9378C59.6583 15.2903 60.2389 15.7828 60.6953 16.3812C61.1517 16.9796 61.4732 17.6699 61.6375 18.4045C62.8052 23.6484 64.3712 31.4928 64.9954 38.2443C65.1069 39.4034 64.828 40.5665 64.203 41.5488C63.578 42.5312 62.6428 43.2763 61.546 43.6659C57.4939 45.0981 50.7403 47.4347 44.3634 49.486C48.1303 54.0569 53.7054 55.4083 53.7054 55.4083C53.7054 55.4083 41.9149 57.115 36.964 51.7311C35.1882 52.2372 33.5792 52.6679 32.2446 52.9694C31.2906 53.1917 30.2933 53.1404 29.3672 52.8213C28.441 52.5023 27.6235 51.9285 27.0086 51.1658C24.0327 47.4993 19.6253 41.1086 16.4988 36.5322C16.061 35.8835 15.7747 35.1446 15.6612 34.3702C15.5476 33.5958 15.6097 32.8057 15.8428 32.0585C16.0759 31.3114 16.474 30.6263 17.0077 30.054C17.5414 29.4816 18.1969 29.0368 18.9258 28.7524Z" fill="white"/>
<path d="M28.2784 36.3814L53.0917 28.6554C53.566 28.5055 53.9618 28.174 54.1927 27.7332C54.4236 27.2924 54.4708 26.7781 54.3241 26.3026C54.1742 25.8281 53.8429 25.4321 53.4023 25.2011C52.9617 24.9701 52.4477 24.9229 51.9724 25.0697L27.1806 32.7903C26.7061 32.9403 26.31 33.2715 26.0782 33.7121C25.8465 34.1526 25.7978 34.6669 25.9429 35.1431C26.0917 35.6149 26.4201 36.0092 26.857 36.2409C27.294 36.4726 27.8045 36.5231 28.2784 36.3814Z" fill="white"/>
<path d="M31.9972 43.7144L49.5565 37.1406C50.0174 36.96 50.3888 36.6051 50.5902 36.1527C50.7916 35.7003 50.8069 35.1868 50.6328 34.7232C50.4575 34.2571 50.105 33.8795 49.6523 33.6727C49.1995 33.4658 48.6834 33.4467 48.2166 33.6195L30.6788 40.1933C30.2175 40.375 29.8461 40.7309 29.6447 41.1841C29.4434 41.6374 29.4282 42.1517 29.6025 42.616C29.779 43.0759 30.1284 43.4484 30.576 43.6537C31.0236 43.859 31.5338 43.8808 31.9972 43.7144Z" fill="white"/>
<path d="M132.127 72.4108C135.13 72.6854 141.233 70.731 144.784 65.6432C139.737 62.2836 136.626 57.0612 136.987 51.3973C137.579 42.1639 147.158 35.2455 158.383 35.9831C169.608 36.7207 178.229 44.7697 177.637 54.0032C177.046 63.2366 167.467 70.155 156.241 69.412C154.634 69.3113 153.04 69.0516 151.484 68.6367C148.694 70.5707 145.533 71.9047 142.201 72.5543C138.87 73.2039 135.439 73.1551 132.127 72.4108Z" fill="#2AC6FA"/>
<path opacity="0.2" d="M132.127 72.4108C135.13 72.6854 141.233 70.731 144.784 65.6432C139.737 62.2836 136.626 57.0612 136.987 51.3973C137.579 42.1639 147.158 35.2455 158.383 35.9831C169.608 36.7207 178.229 44.7697 177.637 54.0032C177.046 63.2366 167.467 70.155 156.241 69.412C154.634 69.3113 153.04 69.0516 151.484 68.6367C148.694 70.5707 145.533 71.9047 142.201 72.5543C138.87 73.2039 135.439 73.1551 132.127 72.4108Z" fill="black"/>
<path d="M157.813 45.4373C151.118 38.4651 144.3 49.0499 152.727 60.1031C169.178 58.6764 174.382 44.3282 157.813 45.4373Z" fill="white"/>
<path d="M97.5953 41.7062C98.3635 41.7045 99.1309 41.6559 99.8932 41.5608C104.064 41.0224 107.427 39.278 109.041 36.7422C109.083 36.6791 109.11 36.6071 109.119 36.532C109.129 36.4569 109.121 36.3805 109.096 36.3091C109.071 36.2376 109.029 36.1729 108.975 36.1201C108.921 36.0672 108.855 36.0277 108.783 36.0046C106.335 35.1916 104.984 32.5642 103.682 30.0284C102.067 26.8788 100.383 23.6161 96.5783 23.9715C94.8831 24.1276 93.6024 24.7414 92.7736 25.7966C91.0301 28.0094 91.5521 31.622 92.0149 34.8093C92.3109 36.8498 92.6176 38.955 92.0149 39.5364C91.9664 39.583 91.9279 39.639 91.902 39.7011C91.8761 39.7632 91.8632 39.8299 91.8642 39.8972C91.8689 40.0328 91.9247 40.1616 92.0203 40.2579C93.0427 41.1839 95.1414 41.7062 97.5953 41.7062ZM107.884 36.6991C106.27 38.7288 103.37 40.1287 99.7694 40.5809C97.0249 40.9255 94.3289 40.5809 93.0481 39.7895C93.5862 38.7127 93.3333 36.8983 93.0104 34.6693C92.5745 31.6759 92.0848 28.2894 93.5486 26.405C94.2158 25.5597 95.2383 25.0859 96.6697 24.9513C99.8232 24.6606 101.206 27.358 102.81 30.4753C104.118 32.9896 105.447 35.5792 107.884 36.6991Z" fill="#2AC6FA"/>
<path d="M100.986 43.5906C101.615 43.5857 102.234 43.4404 102.799 43.1652C104.301 42.4276 105.049 41.044 104.629 39.7949C104.587 39.6714 104.498 39.5697 104.381 39.5121C104.263 39.4546 104.128 39.4459 104.005 39.488C103.881 39.5301 103.78 39.6196 103.722 39.7367C103.665 39.8538 103.656 39.989 103.698 40.1125C103.983 40.9686 103.246 41.8462 102.369 42.2661C101.719 42.609 100.961 42.6884 100.254 42.4879C99.5468 42.2875 98.9437 41.8225 98.5697 41.1893C98.4973 41.0805 98.3849 41.0047 98.2568 40.9785C98.1288 40.9522 97.9956 40.9777 97.8863 41.0494C97.7786 41.1227 97.7038 41.2351 97.6777 41.3628C97.6515 41.4905 97.6762 41.6233 97.7464 41.7331C98.0817 42.2948 98.5558 42.7608 99.1231 43.0861C99.6905 43.4114 100.332 43.5851 100.986 43.5906Z" fill="#2AC6FA"/>
<path d="M96.0945 25.0213C96.1337 25.0265 96.1736 25.0265 96.2128 25.0213C96.3369 24.9906 96.444 24.9126 96.5114 24.8039C96.5788 24.6953 96.601 24.5646 96.5734 24.4398C96.3949 23.9198 96.1697 23.4171 95.9007 22.9377C95.8422 22.8213 95.7399 22.733 95.6163 22.6921C95.4926 22.6512 95.3578 22.6611 95.2415 22.7196C95.1252 22.7782 95.0369 22.8806 94.996 23.0042C94.9551 23.1279 94.965 23.2628 95.0236 23.3792C95.2486 23.7821 95.4429 24.2014 95.6047 24.6336C95.6312 24.7437 95.6939 24.8418 95.7827 24.9121C95.8715 24.9823 95.9812 25.0208 96.0945 25.0213Z" fill="#2AC6FA"/>
<path d="M105.409 29.0914C105.452 29.0966 105.496 29.0966 105.539 29.0914C105.601 29.0746 105.659 29.0456 105.71 29.0062C105.761 28.9667 105.804 28.9176 105.836 28.8615C105.868 28.8055 105.889 28.7437 105.897 28.6797C105.905 28.6156 105.9 28.5506 105.883 28.4884C105.452 26.8732 103.144 24.0574 101.858 23.013C101.808 22.9723 101.75 22.9419 101.688 22.9236C101.626 22.9052 101.561 22.8993 101.497 22.906C101.433 22.9128 101.37 22.9321 101.314 22.9629C101.257 22.9937 101.207 23.0354 101.166 23.0856C101.126 23.1358 101.095 23.1936 101.077 23.2555C101.059 23.3174 101.053 23.3824 101.059 23.4466C101.066 23.5109 101.085 23.5731 101.116 23.6299C101.147 23.6867 101.189 23.7368 101.239 23.7775C102.53 24.8543 104.591 27.4762 104.936 28.7415C104.967 28.8428 105.03 28.9315 105.115 28.9945C105.2 29.0575 105.303 29.0915 105.409 29.0914Z" fill="#2AC6FA"/>
<path d="M90.5516 33.7864H90.6269C90.7516 33.7664 90.8639 33.6995 90.9409 33.5995C91.0179 33.4994 91.0538 33.3737 91.0413 33.248C90.896 32.2681 90.5839 29.4792 90.9014 28.3378C90.937 28.2122 90.9214 28.0775 90.8578 27.9634C90.7942 27.8493 90.6879 27.7651 90.5623 27.7294C90.4367 27.6937 90.3021 27.7094 90.1881 27.773C90.074 27.8366 89.9899 27.943 89.9542 28.0686C89.5184 29.6354 90.0403 33.2372 90.0673 33.3933C90.0898 33.505 90.1504 33.6052 90.2388 33.677C90.3272 33.7487 90.4378 33.7874 90.5516 33.7864Z" fill="#2AC6FA"/>
<path d="M23.742 87.9649C25.2353 87.4728 26.6253 86.71 27.8426 85.7144C30.5656 83.5609 32.1477 80.8689 32.2553 78.3761C32.2545 78.3006 32.2377 78.2261 32.2062 78.1574C32.1747 78.0888 32.1291 78.0276 32.0724 77.9777C32.0142 77.931 31.9463 77.898 31.8736 77.8812C31.8009 77.8644 31.7254 77.8643 31.6526 77.8808C29.6239 78.3438 27.5789 77.0894 25.604 75.8726C23.107 74.3382 20.524 72.7499 17.9571 74.6558C17.4476 74.9868 17.013 75.4207 16.6813 75.9298C16.3495 76.4388 16.1278 77.0117 16.0306 77.6116C15.7454 79.9375 17.645 82.2633 19.3509 84.3146C20.3572 85.5368 21.5034 86.9258 21.3366 87.545C21.3181 87.6098 21.3134 87.6777 21.3226 87.7445C21.3319 87.8112 21.355 87.8753 21.3904 87.9326C21.4259 87.9904 21.4728 88.0403 21.5284 88.0792C21.5839 88.1181 21.6469 88.1452 21.7133 88.1588C22.3954 88.254 23.0903 88.1876 23.742 87.9649ZM31.2167 78.9468C30.9261 80.9873 29.5001 83.1409 27.2292 84.9445C25.5071 86.3067 23.5429 87.2058 22.3214 87.2273C22.2084 86.2367 21.2451 85.0737 20.1096 83.6847C18.5437 81.7895 16.7732 79.6414 17.01 77.7301C17.0898 77.2627 17.2678 76.8176 17.5322 76.4241C17.7965 76.0307 18.1413 75.6977 18.5437 75.4473C20.5778 73.9398 22.6658 75.2211 25.0874 76.7125C27.0408 77.9346 29.048 79.146 31.2167 78.9468Z" fill="#2AC6FA"/>
<path d="M28.6983 87.0174C29.4703 86.7788 30.1323 86.273 30.5656 85.5906C31.3297 84.4008 31.2598 83.0656 30.3988 82.3603C30.3506 82.3107 30.2925 82.2717 30.2283 82.2459C30.1642 82.2201 30.0953 82.2081 30.0262 82.2105C29.9571 82.213 29.8893 82.2299 29.8271 82.2602C29.7649 82.2904 29.7098 82.3334 29.6652 82.3863C29.6207 82.4392 29.5877 82.5009 29.5684 82.5673C29.5491 82.6337 29.5439 82.7035 29.5532 82.772C29.5625 82.8406 29.586 82.9064 29.6223 82.9653C29.6585 83.0242 29.7067 83.0749 29.7638 83.114C30.3019 83.5555 30.1512 84.4385 29.7369 85.0792C29.4391 85.5758 28.9626 85.9395 28.4052 86.0957C27.8478 86.2518 27.2517 86.1887 26.7395 85.919C26.6812 85.8911 26.6179 85.875 26.5534 85.8715C26.4888 85.868 26.4242 85.8773 26.3633 85.8988C26.3023 85.9203 26.2462 85.9536 26.1981 85.9968C26.15 86.04 26.1108 86.0922 26.0829 86.1506C26.055 86.2089 26.0389 86.2721 26.0354 86.3367C26.0319 86.4013 26.0412 86.4659 26.0627 86.5269C26.0841 86.5879 26.1174 86.6441 26.1606 86.6922C26.2038 86.7403 26.256 86.7795 26.3143 86.8074C27.0544 87.1745 27.9055 87.2495 28.6983 87.0174Z" fill="#2AC6FA"/>
<path d="M18.0325 75.781C18.1122 75.7592 18.1847 75.7164 18.2423 75.6571C18.3314 75.5657 18.3813 75.443 18.3813 75.3153C18.3813 75.1875 18.3314 75.0649 18.2423 74.9734C17.8898 74.6823 17.5136 74.4212 17.1176 74.1927C17.0068 74.1243 16.8735 74.1023 16.7466 74.1315C16.6196 74.1607 16.5094 74.2388 16.4396 74.3488C16.405 74.4035 16.3816 74.4646 16.3707 74.5284C16.3599 74.5922 16.3617 74.6575 16.3762 74.7206C16.3908 74.7837 16.4176 74.8432 16.4553 74.8959C16.4929 74.9485 16.5406 74.9931 16.5956 75.0272C16.9267 75.2219 17.2448 75.4377 17.5481 75.6733C17.6128 75.7314 17.6914 75.7718 17.7762 75.7906C17.861 75.8095 17.9493 75.8062 18.0325 75.781Z" fill="#2AC6FA"/>
<path d="M26.2876 74.7044C26.3702 74.6828 26.4449 74.6379 26.5029 74.5751C26.5955 74.4823 26.6476 74.3564 26.6476 74.2252C26.6476 74.094 26.5955 73.9681 26.5029 73.8752C25.5073 72.9223 22.666 71.9155 21.3099 71.7217C21.1807 71.7038 21.0498 71.738 20.9458 71.8168C20.8419 71.8955 20.7734 72.0124 20.7556 72.1416C20.7378 72.2708 20.772 72.4019 20.8507 72.5059C20.9294 72.6099 21.0462 72.6783 21.1753 72.6962C22.5153 72.8846 25.0607 73.8483 25.8248 74.5859C25.8857 74.6431 25.9601 74.684 26.041 74.7047C26.1219 74.7254 26.2068 74.7253 26.2876 74.7044Z" fill="#2AC6FA"/>
<path d="M20.0559 88.1911C20.1686 88.1576 20.2657 88.085 20.3298 87.9863C20.3939 87.8877 20.4208 87.7694 20.4057 87.6528C20.2765 86.2798 18.463 84.0724 18.2531 83.8248C18.1659 83.7374 18.0492 83.6858 17.9259 83.68C17.8026 83.6742 17.6816 83.7147 17.5867 83.7936C17.4917 83.8724 17.4295 83.9839 17.4125 84.1062C17.3954 84.2285 17.4246 84.3528 17.4944 84.4547C18.1993 85.3 19.3455 86.9421 19.4209 87.7443C19.4269 87.8087 19.4457 87.8714 19.4761 87.9285C19.5065 87.9857 19.5479 88.0362 19.5979 88.0773C19.648 88.1183 19.7056 88.1491 19.7676 88.1677C19.8296 88.1863 19.8946 88.1924 19.959 88.1858C19.9907 88.1938 20.0235 88.1956 20.0559 88.1911Z" fill="#2AC6FA"/>
<path d="M173.634 108.925C174.76 108.991 175.881 108.732 176.863 108.176C176.97 108.094 177.043 107.975 177.067 107.842C177.076 107.775 177.071 107.708 177.052 107.643C177.034 107.578 177.002 107.518 176.959 107.465C176.534 106.927 177.013 105.204 177.498 103.535C178.235 100.876 179.069 97.8659 177.815 95.7823C177.472 95.2555 177.022 94.8066 176.494 94.4644C175.967 94.1222 175.374 93.8944 174.753 93.7956C171.524 93.0796 169.743 95.6746 168.026 98.1836C166.66 100.176 165.244 102.238 163.119 102.652C163.045 102.667 162.975 102.698 162.915 102.744C162.855 102.79 162.806 102.849 162.772 102.916C162.739 102.984 162.721 103.058 162.72 103.134C162.72 103.209 162.736 103.284 162.769 103.352C163.904 105.694 166.536 107.546 170.05 108.445C171.22 108.753 172.424 108.914 173.634 108.925ZM175.948 107.573C174.78 108.085 172.52 108.063 170.292 107.492C167.359 106.739 165.088 105.285 163.947 103.454C166.1 102.733 167.488 100.703 168.834 98.7381C170.507 96.2938 171.949 94.1833 174.538 94.7594C175.028 94.8274 175.499 94.999 175.918 95.2625C176.337 95.5261 176.696 95.8758 176.97 96.2884C178.003 98.0113 177.234 100.806 176.55 103.288C176.061 105.091 175.641 106.593 175.964 107.573H175.948Z" fill="#2AC6FA"/>
<path d="M169.372 110.071C169.866 110.068 170.354 109.954 170.799 109.738C171.244 109.522 171.635 109.209 171.944 108.822C172.029 108.724 172.071 108.596 172.062 108.466C172.052 108.336 171.991 108.216 171.893 108.131C171.794 108.046 171.666 108.003 171.537 108.013C171.407 108.022 171.286 108.083 171.201 108.182C170.827 108.661 170.283 108.978 169.682 109.066C169.081 109.154 168.468 109.007 167.973 108.655C167.305 108.219 166.789 107.433 167.106 106.776C167.135 106.719 167.153 106.656 167.157 106.591C167.162 106.526 167.153 106.462 167.132 106.4C167.111 106.339 167.078 106.283 167.034 106.234C166.991 106.186 166.939 106.147 166.88 106.12C166.763 106.064 166.628 106.056 166.506 106.098C166.383 106.141 166.282 106.229 166.224 106.346C165.718 107.39 166.224 108.682 167.429 109.479C168.006 109.86 168.681 110.066 169.372 110.071Z" fill="#2AC6FA"/>
<path d="M175.114 94.8887C175.212 94.8893 175.308 94.8604 175.39 94.8057C175.471 94.7509 175.534 94.6729 175.571 94.5818C175.764 94.2313 175.976 93.8916 176.206 93.5642C176.254 93.5112 176.289 93.4485 176.31 93.3804C176.332 93.3123 176.338 93.2405 176.329 93.1698C176.319 93.0991 176.295 93.0312 176.257 92.9708C176.22 92.9103 176.169 92.8587 176.11 92.8196C176.05 92.7804 175.983 92.7545 175.912 92.7437C175.842 92.733 175.77 92.7375 175.702 92.7571C175.633 92.7767 175.57 92.8108 175.516 92.8572C175.461 92.9036 175.418 92.9611 175.388 93.0258C175.112 93.412 174.865 93.8187 174.651 94.2426C174.607 94.3654 174.614 94.5004 174.67 94.6183C174.725 94.7362 174.825 94.8276 174.947 94.8725C175.001 94.8853 175.058 94.8907 175.114 94.8887Z" fill="#2AC6FA"/>
<path d="M178.859 102.878C178.966 102.879 179.07 102.845 179.156 102.78C179.241 102.716 179.303 102.626 179.333 102.523C179.424 102.2 180.199 99.3681 180 98.006C179.983 97.8801 179.917 97.7661 179.816 97.6885C179.715 97.611 179.588 97.5761 179.462 97.5914C179.337 97.6114 179.225 97.6783 179.148 97.7783C179.071 97.8784 179.035 98.0041 179.048 98.1298C179.193 99.1097 178.633 101.425 178.407 102.232C178.372 102.358 178.388 102.492 178.452 102.606C178.515 102.72 178.621 102.804 178.746 102.841L178.859 102.878Z" fill="#2AC6FA"/>
<path d="M104.339 202C161.964 202 208.678 199.271 208.678 195.905C208.678 192.539 161.964 189.811 104.339 189.811C46.7141 189.811 0 192.539 0 195.905C0 199.271 46.7141 202 104.339 202Z" fill="#F5F5F5"/>
<path d="M87.0704 89.6212C88.1735 86.8324 90.4606 82.1214 94.1253 79.3056C94.4751 79.0364 95.1155 79.5533 95.024 80.0378C94.319 83.8389 95.3522 89.3305 95.772 91.2795C95.8581 91.6887 95.6375 92.0009 95.2715 91.9956L88.7332 91.9148C87.6892 91.904 86.6991 90.558 87.0704 89.6212Z" fill="#03516B"/>
<path opacity="0.3" d="M87.0704 89.6212C88.1735 86.8324 90.4606 82.1214 94.1253 79.3056C94.4751 79.0364 95.1155 79.5533 95.024 80.0378C94.319 83.8389 95.3522 89.3305 95.772 91.2795C95.8581 91.6887 95.6375 92.0009 95.2715 91.9956L88.7332 91.9148C87.6892 91.904 86.6991 90.558 87.0704 89.6212Z" fill="black"/>
<path d="M94.5072 108.244C99.8886 105.875 103.618 103.813 103.957 101.552C104.296 99.2906 104.097 95.8718 103.666 95.1988C103.838 95.2978 104.018 95.3824 104.204 95.4519C103.874 94.3899 103.153 93.4932 102.186 92.943C100.539 91.997 99.0365 90.8184 97.7253 89.4434C96.1109 87.7421 92.9789 86.0408 89.6533 86.8107C86.3276 87.5806 78.3955 89.6049 77.0448 95.5057C75.6941 101.407 77.8789 105.197 79.9346 107.189C81.9902 109.181 87.8989 111.146 94.5072 108.244Z" fill="#03516B"/>
<path d="M77.5936 98.4024C76.668 95.3982 75.3604 89.8904 75.9792 84.1834C76.0384 83.645 76.7219 83.3112 76.9425 83.7258C78.686 86.9562 82.4476 89.5243 83.8145 90.3696C83.9571 90.491 84.0477 90.6625 84.0677 90.8488C84.0877 91.0351 84.0356 91.222 83.9221 91.371L79.9238 98.1547C79.2726 99.2585 77.9004 99.4038 77.5936 98.4024Z" fill="#03516B"/>
<path opacity="0.3" d="M77.5936 98.4024C76.668 95.3982 75.3604 89.8904 75.9792 84.1834C76.0384 83.645 76.7219 83.3112 76.9425 83.7258C78.686 86.9562 82.4476 89.5243 83.8145 90.3696C83.9571 90.491 84.0477 90.6625 84.0677 90.8488C84.0877 91.0351 84.0356 91.222 83.9221 91.371L79.9238 98.1547C79.2726 99.2585 77.9004 99.4038 77.5936 98.4024Z" fill="black"/>
<path d="M106.201 180.922C111.927 183.743 117.313 188.815 132.699 188.761C143.321 188.729 153.148 182.699 155.268 183.953C157.388 185.208 150.269 190.549 140.351 192.53C127.667 195.06 113.724 193.569 109.618 191.588C105.512 189.606 98.4194 189.563 98.4194 189.563L106.201 180.922Z" fill="#03516B"/>
<path opacity="0.3" d="M106.201 180.922C111.927 183.743 117.313 188.815 132.699 188.761C143.321 188.729 153.148 182.699 155.268 183.953C157.388 185.208 150.269 190.549 140.351 192.53C127.667 195.06 113.724 193.569 109.618 191.588C105.512 189.606 98.4194 189.563 98.4194 189.563L106.201 180.922Z" fill="black"/>
<path d="M102.558 102.096C103.16 103.173 105.926 104.072 106.793 105.902C107.659 107.733 111.173 120.197 110.834 123.422C110.495 126.647 109.22 137.996 110.549 141.975C111.878 145.953 113.24 152.742 113.051 157.636C112.863 162.53 117.798 177.789 117.157 182.666C116.517 187.544 120.876 189.859 120.682 193.133C120.488 196.406 114.52 195.889 112.373 195.889C110.226 195.889 106.696 194.479 106.825 192.331C106.839 190.909 106.389 189.522 105.544 188.379C105.544 188.379 102.315 193.386 94.4425 193.386H79.2402C77.0554 193.386 74.7468 189.154 82.0601 188.061C77.3137 185.751 72.2445 181.514 75.1343 175.35C78.0241 169.185 79.6869 164.119 79.2402 161.615C78.7936 159.112 78.6591 154.428 80.1389 151.536C81.6188 148.645 84.5624 141.716 82.5121 138.19C80.4618 134.663 80.8977 117.327 81.0968 113.219C81.2959 109.111 79.7676 107.684 79.2564 107.038C79.3139 107.575 79.4147 108.106 79.5577 108.627C79.5577 108.627 76.6411 104.411 77.6043 101.891C78.5676 99.3715 102.558 102.096 102.558 102.096Z" fill="#03516B"/>
<path d="M108.719 120.681C109.634 122.668 109.57 125.236 110.872 123.185C112.174 121.133 115.925 114.102 116.888 112.75C117.851 111.399 121.059 107.135 122.054 104.825C123.05 102.516 124.745 92.2377 125.558 90.5256C126.37 88.8135 128.34 88.2966 127.635 85.8254C126.93 83.3542 124.266 80.8184 121.505 82.2613C118.745 83.7041 118.46 88.2643 117.561 90.7356C116.662 93.2068 115.408 98.4292 114.515 99.0753C113.622 99.7214 108.805 101.423 107.202 101.293C105.598 101.164 102.611 99.8183 102.45 101.649C102.289 103.479 107.401 117.822 108.719 120.681Z" fill="#03516B"/>
<path d="M126.979 85.0662C128.087 83.9895 129.578 83.7902 130.105 85.0662C130.632 86.3422 126.979 88.2966 126.979 88.2966V85.0662Z" fill="#03516B"/>
<path d="M124.934 83.3435C125.558 81.7283 128.41 79.8978 129.626 81.3622C130.589 82.5305 127.086 85.6155 127.086 85.6155L124.934 83.3435Z" fill="#03516B"/>
<path d="M123.378 82.1751C123.378 80.4253 125.413 77.7226 127.07 78.6648C128.383 79.4185 126.193 83.5103 126.193 83.5103L123.378 82.1751Z" fill="#03516B"/>
<path d="M120.483 83.3811C119.805 81.3083 120.634 78.0671 122.533 78.0671C124.336 78.0671 124.148 82.8804 124.148 82.8804L120.483 83.3811Z" fill="#03516B"/>
<path d="M118.799 87.3113C117.631 85.7769 117.378 82.8373 118.966 82.2827C120.467 81.7443 121.688 85.8361 121.688 85.8361L118.799 87.3113Z" fill="#03516B"/>
<path d="M89.6911 137.883C89.3036 139.676 89.8256 141.759 88.4049 140.316C86.9843 138.873 83.7824 131.869 81.3069 132.483C79.1544 133.021 77.4754 129.861 75.9256 127.357C74.817 125.57 71.4376 117.558 70.4582 116.315C69.4787 115.071 67.7675 114.996 67.902 112.848C68.0365 110.699 69.6025 105.687 72.0726 106.527C74.5426 107.367 76.2592 110.899 77.3194 112.826C78.3795 114.753 79.5526 114.635 82.0603 114.005C83.8821 113.56 85.6233 112.834 87.221 111.851C88.2973 111.049 90.2131 110.888 91.1387 112.115C92.0642 113.343 90.2454 135.309 89.6911 137.883Z" fill="#03516B"/>
<path d="M68.7739 112.018C67.6546 110.941 66.0833 109.983 65.981 111.361C65.8196 113.348 69.6726 115.442 69.6726 115.442L68.7739 112.018Z" fill="#03516B"/>
<path d="M70.8725 110.215C69.9092 108.756 66.7342 107.609 65.8678 109.305C65.1736 110.656 69.2688 112.901 69.2688 112.901L70.8725 110.215Z" fill="#03516B"/>
<path d="M71.7283 108.74C71.3409 107.027 68.774 104.836 67.364 106.118C66.2447 107.135 69.2798 110.683 69.2798 110.683L71.7283 108.74Z" fill="#03516B"/>
<path d="M73.7676 109.692C73.9774 107.539 72.4653 104.545 70.6087 104.96C68.849 105.348 70.1083 109.999 70.1083 109.999L73.7676 109.692Z" fill="#03516B"/>
<path d="M75.6134 111.948C76.4152 110.204 76.0224 107.275 74.3542 107.103C72.7721 106.92 72.4707 111.162 72.4707 111.162L75.6134 111.948Z" fill="#03516B"/>
<path opacity="0.7" d="M126.182 86.4447C126.628 84.8295 125.784 83.5912 124.245 82.9775C122.587 82.3152 120.757 83.3005 121.016 84.3127C121.269 85.2279 122.388 85.0933 123.233 85.5994C123.846 85.944 125.229 89.9066 126.182 86.4447Z" fill="#FAFAFA"/>
<path opacity="0.7" d="M128.942 85.1362C129.023 84.3933 128.027 84.4471 127.522 84.9101C127.016 85.3731 126.983 86.1807 127.651 86.0354C128.318 85.89 128.878 85.7285 128.942 85.1362Z" fill="#FAFAFA"/>
<path opacity="0.7" d="M119.235 83.4404C119.665 82.9504 120.22 83.6288 120.214 84.2264C120.209 84.824 119.708 85.3032 119.412 84.8079C119.116 84.3126 118.869 83.8334 119.235 83.4404Z" fill="#FAFAFA"/>
<path opacity="0.7" d="M128.221 82.3258C128.221 81.5182 127.145 81.712 126.666 82.2827C126.187 82.8534 126.273 83.7149 126.951 83.4726C127.629 83.2303 128.238 82.9773 128.221 82.3258Z" fill="#FAFAFA"/>
<path opacity="0.7" d="M122.367 79.7524C121.651 79.3809 121.29 80.4093 121.586 81.0984C121.882 81.7876 122.663 82.1321 122.77 81.4161C122.878 80.7 122.942 80.0486 122.367 79.7524Z" fill="#FAFAFA"/>
<path opacity="0.7" d="M126.268 79.8654C125.821 79.0363 124.82 79.8008 124.627 80.646C124.433 81.4913 124.982 82.342 125.558 81.7228C126.133 81.1037 126.623 80.5599 126.268 79.8654Z" fill="#FAFAFA"/>
<path opacity="0.7" d="M69.6618 112.923C69.5163 112.617 69.4342 112.285 69.4201 111.947C69.4061 111.608 69.4605 111.271 69.5801 110.954C69.6997 110.637 69.8821 110.348 70.1162 110.103C70.3503 109.859 70.6314 109.664 70.9425 109.531C72.3363 108.804 74.0852 109.622 73.9668 110.608C73.8592 111.485 72.8475 111.431 72.1587 111.959C71.6744 112.325 70.9748 116.137 69.6618 112.923Z" fill="#FAFAFA"/>
<path opacity="0.7" d="M67.0301 111.749C66.9494 111.098 67.8266 111.125 68.2732 111.528C68.7199 111.932 68.7575 112.632 68.1817 112.514C67.6059 112.395 67.0947 112.271 67.0301 111.749Z" fill="#FAFAFA"/>
<path opacity="0.7" d="M74.6933 108.174C74.0529 107.814 73.7838 108.535 74.0421 109.073C74.3004 109.612 75.0162 109.962 75.1184 109.445C75.2207 108.928 75.2099 108.46 74.6933 108.174Z" fill="#FAFAFA"/>
<path opacity="0.7" d="M67.321 109.413C67.2618 108.707 68.2143 108.777 68.6825 109.235C69.1507 109.693 69.156 110.452 68.5372 110.312C67.9183 110.172 67.3694 109.983 67.321 109.413Z" fill="#FAFAFA"/>
<path opacity="0.7" d="M71.2707 105.918C71.7496 105.38 72.3469 106.139 72.3469 106.791C72.3469 107.442 71.7765 107.97 71.4698 107.41C71.163 106.85 70.8886 106.338 71.2707 105.918Z" fill="#FAFAFA"/>
<path opacity="0.7" d="M68.6714 106.882C68.9835 106.117 69.9307 106.699 70.1728 107.42C70.415 108.142 70.0168 108.933 69.4571 108.449C68.8974 107.964 68.4185 107.48 68.6714 106.882Z" fill="#FAFAFA"/>
<path opacity="0.2" d="M86.6935 142.728C86.371 138.519 86.8812 134.287 88.1949 130.275C89.8093 125.204 86.2845 118.318 93.6839 115.443C100.228 112.901 103.908 129.597 101.686 134.825C99.4634 140.053 99.5334 150.045 100.47 154.352C101.406 158.659 102.832 163.203 102.531 168.641C102.229 174.079 101.697 178.742 100.432 182.979C99.1675 187.216 95.1799 188.169 93.6301 186.349C91.2569 183.555 86.2415 174.698 88.6577 166.606C91.0362 158.692 86.9733 146.982 86.6935 142.728Z" fill="#FAFAFA"/>
<path opacity="0.1" d="M85.9992 97.5085C81.2367 98.8975 85.0198 90.7462 88.9428 90.4501C92.8658 90.154 99.5225 93.5566 85.9992 97.5085Z" fill="black"/>
<path opacity="0.3" d="M89.368 94.1115C89.1312 92.9647 89.5079 91.5164 91.1762 91.5433C91.7251 91.5487 93.6462 94.273 89.368 94.1115Z" fill="#BDBDBD"/>
<path d="M97.5802 91.6079C97.1389 90.6818 97.1497 89.6696 98.5327 90.0304C98.9847 90.1542 101.11 92.6093 97.5802 91.6079Z" fill="#03516B"/>
<path opacity="0.3" d="M97.5802 91.6079C97.1389 90.6818 97.1497 89.6696 98.5327 90.0304C98.9847 90.1542 101.11 92.6093 97.5802 91.6079Z" fill="#BDBDBD"/>
<path opacity="0.7" d="M98.355 92.4854C97.2464 92.4854 96.6706 92.6792 96.6114 93.3522C96.5522 94.0252 98.2258 94.429 98.5648 94.0467C98.9039 93.6644 99.3828 92.5015 98.355 92.4854Z" fill="#FAFAFA"/>
</svg>
