<svg width="35" height="35" viewBox="0 0 35 35" fill="none" xmlns="http://www.w3.org/2000/svg">
<path d="M22.9688 8.75H12.0312C11.7412 8.75 11.463 8.63477 11.2579 8.42965C11.0527 8.22453 10.9375 7.94633 10.9375 7.65625C10.9375 7.36617 11.0527 7.08797 11.2579 6.88285C11.463 6.67773 11.7412 6.5625 12.0312 6.5625H22.9688C23.2588 6.5625 23.537 6.67773 23.7421 6.88285C23.9473 7.08797 24.0625 7.36617 24.0625 7.65625C24.0625 7.94633 23.9473 8.22453 23.7421 8.42965C23.537 8.63477 23.2588 8.75 22.9688 8.75Z" fill="#E3115D"/>
<path d="M22.9688 13.125H12.0312C11.7412 13.125 11.463 13.0098 11.2579 12.8046C11.0527 12.5995 10.9375 12.3213 10.9375 12.0312C10.9375 11.7412 11.0527 11.463 11.2579 11.2579C11.463 11.0527 11.7412 10.9375 12.0312 10.9375H22.9688C23.2588 10.9375 23.537 11.0527 23.7421 11.2579C23.9473 11.463 24.0625 11.7412 24.0625 12.0312C24.0625 12.3213 23.9473 12.5995 23.7421 12.8046C23.537 13.0098 23.2588 13.125 22.9688 13.125Z" fill="#E3115D"/>
<path d="M22.9688 17.5H12.0312C11.7412 17.5 11.463 17.3848 11.2579 17.1796C11.0527 16.9745 10.9375 16.6963 10.9375 16.4062C10.9375 16.1162 11.0527 15.838 11.2579 15.6329C11.463 15.4277 11.7412 15.3125 12.0312 15.3125H22.9688C23.2588 15.3125 23.537 15.4277 23.7421 15.6329C23.9473 15.838 24.0625 16.1162 24.0625 16.4062C24.0625 16.6963 23.9473 16.9745 23.7421 17.1796C23.537 17.3848 23.2588 17.5 22.9688 17.5Z" fill="#E3115D"/>
<path d="M22.9688 21.875H12.0312C11.7412 21.875 11.463 21.7598 11.2579 21.5546C11.0527 21.3495 10.9375 21.0713 10.9375 20.7812C10.9375 20.4912 11.0527 20.213 11.2579 20.0079C11.463 19.8027 11.7412 19.6875 12.0312 19.6875H22.9688C23.2588 19.6875 23.537 19.8027 23.7421 20.0079C23.9473 20.213 24.0625 20.4912 24.0625 20.7812C24.0625 21.0713 23.9473 21.3495 23.7421 21.5546C23.537 21.7598 23.2588 21.875 22.9688 21.875Z" fill="#E3115D"/>
<path d="M7.65625 17.5H5.46875C5.17867 17.5 4.90047 17.3848 4.69535 17.1796C4.49023 16.9745 4.375 16.6963 4.375 16.4062C4.375 16.1162 4.49023 15.838 4.69535 15.6329C4.90047 15.4277 5.17867 15.3125 5.46875 15.3125H7.65625C7.94633 15.3125 8.22453 15.4277 8.42965 15.6329C8.63477 15.838 8.75 16.1162 8.75 16.4062C8.75 16.6963 8.63477 16.9745 8.42965 17.1796C8.22453 17.3848 7.94633 17.5 7.65625 17.5Z" fill="#E3115D"/>
<path d="M7.65625 21.875H5.46875C5.17867 21.875 4.90047 21.7598 4.69535 21.5546C4.49023 21.3495 4.375 21.0713 4.375 20.7812C4.375 20.4912 4.49023 20.213 4.69535 20.0079C4.90047 19.8027 5.17867 19.6875 5.46875 19.6875H7.65625C7.94633 19.6875 8.22453 19.8027 8.42965 20.0079C8.63477 20.213 8.75 20.4912 8.75 20.7812C8.75 21.0713 8.63477 21.3495 8.42965 21.5546C8.22453 21.7598 7.94633 21.875 7.65625 21.875Z" fill="#E3115D"/>
<path d="M29.5312 17.5H27.3438C27.0537 17.5 26.7755 17.3848 26.5704 17.1796C26.3652 16.9745 26.25 16.6963 26.25 16.4062C26.25 16.1162 26.3652 15.838 26.5704 15.6329C26.7755 15.4277 27.0537 15.3125 27.3438 15.3125H29.5312C29.8213 15.3125 30.0995 15.4277 30.3046 15.6329C30.5098 15.838 30.625 16.1162 30.625 16.4062C30.625 16.6963 30.5098 16.9745 30.3046 17.1796C30.0995 17.3848 29.8213 17.5 29.5312 17.5Z" fill="#E3115D"/>
<path d="M29.5312 21.875H27.3438C27.0537 21.875 26.7755 21.7598 26.5704 21.5546C26.3652 21.3495 26.25 21.0713 26.25 20.7812C26.25 20.4912 26.3652 20.213 26.5704 20.0079C26.7755 19.8027 27.0537 19.6875 27.3438 19.6875H29.5312C29.8213 19.6875 30.0995 19.8027 30.3046 20.0079C30.5098 20.213 30.625 20.4912 30.625 20.7812C30.625 21.0713 30.5098 21.3495 30.3046 21.5546C30.0995 21.7598 29.8213 21.875 29.5312 21.875Z" fill="#E3115D"/>
<path d="M13.125 32.8125H7.65625C7.36617 32.8125 7.08797 32.6973 6.88285 32.4921C6.67773 32.287 6.5625 32.0088 6.5625 31.7188V5.46875C6.5625 4.59851 6.9082 3.76391 7.52356 3.14856C8.13891 2.5332 8.97351 2.1875 9.84375 2.1875H25.1562C26.0265 2.1875 26.8611 2.5332 27.4764 3.14856C28.0918 3.76391 28.4375 4.59851 28.4375 5.46875V7.65625C28.4375 7.94633 28.3223 8.22453 28.1171 8.42965C27.912 8.63477 27.6338 8.75 27.3438 8.75C27.0537 8.75 26.7755 8.63477 26.5704 8.42965C26.3652 8.22453 26.25 7.94633 26.25 7.65625V5.46875C26.25 5.17867 26.1348 4.90047 25.9296 4.69535C25.7245 4.49023 25.4463 4.375 25.1562 4.375H9.84375C9.55367 4.375 9.27547 4.49023 9.07035 4.69535C8.86523 4.90047 8.75 5.17867 8.75 5.46875V30.625H13.125C13.4151 30.625 13.6933 30.7402 13.8984 30.9454C14.1035 31.1505 14.2188 31.4287 14.2188 31.7188C14.2188 32.0088 14.1035 32.287 13.8984 32.4921C13.6933 32.6973 13.4151 32.8125 13.125 32.8125Z" fill="#E1D9C3"/>
<path d="M27.3438 32.8125H17.5C17.2099 32.8125 16.9317 32.6973 16.7266 32.4921C16.5215 32.287 16.4062 32.0088 16.4062 31.7188C16.4062 31.4287 16.5215 31.1505 16.7266 30.9454C16.9317 30.7402 17.2099 30.625 17.5 30.625H26.25V15.3125C26.25 15.0224 26.3652 14.7442 26.5704 14.5391C26.7755 14.334 27.0537 14.2188 27.3438 14.2188C27.6338 14.2188 27.912 14.334 28.1171 14.5391C28.3223 14.7442 28.4375 15.0224 28.4375 15.3125V31.7188C28.4375 32.0088 28.3223 32.287 28.1171 32.4921C27.912 32.6973 27.6338 32.8125 27.3438 32.8125Z" fill="#E1D9C3"/>
<path d="M7.65625 32.8125H1.09375C0.803669 32.8125 0.52547 32.6973 0.320352 32.4921C0.115234 32.287 0 32.0088 0 31.7188V14.2188C0 13.3485 0.345702 12.5139 0.961056 11.8986C1.57641 11.2832 2.41101 10.9375 3.28125 10.9375H7.65625C7.94633 10.9375 8.22453 11.0527 8.42965 11.2579C8.63477 11.463 8.75 11.7412 8.75 12.0312V31.7188C8.75 32.0088 8.63477 32.287 8.42965 32.4921C8.22453 32.6973 7.94633 32.8125 7.65625 32.8125ZM2.1875 30.625H6.5625V13.125H3.28125C2.99117 13.125 2.71297 13.2402 2.50785 13.4454C2.30273 13.6505 2.1875 13.9287 2.1875 14.2188V30.625Z" fill="#E1D9C3"/>
<path d="M33.9062 32.8125H27.3438C27.0537 32.8125 26.7755 32.6973 26.5704 32.4921C26.3652 32.287 26.25 32.0088 26.25 31.7188V12.0312C26.25 11.7412 26.3652 11.463 26.5704 11.2579C26.7755 11.0527 27.0537 10.9375 27.3438 10.9375H31.7188C32.589 10.9375 33.4236 11.2832 34.0389 11.8986C34.6543 12.5139 35 13.3485 35 14.2188V31.7188C35 32.0088 34.8848 32.287 34.6796 32.4921C34.4745 32.6973 34.1963 32.8125 33.9062 32.8125ZM28.4375 30.625H32.8125V14.2188C32.8125 13.9287 32.6973 13.6505 32.4921 13.4454C32.287 13.2402 32.0088 13.125 31.7188 13.125H28.4375V30.625Z" fill="#E1D9C3"/>
<path d="M21.875 32.8125C21.5849 32.8125 21.3067 32.6973 21.1016 32.4921C20.8965 32.287 20.7812 32.0088 20.7812 31.7188V26.25H14.2188V31.7188C14.2188 32.0088 14.1035 32.287 13.8984 32.4921C13.6933 32.6973 13.4151 32.8125 13.125 32.8125C12.8349 32.8125 12.5567 32.6973 12.3516 32.4921C12.1465 32.287 12.0312 32.0088 12.0312 31.7188V26.25C12.0312 25.6698 12.2617 25.1134 12.672 24.7032C13.0822 24.293 13.6386 24.0625 14.2188 24.0625H20.7812C21.3614 24.0625 21.9178 24.293 22.328 24.7032C22.7383 25.1134 22.9688 25.6698 22.9688 26.25V31.7188C22.9688 32.0088 22.8535 32.287 22.6484 32.4921C22.4433 32.6973 22.1651 32.8125 21.875 32.8125Z" fill="#E1D9C3"/>
</svg>
