<svg width="34" height="34" viewBox="0 0 34 34" fill="none" xmlns="http://www.w3.org/2000/svg">
<rect width="34" height="34" rx="17" fill="#FF8947" fill-opacity="0.15"/>
<path d="M11.1665 15.3337H12.8332C14.4998 15.3337 15.3332 14.5003 15.3332 12.8337V11.167C15.3332 9.50033 14.4998 8.66699 12.8332 8.66699H11.1665C9.49984 8.66699 8.6665 9.50033 8.6665 11.167V12.8337C8.6665 14.5003 9.49984 15.3337 11.1665 15.3337Z" stroke="#FF8947" stroke-width="1.5" stroke-miterlimit="10" stroke-linecap="round" stroke-linejoin="round"/>
<path d="M21.1665 15.3337H22.8332C24.4998 15.3337 25.3332 14.5003 25.3332 12.8337V11.167C25.3332 9.50033 24.4998 8.66699 22.8332 8.66699H21.1665C19.4998 8.66699 18.6665 9.50033 18.6665 11.167V12.8337C18.6665 14.5003 19.4998 15.3337 21.1665 15.3337Z" stroke="#FF8947" stroke-width="1.5" stroke-miterlimit="10" stroke-linecap="round" stroke-linejoin="round"/>
<path d="M21.1665 25.3337H22.8332C24.4998 25.3337 25.3332 24.5003 25.3332 22.8337V21.167C25.3332 19.5003 24.4998 18.667 22.8332 18.667H21.1665C19.4998 18.667 18.6665 19.5003 18.6665 21.167V22.8337C18.6665 24.5003 19.4998 25.3337 21.1665 25.3337Z" stroke="#FF8947" stroke-width="1.5" stroke-miterlimit="10" stroke-linecap="round" stroke-linejoin="round"/>
<path d="M11.1665 25.3337H12.8332C14.4998 25.3337 15.3332 24.5003 15.3332 22.8337V21.167C15.3332 19.5003 14.4998 18.667 12.8332 18.667H11.1665C9.49984 18.667 8.6665 19.5003 8.6665 21.167V22.8337C8.6665 24.5003 9.49984 25.3337 11.1665 25.3337Z" stroke="#FF8947" stroke-width="1.5" stroke-miterlimit="10" stroke-linecap="round" stroke-linejoin="round"/>
</svg>
