<svg width="210" height="202" viewBox="0 0 210 202" fill="none" xmlns="http://www.w3.org/2000/svg">
<g clip-path="url(#clip0_694_84572)">
<path d="M104.249 92.604V92.5621L104.082 92.5203L104.207 92.604H104.249Z" fill="#F5F5F5"/>
<path d="M98.7664 53.3901L104.291 92.1852L109.773 53.3901C109.815 53.3901 109.815 53.3901 109.857 53.3901L117.18 1.11909C113.079 0.575037 108.852 0.240234 104.584 0.240234C99.98 0.240234 95.502 0.575036 91.0659 1.24464L98.599 53.3901C98.6827 53.3901 98.7245 53.3901 98.7664 53.3901Z" fill="#F5F5F5"/>
<path d="M120.738 56.5708L104.417 92.4783L164.597 22.5884C157.985 16.8549 150.535 12.0839 142.5 8.40112L120.654 56.5289C120.654 56.5708 120.696 56.5708 120.738 56.5708Z" fill="#F5F5F5"/>
<path d="M66.4165 81.4716L104.04 92.4782H103.872L104.249 92.6038H104.291V92.5619L104.333 92.6038H104.291L104.333 92.6456H104.375L104.542 92.7293L104.417 92.6456L142.249 103.736C142.249 103.778 142.249 103.778 142.207 103.82L192.344 118.551C194.855 110.306 196.194 101.602 196.278 92.5201H143.798C143.798 92.5619 143.798 92.5619 143.798 92.6038L104.375 92.6456V92.6038L104.542 92.5619L104.417 92.6456L104.751 92.5619H104.584L192.679 66.4892C190.21 57.9099 186.485 49.8328 181.756 42.509L104.584 92.5201H104.458L104.5 92.4364L104.417 92.5201L104.458 92.3108L104.375 92.4782V92.5201L104.333 92.5619V92.5201H104.291V92.4782L104.207 92.3108L104.249 92.4782L104.165 92.4364L104.207 92.4782H104.082L27.1191 42.9694C22.4737 50.2932 18.8327 58.3284 16.4473 66.8659L66.4165 81.4716Z" fill="#F5F5F5"/>
<path d="M78.3856 62.681L104.207 92.4365L87.8437 56.5708L65.956 8.77783C57.9626 12.5025 50.597 17.3571 44.0684 23.0906L78.3856 62.681Z" fill="#F5F5F5"/>
<path d="M181.253 142.238L137.562 114.031C137.562 114.031 137.562 114.073 137.52 114.073L104.458 92.7712L130.238 122.485C130.196 122.485 130.196 122.527 130.154 122.527L164.011 161.657C170.665 156.049 176.44 149.52 181.253 142.238Z" fill="#F5F5F5"/>
<path d="M104.249 92.6038V92.6456V92.6038V92.6456H104.291H104.249L104.291 92.6038V92.6456V92.6038H104.249Z" fill="#F5F5F5"/>
<path d="M104.082 92.6875L104.249 92.6456V92.6038L104.082 92.6875Z" fill="#F5F5F5"/>
<path d="M104.123 92.7712L71.1452 114.157C71.1034 114.115 71.1034 114.073 71.0615 114.031L27.8721 142.029C32.6011 149.269 38.3765 155.84 44.9051 161.448L83.4492 116.835L104.123 92.7712Z" fill="#F5F5F5"/>
<path d="M66.4164 103.82L104.207 92.6458L12.9736 92.7295C13.0573 101.685 14.3965 110.307 16.8657 118.467L66.4164 103.82Z" fill="#F5F5F5"/>
<path d="M66.6675 175.384C74.4098 178.899 82.7798 181.41 91.4847 182.666L104.207 92.8967L66.6675 175.384Z" fill="#F5F5F5"/>
<path d="M117.223 182.707C125.969 181.494 134.339 179.066 142.124 175.551L104.417 92.8967L117.223 182.707Z" fill="#F5F5F5"/>
<path d="M104.249 92.7712L104.291 93.0642L104.333 92.7712L104.291 92.6875L104.249 92.7712Z" fill="#F5F5F5"/>
<path d="M104.416 199.945C152.608 199.945 191.674 198.803 191.674 197.395C191.674 195.986 152.608 194.844 104.416 194.844C56.2253 194.844 17.1587 195.986 17.1587 197.395C17.1587 198.803 56.2253 199.945 104.416 199.945Z" fill="#F5F5F5"/>
<path d="M128.606 46.0664C128.606 46.0664 141.873 74.5246 131.912 101.016C121.91 127.549 85.2074 165.549 81.1061 167.558C81.1061 167.558 90.5224 152.743 73.3219 152.868C56.1215 152.994 47.5003 148.809 45.6171 142.782C43.7757 136.756 53.9871 117.296 44.5708 112.608C35.1964 107.921 23.7294 109.344 16.0708 102.857C16.0708 102.857 33.9827 101.351 47.1655 100.011C61.018 98.5885 102.701 69.5862 106.049 48.2426" fill="#2AC6FA"/>
<g opacity="0.4">
<path d="M128.606 46.0664C128.606 46.0664 141.873 74.5246 131.912 101.016C121.91 127.549 85.2074 165.549 81.1061 167.558C81.1061 167.558 90.5224 152.743 73.3219 152.868C56.1215 152.994 47.5003 148.809 45.6171 142.782C43.7757 136.756 53.9871 117.296 44.5708 112.608C35.1964 107.921 23.7294 109.344 16.0708 102.857C16.0708 102.857 33.9827 101.351 47.1655 100.011C61.018 98.5885 102.701 69.5862 106.049 48.2426" fill="#03516B"/>
</g>
<path d="M80.2689 95.073C80.2689 95.073 80.1852 95.1567 80.0178 95.2404C79.8504 95.3659 79.5993 95.5334 79.3064 95.7008C78.7205 96.1193 77.7998 96.6633 76.7117 97.3748C74.4936 98.7558 71.3548 100.514 67.7557 102.229C64.1566 103.945 60.8086 105.284 58.3394 106.163C57.1257 106.624 56.1213 106.958 55.4099 107.168C55.0751 107.251 54.824 107.335 54.6147 107.419C54.4473 107.461 54.3218 107.503 54.3218 107.503C54.3218 107.503 54.4055 107.461 54.5729 107.377C54.7821 107.293 55.0332 107.21 55.368 107.084C56.0376 106.833 57.042 106.498 58.2557 106.038C60.683 105.117 64.031 103.778 67.6302 102.062C71.2293 100.346 74.3681 98.5884 76.628 97.2492C77.7579 96.5796 78.6368 96.0356 79.2645 95.6589C79.5575 95.4915 79.8086 95.3241 79.976 95.2404C80.1852 95.1148 80.2689 95.073 80.2689 95.073Z" fill="#263238"/>
<path d="M91.5688 110.851C91.5688 110.851 91.4851 110.934 91.2758 111.06C91.0666 111.227 90.7736 111.395 90.4388 111.688C89.7274 112.232 88.6811 112.985 87.3837 113.948C84.8309 115.873 81.3155 118.635 77.6326 121.857C73.9498 125.08 70.7692 128.177 68.5093 130.437C67.3793 131.566 66.4586 132.529 65.8727 133.157C65.5798 133.45 65.3287 133.701 65.1613 133.91C64.9939 134.077 64.9102 134.161 64.9102 134.161C64.9102 134.161 64.9939 134.077 65.1194 133.868C65.2868 133.659 65.5379 133.408 65.789 133.115C66.3749 132.445 67.2956 131.483 68.3837 130.353C70.6018 128.051 73.7824 124.912 77.4652 121.69C81.1481 118.467 84.6635 115.747 87.2582 113.822C88.5555 112.859 89.6018 112.106 90.3551 111.604C90.7318 111.353 90.9829 111.185 91.234 111.018C91.4851 110.934 91.5688 110.851 91.5688 110.851Z" fill="#263238"/>
<path d="M90.0619 115.538C90.0619 115.538 90.0201 115.58 89.9364 115.705C89.8108 115.831 89.6853 115.956 89.5597 116.124C89.2249 116.5 88.7227 117.003 88.095 117.63C86.8395 118.886 85.0399 120.56 82.9892 122.317C80.9386 124.075 78.9716 125.582 77.5487 126.67C76.8372 127.214 76.2513 127.632 75.8328 127.884C75.6236 128.009 75.498 128.135 75.3725 128.218C75.2469 128.302 75.2051 128.344 75.2051 128.302C75.2051 128.302 75.2469 128.26 75.3725 128.177C75.498 128.093 75.6236 127.967 75.8328 127.842C76.2513 127.507 76.8372 127.088 77.5068 126.544C78.9298 125.456 80.813 123.908 82.9055 122.15C84.9562 120.392 86.7557 118.718 88.0531 117.505C88.6809 116.919 89.1831 116.417 89.5597 116.04C89.7271 115.873 89.8527 115.747 89.9782 115.663C89.9782 115.58 90.0619 115.496 90.0619 115.538Z" fill="#263238"/>
<path d="M87.8022 182.707L85.6678 192.417L81.7757 199.573C81.4828 200.075 81.692 200.745 82.2361 200.996C82.529 201.121 82.8638 201.121 83.1568 200.954C84.9563 199.908 91.6524 196.016 91.7361 195.304C91.8616 194.467 94.6656 185.218 94.6656 185.218L87.8022 182.707Z" fill="#263238"/>
<path d="M92.0707 194.342C92.0707 194.342 91.9451 194.467 91.694 194.635C91.401 194.844 91.0662 195.053 90.6477 195.346C89.727 195.974 88.5134 196.769 87.1742 197.69C85.835 198.568 84.6213 199.405 83.7006 200.033C83.2821 200.326 82.9473 200.535 82.6543 200.745C82.4032 200.912 82.2777 200.996 82.2358 200.996C82.2358 200.996 82.3614 200.87 82.6125 200.703C82.8636 200.535 83.1984 200.242 83.6169 199.95C84.4958 199.322 85.7094 198.485 87.0486 197.564C88.3878 196.643 89.6433 195.848 90.564 195.304C91.0244 195.011 91.401 194.802 91.6521 194.635C91.9451 194.383 92.0707 194.3 92.0707 194.342Z" fill="#455A64"/>
<path d="M130.782 185.009L130.196 192.751C130.196 192.751 137.855 195.932 137.897 197.397H122.831L123.249 184.716L130.782 185.009Z" fill="#263238"/>
<path d="M137.436 196.894C137.436 196.894 137.227 196.894 136.85 196.894C136.432 196.894 135.93 196.853 135.26 196.853C133.921 196.811 132.08 196.769 130.071 196.727C128.062 196.685 126.22 196.685 124.881 196.727C124.254 196.727 123.709 196.727 123.291 196.727C122.914 196.727 122.705 196.727 122.705 196.685C122.705 196.685 122.914 196.643 123.291 196.643C123.668 196.602 124.212 196.602 124.881 196.56C126.22 196.518 128.062 196.476 130.071 196.518C132.08 196.56 133.921 196.643 135.26 196.727C135.93 196.769 136.474 196.811 136.85 196.853C137.227 196.853 137.436 196.853 137.436 196.894Z" fill="#455A64"/>
<path d="M97.0511 107.084L83.7427 189.236L95.9629 189.989L114.837 107.084H97.0511Z" fill="#2AC6FA"/>
<path d="M115.047 103.527L121.199 189.989H132.666V98.4209L115.047 103.527Z" fill="#2AC6FA"/>
<path d="M128.523 184.591C128.481 184.591 127.518 167.474 126.43 146.34C125.342 125.205 124.505 108.088 124.589 108.088C124.631 108.088 125.593 125.205 126.681 146.34C127.769 167.432 128.606 184.591 128.523 184.591Z" fill="#263238"/>
<path d="M132.666 184.59C132.624 184.632 132.624 184.632 132.582 184.632C132.498 184.632 132.373 184.674 132.247 184.716C131.954 184.758 131.536 184.842 130.992 184.883C129.903 185.009 128.439 185.176 126.807 185.302C123.542 185.595 120.864 185.72 120.864 185.553C120.864 185.553 120.906 185.553 120.989 185.553C121.073 185.553 121.199 185.553 121.324 185.553C121.659 185.511 122.077 185.511 122.58 185.469C123.71 185.386 125.174 185.26 126.765 185.093C128.355 184.967 129.82 184.842 130.95 184.716C132.038 184.632 132.749 184.549 132.666 184.59Z" fill="#263238"/>
<path d="M104.291 109.009C104.291 109.009 104.291 109.093 104.291 109.218C104.291 109.344 104.249 109.553 104.208 109.804C104.124 110.306 104.04 111.06 103.873 111.98C103.58 113.864 103.161 116.584 102.575 119.932C101.445 126.67 99.8551 135.919 97.8881 146.13C95.9212 156.342 93.9961 165.549 92.5313 172.203C91.8199 175.551 91.1921 178.229 90.7736 180.071C90.5644 180.991 90.397 181.703 90.2714 182.205C90.2296 182.456 90.1877 182.624 90.1459 182.749C90.104 182.875 90.104 182.917 90.104 182.917C90.104 182.917 90.104 182.833 90.1459 182.707C90.1877 182.582 90.2296 182.373 90.2714 182.163C90.397 181.661 90.5225 180.95 90.7318 180.029C91.1503 178.146 91.6943 175.467 92.4058 172.161C93.8287 165.507 95.7538 156.3 97.6789 146.088C99.6459 135.877 101.278 126.628 102.408 119.89C102.994 116.542 103.454 113.822 103.747 111.939C103.915 111.018 104.04 110.265 104.124 109.762C104.166 109.511 104.208 109.344 104.208 109.218C104.291 109.093 104.291 109.009 104.291 109.009Z" fill="#263238"/>
<path d="M97.2184 184.591C97.2184 184.591 97.051 184.591 96.7162 184.591C96.3395 184.591 95.8792 184.591 95.377 184.549C94.2051 184.507 92.6148 184.423 90.899 184.381C89.1831 184.298 87.6347 184.214 86.421 184.172C85.8769 184.13 85.4166 184.13 85.0818 184.088C84.747 184.088 84.5796 184.088 84.5796 184.046C84.5796 184.005 85.291 183.963 86.421 184.005C87.551 184.005 89.1413 184.088 90.899 184.13C92.6567 184.214 94.2051 184.298 95.3351 184.381C95.921 184.423 96.3814 184.465 96.6743 184.465C97.0091 184.549 97.2184 184.549 97.2184 184.591Z" fill="#263238"/>
<g opacity="0.3">
<path d="M96.4233 111.101L96.6744 109.469L114.503 108.465L113.833 111.436L96.4233 111.101Z" fill="#333232"/>
</g>
<g opacity="0.3">
<path d="M115.549 111.436L115.047 108.423L132.666 107.544V111.771L115.549 111.436Z" fill="#333232"/>
</g>
<path d="M98.1812 46.3593L110.653 43.5972L121.115 44.0157L130.238 46.9033L125.049 72.9342L105.17 74.6919L98.1812 46.3593Z" fill="#263238"/>
<path d="M108.769 44.0156L95.6699 46.9033L102.199 81.9738C102.199 81.9738 96.3395 96.2029 95.6699 109.428L115.047 108.423C115.047 108.423 116.386 90.9716 115.925 84.2756C115.465 77.5795 115.172 65.8196 115.172 65.8196L108.769 44.0156Z" fill="#2AC6FA"/>
<path d="M71.3131 64.1456C71.3131 64.1456 75.7492 59.6258 80.3946 57.1985C83.8263 55.3989 90.5223 53.1809 93.1589 50.2932C94.8748 48.4518 95.6699 46.9033 95.6699 46.9033L98.7668 63.4342L85.6259 65.5267C85.6259 65.5267 87.5928 66.6148 86.3792 67.3681L94.6237 76.9937L88.9739 87.6236C88.932 87.6236 70.5598 71.7624 71.3131 64.1456Z" fill="#2AC6FA"/>
<path d="M121.115 44.0156C121.115 44.0156 123.877 44.3504 125.802 44.9782C128.606 45.8989 133.293 46.9033 133.293 46.9033L126.597 82.4342C126.597 82.4342 135.679 93.6919 133.293 107.461C133.293 107.461 120.738 108.465 115.047 108.423L114.963 65.1919C114.963 65.1919 119.734 59.1236 120.32 53.1808C120.947 47.1962 121.115 44.0156 121.115 44.0156Z" fill="#2AC6FA"/>
<path d="M133.335 46.9033C133.335 46.9033 140.826 54.6875 144.969 57.617C149.113 60.5465 154.302 64.9408 154.302 67.2844C154.302 68.6655 153.8 70.3813 153.423 71.5531C153.13 72.432 152.712 73.2271 152.168 73.9386C150.284 76.4496 145.262 83.0201 141.914 86.117L133.544 77.2866L141.496 68.4981C141.496 68.4981 130.824 64.1038 130.28 62.8901C129.778 61.7602 133.335 46.9033 133.335 46.9033Z" fill="#2AC6FA"/>
<path d="M114.879 69.8792C114.879 69.8792 114.796 69.8374 114.67 69.7118C114.545 69.5863 114.377 69.4189 114.168 69.1678C113.708 68.7074 113.038 68.0378 112.243 67.2008C110.611 65.4849 108.351 63.0995 105.714 60.3792L105.672 60.3374V60.2955C105.965 59.1237 106.216 57.91 106.551 56.6964C106.677 56.1523 106.802 55.6083 106.928 55.1061L107.053 55.2316C105.589 55.2316 104.208 55.2316 102.91 55.2316H102.785L102.827 55.1061C103.831 52.051 104.71 49.4144 105.338 47.5312C105.63 46.6105 105.882 45.899 106.091 45.355C106.175 45.1039 106.258 44.9365 106.3 44.7691C106.342 44.6435 106.384 44.5598 106.384 44.5598C106.384 44.5598 106.384 44.6435 106.342 44.7691C106.3 44.9365 106.258 45.1039 106.175 45.355C106.007 45.899 105.798 46.6105 105.505 47.5312C104.919 49.4144 104.04 52.051 103.078 55.1479L102.994 55.0224C104.291 55.0224 105.672 55.0224 107.137 55.0224H107.263L107.221 55.1479C107.095 55.692 106.97 56.1942 106.844 56.7382C106.551 57.9937 106.258 59.2074 105.965 60.3374L105.923 60.2537C108.518 62.9739 110.736 65.4012 112.368 67.1171C113.164 67.9541 113.791 68.6656 114.252 69.1259C114.461 69.3352 114.628 69.5444 114.754 69.67C114.838 69.7955 114.879 69.8792 114.879 69.8792Z" fill="#263238"/>
<path d="M115.047 108.423C115.005 108.423 114.921 98.672 114.879 86.6192C114.837 74.5663 114.879 64.8152 114.921 64.8152C114.963 64.8152 115.047 74.5663 115.088 86.6192C115.13 98.672 115.13 108.423 115.047 108.423Z" fill="#263238"/>
<path d="M123.124 44.3506C123.124 44.3506 123.165 44.4343 123.165 44.6017C123.207 44.7691 123.249 45.0202 123.291 45.2713C123.416 45.899 123.542 46.7779 123.709 47.8242C124.086 50.0422 124.546 53.0973 125.132 56.5709L125.174 56.6964H125.049C124.295 56.6127 123.542 56.4872 122.747 56.4035L122.872 56.2361C123.04 56.529 123.165 56.8638 123.333 57.1986C123.668 57.8682 123.961 58.496 124.253 59.0819L124.295 59.1237L124.253 59.1656C121.826 62.1788 119.692 64.8572 118.143 66.7823C117.39 67.703 116.762 68.4982 116.302 69.0422C116.093 69.2933 115.925 69.5026 115.8 69.6281C115.925 69.4607 116.093 69.2515 116.26 69.0004C116.679 68.4563 117.306 67.6612 118.018 66.6986C119.566 64.7317 121.659 62.0532 124.044 59.04V59.1656C123.751 58.5378 123.416 57.9101 123.124 57.2823C122.956 56.9475 122.789 56.6127 122.663 56.3198L122.579 56.1524L122.789 56.1942C123.584 56.3198 124.379 56.4035 125.09 56.529L124.965 56.6546C124.421 53.1391 123.961 50.0841 123.626 47.866C123.458 46.7779 123.333 45.899 123.249 45.3131C123.207 45.0202 123.165 44.8109 123.165 44.6017C123.124 44.4343 123.124 44.3506 123.124 44.3506Z" fill="#263238"/>
<path d="M113.247 94.2779C112.787 93.7338 111.949 93.4409 111.531 93.9849C111.112 94.3197 110.945 94.9475 111.112 95.4497C111.364 96.1193 112.242 96.4122 112.87 96.0774C113.498 95.7845 113.665 94.8219 113.247 94.2779Z" fill="#263238"/>
<path d="M113.456 82.9783C112.996 82.4343 112.159 82.1413 111.74 82.6854C111.322 83.0202 111.155 83.6479 111.322 84.1501C111.573 84.8197 112.452 85.1127 113.08 84.7779C113.707 84.4849 113.917 83.5224 113.456 82.9783Z" fill="#263238"/>
<path d="M143.337 82.0577C142.877 81.5136 142.04 81.2206 141.621 81.7647C141.203 82.0995 141.035 82.7273 141.203 83.2295C141.454 83.8991 142.333 84.192 142.961 83.8572C143.588 83.5224 143.798 82.6017 143.337 82.0577Z" fill="#263238"/>
<path d="M88.8484 83.1038C88.3881 82.5597 87.5511 82.2668 87.1326 82.8108C86.7141 83.1456 86.5466 83.7734 86.7141 84.2756C86.9652 84.9452 87.844 85.2382 88.4718 84.9034C89.0995 84.5686 89.3088 83.6478 88.8484 83.1038Z" fill="#263238"/>
<path d="M86.463 67.4936C86.4211 67.5773 85.0819 66.6985 83.1568 66.5729C81.2317 66.4055 79.7669 66.9914 79.7251 66.9077C79.7251 66.8659 80.0599 66.6985 80.6877 66.5311C81.3154 66.3637 82.1943 66.2381 83.1568 66.3218C84.1194 66.4055 84.9982 66.6985 85.5841 66.9496C86.17 67.2425 86.463 67.4936 86.463 67.4936Z" fill="#263238"/>
<path d="M79.7251 65.5267C79.7251 65.4848 80.018 65.3174 80.5621 65.15C81.1062 64.9826 81.9013 64.8152 82.7802 64.8571C83.659 64.8571 84.4542 65.0245 84.9982 65.1919C85.5423 65.3593 85.8352 65.5267 85.8352 65.5685C85.8352 65.6522 84.496 65.0663 82.7802 65.0663C81.0643 65.0245 79.7669 65.6104 79.7251 65.5267Z" fill="#263238"/>
<path d="M99.1435 65.5686C99.1435 65.5686 99.0598 65.3175 98.9761 64.8572C98.8506 64.3549 98.725 63.7272 98.5576 62.932C98.181 61.2999 97.6369 59.0818 97.051 56.6127C96.4651 54.1435 96.0047 51.8836 95.7536 50.2514C95.6281 49.4144 95.5444 48.7448 95.5025 48.2845C95.4607 47.8241 95.4188 47.573 95.4607 47.573C95.4607 47.573 95.5444 47.8241 95.5862 48.2845C95.6699 48.7448 95.7955 49.4144 95.921 50.2096C96.214 51.8417 96.7162 54.0598 97.3021 56.529C97.888 58.9981 98.4321 61.2162 98.725 62.8483C98.8924 63.6435 99.018 64.3131 99.1017 64.7735C99.1435 65.3175 99.1435 65.5686 99.1435 65.5686Z" fill="#263238"/>
<path d="M132.875 47.6985C132.875 47.6985 132.875 47.9496 132.791 48.4518C132.708 48.954 132.582 49.6236 132.456 50.4606C132.164 52.1765 131.787 54.4782 131.368 57.0311C130.95 59.584 130.531 61.9276 130.238 63.6016C130.071 64.4386 129.945 65.1082 129.862 65.5685C129.778 66.0289 129.694 66.28 129.694 66.28C129.694 66.28 129.694 66.0289 129.778 65.5267C129.862 65.0245 129.987 64.3549 130.113 63.5179C130.406 61.802 130.782 59.5003 131.201 56.9474C131.619 54.3945 132.038 52.0509 132.331 50.3769C132.498 49.5399 132.624 48.8703 132.708 48.4099C132.791 47.9496 132.833 47.6985 132.875 47.6985Z" fill="#263238"/>
<path d="M147.146 64.2295C147.146 64.2713 146.685 64.2295 145.932 64.2713C145.221 64.3132 144.132 64.4806 143.295 65.192C142.458 65.9453 142.082 66.9079 141.831 67.6193C141.58 68.3308 141.454 68.7493 141.412 68.7493C141.37 68.7493 141.454 68.2889 141.705 67.5775C141.914 66.866 142.291 65.8198 143.17 65.0665C143.63 64.6898 144.132 64.4387 144.635 64.3132C145.137 64.1876 145.597 64.1458 145.932 64.1458C146.309 64.1458 146.602 64.1876 146.811 64.1876C147.02 64.1876 147.146 64.1876 147.146 64.2295Z" fill="#263238"/>
<path d="M149.113 66.1544C149.113 66.1962 148.652 66.1544 147.899 66.1962C147.146 66.2381 146.141 66.4055 145.095 66.7403C144.049 67.1169 143.128 67.5773 142.5 67.9958C141.873 68.4143 141.538 68.7072 141.496 68.6654C141.496 68.6654 141.58 68.5817 141.705 68.4143C141.873 68.2469 142.082 68.0795 142.375 67.8702C142.961 67.4099 143.882 66.9077 144.97 66.531C146.058 66.1544 147.104 66.0288 147.857 66.0288C148.234 66.0288 148.527 66.0288 148.736 66.0707C149.029 66.1125 149.113 66.1544 149.113 66.1544Z" fill="#263238"/>
<path d="M105.338 83.0202C105.296 83.0621 104.71 82.811 103.915 82.518C103.161 82.2251 102.492 82.0158 102.534 81.974C102.534 81.9321 103.203 82.0158 103.998 82.3088C104.794 82.6017 105.379 82.9365 105.338 83.0202Z" fill="#263238"/>
<path d="M105.882 78.7931C105.923 78.835 104.919 79.5046 103.831 80.4671C102.743 81.4297 101.906 82.2667 101.864 82.2248C101.822 82.183 102.575 81.2623 103.664 80.2997C104.793 79.3372 105.84 78.7513 105.882 78.7931Z" fill="#263238"/>
<path d="M133.335 107.461C133.335 107.503 124.923 108.005 114.503 108.549C104.082 109.093 95.6699 109.511 95.6699 109.428C95.6699 109.386 104.082 108.884 114.503 108.34C124.881 107.795 133.335 107.419 133.335 107.461Z" fill="#263238"/>
<g opacity="0.3">
<path d="M141.077 68.2888C140.533 66.6985 141.161 64.7734 142.542 63.8108C142.835 63.6016 143.212 63.4342 143.547 63.5179C143.923 63.6016 144.216 63.9782 144.049 64.313C143.965 64.5223 143.714 64.6478 143.547 64.7734C142.919 65.1919 142.458 65.8615 142.165 66.5729C141.873 67.2844 141.747 68.0377 141.621 68.791" fill="#333232"/>
</g>
<g opacity="0.3">
<path d="M102.91 55.1059C102.994 55.3151 104.5 55.4825 104.752 56.1103C105.045 56.738 104.919 57.4495 104.793 58.1191C104.626 58.7887 104.417 59.4583 104.5 60.1279C104.626 61.3416 105.63 62.2623 106.551 63.0574C109.146 65.2755 112.285 67.661 114.879 69.879C112.536 67.1169 109.523 64.3129 106.97 61.7601C106.593 61.3834 106.216 61.0068 106.007 60.5046C105.798 59.8768 105.965 59.1654 106.133 58.5376C106.342 57.6587 106.593 56.8217 106.802 55.9429C106.844 55.7336 106.97 55.357 107.011 55.2314C107.011 55.2314 106.3 55.1059 106.091 55.1477C106.091 55.1059 103.873 54.9803 102.91 55.1059Z" fill="#333232"/>
</g>
<path d="M88.5137 84.1082C88.5137 84.1082 88.5555 83.9827 88.6392 83.7734C88.7229 83.5642 88.8903 83.2712 89.0996 82.8946C89.5181 82.1413 90.104 81.1369 90.8991 80.1325C91.6943 79.0862 92.4476 78.2492 93.0753 77.6215C93.3683 77.3285 93.6194 77.0774 93.7868 76.9518C93.9542 76.7844 94.0798 76.7007 94.0798 76.7426C94.1216 76.7844 93.745 77.1192 93.1591 77.747C92.5731 78.3748 91.8198 79.2536 91.0665 80.258C90.3132 81.3043 89.6855 82.2668 89.2251 82.9783C88.8066 83.6897 88.5555 84.1501 88.5137 84.1082Z" fill="#263238"/>
<path d="M91.6103 73.7292C91.6521 73.7711 91.1499 74.2314 90.4385 75.0266C89.727 75.8218 88.7644 76.9936 87.8856 78.3746C87.0067 79.7557 86.3371 81.0949 85.9186 82.0993C85.5001 83.1037 85.2909 83.7315 85.249 83.7315C85.249 83.7315 85.2909 83.5641 85.3746 83.2711C85.4583 82.9781 85.5838 82.5596 85.7931 82.0574C86.1697 81.053 86.8393 79.672 87.7182 78.2909C88.597 76.9099 89.5596 75.7381 90.3129 74.9429C90.6896 74.5663 91.0244 74.2314 91.2336 74.064C91.4847 73.8548 91.6103 73.7292 91.6103 73.7292Z" fill="#263238"/>
<path d="M145.555 82.2251C145.555 82.2251 145.43 82.0995 145.221 81.8903C144.969 81.6392 144.677 81.3044 144.342 80.9277C143.588 80.1325 142.584 79.0026 141.37 77.8308C140.199 76.659 139.069 75.6127 138.273 74.8594C137.897 74.5246 137.562 74.2317 137.311 73.9806C137.102 73.7713 136.976 73.6458 136.976 73.6458C136.976 73.6458 137.143 73.7295 137.353 73.8969C137.604 74.0643 137.939 74.3572 138.357 74.7339C139.194 75.4453 140.324 76.4497 141.496 77.6634C142.668 78.8352 143.714 79.9651 144.425 80.8021C144.802 81.2207 145.053 81.5555 145.262 81.8066C145.472 82.0577 145.555 82.1832 145.555 82.2251Z" fill="#263238"/>
<path d="M93.4101 79.2117L96.1722 80.6764L102.241 82.3923C102.241 82.3923 100.985 90.7205 100.19 91.4319C99.3947 92.1434 90.5225 84.6522 90.5225 84.6522L93.4101 79.2117Z" fill="#FFBE9D"/>
<path d="M134.842 78.7095L132.875 80.2579L127.183 82.9782C127.183 82.9782 129.82 90.9716 130.699 91.5575C131.577 92.1434 139.11 83.2711 139.11 83.2711L134.842 78.7095Z" fill="#FFBE9D"/>
<path d="M106.76 18.6543C106.677 20.7887 103.831 22.086 103.873 24.2204C103.873 25.1411 104.459 25.9781 104.584 26.8569C104.752 28.0706 104.04 29.2424 103.789 30.4561C103.287 32.9671 104.71 35.5618 106.886 36.9429C109.02 38.3239 111.741 38.575 114.252 38.2402" fill="#263238"/>
<path d="M124.002 18.1521C123.919 19.2821 124.672 20.3283 125.425 21.2072C126.179 22.086 127.057 22.9649 127.225 24.0948C127.518 26.1036 125.551 27.9869 125.927 29.9957C126.137 31.0838 127.016 31.9208 127.183 33.0089C127.35 34.0552 126.764 35.1015 126.095 35.8966C125.383 36.6918 124.588 36.5662 123.961 37.4451C123.333 38.3658 122.286 39.2865 121.282 39.8305C119.064 41.0442 116.386 39.2865 115.339 38.9517" fill="#263238"/>
<path d="M106.342 19.9099C106.3 18.8636 107.262 18.0685 108.267 17.6918C109.229 17.3152 110.318 17.1478 111.196 16.6037C111.95 16.1015 112.494 15.2645 113.122 14.6367C114.712 13.0046 117.181 12.3768 119.399 12.9627C121.575 13.5486 123.375 15.39 123.919 17.6081C124.296 19.0729 124.044 20.8306 122.873 21.835C121.533 22.9649 119.483 22.7138 117.767 22.379C116.009 22.0024 114.042 21.6676 112.619 22.7138C111.74 23.3416 111.238 24.346 110.694 25.2667C110.15 26.1874 109.481 27.15 108.476 27.4848C107.472 27.8196 106.091 27.2337 106.049 26.1456" fill="#263238"/>
<path d="M110.443 20.1192C109.522 20.2029 108.853 20.9981 108.894 21.8769L109.941 45.4386C109.983 48.2007 114.042 49.791 117.013 49.7073C120.027 49.6236 120.11 48.1589 120.152 45.5223C120.236 41.0862 120.194 39.454 120.194 39.454C120.194 39.454 124.002 38.8263 124.756 33.8461C125.132 31.3769 125.007 27.3175 124.798 24.0113C124.588 21.0399 122.621 17.3989 119.65 17.6919L110.443 20.1192Z" fill="#FFBE9D"/>
<path d="M123.249 26.8991C123.249 27.2339 122.998 27.5269 122.621 27.5269C122.286 27.5269 121.994 27.2758 121.952 26.941C121.952 26.6062 122.203 26.3132 122.579 26.3132C122.956 26.3132 123.249 26.5643 123.249 26.8991Z" fill="#263238"/>
<path d="M123.96 26.1457C123.877 26.2294 123.416 25.8528 122.705 25.8946C122.035 25.8946 121.533 26.2294 121.449 26.1457C121.408 26.1039 121.491 25.9783 121.701 25.8109C121.91 25.6435 122.286 25.4761 122.705 25.518C123.123 25.518 123.5 25.6854 123.709 25.8528C123.919 25.9783 124.002 26.1039 123.96 26.1457Z" fill="#263238"/>
<path d="M116.637 26.8989C116.637 27.2337 116.386 27.5266 116.009 27.5266C115.674 27.5266 115.381 27.2755 115.339 26.9407C115.339 26.6059 115.59 26.313 115.967 26.313C116.302 26.313 116.595 26.5641 116.637 26.8989Z" fill="#263238"/>
<path d="M117.223 26.313C117.139 26.3967 116.679 26.02 115.967 26.0619C115.298 26.0619 114.795 26.3967 114.712 26.313C114.67 26.2711 114.753 26.1456 114.963 25.9782C115.172 25.8108 115.549 25.6434 115.967 25.6852C116.386 25.6852 116.762 25.8526 116.972 26.02C117.223 26.1037 117.264 26.2711 117.223 26.313Z" fill="#263238"/>
<path d="M119.734 31.3771C119.734 31.3352 120.152 31.2515 120.864 31.1678C121.031 31.1678 121.198 31.126 121.24 31.0004C121.282 30.8749 121.198 30.6656 121.115 30.4982C120.947 30.0797 120.78 29.6193 120.612 29.159C119.901 27.2757 119.357 25.7273 119.441 25.6854C119.524 25.6436 120.152 27.1502 120.905 29.0753C121.073 29.5356 121.24 29.996 121.408 30.4145C121.491 30.6237 121.575 30.833 121.491 31.0841C121.449 31.2097 121.324 31.2934 121.198 31.3352C121.073 31.3771 120.989 31.3771 120.905 31.3771C120.152 31.4189 119.734 31.4189 119.734 31.3771Z" fill="#263238"/>
<path d="M120.236 39.454C120.236 39.454 116.888 39.6633 113.582 37.6963C113.623 37.6963 115.423 41.128 120.152 40.6258L120.236 39.454Z" fill="#EB996E"/>
<path d="M119.441 33.0092C119.19 32.6744 118.771 32.507 118.353 32.5488C118.06 32.5907 117.767 32.7162 117.558 32.9673C117.39 33.2184 117.348 33.5532 117.516 33.7625C117.683 34.0136 118.102 34.0973 118.395 33.9717C118.729 33.888 119.022 33.6788 119.273 33.4277C119.357 33.3858 119.441 33.3021 119.483 33.2184C119.525 33.2184 119.525 33.0929 119.441 33.0092Z" fill="#2AC6FA"/>
<path d="M117.725 31.8374C117.85 31.8374 117.85 32.5907 118.478 33.0929C119.106 33.637 119.901 33.5533 119.901 33.637C119.901 33.6788 119.733 33.7625 119.399 33.8044C119.064 33.8044 118.604 33.7207 118.185 33.3859C117.808 33.0511 117.641 32.6326 117.599 32.3396C117.599 32.0467 117.683 31.8374 117.725 31.8374Z" fill="#263238"/>
<path d="M117.557 25.0994C117.474 25.2668 116.804 25.1831 116.009 25.3087C115.214 25.3924 114.544 25.6435 114.461 25.4761C114.419 25.3924 114.544 25.225 114.795 25.0576C115.046 24.8902 115.465 24.7228 115.967 24.6391C116.469 24.5972 116.888 24.6809 117.181 24.7646C117.432 24.8902 117.557 25.0157 117.557 25.0994Z" fill="#263238"/>
<path d="M123.71 24.1786C123.584 24.346 123.124 24.1786 122.538 24.1786C121.952 24.1368 121.491 24.3042 121.366 24.1368C121.324 24.0531 121.408 23.8857 121.617 23.7601C121.826 23.5927 122.161 23.509 122.538 23.509C122.914 23.509 123.249 23.6764 123.458 23.802C123.71 23.9275 123.751 24.0949 123.71 24.1786Z" fill="#263238"/>
<path d="M108.35 36.6918C109.732 36.9847 109.815 36.2733 110.861 35.3107C111.866 34.3482 112.41 32.9253 112.243 31.5442C112.075 30.3305 111.447 29.075 111.866 27.9451C112.41 26.4385 114.544 25.9363 115.13 24.4297C115.465 23.5508 115.172 22.5045 115.549 21.6257C115.883 20.8305 116.762 20.3283 117.599 20.0354C118.436 19.7424 119.315 19.5332 120.027 18.9891C120.738 18.4451 121.157 17.3988 120.696 16.6455C117.013 17.1059 113.331 17.9847 109.857 19.2821C109.062 19.575 108.183 19.9517 107.723 20.6631C107.22 21.4164 107.22 22.4208 107.304 23.3415C107.513 27.7777 107.723 32.2557 107.932 36.6918" fill="#263238"/>
<path d="M105.254 26.6059C105.086 24.9738 103.747 23.509 102.157 23.216C100.525 22.9231 98.7671 23.8019 98.0556 25.2667C97.386 26.6478 97.5953 28.3636 98.2649 29.7865C99.0182 31.4605 100.609 33.009 102.45 32.9253C104.208 32.8416 105.589 31.335 106.091 29.661C106.593 27.987 106.384 26.1874 106.175 24.4715" fill="#263238"/>
<path d="M104.25 33.3857C104.25 33.3857 104.124 33.302 103.998 33.0927C103.873 32.8835 103.705 32.5487 103.622 32.0883C103.538 31.628 103.58 31.0839 103.664 30.5399C103.747 29.954 103.957 29.3262 104.124 28.6985C104.25 28.0707 104.333 27.4011 104.25 26.857C104.166 26.313 103.873 25.8526 103.789 25.3923C103.664 24.9738 103.664 24.5553 103.747 24.346C103.831 24.0949 103.915 24.0112 103.957 24.0112C103.957 24.0112 103.873 24.1368 103.831 24.3879C103.789 24.639 103.789 24.9738 103.915 25.3923C104.04 25.8108 104.333 26.2711 104.459 26.857C104.584 27.4429 104.501 28.1126 104.375 28.7822C104.25 29.4518 104.04 30.0377 103.915 30.6236C103.789 31.1676 103.789 31.7117 103.831 32.1302C103.873 32.9672 104.291 33.3438 104.25 33.3857Z" fill="#455A64"/>
<path d="M104.208 27.443C104.208 27.443 103.998 27.8196 103.454 28.1963C102.91 28.5729 102.031 28.9914 101.027 28.9914C99.9808 28.9914 99.1019 28.6566 98.5578 28.28C98.0138 27.9033 97.7627 27.5685 97.7627 27.5685C97.8045 27.5267 98.0556 27.8196 98.6415 28.1544C99.1856 28.4892 100.064 28.7822 101.027 28.7822C101.99 28.7822 102.827 28.4055 103.371 28.0707C103.873 27.6941 104.166 27.4011 104.208 27.443Z" fill="#455A64"/>
<path d="M103.957 28.1963C103.998 28.1963 103.873 28.5311 103.538 28.9914C103.203 29.4518 102.701 29.9958 101.948 30.4144C101.236 30.8329 100.483 31.084 99.9389 31.1258C99.3949 31.2095 99.0601 31.1677 99.0601 31.1258C99.0601 31.084 99.3949 31.084 99.9389 30.9584C100.441 30.8329 101.153 30.6236 101.864 30.2051C102.575 29.7866 103.078 29.2844 103.454 28.8659C103.747 28.4892 103.915 28.1963 103.957 28.1963Z" fill="#455A64"/>
<path d="M105.212 35.0596C105.212 35.0596 105.17 35.0596 105.17 35.0177C105.128 34.9759 105.086 34.8922 105.045 34.8085C104.919 34.6411 104.793 34.3481 104.71 33.9296C104.626 33.553 104.626 33.0089 104.793 32.4649C104.961 31.9208 105.338 31.3349 105.965 30.9164C106.551 30.4979 107.304 30.2049 107.807 29.5353C108.058 29.2005 108.141 28.782 108.058 28.3635C107.974 27.945 107.807 27.5265 107.639 27.0662C107.263 26.1873 107.263 25.0574 107.723 24.0948C107.932 23.6344 108.267 23.1741 108.727 22.8393C109.188 22.5045 109.732 22.3371 110.234 22.2115C110.778 22.086 111.322 22.0023 111.824 21.8767C112.327 21.7093 112.787 21.5001 113.122 21.1653C113.456 20.8305 113.624 20.3283 113.708 19.8679C113.791 19.4076 113.791 18.9054 113.959 18.445C114.21 17.5243 114.67 16.6873 115.298 16.1014C115.926 15.5155 116.679 15.1807 117.39 15.0551C118.102 14.9296 118.813 15.097 119.316 15.3481C119.818 15.5992 120.194 15.9759 120.404 16.3107C120.655 16.6455 120.738 16.9384 120.78 17.1477C120.822 17.3569 120.822 17.4825 120.822 17.4825C120.78 17.4825 120.78 17.0221 120.32 16.3525C120.069 16.0596 119.734 15.6829 119.232 15.4318C118.73 15.1807 118.102 15.0551 117.39 15.1807C116.721 15.3062 115.967 15.641 115.382 16.1851C114.796 16.771 114.335 17.5662 114.126 18.445C114.001 18.9054 113.959 19.3657 113.917 19.8679C113.833 20.3701 113.708 20.9142 113.289 21.2908C112.912 21.6675 112.41 21.9186 111.866 22.086C111.364 22.2534 110.82 22.2952 110.276 22.4208C109.774 22.5463 109.23 22.7137 108.853 23.0067C108.434 23.2996 108.141 23.7181 107.932 24.1785C107.514 25.0992 107.514 26.1036 107.849 26.9825C108.016 27.401 108.225 27.8613 108.267 28.3217C108.351 28.782 108.225 29.2842 107.974 29.619C107.43 30.3305 106.635 30.6234 106.091 31.0001C105.505 31.3767 105.128 31.9208 104.961 32.4649C104.793 33.0089 104.793 33.5111 104.835 33.8878C104.877 34.6829 105.212 35.0177 105.212 35.0596Z" fill="#455A64"/>
<path d="M105.505 21.2073C105.505 21.2073 105.463 21.1236 105.463 20.998C105.463 20.8306 105.463 20.5795 105.63 20.3284C105.798 20.0773 106.049 19.7844 106.467 19.6588C106.886 19.4914 107.388 19.4914 107.89 19.617C108.392 19.7007 108.936 19.9099 109.522 20.0355C110.108 20.161 110.778 20.161 111.322 19.7425C111.866 19.324 112.117 18.6544 112.368 17.9429C112.619 17.2315 112.996 16.52 113.498 15.8923C114.503 14.6368 115.884 13.7579 117.265 13.465C117.934 13.2976 118.646 13.3394 119.232 13.5068C119.818 13.6742 120.32 14.0509 120.696 14.4275C121.031 14.846 121.199 15.3064 121.24 15.7249C121.282 16.1434 121.199 16.52 121.073 16.7711C120.947 17.0641 120.822 17.2315 120.696 17.357C120.571 17.4826 120.529 17.5244 120.529 17.5244C120.487 17.5244 120.78 17.3152 120.989 16.7711C121.073 16.52 121.157 16.1434 121.115 15.7667C121.073 15.3482 120.906 14.9297 120.571 14.5531C120.236 14.1764 119.776 13.8416 119.19 13.6742C118.604 13.5068 117.976 13.5068 117.307 13.6324C116.009 13.9253 114.67 14.7623 113.666 16.0178C113.163 16.6456 112.829 17.3152 112.536 17.9848C112.243 18.6544 111.992 19.4077 111.406 19.8681C111.113 20.0773 110.778 20.2029 110.443 20.2447C110.108 20.2866 109.773 20.2447 109.481 20.161C108.853 20.0355 108.351 19.8262 107.848 19.7007C107.346 19.5751 106.886 19.5751 106.509 19.7007C106.132 19.8262 105.881 20.0773 105.714 20.3284C105.547 20.5795 105.505 20.7888 105.505 20.9562C105.505 21.1236 105.547 21.2073 105.505 21.2073Z" fill="#455A64"/>
<path d="M174.473 186.851C174.473 186.851 174.473 186.809 174.557 186.683C174.599 186.558 174.682 186.39 174.766 186.181C174.975 185.762 175.226 185.093 175.436 184.214C175.896 182.456 176.022 179.82 175.394 176.639C175.101 175.049 174.599 173.375 174.013 171.575C173.427 169.776 172.715 167.85 172.171 165.8C171.627 163.749 171.167 161.489 171.251 159.146C171.334 156.802 172.046 154.458 172.799 152.115C173.552 149.771 174.348 147.469 174.599 145.209C174.85 142.908 174.389 140.648 173.343 138.806C172.339 136.923 171.041 135.333 170.121 133.701C169.158 132.069 168.53 130.353 168.154 128.804C167.442 125.624 167.693 122.945 168.028 121.187C168.405 119.43 168.823 118.509 168.823 118.509C168.823 118.509 168.823 118.551 168.782 118.676C168.74 118.802 168.698 118.969 168.614 119.179C168.489 119.639 168.279 120.309 168.112 121.187C167.777 122.945 167.568 125.624 168.321 128.762C168.698 130.311 169.326 131.985 170.288 133.617C171.251 135.249 172.506 136.839 173.552 138.723C174.641 140.606 175.143 142.908 174.85 145.251C174.599 147.595 173.804 149.897 173.05 152.24C172.297 154.584 171.585 156.886 171.502 159.187C171.418 161.489 171.837 163.707 172.381 165.758C172.925 167.809 173.594 169.734 174.18 171.533C174.766 173.333 175.268 175.049 175.561 176.639C176.189 179.82 176.022 182.498 175.561 184.256C175.31 185.135 175.059 185.762 174.85 186.223C174.724 186.432 174.641 186.599 174.599 186.683C174.515 186.809 174.473 186.851 174.473 186.851Z" fill="#263238"/>
<path d="M171.334 135.375C171.334 135.375 169.409 129.181 172.883 125.54C173.008 125.414 173.218 125.456 173.259 125.665C173.427 126.67 173.678 129.767 171.334 135.375Z" fill="#2AC6FA"/>
<path d="M172.506 127.591C172.548 127.591 172.464 128.051 172.381 128.721C172.255 129.516 172.088 130.436 171.92 131.441C171.753 132.445 171.627 133.366 171.502 134.161C171.376 134.873 171.334 135.291 171.293 135.291C171.251 135.291 171.251 134.831 171.334 134.119C171.418 133.408 171.544 132.445 171.711 131.357C171.879 130.269 172.088 129.306 172.213 128.637C172.381 128.009 172.464 127.591 172.506 127.591Z" fill="#263238"/>
<path d="M173.636 149.98C173.636 149.98 174.808 143.619 179.579 142.029C179.746 141.987 179.914 142.113 179.872 142.28C179.537 143.243 178.282 146.13 173.636 149.98Z" fill="#2AC6FA"/>
<path d="M178.282 143.661C178.324 143.703 178.072 144.038 177.612 144.624C177.152 145.251 176.566 146.005 175.938 146.842C175.31 147.679 174.766 148.432 174.264 149.06C173.846 149.646 173.594 149.98 173.553 149.98C173.511 149.98 173.72 149.562 174.139 148.976C174.515 148.39 175.101 147.595 175.729 146.716C176.398 145.837 176.984 145.084 177.445 144.54C177.947 143.954 178.24 143.619 178.282 143.661Z" fill="#263238"/>
<path d="M172.339 165.967C172.339 165.967 171.627 159.522 175.729 156.635C175.854 156.551 176.063 156.635 176.063 156.802C176.063 157.848 175.687 160.945 172.339 165.967Z" fill="#2AC6FA"/>
<path d="M174.934 158.56C174.975 158.56 174.808 158.978 174.599 159.648C174.306 160.401 174.013 161.28 173.636 162.243C173.301 163.205 172.967 164.084 172.674 164.837C172.422 165.507 172.297 165.925 172.255 165.925C172.213 165.925 172.297 165.465 172.506 164.796C172.715 164.126 173.008 163.163 173.385 162.159C173.762 161.155 174.138 160.234 174.389 159.564C174.724 158.936 174.934 158.56 174.934 158.56Z" fill="#263238"/>
<path d="M175.938 182.079C175.938 182.079 175.436 175.593 179.663 172.872C179.83 172.789 179.997 172.872 179.997 173.04C179.914 174.086 179.453 177.141 175.938 182.079Z" fill="#2AC6FA"/>
<path d="M178.826 174.756C178.868 174.756 178.7 175.174 178.449 175.844C178.156 176.597 177.779 177.434 177.403 178.397C177.026 179.359 176.65 180.238 176.357 180.949C176.105 181.619 175.938 181.996 175.896 181.996C175.854 181.996 175.98 181.577 176.189 180.866C176.398 180.196 176.733 179.275 177.152 178.271C177.57 177.267 177.947 176.388 178.282 175.718C178.575 175.132 178.784 174.756 178.826 174.756Z" fill="#263238"/>
<path d="M168.572 129.934C168.572 129.934 162.839 126.921 162.713 121.899C162.713 121.731 162.923 121.606 163.048 121.731C163.885 122.317 166.271 124.326 168.572 129.934Z" fill="#2AC6FA"/>
<path d="M163.885 123.615C163.927 123.615 164.178 123.95 164.597 124.494C165.057 125.121 165.601 125.917 166.229 126.754C166.857 127.591 167.401 128.344 167.861 128.972C168.28 129.557 168.531 129.892 168.531 129.934C168.489 129.934 168.196 129.641 167.735 129.097C167.275 128.553 166.689 127.758 166.061 126.879C165.434 126 164.89 125.205 164.513 124.577C164.095 124.033 163.885 123.657 163.885 123.615Z" fill="#263238"/>
<path d="M174.724 143.201C174.724 143.201 168.781 140.564 168.405 135.542C168.405 135.375 168.572 135.249 168.74 135.333C169.618 135.877 172.088 137.802 174.724 143.201Z" fill="#2AC6FA"/>
<path d="M169.702 137.216C169.744 137.216 170.037 137.509 170.456 138.053C170.958 138.681 171.544 139.392 172.213 140.187C172.883 140.983 173.469 141.694 173.971 142.322C174.431 142.866 174.724 143.201 174.682 143.243C174.641 143.284 174.348 142.95 173.845 142.447C173.343 141.945 172.716 141.192 172.046 140.355C171.376 139.518 170.749 138.723 170.33 138.179C169.912 137.593 169.66 137.216 169.702 137.216Z" fill="#263238"/>
<path d="M171.334 158.057C171.334 158.057 167.275 152.994 169.158 148.348C169.242 148.181 169.451 148.181 169.535 148.306C170.121 149.185 171.46 152.031 171.334 158.057Z" fill="#2AC6FA"/>
<path d="M169.577 150.399C169.619 150.399 169.702 150.817 169.87 151.529C170.037 152.324 170.246 153.203 170.456 154.249C170.665 155.253 170.874 156.174 171.041 156.969C171.209 157.639 171.293 158.099 171.251 158.099C171.209 158.099 171.083 157.681 170.874 157.011C170.665 156.341 170.456 155.379 170.204 154.333C169.995 153.286 169.786 152.324 169.702 151.612C169.577 150.859 169.535 150.399 169.577 150.399Z" fill="#263238"/>
<path d="M175.352 175.509C175.352 175.509 169.493 172.747 169.158 167.767C169.158 167.599 169.326 167.474 169.493 167.557C170.372 168.101 172.799 170.027 175.352 175.509Z" fill="#2AC6FA"/>
<path d="M170.414 169.399C170.455 169.399 170.707 169.734 171.167 170.278C171.669 170.906 172.255 171.617 172.883 172.454C173.51 173.249 174.096 174.002 174.599 174.63C175.059 175.174 175.31 175.509 175.31 175.551C175.268 175.593 174.975 175.258 174.473 174.756C174.013 174.212 173.343 173.5 172.673 172.621C172.004 171.784 171.418 170.989 170.999 170.403C170.623 169.817 170.414 169.441 170.414 169.399Z" fill="#263238"/>
<path d="M187.071 149.98C187.071 149.98 187.071 150.022 187.071 150.106C187.071 150.231 187.071 150.357 187.071 150.524C187.071 150.901 187.029 151.445 186.987 152.115C186.903 153.496 186.819 155.421 186.694 157.723C186.275 160.066 185.062 162.661 183.471 165.214C182.3 167.055 181.044 168.771 179.998 170.319C178.91 171.868 178.031 173.333 177.403 174.63C176.775 175.927 176.399 177.015 176.189 177.811C176.106 178.187 176.022 178.48 175.98 178.69C175.938 178.899 175.896 178.982 175.896 178.982C175.896 178.982 175.896 178.857 175.938 178.648C175.98 178.438 176.022 178.145 176.106 177.727C176.315 176.932 176.65 175.802 177.278 174.504C177.905 173.207 178.784 171.742 179.872 170.152C180.919 168.562 182.174 166.888 183.346 165.004C184.936 162.493 186.15 159.941 186.568 157.639C186.736 155.337 186.861 153.412 186.945 152.031C186.987 151.361 187.029 150.859 187.071 150.441C187.071 150.273 187.112 150.148 187.112 150.022C187.071 150.064 187.071 149.98 187.071 149.98Z" fill="#263238"/>
<path d="M183.555 164.753C183.555 164.753 186.024 158.769 182.927 154.835C182.802 154.709 182.593 154.751 182.551 154.919C182.258 155.923 181.756 158.978 183.555 164.753Z" fill="#2AC6FA"/>
<path d="M183.137 156.927C183.179 156.927 183.262 157.346 183.346 158.057C183.43 158.769 183.514 159.731 183.597 160.82C183.681 161.908 183.723 162.87 183.723 163.582C183.723 164.293 183.681 164.712 183.639 164.712C183.597 164.712 183.597 164.293 183.555 163.582C183.514 162.787 183.43 161.866 183.388 160.82C183.304 159.773 183.262 158.853 183.179 158.057C183.095 157.346 183.095 156.927 183.137 156.927Z" fill="#263238"/>
<g opacity="0.3">
<path d="M183.555 164.753C183.555 164.753 186.024 158.769 182.927 154.835C182.802 154.709 182.593 154.751 182.551 154.919C182.258 155.923 181.756 158.978 183.555 164.753Z" fill="#333232"/>
</g>
<path d="M175.855 179.192C175.855 179.192 177.863 172.998 174.39 169.357C174.264 169.231 174.055 169.273 174.013 169.441C173.846 170.487 173.595 173.584 175.855 179.192Z" fill="#2AC6FA"/>
<path d="M174.767 171.408C174.808 171.408 174.892 171.826 175.059 172.538C175.185 173.249 175.394 174.212 175.562 175.258C175.729 176.346 175.855 177.309 175.896 178.02C175.938 178.732 175.938 179.15 175.938 179.192C175.896 179.192 175.855 178.773 175.729 178.062C175.604 177.267 175.478 176.346 175.311 175.342C175.143 174.337 175.018 173.375 174.892 172.621C174.808 171.868 174.725 171.45 174.767 171.408Z" fill="#263238"/>
<g opacity="0.3">
<path d="M175.855 179.192C175.855 179.192 177.863 172.998 174.39 169.357C174.264 169.231 174.055 169.273 174.013 169.441C173.846 170.487 173.595 173.584 175.855 179.192Z" fill="#333232"/>
</g>
<path d="M186.736 157.43C186.736 157.43 192.051 153.705 191.507 148.725C191.507 148.557 191.298 148.474 191.13 148.599C190.377 149.269 188.284 151.612 186.736 157.43Z" fill="#2AC6FA"/>
<g opacity="0.3">
<path d="M186.736 157.43C186.736 157.43 192.051 153.705 191.507 148.725C191.507 148.557 191.298 148.474 191.13 148.599C190.377 149.269 188.284 151.612 186.736 157.43Z" fill="#333232"/>
</g>
<path d="M190.544 150.566C190.586 150.566 190.419 150.985 190.084 151.612C189.791 152.24 189.331 153.119 188.828 154.082C188.326 155.044 187.824 155.881 187.447 156.467C187.071 157.053 186.778 157.43 186.778 157.388C186.736 157.388 186.945 156.969 187.322 156.383C187.698 155.672 188.159 154.877 188.661 153.956C189.163 153.035 189.582 152.24 189.958 151.529C190.293 150.943 190.544 150.566 190.544 150.566Z" fill="#263238"/>
<path d="M177.989 173.082C177.989 173.082 184.392 172.077 186.108 167.348C186.15 167.181 186.024 167.013 185.857 167.055C184.852 167.348 181.965 168.52 177.989 173.082Z" fill="#2AC6FA"/>
<g opacity="0.3">
<path d="M177.989 173.082C177.989 173.082 184.392 172.077 186.108 167.348C186.15 167.181 186.024 167.013 185.857 167.055C184.852 167.348 181.965 168.52 177.989 173.082Z" fill="#333232"/>
</g>
<path d="M184.434 168.604C184.434 168.646 184.141 168.939 183.555 169.357C183.011 169.818 182.216 170.403 181.337 171.031C180.458 171.659 179.621 172.203 179.035 172.58C178.407 172.956 178.031 173.166 178.031 173.124C178.031 173.082 178.366 172.831 178.951 172.454C179.621 171.994 180.374 171.45 181.211 170.864C182.048 170.278 182.802 169.734 183.471 169.273C184.057 168.813 184.434 168.562 184.434 168.604Z" fill="#263238"/>
<path d="M171.879 184.884L170.037 197.439H181.671L180.165 184.884H171.879Z" fill="#455A64"/>
<path d="M180.625 188.776C180.625 188.859 178.533 188.901 175.938 188.901C173.343 188.901 171.251 188.859 171.251 188.776C171.251 188.692 173.343 188.65 175.938 188.65C178.533 188.65 180.625 188.692 180.625 188.776Z" fill="#263238"/>
<path d="M180.876 189.78C180.876 189.864 178.7 189.906 176.022 189.906C173.343 189.906 171.167 189.864 171.167 189.78C171.167 189.696 173.343 189.655 176.022 189.655C178.7 189.655 180.876 189.696 180.876 189.78Z" fill="#263238"/>
<path d="M33.1032 174.463C34.275 174.63 35.3213 175.384 36.0328 176.346C36.7442 177.309 37.1209 178.481 37.2883 179.652C37.6649 181.912 37.0372 184.507 36.2002 186.683C33.8565 185.595 32.6429 182.875 32.0988 181.494C31.2618 179.234 31.0526 174.672 33.1032 174.463Z" fill="#2AC6FA"/>
<path d="M39.6321 189.906C38.8788 188.776 38.9207 187.269 39.5484 186.097C40.1762 184.925 41.348 184.088 42.6454 183.712C43.2313 183.544 43.9427 183.503 44.4449 183.837C44.9053 184.172 45.1145 184.8 45.0308 185.386C44.9471 185.972 44.6542 186.474 44.3194 186.934C43.0639 188.483 41.5991 189.78 39.6321 189.906Z" fill="#2AC6FA"/>
<path d="M39.0459 197.104C39.0459 197.104 39.004 196.936 38.9622 196.643C38.9203 196.351 38.8785 195.89 38.8785 195.346C38.8366 194.258 38.7948 192.668 39.1296 190.994C39.5062 189.32 40.3014 187.897 41.0965 187.102C41.4732 186.683 41.8499 186.432 42.1428 186.265C42.3939 186.097 42.5613 186.013 42.5613 186.055C42.6032 186.097 41.9754 186.432 41.2221 187.227C40.4688 188.022 39.7155 189.403 39.3807 191.036C39.004 192.668 39.0459 194.216 39.0459 195.346C39.0877 196.434 39.0877 197.104 39.0459 197.104Z" fill="#263238"/>
<path d="M33.6474 177.937C33.6474 177.937 33.7729 178.188 33.9403 178.69C34.1077 179.192 34.3588 179.862 34.6518 180.74C35.2377 182.498 35.991 184.926 36.7443 187.604C37.4976 190.324 38.1254 192.793 38.5439 194.551C38.7531 195.43 38.9205 196.183 39.0461 196.685C39.1716 197.188 39.2135 197.481 39.1716 197.481C39.1716 197.481 39.0879 197.229 38.9205 196.727C38.795 196.183 38.5857 195.472 38.3765 194.635C37.9161 192.877 37.2465 190.408 36.4932 187.688C35.7399 184.967 35.0284 182.54 34.4844 180.782C34.2333 179.945 34.024 179.234 33.8566 178.69C33.6892 178.229 33.6055 177.937 33.6474 177.937Z" fill="#263238"/>
<path d="M36.5351 192.04C35.4051 189.445 32.9359 187.52 30.1738 186.976C29.4624 186.85 28.5835 186.85 28.2069 187.478C27.8302 188.064 28.165 188.901 28.5835 189.445C30.3412 191.872 33.6474 193.002 36.5351 192.207" fill="#2AC6FA"/>
<path d="M30.9688 189.027C30.9688 189.027 31.1362 189.027 31.4291 189.069C31.5965 189.069 31.7639 189.111 31.9732 189.194C32.1824 189.236 32.4335 189.32 32.6846 189.404C33.1868 189.571 33.7727 189.822 34.4005 190.199C34.9864 190.575 35.656 191.036 36.2419 191.622C36.8278 192.207 37.33 192.835 37.7066 193.421C38.0833 194.007 38.3762 194.593 38.5436 195.095C38.6692 195.346 38.711 195.597 38.7947 195.765C38.8784 195.974 38.9203 196.141 38.9203 196.309C38.9621 196.602 39.004 196.769 38.9621 196.769C38.9203 196.769 38.7947 196.141 38.3762 195.179C38.167 194.677 37.874 194.133 37.4974 193.547C37.1207 192.961 36.6185 192.375 36.0745 191.831C35.4886 191.287 34.9027 190.826 34.3168 190.45C33.7309 190.073 33.145 189.822 32.6846 189.613C31.6384 189.194 30.9688 189.069 30.9688 189.027Z" fill="#263238"/>
<path d="M151.833 36.8174C151.833 36.943 152.754 37.0267 153.842 37.0267C154.972 37.0267 155.851 36.943 155.851 36.8174C155.851 36.6919 154.93 36.6082 153.842 36.6082C152.754 36.6082 151.833 36.6919 151.833 36.8174Z" fill="#2AC6FA"/>
<path d="M149.699 31.335C149.573 31.335 149.49 32.2557 149.49 33.3856C149.49 34.5156 149.573 35.4363 149.699 35.4363C149.825 35.4363 149.908 34.5156 149.908 33.3856C149.908 32.2557 149.825 31.335 149.699 31.335Z" fill="#2AC6FA"/>
<path d="M147.397 36.6917C147.397 36.5661 146.476 36.4824 145.388 36.4824C144.258 36.4824 143.379 36.5661 143.379 36.6917C143.379 36.8172 144.3 36.9009 145.388 36.9009C146.476 36.9428 147.397 36.8172 147.397 36.6917Z" fill="#2AC6FA"/>
<path d="M149.532 42.2158C149.657 42.2158 149.741 41.2951 149.741 40.1652C149.741 39.0352 149.657 38.1145 149.532 38.1145C149.406 38.1145 149.322 39.0352 149.322 40.1652C149.322 41.2951 149.406 42.2158 149.532 42.2158Z" fill="#2AC6FA"/>
<path d="M146.267 39.8305C146.351 39.9142 146.769 39.5794 147.146 39.1191C147.564 38.6587 147.774 38.1984 147.69 38.1147C147.606 38.031 147.188 38.3658 146.811 38.8261C146.435 39.3283 146.183 39.7468 146.267 39.8305Z" fill="#2AC6FA"/>
<path d="M146.434 33.5949C146.351 33.6786 146.602 34.0971 147.02 34.5156C147.439 34.9341 147.857 35.1852 147.941 35.1015C148.025 35.0178 147.774 34.5993 147.355 34.1808C146.937 33.7623 146.56 33.5112 146.434 33.5949Z" fill="#2AC6FA"/>
<path d="M151.08 35.1851C151.163 35.2688 151.54 35.1014 151.917 34.7666C152.293 34.4318 152.544 34.097 152.503 34.0133C152.419 33.9296 152.042 34.097 151.666 34.4318C151.289 34.7666 151.038 35.1014 151.08 35.1851Z" fill="#2AC6FA"/>
<path d="M151.289 37.9472C151.206 38.0309 151.415 38.4494 151.792 38.826C152.168 39.2445 152.545 39.4956 152.629 39.4119C152.712 39.3282 152.503 38.9097 152.126 38.5331C151.75 38.1146 151.373 37.8635 151.289 37.9472Z" fill="#2AC6FA"/>
<path d="M51.6855 85.1544C51.6855 85.2381 52.1877 85.2799 52.8155 85.2799C53.4433 85.2799 53.9455 85.2381 53.9455 85.1544C53.9455 85.0707 53.4433 85.0288 52.8155 85.0288C52.1877 85.0288 51.6855 85.1125 51.6855 85.1544Z" fill="#2AC6FA"/>
<path d="M50.4717 82.0156C50.388 82.0156 50.3462 82.5178 50.3462 83.1874C50.3462 83.8152 50.388 84.3592 50.4717 84.3592C50.5554 84.3592 50.5973 83.857 50.5973 83.1874C50.5973 82.5597 50.5136 82.0156 50.4717 82.0156Z" fill="#2AC6FA"/>
<path d="M49.1745 85.0706C49.1745 84.9869 48.6723 84.9451 48.0445 84.9451C47.4168 84.9451 46.9146 84.9869 46.9146 85.0706C46.9146 85.1543 47.4168 85.1962 48.0445 85.1962C48.6304 85.1962 49.1745 85.1543 49.1745 85.0706Z" fill="#2AC6FA"/>
<path d="M50.3882 88.2093C50.4719 88.2093 50.5138 87.7071 50.5138 87.0375C50.5138 86.4098 50.4719 85.8657 50.3882 85.8657C50.3045 85.8657 50.2627 86.3679 50.2627 87.0375C50.2627 87.7071 50.3045 88.2093 50.3882 88.2093Z" fill="#2AC6FA"/>
<path d="M48.5051 86.8701C48.5469 86.912 48.798 86.7446 49.0073 86.4516C49.2165 86.2005 49.3839 85.9076 49.3002 85.8657C49.2584 85.8239 49.0073 85.9913 48.798 86.2842C48.5888 86.5772 48.4632 86.8283 48.5051 86.8701Z" fill="#2AC6FA"/>
<path d="M48.6305 83.3131C48.5886 83.3549 48.7142 83.606 48.9653 83.8153C49.2164 84.0664 49.4256 84.192 49.4675 84.1501C49.5093 84.1083 49.3838 83.8572 49.1327 83.6479C48.9234 83.4386 48.6723 83.2712 48.6305 83.3131Z" fill="#2AC6FA"/>
<path d="M51.2672 84.2338C51.3091 84.2756 51.5183 84.1919 51.7694 83.9827C51.9787 83.8153 52.1461 83.606 52.1042 83.5642C52.0624 83.5223 51.8531 83.606 51.602 83.8153C51.3509 83.9827 51.2254 84.1919 51.2672 84.2338Z" fill="#2AC6FA"/>
<path d="M51.3508 85.7821C51.3089 85.8239 51.4345 86.075 51.6437 86.2843C51.853 86.5354 52.0622 86.6609 52.1041 86.6191C52.1459 86.5772 52.0204 86.3261 51.8111 86.1169C51.6437 85.9076 51.4345 85.7402 51.3508 85.7821Z" fill="#2AC6FA"/>
<path d="M153.926 109.972C153.926 110.055 154.428 110.097 155.056 110.097C155.683 110.097 156.186 110.055 156.186 109.972C156.186 109.888 155.683 109.846 155.056 109.846C154.428 109.846 153.926 109.888 153.926 109.972Z" fill="#2AC6FA"/>
<path d="M152.712 106.833C152.628 106.833 152.586 107.335 152.586 108.005C152.586 108.632 152.628 109.176 152.712 109.176C152.796 109.176 152.838 108.674 152.838 108.005C152.838 107.377 152.754 106.833 152.712 106.833Z" fill="#2AC6FA"/>
<path d="M151.415 109.888C151.415 109.804 150.913 109.762 150.285 109.762C149.657 109.762 149.155 109.804 149.155 109.888C149.155 109.971 149.657 110.013 150.285 110.013C150.871 110.013 151.415 109.971 151.415 109.888Z" fill="#2AC6FA"/>
<path d="M152.628 113.026C152.712 113.026 152.754 112.524 152.754 111.855C152.754 111.227 152.712 110.683 152.628 110.683C152.545 110.683 152.503 111.185 152.503 111.855C152.503 112.482 152.545 113.026 152.628 113.026Z" fill="#2AC6FA"/>
<path d="M150.745 111.687C150.787 111.729 151.038 111.562 151.248 111.269C151.457 111.018 151.624 110.725 151.54 110.683C151.499 110.641 151.248 110.808 151.038 111.101C150.829 111.394 150.703 111.645 150.745 111.687Z" fill="#2AC6FA"/>
<path d="M150.871 108.13C150.829 108.172 150.954 108.423 151.206 108.632C151.457 108.884 151.666 109.009 151.708 108.967C151.75 108.925 151.624 108.674 151.373 108.465C151.164 108.256 150.913 108.088 150.871 108.13Z" fill="#2AC6FA"/>
<path d="M153.507 109.051C153.549 109.093 153.759 109.009 154.01 108.8C154.219 108.632 154.386 108.423 154.344 108.381C154.303 108.339 154.093 108.423 153.842 108.632C153.591 108.8 153.466 108.967 153.507 109.051Z" fill="#2AC6FA"/>
<path d="M153.591 110.599C153.549 110.641 153.675 110.892 153.884 111.101C154.093 111.353 154.302 111.478 154.344 111.436C154.386 111.394 154.261 111.143 154.051 110.934C153.884 110.725 153.675 110.557 153.591 110.599Z" fill="#2AC6FA"/>
<path d="M69.2627 174.798C69.2627 174.881 69.7649 174.923 70.3927 174.923C71.0204 174.923 71.5226 174.881 71.5226 174.798C71.5226 174.714 71.0204 174.672 70.3927 174.672C69.8067 174.63 69.2627 174.714 69.2627 174.798Z" fill="#2AC6FA"/>
<path d="M68.0489 171.659C67.9652 171.659 67.9233 172.161 67.9233 172.831C67.9233 173.458 67.9652 174.003 68.0489 174.003C68.1326 174.003 68.1744 173.5 68.1744 172.831C68.1744 172.161 68.1326 171.659 68.0489 171.659Z" fill="#2AC6FA"/>
<path d="M66.7516 174.714C66.7516 174.63 66.2494 174.588 65.6217 174.588C64.9939 174.588 64.4917 174.63 64.4917 174.714C64.4917 174.798 64.9939 174.839 65.6217 174.839C66.2494 174.839 66.7516 174.756 66.7516 174.714Z" fill="#2AC6FA"/>
<path d="M67.9654 177.811C68.0491 177.811 68.0909 177.309 68.0909 176.639C68.0909 176.011 68.0491 175.467 67.9654 175.467C67.8817 175.467 67.8398 175.969 67.8398 176.639C67.8398 177.309 67.9235 177.811 67.9654 177.811Z" fill="#2AC6FA"/>
<path d="M66.1237 176.472C66.1656 176.514 66.4167 176.346 66.6259 176.053C66.8352 175.802 67.0026 175.509 66.9189 175.467C66.877 175.425 66.6259 175.593 66.4167 175.886C66.2074 176.179 66.0819 176.43 66.1237 176.472Z" fill="#2AC6FA"/>
<path d="M66.2076 172.956C66.1658 172.998 66.2913 173.249 66.5424 173.459C66.7935 173.71 67.0028 173.835 67.0446 173.793C67.0865 173.751 66.9609 173.5 66.7098 173.291C66.5006 173.04 66.2913 172.873 66.2076 172.956Z" fill="#2AC6FA"/>
<path d="M68.886 173.835C68.9279 173.877 69.1371 173.793 69.3882 173.584C69.5975 173.417 69.7649 173.207 69.723 173.165C69.6812 173.124 69.4719 173.207 69.2208 173.417C68.9697 173.584 68.8023 173.793 68.886 173.835Z" fill="#2AC6FA"/>
<path d="M68.9694 175.425C68.9276 175.467 69.0531 175.718 69.2624 175.928C69.4716 176.179 69.6809 176.304 69.7228 176.262C69.7646 176.22 69.639 175.969 69.4298 175.76C69.2205 175.509 69.0113 175.342 68.9694 175.425Z" fill="#2AC6FA"/>
<path d="M67.5886 68.2051L67.463 68.5399C67.2119 69.0839 66.7934 69.5443 66.2494 69.7535L65.9146 69.8791L66.2494 70.0046C66.7934 70.2139 67.2538 70.6742 67.5049 71.2601L67.5886 71.5113L67.7141 71.2183C67.9652 70.6742 68.4256 70.2976 68.9696 70.0883L69.2626 69.9628L68.8859 69.7535C68.3837 69.5024 68.0071 69.0839 67.7978 68.5817L67.5886 68.2051Z" fill="#2AC6FA"/>
<path d="M52.8574 62.6809L52.7737 62.8483C52.6481 63.1413 52.4389 63.3505 52.1459 63.4761L51.9785 63.5598L52.1459 63.6435C52.4389 63.769 52.6481 63.9783 52.7737 64.2712L52.8155 64.3968L52.8992 64.2712C53.0248 64.0201 53.234 63.8109 53.527 63.6853L53.6944 63.6435L53.4851 63.5598C53.234 63.4342 53.0248 63.225 52.9411 62.9739L52.8574 62.6809Z" fill="#2AC6FA"/>
<path d="M167.36 39.9143L167.276 40.0817C167.151 40.3747 166.941 40.5839 166.648 40.7095L166.481 40.7932L166.648 40.8769C166.941 41.0024 167.151 41.2117 167.276 41.5046L167.318 41.6302L167.402 41.5046C167.527 41.2535 167.736 41.0443 168.029 40.9187L168.197 40.8769L167.988 40.7932C167.736 40.6676 167.527 40.4584 167.444 40.2073L167.36 39.9143Z" fill="#2AC6FA"/>
<path d="M161.04 125.121L160.956 125.289C160.831 125.582 160.621 125.791 160.329 125.916L160.161 126L160.329 126.084C160.621 126.209 160.831 126.419 160.956 126.712L160.998 126.837L161.082 126.712C161.207 126.461 161.417 126.251 161.71 126.126L161.877 126.084L161.668 126C161.417 125.875 161.207 125.665 161.124 125.414L161.04 125.121Z" fill="#2AC6FA"/>
<path d="M72.8198 162.452L72.7361 162.619C72.6105 162.912 72.4013 163.122 72.1083 163.247L71.9409 163.331L72.1083 163.414C72.4013 163.54 72.6105 163.749 72.7361 164.042L72.7779 164.168L72.8616 164.042C72.9872 163.791 73.1964 163.582 73.4894 163.456L73.6568 163.414L73.4475 163.331C73.1964 163.205 72.9872 162.996 72.9035 162.745L72.8198 162.452Z" fill="#2AC6FA"/>
<path d="M139.111 23.4253L139.027 23.5927C138.902 23.8856 138.692 24.0949 138.399 24.2204L138.232 24.3041L138.399 24.3878C138.692 24.5134 138.902 24.7226 139.027 25.0156L139.069 25.1412L139.153 25.0156C139.278 24.7645 139.487 24.5553 139.78 24.4297L139.948 24.3878L139.739 24.3041C139.487 24.1786 139.278 23.9693 139.194 23.7182L139.111 23.4253Z" fill="#2AC6FA"/>
<path d="M149.113 134.747L148.987 135.082C148.736 135.626 148.318 136.086 147.774 136.296L147.439 136.421L147.774 136.547C148.318 136.756 148.778 137.216 149.029 137.802L149.113 138.053L149.239 137.76C149.49 137.216 149.95 136.84 150.494 136.63L150.787 136.505L150.41 136.296C149.908 136.044 149.531 135.626 149.322 135.124L149.113 134.747Z" fill="#2AC6FA"/>
</g>
<defs>
<clipPath id="clip0_694_84572">
<rect width="209.251" height="202" fill="white"/>
</clipPath>
</defs>
</svg>
