<svg width="234" height="202" viewBox="0 0 234 202" fill="none" xmlns="http://www.w3.org/2000/svg">
<path d="M82.6806 189.154C93.4995 179.781 94.6187 164.392 92.7534 150.822C92.4269 148.537 92.4269 146.159 91.1678 144.247C89.8621 142.381 87.204 141.262 85.2921 142.428C83.7065 143.407 83.1469 145.413 82.4008 147.138C81.3749 149.423 79.6961 151.428 77.5976 152.781C76.2452 153.667 74.4732 154.319 72.9809 153.667C70.9291 152.781 70.4161 150.122 70.1829 147.837C69.7632 143.64 69.3435 139.397 68.9705 135.2C68.7373 132.961 68.5041 130.63 67.6181 128.578C66.6854 126.526 64.9134 124.661 62.7216 124.288C60.5299 123.915 57.965 125.407 57.7319 127.692C57.6386 128.625 57.9184 129.557 57.965 130.49C58.0117 131.423 57.6852 132.495 56.7992 132.868C55.9132 133.241 54.9339 132.682 54.2344 132.075C51.6696 130.024 49.8042 127.272 47.9856 124.474C46.2135 121.723 44.4414 118.878 42.1098 116.593C39.7315 114.308 36.6071 112.676 33.3427 112.816C30.0784 112.956 26.8607 115.334 26.3478 118.598C25.8348 121.863 28.0266 124.894 30.3582 127.272C33.7624 130.77 37.633 133.801 41.8766 136.179C42.6227 136.599 43.4621 137.065 43.8352 137.905C44.4881 139.35 43.229 140.982 41.7833 141.635C40.1512 142.381 38.3325 142.381 36.5604 142.754C34.835 143.128 32.9697 144.107 32.5033 145.832C31.8039 148.257 33.9956 150.449 36.0475 151.848C40.1978 154.646 44.7679 156.698 49.5711 157.91C51.2965 158.33 53.1152 158.703 54.5608 159.729C56.0065 160.755 57.0324 162.713 56.3795 164.392C55.7267 166.071 53.7214 166.771 51.9494 166.631C50.1773 166.491 48.4985 165.698 46.8197 165.232C43.602 164.392 39.5916 164.998 37.9128 167.89C36.7936 169.802 36.9335 172.273 37.8195 174.278C38.7056 176.33 40.2444 177.962 41.83 179.501C47.426 184.818 54.281 188.875 61.7423 190.6C69.0637 192.512 75.8255 192.512 82.6806 189.154Z" fill="#347387"/>
<path d="M83.9397 199.227C82.9138 193.911 81.0484 187.662 78.3437 180.994C75.639 174.325 72.0482 167.284 68.0378 160.009C67.0119 158.19 66.0326 156.418 65.0533 154.646C64.074 152.874 63.0947 151.148 62.0221 149.516C59.9236 146.205 57.6386 143.221 55.4002 140.423C53.1618 137.625 50.9234 135.06 48.8249 132.682C46.7264 130.303 44.7212 128.112 42.8093 126.2C38.9853 122.376 35.5345 119.624 33.1096 117.852C31.8971 116.966 30.9178 116.314 30.2649 115.847C29.9385 115.661 29.7053 115.474 29.5188 115.334C29.3323 115.241 29.239 115.194 29.239 115.194C29.239 115.194 29.3323 115.288 29.4722 115.381C29.6587 115.521 29.8919 115.707 30.2183 115.894C30.8712 116.36 31.8038 117.06 33.0163 117.946C35.4412 119.764 38.8454 122.516 42.6227 126.386C44.5347 128.298 46.4933 130.49 48.5918 132.868C50.6903 135.247 52.882 137.858 55.1204 140.609C57.3588 143.407 59.5972 146.392 61.6957 149.703C62.7216 151.335 63.7009 153.06 64.6802 154.833C65.6595 156.605 66.6388 158.377 67.6647 160.195C71.6752 167.423 75.2193 174.465 77.9706 181.087C80.722 187.709 82.5873 193.911 83.6599 199.227" fill="#E0E0E0"/>
<path d="M61.929 149.516C61.9756 149.516 61.9756 149.19 62.0689 148.537C62.1155 147.884 62.1621 146.998 62.2088 145.832C62.302 143.547 62.302 140.376 62.302 136.925C62.302 133.428 62.3487 130.304 62.4886 128.019C62.5352 126.899 62.5818 125.967 62.6285 125.314C62.6751 124.661 62.6751 124.334 62.6751 124.334C62.6285 124.334 62.5818 124.661 62.4886 125.314C62.3953 125.967 62.302 126.853 62.2088 128.019C62.0222 130.304 61.8823 133.475 61.8823 136.925C61.8823 140.376 61.8823 143.454 61.8823 145.832C61.8823 146.905 61.8823 147.791 61.8823 148.537C61.8823 149.19 61.8823 149.516 61.929 149.516Z" fill="#E0E0E0"/>
<path d="M32.3169 147.091C32.3169 147.138 32.7366 147.138 33.4827 147.091C34.2289 147.091 35.3014 147.045 36.6538 147.091C39.3585 147.091 43.0425 147.231 47.1462 147.604C51.2499 147.931 54.934 148.444 57.5921 148.863C58.9444 149.05 60.017 149.236 60.7165 149.376C61.4626 149.516 61.8823 149.563 61.8823 149.516C61.8823 149.47 61.4626 149.376 60.7631 149.19C60.017 149.003 58.9444 148.77 57.6387 148.537C54.9806 148.024 51.2966 147.511 47.1929 147.185C43.0891 146.858 39.3585 146.718 36.6538 146.812C35.3014 146.812 34.2289 146.905 33.4827 146.951C32.7366 147.045 32.3169 147.091 32.3169 147.091Z" fill="#E0E0E0"/>
<path d="M77.8774 180.481C77.8774 180.481 77.9241 180.341 78.0173 180.108C78.1106 179.828 78.2505 179.455 78.3904 178.988C78.7168 178.009 79.1832 176.61 79.6961 174.885C80.7687 171.434 82.0744 166.584 83.4268 161.221C84.7791 155.858 86.0849 151.009 87.0642 147.511C87.5305 145.832 87.9502 144.433 88.23 143.361C88.3699 142.894 88.4632 142.521 88.5564 142.241C88.6031 141.962 88.6497 141.868 88.6497 141.822C88.6497 141.822 88.6031 141.962 88.5098 142.195C88.4165 142.475 88.2766 142.848 88.1367 143.314C87.8103 144.293 87.344 145.692 86.831 147.418C85.7584 150.869 84.4527 155.718 83.1004 161.081C81.748 166.444 80.4423 171.294 79.463 174.791C78.9966 176.47 78.5769 177.869 78.2971 178.942C78.1572 179.408 78.064 179.781 77.9707 180.061C77.9241 180.341 77.8774 180.481 77.8774 180.481Z" fill="#E0E0E0"/>
<path d="M38.0061 172.04C38.0061 172.04 38.146 172.087 38.4258 172.18C38.7522 172.227 39.1253 172.32 39.5916 172.46C40.6642 172.693 42.1098 173.019 43.8819 173.392C47.4726 174.185 52.4624 175.304 57.9651 176.517C63.4678 177.776 68.4575 178.848 72.0483 179.548C73.867 179.874 75.3126 180.154 76.3385 180.341C76.8049 180.434 77.1779 180.481 77.5044 180.527C77.7842 180.574 77.9241 180.574 77.9241 180.574C77.9241 180.574 77.7842 180.527 77.5044 180.434C77.1779 180.387 76.8049 180.294 76.3385 180.154C75.266 179.921 73.8204 179.595 72.0483 179.222C68.4575 178.429 63.4678 177.31 57.9651 176.097C52.4624 174.838 47.4726 173.765 43.8819 173.066C42.0632 172.74 40.6176 172.46 39.5916 172.273C39.1253 172.18 38.7522 172.133 38.4258 172.087C38.146 172.04 38.0061 172.04 38.0061 172.04Z" fill="#E0E0E0"/>
<path d="M71.6285 86.0951C71.3021 86.0951 70.929 85.9085 70.7891 85.5821L68.7839 81.3851C68.644 81.1053 68.644 80.8255 68.7839 80.5457C68.9238 80.2659 69.1569 80.0794 69.4367 80.0328C70.1828 79.8929 70.8823 79.4265 71.3487 78.727C71.7684 78.0742 71.9083 77.328 71.7684 76.6752C71.6285 76.0223 71.1155 75.4161 70.4627 75.043C69.7632 74.6233 68.8771 74.5301 68.1776 74.7166C66.732 75.1363 65.6594 76.8617 65.8926 78.4472C65.9859 78.9602 65.6128 79.4265 65.0998 79.5198C64.5869 79.6131 64.1205 79.24 64.0273 78.727C63.6542 76.2089 65.2864 73.644 67.618 72.9445C68.8305 72.5715 70.1829 72.758 71.3953 73.4109C72.5145 74.0637 73.3073 75.0897 73.5871 76.2089C73.8669 77.3747 73.6337 78.6338 72.9342 79.7063C72.4212 80.4991 71.7217 81.1053 70.929 81.4784L72.4679 84.7427C72.701 85.209 72.5145 85.7686 72.0482 86.0018C71.9083 86.0951 71.7684 86.0951 71.6285 86.0951Z" fill="#2AC6FA"/>
<path d="M73.6336 87.3076C73.8201 87.6807 73.6802 88.147 73.3072 88.3336C72.9341 88.5201 72.4678 88.3802 72.2812 88.0071C72.0947 87.6341 72.2346 87.1677 72.6077 86.9812C72.9807 86.7947 73.4471 86.9346 73.6336 87.3076Z" fill="#2AC6FA"/>
<path d="M45.9804 72.012C45.7473 72.012 45.5141 71.8721 45.3742 71.6389L43.9752 68.701C43.8819 68.5145 43.8819 68.2813 43.9752 68.0948C44.0685 67.9083 44.255 67.7684 44.4415 67.7684C44.9545 67.6751 45.4675 67.3487 45.7939 66.8357C46.0737 66.3694 46.167 65.8564 46.0737 65.3901C45.9804 64.9237 45.6074 64.5041 45.141 64.2709C44.6281 63.9911 44.0218 63.8978 43.5555 64.0377C42.5296 64.3642 41.7835 65.53 41.97 66.6492C42.0166 67.0222 41.7835 67.3487 41.4104 67.3953C41.0373 67.4419 40.7109 67.2088 40.6643 66.8357C40.4311 65.1103 41.5503 63.2916 43.1824 62.7786C44.0218 62.5455 45.0011 62.6387 45.7939 63.1051C46.5867 63.5714 47.1463 64.2709 47.3328 65.0636C47.5193 65.8564 47.3794 66.7891 46.8665 67.5352C46.4934 68.0948 46.0271 68.5145 45.4675 68.7477L46.54 71.0327C46.6799 71.3591 46.54 71.7322 46.2136 71.9187C46.167 71.9654 46.0737 72.012 45.9804 72.012Z" fill="#02394B"/>
<path d="M47.3794 72.8514C47.5193 73.1312 47.426 73.4576 47.1462 73.5509C46.8664 73.6908 46.54 73.5975 46.4467 73.3177C46.3535 73.0379 46.4001 72.7115 46.6799 72.6182C46.9131 72.4783 47.2395 72.5716 47.3794 72.8514Z" fill="#02394B"/>
<path d="M162.33 73.5973C162.423 73.8305 162.423 74.1103 162.237 74.2968L160.185 76.815C160.045 76.9549 159.858 77.0482 159.672 77.0482C159.485 77.0482 159.299 76.9549 159.159 76.7684C158.832 76.3487 158.32 76.0222 157.76 75.9756C157.247 75.8823 156.734 76.0222 156.361 76.3487C155.988 76.6285 155.755 77.1414 155.708 77.6544C155.661 78.214 155.848 78.8202 156.174 79.1933C156.874 79.986 158.273 80.1259 159.206 79.5197C159.485 79.3332 159.905 79.4264 160.092 79.7062C160.278 80.0327 160.185 80.4057 159.905 80.5923C158.413 81.5716 156.314 81.2918 155.195 80.0327C154.589 79.3798 154.309 78.4471 154.402 77.5145C154.449 76.6285 154.869 75.7891 155.522 75.2761C156.174 74.7631 157.06 74.53 157.946 74.6232C158.599 74.7165 159.206 74.9497 159.672 75.3694L161.257 73.4108C161.491 73.131 161.91 73.0843 162.19 73.3175C162.237 73.4108 162.283 73.504 162.33 73.5973Z" fill="#02394B"/>
<path d="M162.516 71.9652C162.703 71.732 163.029 71.6854 163.263 71.8719C163.496 72.0585 163.542 72.3849 163.356 72.6181C163.169 72.8512 162.843 72.8979 162.61 72.7113C162.377 72.5248 162.33 72.1984 162.516 71.9652Z" fill="#02394B"/>
<path d="M155.522 12.7411C155.615 12.9743 155.615 13.2541 155.428 13.4406L153.377 15.9588C153.237 16.0987 153.05 16.192 152.864 16.192C152.677 16.192 152.49 16.0987 152.351 15.9122C152.024 15.4925 151.511 15.166 150.952 15.1194C150.439 15.0261 149.926 15.166 149.553 15.4925C149.18 15.7723 148.946 16.2852 148.9 16.7982C148.853 17.3578 149.04 17.964 149.366 18.3371C150.066 19.1298 151.465 19.2697 152.397 18.6635C152.677 18.477 153.097 18.5702 153.283 18.85C153.47 19.1765 153.376 19.5495 153.097 19.7361C151.604 20.7154 149.506 20.4356 148.387 19.1765C147.781 18.5236 147.501 17.5909 147.594 16.6583C147.641 15.7723 148.06 14.9329 148.713 14.4199C149.366 13.9069 150.252 13.6738 151.138 13.767C151.791 13.8603 152.397 14.0935 152.864 14.5132L154.449 12.5546C154.682 12.2748 155.102 12.2281 155.382 12.4613C155.428 12.6012 155.475 12.6478 155.522 12.7411Z" fill="#02394B"/>
<path d="M155.661 11.109C155.848 10.8758 156.174 10.8292 156.408 11.0157C156.641 11.2023 156.687 11.5287 156.501 11.7619C156.314 11.995 155.988 12.0417 155.755 11.8551C155.522 11.7152 155.475 11.3422 155.661 11.109Z" fill="#02394B"/>
<path d="M103.759 22.1145C104.085 22.1145 104.365 22.301 104.505 22.5808L106.323 26.4048C106.417 26.6379 106.417 26.9177 106.323 27.1509C106.184 27.384 105.997 27.5706 105.717 27.6172C105.018 27.7571 104.411 28.1768 103.992 28.783C103.619 29.3426 103.479 30.0421 103.619 30.6484C103.759 31.2546 104.178 31.7676 104.831 32.1406C105.484 32.5137 106.277 32.607 106.93 32.4204C108.235 32.0474 109.215 30.4618 108.982 29.0162C108.935 28.5499 109.261 28.1302 109.728 28.0369C110.194 27.9903 110.614 28.3167 110.707 28.783C111.033 31.0681 109.541 33.3997 107.443 34.0526C106.323 34.379 105.111 34.2391 104.038 33.6329C103.012 33.0733 102.313 32.1406 102.033 31.0681C101.753 29.9955 101.987 28.8763 102.639 27.897C103.106 27.1975 103.759 26.6379 104.458 26.3115L103.059 23.3736C102.873 22.9539 103.012 22.4409 103.479 22.2544C103.479 22.1145 103.619 22.1145 103.759 22.1145Z" fill="#7FDDFC"/>
<path d="M101.893 20.9952C101.707 20.6688 101.847 20.2491 102.173 20.0626C102.5 19.876 102.919 20.0159 103.106 20.3424C103.292 20.6688 103.152 21.0885 102.826 21.275C102.5 21.5082 102.08 21.3683 101.893 20.9952Z" fill="#7FDDFC"/>
<path d="M166.993 97.5669C167.32 97.5669 167.599 97.7534 167.739 98.0332L169.558 101.857C169.651 102.09 169.651 102.37 169.558 102.603C169.418 102.836 169.232 103.023 168.952 103.07C168.252 103.21 167.646 103.629 167.226 104.235C166.853 104.795 166.713 105.495 166.853 106.101C166.993 106.707 167.413 107.22 168.066 107.593C168.719 107.966 169.511 108.059 170.164 107.873C171.47 107.5 172.449 105.914 172.216 104.469C172.169 104.002 172.496 103.583 172.962 103.489C173.429 103.443 173.848 103.769 173.942 104.235C174.268 106.52 172.776 108.852 170.677 109.505C169.558 109.831 168.346 109.692 167.273 109.085C166.247 108.526 165.548 107.593 165.268 106.52C164.988 105.448 165.221 104.329 165.874 103.349C166.34 102.65 166.993 102.09 167.693 101.764L166.294 98.826C166.107 98.4063 166.247 97.8933 166.713 97.7068C166.76 97.5669 166.853 97.5669 166.993 97.5669Z" fill="#2AC6FA"/>
<path d="M165.175 96.4476C164.988 96.1212 165.128 95.7015 165.454 95.5149C165.781 95.3284 166.201 95.4683 166.387 95.7947C166.574 96.1212 166.434 96.5409 166.107 96.7274C165.781 96.9606 165.361 96.8207 165.175 96.4476Z" fill="#2AC6FA"/>
<path d="M179.724 122.236C179.724 122.236 176.133 119.484 170.91 128.158C165.688 136.832 163.589 141.915 163.589 141.915C163.589 141.915 162.237 143.734 161.024 142.381C159.812 141.076 158.273 137.438 156.035 137.905C153.703 138.418 152.77 140.889 152.957 144.666C153.143 148.444 153.19 156.744 153.19 157.49C153.19 158.237 152.677 159.263 151.744 158.516C150.765 157.724 145.402 150.822 142.278 153.573C139.153 156.325 141.345 166.77 141.578 167.936C141.811 169.102 141.532 169.568 140.972 169.802C140.412 170.035 138.827 167.563 137.195 165.651C135.563 163.739 133.371 161.827 131.692 163.553C130.013 165.278 128.987 172.926 135.376 185.937L138.734 191.766L145.495 191.859C159.952 191.206 166.154 186.59 166.853 184.305C167.553 182.02 164.802 180.994 162.377 180.527C159.905 180.014 156.967 179.874 156.921 179.268C156.874 178.662 157.154 178.242 158.273 177.869C159.392 177.496 169.605 174.372 170.491 170.315C171.377 166.258 162.703 164.859 161.584 164.392C160.465 163.926 161.118 162.993 161.77 162.62C162.423 162.247 169.698 158.33 173.102 156.651C176.506 154.972 178.232 152.967 177.532 150.682C176.88 148.49 172.962 148.91 171.19 148.49C169.465 148.071 170.351 146.019 170.351 146.019C170.351 146.019 173.755 141.728 178.838 132.961C183.921 124.194 179.631 122.376 179.631 122.376" fill="#347387"/>
<path d="M175.014 130.024C175.014 130.024 174.968 130.07 174.921 130.21C174.828 130.35 174.734 130.537 174.595 130.77C174.315 131.236 173.942 131.936 173.429 132.868C172.403 134.687 170.911 137.298 168.999 140.47C165.268 146.905 159.998 155.719 154.169 165.465C148.34 175.211 143.071 184.025 139.293 190.414C137.428 193.631 135.889 196.196 134.816 198.015C134.304 198.901 133.884 199.6 133.604 200.067C133.464 200.3 133.371 200.486 133.278 200.58C133.184 200.72 133.184 200.766 133.184 200.766C133.184 200.766 133.231 200.72 133.278 200.58C133.371 200.44 133.464 200.253 133.557 200.02C133.837 199.554 134.21 198.854 134.723 197.922C135.749 196.103 137.241 193.491 139.153 190.32C142.884 183.885 148.154 175.071 153.983 165.325C159.812 155.579 165.081 146.765 168.859 140.376C170.724 137.159 172.263 134.594 173.335 132.775C173.848 131.889 174.268 131.19 174.548 130.723C174.688 130.49 174.781 130.303 174.874 130.21C174.968 130.07 175.014 130.024 175.014 130.024Z" fill="#E0E0E0"/>
<path d="M157.993 143.034C157.993 143.034 158.04 143.221 158.133 143.501C158.226 143.827 158.32 144.247 158.413 144.806C158.646 145.879 158.926 147.418 159.206 149.096C159.485 150.775 159.719 152.268 159.905 153.387C159.998 153.9 160.045 154.319 160.138 154.692C160.185 155.019 160.232 155.159 160.185 155.159C160.185 155.159 160.138 155.019 160.045 154.692C159.952 154.366 159.858 153.946 159.765 153.387C159.532 152.268 159.299 150.775 159.019 149.096C158.739 147.418 158.506 145.925 158.32 144.806C158.226 144.293 158.18 143.874 158.086 143.501C157.993 143.221 157.947 143.034 157.993 143.034Z" fill="#E0E0E0"/>
<path d="M160.744 155.392C160.744 155.345 163.822 154.646 167.693 153.807C171.517 153.014 174.688 152.361 174.688 152.454C174.688 152.501 171.61 153.2 167.739 154.04C163.869 154.832 160.744 155.439 160.744 155.392Z" fill="#E0E0E0"/>
<path d="M151.091 169.895C151.091 169.895 151.278 169.895 151.604 169.895C151.977 169.942 152.397 169.942 152.957 169.988C154.076 170.082 155.661 170.175 157.387 170.221C159.112 170.268 160.698 170.268 161.817 170.268C162.377 170.268 162.796 170.268 163.169 170.268C163.496 170.268 163.682 170.268 163.682 170.268C163.682 170.268 163.496 170.315 163.169 170.315C162.843 170.361 162.377 170.361 161.817 170.408C160.698 170.455 159.112 170.501 157.34 170.408C155.615 170.361 154.029 170.221 152.91 170.082C152.35 170.035 151.884 169.942 151.558 169.895C151.278 169.942 151.091 169.942 151.091 169.895Z" fill="#E0E0E0"/>
<path d="M146.148 159.309C146.148 159.309 146.241 159.449 146.381 159.682C146.521 159.962 146.708 160.335 146.941 160.801C147.407 161.734 148.06 163.04 148.76 164.485C149.459 165.931 150.065 167.237 150.532 168.216C150.718 168.682 150.905 169.055 151.045 169.335C151.185 169.615 151.231 169.755 151.185 169.755C151.185 169.755 151.091 169.615 150.951 169.382C150.812 169.102 150.625 168.729 150.392 168.263C149.925 167.33 149.273 166.024 148.573 164.579C147.874 163.133 147.267 161.827 146.801 160.848C146.615 160.382 146.428 160.009 146.288 159.729C146.195 159.496 146.148 159.356 146.148 159.309Z" fill="#E0E0E0"/>
<path d="M136.029 171.107C136.029 171.107 136.169 171.294 136.309 171.62C136.495 171.993 136.728 172.46 137.055 173.019C137.661 174.232 138.501 175.911 139.433 177.729C140.366 179.595 141.159 181.273 141.765 182.486C142.045 183.092 142.278 183.558 142.464 183.932C142.604 184.258 142.698 184.491 142.698 184.491C142.698 184.491 142.558 184.305 142.418 183.978C142.231 183.605 141.998 183.139 141.672 182.579C141.065 181.367 140.226 179.688 139.293 177.869C138.361 176.004 137.568 174.325 136.962 173.113C136.682 172.506 136.449 172.04 136.262 171.667C136.076 171.294 135.982 171.107 136.029 171.107Z" fill="#E0E0E0"/>
<path d="M142.558 184.118C142.558 184.118 142.791 184.118 143.21 184.118C143.63 184.118 144.236 184.165 144.936 184.165C146.382 184.211 148.387 184.304 150.579 184.304C152.77 184.304 154.775 184.304 156.221 184.258C156.921 184.258 157.48 184.211 157.947 184.211C158.366 184.211 158.553 184.211 158.599 184.211C158.599 184.211 158.366 184.258 157.993 184.304C157.573 184.351 157.014 184.398 156.268 184.398C154.822 184.491 152.817 184.538 150.625 184.538C148.433 184.538 146.428 184.444 144.983 184.351C144.283 184.304 143.677 184.258 143.257 184.211C142.791 184.118 142.558 184.118 142.558 184.118Z" fill="#E0E0E0"/>
<path d="M117.282 201.927C170.981 201.927 214.512 200.654 214.512 199.085C214.512 197.515 170.981 196.242 117.282 196.242C63.5836 196.242 20.0522 197.515 20.0522 199.085C20.0522 200.654 63.5836 201.927 117.282 201.927Z" fill="#F5F5F5"/>
<path d="M160.838 170.361L153.75 136.506C153.75 136.506 149.599 120.184 135.236 114.541L134.257 114.215C134.257 114.215 132.905 113.795 132.858 113.795C132.298 113.562 129.92 112.816 129.314 112.629C110.008 105.914 104.878 107.686 84.7325 114.541C84.7325 114.541 75.7789 116.966 71.442 128.625C67.1051 140.283 58.8044 158.563 58.8044 158.563L78.9033 165.651L82.7739 159.915V181.04V199.041H106.603H138.034L136.495 181.04L136.215 158.843" fill="#2AC6FA"/>
<path d="M104.598 116.64C104.598 116.64 104.458 116.826 104.132 117.06C103.992 117.2 103.805 117.339 103.572 117.526C103.339 117.712 103.059 117.899 102.779 118.086C102.173 118.459 101.38 118.878 100.494 119.251C99.6084 119.624 98.5825 119.951 97.5099 120.137C96.4373 120.324 95.3648 120.417 94.3855 120.417C93.4062 120.417 92.5668 120.324 91.8673 120.184C91.4942 120.137 91.2144 120.044 90.888 119.997C90.6082 119.951 90.375 119.858 90.1885 119.811C89.8154 119.671 89.5823 119.624 89.5823 119.578C89.5823 119.531 90.4217 119.811 91.8673 120.044C92.5668 120.137 93.4528 120.231 94.3855 120.231C95.3181 120.231 96.3907 120.137 97.4633 119.904C98.5358 119.671 99.5151 119.391 100.401 119.018C101.287 118.645 102.033 118.272 102.64 117.899C103.899 117.199 104.552 116.64 104.598 116.64Z" fill="#FAFAFA"/>
<g opacity="0.3">
<path d="M82.7273 174.838L87.2507 180.061H91.7275V185.797L137.754 196.429L137.381 191.999L94.0591 177.123H86.831L83.3335 174.325L82.7273 174.838Z" fill="#333232"/>
</g>
<path d="M96.2975 170.175L92.4736 169.475C92.4736 169.475 83.3801 159.496 81.6547 159.356C80.2557 159.216 72.5146 159.309 69.8099 159.356C69.2969 159.356 68.8772 159.776 68.8772 160.289C68.8772 160.801 69.2969 161.221 69.7632 161.221L78.9033 161.594L78.95 162.34L69.7632 162.48C68.8306 162.574 68.2243 164.019 71.2089 164.299L78.8567 164.579V165.045L71.069 166.118C70.6959 166.164 69.6233 166.351 69.6233 166.771C69.6233 166.771 69.157 167.75 71.3488 168.03C72.0949 168.123 78.8567 167.89 78.8567 167.89L78.5769 168.496L71.5819 169.988C71.069 170.082 70.7425 170.594 70.7892 171.107C70.8824 171.62 71.3488 171.993 71.8617 171.947L79.323 171.247L86.6444 177.076H96.4374L96.2975 170.175Z" fill="#FFBE9D"/>
<path d="M160.838 170.361L138.454 174.791L136.216 158.889" fill="#2AC6FA"/>
<path d="M135.516 171.014L94.1057 169.662V183.978L121.573 189.434L140.879 192.512C152.863 192.512 162.47 181.506 160.605 169.662H160.558L135.516 171.014Z" fill="#2AC6FA"/>
<path d="M146.894 170.734C146.894 170.734 146.708 170.781 146.335 170.781C145.962 170.781 145.449 170.827 144.796 170.827C143.444 170.874 141.485 170.874 139.153 170.921C134.35 170.967 127.775 171.061 120.453 171.014C113.132 170.921 106.557 170.688 101.754 170.361C99.3753 170.221 97.4167 170.035 96.1109 169.895C95.4581 169.848 94.9451 169.755 94.572 169.755C94.199 169.708 94.0591 169.708 94.0591 169.662C94.0591 169.662 94.2456 169.662 94.6187 169.662C94.9917 169.708 95.5047 169.708 96.1576 169.755C97.5099 169.848 99.4219 169.988 101.8 170.081C106.557 170.361 113.179 170.594 120.453 170.641C127.728 170.688 134.35 170.688 139.153 170.641C141.532 170.641 143.444 170.641 144.796 170.641C145.449 170.641 145.962 170.641 146.335 170.641C146.708 170.688 146.894 170.734 146.894 170.734Z" fill="#333232"/>
<path d="M94.0591 169.802C94.0591 169.802 94.0591 169.895 94.0591 170.035C94.0591 170.221 94.0591 170.454 94.0591 170.781C94.0591 171.434 94.0591 172.413 94.1057 173.625C94.1057 176.097 94.1524 179.548 94.1524 183.745L94.0591 183.652C98.7224 184.677 104.365 185.89 110.381 187.149C118.635 188.921 126.189 190.273 131.645 191.113C134.397 191.533 136.589 191.859 138.127 192.046C138.874 192.139 139.48 192.232 139.899 192.279C140.086 192.325 140.226 192.325 140.366 192.325C140.459 192.325 140.506 192.372 140.506 192.372C140.506 192.372 140.459 192.372 140.366 192.372C140.226 192.372 140.086 192.325 139.899 192.325C139.48 192.279 138.874 192.232 138.127 192.139C136.589 191.952 134.35 191.672 131.599 191.299C126.096 190.507 118.588 189.154 110.287 187.382C104.272 186.123 98.6291 184.864 93.9658 183.838H93.8726V183.745C93.8726 179.548 93.9192 176.097 93.9192 173.625C93.9192 172.413 93.9192 171.48 93.9658 170.781C93.9658 170.454 93.9658 170.221 93.9658 170.035C94.0591 169.848 94.0591 169.802 94.0591 169.802Z" fill="#333232"/>
<path d="M90.5151 130.63C90.5151 130.63 90.5151 130.397 90.5617 129.93C90.6084 129.464 90.655 128.811 90.655 128.018C90.7016 126.433 90.6084 124.194 90.2353 121.769C89.8156 119.391 89.256 117.199 88.4632 115.8C88.0435 115.101 87.5772 114.681 87.2041 114.401C86.8311 114.122 86.5979 114.028 86.5979 114.028C86.5979 114.028 86.6445 114.028 86.7844 114.075C86.8777 114.122 87.0642 114.215 87.2508 114.308C87.6238 114.541 88.1368 115.008 88.6031 115.707C89.0695 116.407 89.4425 117.293 89.7223 118.319C90.0021 119.344 90.2819 120.51 90.5151 121.723C90.9348 124.148 90.9814 126.386 90.8881 128.018C90.8415 128.811 90.7949 129.464 90.7016 129.93C90.6084 130.397 90.5617 130.63 90.5151 130.63Z" fill="#333232"/>
<path d="M136.075 118.039C136.122 118.039 136.215 127.552 136.215 139.304C136.215 151.055 136.169 160.568 136.075 160.568C135.982 160.568 135.936 151.055 135.936 139.304C135.982 127.552 136.029 118.039 136.075 118.039Z" fill="#333232"/>
<path d="M150.392 165.838C150.392 165.885 149.692 165.838 148.573 165.978C148.014 166.024 147.361 166.164 146.615 166.351C145.915 166.537 145.122 166.817 144.33 167.144C143.537 167.517 142.837 167.89 142.231 168.309C141.625 168.729 141.065 169.149 140.646 169.522C139.806 170.268 139.34 170.828 139.34 170.781C139.34 170.781 139.433 170.641 139.62 170.361C139.806 170.128 140.133 169.755 140.552 169.382C140.972 168.962 141.485 168.543 142.091 168.123C142.697 167.703 143.444 167.284 144.236 166.91C145.029 166.537 145.822 166.304 146.568 166.118C147.314 165.931 147.967 165.838 148.527 165.791C149.086 165.745 149.553 165.745 149.879 165.745C150.205 165.838 150.392 165.838 150.392 165.838Z" fill="#333232"/>
<g opacity="0.3">
<path d="M90.9347 167.843C97.9297 163.693 102.267 156.791 106.51 149.843C110.754 142.894 114.718 135.666 120.64 130.07C123.345 127.505 126.516 125.36 127.542 121.723L116.909 130.163L87.344 164.159L90.9347 167.843Z" fill="#333232"/>
</g>
<path d="M71.7684 149.61C71.7684 149.703 70.0896 149.656 68.1777 150.309C67.245 150.635 66.4056 151.055 65.7994 151.335C65.1931 151.661 64.8667 151.848 64.8201 151.801C64.8201 151.755 65.1465 151.521 65.7061 151.195C66.2657 150.869 67.1051 150.402 68.0844 150.076C69.0637 149.749 69.9963 149.61 70.6492 149.61C71.3487 149.516 71.7684 149.563 71.7684 149.61Z" fill="#333232"/>
<path d="M71.7684 149.61C71.7684 149.703 70.0896 149.656 68.1777 150.309C67.245 150.635 66.4056 151.055 65.7994 151.335C65.1931 151.661 64.8667 151.848 64.8201 151.801C64.8201 151.755 65.1465 151.521 65.7061 151.195C66.2657 150.869 67.1051 150.402 68.0844 150.076C69.0637 149.749 69.9963 149.61 70.6492 149.61C71.3487 149.516 71.7684 149.563 71.7684 149.61Z" fill="#333232"/>
<path d="M135.936 164.812C135.936 164.859 135.423 164.392 134.303 164.066C133.231 163.739 131.505 163.739 129.547 164.346C127.588 164.952 125.536 166.351 122.972 167.377C121.713 167.89 120.267 168.263 118.775 168.17C117.282 168.076 115.79 167.517 114.391 166.817C112.992 166.118 111.64 165.325 110.334 164.672C108.982 164.066 107.629 163.646 106.277 163.506C103.572 163.273 101.147 163.879 99.282 164.765C97.4167 165.651 96.1576 166.771 95.4114 167.61C95.2249 167.843 95.0384 168.03 94.8985 168.17C94.7586 168.356 94.6653 168.496 94.572 168.636C94.4788 168.729 94.4321 168.822 94.3389 168.916C94.2922 168.962 94.2456 169.009 94.2456 169.009C94.2456 169.009 94.2456 168.962 94.2922 168.916C94.3389 168.822 94.3855 168.729 94.4788 168.636C94.572 168.496 94.6653 168.356 94.8052 168.17C94.9451 167.983 95.1316 167.797 95.3182 167.563C96.0643 166.724 97.3234 165.512 99.1887 164.625C100.121 164.159 101.194 163.786 102.406 163.506C103.619 163.273 104.925 163.133 106.277 163.273C107.629 163.413 109.075 163.786 110.427 164.439C111.78 165.045 113.085 165.838 114.484 166.537C115.883 167.237 117.329 167.797 118.775 167.89C120.22 167.983 121.619 167.61 122.878 167.097C125.397 166.071 127.448 164.672 129.454 164.113C131.459 163.506 133.184 163.506 134.303 163.879C134.863 164.066 135.236 164.252 135.516 164.439C135.609 164.532 135.702 164.579 135.796 164.625C135.889 164.812 135.936 164.812 135.936 164.812Z" fill="#FAFAFA"/>
<path d="M156.174 147.604C156.174 147.651 155.895 147.464 155.335 147.464C154.775 147.418 153.983 147.604 153.143 148.117C152.304 148.583 151.464 149.47 150.299 150.122C149.692 150.449 148.993 150.682 148.247 150.635C147.501 150.589 146.801 150.309 146.102 149.936C145.402 149.609 144.796 149.19 144.143 148.957C143.49 148.677 142.837 148.49 142.184 148.397C141.532 148.304 140.925 148.257 140.319 148.304C139.759 148.304 139.2 148.397 138.734 148.537C137.754 148.77 137.008 149.05 136.542 149.33C136.029 149.563 135.796 149.749 135.796 149.749C135.796 149.749 135.842 149.703 135.982 149.609C136.122 149.516 136.262 149.376 136.542 149.283C137.008 149.003 137.754 148.63 138.734 148.397C139.2 148.257 139.759 148.164 140.366 148.164C140.972 148.117 141.578 148.164 142.278 148.257C142.931 148.35 143.63 148.537 144.283 148.817C144.982 149.096 145.589 149.469 146.288 149.796C146.941 150.122 147.64 150.402 148.34 150.449C149.039 150.495 149.692 150.262 150.252 149.982C151.371 149.376 152.257 148.49 153.143 148.024C154.029 147.511 154.869 147.324 155.428 147.418C155.708 147.464 155.941 147.511 156.081 147.558C156.128 147.558 156.174 147.558 156.174 147.604Z" fill="#FAFAFA"/>
<path d="M135.656 141.215C135.656 141.215 135.562 141.215 135.329 141.169C135.236 141.169 135.096 141.122 134.956 141.076C134.816 141.076 134.63 141.029 134.443 141.029C133.651 140.936 132.485 140.982 131.132 141.355C129.78 141.728 128.194 142.475 126.609 143.407C124.977 144.34 123.251 145.506 121.199 146.345C120.174 146.765 119.148 147.091 118.122 147.184C117.096 147.324 116.07 147.231 115.137 146.998C114.205 146.765 113.365 146.345 112.619 146.019C111.873 145.646 111.173 145.272 110.52 144.993C109.261 144.386 108.096 144.06 107.303 144.013C106.93 144.013 106.603 144.013 106.37 144.06C106.184 144.06 106.044 144.107 106.044 144.06C106.044 144.06 106.137 144.013 106.37 144.013C106.557 143.967 106.883 143.967 107.303 143.92C108.096 143.92 109.261 144.2 110.567 144.806C111.22 145.086 111.919 145.459 112.666 145.832C113.412 146.205 114.251 146.578 115.137 146.811C116.023 147.045 117.049 147.138 118.028 146.998C119.054 146.905 120.034 146.578 121.06 146.159C123.065 145.319 124.79 144.2 126.469 143.267C128.101 142.335 129.687 141.635 131.086 141.262C132.485 140.889 133.651 140.889 134.443 140.982C134.63 141.029 134.816 141.029 134.956 141.076C135.096 141.122 135.236 141.169 135.329 141.169C135.562 141.169 135.656 141.215 135.656 141.215Z" fill="#FAFAFA"/>
<path d="M150.112 126.853C150.112 126.853 149.925 126.992 149.599 127.132C149.273 127.319 148.806 127.552 148.2 127.832C147.594 128.112 146.848 128.391 146.008 128.578C145.169 128.811 144.143 128.904 143.164 128.764C142.138 128.671 141.205 128.438 140.366 128.345C139.526 128.205 138.734 128.205 138.081 128.298C136.775 128.485 136.122 129.091 136.122 129.044C136.122 129.044 136.169 128.998 136.215 128.951C136.309 128.904 136.402 128.811 136.542 128.718C136.868 128.531 137.381 128.298 138.034 128.205C138.687 128.065 139.526 128.065 140.366 128.205C141.252 128.298 142.184 128.531 143.164 128.625C145.169 128.858 146.941 128.205 148.153 127.739C148.76 127.505 149.273 127.272 149.599 127.132C149.925 126.899 150.112 126.853 150.112 126.853Z" fill="#FAFAFA"/>
<path d="M89.8155 134.64C89.8155 134.687 89.5357 134.454 88.9761 134.454C88.4165 134.407 87.6237 134.64 86.8309 135.246C86.4112 135.526 85.9915 135.899 85.5252 136.226C85.0122 136.552 84.406 136.785 83.7532 136.925C82.4008 137.158 80.9085 136.925 79.4629 136.412C78.0173 135.899 76.7115 135.246 75.4991 134.78C74.8929 134.547 74.2866 134.407 73.727 134.314C73.1674 134.22 72.6078 134.174 72.1415 134.22C71.1622 134.267 70.3694 134.547 69.9031 134.827C69.4368 135.107 69.2036 135.34 69.2036 135.293C69.2036 135.293 69.2502 135.246 69.3435 135.107C69.4368 135.013 69.6233 134.873 69.8565 134.733C70.3228 134.407 71.1156 134.127 72.1415 134.034C72.6545 133.987 73.2141 134.034 73.7737 134.081C74.3799 134.174 74.9861 134.36 75.5924 134.547C76.8515 134.967 78.1572 135.619 79.5562 136.132C80.9552 136.645 82.4474 136.879 83.7065 136.645C84.3594 136.506 84.919 136.319 85.3853 135.993C85.8517 135.666 86.318 135.34 86.7377 135.06C87.5771 134.454 88.4165 134.267 88.9761 134.314C89.2559 134.314 89.489 134.407 89.6289 134.5C89.7688 134.547 89.8155 134.594 89.8155 134.64Z" fill="#FAFAFA"/>
<path d="M116.07 170.315C116.07 170.315 116.117 170.361 116.21 170.455C116.303 170.548 116.443 170.688 116.583 170.874C116.863 171.294 117.236 171.947 117.329 172.786C117.469 173.672 117.376 174.791 116.723 175.771C116.117 176.797 115.044 177.589 114.438 178.709C114.158 179.268 114.065 179.921 114.205 180.527C114.298 181.134 114.578 181.693 114.811 182.206C115.324 183.232 115.79 184.211 115.79 185.144C115.79 186.077 115.324 186.73 114.904 187.009C114.718 187.149 114.531 187.243 114.391 187.243C114.251 187.289 114.205 187.289 114.205 187.243C114.205 187.196 114.484 187.196 114.858 186.916C115.231 186.636 115.604 185.983 115.604 185.144C115.604 184.305 115.137 183.325 114.624 182.299C114.391 181.786 114.111 181.227 113.972 180.574C113.832 179.921 113.925 179.222 114.205 178.615C114.531 178.009 114.951 177.496 115.37 177.03C115.79 176.564 116.21 176.144 116.49 175.631C117.096 174.698 117.236 173.626 117.143 172.786C117.049 171.947 116.723 171.294 116.49 170.874C116.257 170.548 116.07 170.361 116.07 170.315Z" fill="#FAFAFA"/>
<path d="M135.609 190.787C135.609 190.787 135.563 190.74 135.423 190.647C135.329 190.553 135.19 190.367 135.05 190.087C134.817 189.574 134.77 188.641 135.19 187.662C135.376 187.196 135.703 186.683 136.076 186.217C136.495 185.75 136.962 185.331 137.428 184.818C137.894 184.351 138.361 183.838 138.734 183.185C139.06 182.579 139.293 181.833 139.34 181.04C139.48 179.501 139.2 178.009 139.153 176.657C139.06 175.304 139.153 174.045 139.62 173.066C140.039 172.087 140.646 171.48 141.159 171.201C141.392 171.061 141.625 170.968 141.765 170.921C141.905 170.874 141.998 170.874 141.998 170.874C141.998 170.921 141.672 170.968 141.205 171.294C140.739 171.62 140.179 172.227 139.76 173.159C139.34 174.092 139.247 175.304 139.387 176.657C139.48 178.009 139.76 179.455 139.62 181.04C139.526 181.833 139.34 182.579 138.967 183.232C138.594 183.885 138.081 184.445 137.614 184.911C136.635 185.844 135.749 186.683 135.376 187.616C134.956 188.548 134.956 189.388 135.19 189.901C135.376 190.6 135.656 190.787 135.609 190.787Z" fill="#FAFAFA"/>
<path d="M138.034 196.989C138.034 196.989 137.894 197.129 137.521 197.315C137.148 197.502 136.589 197.735 135.842 197.782C135.096 197.875 134.117 197.782 133.091 197.455C132.019 197.175 130.899 196.616 129.734 195.916C128.568 195.263 127.262 194.424 125.77 193.911C124.277 193.398 122.505 193.351 120.78 193.725C119.008 194.098 117.282 194.797 115.464 195.543C113.645 196.289 111.78 197.129 109.681 197.548C108.655 197.782 107.583 197.828 106.557 197.735C105.531 197.642 104.552 197.315 103.666 196.896C101.894 196.01 100.448 194.704 99.0023 193.678C98.2561 193.165 97.5566 192.652 96.7639 192.279C96.5773 192.186 96.3908 192.092 96.2043 191.999C96.0177 191.906 95.8312 191.859 95.6447 191.766C95.2716 191.626 94.8519 191.533 94.4789 191.44C92.94 191.066 91.4011 191.066 90.0953 191.253C88.743 191.439 87.5771 191.813 86.5978 192.279C86.3647 192.372 86.1315 192.512 85.8984 192.652C85.6652 192.745 85.4787 192.885 85.2921 193.025C85.1056 193.165 84.9191 193.258 84.7325 193.398C84.546 193.538 84.4061 193.631 84.2662 193.771C83.9398 194.004 83.7066 194.237 83.5201 194.424C83.2869 194.611 83.147 194.797 83.0071 194.937C82.8672 195.077 82.7739 195.17 82.6807 195.263C82.5874 195.357 82.5874 195.357 82.5874 195.357C82.5874 195.357 82.634 195.31 82.6807 195.217C82.7739 195.124 82.8672 195.03 82.9605 194.844C83.1004 194.704 83.2403 194.471 83.4734 194.284C83.7066 194.098 83.8931 193.818 84.2196 193.585C84.3595 193.445 84.546 193.351 84.6859 193.212C84.8724 193.072 85.059 192.978 85.2455 192.838C85.432 192.699 85.6186 192.559 85.8517 192.465C86.0849 192.326 86.3181 192.186 86.5512 192.092C87.5305 191.626 88.743 191.206 90.0953 191.02C91.4477 190.833 92.9866 190.787 94.5721 191.16C94.9452 191.253 95.3649 191.346 95.7379 191.486C95.9245 191.579 96.1576 191.626 96.3442 191.719C96.5307 191.813 96.7172 191.906 96.9038 191.999C97.6965 192.372 98.4427 192.885 99.1422 193.398C100.588 194.471 102.033 195.73 103.759 196.616C104.645 197.035 105.578 197.362 106.557 197.455C107.536 197.548 108.562 197.502 109.588 197.269C111.593 196.849 113.505 196.056 115.324 195.31C117.143 194.564 118.915 193.818 120.687 193.491C122.459 193.118 124.277 193.165 125.816 193.678C127.355 194.191 128.614 195.03 129.827 195.683C130.993 196.383 132.112 196.942 133.138 197.269C134.164 197.595 135.096 197.688 135.842 197.595C136.589 197.548 137.148 197.315 137.521 197.175C137.848 197.129 138.034 196.989 138.034 196.989Z" fill="#FAFAFA"/>
<path d="M112.059 119.204C117.282 119.484 121.759 115.567 122.179 110.391C122.459 107.313 122.645 104.702 122.645 104.702C122.645 104.702 130.573 104.515 131.692 96.7273C132.811 88.9396 133.791 70.8925 133.791 70.8925C125.257 65.8562 114.718 65.8095 106.137 70.7993L104.878 71.5454L102.826 109.038C102.593 114.355 106.697 118.925 112.059 119.204Z" fill="#FFBE9D"/>
<path d="M123.811 91.318C123.811 91.2247 124.511 91.1781 125.583 91.1781C125.863 91.1781 126.096 91.1314 126.143 90.9915C126.236 90.8516 126.143 90.5252 126.049 90.1521C125.863 89.406 125.676 88.6599 125.49 87.8671C124.744 84.6028 124.231 81.9447 124.417 81.8981C124.604 81.8514 125.35 84.4629 126.096 87.7272C126.283 88.52 126.422 89.2661 126.609 90.0122C126.656 90.3387 126.796 90.7584 126.609 91.1781C126.516 91.4112 126.236 91.5511 126.049 91.5511C125.863 91.5978 125.676 91.5511 125.583 91.5511C124.464 91.5045 123.811 91.4112 123.811 91.318Z" fill="#333232"/>
<path d="M122.739 104.562C122.739 104.562 117.749 104.329 112.946 100.365C112.946 100.365 114.624 106.287 122.459 106.567L122.739 104.562Z" fill="#EB996E"/>
<path d="M133.744 72.8512C133.744 72.8512 128.848 74.9031 122.785 71.4522C118.821 69.2138 114.112 67.9547 113.039 68.7009C111.966 69.447 111.5 73.644 107.396 74.6699C107.396 74.6699 107.21 82.6908 104.039 82.2245C100.868 81.7582 103.526 69.447 103.526 69.447L111.547 66.0428L120.174 64.9236L128.148 66.5091L134.257 68.561L133.744 72.8512Z" fill="#333232"/>
<path d="M104.831 79.6598C104.692 79.5665 99.7018 77.3748 99.1888 82.7376C98.6758 88.1004 104.132 87.4941 104.179 87.3542C104.179 87.2143 104.831 79.6598 104.831 79.6598Z" fill="#FFBE9D"/>
<path d="M102.733 85.1626C102.733 85.1626 102.64 85.2092 102.453 85.2558C102.313 85.3025 102.033 85.3491 101.754 85.2092C101.194 84.9294 100.821 83.9967 100.868 83.0174C100.914 82.5511 101.054 82.0848 101.241 81.7117C101.427 81.3387 101.707 81.1055 102.033 81.0589C102.313 81.0122 102.5 81.1988 102.546 81.3853C102.593 81.5252 102.546 81.6651 102.593 81.6651C102.593 81.6651 102.733 81.5718 102.686 81.3387C102.686 81.2454 102.64 81.1055 102.5 80.9656C102.36 80.8257 102.22 80.7791 101.987 80.7791C101.567 80.7791 101.147 81.1055 100.914 81.5252C100.681 81.9449 100.494 82.4579 100.448 82.9708C100.355 84.0434 100.821 85.1159 101.567 85.3957C101.94 85.5356 102.267 85.4424 102.453 85.3491C102.686 85.3025 102.733 85.2092 102.733 85.1626Z" fill="#EB996E"/>
<path d="M110.94 69.5403C109.868 70.7061 108.749 71.872 107.396 72.7114C106.044 73.5508 104.365 74.0171 102.826 73.6907C101.287 73.3176 99.8882 71.9652 99.8416 70.3797C99.795 68.7942 101.334 67.2087 102.919 67.5817C101.847 67.5817 100.961 66.4159 101.287 65.39C101.614 64.364 103.059 63.9443 103.899 64.5972C102.546 64.364 102.406 62.1723 103.479 61.3329C104.552 60.4935 106.137 60.68 107.396 61.193C108.655 61.7059 109.868 62.4987 111.173 62.8251C113.272 63.2915 115.464 62.4054 117.329 61.3329C119.194 60.2603 120.966 58.908 123.065 58.3484C125.63 57.6489 128.381 58.1618 130.853 59.1878C132.905 60.0271 134.816 61.2862 136.122 63.0583C137.428 64.8304 138.081 67.162 137.521 69.3071C136.915 71.4523 134.956 73.1777 132.765 73.1777C132.765 73.1777 127.821 73.6907 123.764 70.7061C119.754 67.7216 111.267 68.0947 111.267 68.0947L110.94 69.5403Z" fill="#333232"/>
<path d="M103.526 63.338C103.526 63.338 103.619 63.4313 103.852 63.5712C104.039 63.7111 104.365 63.8976 104.831 64.1774C105.671 64.6437 106.976 65.25 108.702 65.7163C110.381 66.1826 112.526 66.4624 114.857 66.3225C117.189 66.1826 119.661 65.4365 122.226 64.7836C124.79 64.1774 127.309 63.851 129.5 64.3639C131.692 64.8769 133.417 66.1826 134.164 67.6749C134.91 69.1672 134.863 70.6594 134.583 71.5455C134.304 72.4781 133.93 72.8512 133.977 72.8978C133.977 72.8978 134.07 72.8045 134.257 72.618C134.397 72.3848 134.63 72.1051 134.816 71.6387C135.19 70.7061 135.329 69.1672 134.583 67.4884C133.791 65.8562 131.972 64.4106 129.687 63.851C127.355 63.2448 124.744 63.5712 122.132 64.224C119.521 64.8769 117.143 65.623 114.857 65.8096C112.572 65.9961 110.521 65.7629 108.842 65.3432C105.344 64.5038 103.572 63.1981 103.526 63.338Z" fill="#455A64"/>
<path d="M101.101 71.5922C101.054 71.6388 101.194 72.1518 101.8 72.8046C102.36 73.4575 103.386 74.2036 104.738 74.53C106.091 74.8098 107.303 74.53 108.096 74.2036C108.889 73.8305 109.262 73.4109 109.215 73.3642C109.168 73.271 108.702 73.5507 107.956 73.8305C107.163 74.0637 106.044 74.2502 104.831 74.0171C103.619 73.7373 102.686 73.1311 102.08 72.5715C101.474 71.9652 101.194 71.5455 101.101 71.5922Z" fill="#455A64"/>
<path d="M102.78 68.934C102.64 68.9806 103.059 69.9599 104.085 70.6594C105.111 71.3589 106.184 71.4055 106.184 71.2656C106.23 71.1257 105.344 70.8459 104.412 70.1931C103.479 69.5868 102.919 68.8407 102.78 68.934Z" fill="#455A64"/>
<path d="M136.356 76.3953C136.449 76.3953 136.589 76.1621 136.635 75.6491C136.682 75.1828 136.589 74.4833 136.169 73.8304C135.749 73.1776 135.19 72.8045 134.723 72.6646C134.257 72.5247 133.977 72.5247 133.977 72.618C133.931 72.7579 135.05 73.0843 135.703 74.1569C136.356 75.2761 136.216 76.3953 136.356 76.3953Z" fill="#333232"/>
<path d="M139.153 68.7475C139.014 68.7008 138.407 70.0998 137.008 71.2657C135.609 72.4781 134.117 72.8046 134.164 72.9911C134.164 73.131 135.842 73.0377 137.381 71.732C138.874 70.3796 139.293 68.7475 139.153 68.7475Z" fill="#455A64"/>
<path d="M131.039 82.6908C130.993 83.3436 130.386 83.81 129.733 83.7633C129.081 83.7167 128.568 83.1571 128.661 82.5042C128.708 81.8514 129.314 81.385 129.967 81.4317C130.619 81.5249 131.086 82.0845 131.039 82.6908Z" fill="#333232"/>
<path d="M131.972 82.5975C131.785 82.7374 130.993 81.9446 129.687 81.8047C128.428 81.6182 127.355 82.1778 127.262 81.9913C127.215 81.898 127.402 81.6648 127.821 81.385C128.241 81.1519 128.987 80.9187 129.78 81.0586C130.573 81.1519 131.226 81.5716 131.552 81.898C131.972 82.2244 132.065 82.5509 131.972 82.5975Z" fill="#333232"/>
<path d="M119.334 81.1053C119.288 81.7582 118.681 82.2245 118.029 82.1779C117.376 82.1313 116.863 81.5717 116.956 80.9188C117.003 80.2659 117.609 79.7996 118.262 79.8462C118.915 79.8929 119.428 80.4525 119.334 81.1053Z" fill="#333232"/>
<path d="M120.174 81.0587C119.987 81.1986 119.194 80.4058 117.889 80.2659C116.63 80.0794 115.557 80.639 115.464 80.4524C115.417 80.3592 115.604 80.126 116.023 79.8462C116.443 79.613 117.189 79.3799 117.982 79.5198C118.775 79.613 119.428 80.0327 119.754 80.3592C120.174 80.6856 120.267 81.012 120.174 81.0587Z" fill="#333232"/>
<path d="M119.707 77.5145C119.474 77.7476 118.495 77.0481 117.189 76.9082C115.883 76.7683 114.811 77.2347 114.624 76.9549C114.531 76.815 114.718 76.4885 115.184 76.1621C115.65 75.8357 116.443 75.6025 117.329 75.6958C118.215 75.789 118.961 76.2087 119.334 76.6284C119.707 77.0481 119.801 77.4212 119.707 77.5145Z" fill="#333232"/>
<path d="M131.879 79.6598C131.925 79.7997 131.692 80.0795 131.226 80.266C130.759 80.4526 130.06 80.5925 129.267 80.4526C128.521 80.3127 127.868 79.9862 127.495 79.6598C127.122 79.3334 126.982 79.0069 127.075 78.867C127.309 78.5872 128.241 79.0536 129.454 79.2401C130.713 79.4733 131.739 79.3334 131.879 79.6598Z" fill="#333232"/>
<path d="M122.832 93.4631C122.972 93.4631 123.065 93.6963 123.065 94.0227C123.065 94.3025 122.925 94.5357 122.785 94.5357C122.645 94.5357 122.552 94.3025 122.552 93.9761C122.552 93.6497 122.692 93.4631 122.832 93.4631Z" fill="#333232"/>
<path d="M103.899 89.4059C103.899 89.4059 103.899 89.5458 103.805 89.7323C103.712 89.9189 103.479 90.152 103.106 90.3386C102.78 90.5251 102.267 90.6184 101.754 90.4318C101.241 90.2453 100.774 89.8256 100.588 89.2194C100.401 88.6131 100.495 88.0069 100.774 87.5406C101.007 87.0742 101.427 86.7944 101.8 86.6079C102.173 86.468 102.5 86.4214 102.686 86.4214C102.919 86.4214 103.013 86.468 103.013 86.468C103.013 86.5147 102.546 86.4214 101.847 86.7478C101.52 86.8877 101.194 87.1675 100.961 87.6339C100.728 88.0535 100.634 88.6131 100.821 89.1261C101.007 89.6391 101.427 90.0121 101.847 90.1987C102.267 90.3852 102.733 90.3386 103.059 90.152C103.666 89.8722 103.852 89.3593 103.899 89.4059Z" fill="#455A64"/>
<path d="M109.028 121.35C109.028 121.35 111.64 117.666 113.272 115.614C115.231 113.096 116.443 110.951 116.443 109.785C116.443 108.619 116.443 103.583 116.443 103.583C116.443 103.583 118.915 102.976 119.241 105.821C119.614 108.619 119.241 109.318 119.241 109.318C119.241 109.318 129.594 102.323 130.293 102.836C131.505 103.722 129.174 105.588 129.174 105.588L122.878 111.277L126.469 110.158C127.355 109.878 128.288 110.344 128.568 111.23C128.801 111.93 128.568 112.723 127.915 113.142L125.77 115.008L126.842 114.588C127.635 114.262 128.521 114.588 128.941 115.381C129.267 115.987 129.127 116.733 128.661 117.246L126.702 119.298L127.588 118.832C128.195 118.505 128.894 118.738 129.22 119.345C129.454 119.858 129.314 120.464 128.894 120.79L117.282 129.977L109.028 121.35Z" fill="#FFBE9D"/>
<path d="M117.376 129.884C117.376 129.884 117.329 129.837 117.236 129.744C117.142 129.65 117.003 129.511 116.816 129.324C116.443 128.951 115.883 128.391 115.184 127.645C113.738 126.2 111.64 124.055 109.028 121.396L108.982 121.35L109.028 121.303C109.774 120.231 110.614 119.065 111.5 117.852C111.966 117.246 112.433 116.64 112.899 115.987C113.412 115.334 113.878 114.728 114.391 114.028C114.857 113.329 115.324 112.629 115.743 111.837C116.117 111.044 116.49 110.204 116.396 109.318C116.396 107.5 116.396 105.588 116.396 103.583V103.489H116.49C117.096 103.349 117.795 103.443 118.355 103.816C118.635 104.002 118.868 104.235 119.054 104.515C119.194 104.795 119.334 105.121 119.381 105.448C119.521 106.101 119.567 106.707 119.614 107.406C119.614 107.733 119.614 108.059 119.614 108.386C119.614 108.712 119.567 109.039 119.474 109.412L119.288 109.272C120.873 108.199 122.552 107.127 124.277 106.054C125.117 105.495 126.003 104.982 126.889 104.469C127.775 103.956 128.661 103.396 129.64 102.976C129.78 102.93 129.92 102.883 130.06 102.836C130.153 102.836 130.2 102.79 130.293 102.79C130.34 102.79 130.386 102.79 130.433 102.79C130.526 102.836 130.526 102.836 130.573 102.883C130.806 103.07 130.946 103.396 130.946 103.722C130.853 104.329 130.48 104.748 130.107 105.168C129.733 105.588 129.314 105.914 128.894 106.287C128.521 106.66 128.101 106.987 127.728 107.36C126.143 108.759 124.604 110.158 123.112 111.51L123.018 111.324C123.718 111.09 124.417 110.857 125.117 110.671C125.443 110.578 125.816 110.438 126.143 110.344C126.329 110.298 126.469 110.251 126.656 110.204C126.842 110.158 127.029 110.111 127.215 110.158C127.961 110.204 128.661 110.764 128.847 111.464C129.034 112.21 128.754 113.002 128.148 113.422C127.402 114.028 126.702 114.681 126.003 115.241L125.91 115.054C126.283 114.914 126.609 114.775 126.935 114.635C127.309 114.495 127.728 114.448 128.101 114.541C128.847 114.728 129.407 115.474 129.36 116.22C129.36 116.593 129.22 116.966 128.987 117.246C128.754 117.526 128.521 117.759 128.288 117.992C127.821 118.505 127.355 118.971 126.935 119.438L126.842 119.298C127.169 119.111 127.495 118.971 127.821 118.785C128.195 118.598 128.614 118.645 128.941 118.832C129.267 119.018 129.547 119.345 129.594 119.671C129.687 120.044 129.594 120.417 129.36 120.697C129.267 120.837 129.081 120.93 128.987 121.023C128.847 121.117 128.708 121.21 128.614 121.35C128.381 121.536 128.101 121.769 127.868 121.956C127.355 122.329 126.889 122.702 126.422 123.075C124.557 124.521 122.972 125.78 121.619 126.806C120.314 127.832 119.288 128.625 118.588 129.184C118.262 129.464 117.982 129.65 117.795 129.79C117.469 129.79 117.376 129.884 117.376 129.884C117.376 129.884 117.469 129.79 117.655 129.65C117.842 129.511 118.122 129.277 118.448 128.998C119.148 128.438 120.174 127.645 121.479 126.573C122.785 125.547 124.371 124.241 126.236 122.795C126.702 122.422 127.169 122.049 127.682 121.676C127.915 121.49 128.195 121.303 128.428 121.07C128.568 120.977 128.661 120.883 128.801 120.744C128.941 120.65 129.081 120.557 129.174 120.417C129.36 120.184 129.454 119.858 129.36 119.531C129.314 119.205 129.081 118.925 128.801 118.785C128.521 118.645 128.148 118.645 127.868 118.785C127.542 118.971 127.215 119.111 126.889 119.298L126.376 119.578L126.749 119.158C127.169 118.692 127.635 118.225 128.101 117.712C128.334 117.479 128.568 117.199 128.801 116.966C128.987 116.686 129.127 116.407 129.127 116.08C129.127 115.427 128.661 114.775 128.008 114.588C127.682 114.495 127.309 114.541 126.982 114.635C126.656 114.775 126.283 114.914 125.956 115.054L125.35 115.287L125.816 114.868C126.516 114.262 127.215 113.655 127.961 113.002C128.474 112.629 128.754 111.93 128.568 111.324C128.428 110.671 127.821 110.204 127.122 110.158C126.796 110.111 126.469 110.251 126.096 110.391C125.77 110.484 125.397 110.624 125.07 110.717C124.371 110.951 123.671 111.137 122.972 111.37L122.459 111.557L122.878 111.184C124.371 109.831 125.91 108.432 127.495 107.033C127.868 106.66 128.288 106.334 128.661 105.961C129.034 105.588 129.454 105.261 129.827 104.888C130.153 104.515 130.526 104.049 130.573 103.583C130.619 103.349 130.526 103.116 130.293 102.976C130.246 102.93 130.153 102.93 130.013 102.976C129.873 103.023 129.78 103.07 129.64 103.116C128.708 103.536 127.775 104.049 126.889 104.562C126.003 105.075 125.117 105.634 124.277 106.147C122.552 107.22 120.92 108.293 119.334 109.365L119.054 109.552L119.194 109.225C119.288 108.945 119.334 108.619 119.334 108.293C119.334 107.966 119.334 107.64 119.334 107.313C119.288 106.66 119.241 106.007 119.148 105.401C119.101 105.075 118.961 104.795 118.821 104.562C118.681 104.329 118.448 104.096 118.215 103.909C117.702 103.583 117.096 103.536 116.536 103.629L116.63 103.536C116.63 105.495 116.63 107.406 116.63 109.272C116.63 109.505 116.63 109.738 116.63 109.971C116.583 110.204 116.536 110.438 116.49 110.671C116.35 111.09 116.163 111.51 115.977 111.93C115.557 112.723 115.091 113.469 114.624 114.122C114.158 114.821 113.645 115.474 113.132 116.08C112.666 116.733 112.153 117.339 111.733 117.946C110.847 119.158 110.008 120.324 109.261 121.35V121.257C111.873 123.915 113.925 126.06 115.37 127.552C116.07 128.298 116.63 128.858 117.003 129.231C117.189 129.417 117.329 129.557 117.422 129.697C117.329 129.79 117.376 129.884 117.376 129.884Z" fill="#EB996E"/>
<path d="M117.376 129.884L85.6184 171.853C80.8152 178.242 72.0948 180.527 64.8666 177.076C59.5971 174.558 55.7265 169.242 58.9442 158.33L89.3957 137.485L107.909 119.624L117.376 129.884Z" fill="#2AC6FA"/>
<path d="M64.8666 177.03C64.8666 177.03 65.0065 177.076 65.193 177.216C65.4262 177.356 65.7526 177.496 66.1723 177.729C67.0583 178.102 68.4573 178.662 70.3227 178.848C71.2553 178.942 72.2813 178.942 73.4471 178.802C74.0067 178.755 74.6129 178.615 75.2191 178.475C75.4989 178.429 75.8254 178.289 76.1518 178.242C76.4782 178.149 76.758 178.056 77.0845 177.916C78.3436 177.449 79.6493 176.843 80.9084 176.05C82.1675 175.258 83.4266 174.232 84.4991 172.926C86.6909 170.361 88.9293 167.423 91.3542 164.299C93.7791 161.174 96.344 157.817 99.002 154.273C104.365 147.184 110.241 139.35 116.35 131.096C116.676 130.676 117.002 130.21 117.329 129.79V129.93C114.065 126.433 110.893 122.982 107.862 119.671H108.002C101.52 125.034 95.5512 130.117 90.0951 134.687C84.6857 139.257 79.7892 143.221 75.6855 146.485C71.5818 149.749 68.2242 152.267 65.8925 153.993C64.7267 154.832 63.8407 155.485 63.1878 155.952C62.8614 156.185 62.6282 156.325 62.4883 156.464C62.3484 156.558 62.2551 156.604 62.2551 156.604C62.2551 156.604 62.3484 156.558 62.4883 156.418C62.6282 156.278 62.8614 156.138 63.1878 155.905C63.794 155.439 64.68 154.786 65.8459 153.946C68.1775 152.221 71.4885 149.656 75.5922 146.392C79.6959 143.127 84.5458 139.117 89.9552 134.547C95.3647 129.977 101.38 124.894 107.862 119.531L107.956 119.438L108.049 119.531C111.127 122.842 114.298 126.246 117.515 129.79L117.562 129.884L117.515 129.977C117.189 130.397 116.863 130.863 116.536 131.283C110.427 139.537 104.551 147.371 99.1886 154.459C96.4838 158.003 93.919 161.361 91.4941 164.485C89.0692 167.61 86.8308 170.548 84.639 173.112C83.5665 174.418 82.3074 175.444 81.0016 176.237C79.7426 177.076 78.3902 177.683 77.1311 178.102C76.8047 178.242 76.5249 178.335 76.1984 178.429C75.872 178.522 75.5922 178.615 75.2658 178.662C74.6595 178.802 74.0533 178.942 73.4937 178.942C72.3745 179.082 71.302 179.035 70.3693 178.988C68.504 178.802 67.105 178.196 66.2189 177.822C65.7992 177.589 65.4728 177.403 65.2396 177.263C64.9598 177.123 64.8666 177.03 64.8666 177.03Z" fill="#333232"/>
<path d="M88.9759 166.118C88.9759 166.164 88.6028 165.838 87.8567 165.465C87.1105 165.138 85.8981 164.859 84.4525 165.045C83.7063 165.138 82.9136 165.278 82.0742 165.558C81.2348 165.791 80.3954 166.164 79.4627 166.537C78.53 166.91 77.5974 167.284 76.5248 167.563C75.4989 167.843 74.3797 167.983 73.2139 167.89C72.048 167.75 70.9755 167.423 69.9962 167.004C69.0169 166.584 68.0842 166.118 67.1982 165.698C65.4261 164.859 63.7007 164.346 62.2551 164.439C60.7628 164.486 59.6436 165.092 59.0374 165.605C58.3845 166.118 58.198 166.584 58.198 166.537C58.198 166.537 58.2446 166.444 58.3379 166.258C58.4778 166.071 58.6643 165.791 58.9441 165.511C59.5504 164.952 60.6696 164.346 62.2084 164.252C63.7473 164.159 65.4728 164.672 67.2915 165.511C68.1775 165.931 69.1102 166.397 70.0894 166.771C71.0687 167.19 72.1413 167.517 73.2139 167.657C74.3331 167.75 75.4056 167.61 76.4316 167.33C77.4575 167.05 78.4368 166.677 79.3228 166.351C80.2555 165.978 81.0949 165.651 81.9343 165.418C82.7737 165.185 83.5664 164.998 84.3126 164.952C85.8048 164.812 87.0173 165.092 87.7634 165.465C88.6494 165.791 88.9759 166.118 88.9759 166.118Z" fill="#FAFAFA"/>
<path d="M100.168 152.034C100.121 152.034 100.354 151.755 100.308 151.195C100.214 150.682 99.7948 149.889 98.9087 149.47C98.4424 149.283 97.9294 149.143 97.3698 149.003C96.8102 148.863 96.1574 148.723 95.5511 148.444C94.3387 147.884 93.2195 146.905 92.1469 145.786C91.121 144.666 90.1417 143.547 89.1624 142.708C88.1831 141.822 87.1106 141.262 86.1779 140.982C85.2452 140.703 84.4058 140.703 83.8462 140.842C83.2866 140.936 83.0068 141.076 83.0068 141.029C83.0068 141.029 83.0535 140.982 83.1934 140.936C83.3333 140.889 83.5198 140.796 83.7996 140.749C84.3592 140.609 85.1986 140.563 86.1779 140.842C87.1572 141.076 88.2764 141.682 89.2557 142.568C90.2816 143.407 91.2143 144.526 92.2868 145.646C93.3128 146.765 94.432 147.698 95.5978 148.257C96.7636 148.817 98.0227 148.863 98.9087 149.376C99.8414 149.843 100.308 150.682 100.308 151.242C100.308 151.521 100.261 151.755 100.214 151.894C100.261 151.988 100.214 152.081 100.168 152.034Z" fill="#FAFAFA"/>
<path d="M189.424 41.56L188.025 41.6533L185.273 46.0834L185.46 48.8348C185.46 48.8348 183.315 49.1146 183.315 45.4772C183.315 41.8398 183.128 42.7725 183.128 42.7725C183.128 42.7725 178.558 43.0523 178.185 42.6792C177.905 42.3994 177.486 37.876 177.252 35.4511C177.159 34.2386 177.812 33.0261 178.978 32.6531C179.118 32.6064 179.304 32.5598 179.444 32.5598C180.563 32.4665 186.439 33.0261 186.439 33.0261L188.817 32.8862L189.424 41.56Z" fill="#03516B"/>
<path d="M193.434 42.073L191.988 32.6064L189.61 32.793L190.216 42.073H193.434Z" fill="#03516B"/>
<path d="M156.874 50.0474C156.874 50.0474 156.967 50.0474 157.06 50.094C157.107 50.094 157.2 50.1406 157.293 50.1873C157.387 50.2339 157.48 50.2805 157.573 50.3272C157.993 50.5603 158.599 51.1199 158.972 51.9593C159.159 52.379 159.252 52.892 159.205 53.4516C159.159 54.0112 158.972 54.5708 158.599 55.0838C158.226 55.5967 157.713 56.0164 157.06 56.2496C156.454 56.5294 155.708 56.576 155.008 56.3895C154.309 56.203 153.703 55.7833 153.283 55.2237C152.863 54.7107 152.583 54.0578 152.537 53.4516C152.444 52.8454 152.583 52.2391 152.817 51.7262C153.05 51.2132 153.423 50.8401 153.749 50.5603C154.495 50.0007 155.242 49.8142 155.754 49.8142C155.894 49.8142 155.988 49.8142 156.081 49.8142C156.174 49.8142 156.267 49.8142 156.314 49.8608C156.454 49.9075 156.501 49.9075 156.501 49.9075C156.501 49.9541 156.221 49.8608 155.708 49.9075C155.195 49.9541 154.495 50.1406 153.796 50.7002C153.469 50.98 153.143 51.3531 152.91 51.8194C152.677 52.2858 152.583 52.8454 152.677 53.405C152.817 54.5242 153.703 55.7366 154.962 56.1097C156.267 56.4361 157.62 55.7832 158.319 54.8972C158.692 54.4309 158.879 53.9179 158.926 53.405C158.972 52.892 158.879 52.4257 158.692 52.006C158.366 51.1666 157.806 50.6536 157.433 50.3738C157.153 50.1406 156.874 50.094 156.874 50.0474Z" fill="#333232"/>
<path d="M147.174 58.3482C147.174 58.3482 147.36 58.3482 147.64 58.5347C147.92 58.6746 148.293 59.0477 148.526 59.5606C148.62 59.8404 148.713 60.1668 148.713 60.4933C148.666 60.8663 148.573 61.2394 148.34 61.5192C147.873 62.1721 146.941 62.5918 146.055 62.3586C145.122 62.1254 144.562 61.286 144.469 60.4933C144.423 60.1202 144.469 59.7005 144.656 59.3741C144.796 59.0477 145.029 58.8145 145.262 58.628C145.728 58.2549 146.241 58.1616 146.568 58.1616C146.894 58.1616 147.081 58.2549 147.081 58.2549C147.081 58.2549 146.894 58.2549 146.568 58.2549C146.241 58.3015 145.822 58.3948 145.402 58.7679C144.982 59.0943 144.609 59.7472 144.702 60.4466C144.796 61.1461 145.309 61.8923 146.101 62.1254C146.894 62.312 147.734 61.9389 148.153 61.3793C148.62 60.8197 148.573 60.0736 148.386 59.5606C148.2 59.0477 147.873 58.7212 147.594 58.5347C147.36 58.4414 147.174 58.3948 147.174 58.3482Z" fill="#333232"/>
<path d="M161.304 35.8242C161.304 35.8242 161.304 35.6843 161.35 35.4512C161.397 35.1714 161.444 34.7983 161.537 34.332C161.583 34.0988 161.63 33.819 161.677 33.4926C161.723 33.1661 161.863 32.8397 161.957 32.5133C162.05 32.1402 162.143 31.7672 162.283 31.3475C162.33 31.1609 162.423 30.9278 162.516 30.7412C162.609 30.5081 162.703 30.3215 162.749 30.0884C163.402 28.2697 164.521 26.1712 166.154 23.9794C167.832 21.7877 170.117 19.5959 173.102 17.8705C173.475 17.6373 173.848 17.4508 174.221 17.2176C174.594 17.0311 175.014 16.8445 175.434 16.658C175.853 16.4715 176.273 16.2383 176.693 16.0984C177.112 15.9585 177.579 15.8186 177.998 15.6321C178.232 15.5388 178.465 15.4922 178.651 15.3989C178.884 15.3523 179.118 15.3057 179.351 15.2124C179.817 15.1191 180.283 14.9792 180.75 14.886C181.216 14.7927 181.729 14.7461 182.195 14.6528C182.708 14.6062 183.175 14.4663 183.688 14.5129C184.714 14.5129 185.739 14.4196 186.765 14.5129C187.278 14.5595 187.838 14.5595 188.351 14.6528C188.864 14.7461 189.423 14.8393 189.936 14.9326C190.216 14.9792 190.496 15.0259 190.729 15.0725C191.009 15.1658 191.242 15.2124 191.522 15.3057C192.035 15.4456 192.595 15.5854 193.108 15.772C194.133 16.1917 195.206 16.5181 196.232 17.1243C196.465 17.2642 196.745 17.4041 196.978 17.4974C197.118 17.544 197.258 17.6373 197.351 17.6839L197.724 17.9171C198.191 18.2435 198.703 18.5233 199.216 18.8498C199.683 19.1762 200.149 19.5493 200.615 19.9223C200.849 20.1089 201.082 20.2954 201.315 20.4819L201.968 21.0882C202.854 21.8809 203.647 22.8136 204.439 23.7462C204.812 24.2592 205.139 24.7255 205.512 25.2385L205.792 25.6116L206.025 26.0313L206.491 26.824L206.958 27.6168L207.331 28.4562L207.704 29.2956L207.983 29.7619C208.03 29.9018 208.077 30.0417 208.123 30.2283C208.31 30.8345 208.543 31.4407 208.73 32.047C208.87 32.6532 209.009 33.306 209.149 33.9123C209.662 36.4305 209.756 39.0419 209.476 41.7C209.103 44.3115 208.403 46.8297 207.284 49.1613C207.004 49.7209 206.678 50.2805 206.398 50.8867C206.072 51.4463 205.698 51.9593 205.372 52.4723L205.092 52.892L204.812 53.265L204.206 54.0112L203.6 54.7573L202.947 55.4102L202.294 56.063L201.968 56.3895L201.595 56.6692C201.128 57.0889 200.662 57.462 200.196 57.8817C199.216 58.5812 198.237 59.3273 197.165 59.8869L196.372 60.3533C196.092 60.4932 195.812 60.5864 195.579 60.7263C195.019 60.9595 194.506 61.2393 193.947 61.4258C193.387 61.6124 192.828 61.7989 192.315 61.9854L191.895 62.1253C191.755 62.172 191.615 62.172 191.475 62.2186C191.196 62.2652 190.916 62.3585 190.636 62.4051C189.517 62.7316 188.398 62.7782 187.278 62.9647C186.719 63.0114 186.159 63.0114 185.6 63.0114C185.32 63.0114 185.04 63.0114 184.76 63.058C184.48 63.058 184.201 63.0114 183.967 63.0114C183.408 62.9647 182.895 62.9181 182.382 62.9181C181.869 62.8715 181.356 62.7316 180.796 62.6849C179.77 62.545 178.791 62.2186 177.812 61.9388C177.299 61.8455 176.879 61.6124 176.413 61.4258C175.946 61.2393 175.48 61.0994 175.06 60.8662C174.641 60.6331 174.174 60.3999 173.755 60.2134C173.522 60.1201 173.335 59.9802 173.102 59.8869C172.915 59.747 172.682 59.6538 172.496 59.5139C172.123 59.2807 171.703 59.0009 171.33 58.7677C170.957 58.5346 170.584 58.2081 170.257 57.9283C169.884 57.6485 169.558 57.3688 169.231 57.089C168.905 56.7625 168.578 56.4827 168.299 56.2029C165.827 53.778 164.148 51.1199 163.029 48.6017C161.957 46.0835 161.35 43.7519 161.164 41.8399C161.117 41.6067 161.117 41.3736 161.071 41.1404C161.024 40.9072 161.024 40.6741 161.024 40.4876C161.024 40.0679 161.024 39.6482 160.977 39.2751C160.977 38.902 160.931 38.5756 160.977 38.2492C161.024 37.9227 161.024 37.6429 161.024 37.4098C161.071 36.8968 161.117 36.5237 161.117 36.2439C161.304 35.9641 161.304 35.8242 161.304 35.8242C161.304 35.8242 161.304 35.9641 161.304 36.1973C161.304 36.4771 161.257 36.8502 161.257 37.3631C161.257 37.5963 161.21 37.8761 161.21 38.2025C161.21 38.529 161.21 38.8554 161.257 39.2285C161.257 39.6015 161.304 39.9746 161.304 40.4409C161.304 40.6741 161.35 40.8606 161.35 41.0938C161.397 41.3269 161.397 41.5601 161.444 41.7933C161.63 43.7052 162.236 45.9903 163.309 48.5084C164.428 50.98 166.107 53.6381 168.578 56.063C168.905 56.3428 169.185 56.6693 169.511 56.9491C169.838 57.2288 170.211 57.5086 170.537 57.7884C170.91 58.0682 171.237 58.348 171.61 58.6278C171.983 58.861 172.402 59.1408 172.775 59.374C172.962 59.5139 173.149 59.6071 173.382 59.747C173.615 59.8403 173.801 59.9802 174.035 60.0735C174.454 60.3066 174.874 60.4932 175.34 60.7263C175.76 60.9129 176.226 61.0994 176.693 61.2859C177.159 61.4725 177.625 61.659 178.092 61.7989C179.071 62.0787 180.05 62.4051 181.076 62.4984C181.589 62.5917 182.102 62.6849 182.615 62.7316C183.128 62.7782 183.688 62.8248 184.201 62.8248C184.48 62.8248 184.714 62.8715 184.993 62.8715C185.273 62.8715 185.553 62.8715 185.786 62.8248C186.346 62.7782 186.859 62.8248 187.418 62.7782C188.491 62.6383 189.61 62.545 190.729 62.2186C191.009 62.172 191.289 62.0787 191.569 62.0321C191.708 61.9854 191.848 61.9854 191.988 61.9388L192.408 61.7989C192.968 61.6124 193.481 61.4258 194.04 61.2393C194.6 61.0061 195.113 60.773 195.626 60.5398C195.905 60.3999 196.185 60.3066 196.418 60.1667L197.165 59.747C198.237 59.1874 199.17 58.4879 200.149 57.7884C200.615 57.4154 201.082 56.9957 201.548 56.576L201.875 56.2962L202.201 55.9697L202.854 55.3169L203.507 54.664L204.066 53.9179L204.626 53.1718L204.906 52.7987L205.139 52.4256C205.465 51.9127 205.838 51.3531 206.165 50.8401C206.445 50.2805 206.724 49.7209 207.051 49.1613C208.123 46.8763 208.87 44.3581 209.196 41.7466C209.476 39.1352 209.382 36.5704 208.869 34.0522C208.73 33.4459 208.59 32.8397 208.45 32.1868C208.263 31.5806 208.03 30.9744 207.844 30.4148C207.797 30.2749 207.75 30.135 207.704 29.9485L207.517 29.5288L207.144 28.6894L206.771 27.85L206.305 27.0572L205.838 26.2644L205.605 25.8447L205.325 25.4717C204.952 24.9587 204.626 24.4924 204.253 23.9794C203.46 23.0468 202.714 22.1141 201.828 21.3213L201.175 20.7151C200.942 20.5286 200.709 20.342 200.476 20.1555C200.009 19.7824 199.59 19.4094 199.077 19.0829C198.61 18.7565 198.097 18.4767 197.631 18.1503L197.258 17.9171C197.118 17.8238 197.025 17.7772 196.885 17.7306C196.652 17.5907 196.372 17.4508 196.139 17.3575C195.159 16.7979 194.087 16.4715 193.061 16.0518C192.548 15.8652 191.988 15.7253 191.475 15.5854C191.196 15.4922 190.962 15.4455 190.683 15.3523C190.403 15.3057 190.17 15.259 189.89 15.2124C189.377 15.1191 188.817 15.0259 188.304 14.9326C187.791 14.8393 187.278 14.8393 186.719 14.7927C185.693 14.6528 184.667 14.7461 183.641 14.7927C183.128 14.7927 182.662 14.886 182.149 14.9326C181.682 15.0259 181.169 15.0259 180.703 15.1191C180.237 15.2124 179.77 15.3523 179.304 15.4456C179.071 15.4922 178.838 15.5388 178.605 15.5854C178.371 15.6321 178.138 15.7253 177.952 15.8186C177.532 15.9585 177.066 16.0984 176.646 16.2849C176.226 16.4248 175.807 16.658 175.387 16.7979C174.967 16.9844 174.548 17.171 174.174 17.3575C173.801 17.5907 173.428 17.7772 173.055 18.0104C170.071 19.7358 167.786 21.9276 166.154 24.0727C164.521 26.2178 163.356 28.3163 162.703 30.135C162.609 30.3682 162.516 30.5547 162.423 30.7879C162.33 30.9744 162.236 31.2076 162.19 31.3941C162.096 31.8138 161.957 32.1868 161.863 32.5599C161.77 32.933 161.677 33.2594 161.583 33.5392C161.537 33.8656 161.49 34.1454 161.444 34.3786C161.35 34.8916 161.304 35.2646 161.257 35.4978C161.35 35.6843 161.304 35.8242 161.304 35.8242Z" fill="#333232"/>
<path d="M88.0897 43.7986C88.0897 43.8452 87.8099 43.8452 87.3436 44.0784C86.9239 44.3116 86.3177 44.7779 85.898 45.524C85.7115 45.8971 85.5249 46.3634 85.5249 46.923C85.5249 47.436 85.6182 47.9956 85.9446 48.5085C86.5042 49.4878 87.7633 50.2806 89.1157 50.1407C90.468 49.9542 91.4473 48.835 91.7271 47.7158C91.867 47.1562 91.867 46.5966 91.6805 46.0836C91.5406 45.5706 91.2608 45.1976 90.9344 44.8711C90.3281 44.2183 89.6286 43.9385 89.1157 43.8452C88.6027 43.752 88.3229 43.7986 88.3229 43.752C88.3229 43.752 88.3695 43.752 88.5094 43.7053C88.5561 43.7053 88.6493 43.7053 88.7426 43.7053C88.8359 43.7053 88.9758 43.7053 89.069 43.752C89.582 43.7986 90.3281 44.0784 90.981 44.7313C91.3074 45.0577 91.5872 45.4774 91.7738 45.9903C91.9603 46.5033 92.0069 47.1095 91.8204 47.7158C91.6805 48.322 91.3541 48.9282 90.8411 49.3946C90.3748 49.8609 89.7219 50.234 89.0224 50.3272C88.3229 50.4205 87.5768 50.234 87.0172 49.9075C86.411 49.5811 85.9446 49.1148 85.6182 48.5552C85.2918 48.0422 85.1985 47.436 85.1985 46.8764C85.2451 46.3168 85.385 45.8504 85.6182 45.4308C86.0845 44.638 86.7374 44.1717 87.2037 43.9385C87.297 43.8919 87.4369 43.8452 87.5301 43.7986C87.6234 43.752 87.7167 43.752 87.7633 43.752C87.9965 43.7986 88.0897 43.7986 88.0897 43.7986Z" fill="#333232"/>
<path d="M96.95 51.3064C96.95 51.3064 96.7635 51.353 96.4837 51.4929C96.2039 51.6328 95.8308 51.9126 95.5977 52.4256C95.3179 52.8919 95.2246 53.6381 95.6443 54.2443C96.0174 54.8505 96.7635 55.3635 97.6029 55.2236C98.4423 55.0837 99.0485 54.4308 99.2351 53.7313C99.4216 53.0318 99.1418 52.379 98.7687 51.9593C98.3957 51.5396 97.976 51.3997 97.6495 51.3064C97.3231 51.2598 97.1832 51.2598 97.1832 51.2598C97.1832 51.2598 97.3697 51.2131 97.6962 51.2131C98.0226 51.2598 98.4889 51.3997 98.9086 51.8194C99.0952 52.0059 99.3283 52.2857 99.4216 52.6121C99.5149 52.9386 99.5615 53.3583 99.4682 53.7313C99.2817 54.4775 98.6288 55.2702 97.6495 55.4101C96.7169 55.55 95.8775 54.9904 95.4578 54.2909C95.2712 53.9645 95.178 53.5448 95.178 53.2184C95.178 52.8453 95.3179 52.5655 95.4578 52.2857C95.7376 51.7727 96.1573 51.4929 96.4837 51.353C96.7635 51.3064 96.95 51.3064 96.95 51.3064Z" fill="#333232"/>
<path d="M62.5349 25.7049H61.0427L57.7784 21.1348V18.1503C57.7784 18.1503 55.4467 18.0104 55.7265 21.9276C56.0063 25.8447 55.7265 24.8655 55.7265 24.8655C55.7265 24.8655 50.7834 24.8655 50.3637 25.3318C50.0839 25.6582 49.944 30.5547 49.8974 33.2128C49.8507 34.5651 50.6901 35.7776 51.9492 36.104C52.1357 36.1507 52.3223 36.1973 52.4622 36.1973C53.6746 36.1973 60.0167 35.218 60.0167 35.218H62.6282V25.7049H62.5349Z" fill="#229EC8"/>
<path d="M66.8251 24.9121L65.8925 35.218H63.3276V25.0986L66.8251 24.9121Z" fill="#229EC8"/>
<path d="M85.4318 27.1505C85.4318 27.1505 85.4318 27.0106 85.3851 26.7308C85.3851 26.451 85.3385 26.0313 85.2919 25.4717C85.2919 25.1919 85.2452 24.9121 85.2452 24.539C85.1986 24.2126 85.152 23.8395 85.0587 23.4664C85.0121 23.0934 84.9188 22.6271 84.8722 22.2074C84.8255 21.9742 84.7789 21.741 84.7323 21.5079C84.6856 21.2747 84.5924 21.0415 84.5457 20.7617C84.0794 18.7565 83.1467 16.3316 81.6545 13.8134C80.1622 11.2952 77.9705 8.63711 75.0326 6.39872C74.6595 6.11892 74.2864 5.83912 73.9134 5.55932C73.5403 5.27952 73.1206 5.04635 72.7009 4.81319C72.5144 4.67329 72.2812 4.58002 72.0947 4.44012C71.9081 4.30022 71.675 4.16033 71.4418 4.06706C70.9755 3.83389 70.5558 3.64736 70.0895 3.41419C69.8563 3.32093 69.6231 3.18103 69.39 3.08776C69.1568 2.9945 68.9236 2.90123 68.6438 2.80796C68.1775 2.62143 67.6645 2.4349 67.1982 2.295C66.6852 2.10847 66.1723 2.0152 65.6593 1.8753C65.3795 1.82867 65.1463 1.7354 64.8665 1.68877C64.7266 1.64213 64.5867 1.5955 64.4935 1.5955L64.0738 1.54887C63.0012 1.40897 61.9287 1.1758 60.7628 1.1758C60.2032 1.1758 59.6436 1.08254 59.084 1.12917C58.5244 1.1758 57.9182 1.1758 57.3586 1.22244C57.0788 1.22244 56.799 1.22244 56.4726 1.26907C56.1928 1.3157 55.913 1.36234 55.5865 1.40897C55.027 1.50224 54.4207 1.5955 53.8145 1.68877C52.6487 2.0152 51.4828 2.24837 50.317 2.7147C50.0372 2.80796 49.7574 2.94786 49.431 3.04113C49.2911 3.08776 49.1512 3.1344 49.0113 3.18103L48.5916 3.36756C48.032 3.64736 47.4724 3.92716 46.9128 4.16032C46.3532 4.44012 45.8402 4.81319 45.2806 5.13962C45.0008 5.32615 44.721 5.46605 44.4879 5.65259L43.7417 6.21218C42.6692 6.95831 41.7365 7.84434 40.8038 8.73037C40.3841 9.1967 39.9178 9.70967 39.4981 10.176L39.1717 10.5491C39.0784 10.689 38.9852 10.8289 38.8919 10.9221L38.239 11.7615L37.6328 12.5543L37.1198 13.3937L36.6069 14.2797L36.3271 14.6994C36.2338 14.8393 36.1872 15.0258 36.0939 15.1657C35.8141 15.772 35.4877 16.3782 35.2079 16.9844C34.9747 17.6373 34.7415 18.2902 34.5084 18.8964C33.669 21.5079 33.2026 24.3058 33.156 27.1038C33.2026 29.9485 33.669 32.6998 34.5084 35.3113C34.7415 35.9641 34.9747 36.617 35.2079 37.2232C35.4877 37.8295 35.8141 38.4357 36.0939 39.0419L36.3271 39.5082L36.6069 39.9279L37.1198 40.814L37.6328 41.6534L38.239 42.4461L38.8453 43.2389L39.1251 43.6586L39.4515 44.0317C39.9178 44.498 40.3375 45.011 40.7572 45.4773C41.7365 46.3633 42.6692 47.2494 43.6951 47.9955L44.4412 48.5551C44.6744 48.7416 45.0008 48.8815 45.234 49.068C45.7936 49.3945 46.3066 49.7209 46.8662 50.0473C47.4258 50.3271 47.9853 50.6069 48.5449 50.8401L48.9646 51.0266C49.1045 51.0733 49.2444 51.1199 49.3843 51.1665C49.6641 51.2598 49.9439 51.3997 50.2704 51.493C51.3896 51.9593 52.602 52.1925 53.7679 52.5189C54.3741 52.6588 54.9337 52.7054 55.5399 52.7987C55.8197 52.8453 56.0995 52.892 56.4259 52.9386C56.7057 52.9852 56.9855 52.9852 57.312 52.9852C57.8716 53.0319 58.4778 53.0319 59.0374 53.0785C59.597 53.0785 60.1566 53.0319 60.7162 53.0319C61.8354 53.0319 62.9546 52.7987 64.0271 52.6588L64.4468 52.6122C64.5867 52.5655 64.7266 52.5655 64.8199 52.5189C65.0997 52.4723 65.3329 52.379 65.6127 52.3324C66.1256 52.1925 66.6386 52.0992 67.1516 51.9127C67.6645 51.7261 68.1309 51.5396 68.5972 51.3997C68.8304 51.3064 69.0635 51.2132 69.3433 51.1199C69.5765 51.0266 69.8097 50.8867 70.0428 50.7935C70.5092 50.5603 70.9289 50.3738 71.3952 50.1406C71.6284 50.0473 71.8149 49.9074 72.048 49.7675C72.2346 49.6276 72.4677 49.5344 72.6543 49.3945C73.074 49.1613 73.4937 48.8815 73.8667 48.6483C74.2398 48.3685 74.6129 48.0887 74.9859 47.8089C77.9238 45.5706 80.1156 42.9125 81.6078 40.3943C81.7944 40.0678 81.9809 39.788 82.1674 39.4616C82.3073 39.1352 82.4939 38.8088 82.6338 38.529C82.7737 38.2025 82.9136 37.9227 83.0535 37.6429C83.1001 37.503 83.1934 37.3631 83.24 37.2232C83.2866 37.0833 83.3333 36.9434 83.4265 36.7569C83.6597 36.1507 83.8462 35.5911 84.0328 35.0781C84.2193 34.5185 84.3126 34.0055 84.4525 33.4926C84.4991 33.2594 84.5924 32.9796 84.639 32.7464C84.6856 32.5133 84.7789 32.2801 84.7789 32.0469C84.8722 31.5806 84.9188 31.1609 84.9654 30.7878C85.0121 30.4148 85.1053 30.0417 85.152 29.7153C85.152 29.3889 85.1986 29.0624 85.1986 28.7826C85.2452 28.223 85.2452 27.8033 85.2919 27.5235C85.3851 27.2904 85.4318 27.1505 85.4318 27.1505C85.4318 27.1505 85.4318 27.2904 85.4318 27.5702C85.4318 27.85 85.3851 28.2697 85.3851 28.8293C85.3851 29.1091 85.3385 29.3889 85.3385 29.7619C85.2919 30.0884 85.2452 30.4614 85.1986 30.8811C85.152 31.3008 85.0587 31.7205 85.0121 32.1402C84.9654 32.3734 84.9188 32.6065 84.8722 32.8397C84.8255 33.0729 84.7323 33.306 84.6856 33.5858C84.5457 34.0988 84.4525 34.6118 84.2659 35.1714C84.0794 35.731 83.8462 36.2906 83.6597 36.8968C83.6131 37.0367 83.5664 37.1766 83.4732 37.3631C83.4265 37.503 83.3333 37.6429 83.2866 37.8295C83.1467 38.1093 83.0068 38.4357 82.8669 38.7621C82.727 39.0886 82.5871 39.3684 82.4006 39.6948C82.2141 40.0212 82.0275 40.301 81.841 40.6274C80.3487 43.1923 78.157 45.8504 75.1725 48.0887C74.7994 48.3685 74.4263 48.6483 74.0533 48.9281C73.6336 49.2079 73.2139 49.4411 72.8408 49.6743C72.6543 49.8142 72.4211 49.9074 72.2346 50.0473C72.0014 50.1872 71.8149 50.3271 71.5817 50.4204C71.1154 50.6536 70.6957 50.8401 70.2294 51.0733C69.9962 51.1665 69.763 51.3064 69.5299 51.3997C69.2967 51.493 69.0635 51.5862 68.7837 51.6795C68.3174 51.866 67.8044 52.0526 67.2915 52.2391C66.7785 52.4256 66.2655 52.5189 65.7526 52.6588C65.4728 52.7054 65.2396 52.7987 64.9598 52.8453C64.8199 52.892 64.68 52.9386 64.5401 52.9386L64.1204 52.9852C63.0479 53.1251 61.9287 53.3583 60.8095 53.3583C60.2499 53.3583 59.6903 53.4516 59.084 53.4049C58.5244 53.3583 57.9182 53.3583 57.3586 53.3117C57.0788 53.3117 56.7524 53.3117 56.4726 53.265C56.1928 53.2184 55.8663 53.1718 55.5865 53.1251C54.9803 53.0319 54.4207 52.9386 53.8145 52.8453C52.6487 52.5189 51.4362 52.2857 50.317 51.8194C50.0372 51.7261 49.7574 51.5862 49.431 51.493C49.2911 51.4463 49.1512 51.3997 49.0113 51.3064L48.5916 51.1199C48.032 50.8401 47.4724 50.5603 46.9128 50.2805C46.3532 50.0007 45.8402 49.6276 45.2806 49.3012C45.0008 49.1147 44.721 48.9748 44.4879 48.7882L43.6951 48.2286C42.6225 47.4825 41.6899 46.5965 40.7106 45.7105C40.2442 45.2441 39.8245 44.7312 39.3582 44.2182L39.0318 43.8451L38.752 43.4254L38.1458 42.6327L37.5395 41.8399L37.0266 40.9539L36.5136 40.0678L36.2338 39.6481L36.0006 39.1818C35.7208 38.5756 35.3944 37.9694 35.1146 37.3165C34.8814 36.6636 34.6483 36.0108 34.4151 35.3579C33.5757 32.6998 33.1094 29.9018 33.0627 27.0572C33.1094 24.2126 33.5757 21.4146 34.4151 18.7565C34.6483 18.1036 34.8814 17.4508 35.1146 16.7979C35.3944 16.1917 35.7208 15.5388 36.0006 14.9326C36.0939 14.7927 36.1405 14.6061 36.2338 14.4662L36.5136 14.0466L37.0266 13.1605L37.5395 12.2745L38.1458 11.4817L38.752 10.689C38.8453 10.5491 38.9385 10.4092 39.0318 10.2693L39.3582 9.8962C39.8245 9.38324 40.2442 8.91691 40.7106 8.40394C41.6899 7.51791 42.6225 6.58525 43.6951 5.88575L44.4879 5.32615C44.7677 5.13962 45.0475 4.99972 45.2806 4.81319C45.8402 4.48676 46.3532 4.16033 46.9128 3.83389C47.4724 3.55409 48.032 3.27429 48.5916 2.9945L49.0113 2.80796C49.1512 2.76133 49.2911 2.7147 49.431 2.62143C49.7108 2.52816 49.9906 2.38826 50.317 2.295C51.4828 1.82867 52.6487 1.5955 53.8145 1.26907C54.4207 1.12917 54.9803 1.08254 55.5865 0.989271C55.8663 0.942638 56.1928 0.896005 56.4726 0.849372C56.7524 0.802739 57.0788 0.802739 57.3586 0.802739C57.9648 0.756106 58.5244 0.756106 59.084 0.709473C59.6436 0.709473 60.2499 0.756105 60.8095 0.756105C61.9287 0.756105 63.0479 0.98927 64.1204 1.12917L64.5401 1.1758C64.68 1.22244 64.8199 1.22244 64.9598 1.26907C65.2396 1.3157 65.4728 1.40897 65.7526 1.4556C66.2655 1.5955 66.7785 1.68877 67.2915 1.8753C67.8044 2.06183 68.2708 2.24837 68.7837 2.4349C69.0169 2.52817 69.2501 2.62143 69.5299 2.7147C69.763 2.80796 69.9962 2.94786 70.2294 3.04113C70.6957 3.2743 71.162 3.46083 71.5817 3.69399C71.8149 3.78726 72.0014 3.92716 72.2346 4.06706C72.4677 4.20696 72.6543 4.30022 72.8408 4.44012C73.2605 4.71992 73.6802 4.95309 74.0533 5.18625C74.4263 5.46605 74.7994 5.74585 75.1725 6.02565C78.157 8.31067 80.3021 10.9688 81.841 13.487C83.3333 16.0518 84.2659 18.4301 84.7323 20.4819C84.7789 20.7151 84.8722 20.9949 84.9188 21.2281C84.9654 21.4612 85.0587 21.6944 85.0587 21.9276C85.1053 22.3939 85.1986 22.8136 85.2452 23.1866C85.2919 23.6063 85.3851 23.9328 85.3851 24.3058C85.3851 24.6323 85.4318 24.9587 85.4318 25.2385C85.4318 25.7981 85.4784 26.2178 85.4784 26.4976C85.4318 27.0106 85.4318 27.1505 85.4318 27.1505Z" fill="#333232"/>
<path d="M127.262 36.2441C126.842 36.2441 126.563 35.9177 126.563 35.5446L126.702 29.2958C126.702 29.0626 126.796 28.8761 126.982 28.7362C127.169 28.5963 127.402 28.5496 127.588 28.6429C128.708 28.9693 129.967 28.8294 131.086 28.2232C132.112 27.6636 132.811 26.731 133.045 25.705C133.278 24.6791 133.045 23.5133 132.392 22.534C131.692 21.4614 130.666 20.7153 129.5 20.5287C127.215 20.109 124.697 21.6479 123.904 23.933C123.765 24.306 123.391 24.4926 123.018 24.3527C122.645 24.2128 122.459 23.8397 122.599 23.4666C123.625 20.5287 126.842 18.6168 129.78 19.1298C131.272 19.4095 132.671 20.3422 133.604 21.7412C134.444 23.0469 134.77 24.5858 134.444 25.9848C134.117 27.3838 133.138 28.6429 131.785 29.389C130.62 30.0419 129.314 30.3217 128.055 30.1352L127.915 35.498C127.962 35.9643 127.635 36.2441 127.262 36.2441Z" fill="#333232"/>
<path d="M128.381 39.3218C128.381 39.8814 127.915 40.3478 127.355 40.3478C126.796 40.3478 126.329 39.8814 126.329 39.3218C126.329 38.7622 126.796 38.2959 127.355 38.2959C127.915 38.2959 128.381 38.7622 128.381 39.3218Z" fill="#333232"/>
<path d="M50.7369 108.013C49.6644 108.013 48.6385 107.686 47.7991 107.08C46.8198 106.334 46.1669 105.168 46.027 103.862C45.8871 102.65 46.2135 101.437 46.9597 100.551C47.7058 99.6653 48.825 99.1057 50.0841 99.059C51.0634 99.0124 52.0427 99.2456 52.8354 99.7585L54.7008 96.2611C54.8873 95.9346 55.307 95.7947 55.6334 95.9813C55.9599 96.1678 56.0998 96.5875 55.9132 96.9139L53.6748 101.158C53.5816 101.344 53.395 101.484 53.1619 101.531C52.9287 101.577 52.7422 101.484 52.5556 101.344C51.9494 100.738 51.0634 100.458 50.1307 100.505C49.2913 100.551 48.4986 100.924 48.0322 101.531C47.5659 102.137 47.3327 102.93 47.426 103.816C47.5193 104.748 47.9856 105.541 48.6851 106.054C50.0375 107.08 52.2292 106.847 53.4883 105.634C53.7681 105.355 54.1878 105.355 54.4676 105.634C54.7474 105.914 54.7474 106.334 54.4676 106.614C53.4417 107.546 52.0893 108.013 50.7369 108.013Z" fill="#333232"/>
<path d="M55.8201 93.603C56.0066 93.2299 56.4729 93.0434 56.8926 93.2299C57.2657 93.4164 57.4522 93.8828 57.2657 94.3025C57.0792 94.6755 56.6128 94.8621 56.1931 94.6755C55.7734 94.4424 55.6335 93.976 55.8201 93.603Z" fill="#333232"/>
<path d="M191.896 96.261C191.662 96.261 191.476 96.1677 191.336 95.9812L188.538 92.1106C188.398 91.9241 188.351 91.6909 188.445 91.5044C188.491 91.3179 188.678 91.1313 188.864 91.0381C189.657 90.7583 190.357 90.1054 190.683 89.2194C191.01 88.4266 191.01 87.5872 190.73 86.8877C190.403 86.1882 189.797 85.6286 188.958 85.3488C188.072 85.0224 187.139 85.069 186.393 85.4421C184.901 86.1882 184.108 88.2401 184.621 89.9189C184.761 90.2919 184.528 90.665 184.154 90.8049C183.781 90.9448 183.408 90.7116 183.268 90.3386C182.522 88.0069 183.595 85.2556 185.74 84.183C186.813 83.6234 188.165 83.5768 189.424 83.9965C190.59 84.4162 191.523 85.2556 191.989 86.2815C192.455 87.3541 192.455 88.5665 191.989 89.7323C191.616 90.665 190.963 91.4111 190.17 91.9241L192.502 95.1418C192.735 95.4682 192.642 95.8879 192.362 96.1211C192.175 96.2144 192.035 96.261 191.896 96.261Z" fill="#333232"/>
<path d="M194.321 97.3335C194.6 97.6599 194.507 98.1729 194.181 98.4527C193.854 98.7325 193.341 98.6392 193.061 98.3128C192.782 97.9863 192.875 97.4734 193.201 97.1936C193.574 96.9604 194.087 97.007 194.321 97.3335Z" fill="#333232"/>
</svg>
