<svg width="20" height="20" viewBox="0 0 20 20" fill="none" xmlns="http://www.w3.org/2000/svg">
  <path fill-rule="evenodd" clip-rule="evenodd" d="M0.725209 0.113735C0.453798 0.242335 0.230772 0.4713 0.0969797 0.758687C0.0246945 0.913882 0.00345016 1.02585 0.0031768 1.25231C0.00247386 1.81998 -0.253043 1.53204 4.19693 5.97759C6.37916 8.15766 8.16461 9.96778 8.16461 10.0001C8.16461 10.0324 6.37916 11.8425 4.19693 14.0226C-0.25566 18.4707 0.00282533 18.1793 0.00278628 18.7514C0.00274723 19.0034 0.0205159 19.0833 0.121309 19.2851C0.349607 19.742 0.75399 19.9965 1.25241 19.9971C1.82007 19.9978 1.53214 20.2533 5.97762 15.8033C8.15766 13.621 9.96776 11.8355 10.0001 11.8355C10.0324 11.8355 11.8425 13.621 14.0225 15.8033C18.468 20.2533 18.18 19.9978 18.7477 19.9971C19.0924 19.9967 19.3443 19.8979 19.6086 19.6596C19.8605 19.4325 19.9973 19.1115 19.9973 18.7478C19.9973 18.1799 20.2527 18.4676 15.8032 14.0226C13.621 11.8425 11.8355 10.0324 11.8355 10.0001C11.8355 9.96778 13.621 8.15766 15.8032 5.97759C20.2527 1.53251 19.9973 1.82025 19.9973 1.25231C19.9973 0.888654 19.8605 0.567603 19.6086 0.340552C19.3443 0.102214 19.0924 0.00345039 18.7477 0.00305987C18.18 0.00235692 18.468 -0.253163 14.0225 4.19687C11.8425 6.37913 10.0324 8.16461 10.0001 8.16461C9.96776 8.16461 8.15766 6.37913 5.97762 4.19687C1.53261 -0.252695 1.82034 0.0027084 1.25241 0.0027084C1.01154 0.0027084 0.917892 0.0224299 0.725209 0.113735Z" fill="white"/>
</svg>
