<svg width="14" height="14" viewBox="0 0 14 14" fill="none" xmlns="http://www.w3.org/2000/svg">
<path fill-rule="evenodd" clip-rule="evenodd" d="M0.507646 0.0796143C0.317658 0.169634 0.16154 0.32991 0.0678858 0.531081C0.0172861 0.639717 0.00241511 0.718092 0.00222376 0.876618C0.0017317 1.27398 -0.17713 1.07243 2.93785 4.18431C4.46541 5.71036 5.71523 6.97745 5.71523 7.00005C5.71523 7.02266 4.46541 8.28975 2.93785 9.8158C-0.178962 12.9295 0.00197773 12.7255 0.00195039 13.1259C0.00192306 13.3024 0.0143611 13.3583 0.0849164 13.4996C0.244725 13.8194 0.527793 13.9976 0.876688 13.998C1.27405 13.9985 1.0725 14.1773 4.18434 11.0623C5.71036 9.53472 6.97743 8.28488 7.00004 8.28488C7.02265 8.28488 8.28972 9.53472 9.81575 11.0623C12.9276 14.1773 12.726 13.9985 13.1234 13.998C13.3647 13.9977 13.541 13.9286 13.7261 13.7617C13.9023 13.6028 13.9981 13.378 13.9981 13.1235C13.9981 12.7259 14.1769 12.9273 11.0622 9.8158C9.53467 8.28975 8.28485 7.02266 8.28485 7.00005C8.28485 6.97745 9.53467 5.71036 11.0622 4.18431C14.1769 1.07276 13.9981 1.27418 13.9981 0.876618C13.9981 0.622058 13.9023 0.397322 13.7261 0.238386C13.541 0.0715499 13.3647 0.00241528 13.1234 0.00214191C12.726 0.00164985 12.9276 -0.177215 9.81575 2.93781C8.28972 4.46539 7.02265 5.71523 7.00004 5.71523C6.97743 5.71523 5.71036 4.46539 4.18434 2.93781C1.07283 -0.176887 1.27424 0.00189588 0.876688 0.00189588C0.708077 0.00189588 0.642524 0.0157009 0.507646 0.0796143Z" fill="#D2D2D2"/>
</svg>
