<svg width="24" height="24" viewBox="0 0 24 24" fill="none" xmlns="http://www.w3.org/2000/svg">
<path fill-rule="evenodd" clip-rule="evenodd" d="M1.25 12C1.25 6.08579 6.08579 1.25 12 1.25C17.9142 1.25 22.75 6.08579 22.75 12C22.75 17.9142 17.9142 22.75 12 22.75C6.08579 22.75 1.25 17.9142 1.25 12ZM12 2.75C6.91421 2.75 2.75 6.91421 2.75 12C2.75 17.0858 6.91421 21.25 12 21.25C17.0858 21.25 21.25 17.0858 21.25 12C21.25 6.91421 17.0858 2.75 12 2.75Z" fill="#2AC6FA"/>
<path fill-rule="evenodd" clip-rule="evenodd" d="M15.3604 8.63971C15.6533 8.93261 15.6533 9.40748 15.3604 9.70037L9.70037 15.3604C9.40748 15.6533 8.93261 15.6533 8.63971 15.3604C8.34682 15.0675 8.34682 14.5926 8.63971 14.2997L14.2997 8.63971C14.5926 8.34682 15.0675 8.34682 15.3604 8.63971Z" fill="#2AC6FA"/>
<path fill-rule="evenodd" clip-rule="evenodd" d="M8.63971 8.63971C8.93261 8.34682 9.40748 8.34682 9.70037 8.63971L15.3604 14.2997C15.6533 14.5926 15.6533 15.0675 15.3604 15.3604C15.0675 15.6533 14.5926 15.6533 14.2997 15.3604L8.63971 9.70037C8.34682 9.40748 8.34682 8.93261 8.63971 8.63971Z" fill="#2AC6FA"/>
</svg>
