<svg width="18" height="18" viewBox="0 0 18 18" fill="none" xmlns="http://www.w3.org/2000/svg">
<path fill-rule="evenodd" clip-rule="evenodd" d="M4.28484 2.2732C2.46819 2.66242 1.15468 4.06103 0.811282 5.97181C0.735897 6.39124 0.74476 7.31424 0.82795 7.7072C1.25827 9.74021 2.96963 11.8717 6.01955 14.1735C6.87921 14.8223 7.98316 15.5579 8.26588 15.6703C8.46209 15.7483 8.55226 15.7592 8.99872 15.7592C9.44518 15.7592 9.53535 15.7483 9.73156 15.6703C10.0143 15.5579 11.1182 14.8223 11.9779 14.1735C15.0207 11.8771 16.736 9.74089 17.1701 7.7072C17.2712 7.2334 17.2608 6.31375 17.1484 5.78567C16.8946 4.59338 16.2126 3.55324 15.2806 2.93721C14.5032 2.42327 13.764 2.19922 12.846 2.19922C11.864 2.19922 11.1329 2.42542 10.2885 2.99041C9.94364 3.22121 9.45084 3.67279 9.15526 4.02892L8.99872 4.21755L8.84229 4.02892C8.40141 3.49729 7.7101 2.93416 7.15356 2.65336C6.83064 2.49046 6.30793 2.31704 5.95318 2.25517C5.50611 2.17715 4.69201 2.18598 4.28484 2.2732ZM5.85739 3.23943C6.43267 3.35831 7.01214 3.6505 7.50589 4.07065C7.85985 4.37181 8.08162 4.62605 8.38343 5.0765C8.70246 5.55275 8.77049 5.60677 9.0247 5.58591C9.13237 5.57708 9.24818 5.54679 9.28212 5.51861C9.3161 5.49042 9.46505 5.28802 9.61322 5.0688C9.92498 4.60749 10.4866 4.02508 10.8466 3.78986C11.1812 3.57116 11.5769 3.38626 11.9288 3.28429C12.1798 3.21156 12.3117 3.19899 12.8264 3.19899C13.5457 3.19899 13.8212 3.26279 14.3924 3.56161C15.5119 4.14727 16.1884 5.25739 16.2633 6.63201C16.3012 7.32733 16.1543 7.95962 15.7813 8.70693C14.9276 10.4173 12.9715 12.3516 10.1729 14.2524C9.46867 14.7308 9.32081 14.7997 8.99872 14.7997C8.67621 14.7997 8.52888 14.7308 7.81791 14.248C4.42007 11.9406 2.31539 9.63386 1.82503 7.67992C1.72012 7.26199 1.71103 6.4089 1.80697 5.98716C2.06242 4.86399 2.68205 4.03458 3.62731 3.5506C4.18781 3.26362 4.49075 3.18949 5.1255 3.18394C5.39822 3.1816 5.68128 3.20303 5.85739 3.23943Z" fill="#2AC6FA"/>
</svg>
