<svg width="22" height="23" viewBox="0 0 22 23" fill="none" xmlns="http://www.w3.org/2000/svg">
<path fill-rule="evenodd" clip-rule="evenodd" d="M5.99013 3.47949C5.45377 3.47949 4.9529 3.74755 4.65538 4.19383L1.36526 9.12901C1.16384 9.43114 1.13975 9.81804 1.30214 10.1428C3.10257 13.7437 5.60466 16.9483 8.66134 19.5683L10.2662 20.9439C10.6882 21.3056 11.3109 21.3056 11.7329 20.9439L13.3377 19.5683C16.3944 16.9483 18.8965 13.7437 20.6969 10.1428C20.8593 9.81804 20.8352 9.43114 20.6338 9.12901L17.3437 4.19383C17.0462 3.74755 16.5453 3.47949 16.009 3.47949H5.99013ZM5.79945 4.95654C5.84195 4.89279 5.9135 4.85449 5.99013 4.85449H8.13495L6.37943 9.06775C6.33899 9.16481 6.30847 9.2649 6.2879 9.36655C5.64272 9.31853 4.99809 9.26063 4.35424 9.19285L3.06567 9.05722L5.79945 4.95654ZM3.00498 10.4334C4.64893 13.4492 6.81973 16.1491 9.41666 18.404L6.55164 10.7639C5.77034 10.7102 4.98976 10.6423 4.2103 10.5603L3.00498 10.4334ZM8.05228 10.8496L10.9995 18.709L13.9468 10.8496C11.983 10.939 10.0161 10.939 8.05228 10.8496ZM15.4474 10.7639L12.5824 18.404C15.1794 16.1491 17.3502 13.4492 18.9941 10.4334L17.7888 10.5603C17.0093 10.6423 16.2287 10.7102 15.4474 10.7639ZM18.9334 9.05721L17.6448 9.19285C17.001 9.26063 16.3564 9.31852 15.7112 9.36654C15.6906 9.2649 15.6601 9.16481 15.6197 9.06775L13.8641 4.85449H16.009C16.0856 4.85449 16.1571 4.89279 16.1996 4.95654L18.9334 9.05721ZM14.2919 9.4562C12.0985 9.57012 9.9006 9.57012 7.70716 9.45621L9.62454 4.85449H12.3746L14.2919 9.4562Z" fill="#2AC6FA"/>
</svg>
