<svg width="34" height="34" viewBox="0 0 34 34" fill="none" xmlns="http://www.w3.org/2000/svg">
<circle cx="17" cy="17" r="17" fill="#F4F4F4"/>
<path d="M7.77017 23.25C7.89017 25.31 9.00017 27 11.7602 27H22.2402C25.0002 27 26.1002 25.31 26.2302 23.25L26.7502 14.99C26.8902 12.83 25.1702 11 23.0002 11C22.3902 11 21.8302 10.65 21.5502 10.11L20.8302 8.66C20.3702 7.75 19.1702 7 18.1502 7H15.8602C14.8302 7 13.6302 7.75 13.1702 8.66L12.4502 10.11C12.1702 10.65 11.6102 11 11.0002 11C8.83017 11 7.11017 12.83 7.25017 14.99L7.51017 19.06" stroke="#2AC6FA" stroke-width="1.5" stroke-linecap="round" stroke-linejoin="round"/>
<path d="M15.5 13H18.5" stroke="#2AC6FA" stroke-width="1.5" stroke-linecap="round" stroke-linejoin="round"/>
<path d="M17 23C18.79 23 20.25 21.54 20.25 19.75C20.25 17.96 18.79 16.5 17 16.5C15.21 16.5 13.75 17.96 13.75 19.75C13.75 21.54 15.21 23 17 23Z" stroke="#2AC6FA" stroke-width="1.5" stroke-linecap="round" stroke-linejoin="round"/>
</svg>
