<svg width="24" height="24" viewBox="0 0 24 24" fill="none" xmlns="http://www.w3.org/2000/svg">
<path fill-rule="evenodd" clip-rule="evenodd" d="M3.88534 5.2371C3.20538 5.86848 2.75 6.89295 2.75 8.5V15.5C2.75 17.107 3.20538 18.1315 3.88534 18.7629C4.57535 19.4036 5.61497 19.75 7 19.75H12C12.4142 19.75 12.75 20.0858 12.75 20.5C12.75 20.9142 12.4142 21.25 12 21.25H7C5.38503 21.25 3.92465 20.8464 2.86466 19.8621C1.79462 18.8685 1.25 17.393 1.25 15.5V8.5C1.25 6.60705 1.79462 5.13152 2.86466 4.1379C3.92465 3.15363 5.38503 2.75 7 2.75H17C18.615 2.75 20.0754 3.15363 21.1353 4.1379C22.2054 5.13152 22.75 6.60705 22.75 8.5V11.5C22.75 11.9142 22.4142 12.25 22 12.25C21.5858 12.25 21.25 11.9142 21.25 11.5V8.5C21.25 6.89295 20.7946 5.86848 20.1147 5.2371C19.4246 4.59637 18.385 4.25 17 4.25H7C5.61497 4.25 4.57535 4.59637 3.88534 5.2371Z" fill="#333232"/>
<path fill-rule="evenodd" clip-rule="evenodd" d="M17.586 8.53196C17.8445 8.85561 17.7917 9.32754 17.4681 9.58605L14.3371 12.0868C13.0337 13.1244 10.9563 13.1244 9.65286 12.0868L9.65101 12.0853L6.53102 9.58531C6.20777 9.3263 6.1557 8.85429 6.41471 8.53105C6.67372 8.2078 7.14573 8.15573 7.46898 8.41474L10.588 10.914C11.3446 11.5155 12.6461 11.5154 13.4025 10.9135C13.4024 10.9136 13.4026 10.9135 13.4025 10.9135L16.5319 8.41401C16.8556 8.15551 17.3275 8.20832 17.586 8.53196Z" fill="#333232"/>
<path fill-rule="evenodd" clip-rule="evenodd" d="M20.1334 13.4564C20.7966 13.3883 21.4069 13.6861 21.9504 14.2296C22.4969 14.7762 22.7984 15.3878 22.7326 16.0526C22.6708 16.6777 22.298 17.1627 21.9504 17.5103L18.4179 21.0427C18.2714 21.1963 18.0911 21.308 17.943 21.382C17.7871 21.46 17.5977 21.5307 17.407 21.5608L17.3946 21.5628L16.0461 21.7524C16.0458 21.7525 16.0464 21.7524 16.0461 21.7524C15.6046 21.8153 15.1486 21.6992 14.8197 21.3703C14.4908 21.0414 14.3746 20.5863 14.4374 20.1447C14.4374 20.145 14.4375 20.1445 14.4374 20.1447L14.6291 18.783C14.6597 18.5893 14.732 18.401 14.8095 18.2476C14.8871 18.0943 14.9974 17.9219 15.1397 17.7796C15.1397 17.7796 15.1397 17.7796 15.1397 17.7796L18.6797 14.2396C19.0273 13.892 19.5113 13.5203 20.1334 13.4564ZM20.2867 14.9485C20.1788 14.9596 20.0027 15.0379 19.7403 15.3003L16.2017 18.839C16.2012 18.8396 16.1956 18.8459 16.1863 18.8595C16.1744 18.8767 16.161 18.8991 16.148 18.9248C16.135 18.9504 16.1249 18.9746 16.118 18.9944C16.1136 19.0068 16.1116 19.0146 16.1108 19.0176L15.937 20.253L17.173 20.079C17.1762 20.0783 17.1853 20.076 17.2001 20.0709C17.2215 20.0636 17.2466 20.0531 17.2721 20.0404C17.2978 20.0276 17.3182 20.0152 17.3318 20.0057C17.335 20.0035 17.3374 20.0017 17.339 20.0005C17.3425 19.9968 17.3461 19.9932 17.3497 19.9896L20.8897 16.4496C21.1521 16.1873 21.2293 16.0122 21.2399 15.9049C21.2466 15.8371 21.2431 15.6437 20.8897 15.2903C20.5432 14.9438 20.3535 14.9417 20.2867 14.9485Z" fill="#333232"/>
<path fill-rule="evenodd" clip-rule="evenodd" d="M18.4988 14.5573C18.8979 14.4465 19.3113 14.6801 19.4222 15.0792C19.6518 15.9058 20.2938 16.5477 21.1203 16.7773C21.5194 16.8882 21.7531 17.3016 21.6422 17.7007C21.5313 18.0998 21.1179 18.3335 20.7188 18.2226C19.3854 17.8522 18.3473 16.8142 17.9769 15.4807C17.8661 15.0816 18.0997 14.6682 18.4988 14.5573Z" fill="#333232"/>
</svg>
