<svg width="286" height="269" viewBox="0 0 286 269" fill="none" xmlns="http://www.w3.org/2000/svg">
<path d="M143 268.999C221.701 268.999 285.5 265.277 285.5 260.686C285.5 256.095 221.701 252.373 143 252.373C64.2994 252.373 0.5 256.095 0.5 260.686C0.5 265.277 64.2994 268.999 143 268.999Z" fill="#F5F5F5"/>
<path d="M138.57 6.40981C141.986 3.3674 146.409 1.37493 151.841 0.43242C157.272 -0.510092 163.013 0.0881353 169.064 2.2271C175.096 4.36607 180.613 8.2289 185.615 13.8156C190.265 19.0116 193.408 24.4543 195.043 30.1435C196.673 35.4046 196.823 41.0138 195.474 46.3543C194.193 51.3045 191.466 55.76 187.642 59.1515C184.921 61.7049 181.6 63.5313 177.987 64.4622C174.761 65.2663 171.431 65.5726 168.113 65.3706C164.926 65.1655 159.397 64.6209 151.526 63.737C149.683 63.5364 147.831 63.4337 145.978 63.4294C144.708 63.421 143.442 63.5661 142.208 63.8616C141.228 64.1115 140.277 64.46 139.368 64.9018C138.489 65.3339 137.003 66.1324 134.895 67.3118C130.562 69.9635 126.795 69.4996 123.593 65.92C122.798 65.0735 122.178 64.0777 121.77 62.9901C121.362 61.9025 121.173 60.7447 121.214 59.5836C121.297 57.2249 122.537 54.9712 124.933 52.8225C129.813 48.1425 136.35 45.5922 143.108 45.7316C146.955 45.8601 150.793 46.1828 154.608 46.6986C158.663 47.1894 161.657 47.497 163.589 47.5996C165.508 47.7093 167.432 47.549 169.306 47.1234C171.175 46.7089 172.904 45.8125 174.32 44.523C175.706 43.319 176.816 41.8299 177.574 40.1573C178.332 38.4848 178.72 36.6682 178.712 34.8317C178.771 30.9249 177.307 27.294 174.32 23.9391C170.792 19.9981 167.203 17.9885 163.553 17.9104C159.902 17.8323 155.557 18.8822 150.516 21.0603C145.387 23.4678 141.3 22.9795 138.255 19.5952C137.389 18.6656 136.725 17.5651 136.308 16.3643C135.891 15.1635 135.729 13.8887 135.832 12.6216C135.854 11.4563 136.108 10.307 136.578 9.24054C137.048 8.17411 137.725 7.21187 138.57 6.40981ZM103.186 85.2952C101.273 83.2156 100.205 80.496 100.192 77.6696C100.148 74.7786 101.395 72.1928 103.932 69.9122C104.977 68.9456 106.21 68.2063 107.554 67.7411C108.899 67.2758 110.325 67.0947 111.743 67.2092C113.179 67.2961 114.582 67.6717 115.87 68.3136C117.158 68.9554 118.304 69.8504 119.238 70.9451C120.199 71.9862 120.941 73.2099 121.42 74.5435C121.899 75.8772 122.106 77.2936 122.027 78.7087C121.949 80.1238 121.587 81.5087 120.963 82.781C120.339 84.0534 119.466 85.1874 118.396 86.1156C115.893 88.3571 113.209 89.3143 110.344 88.9871C107.577 88.7083 105.018 87.3888 103.186 85.2952Z" fill="#2AC6FA"/>
<g opacity="0.5">
<path d="M204.669 55.6621C205.701 53.212 207.412 51.1076 209.6 49.5963C212.173 47.7654 215.176 46.6319 218.317 46.3064C221.976 45.913 225.676 46.4537 229.069 47.8779C232.275 49.0628 235.17 50.9584 237.536 53.4223C239.587 55.5544 241.011 58.2093 241.652 61.0963C242.243 63.7945 242.012 66.6078 240.99 69.1741C240.297 71.0566 239.139 72.7338 237.624 74.0502C236.268 75.2151 234.741 76.1661 233.097 76.8701C231.519 77.5409 228.729 78.613 224.726 80.0866C223.79 80.4297 222.874 80.827 221.984 81.2763C221.372 81.5764 220.799 81.9514 220.279 82.3925C219.866 82.7459 219.492 83.1422 219.162 83.5748C218.846 83.9934 218.324 84.7351 217.597 85.7779C216.127 88.0984 214.204 88.7838 211.827 87.834C211.241 87.6192 210.702 87.2906 210.243 86.8672C209.784 86.4437 209.413 85.9338 209.152 85.3666C208.89 84.7029 208.769 83.9918 208.797 83.2787C208.825 82.5657 209.001 81.8662 209.314 81.2249C210.532 77.8031 213.059 75.0038 216.34 73.4407C218.218 72.5667 220.139 71.7873 222.095 71.1055C224.16 70.3711 225.674 69.791 226.629 69.3798C227.577 68.9688 228.463 68.4275 229.26 67.7715C230.059 67.1201 230.675 66.2723 231.046 65.3114C231.423 64.4003 231.597 63.4185 231.558 62.4335C231.519 61.4486 231.266 60.4838 230.819 59.6055C229.835 57.6724 228.142 56.1937 226.093 55.4785C223.447 54.4357 221.242 54.3353 219.478 55.1774C217.336 56.3163 215.462 57.8986 213.981 59.8185C212.09 62.2125 210.002 62.9468 207.719 62.0215C207.079 61.7822 206.495 61.4126 206.006 60.936C205.516 60.4594 205.131 59.8863 204.875 59.253C204.604 58.698 204.446 58.0947 204.411 57.4782C204.375 56.8617 204.463 56.2443 204.669 55.6621ZM206.675 102.073C205.255 101.535 204.087 100.488 203.397 99.1357C203.045 98.4247 202.854 97.6443 202.838 96.8508C202.823 96.0572 202.984 95.2701 203.309 94.546C203.574 93.8277 203.986 93.1726 204.519 92.6226C205.052 92.0725 205.694 91.6396 206.403 91.3516C207.116 91.048 207.882 90.8915 208.656 90.8915C209.43 90.8915 210.197 91.048 210.909 91.3516C211.621 91.6197 212.273 92.0281 212.825 92.5526C213.377 93.0771 213.818 93.7069 214.121 94.4048C214.425 95.1027 214.585 95.8544 214.593 96.6153C214.6 97.3763 214.454 98.131 214.165 98.8346C213.911 99.5886 213.493 100.277 212.941 100.851C212.39 101.425 211.718 101.87 210.975 102.154C209.583 102.67 208.047 102.642 206.675 102.073Z" fill="#2AC6FA"/>
</g>
<g opacity="0.1">
<path d="M254.102 51.3375C253.437 50.2924 253.083 49.0803 253.08 47.842C253.056 46.3749 253.415 44.9268 254.124 43.6415C254.941 42.1445 256.128 40.8807 257.571 39.9697C258.872 39.0542 260.365 38.4465 261.936 38.1926C263.298 37.9721 264.693 38.1296 265.971 38.6479C267.168 39.1321 268.192 39.9634 268.911 41.0345C269.451 41.7974 269.79 42.6839 269.896 43.6121C269.98 44.4383 269.94 45.2724 269.778 46.0869C269.617 46.8751 269.288 48.2263 268.793 50.1405C268.682 50.591 268.594 51.0469 268.529 51.5064C268.443 52.0721 268.489 52.6499 268.661 53.1954C268.742 53.4304 268.889 53.827 269.109 54.3851C269.244 54.6137 269.331 54.8667 269.367 55.1294C269.402 55.392 269.385 55.6591 269.317 55.9152C269.249 56.1713 269.13 56.4113 268.968 56.6213C268.807 56.8314 268.605 57.0073 268.375 57.1389C267.896 57.4745 267.304 57.6065 266.728 57.5061C266.403 57.4329 266.098 57.2925 265.831 57.0939C265.563 56.8953 265.341 56.643 265.177 56.3531C264.66 55.6205 264.295 54.7914 264.104 53.9151C263.952 53.1554 263.935 52.3749 264.053 51.6092C264.212 50.659 264.42 49.7177 264.678 48.7893C264.942 47.7979 265.119 47.0709 265.214 46.5862C265.307 46.1025 265.334 45.6085 265.295 45.1175C265.253 44.6385 265.089 44.1782 264.817 43.781C264.567 43.397 264.236 43.0717 263.848 42.8271C263.46 42.5825 263.023 42.4244 262.568 42.3637C261.558 42.2262 260.535 42.4899 259.717 43.0981C259.253 43.3556 258.847 43.7066 258.526 44.1288C258.205 44.551 257.974 45.0352 257.85 45.5508C257.722 46.673 257.835 47.8095 258.181 48.8848C258.6 50.2433 258.328 51.2347 257.38 51.8736C257.119 52.0549 256.824 52.1804 256.513 52.2424C256.202 52.3043 255.882 52.3012 255.572 52.2334C255.279 52.1902 254.998 52.0887 254.746 51.9347C254.493 51.7808 254.274 51.5777 254.102 51.3375ZM272.439 62.8375C271.856 63.2356 271.147 63.4055 270.447 63.3148C270.078 63.2622 269.725 63.1274 269.414 62.9202C269.104 62.713 268.844 62.4388 268.654 62.1178C268.448 61.8269 268.306 61.4965 268.235 61.1476C268.164 60.7987 268.167 60.4389 268.242 60.091C268.313 59.7377 268.455 59.4024 268.658 59.1047C268.861 58.807 269.122 58.5531 269.425 58.3579C269.717 58.1552 270.046 58.0136 270.393 57.9417C270.741 57.8698 271.099 57.8689 271.447 57.9393C271.796 58.0037 272.128 58.1393 272.423 58.3377C272.718 58.536 272.968 58.7929 273.159 59.0923C273.381 59.3894 273.534 59.7314 273.609 60.0943C273.684 60.4572 273.679 60.8321 273.593 61.1925C273.428 61.8658 273.016 62.4528 272.439 62.8375Z" fill="#2AC6FA"/>
</g>
<path d="M120.84 255.822L115.284 254.383L118.599 241.686L124.155 243.125L120.84 255.822Z" fill="#FFC3BD"/>
<path d="M115.225 252.915L121.428 254.876C121.48 254.888 121.528 254.911 121.571 254.943C121.613 254.975 121.649 255.015 121.675 255.061C121.702 255.107 121.719 255.158 121.726 255.21C121.733 255.263 121.729 255.317 121.715 255.368L120.406 260.178C120.315 260.43 120.129 260.637 119.888 260.756C119.647 260.875 119.369 260.897 119.113 260.817C116.967 260.082 115.975 259.656 113.233 258.79C111.55 258.261 107.493 257.064 105.149 256.33C102.804 255.595 103.679 253.392 104.7 253.532C109.419 254.024 112.16 253.627 114.123 252.944C114.477 252.813 114.864 252.803 115.225 252.915Z" fill="#263238"/>
<path opacity="0.2" d="M124.155 243.137L118.599 241.697L116.893 248.24L122.45 249.68L124.155 243.137Z" fill="black"/>
<path d="M138.156 113.293C138.156 113.293 127.984 161.591 125.28 177.402C122.34 194.718 115.88 244.294 115.88 244.294L125.324 247.724C125.324 247.724 140.104 195.151 142.345 178.503C147.042 162.23 158.94 113.293 158.94 113.293H138.156Z" fill="#2AC6FA"/>
<path opacity="0.3" d="M151.216 129.059C147.916 136.976 146.718 151.391 147.291 160.012C149.907 149.834 152.81 138.209 155.059 129.103C154.332 126.599 153.332 123.97 151.216 129.059Z" fill="black"/>
<path d="M125.132 248.839L115.005 245.916L115.387 241.635L127.44 245.02L125.132 248.839Z" fill="#263238"/>
<path d="M112.947 253.222C113.448 253.365 113.963 253.456 114.483 253.494C114.509 253.498 114.536 253.494 114.56 253.482C114.584 253.47 114.603 253.451 114.615 253.428C114.629 253.407 114.636 253.383 114.636 253.358C114.636 253.333 114.629 253.309 114.615 253.288C114.475 253.112 113.263 251.592 112.506 251.636C112.419 251.639 112.334 251.664 112.259 251.709C112.185 251.754 112.123 251.817 112.08 251.893C112.005 251.998 111.959 252.122 111.948 252.251C111.936 252.38 111.959 252.51 112.013 252.627C112.241 252.933 112.573 253.144 112.947 253.222ZM114.196 253.222C113.138 253.097 112.425 252.84 112.249 252.488C112.214 252.411 112.202 252.327 112.212 252.244C112.222 252.161 112.255 252.083 112.307 252.018C112.328 251.98 112.358 251.949 112.394 251.925C112.429 251.902 112.471 251.889 112.513 251.885C112.91 251.871 113.689 252.612 114.196 253.207V253.222Z" fill="#2AC6FA"/>
<path d="M114.454 253.495H114.52C114.542 253.492 114.563 253.483 114.58 253.471C114.598 253.458 114.613 253.441 114.623 253.422C114.623 253.355 115.3 251.865 114.917 251.174C114.865 251.086 114.795 251.01 114.711 250.951C114.628 250.891 114.533 250.85 114.432 250.829C114.321 250.797 114.203 250.802 114.096 250.844C113.989 250.885 113.897 250.96 113.836 251.057C113.505 251.6 113.954 252.966 114.395 253.451C114.41 253.472 114.43 253.487 114.454 253.495ZM114.454 251.101C114.505 251.116 114.552 251.142 114.592 251.176C114.633 251.21 114.666 251.252 114.689 251.299C114.822 251.906 114.747 252.54 114.476 253.098C114.13 252.555 113.866 251.542 114.086 251.189C114.086 251.123 114.197 251.05 114.388 251.086L114.454 251.101Z" fill="#2AC6FA"/>
<path d="M146.027 71.9249C145.535 73.1145 145.064 74.172 144.557 75.2588C144.05 76.3457 143.506 77.4105 142.955 78.4753C141.838 80.5976 140.662 82.6905 139.368 84.732C136.795 88.9753 133.682 92.8679 130.108 96.3127L129.976 96.4449C129.788 96.6137 129.581 96.7591 129.358 96.8782C128.746 97.2079 128.074 97.4103 127.381 97.473C126.985 97.5013 126.587 97.5013 126.191 97.473C125.598 97.4348 125.008 97.3538 124.427 97.2307C123.383 97.0104 122.457 96.7386 121.546 96.4523C119.738 95.8795 118.055 95.1818 116.401 94.4768C114.747 93.7719 113.116 93.0081 111.514 92.1783C109.911 91.3485 108.339 90.5187 106.781 89.5787C106.419 89.3583 106.148 89.0163 106.017 88.6142C105.885 88.2122 105.902 87.7765 106.063 87.3853C106.224 86.9942 106.52 86.6733 106.896 86.4804C107.273 86.2875 107.706 86.2352 108.118 86.3329C111.528 87.1553 114.931 88.0733 118.283 88.8884C119.951 89.307 121.619 89.6742 123.221 89.9826C123.977 90.1353 124.74 90.2456 125.507 90.3131C125.796 90.3298 126.086 90.3298 126.374 90.3131C126.485 90.3131 126.529 90.3131 126.499 90.3131C126.238 90.3202 125.984 90.399 125.764 90.5407L125.029 91.1062C126.451 89.5336 127.77 87.8704 128.976 86.1272C130.211 84.3428 131.379 82.4555 132.504 80.5609C133.628 78.6662 134.709 76.6761 135.73 74.686C136.752 72.6959 137.766 70.6471 138.67 68.7304L138.714 68.635C139.148 67.6612 139.951 66.8994 140.947 66.5172C141.943 66.135 143.05 66.1638 144.024 66.5971C144.999 67.0305 145.761 67.8329 146.144 68.8279C146.526 69.8229 146.497 70.929 146.064 71.9028L146.027 71.9249Z" fill="#FFC3BD"/>
<path d="M144.895 64.1577C140.162 64.2899 136.914 69.423 133.812 75.8192C136.19 79.9255 139.596 83.3423 143.697 85.733C143.697 85.733 156.133 63.8419 144.895 64.1577Z" fill="#E0E0E0"/>
<path d="M106.545 89.6112L102.283 88.5244L105.605 84.2578C105.605 84.2578 109.279 84.838 110.676 87.9296L109.162 89.0091C108.794 89.2913 108.371 89.4911 107.919 89.595C107.468 89.6989 106.999 89.7045 106.545 89.6112Z" fill="#FFC3BD"/>
<path d="M101.246 84.1588L102.069 83.4245C102.406 83.1297 102.836 82.9629 103.284 82.9535C103.731 82.9441 104.168 83.0927 104.517 83.3731L105.604 84.2469L102.282 88.5135L100.923 86.3986C100.698 86.049 100.606 85.6298 100.666 85.2183C100.725 84.8068 100.931 84.4306 101.246 84.1588Z" fill="#FFC3BD"/>
<path d="M170.575 255.164H164.762L163.373 242.225H169.186L170.575 255.164Z" fill="#FFC3BD"/>
<path d="M164.254 254.514H170.788C170.896 254.508 171.002 254.545 171.083 254.616C171.164 254.688 171.214 254.788 171.222 254.896L171.538 259.86C171.532 260.127 171.422 260.381 171.231 260.568C171.04 260.755 170.783 260.859 170.516 260.859C168.245 260.815 167.157 260.69 164.284 260.69C162.52 260.69 157.669 260.866 155.207 260.866C152.745 260.866 152.833 258.546 153.869 258.34C158.507 257.393 161.609 256.093 163.255 254.859C163.541 254.638 163.892 254.516 164.254 254.514Z" fill="#263238"/>
<path opacity="0.2" d="M169.186 242.225H163.373L164.093 248.9H169.906L169.186 242.225Z" fill="black"/>
<path d="M149.518 113.294C149.518 113.294 150.804 161.849 151.723 177.851C152.752 195.373 161.461 247.284 161.461 247.284H172.118C172.118 247.284 169.781 194.712 168.017 177.52C168.752 158.692 169.237 113.279 169.237 113.279L149.518 113.294Z" fill="#2AC6FA"/>
<path d="M172.545 247.283H160.462L159.889 243.398L172.868 243.619L172.545 247.283Z" fill="#263238"/>
<path d="M162.196 255.484C162.718 255.473 163.238 255.406 163.747 255.286C163.771 255.281 163.794 255.269 163.811 255.25C163.829 255.232 163.839 255.208 163.842 255.183C163.849 255.158 163.848 255.132 163.839 255.108C163.829 255.084 163.812 255.064 163.791 255.051C163.607 254.933 161.961 253.846 161.248 254.118C161.168 254.147 161.097 254.196 161.042 254.261C160.987 254.325 160.949 254.402 160.932 254.485C160.886 254.611 160.877 254.747 160.907 254.878C160.937 255.008 161.004 255.127 161.101 255.22C161.423 255.436 161.811 255.53 162.196 255.484ZM163.372 255.102C162.328 255.301 161.564 255.264 161.292 255.007C161.236 254.945 161.197 254.87 161.181 254.788C161.164 254.707 161.169 254.622 161.196 254.544C161.203 254.503 161.22 254.465 161.246 254.433C161.272 254.401 161.305 254.376 161.343 254.36C161.725 254.213 162.696 254.683 163.372 255.102Z" fill="#2AC6FA"/>
<path d="M163.711 255.294H163.777C163.797 255.282 163.814 255.266 163.826 255.247C163.839 255.228 163.847 255.206 163.851 255.183C163.851 255.117 163.983 253.509 163.395 252.98C163.319 252.908 163.228 252.855 163.129 252.824C163.029 252.794 162.924 252.787 162.821 252.804C162.708 252.806 162.598 252.845 162.508 252.915C162.419 252.985 162.356 253.083 162.328 253.193C162.196 253.803 163.064 254.97 163.645 255.301L163.711 255.294ZM162.887 253.024C162.942 253.023 162.996 253.032 163.047 253.053C163.097 253.073 163.143 253.103 163.181 253.142C163.503 253.675 163.638 254.301 163.564 254.919C163.056 254.508 162.476 253.619 162.564 253.223C162.564 253.142 162.63 253.054 162.828 253.032L162.887 253.024Z" fill="#2AC6FA"/>
<path d="M140.603 67.8947C140.917 66.944 141.481 66.0952 142.236 65.4375C142.991 64.7797 143.91 64.3374 144.895 64.1569C146.332 63.8222 147.787 63.5769 149.254 63.4225C153.66 63.1795 158.076 63.1795 162.483 63.4225C164.791 63.5253 167.142 63.797 169.017 64.0614H169.083C169.564 64.1174 170.029 64.2707 170.45 64.512C170.87 64.7533 171.237 65.0776 171.527 65.4651C171.818 65.8526 172.027 66.2952 172.141 66.7659C172.256 67.2366 172.273 67.7256 172.192 68.2032C170.724 75.6865 169.764 83.2602 169.318 90.8726C168.862 101.932 169.48 110.612 169.259 113.278H138.156C136.267 86.305 138.707 74.0413 140.603 67.8947Z" fill="#E0E0E0"/>
<path d="M164.592 46.9648C165.134 47.3563 165.566 47.8818 165.844 48.49C166.122 49.0981 166.238 49.768 166.179 50.4342C166.121 51.1003 165.89 51.7398 165.51 52.2902C165.13 52.8406 164.614 53.283 164.011 53.574C165.268 55.6522 161.924 59.324 158.558 57.0181C155.192 54.7123 159.947 45.0041 164.592 46.9648Z" fill="#263238"/>
<path d="M150.672 44.7352C150.21 44.7489 149.753 44.6425 149.345 44.4264C148.936 44.2103 148.591 43.892 148.343 43.5027C148.095 43.1133 147.952 42.6662 147.929 42.2051C147.905 41.7441 148.002 41.2849 148.21 40.8725C146.645 40.263 146.924 36.8483 149.746 36.7014C152.568 36.5545 154.024 43.876 150.672 44.7352Z" fill="#263238"/>
<path d="M149.754 66.3104C149.543 66.1175 149.387 65.8732 149.299 65.6016C149.212 65.3299 149.197 65.0403 149.255 64.761C149.314 64.4818 149.444 64.2225 149.633 64.0088C149.823 63.795 150.064 63.6341 150.334 63.5418C153.171 62.4991 153.686 60.4429 153.458 58.2031C153.393 57.5733 153.29 56.948 153.149 56.3305L157.963 52.4898L161.506 49.6699C160.624 53.3417 159.639 59.7379 161.506 62.9764C161.715 63.3153 161.796 63.7178 161.734 64.1111C161.672 64.5044 161.471 64.8625 161.167 65.1207C159.947 66.2002 157.449 67.5955 153.333 67.3752C151.444 67.2797 150.393 66.8464 149.754 66.3104Z" fill="#FFC3BD"/>
<path d="M139.008 68.0264C139.359 66.969 139.977 66.02 140.802 65.2713C141.628 64.5225 142.632 63.9994 143.719 63.7524C145.114 63.5311 146.52 63.384 147.931 63.3118C148.078 63.2907 148.228 63.3065 148.368 63.3579C148.507 63.4092 148.632 63.4944 148.73 63.6059C148.829 63.7173 148.898 63.8515 148.932 63.9963C148.965 64.1411 148.962 64.292 148.923 64.4354C146.461 73.5707 142.948 91.8488 144.035 114.489C144.041 114.63 144.017 114.77 143.965 114.902C143.914 115.033 143.837 115.153 143.738 115.253C143.639 115.353 143.52 115.432 143.389 115.485C143.258 115.538 143.118 115.564 142.977 115.561H136.804C136.536 115.566 136.276 115.468 136.078 115.288C135.88 115.107 135.758 114.859 135.738 114.592C133.878 86.9286 137.164 73.1448 139.008 68.0264Z" fill="#263238"/>
<path d="M168.848 63.5084C166.872 63.2256 164.882 63.0442 162.887 62.965C162.526 62.9387 162.167 63.0407 161.874 63.253C161.581 63.4653 161.372 63.7742 161.285 64.1253C158.999 74.1859 156.964 96.5396 156.875 114.524C156.878 114.661 156.908 114.796 156.963 114.921C157.018 115.047 157.098 115.16 157.197 115.255C157.296 115.35 157.412 115.424 157.54 115.474C157.668 115.523 157.804 115.548 157.941 115.545H168.965C169.238 115.551 169.503 115.449 169.702 115.263C169.902 115.076 170.02 114.819 170.031 114.546C170.105 110.926 169.605 102.444 170.031 91.9132C170.438 84.4092 171.382 76.9439 172.853 69.5742C173.235 67.5106 171.031 63.8168 168.848 63.5084Z" fill="#263238"/>
<path d="M172.721 66.7065C175.08 70.2608 177.226 73.8224 179.254 77.5603C180.254 79.4329 181.239 81.3348 182.128 83.3323C182.569 84.331 183.003 85.3517 183.407 86.4312C183.852 87.599 184.197 88.8029 184.436 90.0296C184.617 90.9236 184.657 91.8404 184.553 92.7467C184.433 93.4802 184.244 94.2006 183.987 94.8983C183.568 96.0358 183.054 97.1363 182.451 98.1882C181.37 100.096 180.164 101.931 178.843 103.681C176.301 107.071 173.52 110.276 170.523 113.272C170.177 113.619 169.715 113.826 169.226 113.855C168.736 113.884 168.253 113.732 167.869 113.428C167.484 113.125 167.224 112.69 167.139 112.208C167.054 111.725 167.149 111.229 167.407 110.812V110.768C169.546 107.324 171.706 103.813 173.661 100.333C174.632 98.5995 175.558 96.837 176.3 95.1333C177.042 93.4296 177.586 91.5644 177.204 91.513C176.969 90.7317 176.685 89.9663 176.351 89.2218C175.984 88.3846 175.565 87.5181 175.124 86.6589C174.227 84.9332 173.265 83.1781 172.258 81.4523C170.244 77.9862 168.098 74.4907 165.974 71.1053V71.0612C165.396 70.1673 165.197 69.0805 165.421 68.0401C165.645 66.9996 166.273 66.0907 167.168 65.5132C168.063 64.9357 169.15 64.737 170.192 64.9608C171.233 65.1846 172.143 65.8126 172.721 66.7065Z" fill="#FFC3BD"/>
<path d="M168.149 63.4135C172.882 63.3254 175.388 67.3276 178.49 73.6945C174.977 80.1935 168.274 83.0061 168.274 83.0061C168.274 83.0061 158.844 63.5751 168.149 63.4135Z" fill="#E0E0E0"/>
<path d="M165.724 110.62L162.997 111.486L168.046 115.32C168.046 115.32 172.177 113.175 170.883 111.229L170.045 110.855C168.681 110.253 167.145 110.17 165.724 110.62Z" fill="#FFC3BD"/>
<path d="M161.468 114.85L164.533 117.927C164.632 118.023 164.75 118.098 164.88 118.147C165.01 118.195 165.148 118.216 165.286 118.209C165.424 118.201 165.559 118.165 165.683 118.103C165.806 118.04 165.915 117.953 166.003 117.846L168.039 115.32L162.99 111.486L161.417 113.638C161.272 113.81 161.197 114.029 161.206 114.254C161.216 114.478 161.309 114.691 161.468 114.85Z" fill="#FFC3BD"/>
<path opacity="0.2" d="M153.149 56.3582C153.29 56.9757 153.393 57.601 153.458 58.2308C155.281 58.6935 157.868 56.6079 158.11 54.8381C158.141 54.0616 158.092 53.284 157.963 52.5176L153.149 56.3582Z" fill="black"/>
<path d="M164.526 44.4521C163.284 49.8716 162.843 53.1028 159.507 55.5188C158.415 56.3165 157.131 56.8108 155.786 56.9515C154.442 57.0922 153.083 56.8742 151.85 56.3196C150.617 55.7651 149.553 54.8939 148.766 53.7948C147.98 52.6956 147.499 51.4078 147.372 50.0625C146.946 44.9808 149.048 36.969 154.987 35.5444C160.925 34.1197 165.768 39.0252 164.526 44.4521Z" fill="#FFC3BD"/>
<path d="M162.012 49.1991C160.439 49.2799 158.764 43.7355 162.233 41.0625C161.681 41.3636 160.175 40.8128 160.439 39.7774C159.418 40.2033 154.949 40.0197 156.03 38.2059C153.759 38.7933 148.805 37.8093 148.276 35.643C147.747 33.4766 150.304 33.4032 150.701 33.6896C149.577 32.1181 149.599 29.8122 152.583 28.9751C155.567 28.1379 160.065 32.4485 160.065 32.4485C159.594 31.3103 161.248 30.3924 162.96 31.369C164.673 32.3457 165.474 35.1216 165.474 35.1216C165.474 34.2844 169.472 35.408 167.576 38.9182C169.538 39.6525 170.435 40.6953 170.31 42.5092C170.185 44.323 168.943 44.4258 168.943 44.4258C169.206 45.0789 169.242 45.8011 169.046 46.4772C168.85 47.1534 168.434 47.7445 167.862 48.1563C165.827 49.794 164.048 47.8699 162.012 49.1991Z" fill="#263238"/>
<path d="M165.128 49.6203C164.437 50.631 163.416 51.3707 162.24 51.7132C160.726 52.1171 160.211 50.7659 160.829 49.3559C161.387 48.0855 162.842 46.3377 164.268 46.558C165.694 46.7783 165.981 48.3572 165.128 49.6203Z" fill="#FFC3BD"/>
<path d="M155.538 44.2372C155.464 44.678 155.155 45.0087 154.854 44.9719C154.552 44.9352 154.361 44.5384 154.435 44.0902C154.508 43.642 154.817 43.3555 155.118 43.3555C155.42 43.3555 155.574 43.789 155.538 44.2372Z" fill="#263238"/>
<path d="M150.158 43.2567C150.084 43.7049 149.783 44.0356 149.482 43.9915C149.18 43.9474 148.989 43.558 149.062 43.1098C149.136 42.6616 149.437 42.375 149.739 42.375C150.04 42.375 150.232 42.8159 150.158 43.2567Z" fill="#263238"/>
<path d="M152.282 44.2578C151.499 45.5501 150.542 46.7288 149.438 47.7607C149.724 48.0292 150.064 48.2336 150.435 48.3603C150.806 48.4869 151.2 48.5329 151.591 48.495L152.282 44.2578Z" fill="#ED847E"/>
<path d="M152.546 49.599C153.08 49.5386 153.622 49.5855 154.138 49.7369C154.654 49.8883 155.135 50.1412 155.552 50.4807C155.576 50.5066 155.59 50.5408 155.59 50.5762C155.59 50.6117 155.576 50.6459 155.552 50.6718C155.525 50.6945 155.491 50.707 155.456 50.707C155.421 50.707 155.387 50.6945 155.361 50.6718C154.902 50.3079 154.367 50.0527 153.795 49.9254C153.224 49.7981 152.631 49.8021 152.061 49.937C152.044 49.9413 152.025 49.9421 152.008 49.9392C151.99 49.9363 151.973 49.9298 151.958 49.9202C151.943 49.9106 151.93 49.898 151.92 49.8832C151.91 49.8684 151.903 49.8517 151.899 49.8341C151.895 49.8172 151.894 49.7995 151.897 49.7823C151.9 49.7651 151.907 49.7487 151.916 49.7341C151.926 49.7196 151.939 49.7072 151.953 49.6979C151.968 49.6885 151.985 49.6824 152.002 49.6798C152.181 49.6396 152.363 49.6126 152.546 49.599Z" fill="#263238"/>
<path d="M155.758 41.1789C155.714 41.1907 155.674 41.2135 155.641 41.245C155.615 41.2691 155.595 41.2981 155.581 41.3303C155.567 41.3626 155.56 41.3973 155.56 41.4324C155.56 41.4675 155.567 41.5023 155.581 41.5345C155.595 41.5667 155.615 41.5957 155.641 41.6198C155.927 41.9397 156.286 42.1857 156.688 42.3366C157.09 42.4876 157.522 42.5391 157.948 42.4868C157.984 42.4833 158.018 42.4725 158.049 42.4552C158.08 42.4378 158.107 42.4143 158.128 42.386C158.15 42.3577 158.165 42.3253 158.173 42.2908C158.181 42.2563 158.182 42.2205 158.176 42.1855C158.17 42.1503 158.157 42.1166 158.138 42.0864C158.118 42.0563 158.093 42.0302 158.064 42.0097C158.035 41.9892 158.001 41.9747 157.967 41.9671C157.932 41.9594 157.895 41.9588 157.86 41.9651C157.523 41.9948 157.184 41.9437 156.871 41.8159C156.558 41.6881 156.279 41.4873 156.06 41.2303C156.019 41.195 155.969 41.1715 155.916 41.1624C155.863 41.1533 155.808 41.159 155.758 41.1789Z" fill="#263238"/>
<path d="M148.636 39.8516C148.677 39.8697 148.72 39.879 148.765 39.879C148.809 39.879 148.853 39.8697 148.893 39.8516C149.207 39.6949 149.551 39.6091 149.902 39.6002C150.252 39.5913 150.601 39.6595 150.922 39.8001C150.985 39.8357 151.059 39.8456 151.128 39.8278C151.198 39.8099 151.259 39.7657 151.297 39.7044C151.329 39.6406 151.335 39.5669 151.315 39.4985C151.294 39.4301 151.248 39.3721 151.186 39.3364C150.79 39.1458 150.355 39.0469 149.915 39.0469C149.475 39.0469 149.04 39.1458 148.643 39.3364C148.611 39.3504 148.582 39.3711 148.559 39.397C148.535 39.4229 148.517 39.4535 148.506 39.4868C148.495 39.5201 148.491 39.5554 148.494 39.5904C148.498 39.6253 148.509 39.6592 148.526 39.6897C148.543 39.755 148.582 39.8123 148.636 39.8516Z" fill="#263238"/>
</svg>
