<svg width="506" height="478" viewBox="0 0 506 478" fill="none" xmlns="http://www.w3.org/2000/svg">
<g clip-path="url(#clip0_1262_175303)">
<path d="M250.078 477.4C388.192 477.4 500.155 474.29 500.155 470.453C500.155 466.617 388.192 463.507 250.078 463.507C111.964 463.507 0 466.617 0 470.453C0 474.29 111.964 477.4 250.078 477.4Z" fill="#F5F5F5"/>
<path d="M4.97852 441.394V470.453H11.6936C11.6936 470.453 10.9989 464.665 11.6936 461.307C12.3882 457.834 19.5664 449.035 19.4506 441.509H4.97852V441.394Z" fill="#EBEBEB"/>
<path d="M58.6992 441.394V470.453H65.4143C65.4143 470.453 64.7196 464.665 65.4143 461.307C66.1089 457.834 73.2871 449.035 73.1713 441.509H58.6992V441.394Z" fill="#E0E0E0"/>
<path d="M111.145 441.393V470.453H104.43C104.43 470.453 105.125 464.665 104.43 461.307C103.736 457.834 96.5575 449.035 96.6733 441.509H111.145V441.393Z" fill="#EBEBEB"/>
<path d="M157.571 441.394V470.453H150.856C150.856 470.453 151.551 464.665 150.856 461.307C150.161 457.834 142.983 449.035 143.099 441.509H157.571V441.394Z" fill="#E0E0E0"/>
<path d="M161.045 298.062H0.462891V442.32H161.045V298.062Z" fill="#F5F5F5"/>
<path d="M117.744 298.062L119.018 442.32H161.045V298.062H117.744Z" fill="#E0E0E0"/>
<path d="M110.798 308.714H7.64062V345.415H110.798V308.714Z" fill="#EBEBEB"/>
<path d="M110.798 352.709H7.64062V389.41H110.798V352.709Z" fill="#EBEBEB"/>
<path d="M110.798 396.704H7.64062V433.405H110.798V396.704Z" fill="#EBEBEB"/>
<path d="M47.236 256.614L42.7207 297.947H99.7986L104.43 256.614H47.236Z" fill="#E0E0E0"/>
<path d="M49.5513 259.624L45.2676 295.746H96.6724L100.84 259.624H49.5513Z" fill="white"/>
<path d="M58.2351 265.644L55.5723 289.61H87.9897L89.7264 265.644H58.2351Z" fill="#EBEBEB"/>
<path d="M102.462 274.444L114.155 298.063L99.7988 297.947L102.462 274.444Z" fill="#EBEBEB"/>
<path d="M62.9831 328.975C62.9831 331.059 61.2464 332.796 59.1624 332.796C57.0784 332.796 55.3418 331.059 55.3418 328.975C55.3418 326.891 57.0784 325.154 59.1624 325.154C61.3622 325.154 62.9831 326.891 62.9831 328.975Z" fill="#E0E0E0"/>
<path d="M62.9831 373.433C62.9831 375.517 61.2464 377.254 59.1624 377.254C57.0784 377.254 55.3418 375.517 55.3418 373.433C55.3418 371.349 57.0784 369.612 59.1624 369.612C61.3622 369.612 62.9831 371.349 62.9831 373.433Z" fill="#E0E0E0"/>
<path d="M62.9831 417.891C62.9831 419.975 61.2464 421.712 59.1624 421.712C57.0784 421.712 55.3418 419.975 55.3418 417.891C55.3418 415.807 57.0784 414.07 59.1624 414.07C61.3622 414.07 62.9831 415.807 62.9831 417.891Z" fill="#E0E0E0"/>
<path d="M110.683 63.6149L19.5664 62.8045L22.1135 181.476L113.114 181.823L110.683 63.6149Z" fill="#E0E0E0"/>
<path d="M104.778 68.9402L25.0078 66.8562L27.3233 174.529L107.093 175.455L104.778 68.9402Z" fill="#FAFAFA"/>
<path d="M91.1164 85.0344L38.3223 84.1082L39.8274 159.363L92.7373 158.205L91.1164 85.0344Z" fill="#EBEBEB"/>
<path d="M39.8274 159.363L91.9269 119.536L38.3223 84.1082L39.8274 159.363Z" fill="#F5F5F5"/>
<path d="M502.47 1.78972L422.584 0.979279L424.784 105.178L504.67 105.41L502.47 1.78972Z" fill="#E0E0E0"/>
<path d="M497.376 6.42058L427.447 4.56815L429.415 99.0419L499.345 99.8524L497.376 6.42058Z" fill="#FAFAFA"/>
<path d="M485.334 20.5456L439.023 19.7351L440.413 85.7279L486.723 84.8016L485.334 20.5456Z" fill="#EBEBEB"/>
<path d="M440.413 85.7279L486.029 50.8791L439.023 19.7351L440.413 85.7279Z" fill="#F5F5F5"/>
<path d="M412.976 393.23C412.629 394.272 424.554 439.541 424.554 439.541L432.774 437.804L421.544 393.23H412.976Z" fill="#EBEBEB"/>
<path d="M476.307 386.748L459.982 439.542H469.476L485.222 390.453L476.307 386.748Z" fill="#F5F5F5"/>
<path d="M491.357 378.643L472.602 439.542H482.095L500.156 382.348L491.357 378.643Z" fill="#EBEBEB"/>
<path d="M418.766 435.838L428.259 468.834H476.307L485.221 435.838H418.766Z" fill="#E0E0E0"/>
<path d="M443.54 435.837C443.54 435.837 443.54 435.721 443.425 435.489C443.309 435.258 443.309 434.911 443.193 434.447C442.961 433.521 442.614 432.248 442.267 430.511C441.456 427.038 440.414 422.175 439.025 416.039C436.246 403.767 432.542 386.863 428.258 367.992L428.605 368.223C427.216 368.223 425.826 368.223 424.321 368.223C422.932 368.223 421.427 368.223 420.153 368.223L420.501 367.876C424.784 386.747 428.605 403.767 431.384 416.039C432.773 422.175 433.815 427.038 434.625 430.511C434.973 432.132 435.204 433.521 435.436 434.447C435.552 434.911 435.552 435.258 435.667 435.489C435.667 435.721 435.783 435.837 435.667 435.837C435.667 435.837 435.668 435.721 435.552 435.489C435.436 435.258 435.436 434.911 435.32 434.447C435.089 433.521 434.741 432.248 434.394 430.511C433.584 427.038 432.426 422.175 431.036 416.039C428.258 403.767 424.321 386.863 420.038 367.992L419.922 367.644H420.269C421.543 367.644 423.048 367.644 424.437 367.644C425.942 367.644 427.332 367.644 428.721 367.644H428.952V367.876C433.12 386.747 436.825 403.767 439.604 416.039C440.877 422.175 442.035 427.038 442.73 430.511C443.077 432.132 443.309 433.521 443.54 434.447C443.656 434.911 443.656 435.258 443.772 435.489C443.54 435.721 443.54 435.837 443.54 435.837Z" fill="#E0E0E0"/>
<path d="M458.822 154.151C458.822 154.151 458.591 154.036 458.012 153.92C457.433 153.804 456.623 153.688 455.465 153.92C454.423 154.151 453.149 154.73 451.76 155.772C450.486 156.814 449.213 158.319 448.055 160.056C445.74 163.645 443.771 168.739 441.687 174.528C439.603 180.433 437.172 187.148 435.204 194.905C434.857 195.484 434.393 196.063 433.815 196.526C433.236 196.989 432.541 197.336 431.731 197.22C430.92 197.105 430.341 196.641 429.762 196.063C429.184 195.599 428.72 195.021 428.257 194.442C427.215 193.4 426.173 192.242 425.016 191.316C423.858 190.389 422.468 189.463 420.963 189.695C419.458 189.926 418.069 190.853 417.259 192.126C416.448 193.515 416.101 195.136 415.985 196.757C415.753 200.115 416.795 203.356 417.374 206.83C418.069 210.303 418.648 213.892 419.343 217.481C419.69 219.334 420.037 221.186 420.384 223.039C420.5 223.965 420.732 224.891 420.848 225.817C421.079 226.743 421.195 227.901 420.5 228.827C420.153 229.29 419.458 229.522 418.995 229.406C418.416 229.29 418.069 228.943 417.606 228.712C416.795 228.133 416.101 227.554 415.29 226.975C413.669 225.817 412.049 224.659 410.428 223.617C408.691 222.575 406.839 221.765 404.986 221.302C404.06 221.07 403.018 221.07 402.092 221.302C401.166 221.533 400.355 222.112 399.66 222.923C398.503 224.544 398.155 226.628 398.155 228.712C398.155 230.796 398.387 232.88 398.734 234.964C399.545 239.131 400.818 243.299 402.208 247.467C402.555 248.509 403.018 249.551 403.25 250.709C403.365 251.288 403.25 251.983 402.786 252.446C402.671 252.562 402.555 252.677 402.439 252.793C402.323 252.909 402.208 253.025 401.976 253.025C401.513 253.14 401.281 252.909 400.934 252.793C399.892 252.214 399.082 251.404 398.271 250.709C397.461 249.899 396.65 249.204 395.84 248.394C394.219 246.889 392.482 245.383 390.63 244.11C389.704 243.531 388.662 242.952 387.62 242.721C386.578 242.373 385.42 242.489 384.494 243.068C383.568 243.647 382.989 244.689 382.757 245.731C382.526 246.773 382.294 247.93 382.294 249.088C382.294 251.404 382.641 253.719 383.22 256.035C384.262 260.666 386.115 265.065 388.199 269.349C390.398 273.633 392.945 277.801 395.724 281.853C396.998 283.937 398.734 285.789 400.239 287.642C401.744 289.61 403.365 291.463 404.986 293.431V293.547L404.755 293.431C407.186 293.083 409.617 292.736 412.164 292.389C414.596 292.041 417.027 291.81 419.458 291.115C424.205 290.073 428.952 288.684 433.351 286.947C437.867 285.211 442.151 283.127 445.971 280.464C447.939 279.19 449.676 277.685 451.297 275.948C452.107 275.138 452.802 274.212 453.265 273.17C453.844 272.128 454.076 271.086 453.728 270.044C453.497 269.002 452.686 268.191 451.644 267.728C450.718 267.265 449.56 266.918 448.518 266.686C446.318 266.339 444.003 266.223 441.803 266.339C440.645 266.339 439.488 266.339 438.446 266.339C437.288 266.339 436.246 266.339 434.972 266.107C434.741 265.992 434.393 265.992 434.046 265.644C433.93 265.413 433.93 265.297 433.93 265.181C433.93 265.065 433.93 264.834 433.93 264.718C433.93 264.023 434.393 263.445 434.857 263.097C435.783 262.287 436.825 261.939 437.751 261.361C441.687 259.277 445.392 257.077 448.75 254.53C450.486 253.256 451.992 251.867 453.381 250.246C454.77 248.741 455.928 246.889 456.159 244.92C456.275 243.878 456.044 242.952 455.465 242.142C454.886 241.331 454.191 240.637 453.265 240.173C451.528 239.131 449.56 238.553 447.708 238.205C445.74 237.742 443.771 237.511 441.803 237.395C440.877 237.279 439.835 237.163 438.909 237.163C438.446 237.163 437.867 237.047 437.404 236.816C436.941 236.584 436.477 236.006 436.593 235.427C436.709 234.269 437.635 233.574 438.33 232.995C439.14 232.416 439.835 231.838 440.645 231.259C442.151 230.101 443.656 228.943 445.161 227.901C448.055 225.701 450.95 223.502 453.728 221.418C456.507 219.218 459.401 217.365 461.485 214.818C462.527 213.545 463.338 212.155 463.569 210.535C463.801 209.03 463.453 207.293 462.527 206.251C462.064 205.672 461.369 205.325 460.675 205.093C459.98 204.862 459.17 204.746 458.475 204.746C456.97 204.63 455.465 204.746 453.96 204.862C453.265 204.862 452.455 204.977 451.76 204.977C451.065 204.977 450.255 204.977 449.56 204.514C448.866 204.051 448.518 203.356 448.402 202.546C448.287 201.851 448.402 201.157 448.518 200.346C452.223 193.284 455.002 186.685 457.433 180.896C459.749 175.107 461.717 170.129 462.411 165.845C462.759 163.761 462.875 161.793 462.643 160.172C462.411 158.551 461.948 157.277 461.254 156.351C460.675 155.425 459.98 154.846 459.517 154.614C459.054 154.383 458.707 154.267 458.707 154.267C458.707 154.267 459.054 154.267 459.517 154.614C459.98 154.846 460.675 155.425 461.369 156.351C462.064 157.277 462.527 158.667 462.759 160.288C462.99 161.908 462.875 163.877 462.527 165.961C461.833 170.244 459.864 175.223 457.549 181.012C455.233 186.8 452.455 193.4 448.75 200.578C448.634 201.272 448.518 201.967 448.634 202.546C448.75 203.241 448.981 203.82 449.56 204.167C450.139 204.514 450.834 204.63 451.528 204.63C452.223 204.63 452.918 204.514 453.728 204.514C455.233 204.398 456.738 204.283 458.243 204.398C459.054 204.398 459.749 204.514 460.559 204.746C461.369 204.977 462.064 205.325 462.643 206.019C463.685 207.293 464.148 209.03 463.801 210.65C463.569 212.271 462.643 213.776 461.601 215.166C459.517 217.829 456.507 219.681 453.728 221.881C450.95 223.965 448.055 226.164 445.161 228.48C443.656 229.638 442.266 230.68 440.761 231.838C440.067 232.416 439.256 232.995 438.446 233.574C438.098 233.922 437.635 234.153 437.404 234.5C437.172 234.848 436.941 235.311 436.825 235.658C436.825 236.121 436.941 236.353 437.404 236.584C437.751 236.816 438.214 236.816 438.677 236.932C439.603 237.047 440.645 237.163 441.572 237.163C443.54 237.395 445.508 237.626 447.476 237.974C449.444 238.437 451.413 239.016 453.265 240.058C454.191 240.637 455.002 241.331 455.581 242.142C456.159 243.068 456.507 244.226 456.391 245.268C456.16 247.467 454.886 249.32 453.497 250.941C452.107 252.562 450.486 253.951 448.75 255.224C445.276 257.887 441.572 260.087 437.635 262.171C436.709 262.75 435.667 263.097 434.857 263.792C434.509 264.139 434.162 264.487 434.162 265.065C434.162 265.181 434.162 265.297 434.162 265.413C434.162 265.529 434.162 265.76 434.278 265.76C434.278 265.876 434.625 265.992 434.857 265.992C435.899 266.223 437.056 266.223 438.098 266.223C439.256 266.223 440.298 266.223 441.456 266.223C443.771 266.223 445.971 266.223 448.287 266.686C449.444 266.918 450.602 267.149 451.644 267.728C452.686 268.307 453.612 269.233 453.96 270.507C454.307 271.78 453.96 273.054 453.381 274.096C452.802 275.138 452.107 276.18 451.297 276.99C449.676 278.727 447.824 280.232 445.855 281.622C441.919 284.4 437.519 286.368 433.004 288.105C428.489 289.842 423.742 291.231 418.995 292.273C416.564 292.968 414.133 293.083 411.701 293.547C409.27 293.894 406.839 294.241 404.292 294.589H404.176L404.06 294.473V294.357C402.439 292.389 400.934 290.536 399.313 288.568C397.808 286.6 396.071 284.863 394.798 282.779C392.019 278.727 389.472 274.559 387.272 270.275C385.073 265.992 383.22 261.476 382.178 256.845C381.599 254.53 381.252 252.214 381.252 249.783C381.252 248.625 381.368 247.352 381.715 246.194C382.062 245.036 382.641 243.878 383.683 243.184C384.725 242.489 386.115 242.373 387.272 242.721C388.43 243.068 389.472 243.531 390.514 244.226C392.482 245.499 394.219 247.004 395.84 248.509C396.65 249.32 397.461 250.014 398.271 250.825C399.082 251.52 399.892 252.33 400.818 252.909C401.05 253.025 401.281 253.14 401.397 253.14L401.629 253.025C401.744 252.909 401.86 252.909 401.86 252.793C402.208 252.446 402.208 251.983 402.208 251.404C402.092 250.362 401.629 249.32 401.281 248.278C399.776 244.11 398.503 239.942 397.692 235.658C397.345 233.574 396.998 231.374 397.113 229.29C397.113 227.206 397.461 224.891 398.85 223.154C399.545 222.228 400.471 221.649 401.513 221.418C402.555 221.186 403.597 221.186 404.639 221.418C406.723 221.881 408.575 222.807 410.312 223.733C412.049 224.775 413.669 225.933 415.29 227.091C416.101 227.67 416.911 228.248 417.606 228.827C417.953 229.059 418.416 229.406 418.764 229.406C419.227 229.522 419.574 229.406 419.806 229.059C420.037 228.712 420.153 228.248 420.153 227.901C420.153 227.438 420.037 226.975 420.037 226.512C419.921 225.586 419.69 224.659 419.574 223.733C419.227 221.881 418.879 220.028 418.532 218.176C417.837 214.587 417.259 210.998 416.564 207.524C415.985 204.051 415.059 200.694 415.29 197.336C415.406 195.599 415.753 193.979 416.68 192.473C417.606 191.084 419.111 190.042 420.732 189.811C421.542 189.695 422.353 189.926 423.163 190.274C423.858 190.621 424.552 191.084 425.131 191.547C426.289 192.589 427.331 193.631 428.373 194.673C428.836 195.252 429.415 195.715 429.878 196.178C430.457 196.641 430.92 197.105 431.615 197.22C432.309 197.336 432.888 196.989 433.467 196.641C433.93 196.178 434.393 195.715 434.741 195.136C436.709 187.379 439.14 180.548 441.34 174.76C443.54 168.855 445.392 163.877 447.824 160.288C449.097 158.551 450.255 157.046 451.644 156.004C452.918 154.962 454.307 154.383 455.349 154.151C456.507 153.92 457.317 154.036 457.896 154.151C458.591 154.036 458.822 154.151 458.822 154.151Z" fill="#263238"/>
<path d="M452.803 170.013C452.803 170.013 452.803 170.129 452.687 170.361C452.572 170.592 452.456 170.939 452.34 171.403C451.993 172.445 451.414 173.834 450.719 175.571C449.33 179.16 447.362 184.485 444.814 190.853C439.836 203.82 433.121 221.65 425.596 241.332C418.07 261.129 411.239 278.959 406.145 291.81C403.598 298.294 401.514 303.504 400.125 306.977C399.43 308.714 398.851 310.103 398.388 311.145C398.156 311.608 398.041 311.955 397.925 312.187C397.809 312.419 397.809 312.534 397.693 312.534C397.693 312.534 397.693 312.419 397.809 312.187C397.925 311.955 398.041 311.608 398.156 311.145C398.504 310.103 399.083 308.714 399.777 306.977C401.167 303.388 403.135 298.062 405.682 291.695C410.66 278.728 417.375 260.898 424.901 241.216C432.426 221.534 439.257 203.588 444.351 190.737C446.898 184.254 448.982 179.044 450.372 175.571C451.066 173.834 451.645 172.445 452.108 171.403C452.34 170.939 452.456 170.592 452.572 170.361C452.687 170.129 452.803 169.897 452.803 170.013Z" fill="#263238"/>
<path d="M453.38 209.955C453.38 210.071 452.338 210.65 450.486 211.692C448.517 212.849 446.086 214.123 443.423 215.628C440.645 217.133 438.098 218.522 436.245 219.449C434.393 220.375 433.235 220.838 433.119 220.838C433.119 220.722 434.161 220.143 436.014 219.101C437.982 217.944 440.413 216.67 443.076 215.049C445.855 213.544 448.402 212.155 450.254 211.229C452.222 210.302 453.38 209.839 453.38 209.955Z" fill="#263238"/>
<path d="M432.194 220.028C432.079 220.144 429.3 214.818 426.058 208.335C422.816 201.735 420.269 196.41 420.501 196.294C420.617 196.178 423.395 201.504 426.637 207.987C429.879 214.587 432.426 220.028 432.194 220.028Z" fill="#263238"/>
<path d="M422.12 250.941C422.12 250.941 421.078 250.13 419.573 248.625C418.068 247.12 416.1 245.036 414.016 242.489C411.932 240.058 410.195 237.626 408.922 235.89C407.648 234.153 406.953 232.995 407.069 232.995C407.185 232.995 407.995 233.921 409.269 235.658C410.542 237.279 412.395 239.594 414.479 242.026C416.563 244.457 418.531 246.657 419.92 248.278C421.31 249.899 422.12 250.825 422.12 250.941Z" fill="#263238"/>
<path d="M443.308 245.962C443.308 246.077 442.15 246.425 440.297 246.888C438.445 247.351 435.782 247.93 432.888 248.625C429.993 249.319 427.33 249.782 425.362 250.245C423.394 250.709 422.236 250.824 422.236 250.709C422.236 250.593 423.394 250.245 425.246 249.782C427.099 249.319 429.762 248.74 432.656 248.046C435.551 247.351 438.214 246.888 440.182 246.425C442.15 245.962 443.308 245.846 443.308 245.962Z" fill="#263238"/>
<path d="M437.75 274.327C437.75 274.443 436.245 274.79 433.814 275.369C431.383 275.948 428.025 276.643 424.205 277.453C420.5 278.264 417.026 278.958 414.595 279.422C412.164 279.885 410.543 280.116 410.543 280C410.543 279.885 412.048 279.537 414.479 278.958C416.911 278.38 420.268 277.685 424.089 276.874C427.794 276.064 431.267 275.369 433.698 274.906C436.245 274.443 437.75 274.212 437.75 274.327Z" fill="#263238"/>
<path d="M411.238 279.769C411.238 279.769 410.89 279.538 410.311 278.959C409.733 278.38 409.038 277.685 408.112 276.643C406.259 274.675 403.828 271.896 401.281 268.655C398.734 265.413 396.534 262.403 394.913 260.203C394.103 259.045 393.524 258.235 393.177 257.54C392.713 256.961 392.598 256.498 392.598 256.498C392.598 256.498 392.945 256.845 393.408 257.424C393.987 258.119 394.566 258.929 395.376 259.971C396.997 262.171 399.313 265.066 401.86 268.307C404.407 271.549 406.838 274.328 408.575 276.412C410.196 278.38 411.353 279.653 411.238 279.769Z" fill="#263238"/>
<path d="M399.661 357.223C379.516 341.014 376.621 313.344 379.169 288.799C379.632 284.747 379.4 280.347 381.6 276.874C383.8 273.401 388.546 271.201 392.136 273.285C395.146 274.906 396.188 278.611 397.693 281.621C399.661 285.673 402.903 289.147 406.723 291.462C409.27 292.967 412.396 294.009 415.059 292.851C418.764 291.115 419.459 286.252 419.69 282.2C420.153 274.559 420.617 266.917 421.08 259.392C421.311 255.34 421.659 251.172 423.164 247.351C424.669 243.53 427.795 240.173 431.731 239.363C435.668 238.552 440.299 241.099 440.877 245.151C441.109 246.888 440.646 248.509 440.646 250.246C440.646 251.982 441.341 253.835 442.846 254.413C444.467 254.992 446.203 253.95 447.477 252.793C451.992 248.972 455.234 243.878 458.244 238.784C461.254 233.689 464.264 228.48 468.432 224.196C472.6 219.912 478.158 216.786 483.946 216.786C489.851 216.902 495.756 220.954 496.913 226.743C497.955 232.647 494.251 238.205 490.314 242.604C484.41 249.204 477.579 254.877 470.053 259.392C468.664 260.202 467.275 261.129 466.696 262.634C465.654 265.297 467.969 268.191 470.632 269.233C473.642 270.506 476.884 270.391 480.126 270.97C483.252 271.548 486.609 273.169 487.651 276.295C489.041 280.579 485.22 284.747 481.631 287.41C474.337 292.736 466.233 296.672 457.549 299.219C454.423 300.145 451.182 300.84 448.635 302.808C446.087 304.776 444.351 308.365 445.624 311.26C446.898 314.27 450.603 315.428 453.729 315.08C456.97 314.733 459.865 313.228 462.875 312.302C468.664 310.565 475.842 311.491 479.084 316.586C481.284 319.943 481.168 324.343 479.663 328.163C478.158 331.868 475.611 334.994 472.832 337.889C463.107 347.845 450.95 355.487 437.636 359.191C424.437 362.549 412.281 362.896 399.661 357.223Z" fill="#2AC6FA"/>
<g opacity="0.1">
<path d="M399.661 357.223C379.516 341.014 376.621 313.344 379.169 288.799C379.632 284.747 379.4 280.347 381.6 276.874C383.8 273.401 388.546 271.201 392.136 273.285C395.146 274.906 396.188 278.611 397.693 281.621C399.661 285.673 402.903 289.147 406.723 291.462C409.27 292.967 412.396 294.009 415.059 292.851C418.764 291.115 419.459 286.252 419.69 282.2C420.153 274.559 420.617 266.917 421.08 259.392C421.311 255.34 421.659 251.172 423.164 247.351C424.669 243.53 427.795 240.173 431.731 239.363C435.668 238.552 440.299 241.099 440.877 245.151C441.109 246.888 440.646 248.509 440.646 250.246C440.646 251.982 441.341 253.835 442.846 254.413C444.467 254.992 446.203 253.95 447.477 252.793C451.992 248.972 455.234 243.878 458.244 238.784C461.254 233.689 464.264 228.48 468.432 224.196C472.6 219.912 478.158 216.786 483.946 216.786C489.851 216.902 495.756 220.954 496.913 226.743C497.955 232.647 494.251 238.205 490.314 242.604C484.41 249.204 477.579 254.877 470.053 259.392C468.664 260.202 467.275 261.129 466.696 262.634C465.654 265.297 467.969 268.191 470.632 269.233C473.642 270.506 476.884 270.391 480.126 270.97C483.252 271.548 486.609 273.169 487.651 276.295C489.041 280.579 485.22 284.747 481.631 287.41C474.337 292.736 466.233 296.672 457.549 299.219C454.423 300.145 451.182 300.84 448.635 302.808C446.087 304.776 444.351 308.365 445.624 311.26C446.898 314.27 450.603 315.428 453.729 315.08C456.97 314.733 459.865 313.228 462.875 312.302C468.664 310.565 475.842 311.491 479.084 316.586C481.284 319.943 481.168 324.343 479.663 328.163C478.158 331.868 475.611 334.994 472.832 337.889C463.107 347.845 450.95 355.487 437.636 359.191C424.437 362.549 412.281 362.896 399.661 357.223Z" fill="black"/>
</g>
<path d="M398.041 375.516C399.546 365.79 402.556 354.444 407.072 342.288C411.587 330.131 417.607 317.164 424.322 303.85C426.059 300.492 427.68 297.251 429.301 294.009C430.922 290.767 432.658 287.641 434.395 284.515C437.984 278.495 441.92 272.822 445.741 267.727C449.562 262.518 453.498 257.771 457.087 253.371C460.792 248.972 464.265 244.92 467.507 241.33C474.106 234.152 480.242 229.058 484.526 225.701C486.61 223.964 488.347 222.806 489.505 221.88C490.083 221.533 490.547 221.185 490.894 220.954C490.547 221.185 490.199 221.533 489.62 221.996C488.463 222.922 486.842 224.195 484.758 225.816C480.59 229.29 474.569 234.384 467.97 241.562C464.613 245.151 461.255 249.203 457.55 253.603C453.961 258.002 450.141 262.865 446.204 267.959C442.383 273.169 438.447 278.726 434.974 284.747C433.237 287.757 431.5 290.883 429.88 294.125C428.259 297.366 426.522 300.608 424.901 303.966C418.186 317.28 412.166 330.131 407.651 342.288C403.135 354.444 400.125 365.675 398.504 375.4" fill="#263238"/>
<path d="M434.625 284.515C434.625 284.515 434.509 283.936 434.393 282.779C434.278 281.621 434.162 280 433.93 277.916C433.583 273.864 433.467 268.075 433.236 261.823C433.004 255.571 432.772 249.898 432.309 245.73C432.078 243.646 431.962 242.025 431.846 240.867C431.73 239.71 431.73 239.131 431.73 239.131C431.73 239.131 431.962 239.71 432.078 240.867C432.309 242.025 432.541 243.646 432.772 245.73C433.236 249.782 433.699 255.455 433.93 261.823C434.162 267.959 434.278 273.632 434.393 277.916C434.509 279.884 434.509 281.505 434.625 282.779C434.741 283.936 434.741 284.515 434.625 284.515Z" fill="#263238"/>
<path d="M487.882 278.379C487.882 278.379 487.072 278.495 485.798 278.495C484.409 278.495 482.441 278.495 480.009 278.611C475.147 278.842 468.432 279.305 461.138 280.116C453.728 281.042 447.129 282.084 442.382 283.01C439.951 283.473 438.098 283.821 436.709 284.168C435.435 284.399 434.625 284.631 434.625 284.515C434.625 284.515 435.32 284.284 436.593 283.821C437.867 283.473 439.835 283.01 442.15 282.431C446.897 281.389 453.497 280.231 460.906 279.305C468.316 278.379 475.031 278.032 479.894 277.916C482.325 277.916 484.293 277.916 485.683 278.032C487.188 278.263 487.882 278.263 487.882 278.379Z" fill="#263238"/>
<path d="M407.766 341.362C407.766 341.362 407.65 341.13 407.419 340.667C407.187 340.088 406.956 339.509 406.608 338.699C405.914 336.962 405.103 334.531 403.946 331.405C401.862 325.269 399.199 316.585 396.304 306.976C393.526 297.367 390.863 288.683 388.895 282.547C387.968 279.537 387.158 276.99 386.463 275.137C386.232 274.327 386 273.632 385.884 273.169C385.769 272.706 385.653 272.475 385.769 272.475C385.769 272.475 385.884 272.706 386.116 273.169C386.348 273.748 386.579 274.327 386.926 275.137C387.621 276.874 388.432 279.305 389.589 282.431C391.673 288.568 394.336 297.251 397.231 306.86C400.009 316.47 402.672 325.153 404.64 331.289C405.566 334.299 406.377 336.846 407.072 338.699C407.303 339.509 407.535 340.204 407.65 340.667C407.766 341.13 407.766 341.362 407.766 341.362Z" fill="#263238"/>
<path d="M479.199 323.648C479.199 323.648 478.968 323.764 478.505 323.88C477.926 323.996 477.231 324.227 476.421 324.459C474.452 324.922 471.905 325.617 468.779 326.311C462.296 327.932 453.497 330.248 443.656 332.795C433.815 335.342 424.9 337.657 418.417 339.162C415.175 339.857 412.512 340.436 410.66 340.783C409.849 340.899 409.154 341.131 408.576 341.131C408.112 341.246 407.881 341.246 407.881 341.246C407.881 341.246 408.112 341.131 408.576 341.015C409.154 340.899 409.849 340.668 410.66 340.436C412.628 339.973 415.175 339.278 418.301 338.584C424.784 336.963 433.699 334.647 443.424 332.1C453.265 329.553 462.18 327.237 468.664 325.732C471.905 325.038 474.568 324.459 476.421 324.111C477.231 323.996 477.926 323.764 478.505 323.764C478.852 323.648 479.084 323.648 479.199 323.648Z" fill="#263238"/>
<path d="M404.292 37.6807H123.533V422.407H404.292V37.6807Z" fill="#455A64"/>
<path d="M393.293 399.483H341.193H146.92V53.1944H393.293V356.414V399.483Z" fill="#E0E0E0"/>
<path d="M389.356 393.115H337.835H145.299V48.6795H389.356V350.278V393.115Z" fill="#EBEBEB"/>
<path d="M363.077 366.255L335.059 389.179H140.67V49.4902H387.043V346.921L363.077 366.255Z" fill="#FAFAFA"/>
<path d="M363.076 366.255C363.076 366.255 363.539 365.792 364.581 364.981C365.623 364.171 367.128 362.897 369.096 361.277C373.149 358.035 379.053 353.172 386.926 346.804V346.92C386.926 298.062 386.81 189.464 386.695 49.4899L386.926 49.7215C313.639 49.7215 230.512 49.7215 142.753 49.7215C142.058 49.7215 141.248 49.7215 140.553 49.7215L140.901 49.3741C140.901 177.076 140.901 294.821 140.785 389.063L140.553 388.831C229.238 388.947 297.315 388.947 334.827 388.947H334.711C344.089 381.306 351.151 375.633 355.782 371.812C358.098 369.96 359.834 368.455 361.108 367.528C362.497 366.718 363.076 366.255 363.076 366.255C363.076 366.255 362.497 366.718 361.339 367.76C360.182 368.686 358.445 370.191 356.13 372.044C351.498 375.864 344.436 381.653 335.058 389.294C297.546 389.294 229.47 389.41 140.785 389.41H140.553V389.179C140.553 295.052 140.553 177.192 140.438 49.4899V49.1426H140.785C141.479 49.1426 142.174 49.1426 142.985 49.1426C230.743 49.1426 313.755 49.1426 387.158 49.1426H387.389V49.3741C387.273 189.348 387.273 297.947 387.158 346.804C379.285 353.172 373.264 358.035 369.328 361.277C367.36 362.897 365.855 364.055 364.813 364.866C363.655 365.908 363.076 366.255 363.076 366.255Z" fill="#263238"/>
<path d="M314.334 60.3721H213.492V42.8898C213.492 33.3961 221.133 25.7549 230.627 25.7549H298.009C307.04 25.7549 314.449 33.0488 314.449 42.1952V60.3721H314.334Z" fill="#2AC6FA"/>
<path d="M238.267 25.7553L234.562 7.11523H292.567L289.325 25.7553H238.267Z" fill="#2AC6FA"/>
<path d="M207.934 145.122H166.486V103.674H207.934V145.122ZM167.644 143.964H206.777V104.832H167.644V143.964Z" fill="#2AC6FA"/>
<path d="M354.624 113.631C354.624 113.746 325.795 113.978 290.136 113.978C254.477 113.978 225.648 113.862 225.648 113.631C225.648 113.515 254.477 113.283 290.136 113.283C325.68 113.399 354.624 113.515 354.624 113.631Z" fill="#263238"/>
<path d="M354.624 122.314C354.624 122.43 325.795 122.661 290.136 122.661C254.477 122.661 225.648 122.546 225.648 122.314C225.648 122.198 254.477 121.967 290.136 121.967C325.68 121.967 354.624 122.083 354.624 122.314Z" fill="#263238"/>
<path d="M354.624 130.881C354.624 130.997 325.795 131.229 290.136 131.229C254.477 131.229 225.648 131.113 225.648 130.881C225.648 130.766 254.477 130.534 290.136 130.534C325.68 130.534 354.624 130.766 354.624 130.881Z" fill="#263238"/>
<path d="M354.624 139.564C354.624 139.68 325.795 139.911 290.136 139.911C254.477 139.911 225.648 139.796 225.648 139.564C225.648 139.333 254.477 139.217 290.136 139.217C325.68 139.217 354.624 139.333 354.624 139.564Z" fill="#263238"/>
<path d="M207.934 209.029H166.486V167.581H207.934V209.029ZM167.644 207.872H206.777V168.739H167.644V207.872Z" fill="#2AC6FA"/>
<path d="M174.707 189.232L180.264 183.211L189.411 190.621L210.482 170.244L215.46 176.149L189.063 202.199L174.707 189.232Z" fill="#2AC6FA"/>
<path d="M354.624 177.538C354.624 177.654 325.795 177.885 290.136 177.885C254.477 177.885 225.648 177.77 225.648 177.538C225.648 177.307 254.477 177.191 290.136 177.191C325.68 177.307 354.624 177.422 354.624 177.538Z" fill="#263238"/>
<path d="M354.624 186.222C354.624 186.337 325.795 186.569 290.136 186.569C254.477 186.569 225.648 186.453 225.648 186.222C225.648 185.99 254.477 185.874 290.136 185.874C325.68 185.874 354.624 186.106 354.624 186.222Z" fill="#263238"/>
<path d="M354.624 194.789C354.624 194.905 325.795 195.136 290.136 195.136C254.477 195.136 225.648 195.02 225.648 194.789C225.648 194.557 254.477 194.441 290.136 194.441C325.68 194.557 354.624 194.673 354.624 194.789Z" fill="#263238"/>
<path d="M354.624 203.473C354.624 203.588 325.795 203.82 290.136 203.82C254.477 203.82 225.648 203.704 225.648 203.473C225.648 203.357 254.477 203.125 290.136 203.125C325.68 203.125 354.624 203.241 354.624 203.473Z" fill="#263238"/>
<path d="M207.934 270.97H166.486V229.521H207.934V270.97ZM167.644 269.812H206.777V230.679H167.644V269.812Z" fill="#2AC6FA"/>
<path d="M174.707 251.056L180.264 245.151L189.411 252.445L210.482 232.068L215.46 237.973L189.063 264.138L174.707 251.056Z" fill="#2AC6FA"/>
<path d="M354.624 239.478C354.624 239.594 325.795 239.826 290.136 239.826C254.477 239.826 225.648 239.71 225.648 239.478C225.648 239.247 254.477 239.131 290.136 239.131C325.68 239.131 354.624 239.363 354.624 239.478Z" fill="#263238"/>
<path d="M354.624 248.046C354.624 248.162 325.795 248.393 290.136 248.393C254.477 248.393 225.648 248.277 225.648 248.046C225.648 247.814 254.477 247.698 290.136 247.698C325.68 247.814 354.624 247.93 354.624 248.046Z" fill="#263238"/>
<path d="M354.624 256.729C354.624 256.845 325.795 257.076 290.136 257.076C254.477 257.076 225.648 256.961 225.648 256.729C225.648 256.613 254.477 256.382 290.136 256.382C325.68 256.382 354.624 256.497 354.624 256.729Z" fill="#263238"/>
<path d="M354.624 265.296C354.624 265.411 325.795 265.643 290.136 265.643C254.477 265.643 225.648 265.527 225.648 265.296C225.648 265.18 254.477 264.948 290.136 264.948C325.68 265.064 354.624 265.18 354.624 265.296Z" fill="#263238"/>
<path d="M207.934 330.711H166.486V289.263H207.934V330.711ZM167.644 329.553H206.777V290.42H167.644V329.553Z" fill="#2AC6FA"/>
<path d="M174.707 310.797L180.264 304.892L189.411 312.186L210.482 291.81L215.46 297.714L189.063 323.88L174.707 310.797Z" fill="#2AC6FA"/>
<path d="M354.624 299.219C354.624 299.335 325.795 299.567 290.136 299.567C254.477 299.567 225.648 299.451 225.648 299.219C225.648 298.988 254.477 298.872 290.136 298.872C325.68 298.872 354.624 299.104 354.624 299.219Z" fill="#263238"/>
<path d="M354.624 307.787C354.624 307.903 325.795 308.134 290.136 308.134C254.477 308.134 225.648 308.019 225.648 307.787C225.648 307.555 254.477 307.44 290.136 307.44C325.68 307.555 354.624 307.671 354.624 307.787Z" fill="#263238"/>
<path d="M354.624 316.47C354.624 316.586 325.795 316.818 290.136 316.818C254.477 316.818 225.648 316.702 225.648 316.47C225.648 316.239 254.477 316.123 290.136 316.123C325.68 316.123 354.624 316.354 354.624 316.47Z" fill="#263238"/>
<path d="M354.624 325.037C354.624 325.153 325.795 325.384 290.136 325.384C254.477 325.384 225.648 325.268 225.648 325.037C225.648 324.805 254.477 324.689 290.136 324.689C325.68 324.805 354.624 324.921 354.624 325.037Z" fill="#263238"/>
<path d="M342.699 332.911L315.723 388.831H335.057L342.699 332.911Z" fill="#E0E0E0"/>
<path d="M335.057 389.179L342.698 333.259L387.04 346.92L335.057 389.179Z" fill="#FAFAFA"/>
<path d="M335.057 389.178C336.099 388.252 340.961 384.316 349.992 376.906C359.254 369.38 372.105 358.729 386.925 346.688L387.04 347.151C381.599 345.415 375.81 343.678 369.905 341.825C360.296 338.815 351.15 336.037 342.698 333.374L343.045 333.142C340.73 349.351 338.761 363.244 337.372 373.201C335.867 382.926 335.172 387.905 335.057 389.178C335.057 389.178 335.057 389.062 335.057 388.947C335.057 388.715 335.057 388.484 335.172 388.136C335.288 387.442 335.404 386.4 335.52 385.126C335.867 382.463 336.446 378.527 337.025 373.548C338.414 363.592 340.267 349.583 342.466 333.142V332.795L342.814 332.911C351.265 335.458 360.412 338.352 370.021 341.247C375.926 343.099 381.599 344.836 387.156 346.572L387.735 346.688L387.272 347.035C372.337 359.076 359.254 369.612 349.876 377.137C345.245 380.842 341.54 383.852 338.993 385.936C337.719 386.978 336.793 387.673 336.099 388.252C335.751 388.484 335.52 388.715 335.404 388.831C335.057 389.178 335.057 389.178 335.057 389.178Z" fill="#263238"/>
<g opacity="0.3">
<path d="M288.63 7.11523L285.389 25.7553H289.325L292.567 7.11523H287.473" fill="black"/>
</g>
<path d="M118.554 203.704C124.459 204.167 129.553 199.652 129.785 193.747C130.016 188.074 130.248 182.401 130.248 182.401C130.248 182.401 138.815 181.591 139.51 173.139C140.089 164.687 139.857 145.005 139.857 145.005C130.248 140.143 118.786 140.953 109.871 146.973L110.45 176.844V192.937C110.45 198.262 113.229 203.357 118.554 203.704Z" fill="#FFBE9D"/>
<path d="M130.943 162.604C129.438 160.751 127.123 160.057 125.154 161.33C123.186 162.604 122.492 165.382 123.534 167.466C124.228 168.972 125.965 170.245 127.701 170.592C129.322 170.94 130.48 172.445 130.249 174.066C130.017 176.15 128.859 178.234 127.238 179.97C124.691 182.749 121.102 184.254 117.397 184.601C113.808 185.064 109.64 184.254 107.556 181.244C106.051 179.044 105.935 176.265 105.82 173.603C105.704 167.351 105.588 161.099 105.472 154.847C105.472 152.531 105.357 150.331 105.935 148.132C106.399 145.932 107.556 143.848 109.525 142.574C111.609 141.185 114.156 141.069 116.587 140.375C119.481 139.448 122.028 137.48 124.807 136.091C127.586 134.702 130.943 133.891 133.722 135.281C135.69 136.322 137.079 138.291 138.932 139.333C141.71 140.954 145.415 140.49 146.805 144.543C147.268 145.932 147.268 147.437 146.805 148.826C144.952 154.384 138.121 156.583 133.259 154.152C133.143 155.078 134.069 157.162 133.143 160.057C132.564 161.214 132.448 162.604 130.943 162.604Z" fill="#263238"/>
<path d="M107.441 145.122C108.599 142.343 109.872 139.565 110.22 136.554C110.567 133.544 109.756 130.302 107.557 128.334C106.052 126.945 103.968 126.25 101.999 126.366C98.063 126.482 94.4739 129.376 93.4319 133.081C92.3899 136.786 93.7793 141.07 96.9052 143.501C99.9154 145.932 104.315 146.511 107.904 144.89" fill="#263238"/>
<path d="M109.177 142.112C109.293 142.112 109.177 143.617 107.904 144.89C106.63 146.164 105.125 146.28 105.125 146.048C105.125 145.932 106.399 145.585 107.441 144.427C108.598 143.27 108.946 141.996 109.177 142.112Z" fill="#2AC6FA"/>
<path d="M106.399 144.079C106.399 144.079 105.704 144.89 104.083 145.816C103.273 146.279 102.231 146.626 101.073 146.626C99.9155 146.626 98.4104 146.279 97.4842 145.006C96.6738 143.848 96.558 142.343 96.9053 141.185C97.1369 140.027 97.8315 139.101 98.2946 138.406C99.4524 137.017 100.263 136.322 100.263 136.322C100.379 136.438 99.5682 137.248 98.642 138.638C98.1789 139.332 97.6 140.259 97.3684 141.301C97.1369 142.343 97.2526 143.616 97.9473 144.658C98.642 145.7 99.9155 146.048 100.958 146.048C102.115 146.048 103.041 145.7 103.852 145.353C105.357 144.658 106.283 144.079 106.399 144.079Z" fill="#263238"/>
<path d="M91.9263 153.689C91.9263 153.689 92.1578 154.037 92.3894 154.616C92.6209 155.194 92.9683 156.121 93.6629 157.047C94.3576 157.973 95.5154 158.899 97.0205 158.552C98.4098 158.32 99.6833 156.931 100.262 155.31C100.841 153.689 100.841 151.953 101.188 150.332C101.42 148.827 101.999 147.322 102.809 146.395C103.62 145.469 104.662 145.122 105.241 145.006C105.935 144.89 106.283 145.122 106.283 145.122C106.283 145.238 105.935 145.122 105.241 145.238C104.662 145.353 103.736 145.816 103.041 146.743C102.346 147.553 101.883 148.942 101.652 150.448C101.42 151.953 101.42 153.689 100.841 155.542C100.262 157.278 98.8729 158.783 97.1362 159.131C96.3258 159.247 95.5154 159.015 94.8207 158.668C94.126 158.32 93.6629 157.741 93.3156 157.278C92.6209 156.236 92.3894 155.31 92.1578 154.731C91.9263 154.152 91.8105 153.805 91.9263 153.689Z" fill="#263238"/>
<path d="M87.7574 225.124C87.7574 225.124 83.4737 256.846 87.7574 260.899C92.0411 264.951 96.2091 263.561 96.2091 263.561L104.429 256.615L106.05 225.008H87.7574V225.124Z" fill="#FFBE9D"/>
<path d="M177.369 136.091L182.926 130.071L192.073 137.48L213.144 117.104L218.123 123.008L191.725 149.058L177.369 136.091Z" fill="#2AC6FA"/>
<path d="M203.302 137.712L195.314 142.806C194.966 139.68 192.535 136.554 192.651 138.06C192.767 139.68 192.651 147.901 192.651 147.901L178.41 177.887C176.442 182.634 172.506 185.644 169.611 186.338L156.297 190.275L161.507 207.873L180.031 201.737C184.778 200.116 188.599 196.411 190.104 191.548L202.839 152.763C202.839 152.763 204.344 148.364 204.923 145.122C205.502 141.88 203.302 137.712 203.302 137.712Z" fill="#FFBE9D"/>
<path d="M137.773 465.475L137.541 456.561L120.869 456.792L120.985 469.759H122.027C126.658 469.991 145.414 470.338 148.424 469.412C152.013 468.486 137.773 465.475 137.773 465.475Z" fill="#2AC6FA"/>
<g opacity="0.5">
<path d="M127.121 469.644C126.889 468.254 126.079 466.981 124.921 466.17C123.763 465.36 122.374 464.897 120.984 465.013L121.1 469.644H127.121Z" fill="white"/>
</g>
<g opacity="0.4">
<path d="M144.72 467.212C144.72 467.212 149.698 468.601 149.12 469.412C148.541 470.222 129.553 470.569 121.102 469.875V469.527L143.331 469.412C143.331 469.412 143.794 467.212 144.72 467.212Z" fill="white"/>
</g>
<path d="M120.869 469.528C120.869 469.528 120.985 469.528 121.101 469.528C121.332 469.528 121.564 469.528 121.911 469.528C122.722 469.528 123.764 469.528 124.921 469.643C127.468 469.643 131.057 469.759 134.878 469.643C138.815 469.643 142.288 469.412 144.835 469.296C145.993 469.18 147.035 469.18 147.845 469.18C148.192 469.18 148.424 469.18 148.656 469.064C148.887 469.064 148.887 469.064 148.887 469.064C148.887 469.064 148.771 469.064 148.656 469.064C148.424 469.064 148.192 469.064 147.845 469.064C147.035 469.064 145.993 469.18 144.835 469.18C142.288 469.296 138.699 469.412 134.878 469.412C130.942 469.412 127.468 469.412 124.921 469.412C123.764 469.412 122.722 469.412 121.911 469.412C121.564 469.412 121.332 469.412 121.101 469.412C120.985 469.528 120.869 469.528 120.869 469.528Z" fill="#263238"/>
<path d="M143.33 469.643C143.446 469.643 143.446 468.949 143.909 468.138C144.372 467.444 144.951 466.98 144.951 466.98C144.951 466.98 144.256 467.212 143.793 468.022C143.214 468.833 143.33 469.643 143.33 469.643Z" fill="#263238"/>
<path d="M138.352 467.212C138.352 467.212 138.583 466.98 138.815 466.517C139.046 466.17 139.162 465.822 139.162 465.822C139.162 465.822 138.93 466.054 138.699 466.517C138.467 466.864 138.352 467.212 138.352 467.212Z" fill="#263238"/>
<path d="M136.963 466.517C136.963 466.517 137.31 466.401 137.542 466.17C137.773 465.938 138.005 465.707 138.005 465.591C138.005 465.591 137.658 465.707 137.426 465.938C137.194 466.17 136.963 466.517 136.963 466.517Z" fill="#263238"/>
<path d="M136.152 465.012C136.152 465.012 136.5 465.128 137.079 465.128C137.657 465.128 138.005 465.128 138.005 465.012C138.005 465.012 137.657 464.896 137.079 464.896C136.5 464.896 136.152 464.896 136.152 465.012Z" fill="#263238"/>
<path d="M135.805 463.855C135.805 463.855 136.268 464.086 136.731 464.086C137.31 464.086 137.773 463.97 137.773 463.97C137.773 463.97 137.31 463.97 136.731 463.97C136.268 463.855 135.805 463.739 135.805 463.855Z" fill="#263238"/>
<path d="M138.93 465.707C138.93 465.707 139.393 465.823 139.972 465.707C140.319 465.707 140.666 465.592 141.129 465.476C141.361 465.36 141.593 465.36 141.824 465.244C141.94 465.129 142.056 465.129 142.056 464.897C142.056 464.781 142.056 464.55 141.94 464.434C140.898 463.971 139.856 464.55 139.509 465.013C139.277 465.244 139.161 465.592 139.161 465.707C139.161 465.939 139.161 465.939 139.161 465.939C139.161 465.939 139.277 465.476 139.624 465.013C139.856 464.781 140.087 464.55 140.551 464.434C140.898 464.318 141.477 464.318 141.824 464.55C141.94 464.665 141.94 464.897 141.708 465.013C141.477 465.129 141.361 465.244 141.129 465.244C140.782 465.36 140.319 465.476 140.087 465.592C139.277 465.707 138.93 465.707 138.93 465.707Z" fill="#263238"/>
<path d="M139.161 465.822C139.161 465.822 139.277 465.591 139.277 465.128C139.277 464.896 139.161 464.664 138.93 464.317C138.698 464.086 138.467 463.738 138.004 463.738C137.772 463.738 137.656 464.086 137.656 464.201C137.656 464.433 137.772 464.549 137.888 464.664C138.004 464.896 138.235 465.128 138.351 465.359C138.814 465.706 139.046 465.822 139.161 465.822C139.046 465.822 138.814 465.591 138.582 465.243C138.467 465.128 138.235 464.896 138.119 464.664C138.004 464.433 137.888 464.086 138.119 463.97C138.351 463.97 138.698 464.201 138.814 464.433C138.93 464.664 139.046 464.896 139.161 465.128C139.277 465.475 139.161 465.822 139.161 465.822Z" fill="#263238"/>
<path d="M121.102 464.897C121.102 464.897 121.565 464.897 122.375 464.897C123.07 465.012 124.112 465.244 125.038 465.939C125.964 466.633 126.543 467.559 126.775 468.254C127.006 468.949 127.122 469.412 127.122 469.412C127.122 469.412 127.122 469.296 127.122 469.065C127.122 468.833 127.006 468.486 126.89 468.138C126.659 467.444 126.08 466.402 125.154 465.707C124.228 465.012 123.07 464.665 122.375 464.665C122.028 464.665 121.68 464.665 121.449 464.665C121.217 464.897 121.102 464.897 121.102 464.897Z" fill="#263238"/>
<path d="M122.721 457.95C122.721 457.95 122.605 459.455 122.605 461.423C122.605 463.276 122.605 464.897 122.721 464.897C122.721 464.897 122.837 463.392 122.837 461.423C122.837 459.571 122.837 457.95 122.721 457.95Z" fill="#263238"/>
<path d="M129.205 468.022C129.205 468.022 130.247 468.254 131.636 468.254C133.026 468.254 134.068 468.022 134.068 468.022C134.068 467.906 133.026 468.022 131.636 468.022C130.363 468.022 129.205 467.906 129.205 468.022Z" fill="#263238"/>
<path d="M125.963 468.022C125.963 468.022 126.079 468.254 126.194 468.486C126.31 468.717 126.426 468.949 126.426 468.949C126.426 468.949 126.542 468.717 126.426 468.37C126.194 468.138 125.963 468.022 125.963 468.022Z" fill="#263238"/>
<path d="M124.689 466.517C124.689 466.517 124.805 466.748 124.921 466.864C125.153 466.98 125.268 467.095 125.268 467.095C125.268 467.095 125.153 466.864 125.037 466.748C124.921 466.632 124.805 466.517 124.689 466.517Z" fill="#263238"/>
<path d="M122.953 465.823C122.953 465.823 123.185 465.823 123.416 465.939C123.648 466.054 123.879 466.17 123.879 466.054C123.879 466.054 123.764 465.823 123.416 465.707C123.185 465.707 122.953 465.823 122.953 465.823Z" fill="#263238"/>
<path d="M121.68 465.591C121.68 465.591 121.795 465.706 121.911 465.822C122.027 465.822 122.143 465.822 122.143 465.822C122.143 465.822 122.027 465.706 121.911 465.591C121.795 465.475 121.68 465.475 121.68 465.591Z" fill="#263238"/>
<path d="M79.0746 462.697L84.7477 455.866L71.8965 445.215L63.5605 455.172L64.2552 455.866C67.6127 458.992 81.6217 471.612 84.5161 472.885C87.8737 474.159 79.0746 462.697 79.0746 462.697Z" fill="#2AC6FA"/>
<g opacity="0.5">
<path d="M68.3083 458.876C69.0029 457.603 69.2345 456.213 69.0029 454.824C68.6556 453.435 67.9609 452.161 66.8032 451.351L63.793 454.94L68.3083 458.876Z" fill="white"/>
</g>
<g opacity="0.4">
<path d="M83.2426 468.486C83.2426 468.486 86.137 472.77 85.095 473.002C84.053 473.233 69.4652 461.077 63.5605 455.172L63.7921 454.941L80.6955 469.297C80.6955 469.181 82.4321 467.908 83.2426 468.486Z" fill="white"/>
</g>
<path d="M63.5605 454.593C63.5605 454.593 63.6763 454.709 63.7921 454.824C64.0237 454.94 64.1394 455.172 64.371 455.403C64.9499 455.982 65.7603 456.677 66.5707 457.487C68.4232 459.224 71.086 461.539 74.0962 463.971C77.1064 466.518 79.8851 468.718 81.8533 470.223C82.7795 470.917 83.5899 471.612 84.2846 472.075C84.5161 472.307 84.7477 472.422 84.9792 472.538C85.095 472.654 85.2108 472.654 85.2108 472.654C85.2108 472.654 85.095 472.538 84.9792 472.422C84.7477 472.307 84.6319 472.075 84.2846 471.959C83.5899 471.496 82.8953 470.802 81.969 470.107C80.0008 468.486 77.2222 466.286 74.212 463.739C71.2018 461.192 68.5389 458.877 66.5707 457.256C65.6445 456.445 64.9499 455.751 64.2552 455.287C64.0237 455.056 63.7921 454.94 63.6763 454.709L63.5605 454.593Z" fill="#263238"/>
<path d="M80.58 469.412C80.58 469.412 81.1589 468.949 81.9693 468.717C82.7797 468.486 83.4744 468.601 83.4744 468.486C83.4744 468.486 82.7797 468.254 81.8535 468.486C80.9273 468.717 80.4642 469.296 80.58 469.412Z" fill="#263238"/>
<path d="M78.3789 464.318C78.3789 464.318 78.7262 464.318 79.1893 464.202C79.6525 464.086 79.9998 463.854 79.884 463.854C79.884 463.854 79.5367 463.854 79.0736 463.97C78.7262 464.086 78.3789 464.202 78.3789 464.318Z" fill="#263238"/>
<path d="M77.8008 462.928C77.8008 462.928 78.1481 463.044 78.4954 463.044C78.8428 463.044 79.1901 462.928 79.1901 462.928C79.1901 462.928 78.8428 462.812 78.4954 462.812C78.1481 462.812 77.8008 462.813 77.8008 462.928Z" fill="#263238"/>
<path d="M78.1484 461.192C78.1484 461.192 78.38 461.54 78.7273 461.887C79.0747 462.234 79.422 462.466 79.422 462.35C79.422 462.35 79.1904 462.003 78.8431 461.655C78.4958 461.308 78.1484 461.076 78.1484 461.192Z" fill="#263238"/>
<path d="M78.6113 460.15C78.6113 460.15 78.7271 460.613 79.1902 460.961C79.6533 461.308 80.0006 461.54 80.0006 461.54C80.0006 461.54 79.6533 461.192 79.306 460.845C78.9587 460.382 78.7271 460.035 78.6113 460.15Z" fill="#263238"/>
<path d="M79.7695 463.507C79.7695 463.507 80.0011 463.854 80.58 464.201C80.8115 464.433 81.1588 464.549 81.622 464.78C81.8535 464.896 82.0851 464.896 82.3166 465.012C82.4324 465.012 82.5482 465.012 82.7797 464.896C82.8955 464.78 83.0113 464.664 82.8955 464.433C82.4324 463.391 81.2746 463.159 80.6957 463.275C80.3484 463.391 80.1169 463.507 80.0011 463.622C79.8853 463.738 79.7695 463.854 79.7695 463.854C79.7695 463.854 80.1169 463.622 80.6957 463.507C81.0431 463.507 81.3904 463.507 81.7377 463.622C82.0851 463.738 82.5482 464.086 82.6639 464.549C82.6639 464.78 82.5482 464.896 82.3166 464.78C82.0851 464.78 81.8535 464.664 81.7377 464.549C81.3904 464.433 81.0431 464.201 80.6957 464.086C80.1169 463.738 79.7695 463.507 79.7695 463.507Z" fill="#263238"/>
<path d="M79.8858 463.739C79.8858 463.739 80.2332 463.624 80.4647 463.276C80.5805 463.045 80.6963 462.813 80.6963 462.466C80.6963 462.119 80.6963 461.771 80.349 461.424C80.1174 461.308 79.8858 461.424 79.7701 461.54C79.6543 461.655 79.6543 461.887 79.6543 462.003C79.6543 462.35 79.6543 462.582 79.6543 462.813C79.6543 463.392 79.8858 463.739 79.8858 463.739C79.8858 463.624 79.7701 463.392 79.7701 462.929C79.7701 462.697 79.7701 462.466 79.8858 462.119C79.8858 461.887 80.1174 461.424 80.349 461.655C80.5805 461.771 80.5805 462.234 80.5805 462.466C80.5805 462.697 80.4647 463.045 80.349 463.161C80.1174 463.624 79.8858 463.739 79.8858 463.739Z" fill="#263238"/>
<path d="M66.8027 451.351C66.8027 451.351 67.1501 451.582 67.729 452.161C68.1921 452.74 68.8867 453.55 69.1183 454.708C69.3498 455.866 69.1183 456.908 68.8867 457.603C68.6552 458.297 68.3078 458.645 68.4236 458.76C68.4236 458.76 68.5394 458.645 68.6552 458.529C68.7709 458.297 68.8867 458.066 69.1183 457.718C69.4656 457.024 69.6972 455.866 69.4656 454.708C69.234 453.55 68.5394 452.624 67.9605 452.045C67.7289 451.814 67.3816 451.582 67.2658 451.466C66.9185 451.351 66.8027 451.351 66.8027 451.351Z" fill="#263238"/>
<path d="M72.5915 447.183C72.5915 447.183 71.5495 448.225 70.2759 449.73C69.0024 451.119 68.0762 452.393 68.0762 452.393C68.0762 452.393 69.1182 451.351 70.3917 449.846C71.6652 448.34 72.5915 447.183 72.5915 447.183Z" fill="#263238"/>
<path d="M70.9707 458.993C70.9707 458.993 71.6654 459.803 72.7074 460.729C73.7493 461.655 74.6756 462.234 74.6756 462.118C74.6756 462.118 73.8651 461.424 72.8231 460.498C71.7811 459.687 70.9707 458.877 70.9707 458.993Z" fill="#263238"/>
<path d="M68.423 456.908C68.423 456.908 68.3072 457.14 68.3072 457.371C68.1914 457.603 68.1914 457.834 68.1914 457.834C68.1914 457.834 68.423 457.719 68.5387 457.371C68.5387 457.14 68.423 456.908 68.423 456.908Z" fill="#263238"/>
<path d="M68.4224 454.94C68.4224 454.94 68.3066 455.172 68.3066 455.404C68.3066 455.635 68.4224 455.867 68.4224 455.867C68.4224 455.867 68.5382 455.635 68.5382 455.404C68.5382 455.056 68.5382 454.94 68.4224 454.94Z" fill="#263238"/>
<path d="M67.4961 453.204C67.4961 453.204 67.6119 453.436 67.7276 453.667C67.8434 453.899 67.9592 454.13 67.9592 454.13C67.9592 454.13 68.075 453.899 67.8434 453.551C67.8434 453.32 67.6119 453.204 67.4961 453.204Z" fill="#263238"/>
<path d="M66.8027 452.161C66.8027 452.161 66.8027 452.277 66.8027 452.393C66.9185 452.508 66.9185 452.624 67.0343 452.624C67.0343 452.624 67.0343 452.508 67.0343 452.393C66.9185 452.277 66.8027 452.161 66.8027 452.161Z" fill="#263238"/>
<path d="M113.691 276.644C113.691 276.644 108.134 300.147 109.755 304.778C111.376 309.409 121.448 312.072 121.448 312.072L121.101 376.328L64.9492 445.794L85.6732 462.813C85.6732 462.813 146.456 393.231 151.898 380.611C157.223 367.992 148.424 275.718 148.424 275.718L113.691 276.644Z" fill="#263238"/>
<path d="M142.404 267.034L145.182 462.118L116.585 462.234L102.229 303.272C99.2189 300.378 94.9351 295.399 95.514 284.401L96.2087 271.549L142.404 267.034Z" fill="#263238"/>
<path d="M112.303 387.21C112.303 387.21 112.303 387.095 112.419 386.979C112.534 386.747 112.766 386.516 112.997 386.168C113.576 385.474 114.271 384.432 115.081 383.158C116.934 380.495 119.597 376.906 122.838 372.391V372.507C122.26 365.792 121.449 357.572 120.639 348.657C119.597 337.079 118.786 326.543 118.323 318.902C118.092 315.082 117.86 311.956 117.86 309.872C117.86 308.83 117.744 308.019 117.744 307.44C117.744 306.861 117.744 306.63 117.744 306.63C117.744 306.63 117.86 306.977 117.86 307.44C117.86 308.019 117.976 308.83 118.092 309.872C118.207 312.071 118.555 315.082 118.786 318.902C119.365 326.543 120.291 336.963 121.333 348.657C122.144 357.572 122.954 365.792 123.417 372.507V372.623V372.738C120.176 377.138 117.397 380.727 115.544 383.39C114.618 384.663 113.808 385.59 113.345 386.284C113.113 386.632 112.882 386.863 112.766 387.095C112.419 387.095 112.303 387.21 112.303 387.21Z" fill="#455A64"/>
<path d="M121.101 306.514C121.101 306.629 117.628 306.282 113.576 305.356C109.408 304.545 106.166 303.503 106.166 303.388C106.166 303.272 109.524 303.966 113.692 304.777C117.744 305.703 121.101 306.398 121.101 306.514Z" fill="#455A64"/>
<path d="M140.668 373.202C140.552 373.434 137.426 371.465 132.91 371.234C128.511 370.887 125.038 372.16 124.922 372.044C124.922 371.929 125.732 371.581 127.122 371.118C128.511 370.771 130.595 370.423 132.91 370.655C135.226 370.887 137.194 371.466 138.468 372.044C139.973 372.507 140.668 373.086 140.668 373.202Z" fill="#455A64"/>
<path d="M150.74 382.232C150.856 382.348 142.867 393.115 132.794 406.314C122.722 419.512 114.502 430.164 114.386 430.048C114.27 429.932 122.259 419.165 132.331 405.967C142.288 392.768 150.624 382.117 150.74 382.232Z" fill="#455A64"/>
<path d="M146.804 281.506C146.804 281.506 146.457 282.548 145.183 283.59C143.91 284.632 141.71 285.79 139.047 285.558C136.384 285.327 134.416 283.706 133.49 282.432C132.448 281.043 132.332 280.001 132.332 280.001C132.448 280.001 132.795 280.927 133.837 282.201C134.879 283.358 136.732 284.748 139.163 285.095C141.594 285.327 143.678 284.4 144.952 283.474C146.225 282.432 146.688 281.506 146.804 281.506Z" fill="#455A64"/>
<path d="M107.787 181.128C103.155 176.728 100.261 170.476 100.03 163.993C99.798 157.625 102.113 151.141 106.397 146.395" fill="#263238"/>
<path d="M91.6935 199.422C91.6935 199.422 85.4415 206.484 84.168 233.228C84.168 233.228 101.882 236.586 102.229 235.66C102.576 234.618 91.6935 199.422 91.6935 199.422Z" fill="#2AC6FA"/>
<g opacity="0.3">
<path d="M91.6935 199.422C91.6935 199.422 85.4415 206.484 84.168 233.228C84.168 233.228 101.882 236.586 102.229 235.66C102.576 234.618 91.6935 199.422 91.6935 199.422Z" fill="black"/>
</g>
<path d="M94.5874 277.455H148.887L147.961 269.003C147.961 269.003 141.709 236.701 141.824 236.354L142.751 234.27C145.298 228.828 145.413 222.692 142.982 217.251L169.611 208.104L163.127 186.223C151.086 188.307 132.794 190.506 132.794 190.506L130.131 190.738C130.131 190.738 111.259 191.664 110.912 191.78C103.039 192.706 93.8928 193.285 90.5353 201.737C88.7986 206.252 90.4195 212.967 93.3139 220.029L100.261 241.448C103.039 253.257 98.6396 252.678 96.2083 264.488C95.861 266.224 94.5874 275.834 94.5874 277.455Z" fill="#2AC6FA"/>
<g opacity="0.3">
<path d="M94.5874 277.455H148.887L147.961 269.003C147.961 269.003 141.709 236.701 141.824 236.354L142.751 234.27C145.298 228.828 145.413 222.692 142.982 217.251L169.611 208.104L163.127 186.223C151.086 188.307 132.794 190.506 132.794 190.506L130.131 190.738C130.131 190.738 111.259 191.664 110.912 191.78C103.039 192.706 93.8928 193.285 90.5353 201.737C88.7986 206.252 90.4195 212.967 93.3139 220.029L100.261 241.448C103.039 253.257 98.6396 252.678 96.2083 264.488C95.861 266.224 94.5874 275.834 94.5874 277.455Z" fill="black"/>
</g>
<path d="M169.379 208.452C169.379 208.452 168.916 208.684 168.221 208.915C167.411 209.147 166.369 209.61 164.979 210.073C162.201 210.999 158.38 212.273 154.096 213.662C149.813 215.051 145.992 216.325 143.329 217.483C141.94 218.062 140.898 218.525 140.087 218.872C139.393 219.219 138.93 219.335 138.93 219.335C138.93 219.335 139.277 219.104 139.972 218.641C140.666 218.293 141.708 217.714 143.098 217.135C145.761 215.862 149.581 214.473 153.865 213.083C158.149 211.694 161.969 210.536 164.864 209.726C166.253 209.263 167.411 209.031 168.221 208.799C168.916 208.568 169.379 208.452 169.379 208.452Z" fill="#263238"/>
<path d="M166.254 196.758C166.254 196.874 150.161 197.106 130.363 197.106C110.566 197.106 94.4727 196.99 94.4727 196.758C94.4727 196.527 110.566 196.411 130.363 196.411C150.161 196.527 166.254 196.643 166.254 196.758Z" fill="#FAFAFA"/>
<path d="M167.874 207.41C167.874 207.526 150.045 207.757 127.931 207.757C105.934 207.757 87.9883 207.641 87.9883 207.41C87.9883 207.178 105.818 207.062 127.931 207.062C150.045 207.178 167.874 207.294 167.874 207.41Z" fill="#FAFAFA"/>
<path d="M92.5041 219.566C92.5041 219.682 90.999 219.913 89.1466 219.913C87.2942 219.913 85.7891 219.798 85.7891 219.566C85.7891 219.45 87.2942 219.219 89.1466 219.219C91.1148 219.335 92.5041 219.45 92.5041 219.566Z" fill="#FAFAFA"/>
<path d="M144.719 219.914C144.719 220.03 133.025 220.261 118.669 220.261C104.313 220.261 92.6191 220.145 92.6191 219.914C92.6191 219.682 104.313 219.566 118.669 219.566C133.025 219.682 144.719 219.798 144.719 219.914Z" fill="#FAFAFA"/>
<path d="M143.561 232.417C143.561 232.532 133.025 232.764 120.174 232.764C107.207 232.764 96.7871 232.648 96.7871 232.417C96.7871 232.301 107.323 232.069 120.174 232.069C133.141 232.185 143.561 232.301 143.561 232.417Z" fill="#FAFAFA"/>
<path d="M143.214 243.995C143.214 244.111 133.72 244.342 122.027 244.342C110.334 244.342 100.84 244.226 100.84 243.995C100.84 243.763 110.334 243.647 122.027 243.647C133.72 243.763 143.214 243.879 143.214 243.995Z" fill="#FAFAFA"/>
<path d="M145.066 253.373C145.066 253.488 134.878 253.72 122.374 253.72C109.87 253.72 99.6816 253.604 99.6816 253.373C99.6816 253.257 109.87 253.025 122.374 253.025C134.878 253.141 145.066 253.257 145.066 253.373Z" fill="#FAFAFA"/>
<path d="M148.076 265.414C148.076 265.529 136.498 265.761 122.258 265.761C108.017 265.761 96.4395 265.645 96.4395 265.414C96.4395 265.298 108.017 265.066 122.258 265.066C136.498 265.066 148.076 265.182 148.076 265.414Z" fill="#FAFAFA"/>
<path d="M100.029 240.406C100.029 240.406 99.7978 240.059 99.5663 239.364C99.219 238.554 98.8716 237.512 98.4085 236.354C97.4823 233.807 96.093 230.449 94.7037 226.513C93.3143 222.692 92.1566 219.103 91.4619 216.556C91.1146 215.283 90.883 214.241 90.6515 213.43C90.5357 212.736 90.4199 212.272 90.4199 212.272C90.5357 212.272 90.9988 213.893 91.8092 216.44C92.6197 218.987 93.8932 222.461 95.2825 226.281C96.6719 230.102 97.9454 233.575 98.8716 236.122C99.3347 237.396 99.6821 238.438 99.7978 239.133C99.9136 239.943 100.029 240.406 100.029 240.406Z" fill="#263238"/>
</g>
<defs>
<clipPath id="clip0_1262_175303">
<rect width="505.944" height="477" fill="white" transform="translate(0 0.400391)"/>
</clipPath>
</defs>
</svg>
