<svg width="494" height="478" viewBox="0 0 494 478" fill="none" xmlns="http://www.w3.org/2000/svg">
<path d="M296.973 16.8738C292.37 31.4909 298.677 47.4055 313.503 53.4483C328.329 59.491 345.05 52.7359 350.772 38.5004C356.494 24.265 349.5 6.82377 334.242 1.92597C317.254 -3.53157 301.347 2.96914 296.973 16.8738Z" fill="#2AC6FA"/>
<path d="M321.182 11.8479L313.26 35.2047L339.213 34.3269L321.182 11.8479Z" fill="white"/>
<path d="M45.4976 67.9377L129.89 34.7218C131.544 34.0688 133.319 33.782 135.094 33.881C136.869 33.9801 138.602 34.4627 140.173 35.2956C141.743 36.1286 143.115 37.2921 144.194 38.7061C145.272 40.1202 146.032 41.7512 146.42 43.4869C149.179 55.8777 152.879 74.413 154.354 90.3658C154.618 93.1046 153.959 95.8529 152.482 98.174C151.005 100.495 148.795 102.256 146.204 103.176C136.629 106.56 120.671 112.082 105.603 116.928C114.504 127.729 127.677 130.922 127.677 130.922C127.677 130.922 99.8179 134.955 88.1197 122.233C83.9236 123.429 80.1217 124.447 76.9683 125.159C74.7142 125.685 72.3577 125.563 70.1693 124.809C67.9809 124.056 66.0493 122.7 64.5962 120.898C57.5646 112.234 47.1506 97.1337 39.763 86.3204C38.7286 84.7876 38.0522 83.0416 37.7838 81.2118C37.5155 79.3819 37.6621 77.5151 38.2129 75.7497C38.7636 73.9842 39.7044 72.3654 40.9654 71.0131C42.2264 69.6608 43.7754 68.6097 45.4976 67.9377Z" fill="#2AC6FA"/>
<path opacity="0.4" d="M45.4976 67.9377L129.89 34.7218C131.544 34.0688 133.319 33.782 135.094 33.881C136.869 33.9801 138.602 34.4627 140.173 35.2956C141.743 36.1286 143.115 37.2921 144.194 38.7061C145.272 40.1202 146.032 41.7512 146.42 43.4869C149.179 55.8777 152.879 74.413 154.354 90.3658C154.618 93.1046 153.959 95.8529 152.482 98.174C151.005 100.495 148.795 102.256 146.204 103.176C136.629 106.56 120.671 112.082 105.603 116.928C114.504 127.729 127.677 130.922 127.677 130.922C127.677 130.922 99.8179 134.955 88.1197 122.233C83.9236 123.429 80.1217 124.447 76.9683 125.159C74.7142 125.685 72.3577 125.563 70.1693 124.809C67.9809 124.056 66.0493 122.7 64.5962 120.898C57.5646 112.234 47.1506 97.1337 39.763 86.3204C38.7286 84.7876 38.0522 83.0416 37.7838 81.2118C37.5155 79.3819 37.6621 77.5151 38.2129 75.7497C38.7636 73.9842 39.7044 72.3654 40.9654 71.0131C42.2264 69.6608 43.7754 68.6097 45.4976 67.9377Z" fill="white"/>
<path d="M67.6002 85.9651L126.231 67.7096C127.352 67.3554 128.287 66.5721 128.832 65.5305C129.378 64.489 129.49 63.2738 129.143 62.1503C128.789 61.029 128.006 60.0934 126.965 59.5476C125.924 59.0018 124.709 58.8902 123.586 59.2371L65.0063 77.4798C63.8852 77.8342 62.9492 78.6169 62.4016 79.6578C61.854 80.6988 61.739 81.9139 62.0818 83.0391C62.4335 84.154 63.2093 85.0857 64.2418 85.6332C65.2744 86.1806 66.4806 86.2998 67.6002 85.9651Z" fill="white"/>
<path d="M76.3798 103.293L117.87 87.7596C118.959 87.3329 119.837 86.4944 120.313 85.4254C120.789 84.3565 120.825 83.1431 120.413 82.0477C119.999 80.9465 119.166 80.0541 118.096 79.5654C117.027 79.0767 115.807 79.0316 114.704 79.4397L73.2645 94.9728C72.1745 95.4021 71.297 96.2431 70.8212 97.3141C70.3454 98.3851 70.3096 99.6003 70.7215 100.697C71.1384 101.784 71.9641 102.664 73.0217 103.149C74.0793 103.634 75.2848 103.686 76.3798 103.293Z" fill="white"/>
<path d="M312.978 171.095C320.073 171.744 334.492 167.126 342.884 155.104C330.957 147.166 323.608 134.826 324.46 121.443C325.858 99.6256 348.492 83.2784 375.016 85.0212C401.54 86.7641 421.911 105.783 420.512 127.6C419.113 149.418 396.48 165.765 369.955 164.009C366.157 163.771 362.392 163.158 358.715 162.177C352.122 166.747 344.653 169.899 336.781 171.434C328.908 172.969 320.803 172.854 312.978 171.095Z" fill="#2AC6FA"/>
<path opacity="0.2" d="M312.978 171.095C320.073 171.744 334.492 167.126 342.884 155.104C330.957 147.166 323.608 134.826 324.46 121.443C325.858 99.6256 348.492 83.2784 375.016 85.0212C401.54 86.7641 421.911 105.783 420.512 127.6C419.113 149.418 396.48 165.765 369.955 164.009C366.157 163.771 362.392 163.158 358.715 162.177C352.122 166.747 344.653 169.899 336.781 171.434C328.908 172.969 320.803 172.854 312.978 171.095Z" fill="black"/>
<path d="M373.668 107.361C357.85 90.8865 341.739 115.897 361.652 142.014C400.523 138.643 412.819 104.74 373.668 107.361Z" fill="white"/>
<path d="M231.387 98.5443C233.202 98.5404 235.015 98.4256 236.816 98.2008C246.67 96.9286 254.618 92.8069 258.432 86.815C258.531 86.666 258.594 86.496 258.617 86.3184C258.639 86.1408 258.62 85.9605 258.56 85.7917C258.501 85.6228 258.404 85.4699 258.276 85.3451C258.148 85.2202 257.992 85.1268 257.822 85.0721C252.036 83.1512 248.845 76.9431 245.768 70.9512C241.953 63.5091 237.973 55.7998 228.983 56.6395C224.978 57.0084 221.952 58.4587 219.994 60.9521C215.874 66.1806 217.107 74.7168 218.201 82.248C218.9 87.0694 219.625 92.0435 218.201 93.4175C218.086 93.5275 217.995 93.6599 217.934 93.8066C217.873 93.9532 217.842 94.1109 217.845 94.2698C217.856 94.5903 217.987 94.8947 218.213 95.1222C220.629 97.3103 225.588 98.5443 231.387 98.5443ZM255.698 86.7132C251.884 91.5093 245.03 94.8169 236.524 95.8855C230.039 96.6996 223.668 95.8855 220.642 94.0154C221.914 91.4711 221.316 87.1839 220.553 81.9172C219.523 74.844 218.366 66.8422 221.825 62.3896C223.401 60.3923 225.817 59.2728 229.199 58.9548C236.651 58.2678 239.919 64.6413 243.708 72.0071C246.798 77.9481 249.938 84.0672 255.698 86.7132Z" fill="#2AC6FA"/>
<path d="M239.394 103.001C240.879 102.989 242.343 102.646 243.679 101.996C247.227 100.253 248.994 96.9832 248.002 94.0318C247.903 93.74 247.691 93.4996 247.415 93.3636C247.138 93.2276 246.819 93.2071 246.527 93.3067C246.235 93.4062 245.995 93.6176 245.859 93.8944C245.723 94.1711 245.703 94.4905 245.802 94.7824C246.476 96.8051 244.734 98.8787 242.662 99.871C241.125 100.681 239.336 100.869 237.665 100.395C235.993 99.9214 234.568 98.8228 233.685 97.3267C233.514 97.0695 233.248 96.8904 232.945 96.8284C232.643 96.7665 232.328 96.8267 232.07 96.9959C231.815 97.1692 231.638 97.4349 231.577 97.7366C231.515 98.0383 231.573 98.3522 231.739 98.6116C232.531 99.9389 233.652 101.04 234.992 101.809C236.333 102.577 237.849 102.988 239.394 103.001Z" fill="#2AC6FA"/>
<path d="M227.837 59.1201C227.93 59.1325 228.024 59.1325 228.117 59.1201C228.41 59.0476 228.663 58.8633 228.822 58.6066C228.981 58.3499 229.034 58.0411 228.969 57.7462C228.547 56.5176 228.015 55.3296 227.379 54.1969C227.241 53.9219 226.999 53.7131 226.707 53.6165C226.415 53.5199 226.097 53.5433 225.822 53.6816C225.547 53.82 225.338 54.0619 225.242 54.3541C225.145 54.6464 225.168 54.965 225.307 55.24C225.839 56.192 226.298 57.1829 226.68 58.2042C226.743 58.4644 226.891 58.696 227.1 58.8621C227.31 59.0281 227.57 59.119 227.837 59.1201Z" fill="#2AC6FA"/>
<path d="M249.849 68.7394C249.95 68.7517 250.053 68.7517 250.154 68.7394C250.301 68.6996 250.439 68.6312 250.56 68.538C250.68 68.4447 250.781 68.3286 250.857 68.1962C250.933 68.0638 250.981 67.9178 251 67.7665C251.019 67.6152 251.008 67.4616 250.968 67.3146C249.951 63.4981 244.496 56.8448 241.457 54.3768C241.338 54.2807 241.202 54.209 241.056 54.1656C240.909 54.1223 240.756 54.1082 240.604 54.1241C240.453 54.14 240.306 54.1857 240.171 54.2586C240.037 54.3314 239.919 54.4299 239.823 54.5485C239.727 54.6671 239.655 54.8035 239.612 54.9499C239.569 55.0962 239.554 55.2497 239.57 55.4015C239.586 55.5533 239.632 55.7004 239.705 55.8346C239.778 55.9687 239.876 56.0872 239.995 56.1833C243.046 58.7276 247.916 64.923 248.73 67.9125C248.804 68.152 248.952 68.3616 249.153 68.5105C249.355 68.6593 249.599 68.7396 249.849 68.7394Z" fill="#2AC6FA"/>
<path d="M214.743 79.834H214.921C215.216 79.7868 215.481 79.6288 215.663 79.3923C215.845 79.1559 215.93 78.8588 215.9 78.5618C215.557 76.2465 214.819 69.6567 215.57 66.9597C215.654 66.6628 215.617 66.3446 215.467 66.075C215.316 65.8054 215.065 65.6066 214.768 65.5222C214.472 65.4379 214.154 65.4749 213.884 65.6252C213.615 65.7755 213.416 66.0268 213.332 66.3237C212.302 70.0256 213.535 78.5364 213.599 78.9053C213.652 79.169 213.795 79.4059 214.004 79.5754C214.213 79.7449 214.474 79.8363 214.743 79.834Z" fill="#2AC6FA"/>
<path d="M56.8782 207.851C60.4066 206.688 63.6911 204.885 66.5673 202.533C73.0013 197.445 76.7397 191.084 76.994 185.194C76.992 185.015 76.9524 184.839 76.8779 184.677C76.8035 184.515 76.6957 184.37 76.5617 184.252C76.4243 184.142 76.2637 184.064 76.092 184.024C75.9202 183.985 75.7417 183.984 75.5699 184.023C70.7761 185.117 65.9443 182.153 61.2777 179.278C55.3778 175.652 49.2744 171.9 43.2091 176.403C42.0053 177.185 40.9784 178.21 40.1945 179.413C39.4105 180.616 38.8868 181.97 38.657 183.387C37.9831 188.883 42.4716 194.379 46.5024 199.226C48.8802 202.113 51.5886 205.395 51.1944 206.858C51.1508 207.012 51.1395 207.172 51.1614 207.33C51.1833 207.488 51.2379 207.639 51.3215 207.774C51.4054 207.911 51.5163 208.029 51.6476 208.121C51.7788 208.213 51.9275 208.277 52.0845 208.309C53.6962 208.534 55.3382 208.377 56.8782 207.851ZM74.5399 186.542C73.8533 191.364 70.4837 196.452 65.1178 200.714C61.0488 203.933 56.4077 206.057 53.5213 206.108C53.2543 203.767 50.9782 201.019 48.2953 197.737C44.5951 193.259 40.4117 188.183 40.9712 183.667C41.1599 182.563 41.5804 181.511 42.2051 180.581C42.8298 179.652 43.6443 178.865 44.5951 178.273C49.4015 174.711 54.3351 177.739 60.057 181.263C64.6727 184.15 69.4156 187.013 74.5399 186.542Z" fill="#2AC6FA"/>
<path d="M68.586 205.61C70.4103 205.046 71.9745 203.851 72.9982 202.239C74.8038 199.427 74.6385 196.272 72.604 194.606C72.4901 194.489 72.353 194.397 72.2014 194.336C72.0498 194.275 71.8871 194.246 71.7238 194.252C71.5605 194.258 71.4002 194.298 71.2533 194.369C71.1064 194.441 70.9761 194.543 70.8708 194.668C70.7655 194.793 70.6875 194.938 70.6419 195.095C70.5963 195.252 70.5841 195.417 70.606 195.579C70.628 195.741 70.6836 195.896 70.7693 196.036C70.855 196.175 70.9689 196.295 71.1036 196.387C72.3752 197.43 72.0191 199.516 71.04 201.03C70.3364 202.204 69.2105 203.063 67.8934 203.432C66.5763 203.801 65.168 203.652 63.9576 203.015C63.8198 202.949 63.6704 202.911 63.5179 202.903C63.3654 202.894 63.2127 202.916 63.0687 202.967C62.9246 203.018 62.792 203.096 62.6783 203.199C62.5647 203.301 62.4722 203.424 62.4063 203.562C62.3403 203.7 62.3021 203.849 62.2939 204.002C62.2857 204.154 62.3076 204.307 62.3584 204.451C62.4091 204.595 62.4878 204.728 62.5898 204.842C62.6919 204.955 62.8153 205.048 62.953 205.114C64.7017 205.981 66.7127 206.159 68.586 205.61Z" fill="#2AC6FA"/>
<path d="M43.3848 179.061C43.5732 179.01 43.7445 178.909 43.8807 178.768C44.0912 178.552 44.209 178.262 44.209 177.961C44.209 177.659 44.0912 177.369 43.8807 177.153C43.0477 176.465 42.1587 175.848 41.2232 175.308C40.9613 175.146 40.6463 175.095 40.3464 175.164C40.0465 175.233 39.7859 175.417 39.621 175.677C39.5393 175.806 39.484 175.951 39.4583 176.101C39.4327 176.252 39.4371 176.406 39.4714 176.555C39.5057 176.705 39.5691 176.845 39.6581 176.97C39.7471 177.094 39.8598 177.2 39.9898 177.28C40.772 177.74 41.5237 178.25 42.2404 178.807C42.3932 178.944 42.5788 179.039 42.7793 179.084C42.9797 179.128 43.1882 179.121 43.3848 179.061Z" fill="#2AC6FA"/>
<path d="M62.8912 176.516C63.0864 176.465 63.2629 176.359 63.3998 176.211C63.6188 175.992 63.7418 175.694 63.7418 175.384C63.7418 175.074 63.6188 174.777 63.3998 174.557C61.0475 172.305 54.3337 169.927 51.1295 169.469C50.8243 169.426 50.5148 169.507 50.2692 169.693C50.0236 169.879 49.8619 170.155 49.8198 170.461C49.7776 170.766 49.8584 171.076 50.0444 171.321C50.2304 171.567 50.5064 171.729 50.8116 171.771C53.9777 172.216 59.9921 174.494 61.7977 176.236C61.9416 176.372 62.1173 176.468 62.3085 176.517C62.4997 176.566 62.7001 176.566 62.8912 176.516Z" fill="#2AC6FA"/>
<path d="M48.1664 208.385C48.4328 208.305 48.6622 208.134 48.8137 207.901C48.9651 207.668 49.0287 207.388 48.993 207.112C48.6878 203.868 44.4027 198.653 43.9068 198.067C43.7007 197.861 43.425 197.739 43.1337 197.725C42.8423 197.712 42.5564 197.807 42.332 197.994C42.1076 198.18 41.9608 198.443 41.9204 198.732C41.8801 199.021 41.9491 199.315 42.1139 199.556C43.7796 201.553 46.488 205.433 46.666 207.329C46.6803 207.481 46.7247 207.629 46.7965 207.764C46.8683 207.899 46.9661 208.019 47.0844 208.116C47.2026 208.213 47.3389 208.285 47.4853 208.329C47.6318 208.373 47.7855 208.388 47.9376 208.372C48.0123 208.391 48.0901 208.395 48.1664 208.385Z" fill="#2AC6FA"/>
<path d="M411.053 257.375C413.713 257.533 416.362 256.919 418.682 255.607C418.937 255.414 419.109 255.132 419.165 254.818C419.186 254.66 419.174 254.5 419.13 254.347C419.086 254.194 419.012 254.051 418.911 253.928C417.907 252.656 419.038 248.585 420.183 244.641C421.925 238.356 423.896 231.245 420.933 226.322C420.122 225.077 419.059 224.016 417.812 223.208C416.566 222.399 415.165 221.861 413.698 221.628C406.069 219.936 401.86 226.067 397.804 231.996C394.574 236.703 391.23 241.575 386.207 242.555C386.032 242.589 385.868 242.664 385.726 242.772C385.584 242.88 385.469 243.019 385.389 243.179C385.309 243.339 385.267 243.514 385.266 243.693C385.264 243.871 385.303 244.048 385.381 244.208C388.064 249.742 394.281 254.119 402.585 256.243C405.349 256.97 408.194 257.351 411.053 257.375ZM416.521 254.182C413.761 255.391 408.421 255.34 403.157 253.991C396.227 252.21 390.861 248.775 388.165 244.45C393.251 242.745 396.532 237.949 399.711 233.306C403.665 227.53 407.073 222.544 413.189 223.905C414.348 224.066 415.46 224.471 416.451 225.094C417.441 225.717 418.289 226.543 418.937 227.518C421.378 231.589 419.56 238.191 417.945 244.056C416.788 248.317 415.796 251.867 416.559 254.182H416.521Z" fill="#2AC6FA"/>
<path d="M400.984 260.083C402.153 260.075 403.305 259.806 404.356 259.296C405.408 258.785 406.332 258.046 407.062 257.132C407.262 256.899 407.362 256.596 407.34 256.29C407.317 255.983 407.174 255.698 406.941 255.497C406.708 255.296 406.405 255.196 406.099 255.219C405.792 255.242 405.508 255.385 405.307 255.618C404.423 256.751 403.137 257.499 401.717 257.708C400.296 257.916 398.849 257.569 397.678 256.738C396.101 255.707 394.88 253.85 395.63 252.298C395.699 252.161 395.74 252.012 395.751 251.859C395.761 251.707 395.741 251.554 395.691 251.409C395.641 251.264 395.563 251.131 395.461 251.017C395.359 250.903 395.235 250.811 395.096 250.746C394.82 250.613 394.502 250.595 394.211 250.695C393.921 250.795 393.682 251.005 393.545 251.28C392.35 253.748 393.545 256.801 396.393 258.684C397.756 259.584 399.351 260.07 400.984 260.083Z" fill="#2AC6FA"/>
<path d="M414.552 224.211C414.784 224.213 415.011 224.144 415.204 224.015C415.396 223.886 415.546 223.701 415.633 223.486C416.088 222.658 416.589 221.855 417.133 221.082C417.245 220.956 417.329 220.808 417.379 220.647C417.429 220.486 417.444 220.317 417.423 220.15C417.401 219.982 417.344 219.822 417.254 219.679C417.165 219.536 417.046 219.415 416.905 219.322C416.765 219.229 416.606 219.168 416.439 219.143C416.273 219.117 416.103 219.128 415.941 219.174C415.779 219.221 415.629 219.301 415.501 219.411C415.373 219.521 415.271 219.656 415.2 219.809C414.547 220.722 413.965 221.683 413.458 222.684C413.356 222.975 413.372 223.294 413.502 223.572C413.633 223.851 413.869 224.067 414.158 224.173C414.287 224.203 414.419 224.216 414.552 224.211Z" fill="#2AC6FA"/>
<path d="M423.401 243.088C423.654 243.089 423.9 243.008 424.102 242.856C424.304 242.705 424.451 242.491 424.52 242.248C424.736 241.485 426.568 234.794 426.097 231.575C426.056 231.277 425.9 231.008 425.662 230.825C425.424 230.642 425.123 230.559 424.825 230.595C424.531 230.643 424.266 230.801 424.084 231.037C423.902 231.273 423.817 231.571 423.846 231.868C424.19 234.183 422.867 239.653 422.333 241.561C422.251 241.858 422.289 242.176 422.439 242.445C422.589 242.714 422.839 242.913 423.134 242.999L423.401 243.088Z" fill="#2AC6FA"/>
<path d="M247.318 477.3C383.478 477.3 493.858 470.853 493.858 462.899C493.858 454.946 383.478 448.499 247.318 448.499C111.158 448.499 0.779053 454.946 0.779053 462.899C0.779053 470.853 111.158 477.3 247.318 477.3Z" fill="#F5F5F5"/>
<path d="M206.511 211.762C209.118 205.172 214.522 194.041 223.181 187.387C224.008 186.751 225.521 187.973 225.305 189.117C223.639 198.099 226.08 211.075 227.072 215.68C227.275 216.647 226.754 217.385 225.889 217.372L210.44 217.181C207.973 217.156 205.634 213.975 206.511 211.762Z" fill="#03516B"/>
<path opacity="0.3" d="M206.511 211.762C209.118 205.172 214.522 194.041 223.181 187.387C224.008 186.751 225.521 187.973 225.305 189.117C223.639 198.099 226.08 211.075 227.072 215.68C227.275 216.647 226.754 217.385 225.889 217.372L210.44 217.181C207.973 217.156 205.634 213.975 206.511 211.762Z" fill="black"/>
<path d="M224.092 255.767C236.807 250.17 245.619 245.297 246.42 239.954C247.221 234.611 246.75 226.533 245.733 224.943C246.14 225.177 246.565 225.377 247.005 225.541C246.224 223.031 244.519 220.913 242.236 219.612C238.344 217.377 234.794 214.592 231.695 211.343C227.881 207.323 220.48 203.303 212.622 205.123C204.764 206.942 186.022 211.725 182.83 225.668C179.638 239.611 184.801 248.567 189.658 253.274C194.515 257.981 208.477 262.624 224.092 255.767Z" fill="#03516B"/>
<path d="M184.126 232.513C181.939 225.415 178.849 212.401 180.311 198.916C180.451 197.644 182.066 196.855 182.587 197.834C186.707 205.467 195.595 211.536 198.825 213.533C199.162 213.82 199.376 214.225 199.423 214.665C199.471 215.105 199.347 215.547 199.079 215.899L189.632 231.928C188.093 234.536 184.851 234.88 184.126 232.513Z" fill="#03516B"/>
<path opacity="0.3" d="M184.126 232.513C181.939 225.415 178.849 212.401 180.311 198.916C180.451 197.644 182.066 196.855 182.587 197.834C186.707 205.467 195.595 211.536 198.825 213.533C199.162 213.82 199.376 214.225 199.423 214.665C199.471 215.105 199.347 215.547 199.079 215.899L189.632 231.928C188.093 234.536 184.851 234.88 184.126 232.513Z" fill="black"/>
<path d="M251.715 427.494C265.245 434.16 277.973 446.144 314.326 446.017C339.426 445.941 362.645 431.692 367.655 434.657C372.664 437.621 355.842 450.24 332.407 454.922C302.437 460.901 269.492 457.377 259.79 452.696C250.088 448.014 233.329 447.912 233.329 447.912L251.715 427.494Z" fill="#03516B"/>
<path opacity="0.3" d="M251.715 427.494C265.245 434.16 277.973 446.144 314.326 446.017C339.426 445.941 362.645 431.692 367.655 434.657C372.664 437.621 355.842 450.24 332.407 454.922C302.437 460.901 269.492 457.377 259.79 452.696C250.088 448.014 233.329 447.912 233.329 447.912L251.715 427.494Z" fill="black"/>
<path d="M243.11 241.24C244.534 243.784 251.07 245.909 253.117 250.234C255.165 254.56 263.468 284.01 262.667 291.63C261.866 299.25 258.852 326.067 261.993 335.469C265.133 344.87 268.35 360.912 267.905 372.476C267.46 384.04 279.12 420.092 277.607 431.618C276.094 443.144 286.394 448.614 285.936 456.349C285.478 464.084 271.377 462.862 266.303 462.862C261.23 462.862 252.888 459.529 253.194 454.453C253.227 451.094 252.164 447.816 250.167 445.116C250.167 445.116 242.538 456.947 223.935 456.947H188.014C182.852 456.947 177.397 446.948 194.677 444.365C183.462 438.908 171.484 428.896 178.313 414.33C185.141 399.763 189.07 387.792 188.014 381.877C186.959 375.961 186.641 364.894 190.138 358.062C193.635 351.231 200.59 334.858 195.745 326.525C190.901 318.193 191.931 277.229 192.401 267.523C192.872 257.816 189.261 254.445 188.053 252.919C188.188 254.187 188.427 255.442 188.765 256.671C188.765 256.671 181.873 246.71 184.149 240.757C186.425 234.803 243.11 241.24 243.11 241.24Z" fill="#03516B"/>
<path d="M257.67 285.154C259.831 289.848 259.679 295.916 262.756 291.069C265.833 286.222 274.696 269.608 276.972 266.415C279.248 263.222 286.826 253.146 289.179 247.689C291.531 242.231 295.536 217.946 297.456 213.9C299.376 209.855 304.03 208.634 302.364 202.794C300.699 196.955 294.405 190.963 287.882 194.373C281.359 197.782 280.685 208.557 278.561 214.396C276.438 220.236 273.475 232.576 271.364 234.102C269.253 235.629 257.873 239.649 254.084 239.343C250.295 239.038 243.238 235.858 242.856 240.183C242.475 244.508 254.554 278.399 257.67 285.154Z" fill="#03516B"/>
<path d="M300.815 201.001C303.435 198.457 306.957 197.986 308.203 201.001C309.449 204.016 300.815 208.634 300.815 208.634V201.001Z" fill="#03516B"/>
<path d="M295.98 196.931C297.455 193.115 304.194 188.789 307.068 192.25C309.344 195.01 301.066 202.3 301.066 202.3L295.98 196.931Z" fill="#03516B"/>
<path d="M292.305 194.17C292.305 190.035 297.111 183.649 301.028 185.875C304.13 187.656 298.955 197.325 298.955 197.325L292.305 194.17Z" fill="#03516B"/>
<path d="M285.466 197.019C283.864 192.122 285.822 184.463 290.311 184.463C294.57 184.463 294.125 195.836 294.125 195.836L285.466 197.019Z" fill="#03516B"/>
<path d="M281.485 206.306C278.726 202.681 278.128 195.735 281.879 194.424C285.427 193.152 288.313 202.821 288.313 202.821L281.485 206.306Z" fill="#03516B"/>
<path d="M212.707 325.802C211.792 330.038 213.025 334.961 209.668 331.552C206.311 328.142 198.746 311.592 192.897 313.042C187.81 314.314 183.843 306.847 180.181 300.931C177.562 296.708 169.577 277.778 167.262 274.839C164.948 271.9 160.905 271.722 161.223 266.646C161.54 261.571 165.241 249.727 171.077 251.711C176.913 253.696 180.97 262.041 183.474 266.596C185.979 271.15 188.751 270.87 194.677 269.382C198.981 268.331 203.096 266.614 206.871 264.293C209.414 262.397 213.941 262.016 216.128 264.916C218.315 267.817 214.017 319.721 212.707 325.802Z" fill="#03516B"/>
<path d="M163.284 264.686C160.639 262.142 156.926 259.877 156.685 263.134C156.303 267.828 165.408 272.777 165.408 272.777L163.284 264.686Z" fill="#03516B"/>
<path d="M168.242 260.423C165.966 256.975 158.464 254.265 156.416 258.273C154.776 261.466 164.453 266.771 164.453 266.771L168.242 260.423Z" fill="#03516B"/>
<path d="M170.267 256.938C169.352 252.893 163.287 247.715 159.955 250.743C157.31 253.147 164.482 261.531 164.482 261.531L170.267 256.938Z" fill="#03516B"/>
<path d="M175.08 259.19C175.576 254.101 172.003 247.028 167.616 248.008C163.458 248.923 166.434 259.915 166.434 259.915L175.08 259.19Z" fill="#03516B"/>
<path d="M179.441 264.52C181.336 260.399 180.408 253.478 176.466 253.071C172.728 252.639 172.016 262.663 172.016 262.663L179.441 264.52Z" fill="#03516B"/>
<path opacity="0.7" d="M298.93 204.259C299.985 200.442 297.989 197.516 294.352 196.066C290.436 194.501 286.112 196.829 286.723 199.221C287.32 201.384 289.965 201.066 291.962 202.262C293.411 203.076 296.679 212.439 298.93 204.259Z" fill="#FAFAFA"/>
<path opacity="0.7" d="M305.454 201.168C305.645 199.413 303.292 199.54 302.097 200.634C300.902 201.728 300.826 203.636 302.402 203.293C303.979 202.949 305.301 202.568 305.454 201.168Z" fill="#FAFAFA"/>
<path opacity="0.7" d="M282.516 197.158C283.534 196 284.843 197.603 284.831 199.015C284.818 200.428 283.635 201.56 282.936 200.389C282.237 199.219 281.652 198.087 282.516 197.158Z" fill="#FAFAFA"/>
<path opacity="0.7" d="M303.748 194.527C303.748 192.618 301.205 193.076 300.074 194.425C298.942 195.773 299.145 197.809 300.748 197.236C302.35 196.664 303.787 196.066 303.748 194.527Z" fill="#FAFAFA"/>
<path opacity="0.7" d="M289.913 188.445C288.222 187.567 287.37 189.997 288.07 191.625C288.769 193.253 290.613 194.068 290.867 192.376C291.121 190.684 291.274 189.144 289.913 188.445Z" fill="#FAFAFA"/>
<path opacity="0.7" d="M299.136 188.712C298.08 186.753 295.715 188.559 295.258 190.556C294.8 192.554 296.097 194.564 297.457 193.101C298.818 191.638 299.975 190.353 299.136 188.712Z" fill="#FAFAFA"/>
<path opacity="0.7" d="M165.379 266.822C165.036 266.099 164.841 265.315 164.808 264.515C164.775 263.716 164.904 262.918 165.186 262.17C165.469 261.421 165.9 260.738 166.453 260.16C167.006 259.582 167.67 259.122 168.406 258.807C171.699 257.09 175.831 259.023 175.552 261.352C175.297 263.425 172.907 263.298 171.279 264.545C170.135 265.41 168.482 274.417 165.379 266.822Z" fill="#FAFAFA"/>
<path opacity="0.7" d="M159.161 264.05C158.971 262.511 161.043 262.574 162.099 263.528C163.154 264.482 163.243 266.136 161.882 265.856C160.522 265.576 159.314 265.284 159.161 264.05Z" fill="#FAFAFA"/>
<path opacity="0.7" d="M177.267 255.602C175.754 254.749 175.118 256.454 175.728 257.726C176.338 258.998 178.03 259.825 178.271 258.604C178.513 257.383 178.487 256.276 177.267 255.602Z" fill="#FAFAFA"/>
<path opacity="0.7" d="M159.848 258.528C159.708 256.861 161.959 257.027 163.065 258.108C164.171 259.189 164.184 260.983 162.722 260.652C161.259 260.321 159.962 259.876 159.848 258.528Z" fill="#FAFAFA"/>
<path opacity="0.7" d="M169.179 250.27C170.311 248.998 171.722 250.792 171.722 252.331C171.722 253.87 170.374 255.117 169.65 253.794C168.925 252.471 168.276 251.262 169.179 250.27Z" fill="#FAFAFA"/>
<path opacity="0.7" d="M163.041 252.549C163.779 250.743 166.017 252.117 166.589 253.821C167.161 255.526 166.22 257.396 164.898 256.251C163.575 255.106 162.444 253.961 163.041 252.549Z" fill="#FAFAFA"/>
<path opacity="0.2" d="M205.624 337.25C204.862 327.304 206.068 317.305 209.172 307.825C212.987 295.841 204.658 279.571 222.142 272.777C237.604 266.773 246.301 306.222 241.05 318.575C235.798 330.927 235.963 354.539 238.176 364.716C240.388 374.893 243.758 385.63 243.046 398.479C242.334 411.328 241.075 422.345 238.087 432.356C235.099 442.368 225.677 444.62 222.015 440.32C216.407 433.718 204.556 412.791 210.266 393.67C215.886 374.969 206.286 347.3 205.624 337.25Z" fill="#FAFAFA"/>
<path opacity="0.1" d="M203.987 230.4C192.734 233.682 201.673 214.422 210.942 213.722C220.212 213.023 235.941 221.063 203.987 230.4Z" fill="black"/>
<path opacity="0.3" d="M211.947 222.375C211.387 219.665 212.277 216.243 216.219 216.306C217.516 216.319 222.056 222.756 211.947 222.375Z" fill="#BDBDBD"/>
<path d="M231.348 216.458C230.305 214.27 230.331 211.879 233.599 212.731C234.667 213.024 239.689 218.825 231.348 216.458Z" fill="#03516B"/>
<path opacity="0.3" d="M231.348 216.458C230.305 214.27 230.331 211.879 233.599 212.731C234.667 213.024 239.689 218.825 231.348 216.458Z" fill="#BDBDBD"/>
<path opacity="0.7" d="M233.182 218.531C230.563 218.531 229.202 218.989 229.062 220.579C228.923 222.169 232.877 223.123 233.678 222.22C234.479 221.317 235.611 218.569 233.182 218.531Z" fill="#FAFAFA"/>
</svg>
