<svg width="24" height="24" viewBox="0 0 24 24" fill="none" xmlns="http://www.w3.org/2000/svg">
<path fill-rule="evenodd" clip-rule="evenodd" d="M3.78292 0.100614C3.66411 0.159361 3.52767 0.279573 3.45447 0.389986C3.33163 0.57532 3.329 0.595246 3.31474 1.45802L3.30019 2.33724L2.65417 2.35243C2.04452 2.36683 1.99746 2.37475 1.81808 2.49351C1.70378 2.56918 1.58835 2.70125 1.52848 2.82479L1.42896 3.0302V13.1746V23.3189L1.52848 23.5243C1.58844 23.6481 1.70368 23.7798 1.81826 23.8556L2.00853 23.9814L4.65763 23.9943C7.28379 24.007 7.30852 24.0063 7.51469 23.9066C7.64082 23.8456 7.7722 23.7312 7.84859 23.6158C7.95763 23.4512 7.97453 23.3777 7.97453 23.0672C7.97453 22.7567 7.95763 22.6832 7.84859 22.5186C7.77272 22.404 7.64091 22.2889 7.51704 22.229C7.31739 22.1324 7.25367 22.1295 5.30863 22.1295H3.30582V13.1781V4.22669L3.95465 4.21145C4.56731 4.19701 4.61404 4.18913 4.79357 4.07033C5.13192 3.84631 5.18269 3.66815 5.18269 2.70449V1.87538H9.85139H14.5201V2.70449C14.5201 3.66815 14.5709 3.84631 14.9092 4.07033C15.0887 4.18913 15.1355 4.19701 15.7481 4.21145L16.397 4.22669V6.41193C16.397 8.54293 16.3995 8.60224 16.4965 8.80257C16.5564 8.92635 16.6717 9.05805 16.7863 9.13386C16.9511 9.24282 17.0247 9.2597 17.3354 9.2597C17.6461 9.2597 17.7197 9.24282 17.8845 9.13386C17.9991 9.05805 18.1143 8.92635 18.1743 8.80257C18.2723 8.60031 18.2738 8.55432 18.2738 5.81368C18.2738 3.07305 18.2723 3.02705 18.1743 2.82479C18.1144 2.70125 17.999 2.56918 17.8847 2.49351C17.7053 2.37475 17.6583 2.36683 17.0486 2.35243L16.4026 2.33724L16.388 1.45802C16.3737 0.593887 16.3713 0.575602 16.2476 0.38886C16.1718 0.274603 16.0397 0.159267 15.916 0.0994421L15.7105 0L9.8483 4.68846e-05L3.98619 9.37691e-05L3.78292 0.100614ZM5.61287 4.97403C5.49664 5.03296 5.35602 5.15796 5.28441 5.26593C5.16354 5.44831 5.15871 5.48113 5.14431 6.22238C5.13051 6.93329 5.13699 7.00558 5.2321 7.20194C5.29516 7.33209 5.40829 7.46252 5.52512 7.53979C5.68991 7.64875 5.76348 7.66562 6.0742 7.66562C6.38491 7.66562 6.45849 7.64875 6.62328 7.53979C6.95192 7.32248 7.01263 7.1264 7.01263 6.28253C7.01263 5.43992 6.95168 5.24244 6.62501 5.02645C6.3599 4.85114 5.90195 4.82742 5.61287 4.97403ZM9.3666 4.97403C9.25037 5.03296 9.10975 5.15796 9.03815 5.26593C8.91728 5.44831 8.91244 5.48113 8.89804 6.22238C8.88424 6.93329 8.89072 7.00558 8.98583 7.20194C9.04889 7.33209 9.16202 7.46252 9.27885 7.53979C9.44364 7.64875 9.51722 7.66562 9.82793 7.66562C10.1386 7.66562 10.2122 7.64875 10.377 7.53979C10.7056 7.32248 10.7664 7.1264 10.7664 6.28253C10.7664 5.43992 10.7054 5.24244 10.3787 5.02645C10.1136 4.85114 9.65568 4.82742 9.3666 4.97403ZM13.1203 4.97403C13.0041 5.03296 12.8635 5.15796 12.7919 5.26593C12.671 5.44831 12.6662 5.48113 12.6518 6.22238C12.638 6.93329 12.6445 7.00558 12.7396 7.20194C12.8026 7.33209 12.9158 7.46252 13.0326 7.53979C13.1974 7.64875 13.2709 7.66562 13.5817 7.66562C13.8924 7.66562 13.966 7.64875 14.1307 7.53979C14.4594 7.32248 14.5201 7.1264 14.5201 6.28253C14.5201 5.43992 14.4591 5.24244 14.1325 5.02645C13.8674 4.85114 13.4094 4.82742 13.1203 4.97403ZM5.61287 9.19364C5.49664 9.25257 5.35602 9.37757 5.28441 9.48554C5.16354 9.66792 5.15871 9.70074 5.14431 10.442C5.13051 11.1529 5.13699 11.2252 5.2321 11.4215C5.29516 11.5517 5.40829 11.6821 5.52512 11.7594C5.68991 11.8684 5.76348 11.8852 6.0742 11.8852C6.38491 11.8852 6.45849 11.8684 6.62328 11.7594C6.95192 11.5421 7.01263 11.346 7.01263 10.5021C7.01263 9.65953 6.95168 9.46205 6.62501 9.24606C6.3599 9.07075 5.90195 9.04703 5.61287 9.19364ZM9.3666 9.19364C9.25037 9.25257 9.10975 9.37757 9.03815 9.48554C8.91728 9.66792 8.91244 9.70074 8.89804 10.442C8.88424 11.1529 8.89072 11.2252 8.98583 11.4215C9.04889 11.5517 9.16202 11.6821 9.27885 11.7594C9.44364 11.8684 9.51722 11.8852 9.82793 11.8852C10.1386 11.8852 10.2122 11.8684 10.377 11.7594C10.7056 11.5421 10.7664 11.346 10.7664 10.5021C10.7664 9.65953 10.7054 9.46205 10.3787 9.24606C10.1136 9.07075 9.65568 9.04703 9.3666 9.19364ZM15.7433 11.0283C14.3539 11.1608 13.1493 12.1284 12.678 13.4905C12.5609 13.8287 12.5317 13.9994 12.5125 14.457C12.474 15.3752 12.6478 16.0307 13.1158 16.733C13.2434 16.9243 13.3423 17.0855 13.3357 17.0911C13.329 17.0967 13.2286 17.1488 13.1124 17.2067C12.7623 17.3816 12.1702 17.7867 11.8282 18.0857C10.9525 18.8508 10.2547 19.9157 9.86927 21.0746C9.72954 21.4949 9.71321 21.5993 9.71199 22.0826C9.71077 22.5714 9.7224 22.6469 9.83675 22.8907C10.0138 23.2681 10.1801 23.4701 10.4819 23.6739C11.0072 24.0287 10.6279 24.0076 16.236 23.9938L21.2554 23.9814L21.5696 23.8269C21.9694 23.6302 22.2654 23.3341 22.4604 22.9358C22.6073 22.6357 22.614 22.598 22.6127 22.0826C22.6115 21.5978 22.5955 21.4962 22.4544 21.0749C21.9567 19.5895 21.0334 18.3667 19.7988 17.558C19.5923 17.4228 19.3284 17.2647 19.2123 17.2067C19.0961 17.1488 18.9957 17.0967 18.9891 17.0911C18.9824 17.0855 19.0806 16.9246 19.2073 16.7335C19.6451 16.0735 19.8228 15.4733 19.8214 14.6601C19.8197 13.6286 19.4712 12.7789 18.7575 12.0659C17.971 11.2799 16.9154 10.9166 15.7433 11.0283ZM16.8744 13.089C17.2466 13.2624 17.5415 13.5506 17.7225 13.918C17.8622 14.2016 17.875 14.2649 17.875 14.6749C17.875 15.0848 17.8622 15.1481 17.7225 15.4318C17.5417 15.7987 17.2472 16.0868 16.8744 16.2614C16.6446 16.369 16.547 16.3862 16.1624 16.3862C15.7777 16.3862 15.6801 16.369 15.4503 16.2614C14.4358 15.7862 14.1035 14.5025 14.7704 13.6345C14.9762 13.3666 15.2081 13.1902 15.5333 13.0539C15.9185 12.8925 16.4842 12.9074 16.8744 13.089ZM5.61287 13.4132C5.49664 13.4722 5.35602 13.5972 5.28441 13.7052C5.16354 13.8875 5.15871 13.9204 5.14431 14.6616C5.13051 15.3725 5.13699 15.4448 5.2321 15.6412C5.29516 15.7713 5.40829 15.9017 5.52512 15.979C5.68991 16.088 5.76348 16.1048 6.0742 16.1048C6.38491 16.1048 6.45849 16.088 6.62328 15.979C6.95192 15.7617 7.01263 15.5656 7.01263 14.7217C7.01263 13.8791 6.95168 13.6817 6.62501 13.4657C6.3599 13.2904 5.90195 13.2666 5.61287 13.4132ZM9.3666 13.4132C9.25037 13.4722 9.10975 13.5972 9.03815 13.7052C8.91728 13.8875 8.91244 13.9204 8.89804 14.6616C8.88424 15.3725 8.89072 15.4448 8.98583 15.6412C9.04889 15.7713 9.16202 15.9017 9.27885 15.979C9.44364 16.088 9.51722 16.1048 9.82793 16.1048C10.1386 16.1048 10.2122 16.088 10.377 15.979C10.7056 15.7617 10.7664 15.5656 10.7664 14.7217C10.7664 13.8791 10.7054 13.6817 10.3787 13.4657C10.1136 13.2904 9.65568 13.2666 9.3666 13.4132ZM5.61287 17.6329C5.49664 17.6918 5.35602 17.8168 5.28441 17.9248C5.16354 18.1071 5.15871 18.14 5.14431 18.8812C5.13051 19.5921 5.13699 19.6644 5.2321 19.8608C5.29516 19.9909 5.40829 20.1213 5.52512 20.1986C5.68991 20.3076 5.76348 20.3245 6.0742 20.3245C6.38491 20.3245 6.45849 20.3076 6.62328 20.1986C6.95192 19.9813 7.01263 19.7852 7.01263 18.9414C7.01263 18.0987 6.95168 17.9013 6.62501 17.6853C6.3599 17.51 5.90195 17.4862 5.61287 17.6329ZM17.2885 18.535C18.6192 18.8811 19.7269 19.7721 20.329 20.9808C20.5058 21.3356 20.7138 21.9213 20.7138 22.0641C20.7138 22.1196 20.024 22.1295 16.1624 22.1295C12.3007 22.1295 11.611 22.1196 11.611 22.0641C11.611 21.9213 11.819 21.3356 11.9957 20.9808C12.9691 19.0267 15.2053 17.9934 17.2885 18.535Z" fill="#D2D2D2"/>
</svg>
