<svg width="20" height="20" viewBox="0 0 20 20" fill="none" xmlns="http://www.w3.org/2000/svg">
<path fill-rule="evenodd" clip-rule="evenodd" d="M12.7083 5.41669C12.7083 5.07151 12.9881 4.79169 13.3333 4.79169H18.3333C18.6784 4.79169 18.9583 5.07151 18.9583 5.41669C18.9583 5.76186 18.6784 6.04169 18.3333 6.04169H13.3333C12.9881 6.04169 12.7083 5.76186 12.7083 5.41669Z" fill="black"/>
<path fill-rule="evenodd" clip-rule="evenodd" d="M1.04175 5.41669C1.04175 5.07151 1.32157 4.79169 1.66675 4.79169H5.00008C5.34526 4.79169 5.62508 5.07151 5.62508 5.41669C5.62508 5.76186 5.34526 6.04169 5.00008 6.04169H1.66675C1.32157 6.04169 1.04175 5.76186 1.04175 5.41669Z" fill="black"/>
<path fill-rule="evenodd" clip-rule="evenodd" d="M8.33341 3.125C7.06776 3.125 6.04175 4.15101 6.04175 5.41667C6.04175 6.68232 7.06776 7.70833 8.33341 7.70833C9.59907 7.70833 10.6251 6.68232 10.6251 5.41667C10.6251 4.15101 9.59907 3.125 8.33341 3.125ZM4.79175 5.41667C4.79175 3.46066 6.37741 1.875 8.33341 1.875C10.2894 1.875 11.8751 3.46066 11.8751 5.41667C11.8751 7.37268 10.2894 8.95833 8.33341 8.95833C6.37741 8.95833 4.79175 7.37268 4.79175 5.41667Z" fill="black"/>
<path fill-rule="evenodd" clip-rule="evenodd" d="M14.375 14.5833C14.375 14.2381 14.6548 13.9583 15 13.9583H18.3333C18.6785 13.9583 18.9583 14.2381 18.9583 14.5833C18.9583 14.9285 18.6785 15.2083 18.3333 15.2083H15C14.6548 15.2083 14.375 14.9285 14.375 14.5833Z" fill="black"/>
<path fill-rule="evenodd" clip-rule="evenodd" d="M1.04175 14.5833C1.04175 14.2381 1.32157 13.9583 1.66675 13.9583H6.66675C7.01193 13.9583 7.29175 14.2381 7.29175 14.5833C7.29175 14.9285 7.01193 15.2083 6.66675 15.2083H1.66675C1.32157 15.2083 1.04175 14.9285 1.04175 14.5833Z" fill="black"/>
<path fill-rule="evenodd" clip-rule="evenodd" d="M11.6667 12.2917C10.401 12.2917 9.375 13.3177 9.375 14.5834C9.375 15.849 10.401 16.875 11.6667 16.875C12.9323 16.875 13.9583 15.849 13.9583 14.5834C13.9583 13.3177 12.9323 12.2917 11.6667 12.2917ZM8.125 14.5834C8.125 12.6273 9.71066 11.0417 11.6667 11.0417C13.6227 11.0417 15.2083 12.6273 15.2083 14.5834C15.2083 16.5394 13.6227 18.125 11.6667 18.125C9.71066 18.125 8.125 16.5394 8.125 14.5834Z" fill="black"/>
</svg>
