<svg width="123" height="37" viewBox="0 0 123 37" fill="none" xmlns="http://www.w3.org/2000/svg">
  <g clip-path="url(#clip0_561_9338)">
  <path d="M118.444 36.2656H4.55602C2.05048 36.2656 0.000488281 34.2754 0.000488281 31.8429V5.30694C0.000488281 2.87448 2.05048 0.884277 4.55602 0.884277H118.444C120.95 0.884277 123 2.87448 123 5.30694V31.8429C123 34.2754 120.95 36.2656 118.444 36.2656Z" fill="black"/>
  <path d="M118.446 1.5919C120.559 1.5919 122.272 3.25482 122.272 5.30694V31.8429C122.272 33.895 120.559 35.558 118.446 35.558H4.55748C2.44372 35.558 0.730838 33.895 0.730838 31.8429V5.30694C0.730838 3.25482 2.44372 1.5919 4.55748 1.5919H118.446V1.5919ZM118.446 0.884277H4.55748C2.05194 0.884277 0.00195312 2.87448 0.00195312 5.30694V31.8429C0.00195312 34.2754 2.05194 36.2656 4.55748 36.2656H118.446C120.951 36.2656 123.001 34.2754 123.001 31.8429V5.30694C123.001 2.87448 120.951 0.884277 118.446 0.884277Z" fill="#A6A6A6"/>
  <path d="M62.0835 20.1231C59.9424 20.1231 58.1931 21.7064 58.1931 23.8824C58.1931 26.0495 59.9424 27.6417 62.0835 27.6417C64.2246 27.6417 65.974 26.0495 65.974 23.8824C65.974 21.7064 64.2246 20.1231 62.0835 20.1231ZM62.0835 26.1645C60.9082 26.1645 59.8969 25.2269 59.8969 23.8824C59.8969 22.5291 60.9082 21.6003 62.0835 21.6003C63.2589 21.6003 64.2702 22.5291 64.2702 23.8824C64.2702 25.2269 63.2498 26.1645 62.0835 26.1645ZM53.592 20.1231C51.4509 20.1231 49.7016 21.7064 49.7016 23.8824C49.7016 26.0495 51.4509 27.6417 53.592 27.6417C55.7331 27.6417 57.4825 26.0495 57.4825 23.8824C57.4825 21.7064 55.7331 20.1231 53.592 20.1231ZM53.592 26.1645C52.4167 26.1645 51.4054 25.2269 51.4054 23.8824C51.4054 22.5291 52.4167 21.6003 53.592 21.6003C54.7674 21.6003 55.7787 22.5291 55.7787 23.8824C55.7787 25.2269 54.7674 26.1645 53.592 26.1645ZM43.497 21.2819V22.874H47.433C47.3145 23.7674 47.0047 24.4308 46.5401 24.8819C45.9661 25.4392 45.0732 26.0495 43.5061 26.0495C41.0826 26.0495 39.1875 24.1566 39.1875 21.8037C39.1875 19.4509 41.0826 17.558 43.5061 17.558C44.809 17.558 45.7656 18.0533 46.4672 18.699L47.6243 17.5757C46.6403 16.6646 45.3374 15.9658 43.497 15.9658C40.1806 15.9658 37.3926 18.584 37.3926 21.8126C37.3926 25.0323 40.1806 27.6593 43.497 27.6593C45.2919 27.6593 46.6403 27.0932 47.6972 26.023C48.7814 24.9704 49.1185 23.4843 49.1185 22.2902C49.1185 21.9187 49.0912 21.5738 49.0274 21.2907H43.497V21.2819ZM84.7792 22.5202C84.4603 21.6799 83.4763 20.1231 81.4628 20.1231C79.4675 20.1231 77.8092 21.6445 77.8092 23.8824C77.8092 25.9876 79.4492 27.6417 81.6541 27.6417C83.4308 27.6417 84.4603 26.5891 84.8794 25.9787L83.5583 25.1207C83.121 25.7488 82.5197 26.1645 81.6541 26.1645C80.7886 26.1645 80.169 25.7841 79.7772 25.0234L84.9614 22.9448L84.7792 22.5202ZM79.4948 23.7762C79.4492 22.3256 80.6519 21.5826 81.5174 21.5826C82.1917 21.5826 82.7657 21.9099 82.957 22.3787L79.4948 23.7762ZM75.2855 27.4205H76.9892V16.3639H75.2855V27.4205ZM72.4975 20.9634H72.4337C72.051 20.5212 71.3222 20.1231 70.3928 20.1231C68.4522 20.1231 66.6755 21.7772 66.6755 23.9001C66.6755 26.0053 68.4522 27.6505 70.3928 27.6505C71.3131 27.6505 72.051 27.2525 72.4337 26.7925H72.4884V27.3321C72.4884 28.7739 71.6957 29.5434 70.4202 29.5434C69.3815 29.5434 68.7346 28.8181 68.4704 28.2078L66.9853 28.8092C67.4135 29.8088 68.5433 31.0294 70.4202 31.0294C72.4155 31.0294 74.101 29.8884 74.101 27.1109V20.3531H72.4884V20.9634H72.4975ZM70.5386 26.1645C69.3633 26.1645 68.3793 25.2092 68.3793 23.9001C68.3793 22.5733 69.3633 21.6091 70.5386 21.6091C71.6957 21.6091 72.6068 22.5821 72.6068 23.9001C72.6159 25.2092 71.7048 26.1645 70.5386 26.1645ZM92.7605 16.3639H88.6878V27.4205H90.3916V23.2278H92.7696C94.6556 23.2278 96.5051 21.901 96.5051 19.7958C96.5051 17.6907 94.6374 16.3639 92.7605 16.3639ZM92.7969 21.6887H90.3825V17.8941H92.7969C94.0725 17.8941 94.7923 18.9202 94.7923 19.787C94.7923 20.6538 94.0725 21.6887 92.7969 21.6887ZM103.311 20.1054C102.081 20.1054 100.806 20.6362 100.277 21.7949L101.79 22.4052C102.108 21.7949 102.71 21.5914 103.338 21.5914C104.213 21.5914 105.115 22.1045 105.124 23.0155V23.1305C104.814 22.9625 104.158 22.706 103.348 22.706C101.717 22.706 100.068 23.5728 100.068 25.1915C100.068 26.6687 101.398 27.624 102.892 27.624C104.031 27.624 104.669 27.1286 105.06 26.5448H105.115V27.4028H106.755V23.1659C106.764 21.2023 105.252 20.1054 103.311 20.1054ZM103.102 26.1645C102.546 26.1645 101.771 25.8903 101.771 25.2269C101.771 24.3777 102.737 24.0504 103.575 24.0504C104.322 24.0504 104.678 24.2097 105.124 24.422C104.997 25.4392 104.086 26.1645 103.102 26.1645ZM112.741 20.3443L110.791 25.1384H110.737L108.714 20.3443H106.883L109.917 27.049L108.186 30.7729H109.962L114.636 20.3443H112.741ZM97.4345 27.4205H99.1382V16.3639H97.4345V27.4205Z" fill="white"/>
  <path d="M9.51384 7.55264C9.24961 7.82684 9.09473 8.25142 9.09473 8.79098V28.3568C9.09473 28.9053 9.24961 29.3298 9.51384 29.5952L9.57761 29.6571L20.8662 18.7066V18.5739V18.4412L9.57761 7.49072L9.51384 7.55264Z" fill="url(#paint0_linear_561_9338)"/>
  <path d="M24.6296 22.3597L20.8667 18.7066V18.5739V18.4412L24.6296 14.7881L24.7116 14.8323L29.1669 17.2913C30.4424 17.9901 30.4424 19.14 29.1669 19.8476L24.7116 22.3066L24.6296 22.3597Z" fill="url(#paint1_linear_561_9338)"/>
  <path d="M24.7114 22.3069L20.8665 18.5742L9.51416 29.5955C9.93327 30.0289 10.6257 30.082 11.4093 29.6486L24.7114 22.3069Z" fill="url(#paint2_linear_561_9338)"/>
  <path d="M24.7112 14.8416L11.4 7.49994C10.6164 7.06652 9.92399 7.11959 9.50488 7.55301L20.8664 18.5743L24.7112 14.8416Z" fill="url(#paint3_linear_561_9338)"/>
  <path opacity="0.2" d="M24.6294 22.2271L11.4001 29.5244C10.6622 29.9313 9.99705 29.9048 9.57794 29.5333L9.51416 29.5952L9.57794 29.6571C10.0062 30.0286 10.6622 30.0552 11.4001 29.6483L24.7114 22.3067L24.6294 22.2271Z" fill="black"/>
  <path opacity="0.12" d="M9.51384 29.4713C9.24961 29.1971 9.09473 28.7725 9.09473 28.2329V28.3656C9.09473 28.914 9.24961 29.3386 9.51384 29.6039L9.57761 29.542L9.51384 29.4713Z" fill="black"/>
  <path opacity="0.12" d="M29.166 19.7241L24.6196 22.2273L24.7016 22.3069L29.1569 19.8479C29.7947 19.4941 30.1136 19.0342 30.1136 18.5742C30.068 18.9899 29.7492 19.4057 29.166 19.7241Z" fill="black"/>
  <path opacity="0.25" d="M11.3997 7.62381L29.1662 17.4244C29.7402 17.7429 30.0682 18.1497 30.1229 18.5743C30.1229 18.1144 29.804 17.6456 29.1662 17.3006L11.3997 7.49997C10.1241 6.80119 9.08545 7.38498 9.08545 8.80023V8.93292C9.08545 7.50882 10.1332 6.92503 11.3997 7.62381Z" fill="white"/>
  <path d="M38.7973 13.5072H38.1313V11.7293H38.6623C39.1303 11.3313 39.3553 10.659 39.3463 9.69488V7.07666H42.9552V11.7293H43.5582V13.5072H42.8922V12.3839H38.7973V13.5072ZM40.0483 9.70372C40.0573 10.544 39.8863 11.2163 39.5353 11.7381H42.2622V7.73121H40.0483V9.70372Z" fill="white" stroke="white" stroke-width="0.0336945" stroke-miterlimit="10"/>
  <path d="M48.9667 11.6942C48.4357 12.2337 47.7788 12.4991 46.9868 12.4991C46.1948 12.4991 45.5378 12.2337 45.0068 11.6942C44.4758 11.1546 44.2148 10.5 44.2148 9.7305C44.2148 8.96096 44.4758 8.29756 45.0068 7.76684C45.5378 7.22727 46.1948 6.96191 46.9868 6.96191C47.7698 6.96191 48.4267 7.22727 48.9667 7.76684C49.4977 8.3064 49.7677 8.96096 49.7677 9.7305C49.7677 10.5089 49.4977 11.1634 48.9667 11.6942ZM45.5198 11.2519C45.9158 11.6499 46.4108 11.8445 46.9868 11.8445C47.5628 11.8445 48.0577 11.6499 48.4537 11.2519C48.8497 10.8539 49.0567 10.3497 49.0567 9.7305C49.0567 9.11133 48.8587 8.60714 48.4537 8.20911C48.0577 7.81107 47.5718 7.60762 46.9868 7.60762C46.4108 7.60762 45.9158 7.80222 45.5198 8.20026C45.1238 8.5983 44.9168 9.10248 44.9168 9.72166C44.9168 10.3408 45.1238 10.8539 45.5198 11.2519Z" fill="white" stroke="white" stroke-width="0.0336945" stroke-miterlimit="10"/>
  <path d="M53.2596 12.4982C52.4676 12.4982 51.8016 12.2329 51.2616 11.7021C50.7217 11.1714 50.4517 10.5169 50.4517 9.72079C50.4517 8.92471 50.7217 8.27016 51.2616 7.73944C51.8016 7.20872 52.4676 6.94336 53.2596 6.94336C54.0696 6.94336 54.7356 7.23526 55.2395 7.8102L54.7536 8.27016C54.3846 7.81905 53.8896 7.59791 53.2506 7.59791C52.6656 7.59791 52.1616 7.79251 51.7566 8.18171C51.3516 8.5709 51.1536 9.08393 51.1536 9.71195C51.1536 10.34 51.3516 10.853 51.7566 11.2422C52.1616 11.6314 52.6566 11.826 53.2506 11.826C53.8986 11.826 54.4476 11.5695 54.9065 11.0564L55.3925 11.5341C55.1495 11.826 54.8346 12.056 54.4656 12.224C54.0966 12.4186 53.6916 12.4982 53.2596 12.4982Z" fill="white" stroke="white" stroke-width="0.0336945" stroke-miterlimit="10"/>
  <path d="M58.2098 12.3839H57.5168V7.73121H56.0049V7.07666H59.7128V7.73121H58.2008V12.3839H58.2098Z" fill="white" stroke="white" stroke-width="0.0336945" stroke-miterlimit="10"/>
  <path d="M64.4826 7.07666L62.4396 11.5524C62.1606 12.1804 61.7376 12.4988 61.1796 12.4988C61.0176 12.4988 60.8376 12.4635 60.6396 12.3839L60.8196 11.7558C60.9366 11.8178 61.0536 11.8531 61.1796 11.8531C61.3416 11.8531 61.4676 11.8266 61.5576 11.7647C61.6476 11.7028 61.7286 11.5878 61.8006 11.4286L61.9986 11.004L60.1807 7.07666H60.9996L62.3316 10.1195H62.3586L63.6636 7.07666H64.4826Z" fill="white" stroke="white" stroke-width="0.0336945" stroke-miterlimit="10"/>
  <path d="M65.2656 12.3839V7.07666H69.1715V12.3839H68.4785V7.73121H65.9586V12.3839H65.2656Z" fill="white" stroke="white" stroke-width="0.0336945" stroke-miterlimit="10"/>
  <path d="M70.4048 12.3839V7.07666H71.0978V9.34991H73.7977V7.07666H74.4907V12.3839H73.7977V9.98677H71.0978V12.3839H70.4048Z" fill="white" stroke="white" stroke-width="0.0336945" stroke-miterlimit="10"/>
  <path d="M80.1513 11.6942C79.6203 12.2337 78.9633 12.4991 78.1713 12.4991C77.3794 12.4991 76.7224 12.2337 76.1914 11.6942C75.6604 11.1546 75.3994 10.5 75.3994 9.7305C75.3994 8.96096 75.6604 8.29756 76.1914 7.76684C76.7224 7.22727 77.3794 6.96191 78.1713 6.96191C78.9543 6.96191 79.6113 7.22727 80.1513 7.76684C80.6823 8.3064 80.9523 8.96096 80.9523 9.7305C80.9433 10.5089 80.6823 11.1634 80.1513 11.6942ZM76.7044 11.2519C77.1004 11.6499 77.5954 11.8445 78.1713 11.8445C78.7473 11.8445 79.2423 11.6499 79.6383 11.2519C80.0343 10.8539 80.2413 10.3497 80.2413 9.7305C80.2413 9.11133 80.0433 8.60714 79.6383 8.20911C79.2333 7.81107 78.7473 7.60762 78.1713 7.60762C77.5954 7.60762 77.1004 7.80222 76.7044 8.20026C76.3084 8.5983 76.1014 9.10248 76.1014 9.72166C76.1014 10.3408 76.2994 10.8539 76.7044 11.2519Z" fill="white" stroke="white" stroke-width="0.0336945" stroke-miterlimit="10"/>
  <path d="M83.7783 12.3839V7.07666H85.7313C86.1543 7.07666 86.5233 7.21819 86.8293 7.48355C87.1442 7.7666 87.2972 8.10272 87.2972 8.51845C87.2972 8.77496 87.2342 8.9961 87.0992 9.18185C86.9642 9.37645 86.7933 9.51797 86.5683 9.61527V9.6418C86.8383 9.73026 87.0542 9.88063 87.2252 10.1018C87.3962 10.3229 87.4862 10.5706 87.4862 10.8536C87.4862 11.287 87.3242 11.6497 87.0002 11.9327C86.6673 12.2423 86.2803 12.3839 85.8393 12.3839H83.7783ZM84.4713 9.34991H85.7313C85.9923 9.34991 86.1993 9.26146 86.3613 9.09339C86.5233 8.92533 86.5953 8.73958 86.5953 8.53614C86.5953 8.3327 86.5233 8.14695 86.3613 7.97888C86.2083 7.81082 86.0103 7.72237 85.7583 7.72237H84.4713V9.34991ZM84.4713 11.7293H85.8663C86.1363 11.7293 86.3523 11.6408 86.5143 11.4551C86.6762 11.2693 86.7663 11.0747 86.7663 10.8536C86.7663 10.6325 86.6853 10.4379 86.5053 10.261C86.3343 10.0841 86.1093 9.98677 85.8303 9.98677H84.4623V11.7293H84.4713Z" fill="white" stroke="white" stroke-width="0.0336945" stroke-miterlimit="10"/>
  </g>
  <defs>
  <linearGradient id="paint0_linear_561_9338" x1="19.8637" y1="8.58728" x2="5.02565" y2="23.8711" gradientUnits="userSpaceOnUse">
  <stop stop-color="#00A0FF"/>
  <stop offset="0.00657445" stop-color="#00A1FF"/>
  <stop offset="0.2601" stop-color="#00BEFF"/>
  <stop offset="0.5122" stop-color="#00D2FF"/>
  <stop offset="0.7604" stop-color="#00DFFF"/>
  <stop offset="1" stop-color="#00E3FF"/>
  </linearGradient>
  <linearGradient id="paint1_linear_561_9338" x1="30.8291" y1="18.5751" x2="8.78316" y2="18.5751" gradientUnits="userSpaceOnUse">
  <stop stop-color="#FFE000"/>
  <stop offset="0.4087" stop-color="#FFBD00"/>
  <stop offset="0.7754" stop-color="#FFA500"/>
  <stop offset="1" stop-color="#FF9C00"/>
  </linearGradient>
  <linearGradient id="paint2_linear_561_9338" x1="22.6222" y1="20.6052" x2="2.5006" y2="41.3313" gradientUnits="userSpaceOnUse">
  <stop stop-color="#FF3A44"/>
  <stop offset="1" stop-color="#C31162"/>
  </linearGradient>
  <linearGradient id="paint3_linear_561_9338" x1="6.65066" y1="1.03949" x2="15.6359" y2="10.2946" gradientUnits="userSpaceOnUse">
  <stop stop-color="#32A071"/>
  <stop offset="0.0685" stop-color="#2DA771"/>
  <stop offset="0.4762" stop-color="#15CF74"/>
  <stop offset="0.8009" stop-color="#06E775"/>
  <stop offset="1" stop-color="#00F076"/>
  </linearGradient>
  <clipPath id="clip0_561_9338">
  <rect width="123" height="37" fill="white"/>
  </clipPath>
  </defs>
</svg>
