<svg width="24" height="24" viewBox="0 0 24 24" fill="none" xmlns="http://www.w3.org/2000/svg">
<path d="M19.2673 8.85437L19.2677 8.85585C20.3119 13.4611 17.3714 16.7668 15.1151 19.3033C15.0557 19.37 14.9968 19.4363 14.9384 19.502C14.8786 19.5693 14.8193 19.6364 14.7604 19.703C14.2978 20.226 13.8596 20.7215 13.3947 21.111C12.8723 21.5487 12.421 21.76 11.9989 21.76C11.5985 21.76 11.1644 21.5395 10.6298 21.0726C10.3704 20.8461 10.1131 20.5849 9.8431 20.3033C9.79303 20.2511 9.74223 20.1979 9.69085 20.1441C9.48574 19.9292 9.27148 19.7047 9.05849 19.4977C8.69717 19.0338 8.33925 18.5911 7.99214 18.1618C5.64403 15.2578 3.79066 12.9656 4.73018 8.8572L4.7304 8.85622C5.69762 4.60045 8.78521 2.75 11.9889 2.75H11.9989C15.2155 2.75 18.3101 4.5928 19.2673 8.85437Z" stroke="#333232" stroke-width="1.5"/>
<path d="M12.12 13.24C13.8431 13.24 15.24 11.8431 15.24 10.12C15.24 8.39687 13.8431 7 12.12 7C10.3969 7 9 8.39687 9 10.12C9 11.8431 10.3969 13.24 12.12 13.24Z" stroke="#333232" stroke-width="1.5"/>
</svg>
