<svg width="20" height="20" viewBox="0 0 20 20" fill="none" xmlns="http://www.w3.org/2000/svg">
<path d="M4.16602 8.33268H5.83268C7.49935 8.33268 8.33268 7.49935 8.33268 5.83268V4.16602C8.33268 2.49935 7.49935 1.66602 5.83268 1.66602H4.16602C2.49935 1.66602 1.66602 2.49935 1.66602 4.16602V5.83268C1.66602 7.49935 2.49935 8.33268 4.16602 8.33268Z" stroke="#2AC6FA" stroke-width="1.5" stroke-miterlimit="10" stroke-linecap="round" stroke-linejoin="round"/>
<path d="M14.166 8.33268H15.8327C17.4993 8.33268 18.3327 7.49935 18.3327 5.83268V4.16602C18.3327 2.49935 17.4993 1.66602 15.8327 1.66602H14.166C12.4993 1.66602 11.666 2.49935 11.666 4.16602V5.83268C11.666 7.49935 12.4993 8.33268 14.166 8.33268Z" stroke="#2AC6FA" stroke-width="1.5" stroke-miterlimit="10" stroke-linecap="round" stroke-linejoin="round"/>
<path d="M14.166 18.3327H15.8327C17.4993 18.3327 18.3327 17.4993 18.3327 15.8327V14.166C18.3327 12.4993 17.4993 11.666 15.8327 11.666H14.166C12.4993 11.666 11.666 12.4993 11.666 14.166V15.8327C11.666 17.4993 12.4993 18.3327 14.166 18.3327Z" stroke="#2AC6FA" stroke-width="1.5" stroke-miterlimit="10" stroke-linecap="round" stroke-linejoin="round"/>
<path d="M4.16602 18.3327H5.83268C7.49935 18.3327 8.33268 17.4993 8.33268 15.8327V14.166C8.33268 12.4993 7.49935 11.666 5.83268 11.666H4.16602C2.49935 11.666 1.66602 12.4993 1.66602 14.166V15.8327C1.66602 17.4993 2.49935 18.3327 4.16602 18.3327Z" stroke="#2AC6FA" stroke-width="1.5" stroke-miterlimit="10" stroke-linecap="round" stroke-linejoin="round"/>
</svg>
