<svg width="11" height="9" viewBox="0 0 11 9" fill="none" xmlns="http://www.w3.org/2000/svg">
<path fill-rule="evenodd" clip-rule="evenodd" d="M2.46368 0.145198C1.87259 0.273629 1.44356 0.50634 1.0237 0.926271C0.445862 1.50419 0.161426 2.21858 0.161133 3.09266C0.160962 3.64594 0.271524 4.07227 0.563709 4.64488C0.8754 5.25572 1.27754 5.77818 1.96655 6.46744C2.6805 7.18165 3.50557 7.84906 4.47081 8.49317C4.97642 8.83055 5.14812 8.89822 5.49872 8.89822C5.88888 8.89822 6.0354 8.83346 6.73449 8.35213C8.57782 7.08292 9.86379 5.78861 10.4581 4.60438C10.7312 4.06 10.8391 3.63181 10.839 3.09266C10.8387 2.21821 10.5534 1.50196 9.97638 0.9272C9.71476 0.666573 9.53025 0.533058 9.2157 0.37676C8.79406 0.167246 8.39026 0.0857487 7.86649 0.104473C7.41678 0.120533 7.13885 0.190371 6.73449 0.388933C6.30815 0.598275 5.98062 0.849295 5.69308 1.18707C5.60772 1.28732 5.52114 1.36933 5.50066 1.36933C5.48015 1.36933 5.40461 1.30056 5.33277 1.21655C4.91245 0.724922 4.3043 0.332955 3.72384 0.179615C3.39227 0.092031 2.78478 0.0754331 2.46368 0.145198ZM3.41004 0.760562C4.06278 0.870244 4.67893 1.30976 5.12201 1.98176C5.28875 2.23459 5.36474 2.29822 5.50004 2.29822C5.63417 2.29822 5.70768 2.23591 5.88089 1.97535C6.26418 1.39883 6.75023 1.01119 7.33338 0.81698C7.53067 0.751273 7.56335 0.747802 7.98116 0.747802C8.39891 0.747802 8.43167 0.751298 8.62893 0.816955C9.25498 1.02539 9.72008 1.4374 9.99086 2.02344C10.1744 2.42061 10.2574 2.99019 10.1952 3.42413C10.012 4.70152 8.69449 6.22282 6.36782 7.84368C5.84368 8.20883 5.72513 8.26696 5.50476 8.26696C5.28061 8.26696 5.1984 8.229 4.72276 7.90572C2.39619 6.32441 0.99024 4.71631 0.804951 3.42457C0.685613 2.5927 1.03187 1.67481 1.64261 1.20403C2.17157 0.7963 2.75356 0.650269 3.41004 0.760562Z" fill="#737373"/>
</svg>
