<svg width="18" height="19" viewBox="0 0 18 19" fill="none" xmlns="http://www.w3.org/2000/svg">
<path fill-rule="evenodd" clip-rule="evenodd" d="M4.03147 2.37365C3.06423 2.58381 2.36219 2.96461 1.67515 3.65177C0.729592 4.59745 0.264152 5.76645 0.263672 7.19677C0.263392 8.10213 0.444312 8.79977 0.922432 9.73677C1.43247 10.7363 2.09051 11.5913 3.21799 12.7191C4.38627 13.8879 5.73639 14.98 7.31587 16.034C8.14323 16.5861 8.42419 16.6968 8.99791 16.6968C9.63635 16.6968 9.87611 16.5908 11.0201 15.8032C14.0364 13.7263 16.1408 11.6083 17.1132 9.67049C17.5602 8.77969 17.7368 8.07901 17.7365 7.19677C17.736 5.76585 17.2692 4.59381 16.325 3.65329C15.8969 3.22681 15.595 3.00833 15.0802 2.75257C14.3903 2.40973 13.7295 2.27637 12.8724 2.30701C12.1366 2.33329 11.6818 2.44757 11.0201 2.77249C10.3224 3.11505 9.78647 3.52581 9.31595 4.07853C9.17627 4.24257 9.03459 4.37677 9.00107 4.37677C8.96751 4.37677 8.84391 4.26425 8.72635 4.12677C8.03855 3.32229 7.04339 2.68089 6.09355 2.42997C5.55099 2.28665 4.55691 2.25949 4.03147 2.37365ZM5.58007 3.38061C6.64819 3.56009 7.65643 4.27929 8.38147 5.37893C8.65431 5.79265 8.77867 5.89677 9.00007 5.89677C9.21955 5.89677 9.33983 5.79481 9.62327 5.36845C10.2505 4.42505 11.0458 3.79073 12.0001 3.47293C12.3229 3.36541 12.3764 3.35973 13.0601 3.35973C13.7437 3.35973 13.7973 3.36545 14.1201 3.47289C15.1445 3.81397 15.9056 4.48817 16.3487 5.44713C16.649 6.09705 16.7849 7.02909 16.6831 7.73917C16.3832 9.82945 14.2274 12.3189 10.4201 14.9712C9.56239 15.5687 9.36839 15.6638 9.00779 15.6638C8.64099 15.6638 8.50647 15.6017 7.72815 15.0727C3.92103 12.4851 1.62039 9.85365 1.31719 7.73989C1.12191 6.37865 1.68851 4.87665 2.68791 4.10629C3.55347 3.43909 4.50583 3.20013 5.58007 3.38061Z" fill="#2AC6FA"/>
</svg>
