<svg width="25" height="24" viewBox="0 0 25 24" fill="none" xmlns="http://www.w3.org/2000/svg">
<path fill-rule="evenodd" clip-rule="evenodd" d="M4.33033 8.83033C3.6398 9.52086 3.25 10.674 3.25 12.6V16.4C3.25 18.326 3.6398 19.4791 4.33033 20.1697C5.02086 20.8602 6.17397 21.25 8.1 21.25H11.9C13.826 21.25 14.9791 20.8602 15.6697 20.1697C16.3602 19.4791 16.75 18.326 16.75 16.4V13.4C16.75 12.9858 17.0858 12.65 17.5 12.65C17.9142 12.65 18.25 12.9858 18.25 13.4V16.4C18.25 18.474 17.8398 20.1209 16.7303 21.2303C15.6209 22.3398 13.974 22.75 11.9 22.75H8.1C6.02603 22.75 4.37914 22.3398 3.26967 21.2303C2.1602 20.1209 1.75 18.474 1.75 16.4V12.6C1.75 10.526 2.1602 8.87914 3.26967 7.76967C4.37914 6.6602 6.02603 6.25 8.1 6.25H11.1C11.5142 6.25 11.85 6.58579 11.85 7C11.85 7.41421 11.5142 7.75 11.1 7.75H8.1C6.17397 7.75 5.02086 8.1398 4.33033 8.83033Z" fill="#2AC6FA"/>
<path fill-rule="evenodd" clip-rule="evenodd" d="M10.8126 6.30711C11.0929 6.19103 11.4154 6.25519 11.6299 6.46969L18.0299 12.8697C18.2444 13.0842 18.3086 13.4068 18.1925 13.687C18.0764 13.9673 17.803 14.15 17.4996 14.15H14.2996C13.0581 14.15 11.9917 13.9528 11.2693 13.2304C10.5469 12.5079 10.3496 11.4416 10.3496 10.2V7.00002C10.3496 6.69668 10.5323 6.4232 10.8126 6.30711ZM11.8496 8.81068V10.2C11.8496 11.3585 12.0524 11.8921 12.3299 12.1697C12.6075 12.4473 13.1412 12.65 14.2996 12.65H15.6889L11.8496 8.81068Z" fill="#2AC6FA"/>
<path d="M12.0996 2H16.0996" stroke="#2AC6FA" stroke-width="1.5" stroke-linecap="round" stroke-linejoin="round"/>
<path fill-rule="evenodd" clip-rule="evenodd" d="M10.5 2.75C9.25421 2.75 8.25 3.75421 8.25 5C8.25 5.41421 7.91421 5.75 7.5 5.75C7.08579 5.75 6.75 5.41421 6.75 5C6.75 2.92579 8.42579 1.25 10.5 1.25H13.12C13.5342 1.25 13.87 1.58579 13.87 2C13.87 2.41421 13.5342 2.75 13.12 2.75H10.5Z" fill="#2AC6FA"/>
<path fill-rule="evenodd" clip-rule="evenodd" d="M22.5004 7.25C22.9146 7.25 23.2504 7.58579 23.2504 8V14.19C23.2504 16.1542 21.6546 17.75 19.6904 17.75C19.2762 17.75 18.9404 17.4142 18.9404 17C18.9404 16.5858 19.2762 16.25 19.6904 16.25C20.8262 16.25 21.7504 15.3258 21.7504 14.19V8C21.7504 7.58579 22.0862 7.25 22.5004 7.25Z" fill="#2AC6FA"/>
<path fill-rule="evenodd" clip-rule="evenodd" d="M16.213 1.30711C16.4932 1.19103 16.8158 1.25519 17.0303 1.46969L23.0303 7.46969C23.2448 7.68419 23.309 8.00678 23.1929 8.28703C23.0768 8.56729 22.8033 8.75002 22.5 8.75002H19.5C18.3335 8.75002 17.3171 8.56527 16.6259 7.8741C15.9347 7.18293 15.75 6.16657 15.75 5.00002V2.00002C15.75 1.69668 15.9327 1.4232 16.213 1.30711ZM17.25 3.81068V5.00002C17.25 6.08347 17.4403 6.56711 17.6866 6.81344C17.9329 7.05977 18.4165 7.25002 19.5 7.25002H20.6893L17.25 3.81068Z" fill="#2AC6FA"/>
</svg>
