<svg width="35" height="34" viewBox="0 0 35 34" fill="none" xmlns="http://www.w3.org/2000/svg">
<rect x="0.5" width="34" height="34" rx="17" fill="#47D3FF" fill-opacity="0.15"/>
<path fill-rule="evenodd" clip-rule="evenodd" d="M10.079 9.57891C11.191 8.46685 12.8551 8.04169 15.0001 8.04169H20.0001C22.1451 8.04169 23.8091 8.46685 24.9212 9.57891C26.0332 10.691 26.4584 12.355 26.4584 14.5V19.5C26.4584 21.645 26.0332 23.3091 24.9212 24.4211C23.8091 25.5332 22.1451 25.9584 20.0001 25.9584H15.0001C12.8551 25.9584 11.191 25.5332 10.079 24.4211C8.96692 23.3091 8.54175 21.645 8.54175 19.5V14.5C8.54175 12.355 8.96692 10.691 10.079 9.57891ZM10.9629 10.4628C10.1999 11.2257 9.79175 12.4783 9.79175 14.5V19.5C9.79175 21.5217 10.1999 22.7743 10.9629 23.5372C11.7258 24.3002 12.9784 24.7084 15.0001 24.7084H20.0001C22.0218 24.7084 23.2744 24.3002 24.0373 23.5372C24.8002 22.7743 25.2084 21.5217 25.2084 19.5V14.5C25.2084 12.4783 24.8002 11.2257 24.0373 10.4628C23.2744 9.69985 22.0218 9.29169 20.0001 9.29169H15.0001C12.9784 9.29169 11.7258 9.69985 10.9629 10.4628Z" fill="#2AC6FA"/>
<path fill-rule="evenodd" clip-rule="evenodd" d="M13.75 14.5C13.75 14.1548 14.0298 13.875 14.375 13.875H20.625C20.9702 13.875 21.25 14.1548 21.25 14.5C21.25 14.8452 20.9702 15.125 20.625 15.125H14.375C14.0298 15.125 13.75 14.8452 13.75 14.5Z" fill="#2AC6FA"/>
<path fill-rule="evenodd" clip-rule="evenodd" d="M13.5417 19.5C13.5417 19.1548 13.8216 18.875 14.1667 18.875H17.5001C17.8453 18.875 18.1251 19.1548 18.1251 19.5C18.1251 19.8452 17.8453 20.125 17.5001 20.125H14.1667C13.8216 20.125 13.5417 19.8452 13.5417 19.5Z" fill="#2AC6FA"/>
</svg>
