<svg width="34" height="34" viewBox="0 0 34 34" fill="none" xmlns="http://www.w3.org/2000/svg">
<rect width="34" height="34" rx="17" fill="#FF8947" fill-opacity="0.15"/>
<path fill-rule="evenodd" clip-rule="evenodd" d="M8.84981 8.84975C9.42502 8.27453 10.2371 8.04169 11.1667 8.04169H12.8334C13.7631 8.04169 14.5751 8.27453 15.1504 8.84975C15.7256 9.42496 15.9584 10.237 15.9584 11.1667V12.8334C15.9584 13.763 15.7256 14.5751 15.1504 15.1503C14.5751 15.7255 13.7631 15.9584 12.8334 15.9584H11.1667C10.2371 15.9584 9.42502 15.7255 8.84981 15.1503C8.27459 14.5751 8.04175 13.763 8.04175 12.8334V11.1667C8.04175 10.237 8.27459 9.42496 8.84981 8.84975ZM9.73369 9.73363C9.47557 9.99175 9.29175 10.4297 9.29175 11.1667V12.8334C9.29175 13.5703 9.47557 14.0083 9.73369 14.2664C9.99181 14.5245 10.4298 14.7084 11.1667 14.7084H12.8334C13.5704 14.7084 14.0084 14.5245 14.2665 14.2664C14.5246 14.0083 14.7084 13.5703 14.7084 12.8334V11.1667C14.7084 10.4297 14.5246 9.99175 14.2665 9.73363C14.0084 9.47551 13.5704 9.29169 12.8334 9.29169H11.1667C10.4298 9.29169 9.99181 9.47551 9.73369 9.73363Z" fill="#FF8947"/>
<path fill-rule="evenodd" clip-rule="evenodd" d="M18.8498 8.84975C19.425 8.27453 20.2371 8.04169 21.1667 8.04169H22.8334C23.7631 8.04169 24.5751 8.27453 25.1504 8.84975C25.7256 9.42496 25.9584 10.237 25.9584 11.1667V12.8334C25.9584 13.763 25.7256 14.5751 25.1504 15.1503C24.5751 15.7255 23.7631 15.9584 22.8334 15.9584H21.1667C20.2371 15.9584 19.425 15.7255 18.8498 15.1503C18.2746 14.5751 18.0417 13.763 18.0417 12.8334V11.1667C18.0417 10.237 18.2746 9.42496 18.8498 8.84975ZM19.7337 9.73363C19.4756 9.99175 19.2917 10.4297 19.2917 11.1667V12.8334C19.2917 13.5703 19.4756 14.0083 19.7337 14.2664C19.9918 14.5245 20.4298 14.7084 21.1667 14.7084H22.8334C23.5704 14.7084 24.0084 14.5245 24.2665 14.2664C24.5246 14.0083 24.7084 13.5703 24.7084 12.8334V11.1667C24.7084 10.4297 24.5246 9.99175 24.2665 9.73363C24.0084 9.47551 23.5704 9.29169 22.8334 9.29169H21.1667C20.4298 9.29169 19.9918 9.47551 19.7337 9.73363Z" fill="#FF8947"/>
<path fill-rule="evenodd" clip-rule="evenodd" d="M18.8498 18.8497C19.425 18.2745 20.2371 18.0417 21.1667 18.0417H22.8334C23.7631 18.0417 24.5751 18.2745 25.1504 18.8497C25.7256 19.425 25.9584 20.237 25.9584 21.1667V22.8334C25.9584 23.763 25.7256 24.5751 25.1504 25.1503C24.5751 25.7255 23.7631 25.9584 22.8334 25.9584H21.1667C20.2371 25.9584 19.425 25.7255 18.8498 25.1503C18.2746 24.5751 18.0417 23.763 18.0417 22.8334V21.1667C18.0417 20.237 18.2746 19.425 18.8498 18.8497ZM19.7337 19.7336C19.4756 19.9917 19.2917 20.4297 19.2917 21.1667V22.8334C19.2917 23.5703 19.4756 24.0083 19.7337 24.2664C19.9918 24.5245 20.4298 24.7084 21.1667 24.7084H22.8334C23.5704 24.7084 24.0084 24.5245 24.2665 24.2664C24.5246 24.0083 24.7084 23.5703 24.7084 22.8334V21.1667C24.7084 20.4297 24.5246 19.9917 24.2665 19.7336C24.0084 19.4755 23.5704 19.2917 22.8334 19.2917H21.1667C20.4298 19.2917 19.9918 19.4755 19.7337 19.7336Z" fill="#FF8947"/>
<path fill-rule="evenodd" clip-rule="evenodd" d="M8.84981 18.8497C9.42502 18.2745 10.2371 18.0417 11.1667 18.0417H12.8334C13.7631 18.0417 14.5751 18.2745 15.1504 18.8497C15.7256 19.425 15.9584 20.237 15.9584 21.1667V22.8334C15.9584 23.763 15.7256 24.5751 15.1504 25.1503C14.5751 25.7255 13.7631 25.9584 12.8334 25.9584H11.1667C10.2371 25.9584 9.42502 25.7255 8.84981 25.1503C8.27459 24.5751 8.04175 23.763 8.04175 22.8334V21.1667C8.04175 20.237 8.27459 19.425 8.84981 18.8497ZM9.73369 19.7336C9.47557 19.9917 9.29175 20.4297 9.29175 21.1667V22.8334C9.29175 23.5703 9.47557 24.0083 9.73369 24.2664C9.99181 24.5245 10.4298 24.7084 11.1667 24.7084H12.8334C13.5704 24.7084 14.0084 24.5245 14.2665 24.2664C14.5246 24.0083 14.7084 23.5703 14.7084 22.8334V21.1667C14.7084 20.4297 14.5246 19.9917 14.2665 19.7336C14.0084 19.4755 13.5704 19.2917 12.8334 19.2917H11.1667C10.4298 19.2917 9.99181 19.4755 9.73369 19.7336Z" fill="#FF8947"/>
</svg>
