<svg xmlns="http://www.w3.org/2000/svg" width="20" height="21" viewBox="0 0 20 21" fill="none">
<path fill-rule="evenodd" clip-rule="evenodd" d="M19.6898 6.28698C19.6003 6.17898 15.0454 1.66373 14.3398 0.983765C14.0916 0.744461 13.9771 0.675561 13.8084 0.663731C13.1404 0.617015 5.9889 0.701199 5.85524 0.757378C5.66221 0.838514 0.198872 6.34622 0.124844 6.53428C0.0544608 6.71328 0.103096 14.5045 0.175704 14.6772C0.260022 14.8778 5.79441 20.3435 5.98989 20.4193C6.23389 20.5137 13.8624 20.457 14.0957 20.3589C14.2226 20.3056 15.1985 19.3552 17.0469 17.4847C18.5657 15.9477 19.826 14.6484 19.8476 14.5973C19.8907 14.4952 19.8582 6.78212 19.8137 6.5483C19.7985 6.46851 19.7427 6.35092 19.6898 6.28698ZM17.0671 6.93625L15.9848 7.37422L15.2064 6.60495C14.7249 6.12907 14.3676 5.8197 14.2693 5.79374C14.176 5.76899 14.0155 5.79107 13.8798 5.84728C13.695 5.92383 13.6312 5.98687 13.559 6.16394C13.4209 6.50299 13.5211 6.66369 14.4321 7.56417L15.2318 8.3547L15.2387 9.4832C15.2425 10.1139 15.2784 10.6899 15.32 10.7888C15.4124 11.0088 15.7333 11.1847 15.9646 11.1423C16.0634 11.1242 16.1965 11.0454 16.2912 10.949C16.4656 10.7716 16.4827 10.6006 16.4665 9.19306L16.4588 8.52251L17.5351 8.07013L18.6114 7.61775L18.6179 8.50815C18.6215 8.99783 18.6291 10.3039 18.6348 11.4105L18.6451 13.4225L17.2824 12.8721C15.9483 12.3332 15.915 12.3237 15.6951 12.4161C15.5262 12.4871 15.0621 12.9234 13.8293 14.1701L12.1882 15.8296L10.0741 15.837C8.91135 15.8411 7.92746 15.8445 7.88767 15.8445C7.84789 15.8446 7.45772 15.4861 7.02065 15.0478C6.58358 14.6096 6.14476 14.2179 6.04556 14.1773C5.77288 14.0658 5.42241 14.2289 5.3025 14.5232C5.16259 14.8665 5.27139 15.0468 6.12221 15.8807L6.85715 16.601L6.42444 17.6749C6.18644 18.2655 5.96837 18.738 5.93982 18.7247C5.87821 18.6962 1.89811 14.7534 1.87467 14.6976C1.86582 14.6766 2.43919 14.4152 3.14879 14.1169C4.27084 13.6452 4.45814 13.5522 4.5854 13.4034C4.72589 13.2392 4.73128 13.1345 4.71778 10.818L4.70367 8.40361L6.23836 6.85348L7.77296 5.30333L10.0917 5.29261C11.3671 5.28674 12.4783 5.26818 12.5612 5.25138C12.644 5.23456 12.7656 5.15508 12.8313 5.07474C12.897 4.99443 13.1847 4.35064 13.4707 3.64408L13.9907 2.35949L16.0479 4.38989C17.1793 5.50662 18.1151 6.43787 18.1273 6.45932C18.1395 6.48076 17.6624 6.69539 17.0671 6.93625ZM11.8857 4.03337C11.8224 4.04647 10.9054 4.0602 9.84811 4.06374L7.92569 4.07026L7.48082 3.01186C7.23613 2.42971 7.05668 1.94467 7.082 1.93403C7.1177 1.91902 9.78606 1.89919 12.6421 1.89268L12.8581 1.89221L12.4295 2.95084C12.1103 3.73902 11.9715 4.01557 11.8857 4.03337ZM14.7121 18.0935L14.0854 18.725L13.6329 17.6485L13.1804 16.5718L14.5935 15.1442L16.0066 13.7165L17.0874 14.1573L18.1682 14.5979L16.7535 16.03C15.9755 16.8176 15.0569 17.7462 14.7121 18.0935ZM5.40364 5.94897C4.6327 6.72799 3.98124 7.37405 3.95586 7.38472C3.89675 7.40957 1.79607 6.54991 1.81671 6.50934C1.83028 6.48264 2.90096 5.39718 5.22783 3.05115L5.89841 2.37505L6.35186 3.45386L6.80528 4.53261L5.40364 5.94897ZM12.8984 19.215C11.8562 19.2364 7.16078 19.2307 7.15127 19.208C7.14395 19.1906 7.33094 18.7041 7.56682 18.1269L7.99566 17.0774L9.92297 17.067C10.983 17.0613 11.9014 17.0607 11.9637 17.0659C12.066 17.0742 12.1213 17.18 12.5266 18.1443C12.8771 18.9781 12.9589 19.2138 12.8984 19.215ZM3.48174 10.7248L3.49294 12.6562L2.41752 13.1082L1.34216 13.5602L1.33524 12.6073C1.3127 9.49973 1.30493 7.77473 1.31322 7.74636C1.31847 7.72861 1.79857 7.90758 2.38017 8.14405C3.15659 8.45976 3.44195 8.60319 3.45407 8.68371C3.46314 8.74402 3.47558 9.66253 3.48174 10.7248Z" fill="#B8B8B8"/>
<path xmlns="http://www.w3.org/2000/svg" fill-rule="evenodd" clip-rule="evenodd" d="M19.6898 6.28698C19.6003 6.17898 15.0454 1.66373 14.3398 0.983765C14.0916 0.744461 13.9771 0.675561 13.8084 0.663731C13.1404 0.617015 5.9889 0.701199 5.85524 0.757378C5.66221 0.838514 0.198872 6.34622 0.124844 6.53428C0.0544608 6.71328 0.103096 14.5045 0.175704 14.6772C0.260022 14.8778 5.79441 20.3435 5.98989 20.4193C6.23389 20.5137 13.8624 20.457 14.0957 20.3589C14.2226 20.3056 15.1985 19.3552 17.0469 17.4847C18.5657 15.9477 19.826 14.6484 19.8476 14.5973C19.8907 14.4952 19.8582 6.78212 19.8137 6.5483C19.7985 6.46851 19.7427 6.35092 19.6898 6.28698ZM17.0671 6.93625L15.9848 7.37422L15.2064 6.60495C14.7249 6.12907 14.3676 5.8197 14.2693 5.79374C14.176 5.76899 14.0155 5.79107 13.8798 5.84728C13.695 5.92383 13.6312 5.98687 13.559 6.16394C13.4209 6.50299 13.5211 6.66369 14.4321 7.56417L15.2318 8.3547L15.2387 9.4832C15.2425 10.1139 15.2784 10.6899 15.32 10.7888C15.4124 11.0088 15.7333 11.1847 15.9646 11.1423C16.0634 11.1242 16.1965 11.0454 16.2912 10.949C16.4656 10.7716 16.4827 10.6006 16.4665 9.19306L16.4588 8.52251L17.5351 8.07013L18.6114 7.61775L18.6179 8.50815C18.6215 8.99783 18.6291 10.3039 18.6348 11.4105L18.6451 13.4225L17.2824 12.8721C15.9483 12.3332 15.915 12.3237 15.6951 12.4161C15.5262 12.4871 15.0621 12.9234 13.8293 14.1701L12.1882 15.8296L10.0741 15.837C8.91135 15.8411 7.92746 15.8445 7.88767 15.8445C7.84789 15.8446 7.45772 15.4861 7.02065 15.0478C6.58358 14.6096 6.14476 14.2179 6.04556 14.1773C5.77288 14.0658 5.42241 14.2289 5.3025 14.5232C5.16259 14.8665 5.27139 15.0468 6.12221 15.8807L6.85715 16.601L6.42444 17.6749C6.18644 18.2655 5.96837 18.738 5.93982 18.7247C5.87821 18.6962 1.89811 14.7534 1.87467 14.6976C1.86582 14.6766 2.43919 14.4152 3.14879 14.1169C4.27084 13.6452 4.45814 13.5522 4.5854 13.4034C4.72589 13.2392 4.73128 13.1345 4.71778 10.818L4.70367 8.40361L6.23836 6.85348L7.77296 5.30333L10.0917 5.29261C11.3671 5.28674 12.4783 5.26818 12.5612 5.25138C12.644 5.23456 12.7656 5.15508 12.8313 5.07474C12.897 4.99443 13.1847 4.35064 13.4707 3.64408L13.9907 2.35949L16.0479 4.38989C17.1793 5.50662 18.1151 6.43787 18.1273 6.45932C18.1395 6.48076 17.6624 6.69539 17.0671 6.93625ZM11.8857 4.03337C11.8224 4.04647 10.9054 4.0602 9.84811 4.06374L7.92569 4.07026L7.48082 3.01186C7.23613 2.42971 7.05668 1.94467 7.082 1.93403C7.1177 1.91902 9.78606 1.89919 12.6421 1.89268L12.8581 1.89221L12.4295 2.95084C12.1103 3.73902 11.9715 4.01557 11.8857 4.03337ZM14.7121 18.0935L14.0854 18.725L13.6329 17.6485L13.1804 16.5718L14.5935 15.1442L16.0066 13.7165L17.0874 14.1573L18.1682 14.5979L16.7535 16.03C15.9755 16.8176 15.0569 17.7462 14.7121 18.0935ZM5.40364 5.94897C4.6327 6.72799 3.98124 7.37405 3.95586 7.38472C3.89675 7.40957 1.79607 6.54991 1.81671 6.50934C1.83028 6.48264 2.90096 5.39718 5.22783 3.05115L5.89841 2.37505L6.35186 3.45386L6.80528 4.53261L5.40364 5.94897ZM12.8984 19.215C11.8562 19.2364 7.16078 19.2307 7.15127 19.208C7.14395 19.1906 7.33094 18.7041 7.56682 18.1269L7.99566 17.0774L9.92297 17.067C10.983 17.0613 11.9014 17.0607 11.9637 17.0659C12.066 17.0742 12.1213 17.18 12.5266 18.1443C12.8771 18.9781 12.9589 19.2138 12.8984 19.215ZM3.48174 10.7248L3.49294 12.6562L2.41752 13.1082L1.34216 13.5602L1.33524 12.6073C1.3127 9.49973 1.30493 7.77473 1.31322 7.74636C1.31847 7.72861 1.79857 7.90758 2.38017 8.14405C3.15659 8.45976 3.44195 8.60319 3.45407 8.68371C3.46314 8.74402 3.47558 9.66253 3.48174 10.7248Z" fill="#B8B8B8"/>
</svg>