<svg width="24" height="24" viewBox="0 0 24 24" fill="none" xmlns="http://www.w3.org/2000/svg">
<path d="M19.2682 8.85437L19.2685 8.85585C20.3128 13.4611 17.3722 16.7668 15.116 19.3033C15.0566 19.37 14.9977 19.4363 14.9393 19.502C14.8795 19.5693 14.8202 19.6364 14.7613 19.703C14.2987 20.226 13.8605 20.7215 13.3956 21.111C12.8732 21.5487 12.4218 21.76 11.9998 21.76C11.5994 21.76 11.1653 21.5395 10.6307 21.0726C10.3713 20.8461 10.114 20.5849 9.84398 20.3033C9.79392 20.2511 9.74311 20.1979 9.69174 20.1441C9.48663 19.9292 9.27236 19.7047 9.05937 19.4977C8.69806 19.0338 8.34014 18.5911 7.99302 18.1618C5.64492 15.2578 3.79155 12.9656 4.73106 8.8572L4.73129 8.85622C5.69851 4.60045 8.7861 2.75 11.9898 2.75H11.9998C15.2164 2.75 18.311 4.5928 19.2682 8.85437Z" stroke="#333232" stroke-width="1.5"/>
<path d="M12.12 13.24C13.8431 13.24 15.24 11.8431 15.24 10.12C15.24 8.39687 13.8431 7 12.12 7C10.3969 7 9 8.39687 9 10.12C9 11.8431 10.3969 13.24 12.12 13.24Z" stroke="#333232" stroke-width="1.5"/>
</svg>
