<svg width="149" height="46" viewBox="0 0 149 46" fill="none" xmlns="http://www.w3.org/2000/svg">
<g clip-path="url(#clip0_1093_23113)">
<path d="M143.481 45.0871H5.51898C2.48381 45.0871 0.000488281 42.6128 0.000488281 39.5886V6.59793C0.000488281 3.57379 2.48381 1.09949 5.51898 1.09949H143.481C146.516 1.09949 149 3.57379 149 6.59793V39.5886C149 42.6128 146.516 45.0871 143.481 45.0871Z" fill="black"/>
<path d="M143.483 1.97924C146.043 1.97924 148.118 4.04665 148.118 6.59793V39.5886C148.118 42.1399 146.043 44.2073 143.483 44.2073H5.52068C2.96011 44.2073 0.885155 42.1399 0.885155 39.5886V6.59793C0.885155 4.04665 2.96011 1.97924 5.52068 1.97924H143.483ZM143.483 1.09949H5.52068C2.48552 1.09949 0.00219727 3.57379 0.00219727 6.59793V39.5886C0.00219727 42.6128 2.48552 45.0871 5.52068 45.0871H143.483C146.518 45.0871 149.001 42.6128 149.001 39.5886V6.59793C149.001 3.57379 146.518 1.09949 143.483 1.09949Z" fill="#A6A6A6"/>
<path d="M75.2069 25.0179C72.6132 25.0179 70.4941 26.9863 70.4941 29.6916C70.4941 32.3858 72.6132 34.3653 75.2069 34.3653C77.8006 34.3653 79.9197 32.3858 79.9197 29.6916C79.9197 26.9863 77.8006 25.0179 75.2069 25.0179ZM75.2069 32.5288C73.7831 32.5288 72.558 31.3631 72.558 29.6916C72.558 28.0091 73.7831 26.8544 75.2069 26.8544C76.6307 26.8544 77.8558 28.0091 77.8558 29.6916C77.8558 31.3631 76.6196 32.5288 75.2069 32.5288ZM64.9204 25.0179C62.3267 25.0179 60.2076 26.9863 60.2076 29.6916C60.2076 32.3858 62.3267 34.3653 64.9204 34.3653C67.5141 34.3653 69.6332 32.3858 69.6332 29.6916C69.6332 26.9863 67.5141 25.0179 64.9204 25.0179ZM64.9204 32.5288C63.4967 32.5288 62.2716 31.3631 62.2716 29.6916C62.2716 28.0091 63.4967 26.8544 64.9204 26.8544C66.3442 26.8544 67.5693 28.0091 67.5693 29.6916C67.5693 31.3631 66.3442 32.5288 64.9204 32.5288ZM52.6915 26.4585V28.4379H57.4594C57.316 29.5486 56.9407 30.3734 56.3778 30.9342C55.6825 31.627 54.6009 32.3858 52.7025 32.3858C49.7667 32.3858 47.471 30.0325 47.471 27.1073C47.471 24.1821 49.7667 21.8288 52.7025 21.8288C54.2808 21.8288 55.4397 22.4446 56.2895 23.2474L57.6912 21.8508C56.4992 20.7181 54.9209 19.8494 52.6915 19.8494C48.674 19.8494 45.2967 23.1044 45.2967 27.1183C45.2967 31.1212 48.674 34.3873 52.6915 34.3873C54.8658 34.3873 56.4992 33.6835 57.7795 32.3528C59.0929 31.0442 59.5013 29.1967 59.5013 27.7121C59.5013 27.2503 59.4682 26.8214 59.3909 26.4695H52.6915V26.4585ZM102.7 27.9981C102.314 26.9534 101.122 25.0179 98.6825 25.0179C96.2654 25.0179 94.2567 26.9094 94.2567 29.6916C94.2567 32.3088 96.2434 34.3653 98.9143 34.3653C101.067 34.3653 102.314 33.0566 102.821 32.2978L101.221 31.2311C100.691 32.0119 99.9628 32.5288 98.9143 32.5288C97.8658 32.5288 97.1153 32.0559 96.6407 31.1102L102.921 28.5259L102.7 27.9981ZM96.2986 29.5596C96.2434 27.7561 97.7003 26.8324 98.7488 26.8324C99.5655 26.8324 100.261 27.2393 100.493 27.8221L96.2986 29.5596ZM91.1995 34.0903H93.2634V20.3442H91.1995V34.0903ZM87.8222 26.0626H87.7449C87.2813 25.5128 86.3984 25.0179 85.2726 25.0179C82.9217 25.0179 80.7695 27.0743 80.7695 29.7136C80.7695 32.3308 82.9217 34.3763 85.2726 34.3763C86.3874 34.3763 87.2813 33.8814 87.7449 33.3096H87.8111V33.9804C87.8111 35.7729 86.8509 36.7296 85.3057 36.7296C84.0475 36.7296 83.2639 35.8279 82.9438 35.0691L81.1448 35.8169C81.6635 37.0595 83.0321 38.5771 85.3057 38.5771C87.7228 38.5771 89.7647 37.1585 89.7647 33.7055V25.3038H87.8111V26.0626H87.8222ZM85.4492 32.5288C84.0254 32.5288 82.8334 31.3411 82.8334 29.7136C82.8334 28.064 84.0254 26.8654 85.4492 26.8654C86.8509 26.8654 87.9546 28.075 87.9546 29.7136C87.9656 31.3411 86.8619 32.5288 85.4492 32.5288ZM112.368 20.3442H107.435V34.0903H109.499V28.8778H112.379C114.664 28.8778 116.905 27.2283 116.905 24.611C116.905 21.9938 114.642 20.3442 112.368 20.3442ZM112.413 26.9644H109.488V22.2467H112.413C113.958 22.2467 114.83 23.5223 114.83 24.6C114.83 25.6777 113.958 26.9644 112.413 26.9644ZM125.149 24.9959C123.659 24.9959 122.114 25.6557 121.474 27.0963L123.306 27.8551C123.692 27.0963 124.421 26.8434 125.182 26.8434C126.242 26.8434 127.335 27.4812 127.346 28.6139V28.7568C126.97 28.5479 126.176 28.229 125.193 28.229C123.218 28.229 121.22 29.3067 121.22 31.3191C121.22 33.1556 122.831 34.3433 124.642 34.3433C126.021 34.3433 126.794 33.7274 127.268 33.0016H127.335V34.0683H129.321V28.8008C129.332 26.3595 127.5 24.9959 125.149 24.9959ZM124.895 32.5288C124.222 32.5288 123.284 32.1879 123.284 31.3631C123.284 30.3074 124.454 29.9005 125.469 29.9005C126.374 29.9005 126.805 30.0985 127.346 30.3624C127.191 31.627 126.087 32.5288 124.895 32.5288ZM136.572 25.2928L134.211 31.2531H134.144L131.694 25.2928H129.476L133.151 33.6285L131.054 38.2582H133.206L138.868 25.2928H136.572ZM118.03 34.0903H120.094V20.3442H118.03V34.0903Z" fill="white"/>
<path d="M11.5245 9.38997C11.2045 9.73087 11.0168 10.2587 11.0168 10.9295V35.2547C11.0168 35.9365 11.2045 36.4643 11.5245 36.7942L11.6018 36.8712L25.2766 23.257V23.0921V22.9271L11.6018 9.31299L11.5245 9.38997Z" fill="url(#paint0_linear_1093_23113)"/>
<path d="M29.8352 27.799L25.277 23.2572V23.0923V22.9273L29.8352 18.3856L29.9346 18.4406L35.3317 21.4977C36.8768 22.3665 36.8768 23.7961 35.3317 24.6758L29.9346 27.733L29.8352 27.799Z" fill="url(#paint1_linear_1093_23113)"/>
<path d="M29.9345 27.7333L25.2768 23.0927L11.5248 36.7948C12.0325 37.3336 12.8713 37.3996 13.8205 36.8608L29.9345 27.7333Z" fill="url(#paint2_linear_1093_23113)"/>
<path d="M29.9343 18.4519L13.8093 9.32444C12.8601 8.78559 12.0213 8.85157 11.5136 9.39042L25.2767 23.0925L29.9343 18.4519Z" fill="url(#paint3_linear_1093_23113)"/>
<path opacity="0.2" d="M29.8355 27.6337L13.8099 36.7061C12.9159 37.212 12.1102 37.179 11.6025 36.7171L11.5252 36.7941L11.6025 36.8711C12.1212 37.3329 12.9159 37.3659 13.8099 36.8601L29.9349 27.7326L29.8355 27.6337Z" fill="black"/>
<path opacity="0.12" d="M11.525 36.6402C11.2049 36.2992 11.0173 35.7714 11.0173 35.1006V35.2655C11.0173 35.9473 11.2049 36.4752 11.525 36.8051L11.6022 36.7281L11.525 36.6402Z" fill="black"/>
<path opacity="0.12" d="M35.3311 24.5222L29.8236 27.6344L29.9229 27.7333L35.32 24.6762C36.0926 24.2363 36.4789 23.6645 36.4789 23.0927C36.4237 23.6095 36.0374 24.1264 35.3311 24.5222Z" fill="black"/>
<path opacity="0.25" d="M13.8091 9.47871L35.3312 21.6633C36.0265 22.0592 36.4238 22.565 36.4901 23.0929C36.4901 22.521 36.1038 21.9382 35.3312 21.5093L13.8091 9.32475C12.2639 8.456 11.0057 9.18179 11.0057 10.9413V11.1062C11.0057 9.33575 12.2749 8.60995 13.8091 9.47871Z" fill="white"/>
<path d="M46.9985 16.7926H46.1917V14.5822H46.8349C47.4019 14.0874 47.6744 13.2516 47.6635 12.0529V8.79785H52.0353V14.5822H52.7657V16.7926H51.959V15.396H46.9985V16.7926ZM48.5139 12.0639C48.5248 13.1086 48.3176 13.9444 47.8925 14.5932H51.1958V9.61162H48.5139V12.0639Z" fill="white" stroke="white" stroke-width="0.0336945" stroke-miterlimit="10"/>
<path d="M59.3176 14.5389C58.6744 15.2097 57.8785 15.5396 56.9191 15.5396C55.9598 15.5396 55.1639 15.2097 54.5207 14.5389C53.8774 13.868 53.5613 13.0543 53.5613 12.0975C53.5613 11.1408 53.8774 10.316 54.5207 9.65623C55.1639 8.98542 55.9598 8.65552 56.9191 8.65552C57.8676 8.65552 58.6635 8.98542 59.3176 9.65623C59.9609 10.327 60.2879 11.1408 60.2879 12.0975C60.2879 13.0653 59.9609 13.879 59.3176 14.5389ZM55.1421 13.989C55.6218 14.4839 56.2214 14.7258 56.9191 14.7258C57.6169 14.7258 58.2165 14.4839 58.6962 13.989C59.1759 13.4942 59.4266 12.8673 59.4266 12.0975C59.4266 11.3278 59.1868 10.7009 58.6962 10.2061C58.2165 9.71122 57.6278 9.45829 56.9191 9.45829C56.2214 9.45829 55.6218 9.70022 55.1421 10.1951C54.6624 10.6899 54.4116 11.3168 54.4116 12.0865C54.4116 12.8563 54.6624 13.4942 55.1421 13.989Z" fill="white" stroke="white" stroke-width="0.0336945" stroke-miterlimit="10"/>
<path d="M64.5181 15.5385C63.5587 15.5385 62.7519 15.2086 62.0978 14.5488C61.4436 13.889 61.1166 13.0752 61.1166 12.0855C61.1166 11.0957 61.4436 10.282 62.0978 9.62217C62.7519 8.96235 63.5587 8.63245 64.5181 8.63245C65.4992 8.63245 66.306 8.99534 66.9165 9.71014L66.3278 10.282C65.8808 9.72114 65.2812 9.44622 64.5071 9.44622C63.7985 9.44622 63.188 9.68815 62.6974 10.172C62.2068 10.6559 61.9669 11.2937 61.9669 12.0745C61.9669 12.8553 62.2068 13.4931 62.6974 13.9769C63.188 14.4608 63.7876 14.7027 64.5071 14.7027C65.2921 14.7027 65.9571 14.3838 66.5131 13.746L67.1019 14.3398C66.8075 14.7027 66.4259 14.9886 65.9789 15.1976C65.532 15.4395 65.0414 15.5385 64.5181 15.5385Z" fill="white" stroke="white" stroke-width="0.0336945" stroke-miterlimit="10"/>
<path d="M70.5144 15.396H69.6749V9.61162H67.8433V8.79785H72.335V9.61162H70.5035V15.396H70.5144Z" fill="white" stroke="white" stroke-width="0.0336945" stroke-miterlimit="10"/>
<path d="M78.1132 8.79785L75.6384 14.3623C75.3005 15.1431 74.7881 15.5389 74.1121 15.5389C73.9159 15.5389 73.6978 15.495 73.458 15.396L73.676 14.6152C73.8178 14.6922 73.9595 14.7362 74.1121 14.7362C74.3084 14.7362 74.461 14.7032 74.57 14.6262C74.679 14.5492 74.7771 14.4063 74.8644 14.2083L75.1042 13.6805L72.902 8.79785H73.8941L75.5076 12.5808H75.5403L77.1211 8.79785H78.1132Z" fill="white" stroke="white" stroke-width="0.0336945" stroke-miterlimit="10"/>
<path d="M79.0617 15.396V8.79785H83.7933V15.396H82.9538V9.61162H79.9012V15.396H79.0617Z" fill="white" stroke="white" stroke-width="0.0336945" stroke-miterlimit="10"/>
<path d="M85.2869 15.396V8.79785H86.1264V11.6241H89.397V8.79785H90.2365V15.396H89.397V12.4158H86.1264V15.396H85.2869Z" fill="white" stroke="white" stroke-width="0.0336945" stroke-miterlimit="10"/>
<path d="M97.094 14.5389C96.4508 15.2097 95.6549 15.5396 94.6955 15.5396C93.7361 15.5396 92.9403 15.2097 92.297 14.5389C91.6538 13.868 91.3376 13.0543 91.3376 12.0975C91.3376 11.1408 91.6538 10.316 92.297 9.65623C92.9403 8.98542 93.7361 8.65552 94.6955 8.65552C95.644 8.65552 96.4399 8.98542 97.094 9.65623C97.7372 10.327 98.0643 11.1408 98.0643 12.0975C98.0534 13.0653 97.7372 13.879 97.094 14.5389ZM92.9185 13.989C93.3982 14.4839 93.9978 14.7258 94.6955 14.7258C95.3933 14.7258 95.9929 14.4839 96.4726 13.989C96.9523 13.4942 97.203 12.8673 97.203 12.0975C97.203 11.3278 96.9632 10.7009 96.4726 10.2061C95.982 9.71122 95.3933 9.45829 94.6955 9.45829C93.9978 9.45829 93.3982 9.70022 92.9185 10.1951C92.4388 10.6899 92.188 11.3168 92.188 12.0865C92.188 12.8563 92.4279 13.4942 92.9185 13.989Z" fill="white" stroke="white" stroke-width="0.0336945" stroke-miterlimit="10"/>
<path d="M101.488 15.396V8.79785H103.853C104.366 8.79785 104.813 8.9738 105.184 9.30371C105.565 9.65561 105.75 10.0735 105.75 10.5903C105.75 10.9093 105.674 11.1842 105.511 11.4151C105.347 11.657 105.14 11.833 104.867 11.954V11.9869C105.194 12.0969 105.456 12.2839 105.663 12.5588C105.87 12.8337 105.979 13.1416 105.979 13.4935C105.979 14.0324 105.783 14.4832 105.391 14.8351C104.987 15.22 104.518 15.396 103.984 15.396H101.488ZM102.327 11.6241H103.853C104.17 11.6241 104.42 11.5141 104.617 11.3051C104.813 11.0962 104.9 10.8653 104.9 10.6123C104.9 10.3594 104.813 10.1285 104.617 9.91954C104.431 9.71059 104.191 9.60062 103.886 9.60062H102.327V11.6241ZM102.327 14.5822H104.017C104.344 14.5822 104.606 14.4722 104.802 14.2413C104.998 14.0104 105.107 13.7684 105.107 13.4935C105.107 13.2186 105.009 12.9767 104.791 12.7567C104.584 12.5368 104.311 12.4158 103.973 12.4158H102.316V14.5822H102.327Z" fill="white" stroke="white" stroke-width="0.0336945" stroke-miterlimit="10"/>
</g>
<defs>
<linearGradient id="paint0_linear_1093_23113" x1="24.0622" y1="10.6763" x2="5.60692" y2="29.1988" gradientUnits="userSpaceOnUse">
<stop stop-color="#00A0FF"/>
<stop offset="0.00657445" stop-color="#00A1FF"/>
<stop offset="0.2601" stop-color="#00BEFF"/>
<stop offset="0.5122" stop-color="#00D2FF"/>
<stop offset="0.7604" stop-color="#00DFFF"/>
<stop offset="1" stop-color="#00E3FF"/>
</linearGradient>
<linearGradient id="paint1_linear_1093_23113" x1="37.3452" y1="23.0938" x2="10.6392" y2="23.0938" gradientUnits="userSpaceOnUse">
<stop stop-color="#FFE000"/>
<stop offset="0.4087" stop-color="#FFBD00"/>
<stop offset="0.7754" stop-color="#FFA500"/>
<stop offset="1" stop-color="#FF9C00"/>
</linearGradient>
<linearGradient id="paint2_linear_1093_23113" x1="27.4037" y1="25.6176" x2="2.37679" y2="50.7358" gradientUnits="userSpaceOnUse">
<stop stop-color="#FF3A44"/>
<stop offset="1" stop-color="#C31162"/>
</linearGradient>
<linearGradient id="paint3_linear_1093_23113" x1="8.05606" y1="1.29253" x2="19.2317" y2="12.5088" gradientUnits="userSpaceOnUse">
<stop stop-color="#32A071"/>
<stop offset="0.0685" stop-color="#2DA771"/>
<stop offset="0.4762" stop-color="#15CF74"/>
<stop offset="0.8009" stop-color="#06E775"/>
<stop offset="1" stop-color="#00F076"/>
</linearGradient>
<clipPath id="clip0_1093_23113">
<rect width="149" height="46" fill="white"/>
</clipPath>
</defs>
</svg>
