<svg xmlns="http://www.w3.org/2000/svg" width="64" height="76" viewBox="0 0 64 76" fill="none">
<path fill-rule="evenodd" clip-rule="evenodd" d="M80.5143 24.1127C80.1471 23.6694 61.4492 5.13457 58.5531 2.34335C57.5339 1.36102 57.064 1.07819 56.3715 1.02963C53.6295 0.837869 24.2729 1.18344 23.7243 1.41405C22.9319 1.74711 0.505243 24.3559 0.201362 25.1279C-0.0875525 25.8627 0.11209 57.8451 0.410141 58.5542C0.756261 59.3777 23.4746 81.814 24.277 82.1248C25.2786 82.5127 56.5933 82.2798 57.551 81.8773C58.0717 81.6584 62.0778 77.7568 69.6652 70.0787C75.9 63.7694 81.0736 58.4359 81.1622 58.226C81.339 57.8072 81.2055 26.1453 81.0228 25.1854C80.9604 24.8579 80.7316 24.3752 80.5143 24.1127ZM69.7484 26.7779L65.3053 28.5758L62.1104 25.418C60.1336 23.4645 58.6669 22.1946 58.2636 22.088C57.8804 21.9864 57.2215 22.0771 56.6647 22.3078C55.906 22.622 55.6442 22.8808 55.3478 23.6077C54.7807 24.9994 55.1921 25.6591 58.9316 29.3555L62.2146 32.6006L62.2427 37.233C62.2585 39.8221 62.4056 42.1863 62.5764 42.5925C62.9559 43.4954 64.2733 44.2175 65.2224 44.0434C65.6283 43.969 66.1745 43.6458 66.5633 43.2501C67.2791 42.5219 67.3492 41.8198 67.2829 36.042L67.2514 33.2895L71.6694 31.4325L76.0874 29.5755L76.1143 33.2305C76.1291 35.2406 76.1604 40.6019 76.1836 45.1444L76.2257 53.4036L70.6321 51.1441C65.1555 48.9322 65.0191 48.8931 64.1162 49.2726C63.4231 49.5639 61.5179 51.355 56.4572 56.4723L49.7209 63.2845L41.0426 63.315C36.2694 63.3317 32.2306 63.3456 32.0673 63.3458C31.904 63.3462 30.3024 61.8744 28.5082 60.0755C26.7141 58.2766 24.9128 56.6685 24.5055 56.5018C23.3862 56.0443 21.9476 56.7138 21.4553 57.9218C20.881 59.3313 21.3276 60.0711 24.8202 63.4944L27.8371 66.4512L26.0608 70.8592C25.0839 73.2839 24.1887 75.2232 24.0715 75.1688C23.8186 75.052 7.4805 58.8669 7.38428 58.638C7.34798 58.5516 9.70162 57.4787 12.6145 56.2541C17.2204 54.3178 17.9893 53.936 18.5117 53.3251C19.0884 52.6513 19.1105 52.2215 19.0551 42.7121L18.9972 32.8013L25.297 26.4382L31.5964 20.0749L41.1148 20.0309C46.35 20.0068 50.9116 19.9306 51.2519 19.8617C51.5919 19.7926 52.0908 19.4663 52.3606 19.1366C52.6302 18.8069 53.8113 16.1642 54.9853 13.2638L57.1199 7.99064L65.5644 16.3253C70.209 20.9094 74.0501 24.7321 74.1002 24.8202C74.1503 24.9082 72.192 25.7892 69.7484 26.7779ZM48.4791 14.8618C48.219 14.9156 44.455 14.9719 40.1148 14.9865L32.2234 15.0132L30.3972 10.6685C29.3927 8.27885 28.6561 6.28782 28.7601 6.24412C28.9066 6.18252 39.8601 6.10111 51.5839 6.07438L52.4705 6.07247L50.7111 10.4181C49.4011 13.6535 48.831 14.7887 48.4791 14.8618ZM60.0813 72.5778L57.5087 75.1701L55.6512 70.7509L53.7936 66.3314L59.5941 60.4711L65.3948 54.6105L69.8316 56.4197L74.2683 58.2286L68.461 64.1072C65.2672 67.3402 61.4963 71.152 60.0813 72.5778ZM21.8705 22.7252C18.7058 25.923 16.0316 28.5751 15.9275 28.6189C15.6848 28.7209 7.06166 25.192 7.14636 25.0255C7.20206 24.9159 11.5971 20.4602 21.1488 10.8298L23.9015 8.05448L25.7629 12.4829L27.6242 16.9111L21.8705 22.7252ZM52.6359 77.1815C48.358 77.2691 29.0835 77.2458 29.0444 77.1529C29.0144 77.0814 29.7819 75.0844 30.7502 72.7148L32.5106 68.4066L40.422 68.3639C44.7735 68.3405 48.5432 68.3383 48.7993 68.3593C49.2192 68.3936 49.4459 68.8278 51.1097 72.7861C52.5485 76.2092 52.8844 77.1764 52.6359 77.1815ZM13.9812 42.3295L14.0272 50.2578L9.61267 52.1133L5.19837 53.9688L5.16994 50.0571C5.07743 37.3009 5.04553 30.2199 5.07959 30.1034C5.10114 30.0305 7.07193 30.7652 9.45932 31.7359C12.6465 33.0319 13.8179 33.6206 13.8676 33.9512C13.9049 34.1987 13.9559 37.9691 13.9812 42.3295Z" fill="#2AC6FA"/>
    <path xmlns="http://www.w3.org/2000/svg" fill-rule="evenodd" clip-rule="evenodd" d="M80.5143 24.1127C80.1471 23.6694 61.4492 5.13457 58.5531 2.34335C57.5339 1.36102 57.064 1.07819 56.3715 1.02963C53.6295 0.837869 24.2729 1.18344 23.7243 1.41405C22.9319 1.74711 0.505243 24.3559 0.201362 25.1279C-0.0875525 25.8627 0.11209 57.8451 0.410141 58.5542C0.756261 59.3777 23.4746 81.814 24.277 82.1248C25.2786 82.5127 56.5933 82.2798 57.551 81.8773C58.0717 81.6584 62.0778 77.7568 69.6652 70.0787C75.9 63.7694 81.0736 58.4359 81.1622 58.226C81.339 57.8072 81.2055 26.1453 81.0228 25.1854C80.9604 24.8579 80.7316 24.3752 80.5143 24.1127ZM69.7484 26.7779L65.3053 28.5758L62.1104 25.418C60.1336 23.4645 58.6669 22.1946 58.2636 22.088C57.8804 21.9864 57.2215 22.0771 56.6647 22.3078C55.906 22.622 55.6442 22.8808 55.3478 23.6077C54.7807 24.9994 55.1921 25.6591 58.9316 29.3555L62.2146 32.6006L62.2427 37.233C62.2585 39.8221 62.4056 42.1863 62.5764 42.5925C62.9559 43.4954 64.2733 44.2175 65.2224 44.0434C65.6283 43.969 66.1745 43.6458 66.5633 43.2501C67.2791 42.5219 67.3492 41.8198 67.2829 36.042L67.2514 33.2895L71.6694 31.4325L76.0874 29.5755L76.1143 33.2305C76.1291 35.2406 76.1604 40.6019 76.1836 45.1444L76.2257 53.4036L70.6321 51.1441C65.1555 48.9322 65.0191 48.8931 64.1162 49.2726C63.4231 49.5639 61.5179 51.355 56.4572 56.4723L49.7209 63.2845L41.0426 63.315C36.2694 63.3317 32.2306 63.3456 32.0673 63.3458C31.904 63.3462 30.3024 61.8744 28.5082 60.0755C26.7141 58.2766 24.9128 56.6685 24.5055 56.5018C23.3862 56.0443 21.9476 56.7138 21.4553 57.9218C20.881 59.3313 21.3276 60.0711 24.8202 63.4944L27.8371 66.4512L26.0608 70.8592C25.0839 73.2839 24.1887 75.2232 24.0715 75.1688C23.8186 75.052 7.4805 58.8669 7.38428 58.638C7.34798 58.5516 9.70162 57.4787 12.6145 56.2541C17.2204 54.3178 17.9893 53.936 18.5117 53.3251C19.0884 52.6513 19.1105 52.2215 19.0551 42.7121L18.9972 32.8013L25.297 26.4382L31.5964 20.0749L41.1148 20.0309C46.35 20.0068 50.9116 19.9306 51.2519 19.8617C51.5919 19.7926 52.0908 19.4663 52.3606 19.1366C52.6302 18.8069 53.8113 16.1642 54.9853 13.2638L57.1199 7.99064L65.5644 16.3253C70.209 20.9094 74.0501 24.7321 74.1002 24.8202C74.1503 24.9082 72.192 25.7892 69.7484 26.7779ZM48.4791 14.8618C48.219 14.9156 44.455 14.9719 40.1148 14.9865L32.2234 15.0132L30.3972 10.6685C29.3927 8.27885 28.6561 6.28782 28.7601 6.24412C28.9066 6.18252 39.8601 6.10111 51.5839 6.07438L52.4705 6.07247L50.7111 10.4181C49.4011 13.6535 48.831 14.7887 48.4791 14.8618ZM60.0813 72.5778L57.5087 75.1701L55.6512 70.7509L53.7936 66.3314L59.5941 60.4711L65.3948 54.6105L69.8316 56.4197L74.2683 58.2286L68.461 64.1072C65.2672 67.3402 61.4963 71.152 60.0813 72.5778ZM21.8705 22.7252C18.7058 25.923 16.0316 28.5751 15.9275 28.6189C15.6848 28.7209 7.06166 25.192 7.14636 25.0255C7.20206 24.9159 11.5971 20.4602 21.1488 10.8298L23.9015 8.05448L25.7629 12.4829L27.6242 16.9111L21.8705 22.7252ZM52.6359 77.1815C48.358 77.2691 29.0835 77.2458 29.0444 77.1529C29.0144 77.0814 29.7819 75.0844 30.7502 72.7148L32.5106 68.4066L40.422 68.3639C44.7735 68.3405 48.5432 68.3383 48.7993 68.3593C49.2192 68.3936 49.4459 68.8278 51.1097 72.7861C52.5485 76.2092 52.8844 77.1764 52.6359 77.1815ZM13.9812 42.3295L14.0272 50.2578L9.61267 52.1133L5.19837 53.9688L5.16994 50.0571C5.07743 37.3009 5.04553 30.2199 5.07959 30.1034C5.10114 30.0305 7.07193 30.7652 9.45932 31.7359C12.6465 33.0319 13.8179 33.6206 13.8676 33.9512C13.9049 34.1987 13.9559 37.9691 13.9812 42.3295Z" fill="#2AC6FA"/>
</svg>