<svg width="24" height="24" viewBox="0 0 24 24" fill="none" xmlns="http://www.w3.org/2000/svg">
<path fill-rule="evenodd" clip-rule="evenodd" d="M11.8828 3.02897C9.83661 3.22268 8.0625 4.6378 7.36827 6.62994C7.19593 7.12453 7.15288 7.37425 7.12461 8.04349C7.06788 9.38627 7.32384 10.3449 8.01316 11.372C8.20105 11.6519 8.34672 11.8877 8.33691 11.8958C8.32717 11.9041 8.17922 11.9802 8.00818 12.0649C7.49253 12.3206 6.6205 12.9132 6.11672 13.3504C4.82717 14.4694 3.79938 16.0268 3.23175 17.7217C3.02596 18.3364 3.00191 18.4891 3.00012 19.196C2.99832 19.9109 3.01546 20.0213 3.18386 20.3777C3.4446 20.9297 3.68957 21.2251 4.13398 21.5232C4.90767 22.0421 4.34897 22.0113 12.6085 21.991L20.0008 21.973L20.4635 21.7469C21.0523 21.4593 21.4883 21.0262 21.7754 20.4437C21.9918 20.0048 22.0018 19.9497 21.9998 19.196C21.998 18.487 21.9745 18.3383 21.7666 17.7221C21.0336 15.5497 19.6738 13.7615 17.8556 12.5787C17.5515 12.381 17.1628 12.1497 16.9918 12.0649C16.8207 11.9802 16.6728 11.9041 16.663 11.8958C16.6532 11.8877 16.7979 11.6523 16.9845 11.3729C17.6292 10.4075 17.8909 9.52972 17.8889 8.34046C17.8863 6.83194 17.3731 5.58927 16.3221 4.5464C15.1637 3.39691 13.609 2.8655 11.8828 3.02897ZM13.5486 6.04278C14.0968 6.29628 14.5311 6.71777 14.7977 7.25508C15.0035 7.66992 15.0223 7.76249 15.0223 8.36206C15.0223 8.96163 15.0035 9.0542 14.7977 9.46904C14.5314 10.0057 14.0977 10.427 13.5486 10.6824C13.2102 10.8398 13.0664 10.8648 12.5 10.8648C11.9335 10.8648 11.7897 10.8398 11.4513 10.6824C9.9572 9.98742 9.46781 8.10993 10.4499 6.84058C10.7531 6.44878 11.0945 6.19075 11.5735 5.99142C12.1408 5.75541 12.974 5.77708 13.5486 6.04278ZM14.1585 14.0076C16.1183 14.5137 17.7496 15.8167 18.6365 17.5846C18.8968 18.1035 19.2031 18.96 19.2031 19.1689C19.2031 19.2501 18.1872 19.2645 12.5 19.2645C6.81274 19.2645 5.79684 19.2501 5.79684 19.1689C5.79684 18.96 6.10318 18.1035 6.36343 17.5846C7.79714 14.7266 11.0904 13.2154 14.1585 14.0076Z" fill="#D2D2D2"/>
</svg>
