<svg width="30" height="30" viewBox="0 0 30 30" fill="none" xmlns="http://www.w3.org/2000/svg">
<circle cx="15" cy="15" r="15" fill="white"/>
<path fill-rule="evenodd" clip-rule="evenodd" d="M11.1578 9.10106C8.8626 9.10106 6.99534 10.9709 6.99534 13.2895C6.99534 16.1025 8.29401 18.3563 9.92833 20.0308C11.5705 21.7133 13.5116 22.7672 14.6733 23.1637L14.6796 23.1659L14.6796 23.1659C14.7357 23.1857 14.8518 23.2068 15.0002 23.2068C15.1485 23.2068 15.2646 23.1857 15.3207 23.1659L15.327 23.1637L15.327 23.1637C16.4887 22.7672 18.4298 21.7133 20.072 20.0308C21.7063 18.3563 23.005 16.1025 23.005 13.2895C23.005 10.9709 21.1377 9.10106 18.8425 9.10106C17.4905 9.10106 16.2783 9.75798 15.5212 10.7774C15.3988 10.9423 15.2055 11.0395 15.0002 11.0395C14.7948 11.0395 14.6015 10.9423 14.4791 10.7774C13.7216 9.75745 12.5178 9.10106 11.1578 9.10106ZM5.69727 13.2895C5.69727 10.2601 8.13963 7.80298 11.1578 7.80298C12.6608 7.80298 14.0176 8.41393 15.0004 9.39937C15.9854 8.41363 17.3472 7.80298 18.8425 7.80298C21.8607 7.80298 24.303 10.2601 24.303 13.2895C24.303 16.5343 22.7979 19.0963 21.0009 20.9374C19.2131 22.7692 17.0974 23.9304 15.7493 24.3912C15.5119 24.4744 15.2401 24.5049 15.0002 24.5049C14.7602 24.5049 14.4884 24.4744 14.251 24.3912C12.9029 23.9304 10.7872 22.7692 8.99937 20.9374C7.20245 19.0963 5.69727 16.5343 5.69727 13.2895Z" fill="#2AC6FA"/>
</svg>
