<svg width="30" height="30" viewBox="0 0 30 30" fill="none" xmlns="http://www.w3.org/2000/svg">
<circle cx="15" cy="15" r="15" fill="white"/>
<path d="M18.8792 7.99988C17.2977 7.99988 15.8821 8.81585 14.9996 10.0676C14.1171 8.81585 12.7015 7.99988 11.12 7.99988C8.43745 7.99988 6.26172 10.318 6.26172 13.1832C6.26172 14.2866 6.42774 15.3065 6.71609 16.2523C8.09667 20.8885 12.352 23.661 14.4579 24.4213C14.7549 24.5326 15.2443 24.5326 15.5413 24.4213C17.6472 23.661 21.9025 20.8885 23.2831 16.2523C23.5715 15.3065 23.7375 14.2866 23.7375 13.1832C23.7375 10.318 21.5617 7.99988 18.8792 7.99988Z" fill="#2AC6FA"/>
</svg>
