<svg width="24" height="24" viewBox="0 0 24 24" fill="none" xmlns="http://www.w3.org/2000/svg">
<path d="M19.2683 8.85437L19.2686 8.85585C20.3128 13.4611 17.3723 16.7668 15.1161 19.3033C15.0567 19.37 14.9977 19.4363 14.9394 19.502C14.8796 19.5693 14.8203 19.6364 14.7614 19.703C14.2988 20.226 13.8606 20.7215 13.3957 21.111C12.8733 21.5487 12.4219 21.76 11.9999 21.76C11.5995 21.76 11.1654 21.5395 10.6308 21.0726C10.3714 20.8461 10.1141 20.5849 9.84407 20.3033C9.79401 20.2511 9.74321 20.1979 9.69183 20.1441C9.48672 19.9292 9.27245 19.7047 9.05946 19.4977C8.69815 19.0338 8.34023 18.5911 7.99311 18.1618C5.64501 15.2578 3.79164 12.9656 4.73116 8.8572L4.73138 8.85622C5.6986 4.60045 8.78619 2.75 11.9899 2.75H11.9999C15.2165 2.75 18.3111 4.5928 19.2683 8.85437Z" stroke="#333232" stroke-width="1.5"/>
<path fill-rule="evenodd" clip-rule="evenodd" d="M12.12 7.75C10.8111 7.75 9.75 8.81109 9.75 10.12C9.75 11.4289 10.8111 12.49 12.12 12.49C13.4289 12.49 14.49 11.4289 14.49 10.12C14.49 8.81109 13.4289 7.75 12.12 7.75ZM8.25 10.12C8.25 7.98266 9.98266 6.25 12.12 6.25C14.2573 6.25 15.99 7.98266 15.99 10.12C15.99 12.2573 14.2573 13.99 12.12 13.99C9.98266 13.99 8.25 12.2573 8.25 10.12Z" fill="#333232"/>
</svg>
