<svg width="144" height="34" viewBox="0 0 144 34" fill="none" xmlns="http://www.w3.org/2000/svg">
<path d="M44.1509 26.5993V9.78819H47.38L54.5613 21.652H52.8503L59.9111 9.78819H63.1402L63.1643 26.5993H59.5014L59.4773 15.3839H60.1762L54.5131 24.8221H52.778L46.9945 15.3839H47.8138V26.5993H44.1509Z" fill="#292929"/>
<path d="M74.7322 15.3118C76.7725 15.3118 78.347 15.7681 79.4555 16.6807C80.564 17.5773 81.1182 18.9302 81.1182 20.7394C81.1182 22.6607 80.4997 24.1176 79.2627 25.1103C78.0417 26.1029 76.3468 26.5993 74.178 26.5993H66.563V9.78819H70.4428V15.3118H74.7322ZM73.9611 23.7174C74.9572 23.7174 75.7444 23.4692 76.3227 22.9729C76.9011 22.4765 77.1902 21.7561 77.1902 20.8114C77.1902 19.8828 76.9011 19.2184 76.3227 18.8181C75.7604 18.4019 74.9732 18.1937 73.9611 18.1937H70.4428V23.7174H73.9611Z" fill="#292929"/>
<path d="M84.4044 26.5993V18.1937V9.78819H88.2842V16.3925H92.646V19.7547H88.2842V26.5993H84.4044ZM99.2971 26.8874C98.0118 26.8874 96.823 26.6713 95.7305 26.239C94.6541 25.8067 93.7143 25.2063 92.911 24.4378C92.1078 23.6533 91.4812 22.7327 91.0314 21.676C90.5976 20.6033 90.3807 19.4425 90.3807 18.1937C90.3807 16.9289 90.5976 15.7681 91.0314 14.7114C91.4812 13.6547 92.1078 12.7421 92.911 11.9736C93.7143 11.1891 94.6541 10.5807 95.7305 10.1484C96.823 9.71614 98.0118 9.5 99.2971 9.5C100.566 9.5 101.747 9.71614 102.839 10.1484C103.932 10.5807 104.872 11.1891 105.659 11.9736C106.462 12.7421 107.089 13.6627 107.539 14.7354C107.988 15.7921 108.213 16.9449 108.213 18.1937C108.213 19.4425 107.988 20.6033 107.539 21.676C107.089 22.7327 106.462 23.6533 105.659 24.4378C104.872 25.2063 103.932 25.8067 102.839 26.239C101.747 26.6713 100.566 26.8874 99.2971 26.8874ZM99.2971 23.5733C100.004 23.5733 100.655 23.4452 101.249 23.189C101.843 22.9328 102.366 22.5726 102.815 22.1083C103.265 21.628 103.619 21.0596 103.876 20.4032C104.133 19.7467 104.261 19.0103 104.261 18.1937C104.261 17.3772 104.133 16.6407 103.876 15.9843C103.619 15.3278 103.265 14.7675 102.815 14.3032C102.366 13.8228 101.843 13.4546 101.249 13.1984C100.655 12.9423 100.004 12.8142 99.2971 12.8142C98.6062 12.8142 97.9556 12.9423 97.3451 13.1984C96.7507 13.4546 96.2286 13.8228 95.7787 14.3032C95.3289 14.7675 94.9755 15.3278 94.7184 15.9843C94.4614 16.6407 94.3328 17.3772 94.3328 18.1937C94.3328 19.0103 94.4614 19.7467 94.7184 20.4032C94.9755 21.0596 95.3289 21.628 95.7787 22.1083C96.2286 22.5726 96.7507 22.9328 97.3451 23.189C97.9556 23.4452 98.6062 23.5733 99.2971 23.5733Z" fill="#292929"/>
<path d="M115.043 26.5993V12.0697L115.934 12.9583H109.669V9.78819H124.296V12.9583H118.031L118.898 12.0697V26.5993H115.043Z" fill="#292929"/>
<path d="M129.348 23.4292C130.28 23.7013 131.059 23.7814 131.686 23.6693C132.328 23.5412 132.899 23.0929 133.397 22.3244L134.216 21.0996L134.578 20.6914L140.168 9.78819H144L136.819 23.0929C136.176 24.2937 135.413 25.2143 134.529 25.8548C133.662 26.4952 132.706 26.8554 131.662 26.9355C130.618 27.0315 129.533 26.8474 128.409 26.3831L129.348 23.4292ZM134.505 23.9335L126.89 9.78819H131.059L136.65 21.0756L134.505 23.9335Z" fill="#292929"/>
<path fill-rule="evenodd" clip-rule="evenodd" d="M16.5566 31.7931C24.7546 31.7931 31.4004 25.17 31.4004 17C31.4004 8.83 24.7546 2.2069 16.5566 2.2069C8.35856 2.2069 1.71275 8.83 1.71275 17C1.71275 25.17 8.35856 31.7931 16.5566 31.7931ZM16.5566 33.5C25.7005 33.5 33.1132 26.1127 33.1132 17C33.1132 7.8873 25.7005 0.5 16.5566 0.5C7.41263 0.5 0 7.8873 0 17C0 26.1127 7.41263 33.5 16.5566 33.5Z" fill="url(#paint0_linear_239_6670)"/>
<path d="M16.5567 21.9149L8.41873 16.5452C7.97786 16.2547 7.66913 15.8032 7.55901 15.288C7.4489 14.7728 7.54621 14.2351 7.82999 13.7907C8.11377 13.3463 8.56132 13.0308 9.07627 12.912C9.59121 12.7933 10.1324 12.8808 10.5832 13.1558L16.5567 17.1003L22.4569 13.2045C22.8951 12.9085 23.4326 12.7963 23.9533 12.8919C24.4739 12.9875 24.9359 13.2835 25.2395 13.7157C25.543 14.148 25.6638 14.6819 25.5757 15.2021C25.4876 15.7224 25.1977 16.1872 24.7685 16.4962L16.5567 21.9149Z" fill="#2AC6FA"/>
<path d="M24.2847 26.9053H21.5966V14.8506C21.5966 14.3177 21.809 13.8067 22.1871 13.4299C22.5652 13.0532 23.078 12.8415 23.6127 12.8415C24.1473 12.8415 24.6601 13.0532 25.0382 13.4299C25.4163 13.8067 25.6287 14.3177 25.6287 14.8506V25.5659C25.6287 25.9211 25.4871 26.2618 25.235 26.513C24.983 26.7642 24.6411 26.9053 24.2847 26.9053Z" fill="#6EB741"/>
<path d="M25.5993 14.5592C25.5934 14.519 25.5938 14.4779 25.5854 14.4378C25.5725 14.3763 25.5486 14.3196 25.5301 14.2602C25.5123 14.1923 25.4908 14.1254 25.4658 14.0598C25.4523 14.028 25.4316 14 25.4164 13.9691C25.3746 13.8798 25.3262 13.7938 25.2716 13.7116C25.2447 13.6727 25.2111 13.6395 25.1814 13.6027C25.1305 13.5358 25.0754 13.472 25.0165 13.4119C24.9718 13.3686 24.9208 13.3323 24.8723 13.2933C24.8206 13.2492 24.7668 13.2077 24.711 13.1689C24.6577 13.1342 24.5994 13.1075 24.543 13.0779C24.4836 13.047 24.4254 13.0134 24.3635 12.9888C24.3038 12.9648 24.2401 12.9495 24.1777 12.9313C24.1152 12.913 24.0531 12.8911 23.989 12.8792C23.9096 12.8665 23.8295 12.8585 23.7491 12.8551C23.6981 12.8516 23.6476 12.8427 23.5964 12.8431C23.5013 12.8458 23.4066 12.8553 23.3129 12.8715C23.275 12.8771 23.2369 12.8767 23.1994 12.8844C23.0726 12.9231 22.9461 12.9628 22.82 13.0036C22.7854 13.0184 22.7551 13.0403 22.7216 13.0569C22.3803 13.2156 22.0925 13.4694 21.8929 13.7876C21.6933 14.1058 21.5904 14.4749 21.5967 14.8501V18.5871L24.7686 16.496C25.08 16.2877 25.3243 15.9939 25.4717 15.6501C25.6191 15.3063 25.6633 14.9274 25.5991 14.559L25.5993 14.5592Z" fill="#139442"/>
<path d="M9.50075 12.841C10.0354 12.841 10.5482 13.0527 10.9263 13.4295C11.3044 13.8063 11.5168 14.3173 11.5168 14.8501V26.9048H8.82875C8.47229 26.9048 8.13044 26.7637 7.87839 26.5125C7.62634 26.2613 7.48474 25.9207 7.48474 25.5654V14.8501C7.48474 14.3173 7.69714 13.8063 8.07522 13.4295C8.45329 13.0527 8.96607 12.841 9.50075 12.841Z" fill="#E3115D"/>
<path d="M7.52694 14.5103C7.53284 14.4712 7.53237 14.4312 7.54076 14.3921C7.55365 14.3322 7.57761 14.2768 7.596 14.219C7.61382 14.1528 7.63529 14.0876 7.66029 14.0237C7.67372 13.9927 7.69439 13.9655 7.70969 13.9353C7.75142 13.8483 7.79974 13.7644 7.85425 13.6843C7.8811 13.6464 7.91466 13.6141 7.94432 13.5782C7.9952 13.5129 8.05021 13.4508 8.10902 13.3922C8.15365 13.35 8.20452 13.3147 8.25311 13.2766C8.30467 13.2336 8.35843 13.1932 8.41419 13.1554C8.46741 13.1216 8.52566 13.0956 8.58197 13.0667C8.64016 13.0347 8.69997 13.0056 8.76117 12.9794C8.8209 12.956 8.88452 12.9411 8.94681 12.9233C9.00909 12.9055 9.07117 12.8842 9.1352 12.8726C9.21452 12.8602 9.29452 12.8524 9.37479 12.8491C9.4258 12.8457 9.4762 12.837 9.52734 12.8374C9.62229 12.8401 9.71691 12.8493 9.8105 12.8651C9.84828 12.8706 9.88634 12.8701 9.92392 12.8777C9.98889 12.8938 10.053 12.9131 10.1159 12.9357C10.1791 12.952 10.2415 12.9714 10.3028 12.9939C10.3373 13.0082 10.3675 13.0296 10.4011 13.0458C10.4881 13.0855 10.572 13.1313 10.6522 13.1828C10.9211 13.3624 11.141 13.6029 11.293 13.8836C11.4449 14.1642 11.5243 14.4767 11.5243 14.7939L11.5163 18.5887L8.35654 16.3981C8.04551 16.195 7.80165 15.9087 7.65442 15.5737C7.5072 15.2386 7.46292 14.8693 7.52694 14.5103Z" fill="#C52528"/>
<path d="M11.6482 9.39063C11.6482 10.5485 10.7064 11.4871 9.54458 11.4871C8.38276 11.4871 7.44092 10.5485 7.44092 9.39063C7.44092 8.23278 8.38276 7.29416 9.54458 7.29416C10.7064 7.29416 11.6482 8.23278 11.6482 9.39063Z" fill="#E3115D"/>
<path d="M25.6726 9.39063C25.6726 10.5485 24.7307 11.4871 23.5689 11.4871C22.4071 11.4871 21.4653 10.5485 21.4653 9.39063C21.4653 8.23278 22.4071 7.29416 23.5689 7.29416C24.7307 7.29416 25.6726 8.23278 25.6726 9.39063Z" fill="#6EB741"/>
<defs>
<linearGradient id="paint0_linear_239_6670" x1="27.432" y1="4.22059" x2="5.92949" y2="29.6902" gradientUnits="userSpaceOnUse">
<stop stop-color="#E3115D"/>
<stop offset="0.0833333" stop-color="#E13994"/>
<stop offset="0.166667" stop-color="#CD5EC4"/>
<stop offset="0.25" stop-color="#AA7FE8"/>
<stop offset="0.333333" stop-color="#7C9AFE"/>
<stop offset="0.416667" stop-color="#45B0FF"/>
<stop offset="0.5" stop-color="#0BC2FF"/>
<stop offset="0.583333" stop-color="#00C5F1"/>
<stop offset="0.666667" stop-color="#00C7D9"/>
<stop offset="0.75" stop-color="#00C6B9"/>
<stop offset="0.833333" stop-color="#00C393"/>
<stop offset="0.916667" stop-color="#38BE6A"/>
<stop offset="1" stop-color="#6EB741"/>
</linearGradient>
</defs>
</svg>
