<svg width="149" height="40" viewBox="0 0 149 40" fill="none" xmlns="http://www.w3.org/2000/svg">
<path fill-rule="evenodd" clip-rule="evenodd" d="M20 37.931C29.903 37.931 37.931 29.903 37.931 20C37.931 10.097 29.903 2.06897 20 2.06897C10.097 2.06897 2.06897 10.097 2.06897 20C2.06897 29.903 10.097 37.931 20 37.931ZM20 40C31.0457 40 40 31.0457 40 20C40 8.9543 31.0457 0 20 0C8.9543 0 0 8.9543 0 20C0 31.0457 8.9543 40 20 40Z" fill="url(#paint0_linear_1590_17209)"/>
<path d="M20.0006 25.9558L10.1701 19.4471C9.63753 19.0949 9.26459 18.5477 9.13157 17.9232C8.99855 17.2987 9.1161 16.647 9.4589 16.1083C9.8017 15.5697 10.3423 15.1872 10.9644 15.0433C11.5864 14.8993 12.2401 15.0054 12.7847 15.3387L20.0006 20.12L27.1279 15.3978C27.6573 15.039 28.3066 14.9029 28.9355 15.0189C29.5644 15.1348 30.1225 15.4935 30.4892 16.0174C30.8559 16.5414 31.0018 17.1885 30.8953 17.8191C30.7889 18.4497 30.4387 19.0131 29.9203 19.3877L20.0006 25.9558Z" fill="#2AC6FA"/>
<path d="M29.3355 32.0059H26.0884V17.3941C26.0884 16.7482 26.345 16.1288 26.8017 15.6721C27.2584 15.2154 27.8778 14.9588 28.5237 14.9588C29.1696 14.9588 29.789 15.2154 30.2457 15.6721C30.7024 16.1288 30.959 16.7482 30.959 17.3941L30.959 30.3823C30.959 30.8129 30.7879 31.2259 30.4835 31.5303C30.179 31.8348 29.766 32.0059 29.3355 32.0059Z" fill="#6EB741"/>
<path d="M30.9233 17.0411C30.9161 16.9924 30.9167 16.9426 30.9065 16.894C30.8909 16.8195 30.862 16.7507 30.8397 16.6787C30.8182 16.5964 30.7922 16.5153 30.762 16.4358C30.7457 16.3972 30.7207 16.3634 30.7023 16.3259C30.6518 16.2176 30.5933 16.1133 30.5274 16.0137C30.495 15.9666 30.4544 15.9264 30.4185 15.8817C30.3569 15.8006 30.2904 15.7234 30.2192 15.6505C30.1652 15.5979 30.1037 15.554 30.045 15.5067C29.9826 15.4532 29.9176 15.4029 29.8502 15.356C29.7858 15.3139 29.7153 15.2815 29.6472 15.2456C29.5755 15.2082 29.5052 15.1675 29.4305 15.1376C29.3583 15.1085 29.2814 15.09 29.206 15.0679C29.1306 15.0457 29.0555 15.0192 28.9781 15.0048C28.8822 14.9894 28.7854 14.9796 28.6883 14.9756C28.6267 14.9713 28.5656 14.9605 28.5038 14.961C28.389 14.9643 28.2745 14.9758 28.1613 14.9955C28.1156 15.0023 28.0696 15.0017 28.0242 15.0111C27.871 15.0579 27.7183 15.1061 27.566 15.1556C27.5242 15.1735 27.4875 15.2 27.447 15.2202C27.0348 15.4125 26.6871 15.7201 26.446 16.1059C26.2048 16.4916 26.0806 16.9389 26.0882 17.3937V21.9234L29.9198 19.3888C30.296 19.1363 30.591 18.7801 30.7691 18.3634C30.9471 17.9468 31.0006 17.4874 30.923 17.0409L30.9233 17.0411Z" fill="#139442"/>
<path d="M11.4763 14.957C12.1222 14.957 12.7416 15.2136 13.1983 15.6703C13.655 16.127 13.9116 16.7464 13.9116 17.3923V32.0041H10.6645C10.234 32.0041 9.82101 31.833 9.51654 31.5286C9.21207 31.2241 9.04102 30.8111 9.04102 30.3806V17.3923C9.04102 16.7464 9.29759 16.127 9.7543 15.6703C10.211 15.2136 10.8304 14.957 11.4763 14.957Z" fill="#E3115D"/>
<path d="M9.09305 16.981C9.10018 16.9335 9.09962 16.885 9.10975 16.8376C9.12532 16.765 9.15426 16.6979 9.17647 16.6278C9.19801 16.5476 9.22393 16.4686 9.25414 16.3911C9.27036 16.3535 9.29533 16.3205 9.31381 16.284C9.36422 16.1785 9.42259 16.0768 9.48844 15.9797C9.52087 15.9338 9.56141 15.8946 9.59724 15.8511C9.65871 15.772 9.72515 15.6967 9.79619 15.6257C9.85011 15.5745 9.91156 15.5317 9.97026 15.4856C10.0325 15.4334 10.0975 15.3844 10.1648 15.3387C10.2291 15.2977 10.2995 15.2661 10.3675 15.2311C10.4378 15.1923 10.51 15.157 10.584 15.1253C10.6561 15.097 10.733 15.0789 10.8082 15.0573C10.8835 15.0357 10.9584 15.0099 11.0358 14.9959C11.1316 14.9808 11.2283 14.9713 11.3252 14.9674C11.3868 14.9632 11.4477 14.9527 11.5095 14.9531C11.6242 14.9564 11.7385 14.9676 11.8515 14.9868C11.8972 14.9934 11.9432 14.9929 11.9886 15.002C12.067 15.0215 12.1444 15.045 12.2204 15.0723C12.2969 15.0921 12.3722 15.1157 12.4462 15.1429C12.4879 15.1603 12.5244 15.1861 12.565 15.2058C12.6701 15.2539 12.7715 15.3095 12.8684 15.3719C13.1932 15.5895 13.4588 15.881 13.6423 16.2213C13.8259 16.5615 13.9218 16.9402 13.9218 17.3247L13.9121 21.9244L10.0952 19.2692C9.71948 19.023 9.42489 18.6759 9.24705 18.2698C9.0692 17.8638 9.01571 17.4161 9.09305 16.981Z" fill="#C52528"/>
<path d="M14.0706 10.7756C14.0706 12.179 12.9329 13.3167 11.5295 13.3167C10.126 13.3167 8.98828 12.179 8.98828 10.7756C8.98828 9.3721 10.126 8.23438 11.5295 8.23438C12.9329 8.23438 14.0706 9.3721 14.0706 10.7756Z" fill="#E3115D"/>
<path d="M31.012 10.7756C31.012 12.179 29.8743 13.3167 28.4709 13.3167C27.0674 13.3167 25.9297 12.179 25.9297 10.7756C25.9297 9.3721 27.0674 8.23438 28.4709 8.23438C29.8743 8.23438 31.012 9.3721 31.012 10.7756Z" fill="#6EB741"/>
<path d="M67.3511 28L67.3277 17.1351L61.9421 26.1267H60.5839L55.1983 17.2756V28H52.3182V11.6089H54.8237L61.3098 22.4505L67.7258 11.6089H70.2078L70.2547 28H67.3511ZM79.9697 28.3278C78.112 28.3278 76.6915 27.8907 75.708 27.0165C74.7245 26.1267 74.2328 24.8623 74.2328 23.2232V15.496H77.1364V19.9918C77.5422 19.664 78.073 19.4064 78.7286 19.2191C79.3999 19.0317 80.1258 18.9381 80.9063 18.9381C82.4674 18.9381 83.685 19.3283 84.5592 20.1089C85.4334 20.8894 85.8704 21.9977 85.8704 23.4339C85.8704 24.9794 85.3475 26.1814 84.3016 27.04C83.2557 27.8985 81.8117 28.3278 79.9697 28.3278ZM79.9931 26.1736C80.8829 26.1736 81.5854 25.9316 82.1005 25.4477C82.6157 24.9638 82.8732 24.3159 82.8732 23.5042C82.8732 22.7236 82.6235 22.1148 82.1239 21.6777C81.64 21.225 80.9531 20.9987 80.0633 20.9987C79.3921 20.9987 78.7989 21.1236 78.2837 21.3733C77.7842 21.6231 77.4017 21.9743 77.1364 22.427V23.4808C77.1364 24.3081 77.3939 24.9638 77.9091 25.4477C78.4242 25.9316 79.1189 26.1736 79.9931 26.1736ZM99.9124 15.3555C101.161 15.3555 102.277 15.6287 103.261 16.175C104.244 16.7058 105.017 17.4629 105.579 18.4464C106.141 19.4142 106.422 20.5147 106.422 21.748C106.422 22.9812 106.141 24.0896 105.579 25.073C105.017 26.0409 104.244 26.798 103.261 27.3444C102.277 27.8907 101.161 28.1639 99.9124 28.1639C98.8197 28.1639 97.8206 27.9532 96.9152 27.5317C96.0098 27.0946 95.2605 26.4858 94.6673 25.7053C94.0741 24.9091 93.6916 24.0037 93.5199 22.989H91.4125V28H88.4855V15.496H91.4125V20.343H93.5667C93.7541 19.3596 94.1443 18.4932 94.7375 17.7439C95.3307 16.979 96.0722 16.3936 96.962 15.9877C97.8518 15.5662 98.8353 15.3555 99.9124 15.3555ZM99.9124 25.6818C100.599 25.6818 101.216 25.5257 101.762 25.2135C102.309 24.8857 102.738 24.4252 103.05 23.832C103.362 23.2232 103.518 22.5285 103.518 21.748C103.518 20.5616 103.175 19.6171 102.488 18.9147C101.817 18.1966 100.958 17.8375 99.9124 17.8375C98.8665 17.8375 98.0079 18.1966 97.3367 18.9147C96.6654 19.6171 96.3298 20.5616 96.3298 21.748C96.3298 22.9344 96.6654 23.8866 97.3367 24.6047C98.0236 25.3228 98.8821 25.6818 99.9124 25.6818ZM125.077 15.3555C126.653 15.3555 127.902 15.816 128.823 16.737C129.744 17.6424 130.205 19.0083 130.205 20.8348V28H127.278V21.2094C127.278 20.1167 127.036 19.2971 126.552 18.7508C126.068 18.1888 125.373 17.9078 124.468 17.9078C123.484 17.9078 122.696 18.2356 122.103 18.8913C121.51 19.5313 121.213 20.4523 121.213 21.6543V28H118.286V21.2094C118.286 20.1167 118.044 19.2971 117.56 18.7508C117.076 18.1888 116.382 17.9078 115.476 17.9078C114.477 17.9078 113.681 18.2278 113.088 18.8678C112.51 19.5079 112.221 20.4367 112.221 21.6543V28H109.294V15.496H112.081V17.0882C112.549 16.5263 113.135 16.097 113.837 15.8004C114.54 15.5038 115.32 15.3555 116.179 15.3555C117.115 15.3555 117.943 15.535 118.661 15.894C119.394 16.2375 119.972 16.7526 120.394 17.4395C120.909 16.7838 121.572 16.2765 122.384 15.9174C123.196 15.5428 124.093 15.3555 125.077 15.3555ZM145.867 15.496V26.1033C145.867 30.5055 143.705 32.7066 139.381 32.7066C138.241 32.7066 137.149 32.5505 136.103 32.2383C135.072 31.9417 134.222 31.5046 133.55 30.927L134.862 28.7259C135.392 29.1786 136.04 29.5376 136.805 29.803C137.57 30.0684 138.374 30.2011 139.217 30.2011C140.497 30.2011 141.434 29.8889 142.027 29.2645C142.636 28.6556 142.94 27.7112 142.94 26.4311V25.8457C142.472 26.3609 141.902 26.759 141.231 27.04C140.559 27.3053 139.834 27.438 139.053 27.438C137.383 27.438 136.064 26.9775 135.096 26.0565C134.144 25.1355 133.667 23.7539 133.667 21.9119V15.496H136.594V21.5372C136.594 22.6456 136.844 23.4807 137.344 24.0427C137.859 24.5891 138.585 24.8623 139.521 24.8623C140.567 24.8623 141.395 24.5423 142.003 23.9022C142.628 23.2622 142.94 22.3334 142.94 21.1158V15.496H145.867Z" fill="black"/>
<defs>
<linearGradient id="paint0_linear_1590_17209" x1="33.1373" y1="4.5098" x2="7.05883" y2="35.2941" gradientUnits="userSpaceOnUse">
<stop stop-color="#E3115D"/>
<stop offset="0.0833333" stop-color="#E13994"/>
<stop offset="0.166667" stop-color="#CD5EC4"/>
<stop offset="0.25" stop-color="#AA7FE8"/>
<stop offset="0.333333" stop-color="#7C9AFE"/>
<stop offset="0.416667" stop-color="#45B0FF"/>
<stop offset="0.5" stop-color="#0BC2FF"/>
<stop offset="0.583333" stop-color="#00C5F1"/>
<stop offset="0.666667" stop-color="#00C7D9"/>
<stop offset="0.75" stop-color="#00C6B9"/>
<stop offset="0.833333" stop-color="#00C393"/>
<stop offset="0.916667" stop-color="#38BE6A"/>
<stop offset="1" stop-color="#6EB741"/>
</linearGradient>
</defs>
</svg>
