<svg width="20" height="16" viewBox="0 0 20 16" fill="none" xmlns="http://www.w3.org/2000/svg">
<path fill-rule="evenodd" clip-rule="evenodd" d="M6.45561 0.869855C6.26609 0.901599 5.96644 1.13148 5.84884 1.33547C5.75672 1.49518 5.73389 1.58273 5.72273 1.81942C5.70562 2.18172 5.75869 2.35723 5.95424 2.58508C6.26014 2.94146 5.56519 2.90872 12.8494 2.90971C19.9717 2.91067 19.4052 2.93247 19.7023 2.64594C19.9166 2.43921 19.9963 2.23916 19.9973 1.9049C19.9986 1.47187 19.8424 1.17747 19.5055 0.977776L19.3101 0.861979L12.9319 0.857723C9.42387 0.855376 6.50954 0.860826 6.45561 0.869855ZM1.57486 7.02642C1.04199 7.22961 0.79508 7.92606 1.05876 8.48217C1.17275 8.72251 1.39876 8.92992 1.61755 8.99492C1.81064 9.05228 19.1439 9.05228 19.337 8.99492C19.5558 8.92992 19.7818 8.72251 19.8958 8.48217C20.1662 7.91182 19.8858 7.17261 19.337 7.00964C19.2434 6.98179 16.3695 6.96898 10.4587 6.96998C3.12359 6.97129 1.69576 6.98036 1.57486 7.02642ZM10.0286 13.2034C9.43495 13.5254 9.33045 14.4129 9.83085 14.8828C10.129 15.1627 9.74498 15.1426 14.7728 15.1426H19.3101L19.4638 15.0546C19.8264 14.8472 19.9965 14.5451 19.9965 14.1083C19.9965 13.7749 19.921 13.5759 19.7143 13.3644C19.4304 13.074 19.7966 13.094 14.7621 13.094H10.2303L10.0286 13.2034Z" fill="#2AC6FA"/>
</svg>
