<svg width="11" height="11" viewBox="0 0 11 11" fill="none" xmlns="http://www.w3.org/2000/svg">
  <g clip-path="url(#clip0_405_11304)">
    <path fill-rule="evenodd" clip-rule="evenodd" d="M4.76377 0.606782C3.76353 0.779795 2.84496 1.24796 2.09583 1.96657C1.27041 2.75833 0.784731 3.66286 0.584954 4.78045C0.562141 4.9081 0.548999 5.19062 0.550046 5.53102C0.551534 6.01456 0.560157 6.11633 0.625427 6.42216C0.742522 6.97095 0.942161 7.50634 1.19351 7.94574L1.30295 8.13704L1.14808 9.10454C0.97098 10.211 0.971063 10.2147 1.17919 10.4209C1.39671 10.6364 1.47763 10.6252 2.64229 10.219L3.38619 9.95956L3.51017 10.007C3.91647 10.1624 4.44753 10.326 4.72241 10.3806C4.99845 10.4353 5.11916 10.4433 5.6592 10.4423C6.19216 10.4413 6.3184 10.4327 6.55914 10.3811C7.508 10.1774 8.33623 9.73303 9.01656 9.06264C9.4721 8.61375 9.77247 8.19307 10.0544 7.60904C10.5817 6.51673 10.6967 5.39117 10.3987 4.23674C10.2014 3.47238 9.74188 2.68797 9.12076 2.05552C8.39238 1.31385 7.36398 0.775892 6.35143 0.606864C5.89774 0.531151 5.20132 0.531097 4.76377 0.606782ZM5.93086 1.17834C6.86734 1.26043 7.62713 1.57581 8.37499 2.19281C9.22325 2.89264 9.76095 3.85537 9.90408 4.93057C9.95119 5.28448 9.92191 6.02979 9.84727 6.37712C9.65551 7.26919 9.26775 7.97868 8.62304 8.61707C8.24349 8.99293 7.97748 9.18808 7.55076 9.40378C6.36234 10.0045 4.90202 10.0303 3.71157 9.47166C3.58745 9.41342 3.45019 9.36576 3.40655 9.36576C3.3629 9.36576 2.95106 9.49483 2.49136 9.65259C2.03164 9.81035 1.65043 9.93437 1.6442 9.92823C1.63801 9.92206 1.69575 9.52445 1.77254 9.0446C1.84933 8.56475 1.91217 8.13903 1.91217 8.09855C1.91217 8.05805 1.83803 7.89366 1.74739 7.73326C1.34728 7.02504 1.16607 6.33141 1.16607 5.50832C1.16607 4.73408 1.29165 4.20066 1.62798 3.54616C1.8361 3.14115 2.06853 2.82607 2.4081 2.48867C3.15439 1.74711 4.17744 1.27094 5.21837 1.18063C5.59269 1.14815 5.58698 1.14818 5.93086 1.17834ZM3.23184 5.19723C2.97834 5.365 2.97834 5.77893 3.23184 5.94671C3.35227 6.0264 3.59139 6.03183 3.73033 5.95803C3.84564 5.89676 3.95099 5.71242 3.95099 5.57196C3.95099 5.43151 3.84564 5.24717 3.73033 5.1859C3.59139 5.1121 3.35227 5.11753 3.23184 5.19723ZM5.30767 5.18972C5.17321 5.27092 5.10836 5.39529 5.10836 5.57196C5.10836 5.84591 5.27245 6.00847 5.54899 6.00847C5.82553 6.00847 5.98962 5.84591 5.98962 5.57196C5.98962 5.39529 5.92477 5.27092 5.79032 5.18972C5.66834 5.11603 5.42964 5.11603 5.30767 5.18972ZM7.36765 5.1859C7.25234 5.24717 7.14699 5.43151 7.14699 5.57196C7.14699 5.71242 7.25234 5.89676 7.36765 5.95803C7.59363 6.07807 7.90295 5.99679 8.00792 5.78977C8.11055 5.58741 8.04561 5.31598 7.86614 5.19723C7.74571 5.11753 7.50659 5.1121 7.36765 5.1859Z" fill="#737373"/>
  </g>
  <defs>
    <clipPath id="clip0_405_11304">
      <rect width="11" height="11" fill="white"/>
    </clipPath>
  </defs>
</svg>
