<svg width="22" height="22" viewBox="0 0 22 22" fill="none" xmlns="http://www.w3.org/2000/svg">
<path fill-rule="evenodd" clip-rule="evenodd" d="M4.83066 8.16797C4.83066 4.75411 7.60429 1.98047 11.0182 1.98047C14.4229 1.98047 17.2057 4.76327 17.2057 8.16797V10.8171C17.2057 11.0141 17.2502 11.3024 17.3347 11.6104C17.4182 11.9147 17.526 12.1852 17.6241 12.3569L18.6752 14.1026C19.5053 15.4861 18.8417 17.2883 17.3125 17.7946C13.2205 19.1614 8.80552 19.1613 4.71363 17.7942L4.71108 17.7933C3.93887 17.532 3.35976 16.9916 3.10083 16.2923C2.8416 15.5922 2.92979 14.8042 3.3524 14.1019L4.40513 12.3534C4.40536 12.353 4.40559 12.3526 4.40583 12.3523C4.50621 12.1835 4.61616 11.914 4.70102 11.6083C4.78613 11.3017 4.83066 11.0139 4.83066 10.8171V8.16797ZM11.0182 3.35547C8.36369 3.35547 6.20566 5.5135 6.20566 8.16797V10.8171C6.20566 11.1796 6.13102 11.5975 6.02592 11.9761C5.92076 12.3549 5.76978 12.7495 5.58618 13.0575L5.58464 13.0601L4.53057 14.8108C4.53054 14.8108 4.53061 14.8107 4.53057 14.8108C4.30246 15.19 4.28973 15.5433 4.39027 15.8149C4.49104 16.087 4.73197 16.3484 5.15068 16.4905C8.95974 17.7628 13.0688 17.7627 16.8778 16.4901L16.8799 16.4894C17.5681 16.2619 17.8757 15.4433 17.4964 14.8105C17.4963 14.8103 17.4965 14.8107 17.4964 14.8105L16.4359 13.0491C16.2598 12.7439 16.1123 12.352 16.0087 11.9741C15.9052 11.5969 15.8307 11.1793 15.8307 10.8171V8.16797C15.8307 5.52267 13.6635 3.35547 11.0182 3.35547Z" fill="black"/>
<path fill-rule="evenodd" clip-rule="evenodd" d="M8.68218 2.68345C9.04834 1.74911 9.9574 1.0918 11.0181 1.0918C12.0788 1.0918 12.9879 1.74911 13.354 2.68345C13.4496 2.92735 13.3983 3.20437 13.2217 3.39783C13.0451 3.5913 12.7738 3.66757 12.5223 3.59453C12.268 3.52071 12.0113 3.465 11.7512 3.43347L11.7487 3.43315C10.9563 3.33411 10.2076 3.3929 9.51419 3.59447C9.2626 3.6676 8.99131 3.59138 8.81463 3.39792C8.63794 3.20446 8.58658 2.92739 8.68218 2.68345Z" fill="black"/>
<path fill-rule="evenodd" clip-rule="evenodd" d="M8.95508 17.4727C8.95508 18.0341 9.18865 18.5581 9.56038 18.9299C9.93211 19.3016 10.4561 19.5352 11.0176 19.5352C12.1504 19.5352 13.0801 18.6055 13.0801 17.4727H14.4551C14.4551 19.3649 12.9098 20.9102 11.0176 20.9102C10.0757 20.9102 9.20638 20.5204 8.58811 19.9021C7.96984 19.2839 7.58008 18.4145 7.58008 17.4727H8.95508Z" fill="black"/>
</svg>
