<svg width="260" height="260" viewBox="0 0 260 260" fill="none" xmlns="http://www.w3.org/2000/svg">
<rect width="260" height="260" fill="white"/>
<path d="M65.1166 36.606C62.2841 36.6073 59.5149 35.7686 57.1592 34.196C54.8035 32.6233 52.9671 30.3874 51.8822 27.7709C50.7974 25.1545 50.5129 22.2751 51.0646 19.4969C51.6164 16.7187 52.9797 14.1666 54.982 12.1633C56.9844 10.16 59.5359 8.7955 62.3138 8.24244C65.0917 7.68937 67.9713 7.97256 70.5882 9.05618C73.2052 10.1398 75.442 11.9752 77.0157 14.3302C78.5895 16.6852 79.4295 19.454 79.4295 22.2864C79.426 26.082 77.9171 29.7212 75.2338 32.4056C72.5506 35.0901 68.9121 36.6007 65.1166 36.606ZM65.1166 8.54678C62.3972 8.54546 59.7386 9.35072 57.477 10.8607C55.2154 12.3706 53.4525 14.5174 52.4113 17.0295C51.37 19.5416 51.0972 22.3061 51.6274 24.9732C52.1576 27.6403 53.4669 30.0903 55.3898 32.0132C57.3127 33.936 59.7626 35.2454 62.4298 35.7755C65.0969 36.3057 67.8614 36.033 70.3735 34.9917C72.8855 33.9505 75.0323 32.1875 76.5423 29.9259C78.0522 27.6644 78.8575 25.0057 78.8562 22.2864C78.8509 18.6441 77.4016 15.1524 74.8261 12.5769C72.2506 10.0013 68.7589 8.55207 65.1166 8.54678Z" fill="#2AC6FA"/>
<path d="M65.2299 14.4922C68.2631 14.4922 70.3297 16.2788 70.3297 19.2321C70.3297 22.4253 68.0631 23.8319 64.9965 23.8319L64.9032 25.6252H62.6633L62.5499 22.0653H63.2966C65.8565 22.0653 67.8298 21.612 67.8298 19.2321C67.8589 18.8842 67.8111 18.5342 67.6898 18.2068C67.5685 17.8795 67.3767 17.5829 67.1279 17.3379C66.8792 17.093 66.5796 16.9058 66.2504 16.7896C65.9213 16.6734 65.5706 16.631 65.2232 16.6655C63.6099 16.6655 62.5899 17.5721 62.5899 19.1587H60.1633C60.17 16.4188 62.1433 14.4922 65.2299 14.4922ZM63.7766 30.6384C63.4472 30.6437 63.1236 30.5509 62.8472 30.3717C62.5707 30.1926 62.3538 29.9352 62.2241 29.6324C62.0943 29.3296 62.0576 28.995 62.1186 28.6713C62.1797 28.3475 62.3356 28.0493 62.5667 27.8144C62.7977 27.5796 63.0934 27.4189 63.4161 27.3526C63.7388 27.2864 64.0739 27.3177 64.3788 27.4425C64.6837 27.5673 64.9445 27.78 65.1281 28.0535C65.3117 28.327 65.4098 28.649 65.4098 28.9785C65.4134 29.1952 65.3738 29.4104 65.2933 29.6117C65.2128 29.8129 65.093 29.9961 64.941 30.1506C64.789 30.3051 64.6077 30.4278 64.4078 30.5116C64.2079 30.5953 63.9933 30.6384 63.7766 30.6384Z" fill="#2AC6FA"/>
<path d="M73.8894 33.2319L78.4693 35.5052C78.5218 35.5338 78.5819 35.5454 78.6413 35.5382C78.7007 35.531 78.7563 35.5053 78.8004 35.4649C78.8445 35.4245 78.8749 35.3713 78.8872 35.3128C78.8996 35.2542 78.8933 35.1933 78.8693 35.1385L76.8693 29.9453C76.0532 31.1893 75.0478 32.2982 73.8894 33.2319Z" fill="#2AC6FA"/>
<path d="M122.857 256.037C171.716 256.037 211.325 253.726 211.325 250.876C211.325 248.025 171.716 245.715 122.857 245.715C73.9977 245.715 34.3894 248.025 34.3894 250.876C34.3894 253.726 73.9977 256.037 122.857 256.037Z" fill="#F5F5F5"/>
<path d="M77.5292 58.7918C78.1959 62.0184 105.608 60.7384 104.328 56.5719C104.041 55.8294 103.707 55.1058 103.329 54.4052C101.549 50.572 98.582 45.7388 89.0022 45.7855C83.2357 45.8055 75.6426 49.2921 77.5292 58.7918Z" fill="#2AC6FA"/>
<path d="M111.515 240.018L112.922 247.124H116.675L117.181 240.018H111.515Z" fill="#FFC3BD"/>
<path d="M116.181 246.226C116.371 245.989 116.623 245.808 116.909 245.706C117.195 245.603 117.504 245.583 117.801 245.646C118.701 245.946 119.881 247.426 119.881 247.426C119.881 247.426 124.781 249 126.108 249.08C127.434 249.16 128.588 249.906 129.081 252.473H113.015C113.015 252.473 112.381 246.68 112.281 245.693C112.181 244.706 113.755 245.94 113.755 245.94L116.181 246.226Z" fill="#2AC6FA"/>
<path d="M128.608 251.706H125.714L113.048 251.572C112.888 251.572 112.888 251.319 113.048 251.326H113.901C113.898 251.315 113.898 251.303 113.901 251.292C114.151 250.663 114.153 249.962 113.905 249.332C113.658 248.702 113.179 248.19 112.568 247.899C112.554 247.891 112.542 247.881 112.532 247.868C112.522 247.855 112.514 247.841 112.51 247.825C112.506 247.81 112.505 247.794 112.506 247.778C112.508 247.762 112.513 247.746 112.521 247.732C112.529 247.718 112.54 247.706 112.552 247.696C112.565 247.686 112.58 247.679 112.595 247.674C112.61 247.67 112.627 247.669 112.643 247.671C112.659 247.673 112.674 247.678 112.688 247.686C113.34 248.002 113.85 248.551 114.115 249.226C114.381 249.9 114.383 250.65 114.121 251.326H115.901L128.568 251.459C128.768 251.452 128.768 251.712 128.608 251.706Z" fill="black"/>
<path d="M119.315 248.432C119.43 248.245 119.583 248.083 119.764 247.959C119.946 247.835 120.152 247.75 120.369 247.711C120.585 247.672 120.808 247.68 121.021 247.733C121.235 247.786 121.435 247.883 121.608 248.019C121.735 248.112 121.861 247.899 121.735 247.806C121.532 247.648 121.299 247.534 121.049 247.473C120.8 247.413 120.541 247.406 120.288 247.453C120.036 247.5 119.797 247.601 119.586 247.748C119.376 247.895 119.199 248.085 119.068 248.306C118.975 248.439 119.188 248.566 119.281 248.432H119.315Z" fill="white"/>
<path d="M120.695 248.853C120.809 248.665 120.962 248.503 121.143 248.378C121.325 248.253 121.53 248.168 121.747 248.128C121.964 248.089 122.186 248.095 122.4 248.148C122.614 248.2 122.814 248.297 122.988 248.433C123.121 248.533 123.241 248.32 123.115 248.22C122.912 248.062 122.678 247.949 122.428 247.888C122.179 247.828 121.919 247.822 121.667 247.87C121.414 247.918 121.175 248.019 120.965 248.167C120.755 248.314 120.578 248.505 120.448 248.726C120.355 248.86 120.575 248.98 120.661 248.853H120.695Z" fill="white"/>
<path d="M122.128 249.266C122.242 249.078 122.395 248.917 122.576 248.793C122.757 248.668 122.962 248.584 123.178 248.545C123.394 248.506 123.616 248.513 123.829 248.566C124.043 248.619 124.242 248.716 124.415 248.852C124.548 248.946 124.668 248.732 124.541 248.639C124.34 248.486 124.108 248.377 123.862 248.319C123.616 248.261 123.36 248.256 123.111 248.304C122.863 248.352 122.627 248.451 122.42 248.596C122.213 248.741 122.038 248.929 121.908 249.146C121.821 249.272 122.035 249.399 122.128 249.266Z" fill="white"/>
<path d="M77.9094 240.072L78.6894 247.125H82.4426L83.5693 240.072H77.9094Z" fill="#FFC3BD"/>
<path d="M81.9488 246.226C82.1371 245.989 82.3879 245.809 82.6729 245.707C82.9579 245.604 83.2659 245.583 83.5621 245.646C84.4688 245.946 85.6487 247.426 85.6487 247.426C85.6487 247.426 90.5486 249 91.8752 249.08C93.2019 249.16 94.3552 249.906 94.8485 252.473H78.8089C78.8089 252.473 78.1756 246.68 78.0756 245.693C77.9756 244.706 79.5489 245.94 79.5489 245.94L81.9488 246.226Z" fill="#2AC6FA"/>
<path d="M94.3488 251.706H91.4555L78.7892 251.572C78.6292 251.572 78.6292 251.319 78.7892 251.326H79.6425C79.6389 251.315 79.6389 251.303 79.6425 251.292C79.8926 250.663 79.8939 249.962 79.6463 249.332C79.3987 248.702 78.9207 248.19 78.3092 247.899C78.2952 247.891 78.2829 247.881 78.273 247.868C78.263 247.855 78.2557 247.841 78.2514 247.825C78.247 247.81 78.2458 247.794 78.2477 247.778C78.2496 247.762 78.2547 247.746 78.2625 247.732C78.2704 247.718 78.281 247.706 78.2936 247.696C78.3063 247.686 78.3207 247.679 78.3362 247.674C78.3517 247.67 78.3679 247.669 78.3838 247.671C78.3998 247.673 78.4152 247.678 78.4292 247.686C79.0814 248.002 79.5909 248.551 79.8565 249.226C80.122 249.9 80.1242 250.65 79.8625 251.326H81.6425L94.3088 251.459C94.5354 251.452 94.5354 251.712 94.3488 251.706Z" fill="black"/>
<path d="M85.0824 248.434C85.1973 248.246 85.3506 248.085 85.5322 247.96C85.7138 247.836 85.9197 247.752 86.1363 247.713C86.3529 247.674 86.5753 247.681 86.7889 247.734C87.0025 247.787 87.2025 247.884 87.3757 248.02C87.5023 248.114 87.629 247.9 87.5023 247.807C87.3013 247.653 87.0703 247.544 86.8242 247.486C86.5781 247.428 86.3225 247.422 86.0741 247.469C85.8256 247.516 85.5899 247.615 85.3823 247.76C85.1747 247.904 84.9998 248.09 84.8691 248.307C84.7757 248.44 84.9891 248.567 85.0824 248.434Z" fill="white"/>
<path d="M86.4624 248.853C86.5767 248.665 86.7296 248.503 86.911 248.378C87.0923 248.253 87.2981 248.168 87.5148 248.128C87.7314 248.089 87.954 248.095 88.1679 248.148C88.3817 248.2 88.5821 248.297 88.7557 248.433C88.8823 248.533 89.009 248.32 88.8823 248.22C88.6797 248.062 88.4458 247.949 88.1961 247.888C87.9464 247.828 87.6868 247.822 87.4344 247.87C87.182 247.918 86.9428 248.019 86.7327 248.167C86.5225 248.314 86.3463 248.505 86.2157 248.726C86.1224 248.86 86.3424 248.98 86.4291 248.853H86.4624Z" fill="white"/>
<path d="M87.8956 249.266C88.0098 249.078 88.1624 248.917 88.3435 248.793C88.5245 248.668 88.7299 248.584 88.9459 248.545C89.162 248.506 89.3839 248.513 89.597 248.566C89.8101 248.619 90.0095 248.716 90.1822 248.852C90.3155 248.946 90.4355 248.732 90.3088 248.639C90.1074 248.486 89.876 248.377 89.6296 248.319C89.3832 248.261 89.1275 248.256 88.879 248.304C88.6305 248.352 88.3949 248.451 88.1875 248.596C87.9802 248.741 87.8057 248.929 87.6756 249.146C87.5889 249.272 87.8022 249.399 87.8956 249.266Z" fill="white"/>
<path d="M110.268 240.273H118.555C119.275 229.607 121.301 194.228 119.702 176.722C120.855 152.436 117.142 120.203 117.142 120.203H90.8823C90.8823 120.203 92.8089 141.776 101.442 176.375C101.382 203.787 108.075 231.193 110.268 240.273Z" fill="#263238"/>
<path opacity="0.2" d="M100.029 170.561C104.775 151.169 100.609 126.029 100.609 126.029L96.5088 154.749L100.029 170.561Z" fill="black"/>
<path d="M109.282 240.064L109.888 243.211L119.395 243.171V240.018L109.282 240.064Z" fill="#263238"/>
<path d="M76.7294 240.58H85.0158C87.969 229.6 93.9022 194.294 94.8488 176.788C99.5487 152.502 101.795 120.203 101.795 120.203H75.536C75.536 120.203 73.0894 142.023 76.6827 176.622C75.9827 206.787 76.536 231.193 76.7294 240.58Z" fill="#263238"/>
<path d="M76.0027 240.053L75.9827 243.179H85.5624L86.0691 240.059L76.0027 240.053Z" fill="#263238"/>
<path d="M120.575 124.162C102.348 131.162 72.6893 126.122 72.6893 126.122C73.0426 117.216 73.3559 99.5761 73.2293 84.9165C73.2293 84.5765 73.2293 84.2498 73.2293 83.8965C73.2293 81.8166 73.1759 79.8033 73.1359 77.8967C73.1359 77.6634 73.1359 77.43 73.1359 77.23C73.0159 73.4568 72.8893 70.1236 72.716 67.457C72.3826 62.4638 75.0959 57.8172 80.0491 56.9839C81.5491 56.7306 83.169 56.5106 84.8556 56.3173L86.0756 56.1906C90.8935 55.7188 95.7358 55.5429 100.575 55.664H101.275H101.648H102.255C104.342 55.7506 106.322 55.9039 108.095 56.1373C112.095 56.6573 115.701 59.8372 115.768 63.9037C115.828 67.6303 116.195 75.4967 116.721 84.3698C116.921 87.7031 117.148 91.243 117.388 94.7229C118.348 108.489 119.548 121.769 120.575 124.162Z" fill="#2AC6FA"/>
<path d="M74.1027 107.863C74.0742 107.856 74.0445 107.856 74.016 107.863L71.3494 112.816L70.8428 112.53L70.7161 112.45L70.6361 112.396L70.4894 112.29L70.1828 112.076L69.9361 111.89C69.5961 111.636 69.3228 111.41 69.0295 111.17C68.4762 110.696 67.9495 110.23 67.4362 109.756C66.4162 108.816 65.4362 107.876 64.4629 106.923C62.543 104.997 60.683 103.037 58.8764 101.023C57.0698 99.0101 55.3032 96.9501 53.5432 94.7435C53.1099 94.1902 52.6699 93.6169 52.2099 93.0036C51.99 92.6836 51.7766 92.3902 51.5433 92.0236C51.31 91.6569 51.09 91.2969 50.83 90.8103L50.6233 90.3703L50.5167 90.1503L50.37 89.7436L50.2433 89.317C50.1729 89.0868 50.126 88.85 50.1033 88.6103C50.0528 88.1673 50.0528 87.72 50.1033 87.277L50.1433 86.9504C50.1433 86.8504 50.1833 86.7237 50.1967 86.6837L50.2967 86.3304C50.3727 86.0902 50.4617 85.8543 50.5633 85.6238L50.7167 85.2904L50.8033 85.1238L50.8367 85.0638L51.1233 84.5904C51.35 84.2305 51.4566 84.0905 51.6033 83.8838C52.17 83.1038 52.6233 82.5505 53.0966 81.9839C54.9565 79.7906 56.7965 77.8506 58.6564 75.884C60.5164 73.9174 62.3963 72.0308 64.3096 70.1709C68.1162 66.4176 71.9827 62.771 76.016 59.2578L83.6424 67.6442C79.8492 71.2775 75.936 74.8307 72.0361 78.3506L66.2096 83.6305C64.3429 85.3038 62.463 87.0304 60.7764 88.6837C60.9097 88.9237 61.0497 89.1637 61.1964 89.4037C62.4897 91.5369 63.9563 93.7035 65.3963 95.8635C66.8362 98.0234 68.3428 100.177 69.8495 102.29C70.5961 103.357 71.3494 104.41 72.1161 105.43C72.4961 105.943 72.8827 106.43 73.256 106.903L73.7827 107.57L73.9894 107.816L74.1027 107.863Z" fill="#2AC6FA"/>
<path d="M94.9487 89.9163C94.9267 89.9146 94.9054 89.9086 94.8858 89.8987C94.8662 89.8887 94.8488 89.8749 94.8345 89.8582C94.8203 89.8415 94.8095 89.8221 94.8028 89.8012C94.796 89.7803 94.7935 89.7582 94.7953 89.7363C95.7686 75.9967 92.3687 61.6704 92.3354 61.5304C92.3248 61.4871 92.3318 61.4414 92.355 61.4032C92.3781 61.3651 92.4154 61.3377 92.4587 61.3271C92.502 61.3165 92.5478 61.3235 92.5859 61.3467C92.6241 61.3698 92.6514 61.4071 92.6621 61.4504C92.6954 61.5971 96.1086 75.9634 95.1286 89.763C95.127 89.7849 95.121 89.8063 95.111 89.8258C95.101 89.8454 95.0873 89.8628 95.0706 89.8771C95.0538 89.8913 95.0344 89.9021 95.0135 89.9089C94.9926 89.9156 94.9706 89.9181 94.9487 89.9163Z" fill="white"/>
<path d="M102.795 89.6014C102.752 89.598 102.712 89.578 102.683 89.5457C102.655 89.5133 102.64 89.4712 102.642 89.4281C103.615 75.6818 100.222 61.3622 100.189 61.2222C100.179 61.2 100.175 61.1762 100.176 61.1523C100.177 61.1284 100.183 61.105 100.194 61.0837C100.205 61.0623 100.22 61.0435 100.239 61.0286C100.257 61.0137 100.279 61.003 100.302 60.9972C100.325 60.9914 100.35 60.9906 100.373 60.995C100.397 60.9994 100.419 61.0088 100.439 61.0225C100.458 61.0363 100.474 61.0541 100.487 61.0747C100.499 61.0954 100.506 61.1184 100.509 61.1422C100.542 61.2822 103.955 75.6551 102.975 89.4481C102.973 89.47 102.967 89.4913 102.957 89.5109C102.947 89.5305 102.934 89.5479 102.917 89.5622C102.9 89.5764 102.881 89.5872 102.86 89.594C102.839 89.6007 102.817 89.6032 102.795 89.6014Z" fill="white"/>
<path opacity="0.2" d="M117.381 94.7895C110.531 84.7849 105.446 73.6799 102.348 61.957L116.721 84.4364C116.908 87.7963 117.135 91.3096 117.381 94.7895Z" fill="black"/>
<path opacity="0.2" d="M82.3489 103.497C82.3489 103.497 83.6422 112.243 83.1822 117.277C83.1822 117.277 97.5418 119.53 112.655 116.183C113.332 111.652 113.057 107.03 111.848 102.61C102.968 102.164 93.0153 102.577 82.3489 103.497Z" fill="black"/>
<path d="M104.048 27.8262C102.646 27.3133 101.153 27.0936 99.6626 27.1807C98.1719 27.2679 96.715 27.66 95.382 28.3329C93.6287 29.2462 92.1087 30.6395 92.1487 32.7328C92.2354 37.6193 93.5953 45.7857 93.5953 45.7857L110.082 38.3326C110.082 38.3326 111.282 34.246 109.355 31.6661C108.033 29.8613 106.176 28.518 104.048 27.8262Z" fill="#263238"/>
<path d="M92.2023 37.8448C92.2023 37.8448 92.5623 36.4315 90.9223 33.7916C89.2824 31.1516 91.0823 29.5183 92.3356 29.8917C92.3356 29.8917 91.669 28.2717 92.7756 27.7184C93.8823 27.1651 94.4156 27.7917 94.4156 27.7917C95.8004 26.7927 97.373 26.084 99.0387 25.7082C100.704 25.3325 102.429 25.2974 104.109 25.6051C108.609 26.4984 111.928 23.3585 113.602 24.5785C115.275 25.7985 112.268 26.9451 112.268 26.9451C112.268 26.9451 114.935 28.4317 114.548 29.8183C114.162 31.205 111.655 31.3116 111.655 31.3116C111.655 31.3116 114.222 33.0183 113.175 34.1516C112.128 35.2849 108.862 33.9116 108.862 33.9116C108.862 33.9116 95.8822 33.8449 92.2023 37.8448Z" fill="#263238"/>
<path d="M100.782 51.8578C100.78 51.8755 100.78 51.8934 100.782 51.9111L99.7421 54.6177C99.6245 55.1707 99.5553 55.7328 99.5354 56.2977C99.5232 56.743 99.5432 57.1886 99.5954 57.631C100.115 58.5376 100.202 60.4709 98.0288 60.2442C95.2822 59.9643 90.629 55.6577 90.5757 54.4244C92.2556 50.8178 93.8489 46.298 94.0289 42.6914L96.7955 46.418L100.782 51.8578Z" fill="#FFC3BD"/>
<g opacity="0.2">
<path d="M100.755 51.9176L99.7153 54.6242C98.082 53.6509 96.4687 51.771 96.2621 49.8977C96.1154 48.5644 96.8421 47.3778 97.382 47.3711L100.755 51.9176Z" fill="black"/>
</g>
<path d="M108.348 46.8517C108.122 47.4384 107.875 48.0117 107.615 48.5783C105.322 53.5782 98.8686 53.3582 95.3021 49.0983C94.9758 48.7118 94.6815 48.2993 94.4221 47.865C92.2555 44.2651 93.1688 41.7719 94.1821 36.0054C94.4083 34.6664 94.9715 33.407 95.8189 32.3459C96.6662 31.2848 97.7697 30.4568 99.0254 29.94C100.281 29.4231 101.648 29.2345 102.997 29.3917C104.345 29.549 105.632 30.047 106.735 30.8388C111.268 34.1254 110.622 40.9786 108.348 46.8517Z" fill="#FFC3BD"/>
<path d="M103.182 46.3053C103.08 46.448 102.94 46.5593 102.778 46.6265C102.616 46.6938 102.438 46.7143 102.265 46.6858C102.092 46.6574 101.93 46.581 101.798 46.4653C101.666 46.3497 101.569 46.1994 101.518 46.0315C101.467 45.8636 101.464 45.6848 101.51 45.5153C101.555 45.3458 101.647 45.1924 101.775 45.0724C101.903 44.9524 102.062 44.8707 102.234 44.8364C102.406 44.8022 102.584 44.8168 102.749 44.8786C102.992 45.0139 103.173 45.2383 103.253 45.5044C103.334 45.7705 103.309 46.0577 103.182 46.3053Z" fill="white"/>
<path d="M99.0154 35.0995C100.515 34.8928 99.4954 33.2328 99.8154 32.2995C100.869 29.2796 109.088 31.3462 110.035 35.9728C110.035 35.9728 109.808 32.4462 107.242 30.2862C104.675 28.1263 99.1554 27.1463 96.6155 29.6196C94.0755 32.0929 94.0622 36.5127 94.0622 36.5127C94.0275 36.9955 94.1803 37.4731 94.4889 37.846C94.7622 38.1127 95.2422 39.3327 96.0422 39.6527C96.7088 39.9326 97.2421 39.8193 97.4955 38.8327C97.7488 37.846 97.9754 35.2395 99.0154 35.0995Z" fill="#263238"/>
<path d="M90.8089 39.1976C90.8434 39.9255 91.0213 40.6395 91.3325 41.2984C91.6437 41.9574 92.082 42.5484 92.6222 43.0375C94.0821 44.3375 95.6621 43.2442 95.9554 41.4176C96.2354 39.7776 95.8154 37.131 94.0088 36.531C92.2022 35.931 90.6756 37.3977 90.7889 39.1976" fill="#FFC3BD"/>
<path d="M102.588 39.5236C102.482 39.9769 102.635 40.3969 102.928 40.4635C103.222 40.5302 103.542 40.2302 103.648 39.7969C103.755 39.3636 103.608 38.9236 103.315 38.8569C103.022 38.7903 102.695 39.0903 102.588 39.5236Z" fill="#263238"/>
<path d="M107.509 40.6458C107.402 41.0925 107.555 41.5125 107.849 41.5858C108.142 41.6591 108.462 41.3458 108.569 40.9192C108.675 40.4925 108.529 40.0525 108.235 39.9858C107.942 39.9192 107.622 40.2192 107.509 40.6525" fill="#263238"/>
<path d="M109.268 39.299C109.228 39.2889 109.192 39.269 109.161 39.2411C109.131 39.2131 109.108 39.178 109.095 39.139C109.059 38.9787 108.992 38.8271 108.897 38.6932C108.802 38.5593 108.681 38.4457 108.542 38.359C108.243 38.2218 107.906 38.1935 107.588 38.279C107.56 38.2892 107.529 38.2933 107.498 38.291C107.468 38.2887 107.438 38.2801 107.411 38.2656C107.384 38.2512 107.361 38.2313 107.342 38.2072C107.323 38.1831 107.309 38.1554 107.302 38.1257C107.293 38.0968 107.289 38.0664 107.292 38.0362C107.295 38.006 107.304 37.9767 107.318 37.95C107.332 37.9233 107.352 37.8997 107.375 37.8806C107.399 37.8616 107.426 37.8474 107.455 37.8391C107.898 37.7055 108.375 37.746 108.788 37.9524C108.985 38.0656 109.155 38.2183 109.289 38.4007C109.424 38.5831 109.519 38.7914 109.568 39.0124C109.577 39.0417 109.58 39.0725 109.577 39.1031C109.574 39.1336 109.565 39.1632 109.55 39.19C109.535 39.2168 109.515 39.2403 109.49 39.259C109.466 39.2778 109.438 39.2914 109.408 39.299C109.386 39.3092 109.363 39.3144 109.338 39.3144C109.314 39.3144 109.29 39.3092 109.268 39.299Z" fill="#263238"/>
<path d="M101.635 37.4577C101.596 37.452 101.559 37.4359 101.529 37.411C101.478 37.3682 101.446 37.3073 101.44 37.2412C101.434 37.1751 101.454 37.1092 101.495 37.0577C101.819 36.6883 102.268 36.451 102.755 36.3911C102.999 36.3785 103.244 36.4157 103.473 36.5005C103.702 36.5853 103.912 36.7159 104.089 36.8844C104.135 36.9328 104.161 36.9973 104.161 37.0644C104.161 37.1315 104.135 37.196 104.089 37.2444C104.041 37.2904 103.978 37.3161 103.912 37.3161C103.846 37.3161 103.783 37.2904 103.735 37.2444C103.608 37.1216 103.458 37.0254 103.293 36.9613C103.128 36.8972 102.952 36.8665 102.775 36.8711C102.421 36.9181 102.096 37.0936 101.862 37.3644C101.835 37.3978 101.8 37.424 101.761 37.4403C101.721 37.4566 101.678 37.4626 101.635 37.4577Z" fill="#263238"/>
<path d="M105.682 39.8594C105.819 41.0484 106.106 42.2153 106.535 43.3326C107.162 44.7592 104.702 44.2259 104.702 44.2259L105.682 39.8594Z" fill="#ED847E"/>
<path opacity="0.2" d="M81.7759 69.7031L73.2161 83.8627C73.2161 81.7828 73.1628 79.7695 73.1228 77.8629C73.1228 77.6296 73.1228 77.3963 73.1228 77.1963L81.7759 69.7031Z" fill="black"/>
<path d="M123.121 90.9094C121.808 91.4908 120.328 91.5733 118.958 91.1413C117.588 90.7093 116.423 89.7925 115.681 88.5629L115.388 88.0695L114.808 87.0762C114.708 86.9162 114.615 86.7496 114.521 86.5829C114.208 86.0496 113.901 85.5096 113.588 84.9696L112.555 83.163L111.528 81.3564C111.181 80.7564 110.861 80.1497 110.508 79.5498C110.155 78.9498 109.841 78.3365 109.495 77.7298L109.375 77.5098L107.482 74.0832C106.148 71.6433 104.815 69.1967 103.562 66.7501C102.308 64.3035 101.015 61.8036 99.8218 59.277L105.068 55.8438C106.902 57.9504 108.662 60.1103 110.401 62.2769L110.981 63.0036L114.981 60.9103C115.981 62.6702 116.928 64.4568 117.861 66.2435C118.795 68.0301 119.708 69.8434 120.601 71.6566C121.495 73.4699 122.388 75.2899 123.268 77.1232C124.148 78.9564 124.994 80.7897 125.834 82.6297L126.068 83.1497C126.384 83.8526 126.559 84.611 126.582 85.3815C126.605 86.152 126.476 86.9196 126.203 87.6402C125.929 88.3609 125.516 89.0205 124.987 89.5815C124.458 90.1425 123.824 90.5937 123.121 90.9094Z" fill="#2AC6FA"/>
<path d="M112.522 83.1625L112.348 82.7892C111.722 81.7092 111.108 80.6226 110.508 79.5293C110.842 80.1293 111.175 80.7359 111.528 81.3359L112.522 83.1625Z" fill="#2AC6FA"/>
<path d="M105.015 57.1776C104.888 58.1909 104.155 59.7642 102.682 59.7109C101.767 59.666 100.866 59.47 100.015 59.1309C98.8886 58.8442 96.7753 58.1309 96.0487 56.7376C95.0287 54.791 96.622 51.7378 96.622 51.7378C94.9687 50.1711 93.0154 47.4779 94.3821 48.0912C95.7487 48.7045 101.109 52.4511 103.048 52.0244C104.835 51.6311 105.462 50.0845 106.128 50.3978C106.795 50.7111 105.462 52.1444 104.755 53.5844C105.018 54.7629 105.105 55.9736 105.015 57.1776Z" fill="#FFC3BD"/>
<g opacity="0.2">
<path d="M99.5419 59.1552H99.4686C99.3352 59.0885 96.0953 57.5685 95.5087 55.9152C94.9887 54.4353 96.1087 52.3087 96.4153 51.7754C95.4817 51.0045 94.6605 50.107 93.9754 49.1088C93.7421 48.6288 93.6887 48.2821 93.8154 48.0555C93.8443 48.0008 93.8861 47.9539 93.9373 47.9191C93.9884 47.8842 94.0472 47.8624 94.1087 47.8555C94.7754 47.8555 95.4953 48.3754 96.462 49.0888C97.6301 50.0005 98.9009 50.7724 100.249 51.3887C103.162 52.6687 103.688 51.8887 104.035 51.3887L104.162 51.1954C104.548 50.6421 105.195 49.7154 106.288 50.1621C106.308 50.1701 106.326 50.182 106.342 50.1972C106.357 50.2123 106.369 50.2304 106.377 50.2503C106.385 50.2702 106.389 50.2916 106.389 50.3131C106.388 50.3346 106.384 50.3558 106.375 50.3754C106.368 50.3959 106.356 50.4147 106.341 50.4307C106.326 50.4466 106.308 50.4594 106.289 50.4681C106.269 50.4768 106.247 50.4814 106.225 50.4815C106.203 50.4816 106.182 50.4773 106.162 50.4687C105.375 50.1554 104.915 50.6954 104.435 51.3887L104.308 51.5754C103.788 52.342 103.035 52.9887 100.115 51.7087C98.7454 51.0829 97.4542 50.2975 96.2687 49.3688C95.382 48.7021 94.6887 48.2088 94.1287 48.1955C94.1287 48.1955 94.1287 48.1955 94.1287 48.2421C94.1287 48.2888 94.0554 48.4688 94.302 48.9754C94.7554 49.9087 96.742 51.642 96.762 51.642C96.7882 51.6714 96.8027 51.7093 96.8027 51.7487C96.8027 51.788 96.7882 51.826 96.762 51.8554C96.762 51.8554 95.282 54.3086 95.8153 55.8552C96.3486 57.4019 99.5752 58.8885 99.6019 58.9018C99.6373 58.9169 99.6665 58.9438 99.6843 58.978C99.7022 59.0121 99.7076 59.0514 99.6997 59.0892C99.6919 59.1269 99.6712 59.1607 99.6412 59.1849C99.6112 59.2091 99.5738 59.2221 99.5352 59.2218L99.5419 59.1552Z" fill="black"/>
</g>
<path opacity="0.2" d="M107.402 58.5098L121.681 80.2358C121.681 80.2358 120.015 72.956 107.402 58.5098Z" fill="black"/>
<path d="M73.1294 107.976C73.1294 107.976 78.8759 109.743 79.3359 110.863C79.7958 111.983 77.9092 111.696 77.9092 111.696C77.9092 111.696 79.9558 112.123 79.9092 112.916C79.8425 113.862 77.8759 113.549 77.8759 113.549C77.8759 113.549 79.5359 113.962 79.4359 114.656C79.3359 115.349 77.0826 115.169 77.0826 115.169C77.0826 115.169 78.2026 115.656 77.8159 116.089C77.4292 116.522 73.256 116.222 71.9361 115.282C70.6161 114.342 71.4694 109.083 71.8561 107.949C72.2427 106.816 71.5627 105.616 73.1894 104.303L73.136 107.989L73.1294 107.976Z" fill="#FFC3BD"/>
<path opacity="0.2" d="M77.896 111.784L74.3494 110.877C74.327 110.871 74.3078 110.857 74.2954 110.837C74.2831 110.817 74.2786 110.794 74.2828 110.771C74.2915 110.749 74.3074 110.73 74.3279 110.718C74.3485 110.706 74.3725 110.701 74.3961 110.704L77.9293 111.611C77.9409 111.613 77.9518 111.618 77.9615 111.624C77.9712 111.631 77.9794 111.64 77.9856 111.65C77.9918 111.66 77.996 111.671 77.9978 111.682C77.9996 111.694 77.999 111.706 77.996 111.717C77.9912 111.739 77.9781 111.758 77.9594 111.771C77.9408 111.783 77.9181 111.788 77.896 111.784Z" fill="black"/>
<path opacity="0.2" d="M77.7558 113.623L74.2959 112.99C74.284 112.989 74.2724 112.986 74.262 112.98C74.2515 112.975 74.2425 112.967 74.2355 112.957C74.2284 112.948 74.2236 112.937 74.2214 112.925C74.2192 112.913 74.2196 112.901 74.2225 112.89C74.2202 112.874 74.2222 112.857 74.2283 112.842C74.2343 112.827 74.2443 112.813 74.2571 112.803C74.2699 112.793 74.2852 112.787 74.3013 112.784C74.3175 112.782 74.334 112.784 74.3492 112.79L77.8158 113.456C77.8388 113.456 77.8608 113.465 77.8771 113.482C77.8933 113.498 77.9024 113.52 77.9024 113.543C77.9024 113.566 77.8933 113.588 77.8771 113.604C77.8608 113.621 77.8388 113.63 77.8158 113.63L77.7558 113.623Z" fill="black"/>
<path opacity="0.2" d="M76.9495 115.237L74.3562 114.837C74.3448 114.835 74.3338 114.831 74.3239 114.825C74.314 114.819 74.3054 114.811 74.2985 114.802C74.2917 114.793 74.2868 114.782 74.2841 114.771C74.2814 114.76 74.281 114.748 74.2829 114.737C74.2878 114.713 74.3016 114.692 74.3215 114.679C74.3414 114.665 74.3658 114.659 74.3896 114.663L76.9762 115.063C76.9876 115.065 76.9986 115.069 77.0085 115.075C77.0184 115.081 77.0271 115.089 77.0339 115.098C77.0407 115.107 77.0456 115.118 77.0483 115.129C77.051 115.14 77.0514 115.152 77.0495 115.163C77.0489 115.175 77.0456 115.187 77.04 115.197C77.0344 115.208 77.0265 115.217 77.0169 115.224C77.0073 115.231 76.9963 115.236 76.9847 115.238C76.973 115.24 76.961 115.24 76.9495 115.237Z" fill="black"/>
<path d="M205.053 122.958H133.396L138.844 51.2988H210.503L205.053 122.958Z" fill="#F7F7F7"/>
<path d="M166.313 122.958H158.095L192.881 51.2988H201.096L166.313 122.958Z" fill="#F2F2F2"/>
<path d="M156.436 122.958H148.221L183.007 51.2988H191.222L156.436 122.958Z" fill="#F2F2F2"/>
<path d="M206.049 109.86H134.39L134.499 108.418H206.158L206.049 109.86Z" fill="white"/>
<path d="M150.547 109.86H134.39L134.499 108.418H150.656L150.547 109.86Z" fill="#CCCCCC"/>
<path d="M150.492 110.592C150.422 110.593 150.353 110.579 150.289 110.551C150.225 110.524 150.168 110.483 150.121 110.432C150.074 110.38 150.038 110.32 150.015 110.254C149.993 110.188 149.985 110.118 149.991 110.049L150.13 108.229C150.143 108.082 150.21 107.946 150.318 107.846C150.425 107.746 150.565 107.689 150.712 107.686C150.782 107.685 150.851 107.699 150.915 107.726C150.979 107.754 151.036 107.795 151.083 107.846C151.13 107.897 151.166 107.958 151.188 108.023C151.211 108.089 151.219 108.159 151.212 108.229L151.074 110.049C151.061 110.195 150.994 110.331 150.886 110.431C150.779 110.531 150.638 110.588 150.492 110.592Z" fill="#CCCCCC"/>
<path d="M173.422 67.7168C166.678 67.7168 160.794 73.187 160.28 79.931C159.767 86.675 164.819 92.1452 171.566 92.1452C178.313 92.1452 184.198 86.6783 184.708 79.931C185.219 73.1837 180.17 67.7168 173.422 67.7168ZM171.681 90.6378C165.757 90.6378 161.34 85.8456 161.791 79.931C162.242 74.0164 167.386 69.2275 173.311 69.2275C179.235 69.2275 183.652 74.0197 183.204 79.931C182.757 85.8423 177.596 90.6378 171.681 90.6378Z" fill="#CCCCCC"/>
<path d="M177.444 78.5458L170.908 74.5961C170.681 74.4602 170.424 74.3844 170.16 74.3758C169.896 74.3673 169.634 74.4263 169.4 74.5473C169.165 74.6683 168.965 74.8472 168.819 75.0672C168.672 75.2871 168.585 75.5408 168.564 75.8041L167.965 83.7033C167.943 83.9834 167.997 84.2645 168.122 84.5162C168.247 84.7679 168.438 84.9809 168.675 85.1321C168.911 85.2834 169.185 85.3673 169.466 85.3747C169.747 85.3822 170.025 85.313 170.269 85.1746L177.408 81.2249C177.645 81.0923 177.843 80.8997 177.982 80.6664C178.121 80.4331 178.196 80.1673 178.2 79.8958C178.203 79.6243 178.135 79.3566 178.003 79.1196C177.87 78.8826 177.678 78.6847 177.444 78.5458Z" fill="#CCCCCC"/>
<path d="M143.633 115.494L140.391 113.539C140.278 113.471 140.151 113.433 140.02 113.428C139.889 113.424 139.759 113.453 139.642 113.513C139.526 113.573 139.426 113.662 139.354 113.771C139.282 113.881 139.239 114.007 139.229 114.138L138.936 118.048C138.926 118.186 138.953 118.324 139.015 118.448C139.077 118.572 139.172 118.677 139.288 118.751C139.405 118.826 139.539 118.868 139.678 118.873C139.816 118.878 139.953 118.845 140.075 118.778L143.606 116.83C143.726 116.766 143.827 116.67 143.898 116.554C143.969 116.438 144.007 116.305 144.01 116.169C144.013 116.033 143.979 115.899 143.913 115.78C143.847 115.662 143.75 115.563 143.633 115.494Z" fill="#CCCCCC"/>
<path d="M166.889 115.494L163.647 113.539C163.535 113.471 163.407 113.433 163.276 113.428C163.145 113.424 163.015 113.453 162.899 113.513C162.782 113.573 162.683 113.662 162.611 113.771C162.538 113.881 162.495 114.007 162.485 114.138L162.189 118.051C162.178 118.189 162.205 118.327 162.267 118.451C162.328 118.575 162.422 118.68 162.539 118.755C162.655 118.83 162.79 118.872 162.928 118.877C163.066 118.882 163.203 118.849 163.325 118.782L166.863 116.83C166.983 116.766 167.085 116.671 167.157 116.555C167.228 116.439 167.267 116.306 167.27 116.17C167.273 116.033 167.239 115.898 167.172 115.78C167.105 115.661 167.007 115.562 166.889 115.494Z" fill="#CCCCCC"/>
<path d="M169.706 115.494L166.468 113.539C166.356 113.471 166.228 113.433 166.097 113.428C165.966 113.424 165.836 113.453 165.719 113.513C165.603 113.573 165.504 113.662 165.431 113.771C165.359 113.881 165.316 114.007 165.306 114.138L165.006 118.051C164.996 118.189 165.024 118.327 165.086 118.451C165.148 118.575 165.242 118.68 165.359 118.755C165.475 118.83 165.61 118.872 165.748 118.876C165.887 118.881 166.024 118.848 166.145 118.782L169.683 116.83C169.804 116.766 169.905 116.671 169.976 116.555C170.048 116.438 170.087 116.305 170.089 116.169C170.091 116.032 170.057 115.898 169.99 115.779C169.923 115.66 169.825 115.562 169.706 115.494Z" fill="#CCCCCC"/>
<path d="M151.169 118.92C151.079 118.92 150.989 118.902 150.906 118.866C150.823 118.83 150.749 118.777 150.687 118.711C150.625 118.645 150.578 118.567 150.547 118.482C150.517 118.397 150.505 118.306 150.511 118.216L150.817 114.157C150.836 113.967 150.923 113.791 151.063 113.661C151.204 113.531 151.387 113.457 151.578 113.453C151.668 113.453 151.758 113.471 151.841 113.507C151.924 113.543 151.998 113.596 152.06 113.662C152.122 113.728 152.169 113.806 152.2 113.891C152.23 113.977 152.242 114.067 152.236 114.157L151.926 118.216C151.909 118.406 151.822 118.582 151.682 118.712C151.543 118.842 151.36 118.916 151.169 118.92Z" fill="#CCCCCC"/>
<path d="M153.747 118.92C153.656 118.92 153.567 118.902 153.484 118.866C153.401 118.83 153.326 118.777 153.264 118.711C153.202 118.645 153.155 118.567 153.125 118.482C153.095 118.397 153.082 118.306 153.089 118.216L153.398 114.157C153.416 113.968 153.503 113.791 153.642 113.661C153.782 113.531 153.964 113.457 154.155 113.453C154.245 113.453 154.335 113.471 154.418 113.507C154.501 113.543 154.576 113.596 154.637 113.662C154.699 113.728 154.747 113.806 154.777 113.891C154.807 113.977 154.82 114.067 154.813 114.157L154.504 118.216C154.486 118.406 154.399 118.582 154.26 118.712C154.12 118.842 153.937 118.916 153.747 118.92Z" fill="#CCCCCC"/>
<path d="M169.252 118.92C169.162 118.92 169.072 118.902 168.989 118.866C168.906 118.83 168.832 118.777 168.77 118.711C168.708 118.645 168.661 118.567 168.63 118.482C168.6 118.397 168.588 118.306 168.594 118.216L168.9 114.157C168.919 113.967 169.006 113.791 169.147 113.661C169.287 113.531 169.47 113.457 169.661 113.453C169.751 113.453 169.841 113.471 169.924 113.507C170.007 113.543 170.081 113.596 170.143 113.662C170.205 113.728 170.252 113.806 170.283 113.891C170.313 113.977 170.325 114.067 170.319 114.157L170.013 118.216C169.994 118.406 169.907 118.583 169.766 118.712C169.626 118.842 169.443 118.916 169.252 118.92Z" fill="#CCCCCC"/>
<path d="M199.73 118.636H192.272C192.135 118.637 192 118.609 191.874 118.554C191.749 118.499 191.636 118.419 191.543 118.318C191.45 118.218 191.379 118.099 191.335 117.97C191.29 117.84 191.273 117.703 191.285 117.566L191.499 114.788C191.525 114.499 191.657 114.23 191.869 114.033C192.082 113.835 192.36 113.723 192.651 113.719H200.109C200.246 113.718 200.381 113.746 200.507 113.801C200.632 113.856 200.745 113.936 200.838 114.036C200.931 114.137 201.002 114.256 201.046 114.385C201.091 114.515 201.108 114.652 201.096 114.788L200.886 117.566C200.86 117.856 200.727 118.126 200.514 118.323C200.3 118.521 200.021 118.632 199.73 118.636ZM192.608 114.196C192.452 114.203 192.303 114.265 192.189 114.371C192.074 114.477 192.001 114.62 191.982 114.775L191.772 117.553C191.765 117.627 191.775 117.702 191.799 117.772C191.823 117.843 191.861 117.907 191.912 117.962C191.962 118.016 192.024 118.06 192.092 118.089C192.16 118.118 192.234 118.133 192.308 118.132H199.77C199.927 118.13 200.077 118.069 200.192 117.962C200.307 117.855 200.378 117.71 200.392 117.553L200.606 114.775C200.612 114.701 200.603 114.626 200.579 114.555C200.554 114.485 200.516 114.42 200.465 114.366C200.414 114.311 200.352 114.268 200.283 114.239C200.215 114.209 200.141 114.195 200.066 114.196H192.608Z" fill="#CCCCCC"/>
</svg>
