<svg width="38" height="38" viewBox="0 0 38 38" fill="none" xmlns="http://www.w3.org/2000/svg">
<path d="M15.8337 30.2575V7.7425C15.8337 5.605 15.2438 4.75 13.7536 4.75H9.99706C8.50686 4.75 7.91699 5.605 7.91699 7.7425V30.2575C7.91699 32.395 8.50686 33.25 9.99706 33.25H13.7536C15.2438 33.25 15.8337 32.395 15.8337 30.2575Z" fill="white"/>
<path d="M30.0837 30.2575V7.7425C30.0837 5.605 29.4938 4.75 28.0036 4.75H24.2471C22.7672 4.75 22.167 5.605 22.167 7.7425V30.2575C22.167 32.395 22.7569 33.25 24.2471 33.25H28.0036C29.4938 33.25 30.0837 32.395 30.0837 30.2575Z" fill="white"/>
</svg>
