<svg width="36" height="30" viewBox="0 0 36 30" fill="none" xmlns="http://www.w3.org/2000/svg">
<path d="M33.6562 7.06155H31.1406L30.6988 3.63318C30.4328 1.56165 28.6664 0 26.5896 0H21.1103C19.0337 0 17.2679 1.56165 17.0013 3.6325L16.56 7.06155H11.225V5.4051C11.225 4.67358 10.6357 4.08112 9.9093 4.08112H5.69177C4.9654 4.08112 4.37547 4.67365 4.37547 5.4051V7.06155H2.34374C1.04858 7.06155 0 8.11738 0 9.41957V27.642C0 28.9442 1.04858 30 2.34374 30H33.6561C34.9515 30 36 28.9442 36 27.642V9.41957C36.0001 8.1173 34.9516 7.06155 33.6562 7.06155ZM17.8498 28.4088C12.5729 28.4088 8.29408 24.1044 8.29408 18.7947C8.29408 14.0288 11.7456 10.0833 16.268 9.3235C16.7837 9.23686 17.3098 9.18092 17.8498 9.18092C20.1681 9.18092 22.2927 10.0126 23.9475 11.3937C26.0604 13.1569 27.4066 15.8179 27.4066 18.7947C27.4066 24.1043 23.127 28.4088 17.8498 28.4088ZM20.1893 7.06155L20.5712 4.09759C20.6064 3.82629 20.8381 3.62187 21.1102 3.62187H26.5895C26.8616 3.62187 27.094 3.82629 27.1287 4.09819L27.5112 7.06148H20.1893V7.06155ZM30.9187 14.3053C29.7479 14.3053 28.8003 13.3508 28.8003 12.1736C28.8003 11.8977 28.856 11.636 28.9515 11.3937C29.2607 10.6033 30.0225 10.0421 30.9187 10.0421C31.1354 10.0421 31.3407 10.0845 31.539 10.1451C32.4049 10.4134 33.0376 11.2145 33.0376 12.1736C33.0376 13.3508 32.0894 14.3053 30.9187 14.3053Z" fill="#2AC6FA"/>
<path d="M17.8498 11.7119C13.9675 11.7119 10.8091 14.8894 10.8091 18.7946C10.8091 22.7 13.9674 25.8775 17.8498 25.8775C21.7325 25.8775 24.8907 22.7 24.8907 18.7946C24.8907 14.8894 21.7325 11.7119 17.8498 11.7119ZM17.8498 23.4629C15.2906 23.4629 13.2095 21.369 13.2095 18.7946C13.2095 16.2204 15.2906 14.1265 17.8498 14.1265C20.4093 14.1265 22.4906 16.2204 22.4906 18.7946C22.4906 21.369 20.4093 23.4629 17.8498 23.4629Z" fill="#2AC6FA"/>
</svg>
