<svg width="24" height="24" viewBox="0 0 24 24" fill="none" xmlns="http://www.w3.org/2000/svg">
<path fill-rule="evenodd" clip-rule="evenodd" d="M18.5393 4.40053C18.8318 4.10726 19.3067 4.10665 19.6 4.39917C23.8041 8.59259 23.8032 15.398 19.6006 19.6005C19.3077 19.8934 18.8329 19.8934 18.54 19.6005C18.2471 19.3076 18.2471 18.8328 18.54 18.5399C22.1575 14.9224 22.1565 9.06776 18.5407 5.46118C18.2474 5.16867 18.2468 4.69379 18.5393 4.40053Z" fill="#909090"/>
<path fill-rule="evenodd" clip-rule="evenodd" d="M5.4599 4.39985C5.75279 4.69274 5.75279 5.16761 5.4599 5.46051C1.84242 9.07799 1.8434 14.9326 5.45922 18.5392C5.75249 18.8317 5.7531 19.3066 5.46058 19.5998C5.16806 19.8931 4.69319 19.8937 4.39992 19.6012C0.195745 15.4078 0.196723 8.60236 4.39924 4.39985C4.69213 4.10695 5.16701 4.10695 5.4599 4.39985Z" fill="#909090"/>
<path fill-rule="evenodd" clip-rule="evenodd" d="M7.99158 21.1648C8.12695 20.7733 8.55404 20.5657 8.9455 20.7011C9.93332 21.0426 10.9592 21.2096 11.997 21.2099C13.0442 21.2003 14.0715 21.0412 15.0553 20.7011C15.4467 20.5657 15.8738 20.7733 16.0092 21.1648C16.1446 21.5562 15.9369 21.9833 15.5455 22.1187C14.3903 22.5181 13.1988 22.6993 12.0071 22.7099L12.0004 22.71V22.7099C10.7994 22.7099 9.60641 22.5167 8.45529 22.1187C8.06382 21.9833 7.85621 21.5562 7.99158 21.1648Z" fill="#909090"/>
<path fill-rule="evenodd" clip-rule="evenodd" d="M12.0004 2.79004C10.9614 2.79004 9.93438 2.95696 8.9455 3.29891C8.55404 3.43427 8.12695 3.22666 7.99158 2.83519C7.85621 2.44372 8.06382 2.01664 8.45529 1.88127C9.60641 1.48322 10.7994 1.29004 12.0004 1.29004C13.2014 1.29004 14.3944 1.48322 15.5455 1.88127C15.9369 2.01664 16.1446 2.44372 16.0092 2.83519C15.8738 3.22666 15.4467 3.43427 15.0553 3.29891C14.0664 2.95696 13.0394 2.79004 12.0004 2.79004Z" fill="#909090"/>
<path fill-rule="evenodd" clip-rule="evenodd" d="M10.0756 8.86452C9.79531 9.02653 9.49023 9.45001 9.49023 10.3302V13.6902C9.49023 14.5704 9.79531 14.9939 10.0756 15.1559C10.3555 15.3177 10.8737 15.3706 11.6348 14.931C11.6349 14.9309 11.6347 14.931 11.6348 14.931L13.0843 14.0912L14.5343 13.2512C15.2954 12.8115 15.5102 12.3349 15.5102 12.0102C15.5102 11.6854 15.2961 11.2093 14.535 10.7696L13.0843 9.92919L11.635 9.08959C11.6349 9.08952 11.6352 9.08965 11.635 9.08959C10.874 8.64996 10.3555 8.7027 10.0756 8.86452ZM9.3249 7.56588C10.2299 7.04271 11.3467 7.19062 12.3855 7.79079L13.8362 8.63124L15.2855 9.47078C15.2856 9.47085 15.2853 9.47071 15.2855 9.47078C16.3242 10.0711 17.0102 10.9651 17.0102 12.0102C17.0102 13.0554 16.3245 13.9492 15.2857 14.5495C15.2856 14.5495 15.2857 14.5495 15.2857 14.5495L13.8362 15.3891L12.3862 16.2292C11.3475 16.8293 10.2299 16.9777 9.3249 16.4545C8.42017 15.9315 7.99023 14.89 7.99023 13.6902V10.3302C7.99023 9.1304 8.42017 8.08887 9.3249 7.56588Z" fill="#909090"/>
</svg>
