<svg width="24" height="24" viewBox="0 0 24 24" fill="none" xmlns="http://www.w3.org/2000/svg">
<path fill-rule="evenodd" clip-rule="evenodd" d="M6.72242 21.0582C7.37576 21.1861 8.12998 21.2498 9.00037 21.2498H15.0004C15.8708 21.2498 16.625 21.1861 17.2783 21.0582C16.7597 19.2322 14.6913 17.7197 12.0004 17.7197C9.30946 17.7197 7.24103 19.2322 6.72242 21.0582ZM5.11305 21.5565C5.376 18.4489 8.49319 16.2197 12.0004 16.2197C15.5076 16.2197 18.6248 18.4489 18.8877 21.5565C18.9177 21.9112 18.6943 22.2382 18.3529 22.339C17.3821 22.6258 16.2654 22.7498 15.0004 22.7498H9.00037C7.73538 22.7498 6.61866 22.6258 5.64787 22.339C5.30649 22.2382 5.08303 21.9112 5.11305 21.5565Z" fill="#2AC6FA"/>
<path fill-rule="evenodd" clip-rule="evenodd" d="M3.09467 3.09467C4.42914 1.7602 6.42603 1.25 9 1.25H15C17.574 1.25 19.5709 1.7602 20.9053 3.09467C22.2398 4.42914 22.75 6.42603 22.75 9V15C22.75 16.9506 22.4585 18.5641 21.7401 19.8128C21.0039 21.0923 19.8645 21.9113 18.3443 22.3416C18.1288 22.4026 17.8974 22.3642 17.7133 22.2368C17.5291 22.1094 17.4115 21.9063 17.3927 21.6832C17.2156 19.5909 14.9928 17.72 12 17.72C9.00719 17.72 6.78438 19.5909 6.60733 21.6832C6.58845 21.9063 6.47087 22.1094 6.28673 22.2368C6.10259 22.3642 5.87116 22.4026 5.65571 22.3416C4.13552 21.9113 2.99613 21.0923 2.25993 19.8128C1.54148 18.5641 1.25 16.9506 1.25 15V9C1.25 6.42603 1.7602 4.42914 3.09467 3.09467ZM4.15533 4.15533C3.2398 5.07086 2.75 6.57397 2.75 9V15C2.75 16.8294 3.02852 18.1409 3.56007 19.0647C3.95322 19.748 4.50844 20.2603 5.28506 20.6155C6.02949 18.0088 8.85826 16.22 12 16.22C15.1417 16.22 17.9705 18.0088 18.7149 20.6155C19.4916 20.2603 20.0468 19.748 20.4399 19.0647C20.9715 18.1409 21.25 16.8294 21.25 15V9C21.25 6.57397 20.7602 5.07086 19.8447 4.15533C18.9291 3.2398 17.426 2.75 15 2.75H9C6.57397 2.75 5.07086 3.2398 4.15533 4.15533ZM12 7.75C10.4342 7.75 9.17 9.01423 9.17 10.58C9.17 12.1485 10.4369 13.42 12 13.42C13.5631 13.42 14.83 12.1485 14.83 10.58C14.83 9.01423 13.5658 7.75 12 7.75ZM7.67 10.58C7.67 8.18581 9.60578 6.25 12 6.25C14.3942 6.25 16.33 8.18581 16.33 10.58C16.33 12.9715 14.3969 14.92 12 14.92C9.60307 14.92 7.67 12.9715 7.67 10.58Z" fill="#2AC6FA"/>
<path fill-rule="evenodd" clip-rule="evenodd" d="M11.9999 7.75C10.4341 7.75 9.16992 9.01423 9.16992 10.58C9.16992 12.1485 10.4368 13.42 11.9999 13.42C13.563 13.42 14.8299 12.1485 14.8299 10.58C14.8299 9.01423 13.5657 7.75 11.9999 7.75ZM7.66992 10.58C7.66992 8.18581 9.60571 6.25 11.9999 6.25C14.3941 6.25 16.3299 8.18581 16.3299 10.58C16.3299 12.9715 14.3968 14.92 11.9999 14.92C9.603 14.92 7.66992 12.9715 7.66992 10.58Z" fill="#2AC6FA"/>
</svg>
