<svg width="20" height="20" viewBox="0 0 20 20" fill="none" xmlns="http://www.w3.org/2000/svg">
<path d="M2.30912 15.2077C2.40912 16.9243 3.33412 18.3327 5.63412 18.3327H14.3675C16.6675 18.3327 17.5841 16.9243 17.6925 15.2077L18.1258 8.32435C18.2425 6.52435 16.8091 4.99935 15.0008 4.99935C14.4925 4.99935 14.0258 4.70768 13.7925 4.25768L13.1925 3.04935C12.8091 2.29102 11.8091 1.66602 10.9591 1.66602H9.05079C8.19246 1.66602 7.19246 2.29102 6.80912 3.04935L6.20912 4.25768C5.97579 4.70768 5.50912 4.99935 5.00079 4.99935C3.19246 4.99935 1.75912 6.52435 1.87579 8.32435L2.09246 11.716" stroke="white" stroke-width="1.5" stroke-linecap="round" stroke-linejoin="round"/>
<path d="M8.75 6.66602H11.25" stroke="white" stroke-width="1.5" stroke-linecap="round" stroke-linejoin="round"/>
<path d="M9.99935 15.0007C11.491 15.0007 12.7077 13.784 12.7077 12.2923C12.7077 10.8007 11.491 9.58398 9.99935 9.58398C8.50768 9.58398 7.29102 10.8007 7.29102 12.2923C7.29102 13.784 8.50768 15.0007 9.99935 15.0007Z" stroke="white" stroke-width="1.5" stroke-linecap="round" stroke-linejoin="round"/>
</svg>
