<svg width="20" height="21" viewBox="0 0 20 21" fill="none" xmlns="http://www.w3.org/2000/svg">
<path d="M7.49935 18.8327H12.4993C16.666 18.8327 18.3327 17.166 18.3327 12.9993V7.99935C18.3327 3.83268 16.666 2.16602 12.4993 2.16602H7.49935C3.33268 2.16602 1.66602 3.83268 1.66602 7.99935V12.9993C1.66602 17.166 3.33268 18.8327 7.49935 18.8327Z" stroke="#2AC6FA" stroke-width="1.5" stroke-linecap="round" stroke-linejoin="round"/>
<path d="M14.1673 2.5332V10.8499C14.1673 12.4915 12.9923 13.1332 11.5507 12.2665L10.4507 11.6082C10.2007 11.4582 9.80065 11.4582 9.55065 11.6082L8.45065 12.2665C7.00898 13.1249 5.83398 12.4915 5.83398 10.8499V2.5332" stroke="#2AC6FA" stroke-width="1.5" stroke-linecap="round" stroke-linejoin="round"/>
<path fill-rule="evenodd" clip-rule="evenodd" d="M2.57824 3.07824C3.6903 1.96618 5.35437 1.54102 7.49935 1.54102H12.4993C14.6443 1.54102 16.3084 1.96618 17.4205 3.07824C18.5325 4.1903 18.9577 5.85437 18.9577 7.99935V12.9993C18.9577 15.1443 18.5325 16.8084 17.4205 17.9205C16.3084 19.0325 14.6443 19.4577 12.4993 19.4577H7.49935C5.35437 19.4577 3.6903 19.0325 2.57824 17.9205C1.46618 16.8084 1.04102 15.1443 1.04102 12.9993V7.99935C1.04102 5.85437 1.46618 4.1903 2.57824 3.07824ZM3.46212 3.96212C2.69918 4.72507 2.29102 5.97766 2.29102 7.99935V12.9993C2.29102 15.021 2.69918 16.2736 3.46212 17.0366C4.22507 17.7995 5.47766 18.2077 7.49935 18.2077H12.4993C14.521 18.2077 15.7736 17.7995 16.5366 17.0366C17.2995 16.2736 17.7077 15.021 17.7077 12.9993V7.99935C17.7077 5.97766 17.2995 4.72507 16.5366 3.96212C15.7736 3.19918 14.521 2.79102 12.4993 2.79102H7.49935C5.47766 2.79102 4.22507 3.19918 3.46212 3.96212Z" fill="#2AC6FA"/>
<path fill-rule="evenodd" clip-rule="evenodd" d="M5.83398 1.9082C6.17916 1.9082 6.45898 2.18803 6.45898 2.5332V10.8499C6.45898 11.5356 6.69826 11.8374 6.89894 11.9459C7.10753 12.0587 7.5164 12.0953 8.13052 11.7297C8.13039 11.7298 8.13065 11.7297 8.13052 11.7297L9.22909 11.0723C9.22905 11.0723 9.22914 11.0722 9.22909 11.0723C9.47226 10.9264 9.7523 10.8707 10.0007 10.8707C10.249 10.8707 10.5289 10.9263 10.7721 11.0722C10.772 11.0722 10.7721 11.0722 10.7721 11.0722L11.8727 11.7309C12.4862 12.0997 12.8938 12.0622 13.1014 11.9495C13.3027 11.8403 13.5423 11.5361 13.5423 10.8499V2.5332C13.5423 2.18803 13.8221 1.9082 14.1673 1.9082C14.5125 1.9082 14.7923 2.18803 14.7923 2.5332V10.8499C14.7923 11.8054 14.4444 12.6428 13.6978 13.0481C12.9576 13.4499 12.0571 13.3001 11.2291 12.8025C11.229 12.8024 11.2293 12.8026 11.2291 12.8025L10.1297 12.1445C10.1298 12.1446 10.1262 12.1424 10.1194 12.1397C10.1127 12.137 10.1033 12.1339 10.091 12.1309C10.066 12.1248 10.0348 12.1207 10.0007 12.1207C9.96648 12.1207 9.93532 12.1248 9.91026 12.1309C9.89804 12.1339 9.8886 12.137 9.88186 12.1397C9.87509 12.1424 9.87209 12.1442 9.87221 12.1441L8.77038 12.8036C7.94306 13.2961 7.04373 13.4452 6.30444 13.0455C5.5572 12.6415 5.20898 11.8058 5.20898 10.8499V2.5332C5.20898 2.18803 5.48881 1.9082 5.83398 1.9082Z" fill="#2AC6FA"/>
</svg>
