<svg width="20" height="21" viewBox="0 0 20 21" fill="none" xmlns="http://www.w3.org/2000/svg">
<path fill-rule="evenodd" clip-rule="evenodd" d="M2.57824 3.07824C3.6903 1.96618 5.35437 1.54102 7.49935 1.54102H12.4993C14.6443 1.54102 16.3084 1.96618 17.4205 3.07824C18.5325 4.1903 18.9577 5.85437 18.9577 7.99935V12.9993C18.9577 15.1443 18.5325 16.8084 17.4205 17.9205C16.3084 19.0325 14.6443 19.4577 12.4993 19.4577H7.49935C5.35437 19.4577 3.6903 19.0325 2.57824 17.9205C1.46618 16.8084 1.04102 15.1443 1.04102 12.9993V7.99935C1.04102 5.85437 1.46618 4.1903 2.57824 3.07824ZM3.46212 3.96212C2.69918 4.72507 2.29102 5.97766 2.29102 7.99935V12.9993C2.29102 15.021 2.69918 16.2736 3.46212 17.0366C4.22507 17.7995 5.47766 18.2077 7.49935 18.2077H12.4993C14.521 18.2077 15.7736 17.7995 16.5366 17.0366C17.2995 16.2736 17.7077 15.021 17.7077 12.9993V7.99935C17.7077 5.97766 17.2995 4.72507 16.5366 3.96212C15.7736 3.19918 14.521 2.79102 12.4993 2.79102H7.49935C5.47766 2.79102 4.22507 3.19918 3.46212 3.96212Z" fill="#2AC6FA"/>
<path fill-rule="evenodd" clip-rule="evenodd" d="M6.25 8C6.25 7.65482 6.52982 7.375 6.875 7.375H13.125C13.4702 7.375 13.75 7.65482 13.75 8C13.75 8.34518 13.4702 8.625 13.125 8.625H6.875C6.52982 8.625 6.25 8.34518 6.25 8Z" fill="#2AC6FA"/>
<path fill-rule="evenodd" clip-rule="evenodd" d="M6.04102 13C6.04102 12.6548 6.32084 12.375 6.66602 12.375H9.99935C10.3445 12.375 10.6243 12.6548 10.6243 13C10.6243 13.3452 10.3445 13.625 9.99935 13.625H6.66602C6.32084 13.625 6.04102 13.3452 6.04102 13Z" fill="#2AC6FA"/>
</svg>
