<svg width="18" height="17" viewBox="0 0 18 17" fill="none" xmlns="http://www.w3.org/2000/svg">
<path fill-rule="evenodd" clip-rule="evenodd" d="M5.29935 1.70898C3.08911 1.70898 1.29102 3.50957 1.29102 5.74232C1.29102 8.45108 2.54158 10.6214 4.11538 12.2339C5.6967 13.8541 7.56597 14.869 8.6846 15.2508L8.69071 15.2529L8.69069 15.2529C8.74467 15.272 8.85653 15.2923 8.99935 15.2923C9.14217 15.2923 9.25403 15.272 9.308 15.2529L9.31409 15.2508L9.3141 15.2508C10.4327 14.869 12.302 13.8541 13.8833 12.2339C15.4571 10.6214 16.7077 8.45108 16.7077 5.74232C16.7077 3.50957 14.9096 1.70898 12.6994 1.70898C11.3975 1.70898 10.2302 2.34158 9.50111 3.32329C9.38321 3.48205 9.19711 3.57565 8.99935 3.57565C8.80159 3.57565 8.61549 3.48205 8.49758 3.32329C7.76814 2.34106 6.60891 1.70898 5.29935 1.70898ZM0.0410156 5.74232C0.0410156 2.82506 2.39292 0.458984 5.29935 0.458984C6.74663 0.458984 8.05315 1.04731 8.99962 1.99625C9.94806 1.04702 11.2595 0.458984 12.6994 0.458984C15.6058 0.458984 17.9577 2.82506 17.9577 5.74232C17.9577 8.86689 16.5083 11.3341 14.7779 13.107C13.0563 14.8709 11.0189 15.9891 9.72073 16.4328C9.49214 16.5129 9.23042 16.5423 8.99935 16.5423C8.76828 16.5423 8.50655 16.5129 8.27797 16.4328C6.9798 15.9891 4.94242 14.8709 3.22082 13.107C1.49045 11.3341 0.0410156 8.86689 0.0410156 5.74232Z" fill="#2AC6FA"/>
</svg>
