<svg width="20" height="21" viewBox="0 0 20 21" fill="none" xmlns="http://www.w3.org/2000/svg">
<path fill-rule="evenodd" clip-rule="evenodd" d="M10 8.625C8.96447 8.625 8.125 9.46447 8.125 10.5C8.125 11.5355 8.96447 12.375 10 12.375C11.0355 12.375 11.875 11.5355 11.875 10.5C11.875 9.46447 11.0355 8.625 10 8.625ZM6.875 10.5C6.875 8.77411 8.27411 7.375 10 7.375C11.7259 7.375 13.125 8.77411 13.125 10.5C13.125 12.2259 11.7259 13.625 10 13.625C8.27411 13.625 6.875 12.2259 6.875 10.5Z" fill="#2AC6FA"/>
<path fill-rule="evenodd" clip-rule="evenodd" d="M8.00298 3.64181C7.77992 3.27019 7.31016 3.15458 6.96131 3.36213L6.95222 3.36754L5.51051 4.19246C5.05436 4.45311 4.89699 5.04407 5.15791 5.49566L4.61675 5.80833L5.15748 5.49491C5.60337 6.26419 5.72324 7.10734 5.32493 7.79852C4.92669 8.4896 4.13741 8.80833 3.25008 8.80833C2.7224 8.80833 2.29175 9.24304 2.29175 9.76667V11.2333C2.29175 11.757 2.7224 12.1917 3.25008 12.1917C4.13741 12.1917 4.92669 12.5104 5.32493 13.2015C5.72319 13.8926 5.6034 14.7356 5.15766 15.5048C4.8971 15.9563 5.05417 16.5468 5.51017 16.8073L6.96135 17.6378C7.3102 17.8453 7.77989 17.7298 8.00296 17.3582L8.09252 17.2035C8.53825 16.4345 9.21011 15.9104 10.0074 15.9104C10.8052 15.9104 11.475 16.4349 11.9167 17.2048C11.9169 17.2051 11.9171 17.2055 11.9173 17.2058L12.0055 17.3582C12.2286 17.7298 12.6983 17.8454 13.0472 17.6379L13.0563 17.6325L14.498 16.8075C14.9529 16.5476 15.1127 15.9648 14.8499 15.5032C14.4049 14.7344 14.2856 13.8921 14.6836 13.2015C15.0818 12.5104 15.8711 12.1917 16.7584 12.1917C17.2861 12.1917 17.7167 11.757 17.7167 11.2333V9.76667C17.7167 9.23898 17.282 8.80833 16.7584 8.80833C15.8711 8.80833 15.0818 8.4896 14.6836 7.79852C14.2853 7.10748 14.4051 6.26452 14.8508 5.49536C15.1114 5.04381 14.9544 4.45325 14.4983 4.19265L13.0471 3.36221C12.6983 3.15466 12.2286 3.27019 12.0055 3.64181L11.916 3.79648C11.4702 4.56549 10.7984 5.08958 10.0011 5.08958C9.20334 5.08958 8.53359 4.5652 8.09192 3.79545C8.09168 3.79502 8.09143 3.79459 8.09119 3.79416L8.00298 3.64181ZM6.32715 2.28493C7.29334 1.71379 8.51889 2.06419 9.07888 3.00544L9.08268 3.01183L9.17431 3.17019L9.17564 3.1725C9.48398 3.71038 9.8056 3.83958 10.0011 3.83958C10.1976 3.83958 10.5216 3.70929 10.8342 3.17018C10.8341 3.17027 10.8342 3.17009 10.8342 3.17018L10.9296 3.00542C11.4896 2.06416 12.7152 1.71379 13.6814 2.28494L15.1185 3.10735C16.179 3.71336 16.5387 5.0726 15.9329 6.12101L15.9325 6.12175C15.62 6.66081 15.6691 7.00516 15.7666 7.1744C15.8642 7.34374 16.1374 7.55833 16.7584 7.55833C17.9681 7.55833 18.9667 8.54435 18.9667 9.76667V11.2333C18.9667 12.443 17.9807 13.4417 16.7584 13.4417C16.1374 13.4417 15.8642 13.6563 15.7666 13.8256C15.6691 13.9948 15.62 14.3392 15.9325 14.8782L15.9344 14.8816C16.5371 15.9363 16.1798 17.2859 15.1188 17.8925C15.1187 17.8925 15.119 17.8924 15.1188 17.8925L13.6813 18.7151C12.7151 19.2862 11.4896 18.9358 10.9296 17.9946L10.9258 17.9882L10.8342 17.8298L10.8329 17.8275C10.5245 17.2896 10.2029 17.1604 10.0074 17.1604C9.81092 17.1604 9.48686 17.2907 9.17431 17.8298C9.17425 17.8299 9.17436 17.8297 9.17431 17.8298L9.07892 17.9946C8.51894 18.9358 7.2934 19.2862 6.32722 18.7151L4.88999 17.8927C4.88988 17.8926 4.89011 17.8927 4.88999 17.8927C3.82973 17.2865 3.4699 15.9273 4.07558 14.879L4.07601 14.8782C4.38846 14.3392 4.33942 13.9948 4.2419 13.8256C4.14431 13.6563 3.87109 13.4417 3.25008 13.4417C2.02777 13.4417 1.04175 12.443 1.04175 11.2333V9.76667C1.04175 8.55696 2.02777 7.55833 3.25008 7.55833C3.87109 7.55833 4.14431 7.34374 4.2419 7.1744C4.33942 7.00516 4.38846 6.66081 4.07601 6.12175L4.07558 6.12101C3.4699 5.07271 3.8294 3.71365 4.88966 3.10754L6.32715 2.28493Z" fill="#2AC6FA"/>
</svg>
