<svg width="24" height="24" viewBox="0 0 24 24" fill="none" xmlns="http://www.w3.org/2000/svg">
<path fill-rule="evenodd" clip-rule="evenodd" d="M7.4504 4.70996C6.80444 4.70996 6.22153 5.14078 6.02705 5.77115L6.02647 5.77303L1.81669 19.2922C1.81666 19.2923 1.81672 19.2922 1.81669 19.2922C1.51456 20.2664 2.24303 21.25 3.24038 21.25H16.3804C17.0791 21.25 17.6724 20.7827 17.8307 20.1166L17.8326 20.1088L21.2011 6.58498C21.2013 6.58404 21.2015 6.5831 21.2018 6.58216C21.2855 6.23065 21.2526 5.91074 21.1344 5.64309L21.1306 5.63457L21.1271 5.62596C20.9078 5.0944 20.3835 4.70996 19.7504 4.70996H7.4504ZM4.59401 5.32799C4.97983 4.07888 6.1367 3.20996 7.4504 3.20996H19.7504C21.0139 3.20996 22.0674 3.98141 22.5102 5.04543C22.7683 5.63485 22.8143 6.29079 22.6597 6.93504L22.6582 6.94128L19.2891 20.4675C18.9659 21.8193 17.7603 22.75 16.3804 22.75H3.24038C1.21782 22.75 -0.213556 20.7734 0.384094 18.8476L4.59371 5.32895C4.59381 5.32863 4.59391 5.32831 4.59401 5.32799Z" fill="#2AC6FA"/>
<path fill-rule="evenodd" clip-rule="evenodd" d="M21.9456 5.25198C22.3588 5.22195 22.718 5.53251 22.748 5.94563L23.7382 19.5678C23.8582 21.2878 22.5085 22.75 20.78 22.75H16C15.5858 22.75 15.25 22.4142 15.25 22C15.25 21.5858 15.5858 21.25 16 21.25H20.78C21.6312 21.25 22.3013 20.5327 22.2419 19.6731C22.2419 19.6728 22.2419 19.6734 22.2419 19.6731L21.252 6.05437C21.2219 5.64125 21.5325 5.282 21.9456 5.25198Z" fill="#2AC6FA"/>
<path fill-rule="evenodd" clip-rule="evenodd" d="M10.8955 1.33089C11.2983 1.42784 11.5461 1.83289 11.4492 2.2356L10.4092 6.55555C10.3122 6.95825 9.90716 7.20612 9.50445 7.10917C9.10175 7.01222 8.85388 6.60717 8.95083 6.20446L9.99084 1.88451C10.0878 1.4818 10.4928 1.23394 10.8955 1.33089Z" fill="#2AC6FA"/>
<path fill-rule="evenodd" clip-rule="evenodd" d="M17.4788 1.31704C17.8836 1.40472 18.1407 1.80398 18.053 2.20881L17.113 6.54877C17.0253 6.9536 16.6261 7.2107 16.2212 7.12301C15.8164 7.03533 15.5593 6.63608 15.647 6.23125L16.587 1.89128C16.6747 1.48646 17.0739 1.22936 17.4788 1.31704Z" fill="#2AC6FA"/>
<path fill-rule="evenodd" clip-rule="evenodd" d="M6.95001 12C6.95001 11.5858 7.2858 11.25 7.70001 11.25H15.7C16.1142 11.25 16.45 11.5858 16.45 12C16.45 12.4142 16.1142 12.75 15.7 12.75H7.70001C7.2858 12.75 6.95001 12.4142 6.95001 12Z" fill="#2AC6FA"/>
<path fill-rule="evenodd" clip-rule="evenodd" d="M5.95001 16C5.95001 15.5858 6.2858 15.25 6.70001 15.25H14.7C15.1142 15.25 15.45 15.5858 15.45 16C15.45 16.4142 15.1142 16.75 14.7 16.75H6.70001C6.2858 16.75 5.95001 16.4142 5.95001 16Z" fill="#2AC6FA"/>
</svg>
