<svg width="24" height="24" viewBox="0 0 24 24" fill="none" xmlns="http://www.w3.org/2000/svg">
<path fill-rule="evenodd" clip-rule="evenodd" d="M3.88534 5.2371C3.20538 5.86848 2.75 6.89295 2.75 8.5V15.5C2.75 17.107 3.20538 18.1315 3.88534 18.7629C4.57535 19.4036 5.61497 19.75 7 19.75H12C12.4142 19.75 12.75 20.0858 12.75 20.5C12.75 20.9142 12.4142 21.25 12 21.25H7C5.38503 21.25 3.92465 20.8464 2.86466 19.8621C1.79462 18.8685 1.25 17.393 1.25 15.5V8.5C1.25 6.60705 1.79462 5.13152 2.86466 4.1379C3.92465 3.15363 5.38503 2.75 7 2.75H17C18.615 2.75 20.0754 3.15363 21.1353 4.1379C22.2054 5.13152 22.75 6.60705 22.75 8.5V11.5C22.75 11.9142 22.4142 12.25 22 12.25C21.5858 12.25 21.25 11.9142 21.25 11.5V8.5C21.25 6.89295 20.7946 5.86848 20.1147 5.2371C19.4246 4.59637 18.385 4.25 17 4.25H7C5.61497 4.25 4.57535 4.59637 3.88534 5.2371Z" fill="#333232"/>
<path fill-rule="evenodd" clip-rule="evenodd" d="M17.586 8.53194C17.8445 8.85559 17.7917 9.32751 17.4681 9.58602L14.3372 12.0868C13.0338 13.1244 10.9563 13.1244 9.65289 12.0868L9.65104 12.0853L6.53105 9.58529C6.2078 9.32628 6.15573 8.85427 6.41474 8.53102C6.67375 8.20778 7.14576 8.15571 7.46901 8.41472L10.588 10.9139C11.3446 11.5155 12.6462 11.5154 13.4025 10.9135C13.4024 10.9136 13.4027 10.9134 13.4025 10.9135L16.532 8.41398C16.8556 8.15548 17.3275 8.20829 17.586 8.53194Z" fill="#333232"/>
<path fill-rule="evenodd" clip-rule="evenodd" d="M20.1333 13.4564C20.7966 13.3883 21.4068 13.6862 21.9503 14.2297C22.4969 14.7763 22.7984 15.3878 22.7326 16.0526C22.6707 16.6778 22.2979 17.1627 21.9503 17.5104L18.4179 21.0427C18.2714 21.1963 18.091 21.308 17.9429 21.3821C17.7871 21.46 17.5976 21.5307 17.407 21.5608L17.3945 21.5628L16.046 21.7525C16.0457 21.7525 16.0464 21.7524 16.046 21.7525C15.6045 21.8153 15.1486 21.6993 14.8196 21.3703C14.4907 21.0414 14.3745 20.5863 14.4374 20.1448C14.4373 20.1451 14.4374 20.1445 14.4374 20.1448L14.629 18.783C14.6596 18.5893 14.7319 18.401 14.8095 18.2477C14.8871 18.0943 14.9973 17.922 15.1397 17.7797C15.1397 17.7797 15.1397 17.7797 15.1397 17.7797L18.6796 14.2397C19.0273 13.892 19.5112 13.5203 20.1333 13.4564ZM20.2866 14.9486C20.1787 14.9597 20.0026 15.038 19.7403 15.3003L16.2017 18.839C16.2011 18.8396 16.1956 18.846 16.1862 18.8595C16.1744 18.8768 16.1609 18.8992 16.148 18.9248C16.135 18.9505 16.1248 18.9747 16.1179 18.9945C16.1136 19.0069 16.1116 19.0146 16.1108 19.0176L15.9369 20.2531L17.173 20.0791C17.1762 20.0783 17.1853 20.076 17.2001 20.071C17.2215 20.0636 17.2466 20.0532 17.272 20.0405C17.2977 20.0276 17.3182 20.0152 17.3318 20.0058C17.335 20.0036 17.3373 20.0018 17.339 20.0005C17.3425 19.9969 17.3461 19.9933 17.3497 19.9897L20.8897 16.4497C21.152 16.1873 21.2293 16.0123 21.2399 15.9049C21.2466 15.8372 21.2431 15.6438 20.8897 15.2904C20.5432 14.9439 20.3534 14.9417 20.2866 14.9486Z" fill="#333232"/>
<path fill-rule="evenodd" clip-rule="evenodd" d="M18.4988 14.5574C18.8979 14.4465 19.3113 14.6802 19.4222 15.0793C19.6518 15.9058 20.2937 16.5478 21.1203 16.7774C21.5194 16.8882 21.753 17.3017 21.6422 17.7008C21.5313 18.0999 21.1179 18.3335 20.7188 18.2227C19.3853 17.8523 18.3473 16.8142 17.9769 15.4808C17.866 15.0817 18.0997 14.6682 18.4988 14.5574Z" fill="#333232"/>
</svg>
