<svg width="20" height="21" viewBox="0 0 20 21" fill="none" xmlns="http://www.w3.org/2000/svg">
<path fill-rule="evenodd" clip-rule="evenodd" d="M2.57897 3.07889C3.69103 1.96684 5.3551 1.54167 7.50008 1.54167H12.5001C14.6451 1.54167 16.3091 1.96684 17.4212 3.07889C18.5332 4.19095 18.9584 5.85502 18.9584 8V13C18.9584 15.145 18.5332 16.8091 17.4212 17.9211C16.3091 19.0332 14.6451 19.4583 12.5001 19.4583H7.50008C5.3551 19.4583 3.69103 19.0332 2.57897 17.9211C1.46692 16.8091 1.04175 15.145 1.04175 13V8C1.04175 5.85502 1.46692 4.19095 2.57897 3.07889ZM3.46286 3.96278C2.69991 4.72572 2.29175 5.97831 2.29175 8V13C2.29175 15.0217 2.69991 16.2743 3.46286 17.0372C4.2258 17.8002 5.47839 18.2083 7.50008 18.2083H12.5001C14.5218 18.2083 15.7744 17.8002 16.5373 17.0372C17.3002 16.2743 17.7084 15.0217 17.7084 13V8C17.7084 5.97831 17.3002 4.72572 16.5373 3.96278C15.7744 3.19983 14.5218 2.79167 12.5001 2.79167H7.50008C5.47839 2.79167 4.2258 3.19983 3.46286 3.96278Z" fill="#2AC6FA"/>
<path fill-rule="evenodd" clip-rule="evenodd" d="M6.25 8C6.25 7.65482 6.52982 7.375 6.875 7.375H13.125C13.4702 7.375 13.75 7.65482 13.75 8C13.75 8.34518 13.4702 8.625 13.125 8.625H6.875C6.52982 8.625 6.25 8.34518 6.25 8Z" fill="#2AC6FA"/>
<path fill-rule="evenodd" clip-rule="evenodd" d="M6.04175 13C6.04175 12.6548 6.32157 12.375 6.66675 12.375H10.0001C10.3453 12.375 10.6251 12.6548 10.6251 13C10.6251 13.3452 10.3453 13.625 10.0001 13.625H6.66675C6.32157 13.625 6.04175 13.3452 6.04175 13Z" fill="#2AC6FA"/>
</svg>
