<svg width="18" height="18" viewBox="0 0 18 18" fill="none" xmlns="http://www.w3.org/2000/svg">
<path fill-rule="evenodd" clip-rule="evenodd" d="M4.28509 2.27407C2.46843 2.66271 1.15492 4.05927 0.811526 5.96724C0.736142 6.38606 0.745004 7.3077 0.828194 7.70008C1.25723 9.724 2.9933 11.8828 6.01979 14.1558C6.71432 14.6774 7.81812 15.4334 8.07731 15.565C8.58976 15.8253 9.40816 15.8253 9.92062 15.565C10.1848 15.4309 11.2904 14.6739 11.9781 14.1563C15.0174 11.8687 16.736 9.73172 17.1703 7.70008C17.2714 7.22698 17.2611 6.30868 17.1487 5.78137C16.8949 4.59084 16.2128 3.55222 15.2809 2.9371C14.5035 2.42392 13.7642 2.2002 12.8463 2.2002C11.8679 2.2002 11.1324 2.42652 10.2973 2.98453C9.95769 3.2115 9.44452 3.67978 9.15471 4.02721L8.99761 4.21556L8.8606 4.04605C8.44386 3.53038 7.71698 2.93744 7.1538 2.65367C6.83088 2.49101 6.30817 2.31784 5.95342 2.25606C5.50636 2.17816 4.69225 2.18697 4.28509 2.27407Z" fill="#FF1762"/>
</svg>
