<svg width="16" height="16" viewBox="0 0 16 16" fill="none" xmlns="http://www.w3.org/2000/svg">
<path fill-rule="evenodd" clip-rule="evenodd" d="M0.580167 0.0909878C0.363038 0.193868 0.184617 0.37704 0.0775838 0.60695C0.0197556 0.731106 0.00276013 0.820676 0.00254144 1.00185C0.00197909 1.45598 -0.202434 1.22564 3.35755 4.78207C5.10333 6.52612 6.53169 7.97422 6.53169 8.00006C6.53169 8.0259 5.10333 9.474 3.35755 11.2181C-0.204528 14.7766 0.00226027 14.5434 0.00222903 15.0011C0.00219778 15.2027 0.0164127 15.2666 0.0970473 15.4281C0.279686 15.7936 0.603192 15.9972 1.00193 15.9977C1.45606 15.9982 1.22571 16.2027 4.7821 12.6426C6.52613 10.8968 7.97421 9.46844 8.00005 9.46844C8.02588 9.46844 9.47396 10.8968 11.218 12.6426C14.7744 16.2027 14.544 15.9982 14.9982 15.9977C15.2739 15.9974 15.4754 15.9184 15.6869 15.7277C15.8884 15.546 15.9978 15.2892 15.9978 14.9983C15.9978 14.5439 16.2022 14.7741 12.6425 11.2181C10.8968 9.474 9.4684 8.0259 9.4684 8.00006C9.4684 7.97422 10.8968 6.52612 12.6425 4.78207C16.2022 1.22601 15.9978 1.4562 15.9978 1.00185C15.9978 0.710923 15.8884 0.454083 15.6869 0.272441C15.4754 0.0817714 15.2739 0.00276032 14.9982 0.00244789C14.544 0.00188554 14.7744 -0.202531 11.218 3.3575C9.47396 5.1033 8.02588 6.53169 8.00005 6.53169C7.97421 6.53169 6.52613 5.1033 4.7821 3.3575C1.22609 -0.202156 1.45628 0.00216672 1.00193 0.00216672C0.809231 0.00216672 0.734313 0.0179439 0.580167 0.0909878Z" fill="#D7D7D7"/>
</svg>
