<svg width="20" height="20" viewBox="0 0 20 20" fill="none" xmlns="http://www.w3.org/2000/svg">
<path fill-rule="evenodd" clip-rule="evenodd" d="M1.67079 1.61772C2.14432 1.17223 2.80815 1.04169 3.52508 1.04169H6.89175C7.60868 1.04169 8.27251 1.17223 8.74604 1.61772C9.22917 2.07222 9.37508 2.72097 9.37508 3.41669V16.5834C9.37508 17.2791 9.22917 17.9278 8.74604 18.3823C8.27251 18.8278 7.60868 18.9584 6.89175 18.9584H3.52508C2.80815 18.9584 2.14432 18.8278 1.67079 18.3823C1.18766 17.9278 1.04175 17.2791 1.04175 16.5834V3.41669C1.04175 2.72097 1.18766 2.07222 1.67079 1.61772ZM2.52729 2.52816C2.4125 2.63615 2.29175 2.8624 2.29175 3.41669V16.5834C2.29175 17.1376 2.4125 17.3639 2.52729 17.4719C2.65168 17.5889 2.91701 17.7084 3.52508 17.7084H6.89175C7.49982 17.7084 7.76515 17.5889 7.88954 17.4719C8.00433 17.3639 8.12508 17.1376 8.12508 16.5834V3.41669C8.12508 2.8624 8.00433 2.63615 7.88954 2.52816C7.76515 2.41114 7.49982 2.29169 6.89175 2.29169H3.52508C2.91701 2.29169 2.65168 2.41114 2.52729 2.52816Z" fill="black"/>
<path fill-rule="evenodd" clip-rule="evenodd" d="M11.254 1.61772C11.7276 1.17223 12.3914 1.04169 13.1083 1.04169H16.475C17.1919 1.04169 17.8558 1.17223 18.3293 1.61772C18.8124 2.07222 18.9583 2.72097 18.9583 3.41669V16.5834C18.9583 17.2791 18.8124 17.9278 18.3293 18.3823C17.8558 18.8278 17.1919 18.9584 16.475 18.9584H13.1083C12.3914 18.9584 11.7276 18.8278 11.254 18.3823C10.7709 17.9278 10.625 17.2791 10.625 16.5834V3.41669C10.625 2.72097 10.7709 2.07222 11.254 1.61772ZM12.1105 2.52816C11.9958 2.63615 11.875 2.8624 11.875 3.41669V16.5834C11.875 17.1376 11.9958 17.3639 12.1105 17.4719C12.2349 17.5889 12.5003 17.7084 13.1083 17.7084H16.475C17.0831 17.7084 17.3484 17.5889 17.4728 17.4719C17.5876 17.3639 17.7083 17.1376 17.7083 16.5834V3.41669C17.7083 2.8624 17.5876 2.63615 17.4728 2.52816C17.3484 2.41114 17.0831 2.29169 16.475 2.29169H13.1083C12.5003 2.29169 12.2349 2.41114 12.1105 2.52816Z" fill="black"/>
</svg>
