<svg width="123" height="37" viewBox="0 0 123 37" fill="none" xmlns="http://www.w3.org/2000/svg">
  <g clip-path="url(#clip0_561_9311)">
  <path d="M118.445 36.2656H4.55653C2.05098 36.2656 0.000976562 34.2754 0.000976562 31.8429V5.30694C0.000976562 2.87448 2.05098 0.884277 4.55653 0.884277H118.445C120.951 0.884277 123.001 2.87448 123.001 5.30694V31.8429C123.001 34.2754 120.951 36.2656 118.445 36.2656Z" fill="black"/>
  <path d="M118.446 1.59142C120.56 1.59142 122.273 3.25434 122.273 5.30645V31.8424C122.273 33.8945 120.56 35.5575 118.446 35.5575H4.55751C2.44373 35.5575 0.730842 33.8945 0.730842 31.8424V5.30645C0.730842 3.25434 2.44373 1.59142 4.55751 1.59142H118.446V1.59142ZM118.446 0.883789H4.55751C2.05195 0.883789 0.00195312 2.87399 0.00195312 5.30645V31.8424C0.00195312 34.2749 2.05195 36.2651 4.55751 36.2651H118.446C120.952 36.2651 123.002 34.2749 123.002 31.8424V5.30645C123.002 2.87399 120.952 0.883789 118.446 0.883789Z" fill="#A6A6A6"/>
  <path d="M38.1787 13.5067H37.5078V11.7288H38.0427C38.5142 11.3308 38.7408 10.6585 38.7318 9.69439V7.07617H42.3674V11.7288H42.9749V13.5067H42.3039V12.3834H38.1787V13.5067ZM39.439 9.70323C39.448 10.5435 39.2758 11.2158 38.9222 11.7377H41.6693V7.73073H39.439V9.70323Z" fill="white" stroke="white" stroke-width="0.0336945" stroke-miterlimit="10"/>
  <path d="M48.4238 11.6947C47.8889 12.2342 47.227 12.4996 46.4292 12.4996C45.6313 12.4996 44.9695 12.2342 44.4346 11.6947C43.8996 11.1551 43.6367 10.5005 43.6367 9.73099C43.6367 8.96145 43.8996 8.29805 44.4346 7.76733C44.9695 7.22776 45.6313 6.9624 46.4292 6.9624C47.2179 6.9624 47.8798 7.22776 48.4238 7.76733C48.9587 8.30689 49.2307 8.96145 49.2307 9.73099C49.2307 10.5094 48.9587 11.1639 48.4238 11.6947ZM44.9513 11.2524C45.3503 11.6504 45.8489 11.845 46.4292 11.845C47.0094 11.845 47.5081 11.6504 47.907 11.2524C48.3059 10.8543 48.5144 10.3502 48.5144 9.73099C48.5144 9.11182 48.315 8.60763 47.907 8.20959C47.5081 7.81155 47.0185 7.60811 46.4292 7.60811C45.8489 7.60811 45.3503 7.80271 44.9513 8.20075C44.5524 8.59879 44.3439 9.10297 44.3439 9.72214C44.3439 10.3413 44.5524 10.8543 44.9513 11.2524Z" fill="white" stroke="white" stroke-width="0.0336945" stroke-miterlimit="10"/>
  <path d="M52.7482 12.4982C51.9503 12.4982 51.2794 12.2329 50.7354 11.7021C50.1914 11.1714 49.9194 10.5169 49.9194 9.72079C49.9194 8.92471 50.1914 8.27016 50.7354 7.73944C51.2794 7.20872 51.9503 6.94336 52.7482 6.94336C53.5641 6.94336 54.235 7.23526 54.7428 7.8102L54.2532 8.27016C53.8815 7.81905 53.3828 7.59791 52.7391 7.59791C52.1498 7.59791 51.642 7.79251 51.2341 8.18171C50.8261 8.5709 50.6266 9.08393 50.6266 9.71195C50.6266 10.34 50.8261 10.853 51.2341 11.2422C51.642 11.6314 52.1407 11.826 52.7391 11.826C53.3919 11.826 53.9449 11.5695 54.4073 11.0564L54.8969 11.5341C54.6521 11.826 54.3348 12.056 53.963 12.224C53.5913 12.4186 53.1833 12.4982 52.7482 12.4982Z" fill="white" stroke="white" stroke-width="0.0336945" stroke-miterlimit="10"/>
  <path d="M57.7349 12.3834H57.0368V7.73073H55.5137V7.07617H59.249V7.73073H57.7259V12.3834H57.7349Z" fill="white" stroke="white" stroke-width="0.0336945" stroke-miterlimit="10"/>
  <path d="M64.054 7.07617L61.9959 11.5519C61.7148 12.1799 61.2887 12.4984 60.7266 12.4984C60.5634 12.4984 60.3821 12.463 60.1826 12.3834L60.3639 11.7553C60.4818 11.8173 60.5997 11.8526 60.7266 11.8526C60.8898 11.8526 61.0167 11.8261 61.1074 11.7642C61.198 11.7023 61.2796 11.5873 61.3522 11.4281L61.5516 11.0035L59.7202 7.07617H60.5453L61.8871 10.119H61.9143L63.2289 7.07617H64.054Z" fill="white" stroke="white" stroke-width="0.0336945" stroke-miterlimit="10"/>
  <path d="M64.8433 12.3834V7.07617H68.7781V12.3834H68.08V7.73073H65.5414V12.3834H64.8433Z" fill="white" stroke="white" stroke-width="0.0336945" stroke-miterlimit="10"/>
  <path d="M70.0195 12.3834V7.07617H70.7176V9.34942H73.4376V7.07617H74.1357V12.3834H73.4376V9.98628H70.7176V12.3834H70.0195Z" fill="white" stroke="white" stroke-width="0.0336945" stroke-miterlimit="10"/>
  <path d="M79.8383 11.6947C79.3034 12.2342 78.6416 12.4996 77.8437 12.4996C77.0459 12.4996 76.384 12.2342 75.8491 11.6947C75.3142 11.1551 75.0513 10.5005 75.0513 9.73099C75.0513 8.96145 75.3142 8.29805 75.8491 7.76733C76.384 7.22776 77.0459 6.9624 77.8437 6.9624C78.6325 6.9624 79.2943 7.22776 79.8383 7.76733C80.3732 8.30689 80.6452 8.96145 80.6452 9.73099C80.6362 10.5094 80.3732 11.1639 79.8383 11.6947ZM76.3659 11.2524C76.7648 11.6504 77.2635 11.845 77.8437 11.845C78.424 11.845 78.9226 11.6504 79.3215 11.2524C79.7205 10.8543 79.929 10.3502 79.929 9.73099C79.929 9.11182 79.7295 8.60763 79.3215 8.20959C78.9136 7.81155 78.424 7.60811 77.8437 7.60811C77.2635 7.60811 76.7648 7.80271 76.3659 8.20075C75.967 8.59879 75.7584 9.10297 75.7584 9.72214C75.7584 10.3413 75.9579 10.8543 76.3659 11.2524Z" fill="white" stroke="white" stroke-width="0.0336945" stroke-miterlimit="10"/>
  <path d="M83.4927 12.3834V7.07617H85.4601C85.8862 7.07617 86.2579 7.2177 86.5662 7.48306C86.8835 7.76611 87.0376 8.10223 87.0376 8.51796C87.0376 8.77447 86.9742 8.99561 86.8382 9.18136C86.7022 9.37596 86.5299 9.51748 86.3033 9.61478V9.64132C86.5753 9.72977 86.7928 9.88014 86.9651 10.1013C87.1374 10.3224 87.228 10.5701 87.228 10.8531C87.228 11.2865 87.0648 11.6492 86.7385 11.9323C86.403 12.2418 86.0131 12.3834 85.5689 12.3834H83.4927ZM84.1908 9.34942H85.4601C85.723 9.34942 85.9315 9.26097 86.0947 9.09291C86.2579 8.92484 86.3305 8.73909 86.3305 8.53565C86.3305 8.33221 86.2579 8.14646 86.0947 7.9784C85.9406 7.81033 85.7411 7.72188 85.4873 7.72188H84.1908V9.34942ZM84.1908 11.7288H85.5961C85.8681 11.7288 86.0857 11.6404 86.2489 11.4546C86.4121 11.2689 86.5027 11.0743 86.5027 10.8531C86.5027 10.632 86.4211 10.4374 86.2398 10.2605C86.0675 10.0836 85.8409 9.98628 85.5598 9.98628H84.1817V11.7288H84.1908Z" fill="white" stroke="white" stroke-width="0.0336945" stroke-miterlimit="10"/>
  <rect x="6.33447" y="7.09473" width="23.6225" height="22.9903" rx="7.99207" fill="white"/>
  <path fill-rule="evenodd" clip-rule="evenodd" d="M7.995 28.4689C9.65554 30.085 12.3281 30.085 17.6733 30.085H18.6182C23.9633 30.085 26.6359 30.085 28.2965 28.4689C29.957 26.8528 29.957 24.2517 29.957 19.0496V18.13C29.957 12.9279 29.957 10.3268 28.2965 8.71072C26.6359 7.09473 23.9633 7.09473 18.6182 7.09473V7.09473L17.6733 7.09473V7.09473C12.3281 7.09473 9.65554 7.09473 7.995 8.71072C6.33447 10.3268 6.33447 12.9279 6.33447 18.13L6.33447 19.0496C6.33447 24.2517 6.33447 26.8528 7.995 28.4689ZM24.5724 22.3759L22.9756 21.9876C22.7838 21.9338 22.6484 21.7656 22.6416 21.5702L22.4424 15.8529C22.3848 15.0962 21.8075 14.4943 21.2044 14.317C21.1706 14.3071 21.1344 14.3205 21.1143 14.3488C21.0939 14.3776 21.1018 14.4176 21.1302 14.439C21.2792 14.5512 21.6891 14.9174 21.6891 15.549L21.688 23.0242C21.688 23.7461 20.9871 24.2755 20.2642 24.0997L18.6432 23.7056C18.4636 23.6443 18.3389 23.4815 18.3324 23.2937L18.1332 17.576C18.0756 16.8192 17.4984 16.2174 16.8952 16.0401C16.8614 16.0302 16.8252 16.0436 16.8052 16.0719C16.7848 16.1007 16.7926 16.1407 16.8211 16.162C16.97 16.2743 17.3809 16.6396 17.3809 17.2712L17.3796 24.7481C17.3796 25.4699 16.6788 25.9993 15.9559 25.8235L11.378 24.7105C10.7415 24.5558 10.2953 24.0017 10.2953 23.3662V15.8792C10.2953 15.1574 10.9961 14.6281 11.719 14.8038L14.6036 15.5051V14.1554C14.6036 13.4336 15.3044 12.9042 16.0273 13.08L18.9117 13.7813V12.4316C18.9117 11.7097 19.6125 11.1804 20.3354 11.3561L24.9134 12.4691C25.5499 12.6238 25.9961 13.1779 25.9961 13.8134V21.3004C25.9961 22.0222 25.2953 22.5516 24.5724 22.3759Z" fill="#2B71F6"/>
  <path d="M43.5523 25.3423C45.4411 24.8655 46.6824 23.4352 46.6824 21.5634C46.6824 19.2501 44.8115 17.6255 42.1851 17.6255H37.5078V30.0748H39.6665V25.5013H41.1956L44.5417 30.0748H47.0782L43.5523 25.3423ZM42.1851 19.568C43.5343 19.568 44.4697 20.3803 44.4697 21.5634C44.4697 22.7465 43.5343 23.5588 42.1851 23.5588H39.6665V19.568H42.1851Z" fill="white"/>
  <path d="M51.8854 30.0748C53.0264 30.0748 54.0767 29.4934 54.6743 28.5245L55.0909 29.8986H56.6483V20.7378H54.5657V26.0405C54.5657 27.3442 53.6783 28.2602 52.4649 28.2602C51.2697 28.2602 50.4366 27.3442 50.4366 26.0405V20.7378H48.354V26.2695C48.354 28.4716 49.8752 30.0748 51.8854 30.0748Z" fill="white"/>
  <path d="M62.642 30.0748C64.9488 30.0748 66.8567 28.7698 66.8567 26.6062C66.8567 24.185 64.8621 23.481 63.145 22.8972C61.8095 22.4507 60.6474 22.0386 60.6474 20.9568C60.6474 20.0124 61.5319 19.5144 62.5726 19.5144C63.6653 19.5144 64.4458 20.081 64.8794 21.0426L66.8567 20.7164C66.2323 18.8275 64.6539 17.6255 62.5032 17.6255C60.2831 17.6255 58.514 18.8962 58.514 21.0598C58.514 23.4982 60.5086 24.1678 62.2257 24.7345C63.5439 25.1638 64.7233 25.5759 64.7233 26.6749C64.7233 27.6365 63.8387 28.186 62.6593 28.186C61.3065 28.186 60.578 27.5506 59.9363 26.4001L57.9243 26.7436C58.514 28.787 60.3872 30.0748 62.642 30.0748Z" fill="white"/>
  <path d="M72.6433 28.3097C71.9612 28.3097 71.6294 27.9743 71.6294 27.2859V22.6611H74.3387V20.8959H71.6294V18.248H70.126L69.6191 20.8959H68.1333V22.6611H69.6191V27.2859C69.6191 29.0864 70.6504 30.0749 72.6433 30.0749H74.3387L74.5135 28.3097H72.6433Z" fill="white"/>
  <path d="M80.2552 30.0748C83.2482 30.0748 85.3598 28.1382 85.3598 25.4063C85.3598 22.6744 83.2482 20.7378 80.2552 20.7378C77.2629 20.7378 75.1514 22.6744 75.1514 25.4063C75.1514 28.1382 77.2629 30.0748 80.2552 30.0748ZM80.2552 28.2593C78.5296 28.2593 77.3547 27.1008 77.3547 25.4063C77.3547 23.7118 78.5296 22.5533 80.2552 22.5533C81.9816 22.5533 83.1564 23.7118 83.1564 25.4063C83.1564 27.1008 81.9816 28.2593 80.2552 28.2593Z" fill="white"/>
  <path d="M88.7096 30.0748V24.5624C88.7096 23.3773 89.2867 22.7129 90.5494 22.7129H91.7395L91.5591 20.7378H91.1624C90.0625 20.7378 89.2141 21.043 88.5828 22.0845L88.1861 20.7378H86.6353V30.0748H88.7096Z" fill="white"/>
  <path d="M101.948 25.3025C101.948 22.7089 99.9635 20.7378 97.1631 20.7378C94.3634 20.7378 92.3779 22.6916 92.3779 25.4063C92.3779 28.1209 94.3634 30.0748 97.1631 30.0748C99.0773 30.0748 100.885 29.193 101.577 27.4812L99.6623 27.17C99.2192 27.8097 98.3684 28.2593 97.2877 28.2593C95.728 28.2593 94.6999 27.3256 94.5047 25.9423H101.913C101.931 25.7521 101.948 25.5446 101.948 25.3025ZM97.1631 22.4669C98.4397 22.4669 99.3965 23.2622 99.7329 24.3861H94.6293C94.9657 23.2277 95.9225 22.4669 97.1631 22.4669Z" fill="white"/>
  </g>
  <defs>
  <clipPath id="clip0_561_9311">
  <rect width="123" height="37" fill="white"/>
  </clipPath>
  </defs>
</svg>
