<svg width="20" height="20" viewBox="0 0 20 20" fill="#fff" xmlns="http://www.w3.org/2000/svg">
<path fill-rule="evenodd" clip-rule="evenodd" d="M6.72543 0.0205085C5.30149 0.195328 3.99577 0.65676 2.952 1.35405C2.44937 1.68981 1.69785 2.40179 1.35789 2.86428C0.754533 3.68504 0.305319 4.7558 0.0865776 5.89467C0.012204 6.28182 0.00019939 6.47653 3.87555e-06 7.30135C-0.000230742 8.14837 0.0099751 8.30713 0.0886501 8.67936C0.410936 10.204 1.14267 11.4936 2.33382 12.6361C3.35077 13.6115 4.52749 14.1965 6.02893 14.4729C6.55588 14.5699 7.60481 14.5905 8.17657 14.5151C11.2998 14.103 13.8385 11.7282 14.449 8.64728C14.5557 8.10871 14.5945 7.12145 14.5302 6.57636C14.133 3.20466 11.594 0.551102 8.28954 0.0537219C7.93765 0.000775838 7.04138 -0.0182535 6.72543 0.0205085ZM8.11585 2.47713C10.3568 2.84228 12.1109 4.81375 12.2432 7.11598C12.3293 8.61445 11.4343 10.4169 10.1427 11.3462C9.55518 11.7689 8.80292 12.0811 8.06024 12.2103C7.53419 12.3018 6.61899 12.2667 6.11933 12.1357C4.81275 11.7933 3.81234 11.0799 3.08174 9.96941C2.26996 8.73559 2.07066 7.1946 2.54157 5.79288C3.07799 4.19598 4.48526 2.92488 6.15636 2.52781C6.78975 2.37733 7.40554 2.36139 8.11585 2.47713ZM13.9959 13.3967C13.7578 13.4911 13.4683 13.7688 13.3482 14.0179C13.2205 14.2827 13.2261 14.6784 13.3614 14.9404C13.5094 15.2272 18.0639 19.75 18.3403 19.8847C18.6326 20.0272 19.0305 20.0388 19.3058 19.9129C19.778 19.6969 20.0014 19.361 20 18.8695C19.9994 18.6596 19.9764 18.5236 19.9205 18.3985C19.8157 18.1645 15.2354 13.6156 14.9397 13.452C14.6779 13.3071 14.2805 13.2838 13.9959 13.3967Z"/>
</svg>
