<svg width="24" height="24" viewBox="0 0 24 24" fill="none" xmlns="http://www.w3.org/2000/svg">
<path fill-rule="evenodd" clip-rule="evenodd" d="M11.9999 9.16992C10.4341 9.16992 9.16992 10.4341 9.16992 11.9999C9.16992 13.5657 10.4341 14.8299 11.9999 14.8299C13.5657 14.8299 14.8299 13.5657 14.8299 11.9999C14.8299 10.4341 13.5657 9.16992 11.9999 9.16992ZM7.66992 11.9999C7.66992 9.60571 9.60571 7.66992 11.9999 7.66992C14.3941 7.66992 16.3299 9.60571 16.3299 11.9999C16.3299 14.3941 14.3941 16.3299 11.9999 16.3299C9.60571 16.3299 7.66992 14.3941 7.66992 11.9999Z" fill="black"/>
<path fill-rule="evenodd" clip-rule="evenodd" d="M2.25734 8.99718C4.64826 5.23882 8.15186 2.97021 11.9998 2.97021C15.848 2.97021 19.3517 5.23901 21.7427 8.99767C22.2876 9.85201 22.5348 10.9464 22.5348 11.9952C22.5348 13.0441 22.2876 14.1384 21.7427 14.9928C19.3517 18.7514 15.848 21.0202 11.9998 21.0202C8.1517 21.0202 4.64795 18.7514 2.25703 14.9928C1.71205 14.1384 1.46484 13.0441 1.46484 11.9952C1.46484 10.9462 1.71214 9.85159 2.25734 8.99718ZM11.9998 4.47021C8.78799 4.47021 5.71174 6.36142 3.52266 9.80276L3.52204 9.80374C3.16745 10.3593 2.96484 11.1545 2.96484 11.9952C2.96484 12.836 3.16745 13.6312 3.52204 14.1867L3.52266 14.1877C5.71174 17.629 8.78799 19.5202 11.9998 19.5202C15.2117 19.5202 18.288 17.629 20.477 14.1877L20.4777 14.1867C20.8322 13.6312 21.0348 12.836 21.0348 11.9952C21.0348 11.1545 20.8322 10.3593 20.4777 9.80374L20.477 9.80276C18.288 6.36142 15.2117 4.47021 11.9998 4.47021Z" fill="black"/>
</svg>
