<svg width="25" height="25" viewBox="0 0 25 25" fill="none" xmlns="http://www.w3.org/2000/svg">
<path fill-rule="evenodd" clip-rule="evenodd" d="M20.1398 3.64049C20.065 3.67987 19.4704 4.258 18.8184 4.92522C17.7973 5.9703 17.6183 6.13467 17.5262 6.11193C17.4675 6.09738 17.1478 5.9783 16.8159 5.84732C16.1198 5.57258 15.0653 5.28756 14.3136 5.17086C13.5424 5.05117 11.9231 5.02583 11.1225 5.12087C9.47834 5.31606 7.96538 5.80701 6.52215 6.61362C5.8746 6.9755 5.50086 7.22537 4.81477 7.75505C3.44385 8.81343 2.26881 10.0983 1.29885 11.5996C0.905064 12.2091 0.892822 12.2362 0.892822 12.4972C0.892822 12.7591 0.903885 12.7832 1.31222 13.4101C1.86515 14.2589 2.3687 14.8936 3.08975 15.6505C3.94754 16.5511 4.93505 17.392 5.67197 17.8494C5.81003 17.9352 5.92361 18.0357 5.92434 18.0729C5.92502 18.1101 5.45819 18.6227 4.8869 19.212C3.767 20.3674 3.75113 20.391 3.80708 20.8191C3.86951 21.2963 4.4067 21.5705 4.8534 21.3531C4.93211 21.3149 8.63193 17.5539 13.0753 12.9955C20.3558 5.52641 21.1572 4.68995 21.1853 4.53019C21.2562 4.12716 21.1177 3.78607 20.8253 3.64379C20.63 3.54876 20.317 3.54727 20.1398 3.64049ZM14.0415 6.68704C14.9361 6.81792 16.2163 7.17482 16.3751 7.33765C16.4221 7.38587 15.1049 8.77586 15.0121 8.77586C14.9842 8.77586 14.7697 8.67255 14.5355 8.54626C14.3012 8.41998 13.9259 8.25887 13.7015 8.18829C13.3221 8.06894 13.2376 8.05987 12.5 8.05987C11.7659 8.05987 11.6767 8.06931 11.3081 8.18569C9.81731 8.65641 8.75462 9.74632 8.29764 11.2732C8.18592 11.6465 8.17513 11.7502 8.17263 12.4723C8.16941 13.4175 8.24187 13.7448 8.62912 14.5348C8.76251 14.8069 8.87187 15.0507 8.87219 15.0765C8.87282 15.1306 7.14418 16.9126 7.09108 16.9126C7.01786 16.9126 6.15376 16.3232 5.63171 15.9171C5.0373 15.4548 3.9713 14.4177 3.48122 13.825C3.02536 13.2738 2.52508 12.5778 2.52508 12.4949C2.52508 12.4553 2.71659 12.162 2.95064 11.8431C5.80555 7.95391 9.84959 6.07385 14.0415 6.68704ZM19.6516 8.30002C19.384 8.57537 19.165 8.82305 19.165 8.85049C19.165 8.87787 19.3232 9.02666 19.5164 9.18103C20.2923 9.80095 21.1443 10.6772 21.8434 11.5742C22.2743 12.1271 22.4749 12.4228 22.4749 12.5053C22.4749 12.6103 21.6556 13.6928 21.1276 14.2856C20.0259 15.5224 18.7402 16.5295 17.3542 17.2413C15.2627 18.3155 12.9921 18.6582 10.6507 18.253L10.0482 18.1487L9.47304 18.7385C9.06217 19.1599 8.91186 19.3426 8.94673 19.3784C9.02481 19.4585 9.73837 19.6439 10.4787 19.7765C11.3942 19.9405 12.9312 19.983 13.8774 19.8704C15.523 19.6745 17.0348 19.1839 18.4778 18.3774C20.5019 17.2462 22.3509 15.4812 23.7011 13.3914C24.0948 12.782 24.1071 12.7548 24.1071 12.494C24.1071 12.231 24.0973 12.2099 23.658 11.535C23.4109 11.1555 22.995 10.5834 22.7337 10.2637C21.9836 9.34595 20.393 7.79945 20.1993 7.79945C20.1657 7.79945 19.9193 8.02472 19.6516 8.30002ZM13.2027 9.63827C13.5371 9.72754 13.8602 9.87995 13.8602 9.94844C13.8602 10.0529 10.0682 13.9069 9.99405 13.8777C9.95746 13.8633 9.87371 13.6981 9.80801 13.5106C9.40888 12.3717 9.64692 11.2788 10.4802 10.4243C11.2356 9.64956 12.2011 9.37087 13.2027 9.63827ZM16.0164 12.0279L15.3851 12.6765L15.3073 13.0707C15.0768 14.238 14.188 15.1486 13.0604 15.3726L12.6808 15.448L12.0406 16.1055C11.6884 16.4671 11.4124 16.783 11.4273 16.8077C11.4838 16.9016 12.1308 16.9717 12.7134 16.9472C13.1582 16.9284 13.388 16.8939 13.6987 16.7991C15.145 16.3579 16.2641 15.2105 16.6972 13.7248C16.7957 13.3868 16.8221 13.1876 16.8387 12.6583C16.859 12.007 16.792 11.4286 16.6921 11.3945C16.6677 11.3861 16.3636 11.6712 16.0164 12.0279Z" fill="#D2D2D2"/>
</svg>
