<svg width="15" height="14" viewBox="0 0 15 14" fill="none" xmlns="http://www.w3.org/2000/svg">
<path fill-rule="evenodd" clip-rule="evenodd" d="M7.64167 0.0151262C7.46023 0.0547756 7.27954 0.158445 7.13856 0.30376C7.02654 0.419174 6.90664 0.654077 6.19179 2.15839C5.51269 3.58742 5.35813 3.89204 5.28449 3.94666C5.18805 4.01815 5.21822 4.0129 2.76277 4.38505C1.43243 4.58669 1.36429 4.60596 1.13421 4.84554C1.06444 4.91817 0.974484 5.05065 0.934271 5.13999C0.869613 5.28362 0.861181 5.33684 0.861181 5.60164C0.861181 6.09271 0.799644 6.01045 2.32834 7.56239C3.04968 8.29472 3.65829 8.9343 3.68082 8.9837C3.70335 9.03309 3.7218 9.10928 3.7218 9.15298C3.7218 9.19668 3.59114 10.0221 3.43144 10.9872C3.10607 12.9535 3.09342 13.0895 3.21064 13.3624C3.29673 13.5629 3.53423 13.8188 3.70499 13.895C3.97214 14.0142 4.30416 14.0232 4.54369 13.9176C4.59603 13.8945 5.31967 13.5024 6.15179 13.0463C6.98392 12.5902 7.70764 12.2047 7.76004 12.1896C7.82105 12.1721 7.88968 12.1721 7.95084 12.1897C8.00334 12.2048 8.74825 12.6015 9.60616 13.0714C10.6499 13.643 11.222 13.9406 11.3353 13.9708C11.7913 14.0924 12.3 13.824 12.5029 13.3548C12.6165 13.0918 12.6025 12.9432 12.279 10.9889C12.1194 10.0248 11.9889 9.19939 11.9889 9.15472C11.9889 9.11005 12.0073 9.03309 12.0298 8.9837C12.0523 8.9343 12.6611 8.29449 13.3825 7.56193C14.882 6.03941 14.8397 6.09434 14.8579 5.64599C14.8665 5.43381 14.858 5.35918 14.81 5.22672C14.6993 4.92079 14.4702 4.68905 14.1829 4.59233C14.1129 4.56879 13.2796 4.43271 12.331 4.28999C10.9657 4.08453 10.5808 4.01746 10.4833 3.96806L10.3601 3.90564L9.53885 2.1912C9.08717 1.24828 8.68228 0.429435 8.63911 0.371572C8.55414 0.257669 8.33484 0.100582 8.18798 0.0483907C8.05708 0.00187178 7.77956 -0.0150312 7.64167 0.0151262Z" fill="#D3F4FF"/>
</svg>
