<svg width="22" height="23" viewBox="0 0 22 23" fill="none" xmlns="http://www.w3.org/2000/svg">
<path fill-rule="evenodd" clip-rule="evenodd" d="M8.24969 3.02051C6.37539 3.02051 4.86719 4.53586 4.86719 6.40301C4.86719 8.22078 6.28717 9.69566 8.08 9.77529C8.18872 9.76773 8.30358 9.76735 8.41194 9.77521C10.203 9.69474 11.6238 8.22083 11.6322 6.40161C11.6314 4.53611 10.1154 3.02051 8.24969 3.02051ZM3.49219 6.40301C3.49219 3.77849 5.61398 1.64551 8.24969 1.64551C10.8752 1.64551 13.0072 3.77748 13.0072 6.40301L13.0072 6.40587C12.9965 8.9729 10.9731 11.0651 8.41945 11.151C8.38892 11.152 8.35835 11.151 8.32794 11.1479C8.28374 11.1435 8.21769 11.1429 8.1561 11.1485C8.12773 11.1511 8.09923 11.1519 8.07076 11.151C5.51765 11.0651 3.49219 8.97277 3.49219 6.40301Z" fill="#2AC6FA"/>
<path fill-rule="evenodd" clip-rule="evenodd" d="M14.3536 4.16699C14.3536 3.7873 14.6614 3.47949 15.0411 3.47949C17.2004 3.47949 18.9369 5.22774 18.9369 7.37533C18.9369 9.47949 17.2676 11.1928 15.186 11.2707C15.1489 11.2721 15.1118 11.2705 15.075 11.2659C15.0613 11.2641 15.0332 11.263 14.9979 11.267C14.6205 11.3089 14.2806 11.037 14.2386 10.6596C14.1967 10.2822 14.4686 9.94229 14.846 9.90036C14.954 9.88837 15.0671 9.88559 15.1787 9.89461C16.5048 9.82191 17.5619 8.72127 17.5619 7.37533C17.5619 5.98457 16.4385 4.85449 15.0411 4.85449C14.6614 4.85449 14.3536 4.54669 14.3536 4.16699Z" fill="#2AC6FA"/>
<path fill-rule="evenodd" clip-rule="evenodd" d="M8.40698 11.9014C10.1745 11.9014 11.9769 12.345 13.3699 13.2753C14.6219 14.1086 15.3393 15.2768 15.3393 16.534C15.3393 17.791 14.622 18.9613 13.3705 19.7991L13.3703 19.7992C11.9731 20.7341 10.1684 21.1803 8.4001 21.1803C6.63212 21.1803 4.82777 20.7342 3.43069 19.7998C2.17842 18.9664 1.46094 17.7981 1.46094 16.5408C1.46094 15.2838 2.17818 14.1135 3.42974 13.2757L3.43227 13.274L3.43227 13.274C4.83333 12.345 6.63924 11.9014 8.40698 11.9014ZM4.19337 14.4191C3.22752 15.0662 2.83594 15.848 2.83594 16.5408C2.83594 17.2336 3.22736 18.013 4.193 18.6554L4.1945 18.6564C5.31814 19.4082 6.84093 19.8053 8.4001 19.8053C9.95922 19.8053 11.482 19.4083 12.6056 18.6565C13.5723 18.0093 13.9643 17.2271 13.9643 16.534C13.9643 15.8412 13.5728 15.0618 12.6072 14.4194L12.6062 14.4187C11.4875 13.6715 9.96696 13.2764 8.40698 13.2764C6.8478 13.2764 5.32218 13.6712 4.19337 14.4191Z" fill="#2AC6FA"/>
<path fill-rule="evenodd" clip-rule="evenodd" d="M16.1695 13.182C16.2529 12.8116 16.6209 12.579 16.9913 12.6625C17.7149 12.8255 18.4251 13.1164 19.0242 13.5733C19.8868 14.2213 20.3693 15.1243 20.3693 16.0786C20.3693 17.0326 19.8871 17.9354 19.0249 18.5833C18.4186 19.048 17.6975 19.3511 16.9529 19.5062C16.5811 19.5836 16.217 19.3451 16.1396 18.9734C16.0621 18.6017 16.3007 18.2375 16.6724 18.1601C17.2465 18.0405 17.7709 17.8126 18.1906 17.4904L18.1968 17.4856L18.1968 17.4857C18.7627 17.0613 18.9943 16.5443 18.9943 16.0786C18.9943 15.6129 18.7627 15.0959 18.1968 14.6715L18.192 14.6679L18.1921 14.6679C17.7833 14.3558 17.2661 14.1339 16.689 14.0038C16.3186 13.9204 16.086 13.5524 16.1695 13.182Z" fill="#2AC6FA"/>
</svg>
