<svg width="25" height="24" viewBox="0 0 25 24" fill="none" xmlns="http://www.w3.org/2000/svg">
<path fill-rule="evenodd" clip-rule="evenodd" d="M9.28998 11.1498C9.58288 10.857 10.0577 10.857 10.3506 11.1498L12.3803 13.1795L14.41 11.1498C14.7029 10.857 15.1777 10.857 15.4706 11.1498C15.7635 11.4427 15.7635 11.9176 15.4706 12.2105L12.9106 14.7705C12.6177 15.0634 12.1429 15.0634 11.85 14.7705L9.28998 12.2105C8.99709 11.9176 8.99709 11.4427 9.28998 11.1498Z" fill="#333232"/>
<path fill-rule="evenodd" clip-rule="evenodd" d="M12.3799 3.25C12.7941 3.25 13.1299 3.58579 13.1299 4V14.17C13.1299 14.5842 12.7941 14.92 12.3799 14.92C11.9657 14.92 11.6299 14.5842 11.6299 14.17V4C11.6299 3.58579 11.9657 3.25 12.3799 3.25Z" fill="#333232"/>
<path fill-rule="evenodd" clip-rule="evenodd" d="M4.5 11.43C4.91421 11.43 5.25 11.7658 5.25 12.18C5.25 14.2206 5.94112 16.0286 7.16877 17.321C8.39078 18.6074 10.1884 19.43 12.5 19.43C14.8116 19.43 16.6092 18.6074 17.8312 17.321C19.0589 16.0286 19.75 14.2206 19.75 12.18C19.75 11.7658 20.0858 11.43 20.5 11.43C20.9142 11.43 21.25 11.7658 21.25 12.18C21.25 14.5594 20.4411 16.7514 18.9188 18.354C17.3908 19.9626 15.1884 20.93 12.5 20.93C9.81157 20.93 7.60922 19.9626 6.08123 18.354C4.55888 16.7514 3.75 14.5594 3.75 12.18C3.75 11.7658 4.08579 11.43 4.5 11.43Z" fill="#333232"/>
</svg>
