<svg width="24" height="25" viewBox="0 0 24 25" fill="none" xmlns="http://www.w3.org/2000/svg">
<path fill-rule="evenodd" clip-rule="evenodd" d="M4.03033 4.53033C3.22059 5.34007 2.75 6.61561 2.75 8.5V13.5C2.75 15.9353 3.24367 17.1541 3.99388 17.8106C4.76886 18.4887 6.01326 18.75 8 18.75H8.5C8.78282 18.75 9.05796 18.8383 9.27436 18.9455C9.48803 19.0515 9.7297 19.2182 9.90264 19.4535L11.4 21.45C11.6092 21.7289 11.8337 21.81 12 21.81C12.1663 21.81 12.3908 21.7289 12.6 21.45L14.1 19.45L14.1029 19.4462C14.4325 19.0124 14.9521 18.75 15.5 18.75H16C17.8844 18.75 19.1599 18.2794 19.9697 17.4697C20.7794 16.6599 21.25 15.3844 21.25 13.5V8.5C21.25 6.61561 20.7794 5.34007 19.9697 4.53033C19.1599 3.72059 17.8844 3.25 16 3.25H8C6.11561 3.25 4.84007 3.72059 4.03033 4.53033ZM2.96967 3.46967C4.15993 2.27941 5.88439 1.75 8 1.75H16C18.1156 1.75 19.8401 2.27941 21.0303 3.46967C22.2206 4.65993 22.75 6.38439 22.75 8.5V13.5C22.75 15.6156 22.2206 17.3401 21.0303 18.5303C19.8401 19.7206 18.1156 20.25 16 20.25H15.5C15.4284 20.25 15.3486 20.2871 15.2982 20.3524C15.2978 20.3529 15.2975 20.3534 15.2971 20.3538L13.8 22.35C13.3492 22.9511 12.7037 23.31 12 23.31C11.2963 23.31 10.6508 22.9511 10.2 22.35L8.69876 20.3484C8.69654 20.3462 8.69203 20.3422 8.6847 20.3365C8.66662 20.3224 8.64037 20.3054 8.60814 20.2895C8.57598 20.2735 8.54532 20.2622 8.52072 20.2556C8.50625 20.2517 8.49766 20.2504 8.49494 20.25H8C5.98674 20.25 4.23114 20.0113 3.00612 18.9394C1.75633 17.8459 1.25 16.0647 1.25 13.5V8.5C1.25 6.38439 1.77941 4.65993 2.96967 3.46967Z" fill="#2AC6FA"/>
<path fill-rule="evenodd" clip-rule="evenodd" d="M14.9961 11.5C14.9961 10.9477 15.4438 10.5 15.9961 10.5H16.0051C16.5574 10.5 17.0051 10.9477 17.0051 11.5C17.0051 12.0523 16.5574 12.5 16.0051 12.5H15.9961C15.4438 12.5 14.9961 12.0523 14.9961 11.5Z" fill="#2AC6FA"/>
<path fill-rule="evenodd" clip-rule="evenodd" d="M10.9951 11.5C10.9951 10.9477 11.4428 10.5 11.9951 10.5H12.0041C12.5564 10.5 13.0041 10.9477 13.0041 11.5C13.0041 12.0523 12.5564 12.5 12.0041 12.5H11.9951C11.4428 12.5 10.9951 12.0523 10.9951 11.5Z" fill="#2AC6FA"/>
<path fill-rule="evenodd" clip-rule="evenodd" d="M6.99414 11.5C6.99414 10.9477 7.44186 10.5 7.99414 10.5H8.00312C8.55541 10.5 9.00312 10.9477 9.00312 11.5C9.00312 12.0523 8.55541 12.5 8.00312 12.5H7.99414C7.44186 12.5 6.99414 12.0523 6.99414 11.5Z" fill="#2AC6FA"/>
</svg>
