<svg width="32" height="32" viewBox="0 0 32 32" fill="none" xmlns="http://www.w3.org/2000/svg">
<path fill-rule="evenodd" clip-rule="evenodd" d="M7.38636 3.52629C8.21757 2.91809 9.25385 2.53333 10.2935 2.53333H15.3602C15.8568 2.53333 16.4492 2.61397 17.0016 2.7718C17.5093 2.91686 18.1083 3.16204 18.5487 3.57591L22.639 6.7426L21.4147 8.32405L17.2312 5.08525L17.1864 5.04043C17.0976 4.95157 16.8575 4.81068 16.4522 4.69485C16.0712 4.58602 15.6636 4.53333 15.3602 4.53333H10.2935C9.73323 4.53333 9.10284 4.74856 8.56738 5.14036C8.03264 5.53163 7.66269 6.04648 7.53035 6.57586L7.52153 6.61112L4.30622 16.391L4.30195 16.403C4.06731 17.06 4.1848 17.5714 4.43193 17.9068C4.68377 18.2486 5.16409 18.5333 5.89354 18.5333H11.2269C12.618 18.5333 13.772 19.7219 13.5502 21.2747L13.5483 21.2877L12.8766 25.5858L12.8697 25.6169C12.7222 26.281 13.1937 27.1348 13.9431 27.3846L13.9607 27.3905L13.978 27.397C14.2486 27.4985 14.6043 27.4962 14.9685 27.371C15.3394 27.2435 15.607 27.0271 15.7282 26.8453L15.7303 26.8422L21.1969 18.7088L22.8568 19.8245L17.3923 27.9547C17.3919 27.9552 17.3915 27.9558 17.3911 27.9564C16.9789 28.5737 16.3138 29.0234 15.6186 29.2623C14.9213 29.5021 14.0841 29.5672 13.2932 29.2761C11.6629 28.7227 10.5477 26.9366 10.91 25.2171L11.571 20.9867C11.5962 20.8016 11.5418 20.6995 11.4937 20.6449C11.4379 20.5817 11.3467 20.5333 11.2269 20.5333H5.89354C4.62299 20.5333 3.50331 20.0181 2.82182 19.0932C2.13802 18.1652 1.98749 16.9485 2.41395 15.743L5.5997 6.05302C5.87415 4.99935 6.56424 4.12785 7.38636 3.52629Z" fill="black"/>
<path fill-rule="evenodd" clip-rule="evenodd" d="M23.4718 6.30147C23.3401 6.42297 23.1602 6.71268 23.1602 7.53333V20.6C23.1602 21.4206 23.3401 21.7104 23.4718 21.8319C23.623 21.9715 23.9701 22.1333 24.8268 22.1333H26.1602C27.0168 22.1333 27.3639 21.9715 27.5152 21.8319C27.6468 21.7104 27.8268 21.4206 27.8268 20.6V7.53333C27.8268 6.71268 27.6468 6.42297 27.5152 6.30147C27.3639 6.16183 27.0168 6 26.1602 6H24.8268C23.9701 6 23.623 6.16183 23.4718 6.30147ZM22.1152 4.83186C22.8306 4.1715 23.8168 4 24.8268 4H26.1602C27.1701 4 28.1564 4.1715 28.8718 4.83186C29.6068 5.51037 29.8268 6.48732 29.8268 7.53333V20.6C29.8268 21.646 29.6068 22.623 28.8718 23.3015C28.1564 23.9618 27.1701 24.1333 26.1602 24.1333H24.8268C23.8168 24.1333 22.8306 23.9618 22.1152 23.3015C21.3802 22.623 21.1602 21.646 21.1602 20.6V7.53333C21.1602 6.48732 21.3802 5.51037 22.1152 4.83186Z" fill="black"/>
</svg>
