<svg width="32" height="32" viewBox="0 0 32 32" fill="none" xmlns="http://www.w3.org/2000/svg">
<path fill-rule="evenodd" clip-rule="evenodd" d="M1.66699 16.0001C1.66699 8.11446 8.11471 1.66675 16.0003 1.66675C23.8859 1.66675 30.3337 8.11446 30.3337 16.0001C30.3337 23.8857 23.8859 30.3334 16.0003 30.3334C8.11471 30.3334 1.66699 23.8857 1.66699 16.0001ZM16.0003 3.66675C9.21928 3.66675 3.66699 9.21903 3.66699 16.0001C3.66699 22.7811 9.21928 28.3334 16.0003 28.3334C22.7814 28.3334 28.3337 22.7811 28.3337 16.0001C28.3337 9.21903 22.7814 3.66675 16.0003 3.66675Z" fill="#909090"/>
<path fill-rule="evenodd" clip-rule="evenodd" d="M20.4803 11.5195C20.8709 11.91 20.8709 12.5431 20.4803 12.9337L12.9337 20.4803C12.5431 20.8709 11.91 20.8709 11.5195 20.4803C11.1289 20.0898 11.1289 19.4566 11.5195 19.0661L19.0661 11.5195C19.4566 11.1289 20.0898 11.1289 20.4803 11.5195Z" fill="#909090"/>
<path fill-rule="evenodd" clip-rule="evenodd" d="M11.5195 11.5195C11.91 11.1289 12.5431 11.1289 12.9337 11.5195L20.4803 19.0661C20.8709 19.4566 20.8709 20.0898 20.4803 20.4803C20.0898 20.8709 19.4566 20.8709 19.0661 20.4803L11.5195 12.9337C11.1289 12.5431 11.1289 11.91 11.5195 11.5195Z" fill="#909090"/>
</svg>
