<svg width="24" height="24" viewBox="0 0 24 24" fill="none" xmlns="http://www.w3.org/2000/svg">
<path fill-rule="evenodd" clip-rule="evenodd" d="M19.5702 4.42498C19.0284 3.88233 17.9162 3.60511 16.1269 4.20156L7.63761 7.03131C7.63745 7.03136 7.63776 7.03126 7.63761 7.03131C6.25826 7.49275 5.28188 8.00871 4.66558 8.51802C4.04661 9.02954 3.86719 9.46483 3.86719 9.7838C3.86719 10.1025 4.04637 10.5371 4.66498 11.0472C5.2811 11.5553 6.25694 12.0694 7.63648 12.5284L10.1569 13.3685C10.3808 13.4432 10.5565 13.6189 10.6312 13.8429L11.4712 16.3629C11.9302 17.7422 12.4449 18.7183 12.9536 19.3344C13.4644 19.9529 13.8999 20.1325 14.2197 20.1325C14.5395 20.1325 14.975 19.9529 15.4857 19.3344C15.9945 18.7183 16.5091 17.7426 16.9681 16.3633L19.7976 7.87456C19.7975 7.87482 19.7977 7.8743 19.7976 7.87456C20.3892 6.08502 20.1129 4.96851 19.5702 4.42498ZM20.6317 3.36511C21.7614 4.4965 21.8898 6.32553 21.2218 8.34553L21.2212 8.34722L18.3913 16.8368C18.3913 16.837 18.3914 16.8367 18.3913 16.8368C17.9003 18.3123 17.3124 19.4781 16.6424 20.2895C15.9744 21.0984 15.1549 21.6325 14.2197 21.6325C13.2845 21.6325 12.465 21.0984 11.797 20.2895C11.127 19.4781 10.5392 18.3127 10.0482 16.8372L9.32676 14.673L7.16289 13.9517C7.16277 13.9516 7.16301 13.9517 7.16289 13.9517C5.68761 13.4608 4.52195 12.8735 3.71065 12.2045C2.90175 11.5374 2.36719 10.7188 2.36719 9.7838C2.36719 8.84901 2.90151 8.02993 3.71004 7.36176C4.52117 6.69144 5.68637 6.10231 7.16177 5.60878L15.6525 2.77854C17.6732 2.10498 19.501 2.23276 20.6317 3.36511Z" fill="black"/>
<path fill-rule="evenodd" clip-rule="evenodd" d="M14.2199 9.52899C14.5132 9.82147 14.5139 10.2963 14.2214 10.5896L10.6414 14.1796C10.3489 14.4729 9.87406 14.4736 9.58076 14.1811C9.28746 13.8886 9.2868 13.4138 9.57928 13.1205L13.1593 9.53047C13.4518 9.23717 13.9266 9.2365 14.2199 9.52899Z" fill="black"/>
</svg>
