<svg width="32" height="32" viewBox="0 0 32 32" fill="none" xmlns="http://www.w3.org/2000/svg">
<path fill-rule="evenodd" clip-rule="evenodd" d="M28.9739 3.02629C29.3645 3.41682 29.3645 4.04998 28.9739 4.44051L18.0406 15.3738C17.6501 15.7644 17.0169 15.7644 16.6264 15.3738C16.2359 14.9833 16.2359 14.3501 16.6264 13.9596L27.5597 3.02629C27.9502 2.63577 28.5834 2.63577 28.9739 3.02629Z" fill="black"/>
<path fill-rule="evenodd" clip-rule="evenodd" d="M21.9331 2.66675C21.9331 2.11446 22.3808 1.66675 22.9331 1.66675H29.3331C29.8854 1.66675 30.3331 2.11446 30.3331 2.66675V9.06675C30.3331 9.61903 29.8854 10.0667 29.3331 10.0667C28.7808 10.0667 28.3331 9.61903 28.3331 9.06675V3.66675H22.9331C22.3808 3.66675 21.9331 3.21903 21.9331 2.66675Z" fill="black"/>
<path fill-rule="evenodd" clip-rule="evenodd" d="M4.12606 4.12631C5.90536 2.34702 8.56787 1.66675 11.9998 1.66675H14.6665C15.2188 1.66675 15.6665 2.11446 15.6665 2.66675C15.6665 3.21903 15.2188 3.66675 14.6665 3.66675H11.9998C8.76513 3.66675 6.76099 4.31981 5.54028 5.54052C4.31957 6.76123 3.6665 8.76538 3.6665 12.0001V20.0001C3.6665 23.2348 4.31957 25.2389 5.54028 26.4596C6.76099 27.6803 8.76513 28.3334 11.9998 28.3334H19.9998C23.2345 28.3334 25.2387 27.6803 26.4594 26.4596C27.6801 25.2389 28.3332 23.2348 28.3332 20.0001V17.3334C28.3332 16.7811 28.7809 16.3334 29.3332 16.3334C29.8855 16.3334 30.3332 16.7811 30.3332 17.3334V20.0001C30.3332 23.432 29.6529 26.0946 27.8736 27.8739C26.0943 29.6531 23.4318 30.3334 19.9998 30.3334H11.9998C8.56787 30.3334 5.90536 29.6531 4.12606 27.8739C2.34677 26.0946 1.6665 23.432 1.6665 20.0001V12.0001C1.6665 8.56812 2.34677 5.9056 4.12606 4.12631Z" fill="black"/>
</svg>
