<svg width="32" height="32" viewBox="0 0 32 32" fill="none" xmlns="http://www.w3.org/2000/svg">
<path fill-rule="evenodd" clip-rule="evenodd" d="M18.7071 2.72373C20.3375 3.27717 21.4527 5.0633 21.0904 6.78277L20.4294 11.0132C20.4042 11.1983 20.4586 11.3004 20.5067 11.355C20.5625 11.4182 20.6537 11.4666 20.7735 11.4666H26.1068C27.3774 11.4666 28.4971 11.9818 29.1786 12.9067C29.8624 13.8347 30.0129 15.0514 29.5864 16.2569L26.4007 25.9469C26.1262 27.0006 25.4361 27.8721 24.614 28.4736C23.7828 29.0818 22.7465 29.4666 21.7068 29.4666H16.6402C16.1436 29.4666 15.5512 29.3859 14.9988 29.2281C14.4911 29.083 13.8921 28.8379 13.4516 28.424L9.36133 25.2573L10.5857 23.6759L14.7691 26.9147L14.8139 26.9595C14.9028 27.0483 15.1428 27.1892 15.5482 27.3051C15.9291 27.4139 16.3368 27.4666 16.6402 27.4666H21.7068C22.2672 27.4666 22.8975 27.2513 23.433 26.8595C23.9677 26.4683 24.3377 25.9534 24.47 25.424L24.4788 25.3888L27.6942 15.6089L27.6984 15.5969C27.9331 14.9399 27.8156 14.4285 27.5685 14.0931C27.3166 13.7513 26.8363 13.4666 26.1068 13.4666H20.7735C19.3824 13.4666 18.2284 12.278 18.4502 10.7252L18.4521 10.7122L19.1237 6.41407L19.1307 6.38298C19.2782 5.71895 18.8067 4.86505 18.0573 4.61526L18.0397 4.60941L18.0224 4.6029C17.7517 4.50142 17.3961 4.50375 17.0319 4.62893C16.661 4.75643 16.3934 4.97284 16.2722 5.15461L16.2701 5.15775L10.8035 13.2911L9.14355 12.1754L14.6081 4.04521C14.6085 4.04462 14.6089 4.04403 14.6093 4.04344C15.0215 3.42612 15.6867 2.9765 16.3818 2.73756C17.0791 2.49784 17.9162 2.43269 18.7071 2.72373Z" fill="black"/>
<path fill-rule="evenodd" clip-rule="evenodd" d="M4.48495 10.1682C4.35333 10.2897 4.17334 10.5794 4.17334 11.4V24.4667C4.17334 25.2873 4.35333 25.5771 4.48495 25.6986C4.63623 25.8382 4.98332 26 5.84001 26H7.17334C8.03003 26 8.37712 25.8382 8.52839 25.6986C8.66001 25.5771 8.84001 25.2873 8.84001 24.4667V11.4C8.84001 10.5794 8.66001 10.2897 8.52839 10.1682C8.37712 10.0285 8.03003 9.8667 7.17334 9.8667H5.84001C4.98332 9.8667 4.63623 10.0285 4.48495 10.1682ZM3.12839 8.69856C3.84379 8.0382 4.83003 7.8667 5.84001 7.8667H7.17334C8.18332 7.8667 9.16956 8.0382 9.88495 8.69856C10.62 9.37707 10.84 10.354 10.84 11.4V24.4667C10.84 25.5127 10.62 26.4897 9.88495 27.1682C9.16956 27.8285 8.18332 28 7.17334 28H5.84001C4.83003 28 3.84379 27.8285 3.12839 27.1682C2.39335 26.4897 2.17334 25.5127 2.17334 24.4667V11.4C2.17334 10.354 2.39335 9.37707 3.12839 8.69856Z" fill="black"/>
</svg>
