<svg width="22" height="6" viewBox="0 0 22 6" fill="none" xmlns="http://www.w3.org/2000/svg">
<path fill-rule="evenodd" clip-rule="evenodd" d="M0.333496 3.00004C0.333496 1.52728 1.5274 0.333374 3.00016 0.333374C4.47292 0.333374 5.66683 1.52728 5.66683 3.00004C5.66683 4.4728 4.47292 5.66671 3.00016 5.66671C1.5274 5.66671 0.333496 4.4728 0.333496 3.00004ZM8.3335 3.00004C8.3335 1.52728 9.5274 0.333374 11.0002 0.333374C12.4729 0.333374 13.6668 1.52728 13.6668 3.00004C13.6668 4.4728 12.4729 5.66671 11.0002 5.66671C9.5274 5.66671 8.3335 4.4728 8.3335 3.00004ZM16.3335 3.00004C16.3335 1.52728 17.5274 0.333374 19.0002 0.333374C20.4729 0.333374 21.6668 1.52728 21.6668 3.00004C21.6668 4.4728 20.4729 5.66671 19.0002 5.66671C17.5274 5.66671 16.3335 4.4728 16.3335 3.00004Z" fill="black"/>
</svg>
