<svg width="32" height="32" viewBox="0 0 32 32" fill="none" xmlns="http://www.w3.org/2000/svg">
<rect width="32" height="32" rx="16" fill="#0B0B0B" fill-opacity="0.21"/>
<path fill-rule="evenodd" clip-rule="evenodd" d="M15.9999 13.4059C14.5646 13.4059 13.4058 14.5647 13.4058 16.0001C13.4058 16.4679 13.5285 16.9043 13.7452 17.2825L17.2824 13.7453C16.9042 13.5287 16.4678 13.4059 15.9999 13.4059ZM12.0308 16.0001C12.0308 13.8054 13.8052 12.0309 15.9999 12.0309C17.0979 12.0309 18.0864 12.4759 18.8052 13.1947C19.0737 13.4632 19.0737 13.8985 18.8052 14.167L14.1669 18.8054C13.8984 19.0738 13.4631 19.0738 13.1946 18.8054C12.4757 18.0865 12.0308 17.098 12.0308 16.0001Z" fill="white"/>
<path fill-rule="evenodd" clip-rule="evenodd" d="M7.06923 13.2564C9.2609 9.81124 12.4725 7.73169 15.9999 7.73169C18.062 7.73169 20.0382 8.45 21.7489 9.74032C22.052 9.96897 22.1124 10.4001 21.8837 10.7032C21.6551 11.0063 21.224 11.0667 20.9209 10.8381C19.4232 9.70838 17.7327 9.10669 15.9999 9.10669C13.0557 9.10669 10.2358 10.8403 8.22911 13.9949L8.22853 13.9958C7.9035 14.505 7.71777 15.2339 7.71777 16.0046C7.71777 16.7753 7.9035 17.5042 8.22853 18.0135L8.22885 18.014C8.91981 19.0985 9.71987 20.027 10.5815 20.7679C10.8693 21.0155 10.902 21.4496 10.6544 21.7375C10.4069 22.0253 9.97279 22.058 9.68491 21.8104C8.71317 20.9747 7.82657 19.9416 7.0692 18.7528C6.56946 17.9696 6.34277 16.9662 6.34277 16.0046C6.34277 15.043 6.56946 14.0396 7.06923 13.2564Z" fill="white"/>
<path fill-rule="evenodd" clip-rule="evenodd" d="M22.9484 11.7335C23.2442 11.4955 23.677 11.5424 23.915 11.8383C24.2669 12.2758 24.6126 12.7459 24.9314 13.2483C25.4307 14.0314 25.6572 15.0343 25.6572 15.9954C25.6572 16.9571 25.4305 17.9604 24.9307 18.7436C22.7391 22.1888 19.5274 24.2684 16.0001 24.2684C14.7749 24.2684 13.5754 24.0093 12.4517 23.5361C12.1017 23.3888 11.9375 22.9857 12.0848 22.6357C12.2322 22.2858 12.6353 22.1216 12.9852 22.2689C13.9515 22.6758 14.9703 22.8934 16.0001 22.8934C18.9443 22.8934 21.7642 21.1598 23.7709 18.0052L23.7714 18.0043C24.0965 17.4951 24.2822 16.7661 24.2822 15.9954C24.2822 15.2247 24.0965 14.4958 23.7714 13.9866L23.7705 13.9851C23.4843 13.5341 23.17 13.1059 22.8436 12.7001C22.6056 12.4042 22.6525 11.9715 22.9484 11.7335Z" fill="white"/>
<path fill-rule="evenodd" clip-rule="evenodd" d="M19.3416 15.9654C19.715 16.0342 19.9619 16.3927 19.8931 16.7661C19.603 18.339 18.3295 19.6125 16.7566 19.9026C16.3832 19.9714 16.0247 19.7246 15.9559 19.3511C15.887 18.9777 16.1339 18.6192 16.5073 18.5504C17.5194 18.3637 18.3542 17.5289 18.5409 16.5168C18.6097 16.1434 18.9682 15.8965 19.3416 15.9654Z" fill="white"/>
<path d="M13.681 18.3192L6.8335 25.1667" stroke="white" stroke-width="1.5" stroke-linecap="round" stroke-linejoin="round"/>
<path fill-rule="evenodd" clip-rule="evenodd" d="M25.653 6.34724C25.9215 6.61572 25.9215 7.05102 25.653 7.31951L18.8055 14.167C18.537 14.4355 18.1017 14.4355 17.8332 14.167C17.5647 13.8985 17.5647 13.4632 17.8332 13.1947L24.6807 6.34724C24.9492 6.07875 25.3845 6.07875 25.653 6.34724Z" fill="white"/>
</svg>
