<svg width="32" height="32" viewBox="0 0 32 32" fill="none" xmlns="http://www.w3.org/2000/svg">
<path fill-rule="evenodd" clip-rule="evenodd" d="M5.37361 5.37386C4.29396 6.45351 3.6665 8.15423 3.6665 10.6667V17.3334C3.6665 20.5805 4.32473 22.2056 5.32501 23.0808C6.35832 23.985 8.01752 24.3334 10.6665 24.3334H11.3332C11.7103 24.3334 12.0771 24.4511 12.3657 24.5941C12.6505 24.7354 12.9728 24.9577 13.2034 25.2714L15.1998 27.9334C15.4787 28.3053 15.7781 28.4134 15.9998 28.4134C16.2215 28.4134 16.521 28.3053 16.7998 27.9334L18.7998 25.2667L18.8037 25.2617C19.2432 24.6833 19.9359 24.3334 20.6665 24.3334H21.3332C23.8457 24.3334 25.5464 23.706 26.6261 22.6263C27.7057 21.5467 28.3332 19.8459 28.3332 17.3334V10.6667C28.3332 8.15423 27.7057 6.45351 26.6261 5.37386C25.5464 4.2942 23.8457 3.66675 21.3332 3.66675H10.6665C8.15398 3.66675 6.45326 4.2942 5.37361 5.37386ZM3.9594 3.95964C5.54641 2.37263 7.84569 1.66675 10.6665 1.66675H21.3332C24.154 1.66675 26.4533 2.37263 28.0403 3.95964C29.6273 5.54665 30.3332 7.84594 30.3332 10.6667V17.3334C30.3332 20.1542 29.6273 22.4535 28.0403 24.0405C26.4533 25.6275 24.154 26.3334 21.3332 26.3334H20.6665C20.5711 26.3334 20.4646 26.3828 20.3974 26.47C20.3969 26.4706 20.3965 26.4712 20.396 26.4718L18.3998 29.1334C17.7987 29.9349 16.9381 30.4134 15.9998 30.4134C15.0616 30.4134 14.201 29.9349 13.5998 29.1334L11.5982 26.4646C11.5952 26.4617 11.5892 26.4563 11.5794 26.4487C11.5553 26.4299 11.5203 26.4073 11.4774 26.386C11.4345 26.3648 11.3936 26.3497 11.3608 26.3409C11.3415 26.3356 11.33 26.3339 11.3264 26.3334H10.6665C7.98215 26.3334 5.64135 26.0152 4.008 24.586C2.34161 23.1279 1.6665 20.753 1.6665 17.3334V10.6667C1.6665 7.84594 2.37238 5.54665 3.9594 3.95964Z" fill="black"/>
<path fill-rule="evenodd" clip-rule="evenodd" d="M19.9951 14.6666C19.9951 13.9302 20.5921 13.3333 21.3285 13.3333H21.3404C22.0768 13.3333 22.6738 13.9302 22.6738 14.6666C22.6738 15.403 22.0768 15.9999 21.3404 15.9999H21.3285C20.5921 15.9999 19.9951 15.403 19.9951 14.6666Z" fill="black"/>
<path fill-rule="evenodd" clip-rule="evenodd" d="M14.6606 14.6666C14.6606 13.9302 15.2576 13.3333 15.994 13.3333H16.006C16.7423 13.3333 17.3393 13.9302 17.3393 14.6666C17.3393 15.403 16.7423 15.9999 16.006 15.9999H15.994C15.2576 15.9999 14.6606 15.403 14.6606 14.6666Z" fill="black"/>
<path fill-rule="evenodd" clip-rule="evenodd" d="M9.32617 14.6666C9.32617 13.9302 9.92313 13.3333 10.6595 13.3333H10.6715C11.4079 13.3333 12.0048 13.9302 12.0048 14.6666C12.0048 15.403 11.4079 15.9999 10.6715 15.9999H10.6595C9.92313 15.9999 9.32617 15.403 9.32617 14.6666Z" fill="black"/>
</svg>
