<svg width="12" height="11" viewBox="0 0 12 11" fill="none" xmlns="http://www.w3.org/2000/svg">
<path fill-rule="evenodd" clip-rule="evenodd" d="M11.085 0.817508C11.0214 0.828427 10.8836 0.871585 10.7786 0.913435C9.22615 1.53213 0.718644 4.98347 0.662529 5.01734C0.479938 5.12745 0.399902 5.24479 0.399902 5.40235C0.399902 5.53923 0.503158 5.69223 0.662529 5.79152C0.74228 5.8412 1.20238 6.01135 2.02607 6.29577L3.26921 6.72507L6.44364 4.64698C8.18959 3.50405 9.66502 2.54848 9.72241 2.52348C9.92483 2.43532 10.0181 2.54568 9.88204 2.71236C9.84059 2.76317 4.86953 7.39006 4.78126 7.46002C4.77017 7.4688 8.86088 10.6907 8.92796 10.726C9.02734 10.7783 9.2202 10.8119 9.32805 10.7957C9.52905 10.7655 9.74208 10.603 9.82179 10.4191C9.83904 10.3793 10.2482 8.29095 10.731 5.77828C11.416 2.21341 11.6069 1.18344 11.5997 1.08979C11.5924 0.993705 11.5775 0.956322 11.5249 0.90211C11.4274 0.801671 11.3095 0.778975 11.085 0.817508Z" fill="white"/>
</svg>
