<svg width="13" height="20" viewBox="0 0 13 20" fill="none" xmlns="http://www.w3.org/2000/svg">
<path fill-rule="evenodd" clip-rule="evenodd" d="M0 2.2331C0 0.805059 1.29625 -0.255724 2.66273 0.0540613L10.5068 1.83233C11.5079 2.05929 12.2202 2.96514 12.2202 4.01137V7.29283C12.2202 7.59521 11.9799 7.84035 11.6835 7.84035C11.3871 7.84035 11.1468 7.59521 11.1468 7.29283V4.01137C11.1468 3.47839 10.7839 3.01691 10.2739 2.90129L2.42988 1.12302C1.73375 0.965209 1.07339 1.50561 1.07339 2.2331V17.4814C1.07339 18.1924 1.70577 18.729 2.39104 18.5996L10.2351 17.1177C10.7634 17.0179 11.1468 16.5477 11.1468 15.9995V12.3469C11.1468 12.0445 11.3871 11.7993 11.6835 11.7993C11.9799 11.7993 12.2202 12.0445 12.2202 12.3469V15.9995C12.2202 17.0756 11.4677 17.9985 10.4305 18.1944L2.5865 19.6763C1.24132 19.9304 0 18.8771 0 17.4814V2.2331Z" fill="#FF6161"/>
</svg>
