<svg width="36" height="30" viewBox="0 0 36 30" fill="none" xmlns="http://www.w3.org/2000/svg">
<path fill-rule="evenodd" clip-rule="evenodd" d="M5.90969 0.0674891C4.36281 0.311328 3.19406 0.867539 2.08338 1.8884C1.43234 2.48676 1.04161 3.00648 0.634402 3.81568C0.105985 4.8657 0.00413137 5.33008 0.000259931 6.70674C-0.00262605 7.74322 0.01652 7.94963 0.159622 8.42344C0.762159 10.4189 2.19966 11.9943 4.17402 12.823C5.40071 13.338 6.96385 13.4972 8.26437 13.2398C10.7034 12.7571 12.5959 11.2278 13.484 9.02206C13.5971 8.74093 13.7282 8.31707 13.7752 8.0801C13.8222 7.84313 13.8789 7.64924 13.9011 7.64924C13.9234 7.64924 14.0124 7.92943 14.099 8.27197C14.2812 8.99271 14.749 9.97527 15.1943 10.5721C15.6481 11.1803 16.6711 12.0782 17.2985 12.419C18.5825 13.1164 19.4737 13.3402 20.9379 13.3327C21.806 13.3283 22.0614 13.3011 22.6466 13.151C24.5482 12.6634 26.1601 11.4405 27.0519 9.80885C29.163 5.94655 27.0114 1.3126 22.5914 0.202334C21.7026 -0.0209715 20.3214 -0.0487752 19.4245 0.138648C16.7266 0.702264 14.6332 2.71114 14.0359 5.30982C13.987 5.52269 13.9266 5.69692 13.9018 5.69692C13.877 5.69692 13.8159 5.50761 13.766 5.27616C13.3273 3.24264 11.8614 1.49585 9.84639 0.605455C8.69115 0.0949561 7.10801 -0.121348 5.90969 0.0674891ZM7.79255 4.11809C8.87993 4.41229 9.66928 5.4007 9.73256 6.54739C9.86863 9.0156 6.78218 10.3158 4.94894 8.56246C4.39723 8.03479 4.11412 7.37168 4.11553 6.61034C4.11884 4.81803 5.90491 3.60746 7.79255 4.11809ZM21.6593 4.09244C22.5011 4.26741 23.3651 5.10381 23.6115 5.98209C23.7514 6.48101 23.678 7.3333 23.4551 7.79856C22.8045 9.15624 21.0118 9.7657 19.6459 9.09342C19.1685 8.85847 18.6048 8.32535 18.3754 7.89167C17.5805 6.38898 18.4304 4.5134 20.0958 4.0952C20.6635 3.95262 20.984 3.95208 21.6593 4.09244ZM10.7666 13.6431C10.1065 13.9875 9.12144 14.3184 8.33814 14.4589C7.74469 14.5653 6.18717 14.5631 5.55775 14.4548C4.92719 14.3464 4.27454 14.1519 3.67806 13.8947L3.20616 13.6911L2.86857 13.9219C2.44349 14.2124 1.92605 14.8594 1.71094 15.3694L1.54553 15.7615L1.52596 21.4152C1.50695 26.9111 1.5104 27.0812 1.64773 27.5136C2.03305 28.7268 2.97437 29.5768 4.28791 29.8975C4.65303 29.9867 5.90512 30 13.9341 30C21.9631 30 23.2152 29.9867 23.5804 29.8975C24.9213 29.5702 25.9137 28.6408 26.2531 27.3945C26.4061 26.8329 26.4084 16.3527 26.2557 15.804C26.0398 15.0282 25.441 14.1954 24.8462 13.8438L24.6099 13.7041L24.023 13.9365C22.3014 14.6181 20.4819 14.7367 18.7087 14.2828C18.0566 14.1159 17.0131 13.6901 16.6499 13.4428C16.4533 13.309 16.361 13.3044 13.9233 13.3084L11.4001 13.3126L10.7666 13.6431ZM34.1671 14.7793C33.9036 14.8595 33.909 14.8566 30.5989 16.6873L27.5546 18.371V21.6564V24.9417L27.7481 25.0723C27.926 25.1922 33.4874 28.2929 33.8896 28.4964C33.9864 28.5454 34.249 28.5856 34.4732 28.5858C34.9313 28.5863 35.2908 28.4423 35.5938 28.137C36.013 27.7148 36.0015 27.9022 35.9996 21.5258L35.9978 15.6942L35.7538 15.376C35.6195 15.201 35.3899 14.9995 35.2436 14.928C34.9266 14.7733 34.4176 14.7031 34.1671 14.7793Z" fill="#2AC6FA"/>
</svg>
