<svg width="28" height="28" viewBox="0 0 28 28" fill="none" xmlns="http://www.w3.org/2000/svg">
<path fill-rule="evenodd" clip-rule="evenodd" d="M16.6221 4.22391C17.9953 4.98635 18.678 6.59056 18.678 8.53995V19.4483C18.678 21.396 17.9993 23.001 16.627 23.7641C15.254 24.5275 13.5333 24.2558 11.8798 23.2239L8.40304 21.0539C8.16794 20.907 7.8847 20.825 7.60634 20.825H5.90301C4.57813 20.825 3.42376 20.4931 2.60679 19.6762C1.78982 18.8592 1.45801 17.7048 1.45801 16.3799V11.6199C1.45801 10.2951 1.78982 9.1407 2.60679 8.32373C3.42376 7.50676 4.57813 7.17495 5.90301 7.17495H7.60634C7.8766 7.17495 8.15083 7.09756 8.40758 6.94315L11.8779 4.76546C13.5271 3.7323 15.2483 3.46112 16.6221 4.22391ZM12.8081 6.24777C14.1569 5.40295 15.1661 5.41715 15.7726 5.7539C16.3799 6.09105 16.928 6.94267 16.928 8.53995V19.4483C16.928 21.0472 16.3817 21.8981 15.7765 22.2346C15.172 22.5708 14.1628 22.5858 12.8063 21.7393C12.8063 21.7393 12.8063 21.7394 12.8063 21.7393L9.33009 19.5696C8.81852 19.2499 8.21465 19.075 7.60634 19.075H5.90301C4.84788 19.075 4.21726 18.8118 3.84423 18.4387C3.4712 18.0657 3.20801 17.4351 3.20801 16.3799V11.6199C3.20801 10.5648 3.4712 9.9342 3.84423 9.56117C4.21726 9.18814 4.84788 8.92495 5.90301 8.92495H7.60634C8.2209 8.92495 8.80812 8.74672 9.31985 8.43658L12.8081 6.24777Z" fill="white"/>
<path fill-rule="evenodd" clip-rule="evenodd" d="M20.125 14C20.125 13.5168 20.5168 13.125 21 13.125H25.6667C26.1499 13.125 26.5417 13.5168 26.5417 14C26.5417 14.4832 26.1499 14.875 25.6667 14.875H21C20.5168 14.875 20.125 14.4832 20.125 14Z" fill="white"/>
<path fill-rule="evenodd" clip-rule="evenodd" d="M23.333 10.7917C23.8163 10.7917 24.208 11.1835 24.208 11.6667V16.3334C24.208 16.8167 23.8163 17.2084 23.333 17.2084C22.8498 17.2084 22.458 16.8167 22.458 16.3334V11.6667C22.458 11.1835 22.8498 10.7917 23.333 10.7917Z" fill="white"/>
</svg>
