<svg width="22" height="22" viewBox="0 0 22 22" fill="none" xmlns="http://www.w3.org/2000/svg">
<path fill-rule="evenodd" clip-rule="evenodd" d="M12.8447 3.60522C13.9097 4.19373 14.4372 5.4343 14.4372 6.93863V15.3536C14.4372 16.8543 13.9092 18.0938 12.8454 18.6832C11.7812 19.2728 10.4503 19.0628 9.17708 18.2645C9.17705 18.2645 9.17712 18.2645 9.17708 18.2645L6.50812 16.5918C6.31322 16.4776 6.09672 16.417 5.89384 16.417H4.58301C3.56037 16.417 2.66711 16.1608 2.03437 15.5281C1.40163 14.8954 1.14551 14.0021 1.14551 12.9795V9.3128C1.14551 8.29016 1.40163 7.3969 2.03437 6.76416C2.66711 6.13142 3.56037 5.8753 4.58301 5.8753H5.89384C6.09673 5.8753 6.31322 5.81469 6.50813 5.70041L9.17697 4.02782C9.17693 4.02784 9.17701 4.0278 9.17697 4.02782C10.4491 3.23024 11.78 3.01691 12.8447 3.60522ZM12.1797 4.80871C11.7182 4.5537 10.9452 4.54208 9.90738 5.19278L7.2236 6.87473L7.2165 6.87895C6.82639 7.11058 6.36707 7.2503 5.89384 7.2503H4.58301C3.77232 7.2503 3.29057 7.45251 3.00664 7.73643C2.72272 8.02036 2.52051 8.50211 2.52051 9.3128V12.9795C2.52051 13.7902 2.72272 14.2719 3.00664 14.5558C3.29057 14.8398 3.77232 15.042 4.58301 15.042H5.89384C6.36707 15.042 6.82639 15.1817 7.2165 15.4133L7.2236 15.4175L9.90727 17.0994C10.944 17.7494 11.7169 17.7365 12.179 17.4805C12.6414 17.2243 13.0622 16.5755 13.0622 15.3536V6.93863C13.0622 5.71129 12.6409 5.06354 12.1797 4.80871Z" fill="white"/>
<path fill-rule="evenodd" clip-rule="evenodd" d="M16.05 8.82661C16.3185 8.55812 16.7538 8.55812 17.0223 8.82661L20.6523 12.4566C20.9208 12.7251 20.9208 13.1604 20.6523 13.4289C20.3838 13.6974 19.9485 13.6974 19.68 13.4289L16.05 9.79888C15.7815 9.53039 15.7815 9.09509 16.05 8.82661Z" fill="white"/>
<path fill-rule="evenodd" clip-rule="evenodd" d="M20.6161 8.86323C20.8846 9.13171 20.8846 9.56702 20.6161 9.8355L16.9861 13.4655C16.7177 13.734 16.2823 13.734 16.0139 13.4655C15.7454 13.197 15.7454 12.7617 16.0139 12.4932L19.6439 8.86323C19.9123 8.59474 20.3476 8.59474 20.6161 8.86323Z" fill="white"/>
</svg>
