<svg width="20" height="20" viewBox="0 0 20 20" fill="none" xmlns="http://www.w3.org/2000/svg">
<path d="M6.03366 1.66663H4.45033C2.62533 1.66663 1.66699 2.62496 1.66699 4.44163V6.02496C1.66699 7.84163 2.62533 8.79996 4.44199 8.79996H6.02533C7.84199 8.79996 8.80033 7.84163 8.80033 6.02496V4.44163C8.80866 2.62496 7.85033 1.66663 6.03366 1.66663Z" fill="white"/>
<path d="M15.5585 1.66663H13.9752C12.1585 1.66663 11.2002 2.62496 11.2002 4.44163V6.02496C11.2002 7.84163 12.1585 8.79996 13.9752 8.79996H15.5585C17.3752 8.79996 18.3335 7.84163 18.3335 6.02496V4.44163C18.3335 2.62496 17.3752 1.66663 15.5585 1.66663Z" fill="white"/>
<path d="M15.5585 11.1917H13.9752C12.1585 11.1917 11.2002 12.15 11.2002 13.9667V15.55C11.2002 17.3666 12.1585 18.325 13.9752 18.325H15.5585C17.3752 18.325 18.3335 17.3666 18.3335 15.55V13.9667C18.3335 12.15 17.3752 11.1917 15.5585 11.1917Z" fill="white"/>
<path d="M6.03366 11.1917H4.45033C2.62533 11.1917 1.66699 12.15 1.66699 13.9667V15.55C1.66699 17.375 2.62533 18.3333 4.44199 18.3333H6.02533C7.84199 18.3333 8.80033 17.375 8.80033 15.5583V13.975C8.80866 12.15 7.85033 11.1917 6.03366 11.1917Z" fill="white"/>
</svg>
