<svg width="20" height="20" viewBox="0 0 20 20" fill="none" xmlns="http://www.w3.org/2000/svg">
<path fill-rule="evenodd" clip-rule="evenodd" d="M1.85005 1.84981C2.42527 1.27459 3.23732 1.04175 4.16699 1.04175H5.83366C6.76333 1.04175 7.57538 1.27459 8.1506 1.84981C8.72582 2.42502 8.95866 3.23707 8.95866 4.16675V5.83341C8.95866 6.76309 8.72582 7.57514 8.1506 8.15036C7.57538 8.72557 6.76333 8.95841 5.83366 8.95841H4.16699C3.23732 8.95841 2.42527 8.72557 1.85005 8.15036C1.27483 7.57514 1.04199 6.76309 1.04199 5.83341V4.16675C1.04199 3.23707 1.27483 2.42502 1.85005 1.84981ZM2.73393 2.73369C2.47582 2.99181 2.29199 3.42975 2.29199 4.16675V5.83341C2.29199 6.57041 2.47582 7.00836 2.73393 7.26647C2.99205 7.52459 3.43 7.70841 4.16699 7.70841H5.83366C6.57065 7.70841 7.0086 7.52459 7.26672 7.26647C7.52483 7.00836 7.70866 6.57041 7.70866 5.83341V4.16675C7.70866 3.42975 7.52483 2.99181 7.26672 2.73369C7.0086 2.47557 6.57065 2.29175 5.83366 2.29175H4.16699C3.43 2.29175 2.99205 2.47557 2.73393 2.73369Z" fill="#2AC6FA"/>
<path fill-rule="evenodd" clip-rule="evenodd" d="M11.8501 1.84981C12.4253 1.27459 13.2373 1.04175 14.167 1.04175H15.8337C16.7633 1.04175 17.5754 1.27459 18.1506 1.84981C18.7258 2.42502 18.9587 3.23707 18.9587 4.16675V5.83341C18.9587 6.76309 18.7258 7.57514 18.1506 8.15036C17.5754 8.72557 16.7633 8.95841 15.8337 8.95841H14.167C13.2373 8.95841 12.4253 8.72557 11.8501 8.15036C11.2748 7.57514 11.042 6.76309 11.042 5.83341V4.16675C11.042 3.23707 11.2748 2.42502 11.8501 1.84981ZM12.7339 2.73369C12.4758 2.99181 12.292 3.42975 12.292 4.16675V5.83341C12.292 6.57041 12.4758 7.00836 12.7339 7.26647C12.9921 7.52459 13.43 7.70841 14.167 7.70841H15.8337C16.5707 7.70841 17.0086 7.52459 17.2667 7.26647C17.5248 7.00836 17.7087 6.57041 17.7087 5.83341V4.16675C17.7087 3.42975 17.5248 2.99181 17.2667 2.73369C17.0086 2.47557 16.5707 2.29175 15.8337 2.29175H14.167C13.43 2.29175 12.9921 2.47557 12.7339 2.73369Z" fill="#2AC6FA"/>
<path fill-rule="evenodd" clip-rule="evenodd" d="M11.8501 11.8498C12.4253 11.2746 13.2373 11.0417 14.167 11.0417H15.8337C16.7633 11.0417 17.5754 11.2746 18.1506 11.8498C18.7258 12.425 18.9587 13.2371 18.9587 14.1667V15.8334C18.9587 16.7631 18.7258 17.5751 18.1506 18.1504C17.5754 18.7256 16.7633 18.9584 15.8337 18.9584H14.167C13.2373 18.9584 12.4253 18.7256 11.8501 18.1504C11.2748 17.5751 11.042 16.7631 11.042 15.8334V14.1667C11.042 13.2371 11.2748 12.425 11.8501 11.8498ZM12.7339 12.7337C12.4758 12.9918 12.292 13.4298 12.292 14.1667V15.8334C12.292 16.5704 12.4758 17.0084 12.7339 17.2665C12.9921 17.5246 13.43 17.7084 14.167 17.7084H15.8337C16.5707 17.7084 17.0086 17.5246 17.2667 17.2665C17.5248 17.0084 17.7087 16.5704 17.7087 15.8334V14.1667C17.7087 13.4298 17.5248 12.9918 17.2667 12.7337C17.0086 12.4756 16.5707 12.2917 15.8337 12.2917H14.167C13.43 12.2917 12.9921 12.4756 12.7339 12.7337Z" fill="#2AC6FA"/>
<path fill-rule="evenodd" clip-rule="evenodd" d="M1.85005 11.8498C2.42527 11.2746 3.23732 11.0417 4.16699 11.0417H5.83366C6.76333 11.0417 7.57538 11.2746 8.1506 11.8498C8.72582 12.425 8.95866 13.2371 8.95866 14.1667V15.8334C8.95866 16.7631 8.72582 17.5751 8.1506 18.1504C7.57538 18.7256 6.76333 18.9584 5.83366 18.9584H4.16699C3.23732 18.9584 2.42527 18.7256 1.85005 18.1504C1.27483 17.5751 1.04199 16.7631 1.04199 15.8334V14.1667C1.04199 13.2371 1.27483 12.425 1.85005 11.8498ZM2.73393 12.7337C2.47582 12.9918 2.29199 13.4298 2.29199 14.1667V15.8334C2.29199 16.5704 2.47582 17.0084 2.73393 17.2665C2.99205 17.5246 3.43 17.7084 4.16699 17.7084H5.83366C6.57065 17.7084 7.0086 17.5246 7.26672 17.2665C7.52483 17.0084 7.70866 16.5704 7.70866 15.8334V14.1667C7.70866 13.4298 7.52483 12.9918 7.26672 12.7337C7.0086 12.4756 6.57065 12.2917 5.83366 12.2917H4.16699C3.43 12.2917 2.99205 12.4756 2.73393 12.7337Z" fill="#2AC6FA"/>
</svg>
