<svg width="32" height="32" viewBox="0 0 32 32" fill="none" xmlns="http://www.w3.org/2000/svg">
<path fill-rule="evenodd" clip-rule="evenodd" d="M1.6665 16.0001C1.6665 8.11446 8.11422 1.66675 15.9998 1.66675C23.8855 1.66675 30.3332 8.11446 30.3332 16.0001C30.3332 23.8857 23.8855 30.3334 15.9998 30.3334C8.11422 30.3334 1.6665 23.8857 1.6665 16.0001ZM15.9998 3.66675C9.21879 3.66675 3.6665 9.21903 3.6665 16.0001C3.6665 22.7811 9.21879 28.3334 15.9998 28.3334C22.7809 28.3334 28.3332 22.7811 28.3332 16.0001C28.3332 9.21903 22.7809 3.66675 15.9998 3.66675Z" fill="#909090"/>
<path fill-rule="evenodd" clip-rule="evenodd" d="M20.4803 11.5195C20.8709 11.91 20.8709 12.5431 20.4803 12.9337L12.9337 20.4803C12.5431 20.8709 11.91 20.8709 11.5195 20.4803C11.1289 20.0898 11.1289 19.4566 11.5195 19.0661L19.0661 11.5195C19.4566 11.1289 20.0898 11.1289 20.4803 11.5195Z" fill="#909090"/>
<path fill-rule="evenodd" clip-rule="evenodd" d="M11.5195 11.5195C11.91 11.1289 12.5431 11.1289 12.9337 11.5195L20.4803 19.0661C20.8709 19.4566 20.8709 20.0898 20.4803 20.4803C20.0898 20.8709 19.4566 20.8709 19.0661 20.4803L11.5195 12.9337C11.1289 12.5431 11.1289 11.91 11.5195 11.5195Z" fill="#909090"/>
</svg>
