<svg width="20" height="20" viewBox="0 0 20 20" fill="none" xmlns="http://www.w3.org/2000/svg">
<path fill-rule="evenodd" clip-rule="evenodd" d="M2.57922 2.57888C3.69127 1.46682 5.35535 1.04166 7.50033 1.04166H12.5003C14.6453 1.04166 16.3094 1.46682 17.4214 2.57888C18.5335 3.69094 18.9587 5.35501 18.9587 7.49999V12.5C18.9587 14.645 18.5335 16.309 17.4214 17.4211C16.3094 18.5332 14.6453 18.9583 12.5003 18.9583H7.50033C5.35535 18.9583 3.69127 18.5332 2.57922 17.4211C1.46716 16.309 1.04199 14.645 1.04199 12.5V7.49999C1.04199 5.35501 1.46716 3.69094 2.57922 2.57888ZM3.4631 3.46276C2.70016 4.22571 2.29199 5.4783 2.29199 7.49999V12.5C2.29199 14.5217 2.70016 15.7743 3.4631 16.5372C4.22604 17.3002 5.47864 17.7083 7.50033 17.7083H12.5003C14.522 17.7083 15.7746 17.3002 16.5376 16.5372C17.3005 15.7743 17.7087 14.5217 17.7087 12.5V7.49999C17.7087 5.4783 17.3005 4.22571 16.5376 3.46276C15.7746 2.69982 14.522 2.29166 12.5003 2.29166H7.50033C5.47864 2.29166 4.22604 2.69982 3.4631 3.46276Z" fill="#2AC6FA"/>
<path fill-rule="evenodd" clip-rule="evenodd" d="M6.25 7.5C6.25 7.15482 6.52982 6.875 6.875 6.875H13.125C13.4702 6.875 13.75 7.15482 13.75 7.5C13.75 7.84518 13.4702 8.125 13.125 8.125H6.875C6.52982 8.125 6.25 7.84518 6.25 7.5Z" fill="#2AC6FA"/>
<path fill-rule="evenodd" clip-rule="evenodd" d="M6.04199 12.5C6.04199 12.1548 6.32181 11.875 6.66699 11.875H10.0003C10.3455 11.875 10.6253 12.1548 10.6253 12.5C10.6253 12.8452 10.3455 13.125 10.0003 13.125H6.66699C6.32181 13.125 6.04199 12.8452 6.04199 12.5Z" fill="#2AC6FA"/>
</svg>
