<svg width="18" height="18" viewBox="0 0 18 18" fill="none" xmlns="http://www.w3.org/2000/svg">
<path fill-rule="evenodd" clip-rule="evenodd" d="M8.58317 1.29166C4.55609 1.29166 1.2915 4.55625 1.2915 8.58332C1.2915 12.6104 4.55609 15.875 8.58317 15.875C12.6102 15.875 15.8748 12.6104 15.8748 8.58332C15.8748 4.55625 12.6102 1.29166 8.58317 1.29166ZM0.0415039 8.58332C0.0415039 3.86589 3.86574 0.0416565 8.58317 0.0416565C13.3006 0.0416565 17.1248 3.86589 17.1248 8.58332C17.1248 13.3008 13.3006 17.125 8.58317 17.125C3.86574 17.125 0.0415039 13.3008 0.0415039 8.58332Z" fill="#2AC6FA"/>
<path fill-rule="evenodd" clip-rule="evenodd" d="M15.2246 15.2247C15.4686 14.9806 15.8644 14.9806 16.1084 15.2247L17.7751 16.8914C18.0192 17.1355 18.0192 17.5312 17.7751 17.7753C17.531 18.0193 17.1353 18.0193 16.8912 17.7753L15.2246 16.1086C14.9805 15.8645 14.9805 15.4688 15.2246 15.2247Z" fill="#2AC6FA"/>
</svg>
