<svg width="123" height="37" viewBox="0 0 123 37" fill="none" xmlns="http://www.w3.org/2000/svg">
<g clip-path="url(#clip0_2484_20021)">
<path d="M118.444 36.2651H4.55556C2.05 36.2651 0 34.2749 0 31.8424V5.30645C0 2.87399 2.05 0.883789 4.55556 0.883789H118.444C120.95 0.883789 123 2.87399 123 5.30645V31.8424C123 34.2749 120.95 36.2651 118.444 36.2651Z" fill="black"/>
<path d="M118.444 1.59142C120.558 1.59142 122.271 3.25434 122.271 5.30645V31.8424C122.271 33.8945 120.558 35.5575 118.444 35.5575H4.55556C2.44178 35.5575 0.728889 33.8945 0.728889 31.8424V5.30645C0.728889 3.25434 2.44178 1.59142 4.55556 1.59142H118.444ZM118.444 0.883789H4.55556C2.05 0.883789 0 2.87399 0 5.30645V31.8424C0 34.2749 2.05 36.2651 4.55556 36.2651H118.444C120.95 36.2651 123 34.2749 123 31.8424V5.30645C123 2.87399 120.95 0.883789 118.444 0.883789Z" fill="#A6A6A6"/>
<path d="M38.1787 13.5067H37.5078V11.7288H38.0427C38.5142 11.3308 38.7408 10.6585 38.7318 9.69439V7.07617H42.3674V11.7288H42.9749V13.5067H42.3039V12.3834H38.1787V13.5067ZM39.439 9.70323C39.448 10.5435 39.2758 11.2158 38.9222 11.7377H41.6693V7.73073H39.439V9.70323Z" fill="white" stroke="white" stroke-width="0.0336945" stroke-miterlimit="10"/>
<path d="M48.4238 11.6942C47.8889 12.2337 47.227 12.4991 46.4292 12.4991C45.6313 12.4991 44.9695 12.2337 44.4346 11.6942C43.8996 11.1546 43.6367 10.5 43.6367 9.7305C43.6367 8.96096 43.8996 8.29756 44.4346 7.76684C44.9695 7.22727 45.6313 6.96191 46.4292 6.96191C47.2179 6.96191 47.8798 7.22727 48.4238 7.76684C48.9587 8.3064 49.2307 8.96096 49.2307 9.7305C49.2307 10.5089 48.9587 11.1634 48.4238 11.6942ZM44.9513 11.2519C45.3503 11.6499 45.8489 11.8445 46.4292 11.8445C47.0094 11.8445 47.5081 11.6499 47.907 11.2519C48.3059 10.8539 48.5144 10.3497 48.5144 9.7305C48.5144 9.11133 48.315 8.60714 47.907 8.20911C47.5081 7.81107 47.0185 7.60762 46.4292 7.60762C45.8489 7.60762 45.3503 7.80222 44.9513 8.20026C44.5524 8.5983 44.3439 9.10248 44.3439 9.72166C44.3439 10.3408 44.5524 10.8539 44.9513 11.2519Z" fill="white" stroke="white" stroke-width="0.0336945" stroke-miterlimit="10"/>
<path d="M52.7486 12.4982C51.9508 12.4982 51.2799 12.2329 50.7359 11.7021C50.1919 11.1714 49.9199 10.5169 49.9199 9.72079C49.9199 8.92471 50.1919 8.27016 50.7359 7.73944C51.2799 7.20872 51.9508 6.94336 52.7486 6.94336C53.5646 6.94336 54.2355 7.23526 54.7432 7.8102L54.2537 8.27016C53.8819 7.81905 53.3833 7.59791 52.7396 7.59791C52.1503 7.59791 51.6425 7.79251 51.2345 8.18171C50.8266 8.5709 50.6271 9.08393 50.6271 9.71195C50.6271 10.34 50.8266 10.853 51.2345 11.2422C51.6425 11.6314 52.1412 11.826 52.7396 11.826C53.3924 11.826 53.9454 11.5695 54.4078 11.0564L54.8974 11.5341C54.6526 11.826 54.3353 12.056 53.9635 12.224C53.5918 12.4186 53.1838 12.4982 52.7486 12.4982Z" fill="white" stroke="white" stroke-width="0.0336945" stroke-miterlimit="10"/>
<path d="M57.7349 12.3834H57.0368V7.73073H55.5137V7.07617H59.249V7.73073H57.7259V12.3834H57.7349Z" fill="white" stroke="white" stroke-width="0.0336945" stroke-miterlimit="10"/>
<path d="M64.0544 7.07617L61.9964 11.5519C61.7153 12.1799 61.2892 12.4984 60.7271 12.4984C60.5639 12.4984 60.3825 12.463 60.1831 12.3834L60.3644 11.7553C60.4823 11.8173 60.6001 11.8526 60.7271 11.8526C60.8903 11.8526 61.0172 11.8261 61.1079 11.7642C61.1985 11.7023 61.2801 11.5873 61.3527 11.4281L61.5521 11.0035L59.7207 7.07617H60.5457L61.8876 10.119H61.9148L63.2294 7.07617H64.0544Z" fill="white" stroke="white" stroke-width="0.0336945" stroke-miterlimit="10"/>
<path d="M64.8438 12.3834V7.07617H68.7786V12.3834H68.0805V7.73073H65.5419V12.3834H64.8438Z" fill="white" stroke="white" stroke-width="0.0336945" stroke-miterlimit="10"/>
<path d="M70.0195 12.3834V7.07617H70.7176V9.34942H73.4376V7.07617H74.1357V12.3834H73.4376V9.98628H70.7176V12.3834H70.0195Z" fill="white" stroke="white" stroke-width="0.0336945" stroke-miterlimit="10"/>
<path d="M79.8378 11.6942C79.3029 12.2337 78.6411 12.4991 77.8432 12.4991C77.0454 12.4991 76.3835 12.2337 75.8486 11.6942C75.3137 11.1546 75.0508 10.5 75.0508 9.7305C75.0508 8.96096 75.3137 8.29756 75.8486 7.76684C76.3835 7.22727 77.0454 6.96191 77.8432 6.96191C78.632 6.96191 79.2939 7.22727 79.8378 7.76684C80.3728 8.3064 80.6448 8.96096 80.6448 9.7305C80.6357 10.5089 80.3728 11.1634 79.8378 11.6942ZM76.3654 11.2519C76.7643 11.6499 77.263 11.8445 77.8432 11.8445C78.4235 11.8445 78.9221 11.6499 79.3211 11.2519C79.72 10.8539 79.9285 10.3497 79.9285 9.7305C79.9285 9.11133 79.729 8.60714 79.3211 8.20911C78.9131 7.81107 78.4235 7.60762 77.8432 7.60762C77.263 7.60762 76.7643 7.80222 76.3654 8.20026C75.9665 8.5983 75.758 9.10248 75.758 9.72166C75.758 10.3408 75.9574 10.8539 76.3654 11.2519Z" fill="white" stroke="white" stroke-width="0.0336945" stroke-miterlimit="10"/>
<path d="M83.4922 12.3834V7.07617H85.4596C85.8857 7.07617 86.2574 7.2177 86.5657 7.48306C86.883 7.76611 87.0372 8.10223 87.0372 8.51796C87.0372 8.77447 86.9737 8.99561 86.8377 9.18136C86.7017 9.37596 86.5294 9.51748 86.3028 9.61478V9.64132C86.5748 9.72977 86.7924 9.88014 86.9646 10.1013C87.1369 10.3224 87.2275 10.5701 87.2275 10.8531C87.2275 11.2865 87.0644 11.6492 86.738 11.9323C86.4025 12.2418 86.0126 12.3834 85.5684 12.3834H83.4922ZM84.1903 9.34942H85.4596C85.7225 9.34942 85.9311 9.26097 86.0942 9.09291C86.2574 8.92484 86.33 8.73909 86.33 8.53565C86.33 8.33221 86.2574 8.14646 86.0942 7.9784C85.9401 7.81033 85.7407 7.72188 85.4868 7.72188H84.1903V9.34942ZM84.1903 11.7288H85.5956C85.8676 11.7288 86.0852 11.6404 86.2484 11.4546C86.4116 11.2689 86.5022 11.0743 86.5022 10.8531C86.5022 10.632 86.4206 10.4374 86.2393 10.2605C86.0671 10.0836 85.8404 9.98628 85.5593 9.98628H84.1812V11.7288H84.1903Z" fill="white" stroke="white" stroke-width="0.0336945" stroke-miterlimit="10"/>
<rect x="6.33594" y="7.09473" width="23.6225" height="22.9903" rx="7.99207" fill="white"/>
<path fill-rule="evenodd" clip-rule="evenodd" d="M7.99647 28.4689C9.657 30.085 12.3296 30.085 17.6747 30.085H18.6196C23.9648 30.085 26.6374 30.085 28.298 28.4689C29.9585 26.8528 29.9585 24.2517 29.9585 19.0496V18.13C29.9585 12.9279 29.9585 10.3268 28.298 8.71072C26.6374 7.09473 23.9648 7.09473 18.6196 7.09473V7.09473L17.6747 7.09473V7.09473C12.3296 7.09473 9.657 7.09473 7.99647 8.71072C6.33594 10.3268 6.33594 12.9279 6.33594 18.13L6.33594 19.0496C6.33594 24.2517 6.33594 26.8528 7.99647 28.4689ZM24.5739 22.3759L22.9771 21.9876C22.7853 21.9338 22.6498 21.7656 22.643 21.5702L22.4438 15.8529C22.3862 15.0962 21.809 14.4943 21.2059 14.317C21.172 14.3071 21.1358 14.3205 21.1158 14.3488C21.0954 14.3776 21.1032 14.4176 21.1317 14.439C21.2807 14.5512 21.6906 14.9174 21.6906 15.549L21.6894 23.0242C21.6894 23.7461 20.9886 24.2755 20.2657 24.0997L18.6447 23.7056C18.4651 23.6443 18.3404 23.4815 18.3338 23.2937L18.1346 17.576C18.077 16.8192 17.4999 16.2174 16.8967 16.0401C16.8628 16.0302 16.8267 16.0436 16.8066 16.0719C16.7862 16.1007 16.7941 16.1407 16.8226 16.162C16.9715 16.2743 17.3823 16.6396 17.3823 17.2712L17.3811 24.7481C17.3811 25.4699 16.6803 25.9993 15.9573 25.8235L11.3794 24.7105C10.743 24.5558 10.2967 24.0017 10.2967 23.3662V15.8792C10.2967 15.1574 10.9975 14.6281 11.7204 14.8038L14.605 15.5051V14.1554C14.605 13.4336 15.3058 12.9042 16.0287 13.08L18.9132 13.7813V12.4316C18.9132 11.7097 19.614 11.1804 20.3369 11.3561L24.9149 12.4691C25.5513 12.6238 25.9976 13.1779 25.9976 13.8134V21.3004C25.9976 22.0222 25.2968 22.5516 24.5739 22.3759Z" fill="#2B71F6"/>
<path d="M43.5523 25.3418C45.4411 24.8651 46.6824 23.4347 46.6824 21.5629C46.6824 19.2496 44.8115 17.625 42.1851 17.625H37.5078V30.0743H39.6665V25.5008H41.1956L44.5417 30.0743H47.0782L43.5523 25.3418ZM42.1851 19.5675C43.5343 19.5675 44.4697 20.3798 44.4697 21.5629C44.4697 22.746 43.5343 23.5583 42.1851 23.5583H39.6665V19.5675H42.1851Z" fill="white"/>
<path d="M51.8849 30.0743C53.0259 30.0743 54.0762 29.4929 54.6739 28.524L55.0904 29.8981H56.6478V20.7373H54.5652V26.04C54.5652 27.3437 53.6778 28.2598 52.4645 28.2598C51.2692 28.2598 50.4361 27.3437 50.4361 26.04V20.7373H48.3535V26.269C48.3535 28.4712 49.8747 30.0743 51.8849 30.0743Z" fill="white"/>
<path d="M62.6415 30.0743C64.9483 30.0743 66.8562 28.7693 66.8562 26.6057C66.8562 24.1845 64.8616 23.4805 63.1445 22.8967C61.809 22.4502 60.6469 22.0381 60.6469 20.9563C60.6469 20.0119 61.5315 19.5139 62.5721 19.5139C63.6648 19.5139 64.4453 20.0805 64.8789 21.0422L66.8562 20.7159C66.2318 18.827 64.6534 17.625 62.5027 17.625C60.2827 17.625 58.5135 18.8957 58.5135 21.0593C58.5135 23.4977 60.5081 24.1674 62.2252 24.734C63.5434 25.1633 64.7228 25.5754 64.7228 26.6744C64.7228 27.636 63.8383 28.1855 62.6588 28.1855C61.306 28.1855 60.5775 27.5501 59.9358 26.3996L57.9238 26.7431C58.5135 28.7865 60.3867 30.0743 62.6415 30.0743Z" fill="white"/>
<path d="M72.6428 28.3097C71.9607 28.3097 71.6289 27.9743 71.6289 27.2859V22.6611H74.3383V20.8959H71.6289V18.248H70.1255L69.6186 20.8959H68.1328V22.6611H69.6186V27.2859C69.6186 29.0864 70.6499 30.0749 72.6428 30.0749H74.3383L74.5131 28.3097H72.6428Z" fill="white"/>
<path d="M80.2542 30.0743C83.2473 30.0743 85.3588 28.1377 85.3588 25.4058C85.3588 22.6739 83.2473 20.7373 80.2542 20.7373C77.2619 20.7373 75.1504 22.6739 75.1504 25.4058C75.1504 28.1377 77.2619 30.0743 80.2542 30.0743ZM80.2542 28.2588C78.5286 28.2588 77.3537 27.1003 77.3537 25.4058C77.3537 23.7113 78.5286 22.5528 80.2542 22.5528C81.9806 22.5528 83.1554 23.7113 83.1554 25.4058C83.1554 27.1003 81.9806 28.2588 80.2542 28.2588Z" fill="white"/>
<path d="M88.7091 30.0743V24.5619C88.7091 23.3768 89.2862 22.7124 90.5489 22.7124H91.739L91.5586 20.7373H91.1619C90.062 20.7373 89.2137 21.0426 88.5823 22.084L88.1856 20.7373H86.6348V30.0743H88.7091Z" fill="white"/>
<path d="M101.949 25.3021C101.949 22.7084 99.9645 20.7373 97.1641 20.7373C94.3644 20.7373 92.3789 22.6912 92.3789 25.4058C92.3789 28.1205 94.3644 30.0743 97.1641 30.0743C99.0783 30.0743 100.886 29.1925 101.578 27.4807L99.6633 27.1695C99.2202 27.8092 98.3694 28.2588 97.2887 28.2588C95.7289 28.2588 94.7009 27.3251 94.5057 25.9418H101.914C101.932 25.7516 101.949 25.5441 101.949 25.3021ZM97.1641 22.4664C98.4407 22.4664 99.3974 23.2618 99.7339 24.3857H94.6303C94.9667 23.2272 95.9235 22.4664 97.1641 22.4664Z" fill="white"/>
</g>
<defs>
<clipPath id="clip0_2484_20021">
<rect width="123" height="37" fill="white"/>
</clipPath>
</defs>
</svg>
