<svg width="123" height="37" viewBox="0 0 123 37" fill="none" xmlns="http://www.w3.org/2000/svg">
<g clip-path="url(#clip0_2484_19993)">
<path d="M118.444 36.2661H4.55553C2.04999 36.2661 0 34.2759 0 31.8434V5.30743C0 2.87496 2.04999 0.884766 4.55553 0.884766H118.444C120.949 0.884766 122.999 2.87496 122.999 5.30743V31.8434C122.999 34.2759 120.949 36.2661 118.444 36.2661Z" fill="black"/>
<path d="M118.446 1.59239C120.559 1.59239 122.272 3.25531 122.272 5.30743V31.8434C122.272 33.8955 120.559 35.5584 118.446 35.5584H4.55748C2.44372 35.5584 0.730838 33.8955 0.730838 31.8434V5.30743C0.730838 3.25531 2.44372 1.59239 4.55748 1.59239H118.446ZM118.446 0.884766H4.55748C2.05194 0.884766 0.00195312 2.87496 0.00195312 5.30743V31.8434C0.00195312 34.2759 2.05194 36.2661 4.55748 36.2661H118.446C120.951 36.2661 123.001 34.2759 123.001 31.8434V5.30743C123.001 2.87496 120.951 0.884766 118.446 0.884766Z" fill="#A6A6A6"/>
<path d="M62.0835 20.1231C59.9424 20.1231 58.1931 21.7064 58.1931 23.8824C58.1931 26.0495 59.9424 27.6417 62.0835 27.6417C64.2246 27.6417 65.974 26.0495 65.974 23.8824C65.974 21.7064 64.2246 20.1231 62.0835 20.1231ZM62.0835 26.1645C60.9082 26.1645 59.8969 25.2269 59.8969 23.8824C59.8969 22.5291 60.9082 21.6003 62.0835 21.6003C63.2589 21.6003 64.2702 22.5291 64.2702 23.8824C64.2702 25.2269 63.2498 26.1645 62.0835 26.1645ZM53.592 20.1231C51.4509 20.1231 49.7016 21.7064 49.7016 23.8824C49.7016 26.0495 51.4509 27.6417 53.592 27.6417C55.7331 27.6417 57.4825 26.0495 57.4825 23.8824C57.4825 21.7064 55.7331 20.1231 53.592 20.1231ZM53.592 26.1645C52.4167 26.1645 51.4054 25.2269 51.4054 23.8824C51.4054 22.5291 52.4167 21.6003 53.592 21.6003C54.7674 21.6003 55.7787 22.5291 55.7787 23.8824C55.7787 25.2269 54.7674 26.1645 53.592 26.1645ZM43.497 21.2819V22.874H47.433C47.3145 23.7674 47.0047 24.4308 46.5401 24.8819C45.9661 25.4392 45.0732 26.0495 43.5061 26.0495C41.0826 26.0495 39.1875 24.1566 39.1875 21.8037C39.1875 19.4509 41.0826 17.558 43.5061 17.558C44.809 17.558 45.7656 18.0533 46.4672 18.699L47.6243 17.5757C46.6403 16.6646 45.3374 15.9658 43.497 15.9658C40.1806 15.9658 37.3926 18.584 37.3926 21.8126C37.3926 25.0323 40.1806 27.6593 43.497 27.6593C45.2919 27.6593 46.6403 27.0932 47.6972 26.023C48.7814 24.9704 49.1185 23.4843 49.1185 22.2902C49.1185 21.9187 49.0912 21.5738 49.0274 21.2907H43.497V21.2819ZM84.7792 22.5202C84.4603 21.6799 83.4763 20.1231 81.4628 20.1231C79.4675 20.1231 77.8092 21.6445 77.8092 23.8824C77.8092 25.9876 79.4492 27.6417 81.6541 27.6417C83.4308 27.6417 84.4603 26.5891 84.8794 25.9787L83.5583 25.1207C83.121 25.7488 82.5197 26.1645 81.6541 26.1645C80.7886 26.1645 80.169 25.7841 79.7772 25.0234L84.9614 22.9448L84.7792 22.5202ZM79.4948 23.7762C79.4492 22.3256 80.6519 21.5826 81.5174 21.5826C82.1917 21.5826 82.7657 21.9099 82.957 22.3787L79.4948 23.7762ZM75.2855 27.4205H76.9892V16.3639H75.2855V27.4205ZM72.4975 20.9634H72.4337C72.051 20.5212 71.3222 20.1231 70.3928 20.1231C68.4522 20.1231 66.6755 21.7772 66.6755 23.9001C66.6755 26.0053 68.4522 27.6505 70.3928 27.6505C71.3131 27.6505 72.051 27.2525 72.4337 26.7925H72.4884V27.3321C72.4884 28.7739 71.6957 29.5434 70.4202 29.5434C69.3815 29.5434 68.7346 28.8181 68.4704 28.2078L66.9853 28.8092C67.4135 29.8088 68.5433 31.0294 70.4202 31.0294C72.4155 31.0294 74.101 29.8884 74.101 27.1109V20.3531H72.4884V20.9634H72.4975ZM70.5386 26.1645C69.3633 26.1645 68.3793 25.2092 68.3793 23.9001C68.3793 22.5733 69.3633 21.6091 70.5386 21.6091C71.6957 21.6091 72.6068 22.5821 72.6068 23.9001C72.6159 25.2092 71.7048 26.1645 70.5386 26.1645ZM92.7605 16.3639H88.6878V27.4205H90.3916V23.2278H92.7696C94.6556 23.2278 96.5051 21.901 96.5051 19.7958C96.5051 17.6907 94.6374 16.3639 92.7605 16.3639ZM92.7969 21.6887H90.3825V17.8941H92.7969C94.0725 17.8941 94.7923 18.9202 94.7923 19.787C94.7923 20.6538 94.0725 21.6887 92.7969 21.6887ZM103.311 20.1054C102.081 20.1054 100.806 20.6362 100.277 21.7949L101.79 22.4052C102.108 21.7949 102.71 21.5914 103.338 21.5914C104.213 21.5914 105.115 22.1045 105.124 23.0155V23.1305C104.814 22.9625 104.158 22.706 103.348 22.706C101.717 22.706 100.068 23.5728 100.068 25.1915C100.068 26.6687 101.398 27.624 102.892 27.624C104.031 27.624 104.669 27.1286 105.06 26.5448H105.115V27.4028H106.755V23.1659C106.764 21.2023 105.252 20.1054 103.311 20.1054ZM103.102 26.1645C102.546 26.1645 101.771 25.8903 101.771 25.2269C101.771 24.3777 102.737 24.0504 103.575 24.0504C104.322 24.0504 104.678 24.2097 105.124 24.422C104.997 25.4392 104.086 26.1645 103.102 26.1645ZM112.741 20.3443L110.791 25.1384H110.737L108.714 20.3443H106.883L109.917 27.049L108.186 30.7729H109.962L114.636 20.3443H112.741ZM97.4345 27.4205H99.1382V16.3639H97.4345V27.4205Z" fill="white"/>
<path d="M9.51286 7.5541C9.24864 7.82831 9.09375 8.25288 9.09375 8.79245V28.3583C9.09375 28.9067 9.24864 29.3313 9.51286 29.5967L9.57664 29.6586L20.8652 18.7081V18.5754V18.4427L9.57664 7.49219L9.51286 7.5541Z" fill="url(#paint0_linear_2484_19993)"/>
<path d="M24.6301 22.3607L20.8672 18.7075V18.5749V18.4422L24.6301 14.7891L24.7121 14.8333L29.1674 17.2923C30.4429 17.9911 30.4429 19.141 29.1674 19.8486L24.7121 22.3076L24.6301 22.3607Z" fill="url(#paint1_linear_2484_19993)"/>
<path d="M24.7109 22.3079L20.8661 18.5752L9.51367 29.5965C9.93278 30.0299 10.6252 30.083 11.4088 29.6495L24.7109 22.3079Z" fill="url(#paint2_linear_2484_19993)"/>
<path d="M24.7103 14.8425L11.399 7.50092C10.6155 7.0675 9.92301 7.12057 9.50391 7.55399L20.8654 18.5753L24.7103 14.8425Z" fill="url(#paint3_linear_2484_19993)"/>
<path opacity="0.2" d="M24.6309 22.2285L11.4016 29.5259C10.6636 29.9328 9.99851 29.9063 9.5794 29.5348L9.51562 29.5967L9.5794 29.6586C10.0076 30.0301 10.6636 30.0566 11.4016 29.6497L24.7129 22.3081L24.6309 22.2285Z" fill="black"/>
<path opacity="0.12" d="M9.51481 29.4727C9.25059 29.1985 9.0957 28.7739 9.0957 28.2344V28.3671C9.0957 28.9155 9.25059 29.34 9.51481 29.6054L9.57859 29.5435L9.51481 29.4727Z" fill="black"/>
<path opacity="0.12" d="M29.1675 19.7251L24.6211 22.2283L24.7031 22.3079L29.1584 19.8489C29.7962 19.4951 30.1151 19.0352 30.1151 18.5752C30.0695 18.9909 29.7506 19.4067 29.1675 19.7251Z" fill="black"/>
<path opacity="0.25" d="M11.4001 7.62527L29.1667 17.4259C29.7407 17.7443 30.0687 18.1512 30.1234 18.5758C30.1234 18.1158 29.8045 17.647 29.1667 17.3021L11.4001 7.50144C10.1246 6.80266 9.08594 7.38645 9.08594 8.8017V8.93438C9.08594 7.51028 10.1337 6.92649 11.4001 7.62527Z" fill="white"/>
<path d="M38.7988 13.5067H38.1328V11.7288H38.6638C39.1318 11.3308 39.3568 10.6585 39.3478 9.69439V7.07617H42.9567V11.7288H43.5597V13.5067H42.8937V12.3834H38.7988V13.5067ZM40.0498 9.70323C40.0588 10.5435 39.8878 11.2158 39.5368 11.7377H42.2637V7.73073H40.0498V9.70323Z" fill="white" stroke="white" stroke-width="0.0336945" stroke-miterlimit="10"/>
<path d="M48.9687 11.6942C48.4377 12.2337 47.7807 12.4991 46.9887 12.4991C46.1967 12.4991 45.5398 12.2337 45.0088 11.6942C44.4778 11.1546 44.2168 10.5 44.2168 9.7305C44.2168 8.96096 44.4778 8.29756 45.0088 7.76684C45.5398 7.22727 46.1967 6.96191 46.9887 6.96191C47.7717 6.96191 48.4287 7.22727 48.9687 7.76684C49.4997 8.3064 49.7697 8.96096 49.7697 9.7305C49.7697 10.5089 49.4997 11.1634 48.9687 11.6942ZM45.5218 11.2519C45.9178 11.6499 46.4127 11.8445 46.9887 11.8445C47.5647 11.8445 48.0597 11.6499 48.4557 11.2519C48.8517 10.8539 49.0587 10.3497 49.0587 9.7305C49.0587 9.11133 48.8607 8.60714 48.4557 8.20911C48.0597 7.81107 47.5737 7.60762 46.9887 7.60762C46.4127 7.60762 45.9178 7.80222 45.5218 8.20026C45.1258 8.5983 44.9188 9.10248 44.9188 9.72166C44.9188 10.3408 45.1258 10.8539 45.5218 11.2519Z" fill="white" stroke="white" stroke-width="0.0336945" stroke-miterlimit="10"/>
<path d="M53.2611 12.4982C52.4691 12.4982 51.8031 12.2329 51.2631 11.7021C50.7231 11.1714 50.4531 10.5169 50.4531 9.72079C50.4531 8.92471 50.7231 8.27016 51.2631 7.73944C51.8031 7.20872 52.4691 6.94336 53.2611 6.94336C54.071 6.94336 54.737 7.23526 55.241 7.8102L54.755 8.27016C54.386 7.81905 53.891 7.59791 53.2521 7.59791C52.6671 7.59791 52.1631 7.79251 51.7581 8.18171C51.3531 8.5709 51.1551 9.08393 51.1551 9.71195C51.1551 10.34 51.3531 10.853 51.7581 11.2422C52.1631 11.6314 52.6581 11.826 53.2521 11.826C53.9 11.826 54.449 11.5695 54.908 11.0564L55.394 11.5341C55.151 11.826 54.836 12.056 54.467 12.224C54.098 12.4186 53.693 12.4982 53.2611 12.4982Z" fill="white" stroke="white" stroke-width="0.0336945" stroke-miterlimit="10"/>
<path d="M58.2108 12.3834H57.5178V7.73073H56.0059V7.07617H59.7138V7.73073H58.2018V12.3834H58.2108Z" fill="white" stroke="white" stroke-width="0.0336945" stroke-miterlimit="10"/>
<path d="M64.4855 7.07617L62.4425 11.5519C62.1635 12.1799 61.7406 12.4984 61.1826 12.4984C61.0206 12.4984 60.8406 12.463 60.6426 12.3834L60.8226 11.7553C60.9396 11.8173 61.0566 11.8526 61.1826 11.8526C61.3446 11.8526 61.4706 11.8261 61.5606 11.7642C61.6506 11.7023 61.7316 11.5873 61.8036 11.4281L62.0015 11.0035L60.1836 7.07617H61.0026L62.3345 10.119H62.3615L63.6665 7.07617H64.4855Z" fill="white" stroke="white" stroke-width="0.0336945" stroke-miterlimit="10"/>
<path d="M65.2656 12.3834V7.07617H69.1715V12.3834H68.4785V7.73073H65.9586V12.3834H65.2656Z" fill="white" stroke="white" stroke-width="0.0336945" stroke-miterlimit="10"/>
<path d="M70.4062 12.3834V7.07617H71.0992V9.34942H73.7992V7.07617H74.4921V12.3834H73.7992V9.98628H71.0992V12.3834H70.4062Z" fill="white" stroke="white" stroke-width="0.0336945" stroke-miterlimit="10"/>
<path d="M80.1542 11.6942C79.6232 12.2337 78.9663 12.4991 78.1743 12.4991C77.3823 12.4991 76.7253 12.2337 76.1943 11.6942C75.6633 11.1546 75.4023 10.5 75.4023 9.7305C75.4023 8.96096 75.6633 8.29756 76.1943 7.76684C76.7253 7.22727 77.3823 6.96191 78.1743 6.96191C78.9573 6.96191 79.6142 7.22727 80.1542 7.76684C80.6852 8.3064 80.9552 8.96096 80.9552 9.7305C80.9462 10.5089 80.6852 11.1634 80.1542 11.6942ZM76.7073 11.2519C77.1033 11.6499 77.5983 11.8445 78.1743 11.8445C78.7503 11.8445 79.2452 11.6499 79.6412 11.2519C80.0372 10.8539 80.2442 10.3497 80.2442 9.7305C80.2442 9.11133 80.0462 8.60714 79.6412 8.20911C79.2362 7.81107 78.7503 7.60762 78.1743 7.60762C77.5983 7.60762 77.1033 7.80222 76.7073 8.20026C76.3113 8.5983 76.1043 9.10248 76.1043 9.72166C76.1043 10.3408 76.3023 10.8539 76.7073 11.2519Z" fill="white" stroke="white" stroke-width="0.0336945" stroke-miterlimit="10"/>
<path d="M83.7812 12.3834V7.07617H85.7342C86.1572 7.07617 86.5262 7.2177 86.8322 7.48306C87.1472 7.76611 87.3002 8.10223 87.3002 8.51796C87.3002 8.77447 87.2372 8.99561 87.1022 9.18136C86.9672 9.37596 86.7962 9.51748 86.5712 9.61478V9.64132C86.8412 9.72977 87.0572 9.88014 87.2282 10.1013C87.3992 10.3224 87.4892 10.5701 87.4892 10.8531C87.4892 11.2865 87.3272 11.6492 87.0032 11.9323C86.6702 12.2418 86.2832 12.3834 85.8422 12.3834H83.7812ZM84.4742 9.34942H85.7342C85.9952 9.34942 86.2022 9.26097 86.3642 9.09291C86.5262 8.92484 86.5982 8.73909 86.5982 8.53565C86.5982 8.33221 86.5262 8.14646 86.3642 7.9784C86.2112 7.81033 86.0132 7.72188 85.7612 7.72188H84.4742V9.34942ZM84.4742 11.7288H85.8692C86.1392 11.7288 86.3552 11.6404 86.5172 11.4546C86.6792 11.2689 86.7692 11.0743 86.7692 10.8531C86.7692 10.632 86.6882 10.4374 86.5082 10.2605C86.3372 10.0836 86.1122 9.98628 85.8332 9.98628H84.4652V11.7288H84.4742Z" fill="white" stroke="white" stroke-width="0.0336945" stroke-miterlimit="10"/>
</g>
<defs>
<linearGradient id="paint0_linear_2484_19993" x1="19.8628" y1="8.58874" x2="5.02467" y2="23.8726" gradientUnits="userSpaceOnUse">
<stop stop-color="#00A0FF"/>
<stop offset="0.00657445" stop-color="#00A1FF"/>
<stop offset="0.2601" stop-color="#00BEFF"/>
<stop offset="0.5122" stop-color="#00D2FF"/>
<stop offset="0.7604" stop-color="#00DFFF"/>
<stop offset="1" stop-color="#00E3FF"/>
</linearGradient>
<linearGradient id="paint1_linear_2484_19993" x1="30.8296" y1="18.5761" x2="8.78365" y2="18.5761" gradientUnits="userSpaceOnUse">
<stop stop-color="#FFE000"/>
<stop offset="0.4087" stop-color="#FFBD00"/>
<stop offset="0.7754" stop-color="#FFA500"/>
<stop offset="1" stop-color="#FF9C00"/>
</linearGradient>
<linearGradient id="paint2_linear_2484_19993" x1="22.6218" y1="20.6062" x2="2.50011" y2="41.3323" gradientUnits="userSpaceOnUse">
<stop stop-color="#FF3A44"/>
<stop offset="1" stop-color="#C31162"/>
</linearGradient>
<linearGradient id="paint3_linear_2484_19993" x1="6.64968" y1="1.04047" x2="15.6349" y2="10.2955" gradientUnits="userSpaceOnUse">
<stop stop-color="#32A071"/>
<stop offset="0.0685" stop-color="#2DA771"/>
<stop offset="0.4762" stop-color="#15CF74"/>
<stop offset="0.8009" stop-color="#06E775"/>
<stop offset="1" stop-color="#00F076"/>
</linearGradient>
<clipPath id="clip0_2484_19993">
<rect width="123" height="37" fill="white"/>
</clipPath>
</defs>
</svg>
