<svg width="20" height="20" viewBox="0 0 20 20" fill="none" xmlns="http://www.w3.org/2000/svg">
<rect width="20" height="20" rx="3" fill="url(#paint0_linear_2484_19988)"/>
<path fill-rule="evenodd" clip-rule="evenodd" d="M15.0854 4.81751C15.0219 4.82843 14.8841 4.87159 14.7791 4.91343C13.2266 5.53213 4.71913 8.98347 4.66302 9.01734C4.48043 9.12745 4.40039 9.24479 4.40039 9.40235C4.40039 9.53923 4.50365 9.69223 4.66302 9.79152C4.74277 9.8412 5.20287 10.0114 6.02655 10.2958L7.2697 10.7251L10.4441 8.64698C12.1901 7.50405 13.6655 6.54848 13.7229 6.52348C13.9253 6.43532 14.0186 6.54568 13.8825 6.71236C13.8411 6.76317 8.87001 11.3901 8.78175 11.46C8.77065 11.4688 12.8614 14.6907 12.9285 14.726C13.0278 14.7783 13.2207 14.8119 13.3285 14.7957C13.5295 14.7655 13.7426 14.603 13.8223 14.4191C13.8395 14.3793 14.2487 12.2909 14.7315 9.77828C15.4165 6.21341 15.6074 5.18344 15.6002 5.08979C15.5928 4.99371 15.5779 4.95632 15.5253 4.90211C15.4279 4.80167 15.31 4.77897 15.0854 4.81751Z" fill="white"/>
<defs>
<linearGradient id="paint0_linear_2484_19988" x1="10" y1="0" x2="10" y2="20" gradientUnits="userSpaceOnUse">
<stop stop-color="#23B7EC"/>
<stop offset="1" stop-color="#00A9E6"/>
</linearGradient>
</defs>
</svg>
