<svg width="32" height="32" viewBox="0 0 32 32" fill="none" xmlns="http://www.w3.org/2000/svg">
<path fill-rule="evenodd" clip-rule="evenodd" d="M7.38557 3.52617C8.21678 2.91797 9.25306 2.5332 10.2927 2.5332H15.3594C15.856 2.5332 16.4484 2.61385 17.0008 2.77168C17.5085 2.91674 18.1075 3.16192 18.5479 3.57579L22.6383 6.74248L21.4139 8.32393L17.2305 5.08513L17.1856 5.04031C17.0968 4.95145 16.8568 4.81055 16.4514 4.69473C16.0704 4.58589 15.6628 4.5332 15.3594 4.5332H10.2927C9.73243 4.5332 9.10204 4.74844 8.56659 5.14023C8.03185 5.53151 7.6619 6.04635 7.52956 6.57574L7.52074 6.611L4.30542 16.3909L4.30115 16.4029C4.06651 17.0599 4.184 17.5713 4.43113 17.9067C4.68297 18.2485 5.1633 18.5332 5.89275 18.5332H11.2261C12.6172 18.5332 13.7712 19.7217 13.5494 21.2746L13.5475 21.2876L12.8758 25.5857L12.8689 25.6168C12.7214 26.2808 13.1929 27.1347 13.9423 27.3845L13.9599 27.3904L13.9772 27.3969C14.2478 27.4984 14.6035 27.496 14.9677 27.3708C15.3386 27.2434 15.6062 27.0269 15.7274 26.8452L15.7295 26.842L21.1961 18.7087L22.856 19.8244L17.3915 27.9546C17.3911 27.9551 17.3907 27.9557 17.3903 27.9562C16.9781 28.5736 16.313 29.0233 15.6178 29.2622C14.9205 29.5019 14.0833 29.5671 13.2924 29.276C11.6621 28.7226 10.5469 26.9364 10.9092 25.217L11.5702 20.9866C11.5954 20.8014 11.541 20.6993 11.4929 20.6448C11.4371 20.5816 11.3459 20.5332 11.2261 20.5332H5.89275C4.62219 20.5332 3.50252 20.018 2.82102 19.0931C2.13722 18.1651 1.9867 16.9484 2.41315 15.7429L5.59891 6.0529C5.87336 4.99923 6.56344 4.12773 7.38557 3.52617Z" fill="white"/>
<path fill-rule="evenodd" clip-rule="evenodd" d="M23.4716 6.30147C23.34 6.42297 23.16 6.71268 23.16 7.53333V20.6C23.16 21.4206 23.34 21.7104 23.4716 21.8319C23.6229 21.9715 23.97 22.1333 24.8266 22.1333H26.16C27.0167 22.1333 27.3638 21.9715 27.515 21.8319C27.6466 21.7104 27.8266 21.4206 27.8266 20.6V7.53333C27.8266 6.71268 27.6466 6.42297 27.515 6.30147C27.3638 6.16183 27.0167 6 26.16 6H24.8266C23.97 6 23.6229 6.16183 23.4716 6.30147ZM22.115 4.83186C22.8304 4.1715 23.8167 4 24.8266 4H26.16C27.17 4 28.1562 4.1715 28.8716 4.83186C29.6066 5.51037 29.8266 6.48732 29.8266 7.53333V20.6C29.8266 21.646 29.6066 22.623 28.8716 23.3015C28.1562 23.9618 27.17 24.1333 26.16 24.1333H24.8266C23.8167 24.1333 22.8304 23.9618 22.115 23.3015C21.38 22.623 21.16 21.646 21.16 20.6V7.53333C21.16 6.48732 21.38 5.51037 22.115 4.83186Z" fill="white"/>
</svg>
