<svg width="22" height="22" viewBox="0 0 22 22" fill="none" xmlns="http://www.w3.org/2000/svg">
<path fill-rule="evenodd" clip-rule="evenodd" d="M11 8.40588C9.56469 8.40588 8.40582 9.56475 8.40582 11.0001C8.40582 11.4679 8.52859 11.9043 8.74526 12.2825L12.2825 8.74532C11.9043 8.52865 11.4678 8.40588 11 8.40588ZM7.03082 11.0001C7.03082 8.80535 8.80529 7.03088 11 7.03088C12.098 7.03088 13.0864 7.47587 13.8053 8.19475C14.0738 8.46323 14.0738 8.89853 13.8053 9.16702L9.16696 13.8054C8.89847 14.0738 8.46317 14.0738 8.19469 13.8054C7.47581 13.0865 7.03082 12.098 7.03082 11.0001Z" fill="white"/>
<path fill-rule="evenodd" clip-rule="evenodd" d="M2.06935 8.25641C4.26102 4.81124 7.47266 2.73169 11 2.73169C13.0621 2.73169 15.0383 3.45 16.749 4.74032C17.0521 4.96897 17.1125 5.40006 16.8838 5.70319C16.6552 6.00633 16.2241 6.06671 15.921 5.83806C14.4233 4.70838 12.7328 4.10669 11 4.10669C8.05578 4.10669 5.23588 5.84029 3.22923 8.99485L3.22865 8.99576C2.90362 9.50498 2.7179 10.2339 2.7179 11.0046C2.7179 11.7753 2.90362 12.5042 3.22865 13.0135L3.22897 13.014C3.91993 14.0985 4.72 15.027 5.58159 15.7679C5.86947 16.0155 5.90214 16.4496 5.65456 16.7375C5.40699 17.0253 4.97291 17.058 4.68503 16.8104C3.71329 15.9747 2.8267 14.9416 2.06932 13.7528C1.56958 12.9696 1.3429 11.9662 1.3429 11.0046C1.3429 10.043 1.56959 9.03962 2.06935 8.25641Z" fill="white"/>
<path fill-rule="evenodd" clip-rule="evenodd" d="M17.9483 6.73348C18.2441 6.4955 18.6769 6.54243 18.9149 6.83829C19.2668 7.27579 19.6125 7.7459 19.9313 8.24831C20.4306 9.03136 20.6571 10.0343 20.6571 10.9954C20.6571 11.9571 20.4304 12.9604 19.9306 13.7436C17.7389 17.1888 14.5273 19.2684 11 19.2684C9.77483 19.2684 8.57524 19.0093 7.45153 18.5361C7.10159 18.3888 6.93735 17.9857 7.08469 17.6357C7.23204 17.2858 7.63517 17.1216 7.98511 17.2689C8.95139 17.6758 9.97014 17.8934 11 17.8934C13.9442 17.8934 16.7641 16.1598 18.7707 13.0052L18.7713 13.0043C19.0963 12.4951 19.2821 11.7661 19.2821 10.9954C19.2821 10.2247 19.0963 9.49581 18.7713 8.98659L18.7703 8.98507C18.4842 8.53414 18.1699 8.10592 17.8434 7.70009C17.6055 7.40422 17.6524 6.97146 17.9483 6.73348Z" fill="white"/>
<path fill-rule="evenodd" clip-rule="evenodd" d="M14.3418 10.9654C14.7152 11.0342 14.9621 11.3927 14.8932 11.7661C14.6032 13.339 13.3297 14.6125 11.7568 14.9026C11.3834 14.9714 11.0249 14.7246 10.956 14.3511C10.8872 13.9777 11.1341 13.6192 11.5075 13.5504C12.5196 13.3637 13.3544 12.5289 13.541 11.5168C13.6099 11.1434 13.9684 10.8965 14.3418 10.9654Z" fill="white"/>
<path d="M8.68081 13.3192L1.83331 20.1667" stroke="white" stroke-width="1.5" stroke-linecap="round" stroke-linejoin="round"/>
<path fill-rule="evenodd" clip-rule="evenodd" d="M20.653 1.34724C20.9215 1.61572 20.9215 2.05102 20.653 2.31951L13.8055 9.16701C13.537 9.4355 13.1017 9.4355 12.8333 9.16701C12.5648 8.89853 12.5648 8.46322 12.8333 8.19474L19.6808 1.34724C19.9492 1.07875 20.3845 1.07875 20.653 1.34724Z" fill="white"/>
</svg>
