<svg width="32" height="32" viewBox="0 0 32 32" fill="none" xmlns="http://www.w3.org/2000/svg">
<path fill-rule="evenodd" clip-rule="evenodd" d="M18.7069 2.72385C20.3373 3.27729 21.4525 5.06343 21.0902 6.78289L20.4292 11.0133C20.404 11.1985 20.4584 11.3006 20.5065 11.3551C20.5623 11.4183 20.6535 11.4667 20.7733 11.4667H26.1067C27.3772 11.4667 28.4969 11.9819 29.1784 12.9068C29.8622 13.8348 30.0127 15.0515 29.5862 16.257L26.4005 25.947C26.126 27.0007 25.436 27.8722 24.6138 28.4737C23.7826 29.0819 22.7463 29.4667 21.7067 29.4667H16.64C16.1434 29.4667 15.551 29.3861 14.9986 29.2282C14.4909 29.0832 13.8919 28.838 13.4514 28.4241L9.36115 25.2574L10.5855 23.676L14.7689 26.9148L14.8138 26.9596C14.9026 27.0485 15.1426 27.1893 15.548 27.3052C15.929 27.414 16.3366 27.4667 16.64 27.4667H21.7067C22.267 27.4667 22.8974 27.2515 23.4328 26.8597C23.9676 26.4684 24.3375 25.9535 24.4698 25.4242L24.4787 25.3889L27.694 15.609L27.6982 15.597C27.9329 14.94 27.8154 14.4286 27.5683 14.0932C27.3164 13.7514 26.8361 13.4667 26.1067 13.4667H20.7733C19.3822 13.4667 18.2282 12.2782 18.45 10.7253L18.4519 10.7123L19.1236 6.41419L19.1305 6.3831C19.278 5.71907 18.8065 4.86517 18.0571 4.61538L18.0395 4.60953L18.0222 4.60303C17.7516 4.50154 17.3959 4.50387 17.0317 4.62905C16.6608 4.75655 16.3932 4.97296 16.272 5.15473L16.2699 5.15787L10.8033 13.2912L9.14337 12.1755L14.6079 4.04533C14.6083 4.04474 14.6087 4.04415 14.6091 4.04356C15.0214 3.42624 15.6865 2.97662 16.3816 2.73768C17.0789 2.49797 17.916 2.43281 18.7069 2.72385Z" fill="white"/>
<path fill-rule="evenodd" clip-rule="evenodd" d="M4.48495 10.1682C4.35333 10.2897 4.17334 10.5794 4.17334 11.4V24.4667C4.17334 25.2873 4.35333 25.5771 4.48495 25.6986C4.63623 25.8382 4.98332 26 5.84001 26H7.17334C8.03003 26 8.37712 25.8382 8.52839 25.6986C8.66001 25.5771 8.84001 25.2873 8.84001 24.4667V11.4C8.84001 10.5794 8.66001 10.2897 8.52839 10.1682C8.37712 10.0285 8.03003 9.8667 7.17334 9.8667H5.84001C4.98332 9.8667 4.63623 10.0285 4.48495 10.1682ZM3.12839 8.69856C3.84379 8.0382 4.83003 7.8667 5.84001 7.8667H7.17334C8.18332 7.8667 9.16956 8.0382 9.88495 8.69856C10.62 9.37707 10.84 10.354 10.84 11.4V24.4667C10.84 25.5127 10.62 26.4897 9.88495 27.1682C9.16956 27.8285 8.18332 28 7.17334 28H5.84001C4.83003 28 3.84379 27.8285 3.12839 27.1682C2.39335 26.4897 2.17334 25.5127 2.17334 24.4667V11.4C2.17334 10.354 2.39335 9.37707 3.12839 8.69856Z" fill="white"/>
</svg>
