<svg width="32" height="32" viewBox="0 0 32 32" fill="none" xmlns="http://www.w3.org/2000/svg">
<path fill-rule="evenodd" clip-rule="evenodd" d="M5.37379 5.37373C4.29414 6.45339 3.66669 8.1541 3.66669 10.6666V17.3333C3.66669 20.5804 4.32491 22.2055 5.32519 23.0807C6.35851 23.9849 8.0177 24.3333 10.6667 24.3333H11.3334C11.7104 24.3333 12.0773 24.451 12.3658 24.594C12.6507 24.7352 12.973 24.9576 13.2035 25.2713L15.2 27.9333C15.4789 28.3051 15.7783 28.4133 16 28.4133C16.2217 28.4133 16.5211 28.3051 16.8 27.9333L18.8 25.2666L18.8039 25.2615C19.2434 24.6832 19.9361 24.3333 20.6667 24.3333H21.3334C23.8459 24.3333 25.5466 23.7058 26.6262 22.6262C27.7059 21.5465 28.3334 19.8458 28.3334 17.3333V10.6666C28.3334 8.1541 27.7059 6.45339 26.6262 5.37373C25.5466 4.29408 23.8459 3.66663 21.3334 3.66663H10.6667C8.15417 3.66663 6.45345 4.29408 5.37379 5.37373ZM3.95958 3.95952C5.54659 2.37251 7.84588 1.66663 10.6667 1.66663H21.3334C24.1542 1.66663 26.4534 2.37251 28.0405 3.95952C29.6275 5.54653 30.3334 7.84581 30.3334 10.6666V17.3333C30.3334 20.1541 29.6275 22.4534 28.0405 24.0404C26.4534 25.6274 24.1542 26.3333 21.3334 26.3333H20.6667C20.5713 26.3333 20.4648 26.3827 20.3976 26.4699C20.3971 26.4705 20.3966 26.4711 20.3962 26.4717L18.4 29.1333C17.7989 29.9348 16.9383 30.4133 16 30.4133C15.0617 30.4133 14.2011 29.9348 13.6 29.1333L11.5984 26.4644C11.5954 26.4616 11.5894 26.4562 11.5796 26.4486C11.5555 26.4298 11.5205 26.4072 11.4775 26.3859C11.4347 26.3647 11.3938 26.3496 11.361 26.3407C11.3417 26.3355 11.3302 26.3338 11.3266 26.3333H10.6667C7.98234 26.3333 5.64154 26.0151 4.00818 24.5859C2.3418 23.1278 1.66669 20.7529 1.66669 17.3333V10.6666C1.66669 7.84581 2.37257 5.54653 3.95958 3.95952Z" fill="white"/>
<path fill-rule="evenodd" clip-rule="evenodd" d="M19.9948 14.6667C19.9948 13.9303 20.5918 13.3334 21.3281 13.3334H21.3401C22.0765 13.3334 22.6735 13.9303 22.6735 14.6667C22.6735 15.4031 22.0765 16 21.3401 16H21.3281C20.5918 16 19.9948 15.4031 19.9948 14.6667Z" fill="white"/>
<path fill-rule="evenodd" clip-rule="evenodd" d="M14.6602 14.6667C14.6602 13.9303 15.2571 13.3334 15.9935 13.3334H16.0055C16.7418 13.3334 17.3388 13.9303 17.3388 14.6667C17.3388 15.4031 16.7418 16 16.0055 16H15.9935C15.2571 16 14.6602 15.4031 14.6602 14.6667Z" fill="white"/>
<path fill-rule="evenodd" clip-rule="evenodd" d="M9.3255 14.6667C9.3255 13.9303 9.92245 13.3334 10.6588 13.3334H10.6708C11.4072 13.3334 12.0041 13.9303 12.0041 14.6667C12.0041 15.4031 11.4072 16 10.6708 16H10.6588C9.92245 16 9.3255 15.4031 9.3255 14.6667Z" fill="white"/>
</svg>
