<svg width="24" height="23" viewBox="0 0 24 23" fill="none" xmlns="http://www.w3.org/2000/svg">
<g filter="url(#filter0_d_2436_181913)">
<path fill-rule="evenodd" clip-rule="evenodd" d="M13.845 3.60534C14.9101 4.19385 15.4375 5.43443 15.4375 6.93875V15.3538C15.4375 16.8544 14.9096 18.0939 13.8457 18.6833C12.7816 19.2729 11.4507 19.0629 10.1775 18.2646C10.1774 18.2646 10.1775 18.2647 10.1775 18.2646L7.50849 16.592C7.31358 16.4777 7.09709 16.4171 6.89421 16.4171H5.58337C4.56073 16.4171 3.66748 16.161 3.03474 15.5282C2.402 14.8955 2.14587 14.0022 2.14587 12.9796V9.31292C2.14587 8.29028 2.402 7.39702 3.03474 6.76429C3.66748 6.13155 4.56073 5.87542 5.58337 5.87542H6.89421C7.09709 5.87542 7.31359 5.81481 7.5085 5.70053L10.1773 4.02794C10.1773 4.02797 10.1774 4.02792 10.1773 4.02794C11.4495 3.23036 12.7803 3.01704 13.845 3.60534ZM13.18 4.80884C12.7185 4.55382 11.9456 4.54221 10.9077 5.1929L8.22397 6.87486L8.21687 6.87907C7.82676 7.1107 7.36744 7.25042 6.89421 7.25042H5.58337C4.77268 7.25042 4.29094 7.45263 4.00701 7.73656C3.72308 8.02049 3.52087 8.50223 3.52087 9.31292V12.9796C3.52087 13.7903 3.72308 14.272 4.00701 14.556C4.29094 14.8399 4.77268 15.0421 5.58337 15.0421H6.89421C7.36744 15.0421 7.82676 15.1818 8.21687 15.4134L8.22397 15.4177L10.9076 17.0995C11.9444 17.7496 12.7173 17.7366 13.1794 17.4806C13.6417 17.2244 14.0625 16.5756 14.0625 15.3538V6.93875C14.0625 5.71142 13.6412 5.06366 13.18 4.80884Z" fill="white"/>
<path fill-rule="evenodd" clip-rule="evenodd" d="M17.0505 8.82667C17.319 8.55818 17.7543 8.55818 18.0228 8.82667L21.6528 12.4567C21.9212 12.7252 21.9212 13.1605 21.6528 13.4289C21.3843 13.6974 20.949 13.6974 20.6805 13.4289L17.0505 9.79894C16.782 9.53046 16.782 9.09515 17.0505 8.82667Z" fill="white"/>
<path fill-rule="evenodd" clip-rule="evenodd" d="M21.6162 8.86335C21.8847 9.13184 21.8847 9.56714 21.6162 9.83562L17.9862 13.4656C17.7177 13.7341 17.2824 13.7341 17.0139 13.4656C16.7454 13.1971 16.7454 12.7618 17.0139 12.4934L20.6439 8.86335C20.9124 8.59487 21.3477 8.59487 21.6162 8.86335Z" fill="white"/>
</g>
<defs>
<filter id="filter0_d_2436_181913" x="-1" y="-1" width="26" height="26" filterUnits="userSpaceOnUse" color-interpolation-filters="sRGB">
<feFlood flood-opacity="0" result="BackgroundImageFix"/>
<feColorMatrix in="SourceAlpha" type="matrix" values="0 0 0 0 0 0 0 0 0 0 0 0 0 0 0 0 0 0 127 0" result="hardAlpha"/>
<feOffset dy="1"/>
<feGaussianBlur stdDeviation="1"/>
<feComposite in2="hardAlpha" operator="out"/>
<feColorMatrix type="matrix" values="0 0 0 0 0 0 0 0 0 0 0 0 0 0 0 0 0 0 0.3 0"/>
<feBlend mode="normal" in2="BackgroundImageFix" result="effect1_dropShadow_2436_181913"/>
<feBlend mode="normal" in="SourceGraphic" in2="effect1_dropShadow_2436_181913" result="shape"/>
</filter>
</defs>
</svg>
