<svg width="24" height="24" viewBox="0 0 24 24" fill="none" xmlns="http://www.w3.org/2000/svg">
<path fill-rule="evenodd" clip-rule="evenodd" d="M8.78998 11.1498C9.08288 10.857 9.55775 10.857 9.85064 11.1498L11.8803 13.1795L13.91 11.1498C14.2029 10.857 14.6777 10.857 14.9706 11.1498C15.2635 11.4427 15.2635 11.9176 14.9706 12.2105L12.4106 14.7705C12.1177 15.0634 11.6429 15.0634 11.35 14.7705L8.78998 12.2105C8.49709 11.9176 8.49709 11.4427 8.78998 11.1498Z" fill="#333232"/>
<path fill-rule="evenodd" clip-rule="evenodd" d="M11.88 3.25C12.2942 3.25 12.63 3.58579 12.63 4V14.17C12.63 14.5842 12.2942 14.92 11.88 14.92C11.4658 14.92 11.13 14.5842 11.13 14.17V4C11.13 3.58579 11.4658 3.25 11.88 3.25Z" fill="#333232"/>
<path fill-rule="evenodd" clip-rule="evenodd" d="M4 11.4302C4.41421 11.4302 4.75 11.766 4.75 12.1802C4.75 14.2208 5.44112 16.0288 6.66877 17.3211C7.89078 18.6076 9.68843 19.4302 12 19.4302C14.3116 19.4302 16.1092 18.6076 17.3312 17.3211C18.5589 16.0288 19.25 14.2208 19.25 12.1802C19.25 11.766 19.5858 11.4302 20 11.4302C20.4142 11.4302 20.75 11.766 20.75 12.1802C20.75 14.5596 19.9411 16.7516 18.4188 18.3542C16.8908 19.9628 14.6884 20.9302 12 20.9302C9.31157 20.9302 7.10922 19.9628 5.58123 18.3542C4.05888 16.7516 3.25 14.5596 3.25 12.1802C3.25 11.766 3.58579 11.4302 4 11.4302Z" fill="#333232"/>
</svg>
